<svg xmlns="http://www.w3.org/2000/svg" viewBox="0 0 301.434 304.299"><title>book-appointment</title><rect x="2.5" y="32.583" width="252.254" height="229.554" rx="10" ry="10" style="fill:none;stroke:#5fe1cf;stroke-miterlimit:10;stroke-width:5px"/><circle cx="245.942" cy="248.807" r="52.992" style="fill:#edf7f5;stroke:#5fe1cf;stroke-linecap:round;stroke-linejoin:round;stroke-width:5px"/><path d="M287.153,215.506a52.988,52.988,0,0,1-88.746,56.727,52.99,52.99,0,1,0,88.746-56.727Z" style="fill:#5fe1cf;opacity:0.2"/><line x1="244.566" y1="221.483" x2="244.566" y2="260.673" style="fill:none;stroke:#5fe1cf;stroke-linecap:round;stroke-linejoin:round;stroke-width:5px"/><line x1="283.756" y1="260.933" x2="244.566" y2="260.933" style="fill:none;stroke:#5fe1cf;stroke-linecap:round;stroke-linejoin:round;stroke-width:5px"/><path d="M254.754,82.26V42.583a10,10,0,0,0-10-10H12.5a10,10,0,0,0-10,10V82.26Z" style="fill:#edf7f5;stroke:#5fe1cf;stroke-linecap:round;stroke-linejoin:round;stroke-width:5px"/><path d="M245.538,32.623c.02.259.039.519.039.784V73.083H2.5V82.26H254.754V42.583A9.994,9.994,0,0,0,245.538,32.623Z" style="fill:#5fe1cf;opacity:0.2"/><line x1="52.911" y1="2.5" x2="53.911" y2="54.687" style="fill:none;stroke:#5fe1cf;stroke-linecap:round;stroke-miterlimit:10;stroke-width:5px"/><line x1="203.343" y1="4.708" x2="204.343" y2="56.895" style="fill:none;stroke:#5fe1cf;stroke-linecap:round;stroke-miterlimit:10;stroke-width:5px"/></svg>