<svg xmlns="http://www.w3.org/2000/svg" viewBox="0 0 305 303.856"><title>calendar-hand-shake</title><rect x="2.5" y="26.356" width="300" height="275" rx="10" ry="10" style="fill:none;stroke:#5fe1cf;stroke-miterlimit:10;stroke-width:5px"/><line x1="58.327" y1="2.5" x2="58.327" y2="59.422" style="fill:none;stroke:#5fe1cf;stroke-linecap:round;stroke-linejoin:round;stroke-width:5px"/><line x1="105.413" y1="2.5" x2="105.413" y2="59.422" style="fill:none;stroke:#5fe1cf;stroke-linecap:round;stroke-linejoin:round;stroke-width:5px"/><line x1="152.5" y1="2.5" x2="152.5" y2="59.422" style="fill:none;stroke:#5fe1cf;stroke-linecap:round;stroke-linejoin:round;stroke-width:5px"/><line x1="199.587" y1="2.5" x2="199.587" y2="59.422" style="fill:none;stroke:#5fe1cf;stroke-linecap:round;stroke-linejoin:round;stroke-width:5px"/><line x1="246.673" y1="2.5" x2="246.673" y2="59.422" style="fill:none;stroke:#5fe1cf;stroke-linecap:round;stroke-linejoin:round;stroke-width:5px"/><line x1="3" y1="82.356" x2="302" y2="82.356" style="fill:none;stroke:#5fe1cf;stroke-miterlimit:10;stroke-width:5px"/><path d="M77.009,175.674s-5.046,17.112,4.388,25.01" style="fill:none;stroke:#5fe1cf;stroke-linecap:round;stroke-linejoin:round;stroke-width:5px"/><rect x="88.691" y="202.214" width="17.741" height="41.045" rx="8.87" ry="8.87" transform="translate(212.124 8.248) rotate(51.762)" style="fill:none;stroke:#5fe1cf;stroke-linecap:round;stroke-linejoin:round;stroke-width:5px"/><rect x="100.842" y="218.775" width="17.741" height="41.045" rx="8.87" ry="8.87" transform="matrix(0.619, 0.785, -0.785, 0.619, 229.762, 5.015)" style="fill:none;stroke:#5fe1cf;stroke-linecap:round;stroke-linejoin:round;stroke-width:5px"/><rect x="78.989" y="192.112" width="17.741" height="31.951" rx="8.87" ry="8.87" transform="translate(196.921 10.286) rotate(51.762)" style="fill:none;stroke:#5fe1cf;stroke-linecap:round;stroke-linejoin:round;stroke-width:5px"/><path d="M146.161,178.767a11.96,11.96,0,0,1-2.3,3.215l-3.928,3.928a11.995,11.995,0,0,1-16.963-16.963l3.928-3.928a11.936,11.936,0,0,1,6.529-3.354" style="fill:none;stroke:#5fe1cf;stroke-linecap:round;stroke-linejoin:round;stroke-width:5px"/><path d="M190.213,209.2q.328.282.64.593L212.74,231.68a11.232,11.232,0,1,1-15.885,15.884l-21.643-21.643" style="fill:none;stroke:#5fe1cf;stroke-linecap:round;stroke-linejoin:round;stroke-width:5px"/><path d="M174.868,225.5a10.517,10.517,0,0,1,1.244,1.064l16.126,16.126a10.386,10.386,0,1,1-14.688,14.689l-16.127-16.127q-.256-.256-.492-.527" style="fill:none;stroke:#5fe1cf;stroke-linecap:round;stroke-linejoin:round;stroke-width:5px"/><path d="M158.946,239.09l11.435,11.436a9.3,9.3,0,1,1-13.147,13.147L144.9,251.339a9.366,9.366,0,0,1-1.348-1.705" style="fill:none;stroke:#5fe1cf;stroke-linecap:round;stroke-linejoin:round;stroke-width:5px"/><rect x="115.777" y="237.333" width="17.741" height="28.7" rx="8.87" ry="8.87" transform="translate(245.181 -1.996) rotate(51.762)" style="fill:none;stroke:#5fe1cf;stroke-linecap:round;stroke-linejoin:round;stroke-width:5px"/><path d="M130.937,258.02l-5.005,3.944,9.394,9.394a10.289,10.289,0,0,0,14.551-14.551l-7.054-7.055" style="fill:none;stroke:#5fe1cf;stroke-linecap:round;stroke-linejoin:round;stroke-width:5px"/><line x1="189.612" y1="138.475" x2="130.754" y2="162.757" style="fill:none;stroke:#5fe1cf;stroke-linecap:round;stroke-linejoin:round;stroke-width:5px"/><path d="M226.828,175.426s6.07,8.446-.792,24.019S207.56,226.63,207.56,226.63" style="fill:none;stroke:#5fe1cf;stroke-linecap:round;stroke-linejoin:round;stroke-width:5px"/><line x1="114.525" y1="140.132" x2="152.041" y2="153.515" style="fill:none;stroke:#5fe1cf;stroke-linecap:round;stroke-linejoin:round;stroke-width:5px"/><rect x="187.377" y="129.861" width="69.898" height="34.036" rx="5" ry="5" transform="translate(168.977 -114.189) rotate(45)" style="fill:#edf7f5;stroke:#5fe1cf;stroke-miterlimit:10;stroke-width:5px"/><rect x="47.725" y="128.924" width="69.898" height="34.036" rx="5" ry="5" transform="translate(244.329 190.679) rotate(135)" style="fill:#edf7f5;stroke:#5fe1cf;stroke-miterlimit:10;stroke-width:5px"/><path d="M255.537,156.022l-42.354-42.354a5,5,0,0,0-5.511-1.049l39.58,39.579a5,5,0,0,1,0,7.071l-17,17a4.961,4.961,0,0,1-1.561,1.049l2.775,2.775a5,5,0,0,0,7.071,0l17-17A5,5,0,0,0,255.537,156.022Z" style="fill:#5fe1cf;opacity:0.2"/><path d="M115.884,129.727l-17-17a5,5,0,0,0-5.51-1.049L107.6,125.9a5,5,0,0,1,0,7.071L65.245,175.328a4.968,4.968,0,0,1-1.56,1.049l2.774,2.775a5,5,0,0,0,7.071,0L115.884,136.8A5,5,0,0,0,115.884,129.727Z" style="fill:#5fe1cf;opacity:0.2"/><polyline points="188.94 208.169 153.348 175.913 146.452 177.693" style="fill:none;stroke:#5fe1cf;stroke-linecap:round;stroke-linejoin:round;stroke-width:5px"/></svg>