<svg xmlns="http://www.w3.org/2000/svg" viewBox="0 0 305 305"><title>cash-flow</title><circle cx="152.5" cy="152.5" r="89.042" style="fill:#edf7f5;stroke:#5fe1cf;stroke-linecap:round;stroke-linejoin:round;stroke-width:5px"/><path d="M226.746,103.34A89.053,89.053,0,0,1,72.051,190.7a89.052,89.052,0,1,0,154.7-87.362Z" style="fill:#5fe1cf;opacity:0.2"/><path d="M7.632,191.545A150.033,150.033,0,0,1,279.761,73.061" style="fill:none;stroke:#5fe1cf;stroke-linecap:round;stroke-linejoin:round;stroke-width:5px"/><path d="M298.471,117.818A150.029,150.029,0,0,1,28.988,237.64" style="fill:none;stroke:#5fe1cf;stroke-linecap:round;stroke-linejoin:round;stroke-width:5px"/><line x1="152.769" y1="208.85" x2="152.769" y2="191.818" style="fill:none;stroke:#5fe1cf;stroke-linecap:round;stroke-miterlimit:10;stroke-width:5px"/><line x1="152.769" y1="113.182" x2="152.769" y2="96.15" style="fill:none;stroke:#5fe1cf;stroke-linecap:round;stroke-miterlimit:10;stroke-width:5px"/><path d="M124.043,178.13s10.685,15.482,35.98,12.429c0,0,19.407-1.744,19.843-19.189a17.3,17.3,0,0,0-8.338-14.831c-6.8-4.271-15.209-4.32-22.7-6.683-9.935-3.133-23.139-8.578-20.494-21.522,1.929-9.442,12.253-13.585,20.789-14.749,0,0,19.407-2.4,31.837,10.9" style="fill:none;stroke:#5fe1cf;stroke-linecap:round;stroke-linejoin:round;stroke-width:5px"/><line x1="241.542" y1="68.837" x2="280.692" y2="74.739" style="fill:none;stroke:#5fe1cf;stroke-linecap:round;stroke-linejoin:round;stroke-width:5px"/><line x1="290.944" y1="36.519" x2="280.705" y2="74.765" style="fill:none;stroke:#5fe1cf;stroke-linecap:round;stroke-linejoin:round;stroke-width:5px"/><line x1="67.317" y1="233.827" x2="27.78" y2="235.941" style="fill:none;stroke:#5fe1cf;stroke-linecap:round;stroke-linejoin:round;stroke-width:5px"/><line x1="25.446" y1="275.443" x2="27.763" y2="235.919" style="fill:none;stroke:#5fe1cf;stroke-linecap:round;stroke-linejoin:round;stroke-width:5px"/></svg>