<svg xmlns="http://www.w3.org/2000/svg" viewBox="0 0 356.23 217.451"><title>chat</title><path d="M2.5,92.1C2.5,42.616,49.131,2.5,106.654,2.5S210.808,42.616,210.808,92.1s-46.631,89.6-104.154,89.6a117.007,117.007,0,0,1-51.135-11.531C32.6,185.216,13.2,180.063,13.2,180.063a45.435,45.435,0,0,0,13.927-30.112C11.765,134.341,2.5,114.154,2.5,92.1Z" style="fill:none;stroke:#5fe1cf;stroke-linecap:round;stroke-linejoin:round;stroke-width:5px"/><path d="M353.73,127.864c0-48.1-45.322-87.087-101.23-87.087s-101.23,38.99-101.23,87.087,45.322,87.087,101.23,87.087a113.725,113.725,0,0,0,49.7-11.207c22.278,14.62,41.135,9.611,41.135,9.611A44.153,44.153,0,0,1,329.8,184.089C344.725,168.917,353.73,149.3,353.73,127.864Z" style="fill:#edf7f5;stroke:#5fe1cf;stroke-linecap:round;stroke-linejoin:round;stroke-width:5px"/><path d="M353.731,127.864c0-26.923-14.2-50.99-36.514-66.964,16.443,15.484,26.474,36.092,26.474,58.717,0,21.433-9.006,41.054-23.931,56.226A44.153,44.153,0,0,0,333.3,205.109s-18.856,5.009-41.135-9.611a113.721,113.721,0,0,1-49.7,11.207c-24.613,0-47.172-7.56-64.718-20.124,18.511,17.433,45.149,28.37,74.757,28.37a113.722,113.722,0,0,0,49.7-11.207c22.279,14.62,41.135,9.611,41.135,9.611A44.158,44.158,0,0,1,329.8,184.089C344.725,168.917,353.731,149.3,353.731,127.864Z" style="fill:#5fe1cf;opacity:0.2"/></svg>