<svg xmlns="http://www.w3.org/2000/svg" viewBox="0 0 80 68.547"><title>construction</title><path d="M65.388,3.279V14.845a1.969,1.969,0,0,1-1.967,1.967H40.656V1.311H63.421A1.97,1.97,0,0,1,65.388,3.279Zm-50.776,0V14.845a1.969,1.969,0,0,0,1.967,1.967H39.344V1.311H16.579A1.97,1.97,0,0,0,14.612,3.279Zm0,33.608V48.453a1.969,1.969,0,0,0,1.967,1.967H39.344V34.938H16.4A1.964,1.964,0,0,0,14.612,36.887Zm48.993-1.949H40.656V50.42H63.421a1.969,1.969,0,0,0,1.967-1.967V36.887A1.964,1.964,0,0,0,63.605,34.938Z" style="fill:#edf7f5"/><path d="M14.612,48.322H39.344v2.1H16.579a1.969,1.969,0,0,1-1.967-1.967ZM63.605,34.938h-.556V47.019a1.3,1.3,0,0,1-1.3,1.3H40.656v2.1H63.421a1.969,1.969,0,0,0,1.967-1.967V36.887A1.964,1.964,0,0,0,63.605,34.938ZM16.579,16.812H39.344V14.889H14.617A1.966,1.966,0,0,0,16.579,16.812Zm46.842-15.5h-.372V13.586a1.3,1.3,0,0,1-1.3,1.3H40.656v1.923H63.421a1.969,1.969,0,0,0,1.967-1.967V3.279A1.97,1.97,0,0,0,63.421,1.311Z" style="fill:#00c0a5;opacity:0.2"/><path d="M1.311,53.7V65.268a1.97,1.97,0,0,0,1.968,1.967H26.2v-15.5H3.279A1.97,1.97,0,0,0,1.311,53.7Z" style="fill:none"/><path d="M16.579,33.608H26.2V18.126H3.279a1.97,1.97,0,0,0-1.968,1.968V31.66a1.97,1.97,0,0,0,1.968,1.967H16.4C16.457,33.623,16.516,33.608,16.579,33.608Z" style="fill:none"/><rect x="27.514" y="18.126" width="24.972" height="15.482" style="fill:none"/><rect x="27.514" y="51.734" width="24.972" height="15.501" style="fill:none"/><path d="M53.8,67.235H76.721a1.97,1.97,0,0,0,1.968-1.967V53.7a1.97,1.97,0,0,0-1.968-1.968H53.8Z" style="fill:none"/><path d="M78.689,31.66V20.094a1.97,1.97,0,0,0-1.968-1.968H53.8V33.608h9.623c.063,0,.122.015.184.019H76.721A1.97,1.97,0,0,0,78.689,31.66Z" style="fill:none"/><path d="M40.656,48.322h21.09a1.3,1.3,0,0,0,1.3-1.3V34.938H40.656Z" style="fill:none"/><path d="M39.344,14.889V1.311H16.579a1.97,1.97,0,0,0-1.967,1.968V14.845c0,.015,0,.029.005.044Z" style="fill:none"/><rect x="27.514" y="18.126" width="24.972" height="15.482" style="fill:none"/><path d="M16.579,33.608H26.2V18.126H3.279a1.97,1.97,0,0,0-1.968,1.968V31.66a1.97,1.97,0,0,0,1.968,1.967H16.4C16.457,33.623,16.516,33.608,16.579,33.608Z" style="fill:none"/><path d="M39.344,34.938H16.4a1.964,1.964,0,0,0-1.783,1.949V48.322H39.344Z" style="fill:none"/><path d="M1.311,53.7V65.268a1.97,1.97,0,0,0,1.968,1.967H26.2v-15.5H3.279A1.97,1.97,0,0,0,1.311,53.7Z" style="fill:none"/><path d="M53.8,67.235H76.721a1.97,1.97,0,0,0,1.968-1.967V53.7a1.97,1.97,0,0,0-1.968-1.968H53.8Z" style="fill:none"/><path d="M78.689,31.66V20.094a1.97,1.97,0,0,0-1.968-1.968H53.8V33.608h9.623c.063,0,.122.015.184.019H76.721A1.97,1.97,0,0,0,78.689,31.66Z" style="fill:none"/><rect x="27.514" y="51.734" width="24.972" height="15.501" style="fill:none"/><path d="M80,31.66V20.094a3.283,3.283,0,0,0-3.279-3.279h-10.7a3.249,3.249,0,0,0,.674-1.97V3.279A3.282,3.282,0,0,0,63.421,0H16.579A3.282,3.282,0,0,0,13.3,3.279V14.845a3.249,3.249,0,0,0,.674,1.97H3.279A3.283,3.283,0,0,0,0,20.094V31.66a3.283,3.283,0,0,0,3.279,3.278H13.958a3.246,3.246,0,0,0-.657,1.949V48.453a3.243,3.243,0,0,0,.675,1.97H3.279A3.283,3.283,0,0,0,0,53.7V65.268a3.283,3.283,0,0,0,3.279,3.279H76.721A3.283,3.283,0,0,0,80,65.268V53.7a3.283,3.283,0,0,0-3.279-3.279h-10.7a3.249,3.249,0,0,0,.674-1.97V36.887a3.246,3.246,0,0,0-.657-1.949H76.721A3.283,3.283,0,0,0,80,31.66Zm-16.4,3.278a1.964,1.964,0,0,1,1.783,1.949V48.453a1.969,1.969,0,0,1-1.967,1.967H40.656V34.938H63.605ZM14.612,48.322V36.887A1.964,1.964,0,0,1,16.4,34.938H39.344V50.42H16.579a1.969,1.969,0,0,1-1.967-1.967ZM52.486,33.608H27.514V18.126H52.486Zm10.563-32.3h.372a1.97,1.97,0,0,1,1.967,1.968V14.845a1.969,1.969,0,0,1-1.967,1.967H40.656V1.311ZM14.612,3.279a1.97,1.97,0,0,1,1.967-1.968H39.344v15.5H16.579a1.966,1.966,0,0,1-1.962-1.923c0-.015-.005-.029-.005-.044ZM3.279,33.627A1.97,1.97,0,0,1,1.311,31.66V20.094a1.97,1.97,0,0,1,1.968-1.968H26.2V33.608H16.579c-.063,0-.122.015-.184.019ZM26.2,67.235H3.279a1.97,1.97,0,0,1-1.968-1.967V53.7a1.97,1.97,0,0,1,1.968-1.968H26.2Zm26.284,0H27.514v-15.5H52.486Zm24.235-15.5A1.97,1.97,0,0,1,78.689,53.7V65.268a1.97,1.97,0,0,1-1.968,1.967H53.8v-15.5ZM63.605,33.627c-.062,0-.121-.019-.184-.019H53.8V18.126H76.721a1.97,1.97,0,0,1,1.968,1.968V31.66a1.97,1.97,0,0,1-1.968,1.967Z" style="fill:#00c0a5"/></svg>