<svg xmlns="http://www.w3.org/2000/svg" viewBox="0 0 80 65.544"><title>deposits</title><path d="M3.227,63.357a4.588,4.588,0,0,1-.47-.388A4.722,4.722,0,0,0,3.227,63.357Z" style="fill:none"/><path d="M1.7,61.474a4.541,4.541,0,0,0,.348.64,4.541,4.541,0,0,1-.348-.64Z" style="fill:none"/><path d="M1.42,60.616c0-.009-.006-.017-.008-.025C1.414,60.6,1.418,60.607,1.42,60.616Z" style="fill:none"/><path d="M2.539,62.744a4.733,4.733,0,0,1-.305-.371A4.733,4.733,0,0,0,2.539,62.744Z" style="fill:none"/><path d="M4.831,64.094a4.652,4.652,0,0,1-.563-.175A4.652,4.652,0,0,0,4.831,64.094Z" style="fill:none"/><path d="M5.9,64.233a4.645,4.645,0,0,1-.831-.084A4.555,4.555,0,0,0,5.9,64.233Z" style="fill:none"/><path d="M4.036,63.828a4.652,4.652,0,0,1-.677-.368A4.705,4.705,0,0,0,4.036,63.828Z" style="fill:none"/><path d="M78.6,39.966a4.577,4.577,0,0,1,.084.833V59.643a4.6,4.6,0,0,1-4.59,4.59H5.9a4.636,4.636,0,0,1-.831-.084c-.081-.015-.16-.036-.24-.055a4.652,4.652,0,0,1-.563-.175c-.077-.03-.156-.057-.232-.091a4.652,4.652,0,0,1-.677-.368c-.046-.031-.087-.07-.132-.1a4.588,4.588,0,0,1-.47-.388c-.076-.072-.147-.148-.218-.225a4.733,4.733,0,0,1-.305-.371c-.064-.085-.13-.169-.188-.259a4.541,4.541,0,0,1-.348-.64,4.7,4.7,0,0,1-.278-.858c0-.009-.006-.017-.008-.025a4.558,4.558,0,0,1-.1-.948V40.8A4.6,4.6,0,0,1,5.9,36.209H31.711l.21.2,7.465,7.221a.65.65,0,0,0,.614.446c.019,0,.036-.01.055-.011l.015,0c.015,0,.029.008.043.008a.826.826,0,0,0,.458-.186l7.873-7.684H74.1a4.562,4.562,0,0,1,1.759.353c.056.024.107.057.162.082a4.609,4.609,0,0,1,.54.294c.083.053.161.111.241.169a4.619,4.619,0,0,1,.4.334c.068.062.137.123.2.189a4.754,4.754,0,0,1,.492.595c.016.024.027.051.043.075a4.515,4.515,0,0,1,.341.627c.034.077.063.156.093.234a4.667,4.667,0,0,1,.175.564C78.568,39.805,78.589,39.884,78.6,39.966Z" style="fill:#edf7f5"/><path d="M75.857,58.852V36.562A4.6,4.6,0,0,1,78.688,40.8V59.643a4.6,4.6,0,0,1-4.59,4.59H5.9a4.594,4.594,0,0,1-4.2-2.759H73.234A2.622,2.622,0,0,0,75.857,58.852Z" style="fill:#00c0a5;opacity:0.2"/><polygon points="31.917 36.407 31.711 36.209 31.921 36.412 31.917 36.407" style="fill:none"/><path d="M78.373,39.161a4.667,4.667,0,0,1,.175.564A4.667,4.667,0,0,0,78.373,39.161Z" style="fill:none"/><path d="M78.688,40.8a4.577,4.577,0,0,0-.084-.833A4.577,4.577,0,0,1,78.688,40.8Z" style="fill:none"/><path d="M77.939,38.3a4.515,4.515,0,0,1,.341.627A4.623,4.623,0,0,0,77.939,38.3Z" style="fill:none"/><path d="M74.1,36.209a4.637,4.637,0,0,1,.911.092A4.562,4.562,0,0,0,74.1,36.209Z" style="fill:none"/><path d="M76.8,37.107a4.619,4.619,0,0,1,.4.334A4.619,4.619,0,0,0,76.8,37.107Z" style="fill:none"/><path d="M76.019,36.644a4.609,4.609,0,0,1,.54.294A4.609,4.609,0,0,0,76.019,36.644Z" style="fill:none"/><path d="M77.4,37.63a4.668,4.668,0,0,1,.492.595A4.668,4.668,0,0,0,77.4,37.63Z" style="fill:none"/><path d="M74.1,34.9H49.787l8.459-8.256a.656.656,0,1,0-.916-.939l-9.737,9.5-6.937,6.057V.656a.656.656,0,0,0-1.312,0V41.729l-6.517-6.266-10.16-9.827a.655.655,0,1,0-.911.942l8.6,8.32H5.9A5.908,5.908,0,0,0,0,40.8V59.643a5.908,5.908,0,0,0,5.9,5.9H74.1a5.908,5.908,0,0,0,5.9-5.9V40.8A5.908,5.908,0,0,0,74.1,34.9Zm4.59,24.745a4.6,4.6,0,0,1-4.59,4.59H5.9a4.555,4.555,0,0,1-.831-.084c-.081-.015-.16-.036-.24-.055a4.652,4.652,0,0,1-.563-.175c-.077-.03-.156-.057-.232-.091a4.705,4.705,0,0,1-.677-.368c-.046-.031-.087-.07-.132-.1a4.722,4.722,0,0,1-.47-.388c-.076-.072-.147-.148-.218-.225a4.733,4.733,0,0,1-.305-.371c-.064-.085-.13-.169-.188-.259a4.541,4.541,0,0,1-.348-.64h0a4.7,4.7,0,0,1-.278-.858c0-.009-.006-.017-.008-.025a4.558,4.558,0,0,1-.1-.948V40.8a4.6,4.6,0,0,1,4.59-4.59H31.711l.206.2,0,.005,7.465,7.221a.65.65,0,0,0,.614.446c.02,0,.036-.01.055-.011l.015,0c.015,0,.029.008.043.008a.826.826,0,0,0,.458-.186l7.873-7.684H74.1a4.562,4.562,0,0,1,1.759.353c.056.024.107.057.162.082a4.609,4.609,0,0,1,.54.294c.083.053.161.111.241.169a4.619,4.619,0,0,1,.4.334c.068.062.137.123.2.189a4.668,4.668,0,0,1,.492.595c.016.024.027.051.043.075a4.623,4.623,0,0,1,.341.627c.034.077.063.156.093.234a4.667,4.667,0,0,1,.175.564c.02.08.041.159.056.241a4.577,4.577,0,0,1,.084.833Z" style="fill:#00c0a5"/></svg>