<svg xmlns="http://www.w3.org/2000/svg" viewBox="0 0 360.693 260.071"><title>document-arrow-link</title><path d="M33.292,54.527c25.42,1.229,44.51,23.109,52.362,45.62,3.665,10.509,4.5,21.344,6.563,32.217,4.263,22.441,10.363,47.354,26.054,64.858,15.466,17.252,36.97,17.553,56.728,7.294" style="fill:none;stroke:#5fe1cf;stroke-miterlimit:10;stroke-width:5px"/><path d="M33.292,211.384c25.42-1.228,44.51-23.108,52.362-45.62,3.665-10.508,4.5-21.344,6.563-32.216,4.264-22.441,10.363-47.354,26.054-64.858C133.737,51.437,155.242,51.137,175,61.4" style="fill:none;stroke:#5fe1cf;stroke-miterlimit:10;stroke-width:5px"/><path d="M283.634,2.5H166.471a17,17,0,0,0-17,17.005V240.566a17.005,17.005,0,0,0,17,17.005H341.189a17,17,0,0,0,17-17.005V77.06Z" style="fill:#edf7f5;stroke:#5fe1cf;stroke-miterlimit:10;stroke-width:5px"/><path d="M347.566,66.432V229.938a17.006,17.006,0,0,1-17,17.005H155.843a16.94,16.94,0,0,1-5.463-.914,17,17,0,0,0,16.091,11.542H341.189a17,17,0,0,0,17-17.005V77.06Z" style="fill:#5fe1cf;opacity:0.2"/><path d="M283.1,2.816V69.243a8.5,8.5,0,0,0,8.5,8.5H358.03Z" style="fill:none;stroke:#5fe1cf;stroke-linecap:round;stroke-linejoin:round;stroke-width:5px"/><line x1="193.249" y1="122.991" x2="314.41" y2="122.991" style="fill:none;stroke:#5fe1cf;stroke-linecap:round;stroke-linejoin:round;stroke-width:5px"/><line x1="193.249" y1="161.919" x2="314.41" y2="161.919" style="fill:none;stroke:#5fe1cf;stroke-linecap:round;stroke-linejoin:round;stroke-width:5px"/><line x1="193.249" y1="204.249" x2="314.41" y2="204.249" style="fill:none;stroke:#5fe1cf;stroke-linecap:round;stroke-linejoin:round;stroke-width:5px"/><path d="M4.274,59.56,34.417,85.011a5,5,0,0,0,8.226-3.821v-50.9a5,5,0,0,0-8.226-3.82L4.274,51.919A5,5,0,0,0,4.274,59.56Z" style="fill:#edf7f5;stroke:#5fe1cf;stroke-miterlimit:10;stroke-width:5px"/><path d="M4.274,220.443l30.143,25.451a5,5,0,0,0,8.226-3.821v-50.9a5,5,0,0,0-8.226-3.82L4.274,212.8A5,5,0,0,0,4.274,220.443Z" style="fill:#fff;stroke:#5fe1cf;stroke-miterlimit:10;stroke-width:5px"/></svg>