<svg xmlns="http://www.w3.org/2000/svg" viewBox="0 0 80 80"><title>fixed mortgage rates</title><path d="M54.857,75.718a38.725,38.725,0,1,1,20.95-21.087,15.122,15.122,0,1,0-20.95,21.087Z" style="fill:#edf7f5"/><path d="M78.689,40c0,.625-.018,1.247-.048,1.865-.01.211-.028.421-.042.631-.026.405-.054.81-.092,1.211-.024.25-.054.5-.083.746-.041.358-.085.715-.136,1.069-.038.265-.08.529-.123.793-.055.333-.115.664-.178,1-.052.271-.1.542-.163.812-.069.319-.144.635-.22.951-.066.271-.129.542-.2.811-.084.316-.177.629-.268.942-.076.261-.148.523-.229.781q-.247.789-.529,1.562l-.009.027a16.654,16.654,0,0,0-2.637-2.71,39.363,39.363,0,0,0-1.144-31.3A38.443,38.443,0,0,1,78.689,40ZM50.344,73.214A39.336,39.336,0,0,1,11.11,65.7,38.6,38.6,0,0,0,40,78.689c.63,0,1.255-.018,1.877-.048.219-.011.435-.03.652-.044.4-.026.8-.053,1.2-.092.262-.025.522-.058.783-.088.346-.041.691-.083,1.034-.132.285-.041.568-.087.85-.135.313-.052.625-.107.935-.167s.593-.118.888-.182.575-.13.862-.2c.306-.074.612-.149.915-.23.265-.071.526-.148.788-.224.318-.093.635-.183.949-.283.231-.074.458-.155.686-.233.336-.114.674-.226,1.007-.349h0A16.709,16.709,0,0,1,50.344,73.214Z" style="fill:#00c0a5;opacity:0.2"/><path d="M63.362,48.084a15.161,15.161,0,1,0,12.445,6.547A15.147,15.147,0,0,0,63.362,48.084Z" style="fill:#fff"/><path d="M72.588,19.188a38.676,38.676,0,1,0-19.162,57.1A16.421,16.421,0,1,1,76.369,53.2a38.6,38.6,0,0,0-3.781-34.008Z" style="fill:none"/><path d="M45.546,78.285c-.343.049-.688.091-1.034.132C44.858,78.376,45.2,78.335,45.546,78.285Z" style="fill:none"/><path d="M76.907,51.607q-.247.789-.529,1.562Q76.659,52.4,76.907,51.607Z" style="fill:none"/><path d="M77.4,49.884c-.084.316-.177.629-.268.942C77.227,50.513,77.32,50.2,77.4,49.884Z" style="fill:none"/><path d="M34.3,30.279A4.918,4.918,0,1,0,29.384,35.2,4.923,4.923,0,0,0,34.3,30.279Z" style="fill:none"/><path d="M47.331,77.983c-.31.06-.622.115-.935.167C46.709,78.1,47.021,78.043,47.331,77.983Z" style="fill:none"/><path d="M40.629,45.432a4.918,4.918,0,1,0,4.918-4.918A4.923,4.923,0,0,0,40.629,45.432Z" style="fill:none"/><path d="M49.081,77.6c-.287.069-.573.137-.862.2C48.508,77.738,48.794,77.671,49.081,77.6Z" style="fill:none"/><path d="M43.729,78.505c-.4.039-.8.066-1.2.092C42.93,78.571,43.331,78.544,43.729,78.505Z" style="fill:none"/><path d="M77.824,48.122c-.069.319-.144.635-.22.951C77.68,48.757,77.755,48.441,77.824,48.122Z" style="fill:none"/><path d="M41.877,78.641c-.622.03-1.247.048-1.877.048C40.63,78.689,41.255,78.671,41.877,78.641Z" style="fill:none"/><path d="M78.689,40c0,.625-.018,1.247-.048,1.865C78.671,41.247,78.689,40.625,78.689,40Z" style="fill:none"/><path d="M78.165,46.315c-.055.333-.115.664-.178,1C78.05,46.979,78.11,46.648,78.165,46.315Z" style="fill:none"/><path d="M78.424,44.453c-.041.358-.085.715-.136,1.069C78.339,45.168,78.383,44.811,78.424,44.453Z" style="fill:none"/><path d="M78.6,42.5c-.026.405-.054.81-.092,1.211C78.545,43.306,78.573,42.9,78.6,42.5Z" style="fill:none"/><path d="M50.784,77.148c-.262.076-.523.153-.788.224C50.261,77.3,50.522,77.224,50.784,77.148Z" style="fill:none"/><path d="M52.419,76.632c-.228.078-.455.159-.686.233C51.964,76.791,52.191,76.71,52.419,76.632Z" style="fill:none"/><polygon points="53.426 76.283 53.426 76.283 53.426 76.283 53.426 76.283" style="fill:none"/><path d="M66.171,59.971a2.81,2.81,0,1,0-5.619,0v2.665h5.619Z" style="fill:none"/><path d="M48.111,23.057,28.748,52.641a.656.656,0,0,1-.55.3.648.648,0,0,1-.358-.107.656.656,0,0,1-.19-.908L47.014,22.339a.656.656,0,1,1,1.1.718ZM29.384,36.508a6.23,6.23,0,1,1,6.229-6.229A6.236,6.236,0,0,1,29.384,36.508Zm0-1.312a4.918,4.918,0,1,0-4.918-4.917A4.923,4.923,0,0,0,29.384,35.2ZM45.547,51.661a6.229,6.229,0,1,1,6.229-6.229A6.236,6.236,0,0,1,45.547,51.661Zm4.918-6.229a4.918,4.918,0,1,0-4.918,4.917A4.924,4.924,0,0,0,50.465,45.432ZM77.272,54.49A16.409,16.409,0,0,1,54.727,77.179,40.036,40.036,0,1,1,77.272,54.49ZM53.426,76.283a16.709,16.709,0,0,1-3.082-3.069A16.412,16.412,0,0,1,73.732,50.486a16.654,16.654,0,0,1,2.637,2.71l.009-.027q.281-.774.529-1.562c.081-.258.153-.52.229-.781.091-.313.184-.626.268-.942.071-.269.134-.54.2-.811.076-.316.151-.632.22-.951.058-.27.111-.541.163-.812.063-.331.123-.662.178-1,.043-.264.085-.528.123-.793.051-.354.095-.711.136-1.069.029-.248.059-.5.083-.746.038-.4.066-.806.092-1.211.014-.21.032-.42.042-.631.03-.618.048-1.24.048-1.865A38.689,38.689,0,1,0,1.312,40,38.748,38.748,0,0,0,40,78.689c.63,0,1.255-.018,1.877-.048.219-.011.435-.03.652-.044.4-.026.8-.053,1.2-.092.262-.025.522-.058.783-.088.346-.041.691-.082,1.034-.132.285-.041.568-.087.85-.135.313-.052.625-.107.935-.167s.593-.118.888-.182.575-.13.862-.2c.306-.074.612-.149.915-.23.265-.071.526-.148.788-.224.318-.093.635-.183.949-.283.231-.074.458-.155.686-.233.336-.114.674-.226,1.007-.349Zm23.227-20.29a14.873,14.873,0,0,0-.846-1.362,15.271,15.271,0,0,0-2.592-2.875,15.114,15.114,0,0,0-21.6,20.973,15.287,15.287,0,0,0,3.245,2.989,15.122,15.122,0,0,0,21.8-19.725Zm-7.461,7.643v6.3a1,1,0,0,1-1,1h-9.66a1,1,0,0,1-1-1v-6.3a1,1,0,0,1,1-1h.709V59.971a4.121,4.121,0,0,1,8.242,0v2.665h.709A1,1,0,0,1,69.192,63.636ZM65.137,66.08a1.775,1.775,0,0,0-3.55,0,1.718,1.718,0,0,0,.173.723,1.78,1.78,0,0,0,.756.829v.784a.846.846,0,0,0,1.692,0v-.784A1.767,1.767,0,0,0,65.137,66.08Zm1.034-6.109a2.81,2.81,0,1,0-5.619,0v2.665h5.619Z" style="fill:#00c0a5"/></svg>