<svg xmlns="http://www.w3.org/2000/svg" viewBox="0 0 250.494 305"><title>graph</title><path d="M160.3,2.5H22.5a20,20,0,0,0-20,20v260a20,20,0,0,0,20,20H227.994a20,20,0,0,0,20-20V90.193Z" style="fill:#edf7f5;stroke:#5fe1cf;stroke-miterlimit:10;stroke-width:5px"/><path d="M235.494,77.693V270a20,20,0,0,1-20,20H10a19.95,19.95,0,0,1-6.426-1.074A20,20,0,0,0,22.5,302.5H227.994a20,20,0,0,0,20-20V90.193Z" style="fill:#5fe1cf;opacity:0.2"/><path d="M159.672,2.872V81a10,10,0,0,0,10,10H247.8Z" style="fill:none;stroke:#5fe1cf;stroke-linecap:round;stroke-linejoin:round;stroke-width:5px"/><line x1="77.461" y1="239.999" x2="77.461" y2="192.378" style="fill:none;stroke:#5fe1cf;stroke-linecap:round;stroke-linejoin:round;stroke-width:5px"/><line x1="123.247" y1="240" x2="123.247" y2="119.544" style="fill:none;stroke:#5fe1cf;stroke-linecap:round;stroke-linejoin:round;stroke-width:5px"/><line x1="173.032" y1="240" x2="173.032" y2="158.87" style="fill:none;stroke:#5fe1cf;stroke-linecap:round;stroke-linejoin:round;stroke-width:5px"/></svg>