<svg xmlns="http://www.w3.org/2000/svg" viewBox="0 0 293.867 299.334"><title>guaranteed loans</title><path d="M131.689,186.325H12.5a10,10,0,0,1-10-10V12.5a10,10,0,0,1,10-10H281.367a10,10,0,0,1,10,10V176.325a10,10,0,0,1-10,10H182.588" style="fill:none;stroke:#5fe1cf;stroke-miterlimit:10;stroke-width:5px"/><line x1="81.151" y1="146.984" x2="142.863" y2="146.984" style="fill:none;stroke:#5fe1cf;stroke-linecap:round;stroke-linejoin:round;stroke-width:5px"/><rect x="2.5" y="38.29" width="288.867" height="37.637" style="fill:#5fe1cf"/><line x1="34.315" y1="146.052" x2="54.01" y2="146.052" style="fill:none;stroke:#5fe1cf;stroke-linecap:round;stroke-linejoin:round;stroke-width:5px"/><circle cx="94.706" cy="250.062" r="46.772" style="fill:none;stroke:#5fe1cf;stroke-linecap:round;stroke-linejoin:round;stroke-width:5px"/><circle cx="224.756" cy="250.062" r="46.772" style="fill:none;stroke:#5fe1cf;stroke-linecap:round;stroke-linejoin:round;stroke-width:5px"/><line x1="241.653" y1="92.688" x2="124.202" y2="213.769" style="fill:none;stroke:#5fe1cf;stroke-linecap:round;stroke-linejoin:round;stroke-width:5px"/><line x1="196.934" y1="212.467" x2="161.056" y2="176.008" style="fill:none;stroke:#5fe1cf;stroke-linecap:round;stroke-linejoin:round;stroke-width:5px"/></svg>