<svg xmlns="http://www.w3.org/2000/svg" viewBox="0 0 80 62.209"><title>here-to-help</title><path d="M1.312,5.9A4.566,4.566,0,0,1,3.121,2.275a1.937,1.937,0,0,0,.642,1.356L38.7,34.537a1.955,1.955,0,0,0,1.258.489c.012,0,.024,0,.037,0H40a1.959,1.959,0,0,0,1.3-.493L44.6,31.625,76.237,3.631a1.937,1.937,0,0,0,.642-1.356A4.569,4.569,0,0,1,78.688,5.9V56.308A4.6,4.6,0,0,1,74.1,60.9H5.9a4.588,4.588,0,0,1-4.177-2.71,4.533,4.533,0,0,1-.413-1.88Z" style="fill:#edf7f5"/><path d="M74.1,0H5.9A5.908,5.908,0,0,0,0,5.9V56.308a5.908,5.908,0,0,0,5.9,5.9H74.1a5.908,5.908,0,0,0,5.9-5.9V5.9A5.908,5.908,0,0,0,74.1,0ZM4.453,1.925A.64.64,0,0,1,5.066,1.5H74.934a.655.655,0,0,1,.434,1.146L40.435,33.555h0a.658.658,0,0,1-.87,0L4.632,2.648A.641.641,0,0,1,4.453,1.925ZM78.688,56.308A4.6,4.6,0,0,1,74.1,60.9H5.9a4.588,4.588,0,0,1-4.177-2.71,4.533,4.533,0,0,1-.413-1.88V5.9A4.566,4.566,0,0,1,3.121,2.275a1.937,1.937,0,0,0,.642,1.356L38.7,34.537a1.955,1.955,0,0,0,1.258.489c.012,0,.024,0,.037,0H40a1.959,1.959,0,0,0,1.3-.493L44.6,31.625,76.237,3.631a1.937,1.937,0,0,0,.642-1.356A4.569,4.569,0,0,1,78.688,5.9Z" style="fill:#00c0a5"/><path d="M73.222,58.188a2.623,2.623,0,0,0,2.623-2.623V8.511L44.6,31.625,41.3,34.537a1.959,1.959,0,0,1-1.3.493h-.008l-.039.029,0-.033a1.955,1.955,0,0,1-1.258-.489L3.763,3.631a1.937,1.937,0,0,1-.642-1.356A4.566,4.566,0,0,0,1.312,5.9V56.308a4.533,4.533,0,0,0,.413,1.88Z" style="fill:none"/><path d="M39.565,33.555a.658.658,0,0,0,.87,0h0L75.368,2.648A.655.655,0,0,0,74.934,1.5H5.066a.655.655,0,0,0-.434,1.146Z" style="fill:none"/><path d="M75.845,8.511,44.6,31.625,76.237,3.631a1.937,1.937,0,0,0,.642-1.356A4.569,4.569,0,0,1,78.688,5.9V56.308A4.6,4.6,0,0,1,74.1,60.9H5.9a4.588,4.588,0,0,1-4.177-2.71h71.5a2.623,2.623,0,0,0,2.623-2.623Z" style="fill:#00c0a5;opacity:0.2"/><path d="M39.992,35.03c-.013,0-.025,0-.037,0l0,.033Z" style="fill:#00c0a5"/><path d="M4.453,1.925A.64.64,0,0,1,5.066,1.5H74.934a.655.655,0,0,1,.434,1.146L40.435,33.555h0a.658.658,0,0,1-.87,0L4.632,2.648A.641.641,0,0,1,4.453,1.925Z" style="fill:#fff"/></svg>