<svg xmlns="http://www.w3.org/2000/svg" viewBox="0 0 80 68.334"><title>home loan repayments</title><polygon points="45.952 9.062 41.131 5.679 45.952 9.062 45.952 9.062" style="fill:none"/><path d="M11.087,35.315H68.913V66.746H11.087Zm48.256-7.747A13.128,13.128,0,1,0,46.215,14.44,13.142,13.142,0,0,0,59.343,27.568Z" style="fill:#edf7f5"/><polygon points="68.946 25.195 68.946 25.195 76.394 30.421 68.946 25.195" style="fill:none"/><path d="M11.087,35.315V66.746h12.5V46.994A1.312,1.312,0,0,1,24.9,45.682H35.217a1.311,1.311,0,0,1,1.312,1.312V66.746H68.913V35.315H11.087ZM56.426,56.356a2,2,0,0,1-2,2H45.752a2,2,0,0,1-2-2V47.682a2,2,0,0,1,2-2h8.674a2,2,0,0,1,2,2Z" style="fill:none"/><path d="M70.225,34h5.038a1.969,1.969,0,0,0,1.131-3.581L68.946,25.2A14.417,14.417,0,0,1,45.952,9.062L41.131,5.679a1.977,1.977,0,0,0-2.262,0L3.606,30.421A1.969,1.969,0,0,0,4.737,34H9.775v-.031h60.45Z" style="fill:#fff"/><path d="M56.426,47.682v8.674a2,2,0,0,1-2,2H45.752a2,2,0,0,1-2-2V47.682a2,2,0,0,1,2-2h8.674A2,2,0,0,1,56.426,47.682ZM80,67.678a.656.656,0,0,1-.656.656H.656a.656.656,0,0,1,0-1.312H9.775V35.315H4.737a3.282,3.282,0,0,1-1.885-5.969L38.115,4.605a3.288,3.288,0,0,1,3.77,0L46.51,7.849A14.427,14.427,0,1,1,69.9,24.261l7.248,5.085a3.282,3.282,0,0,1-1.885,5.969H70.225V67.022h9.119A.656.656,0,0,1,80,67.678ZM46.215,14.44a13.18,13.18,0,1,0,.848-4.6A13.143,13.143,0,0,0,46.215,14.44ZM9.775,33.971h60.45V34h5.038a1.969,1.969,0,0,0,1.131-3.581L68.946,25.2h0A14.417,14.417,0,0,1,45.952,9.062h0L41.131,5.679a1.977,1.977,0,0,0-2.262,0L3.606,30.421A1.969,1.969,0,0,0,4.737,34H9.775Zm59.138,1.344H11.087V66.746h12.5V46.994A1.312,1.312,0,0,1,24.9,45.682H35.217a1.311,1.311,0,0,1,1.312,1.312V66.746H68.913ZM58.893,21.168v2.1a.656.656,0,1,0,1.312,0V21.192c.167-.011.323-.01.5-.031a4.672,4.672,0,0,0,1.725-.539,3.37,3.37,0,0,0,1.868-3,3.27,3.27,0,0,0-1.567-2.811,6.836,6.836,0,0,0-2.41-.805,10.82,10.82,0,0,1-1.168-.274c-2.079-.655-2.87-1.4-2.648-2.491.265-1.293,2.045-1.634,2.576-1.706a5.448,5.448,0,0,1,4.246,1.442.656.656,0,1,0,.958-.9,6.236,6.236,0,0,0-4.078-1.85V6.257a.656.656,0,1,0-1.312,0V8.241c-2.008.279-3.381,1.3-3.676,2.742-.554,2.715,2.527,3.687,3.539,4.006a12.081,12.081,0,0,0,1.309.31,5.749,5.749,0,0,1,1.967.629,1.949,1.949,0,0,1,.951,1.666A2.037,2.037,0,0,1,61.84,19.45a3.462,3.462,0,0,1-.683.28,3.606,3.606,0,0,1-.592.126c-3.336.4-4.75-1.511-4.814-1.6A.656.656,0,0,0,54.673,19,5.973,5.973,0,0,0,58.893,21.168Z" style="fill:#00c0a5"/><path d="M57.573,25.8A13.768,13.768,0,0,0,70.735,7.943,13.114,13.114,0,1,0,49.706,23.325,13.708,13.708,0,0,0,57.573,25.8Z" style="fill:none"/><path d="M66.456,35.315h2.457V66.746H36.529V64.635h27.3a2.626,2.626,0,0,0,2.625-2.626ZM11.087,66.746h12.5V64.635H11.087ZM72.47,14.44a13.036,13.036,0,0,0-1.735-6.5A13.77,13.77,0,0,1,49.706,23.325,13.108,13.108,0,0,0,72.47,14.44Z" style="fill:#00c0a5;opacity:0.2"/></svg>