<?xml version="1.0" encoding="UTF-8"?>
<svg viewBox="0 0 96 120" version="1.1" xmlns="http://www.w3.org/2000/svg" xmlns:xlink="http://www.w3.org/1999/xlink">
    <!-- Generator: Sketch 63.1 (92452) - https://sketch.com -->
    <title>Fancy_Icon/Pos/Hour Glass</title>
    <desc>Created with Sketch.</desc>
    <g id="MA_MVP_Red_Zeplin" stroke="none" stroke-width="1" fill="none" fill-rule="evenodd">
        <g id="MA_MVP_Red_Zeplin-4.1---Mobile_375+" transform="translate(-140.000000, -190.000000)" fill="#00C0A5" fill-rule="nonzero">
            <g id="Fancy_Icon/Pos/Hour-Glass" transform="translate(128.000000, 190.000000)">
                <path d="M105.410101,106.802424 C104.189008,105.536253 102.501625,104.826944 100.742626,104.840404 L100.711919,104.840404 L91.3494949,104.888889 C91.3494949,96.8549495 91.2153535,89.2460606 87.2589899,81.8117172 C84.475468,76.5056682 80.4656415,71.9406605 75.5628283,68.4961616 C75.110303,68.1583838 74.6383838,67.8222222 74.16,67.479596 C71.2088889,65.3672727 68.1559596,63.1838384 67.8278788,59.6686869 C67.430303,55.3890909 71.9959596,52.5252525 76.4193939,49.7454545 C78.6203677,48.4879272 80.6770629,46.9932328 82.5527273,45.2880808 C90.3620202,37.4367677 90.580202,25.2363636 90.5850505,15.0658586 L99.6678788,15.0222222 C103.35362,14.9660659 106.361966,12.0567479 106.541414,8.37494949 L106.594747,6.99313131 C106.676892,5.23108799 106.030895,3.51278686 104.808281,2.24126832 C103.585667,0.969749785 101.89401,0.256891237 100.130101,0.269698018 L100.109091,0.269698018 L42.7353535,0.534949495 L19.3010101,0.269698018 L19.2686869,0.269698018 C17.5044867,0.255951416 15.812269,0.968516824 14.5894483,2.24025037 C13.3666275,3.51198391 12.7209458,5.23083395 12.8040404,6.99313131 L12.8573737,8.37494949 C13.0367333,12.0546304 16.0424652,14.9627643 19.7260606,15.0206061 L28.820202,15.1272727 C28.820202,25.179798 29.0254545,37.4189899 36.8525253,45.2880808 C38.6727539,46.9301713 40.6798081,48.3524676 42.8323232,49.5256566 C47.5709091,52.3878788 52.0444444,55.0917172 51.5838384,60.0436364 C51.2767677,63.3438384 48.5761616,65.2024242 45.7171717,67.1692929 C45.080404,67.6105051 44.4484848,68.0436364 43.8488889,68.4913131 C38.9459081,71.9356252 34.9360423,76.5006776 32.1527273,81.8068687 C28.1882828,89.2557576 28.0654545,96.8808081 28.0622222,104.932525 L19.8957576,104.840404 L19.8634343,104.840404 C18.0992311,104.827373 16.4073094,105.540451 15.1846442,106.812329 C13.9619789,108.084206 13.3161861,109.802936 13.3987879,111.565253 L13.4537374,112.945455 C13.6315361,116.628522 16.640345,119.539702 20.3272727,119.59596 L42.8953535,119.862626 L43.5111111,119.862626 L100.264242,119.587879 C103.950022,119.532767 106.959836,116.625495 107.142626,112.943838 L107.197576,111.560404 C107.281735,109.796034 106.635159,108.074948 105.410101,106.802424 Z M19.7535354,11.7882828 C17.7891094,11.7600353 16.1842799,10.2110814 16.0864646,8.24888889 L16.0363636,6.86545455 C15.9883345,5.98243975 16.3089742,5.11910277 16.921751,4.48150848 C17.5345278,3.84391419 18.3844617,3.4892694 19.2686869,3.50222222 L19.2832323,3.50222222 L42.3151515,3.76242424 L42.3151515,3.76242424 L42.9034343,3.76242424 L99.1280808,3.50060606 L100.130101,3.50060606 L100.146263,3.50060606 C101.030637,3.48810655 101.880552,3.84312015 102.493275,4.4809645 C103.105997,5.11880886 103.426592,5.98229546 103.378586,6.86545455 L103.325253,8.24727273 C103.227437,10.2094653 101.622608,11.7584192 99.6581818,11.7866667 L96.7587879,11.799596 L42.7515152,12.059798 L19.7535354,11.7882828 Z M35.010101,83.3244444 C37.5775521,78.4451621 41.2713242,74.2483235 45.7850505,71.0820202 C46.3523232,70.660202 46.950303,70.2480808 47.5628283,69.8343434 C50.7531313,67.6379798 54.3668687,65.1474747 54.8161616,60.3442424 C55.4626263,53.3721212 49.3955556,49.7066667 44.5163636,46.7587879 C42.5959813,45.7131227 40.7988969,44.4554347 39.1587879,43.0092929 C32.290101,36.1034343 32.0735354,25.1539394 32.0670707,15.1660606 L42.3086869,15.2872727 L42.9244444,15.2872727 L87.3608081,15.0707071 C87.3608081,24.9842424 87.1878788,36.0452525 80.2690909,43.0012121 C78.560275,44.5240852 76.6969513,45.8641615 74.7094949,46.999596 C69.6993939,50.139798 64.0266667,53.700202 64.6117172,59.9547475 C65.0771717,64.9422222 69.0739394,67.799596 72.2836364,70.0961616 C72.7442424,70.4193939 73.1983838,70.7426263 73.6347475,71.0658586 C78.1468041,74.2379848 81.8373061,78.4404256 84.4,83.3244444 C87.9894949,90.070303 88.1058586,96.9761616 88.1171717,104.898586 L85.4149495,104.911515 C85.3745455,103.81899 85.3389899,102.734545 85.3147475,101.700202 C85.1757576,95.4844444 85.0545455,90.1139394 81.5022222,83.9224242 C78.3911111,78.4953535 75.239596,75.8319192 67.0262626,69.6032323 L66.5656566,69.2476768 C63.7761616,67.080404 61.5975758,65.5935354 60.0282828,65.3866667 L59.9070707,66.3030303 L59.8165657,65.3721212 L59.7793939,65.9393939 L59.7066667,65.3866667 C58.1389899,65.5919192 55.9620202,67.0771717 53.1757576,69.2412121 L52.7070707,69.6032323 C44.4937374,75.8335354 41.3422222,78.4921212 38.2311111,83.9224242 C34.6755556,90.1171717 34.5575758,95.4876768 34.4185859,101.700202 C34.3943434,102.763636 34.3587879,103.878788 34.3151515,105.003636 L31.3057962,104.969697 C31.3026263,97.0165657 31.4109091,90.089697 35.010101,83.3244444 Z M66.6626263,73.3915152 C73.4375758,78.5632323 76.0654545,80.9454545 78.6933333,85.5272727 C81.8351515,91.0092929 81.9418182,95.7591919 82.0775758,101.772929 C82.100202,102.789495 82.1357576,103.856162 82.1761616,104.926061 L57.0432323,105.050505 L43.3381818,105.113535 L37.5410101,105.047273 C37.5846465,103.93697 37.620202,102.833131 37.6428283,101.78101 C37.7785859,95.7672727 37.8868687,91.0173737 41.0286869,85.5353535 C43.8537374,80.6092929 46.6707071,78.2383838 54.6529293,72.1842424 L55.1523232,71.799596 C56.5793493,70.5547401 58.1618497,69.5002831 59.860202,68.6626263 C61.5614253,69.5007186 63.1462102,70.5568796 64.5745455,71.8044444 L65.0593939,72.1842424 C65.6250505,72.599596 66.1535354,73.0020202 66.6626263,73.3915152 Z M103.913535,112.825859 C103.819689,114.789219 102.213522,116.340147 100.248081,116.365253 L57.0965657,116.572121 L43.3430303,116.638384 L20.3547475,116.363636 C18.3860685,116.337725 16.77747,114.784351 16.6828283,112.817778 L16.6278788,111.437576 C16.5804635,110.555964 16.9001387,109.694059 17.5109722,109.056587 C18.1218058,108.419116 18.9692893,108.062964 19.8521212,108.072727 L19.8666667,108.072727 L42.8969697,108.332929 L42.8969697,108.332929 L43.4852525,108.332929 L65.8141414,108.234343 L100.723232,108.072727 L100.739394,108.072727 C101.623325,108.060737 102.472683,108.415682 103.085247,109.053055 C103.69781,109.690427 104.018773,110.5532 103.971717,111.43596 L103.913535,112.825859 Z" id="Shape"></path>
                <path d="M103.968485,111.43596 L103.913535,112.819394 C103.819689,114.782754 102.213522,116.333682 100.248081,116.358788 L43.3494949,116.631919 L20.3547475,116.363636 C18.3860685,116.337725 16.77747,114.784351 16.6828283,112.817778 L16.6278788,111.437576 C16.5804635,110.555964 16.9001387,109.694059 17.5109722,109.056587 C18.1218058,108.419116 18.9692893,108.062964 19.8521212,108.072727 L19.8666667,108.072727 L42.8969697,108.332929 L42.8969697,108.332929 L43.4852525,108.332929 L100.723232,108.072727 L100.739394,108.072727 C101.623325,108.060737 102.472683,108.415682 103.085247,109.053055 C103.69781,109.690427 104.018773,110.5532 103.971717,111.43596 L103.968485,111.43596 Z M82.1761616,104.926061 C82.1357576,103.856162 82.100202,102.789495 82.0775758,101.772929 C81.9418182,95.7591919 81.8351515,91.0092929 78.6933333,85.5272727 C75.8682828,80.6012121 73.0480808,78.2286869 65.0658586,72.1761616 L64.5810101,71.7963636 C63.1526748,70.5487988 61.56789,69.4926378 59.8666667,68.6545455 C58.1643537,69.4913556 56.578006,70.5458422 55.1474747,71.7915152 L54.6480808,72.1761616 C46.6658586,78.230303 43.8488889,80.6012121 41.0238384,85.5272727 C37.8820202,91.0092929 37.7737374,95.7591919 37.6379798,101.772929 C37.6153535,102.825051 37.579798,103.928889 37.5361616,105.039192 L43.3333333,105.105455 L82.1761616,104.926061 Z" id="Shape" fill-opacity="0.05"></path>
                <path d="M99.6517172,11.7882828 L96.7523232,11.8012121 C97.5107316,11.1367434 98.1602389,10.3574437 98.6771717,9.49171717 C99.4239861,7.58865811 99.5788918,5.50447143 99.1216162,3.51191919 L100.123636,3.51191919 L100.139798,3.51191919 C101.024173,3.49941968 101.874087,3.85443328 102.48681,4.49227763 C103.099533,5.13012199 103.420127,5.99360859 103.372121,6.87676768 L103.318788,8.25858586 C103.216041,10.2169681 101.612594,11.7603478 99.6517172,11.7882828 Z M82.0775758,101.772929 C81.9418182,95.7591919 81.8351515,91.0092929 78.6933333,85.5272727 C76.0654545,80.9454545 73.4375758,78.569697 66.6626263,73.3915152 C68.3629164,78.181859 68.9568807,83.2949244 68.4,88.3474747 C67.2686869,95.5814141 59.76,102.681212 57.0432323,105.042424 L82.1761616,104.926061 C82.1373737,103.856162 82.100202,102.787879 82.0775758,101.772929 Z M103.076364,109.045657 C102.461191,108.415808 101.614907,108.065379 100.734545,108.07596 L100.723232,108.07596 L65.8141414,108.237576 C64.9723497,110.158434 63.8365898,111.936501 62.4476768,113.507879 C60.755988,114.683059 58.964318,115.707334 57.0933333,116.568889 L100.244848,116.36202 C102.21029,116.336914 103.816456,114.785986 103.910303,112.822626 L103.965253,111.439192 C104.012045,110.553336 103.690313,109.687583 103.076364,109.047273 L103.076364,109.045657 Z" id="Shape" opacity="0.2"></path>
            </g>
        </g>
    </g>
</svg>