<svg xmlns="http://www.w3.org/2000/svg" viewBox="0 0 355 227.727"><title>id-verify</title><rect x="2.5" y="2.5" width="350" height="222.727" rx="10" ry="10" style="fill:none;stroke:#5fe1cf;stroke-miterlimit:10;stroke-width:5px"/><rect x="31.784" y="62.223" width="103.282" height="103.282" rx="10" ry="10" style="fill:#edf7f5;stroke:#5fe1cf;stroke-miterlimit:10;stroke-width:5px"/><path d="M125.405,62.24a9.952,9.952,0,0,1,.588,3.351v83.282a10,10,0,0,1-10,10H32.711c-.115,0-.226-.014-.339-.018a9.994,9.994,0,0,0,9.412,6.65h83.282a10,10,0,0,0,10-10V72.223A9.992,9.992,0,0,0,125.405,62.24Z" style="fill:#5fe1cf;opacity:0.2"/><line x1="31.784" y1="181.74" x2="132.489" y2="181.74" style="fill:none;stroke:#5fe1cf;stroke-linecap:round;stroke-linejoin:round;stroke-width:5px"/><line x1="162.964" y1="181.74" x2="231.229" y2="181.74" style="fill:none;stroke:#5fe1cf;stroke-linecap:round;stroke-linejoin:round;stroke-width:5px"/><line x1="256.595" y1="181.74" x2="324.86" y2="181.74" style="fill:none;stroke:#5fe1cf;stroke-linecap:round;stroke-linejoin:round;stroke-width:5px"/><line x1="162.964" y1="163.864" x2="323.216" y2="163.864" style="fill:none;stroke:#5fe1cf;stroke-linecap:round;stroke-linejoin:round;stroke-width:5px"/><path d="M162.964,147.984V59.223h18.9v88.761Z" style="fill:#5fe1cf"/><path d="M188.823,138.668a10.78,10.78,0,1,1,10.779,10.78A10.907,10.907,0,0,1,188.823,138.668Z" style="fill:#5fe1cf"/><path d="M219.916,147.984V59.223h35c27.813,0,47.108,17.7,47.108,44.313,0,26.882-19.3,44.448-46.975,44.448Zm62.812-44.448c0-15.569-9.582-27.678-27.68-27.678H238.813v55.491h16.1C272.481,131.349,282.728,118.707,282.728,103.536Z" style="fill:#5fe1cf"/><path d="M301.459,138.668a10.78,10.78,0,1,1,10.78,10.78A10.907,10.907,0,0,1,301.459,138.668Z" style="fill:#5fe1cf"/><circle cx="83" cy="97.423" r="20.247" style="fill:#5fe1cf"/><path d="M84.114,124.9a56.093,56.093,0,0,0-51.65,34.2,10,10,0,0,0,9.32,6.4h83.282a9.995,9.995,0,0,0,9.843-8.289A56.076,56.076,0,0,0,84.114,124.9Z" style="fill:#5fe1cf"/><line x1="2.5" y1="38.864" x2="352.5" y2="38.864" style="fill:none;stroke:#5fe1cf;stroke-miterlimit:10;stroke-width:5px"/></svg>