<svg xmlns="http://www.w3.org/2000/svg" viewBox="0 0 355 227.727"><title>id</title><rect x="2.5" y="2.5" width="350" height="222.727" rx="10" ry="10" style="fill:#edf7f5;stroke:#5fe1cf;stroke-miterlimit:10;stroke-width:5px"/><path d="M342.5,2.5h-.116c.01.185.028.368.028.556V205.783a10,10,0,0,1-10,10H2.528a9.992,9.992,0,0,0,9.972,9.444h330a10,10,0,0,0,10-10V12.5A10,10,0,0,0,342.5,2.5Z" style="fill:#5fe1cf;opacity:0.2"/><rect x="31.784" y="45.987" width="103.282" height="103.282" rx="10" ry="10" style="fill:#fff;stroke:#5fe1cf;stroke-miterlimit:10;stroke-width:5px"/><line x1="31.784" y1="181.74" x2="132.489" y2="181.74" style="fill:none;stroke:#5fe1cf;stroke-linecap:round;stroke-linejoin:round;stroke-width:5px"/><line x1="162.964" y1="181.74" x2="323.216" y2="181.74" style="fill:none;stroke:#5fe1cf;stroke-linecap:round;stroke-linejoin:round;stroke-width:5px"/><path d="M162.964,141.007V52.247h18.9v88.76Z" style="fill:#5fe1cf"/><path d="M188.823,131.692a10.78,10.78,0,1,1,10.779,10.78A10.907,10.907,0,0,1,188.823,131.692Z" style="fill:#5fe1cf"/><path d="M219.916,141.007V52.247h35c27.813,0,47.108,17.7,47.108,44.313,0,26.882-19.3,44.447-46.975,44.447ZM282.728,96.56c0-15.569-9.582-27.679-27.68-27.679H238.813v55.492h16.1C272.481,124.373,282.728,111.731,282.728,96.56Z" style="fill:#5fe1cf"/><path d="M301.459,131.692a10.78,10.78,0,1,1,10.78,10.78A10.907,10.907,0,0,1,301.459,131.692Z" style="fill:#5fe1cf"/><circle cx="83" cy="81.187" r="20.247" style="fill:#5fe1cf"/><path d="M84.114,108.669a56.093,56.093,0,0,0-51.65,34.2,9.995,9.995,0,0,0,9.32,6.4h83.282a9.994,9.994,0,0,0,9.843-8.288A56.076,56.076,0,0,0,84.114,108.669Z" style="fill:#5fe1cf"/></svg>