<svg xmlns="http://www.w3.org/2000/svg" viewBox="0 0 66.873 80"><title>LMI</title><path d="M49.062,50.651V52.5a.394.394,0,0,1-.394.393H18.225a.391.391,0,0,1-.153-.031.41.41,0,0,1-.125-.084.393.393,0,0,1-.115-.278V50.651a.391.391,0,0,1,.115-.278.377.377,0,0,1,.125-.084.391.391,0,0,1,.153-.031H48.668A.394.394,0,0,1,49.062,50.651ZM24.7,48.946V33.875H22.139V48.946ZM35.38,32.564H48.505L33.447,20.948,18.389,32.564H35.38Zm9.375,16.382V33.875H42.2V48.946Zm-10.031,0V33.875H32.169V48.946Z" style="fill:#edf7f5"/><path d="M40.92,32.564l-7.506-11.59.033-.026L48.505,32.564ZM24.7,48.946V33.875h-.85a.848.848,0,0,0-.235.584V48.707a.825.825,0,0,0,.039.239Zm8.917-.239a.859.859,0,0,0,.038.239h1.074V33.875h-.877a.843.843,0,0,0-.235.584Zm10.027,0a.825.825,0,0,0,.039.239h1.077V33.875h-.881a.843.843,0,0,0-.235.584Zm4.818,2.857H18.794a1.012,1.012,0,0,0-.962.7V52.5a.393.393,0,0,0,.393.393H48.668a.394.394,0,0,0,.394-.393v-.728A1.013,1.013,0,0,0,48.457,51.564Z" style="fill:#00c0a5;opacity:0.2"/><rect x="36.036" y="33.875" width="4.851" height="15.071" style="fill:none"/><path d="M18.225,52.889h0a.391.391,0,0,1-.153-.031A.391.391,0,0,0,18.225,52.889Z" style="fill:none"/><path d="M18.225,50.258a.391.391,0,0,0-.153.031.391.391,0,0,1,.153-.031Z" style="fill:none"/><rect x="26.006" y="33.875" width="4.851" height="15.071" style="fill:none"/><polygon points="48.505 32.564 48.505 32.564 33.447 20.948 48.505 32.564" style="fill:none"/><path d="M66.764,27.566c-.04-1.428-.081-2.9-.1-4.355l-.148-11.673a.653.653,0,0,0-.447-.613L33.674.044a.628.628,0,0,0-.12-.033.653.653,0,0,0-.363.036L.8,10.925a.653.653,0,0,0-.447.613L.208,23.211c-.018,1.451-.059,2.927-.1,4.355-.173,6.176-.352,12.562,1.274,18.773a48.658,48.658,0,0,0,25.27,31c.167.084.863.355,2.532,1,1.389.538,3.461,1.339,3.859,1.528a.658.658,0,0,0,.39.128h.005a.646.646,0,0,0,.389-.128c.4-.189,2.469-.99,3.858-1.527,1.67-.645,2.366-.917,2.534-1a48.658,48.658,0,0,0,25.27-31C67.116,40.128,66.937,33.742,66.764,27.566ZM64.221,46.007A47.356,47.356,0,0,1,39.636,76.171c-.157.075-1.36.54-2.423.951-2.277.881-3.3,1.279-3.777,1.491-.482-.212-1.5-.611-3.778-1.492-1.062-.41-2.265-.875-2.419-.95A47.35,47.35,0,0,1,2.652,46.007c-1.579-6.03-1.4-12.321-1.232-18.4.04-1.433.081-2.915.1-4.375L1.661,12.02,33.436,1.348,65.212,12.02l.141,11.208c.018,1.46.06,2.942.1,4.375C65.624,33.686,65.8,39.977,64.221,46.007ZM33.848,19.6a.657.657,0,0,0-.8,0L16.064,32.7a.656.656,0,0,0,.4,1.175h4.363V48.946h-2.6a1.707,1.707,0,0,0-1.705,1.705V52.5a1.707,1.707,0,0,0,1.705,1.7H48.668a1.706,1.706,0,0,0,1.7-1.7V50.651a1.706,1.706,0,0,0-1.7-1.705h-2.6V33.875h4.363a.656.656,0,0,0,.4-1.175Zm14.82,30.657a.394.394,0,0,1,.394.393V52.5a.394.394,0,0,1-.394.393H18.225a.391.391,0,0,1-.153-.031.41.41,0,0,1-.125-.084.393.393,0,0,1-.115-.278V50.651a.391.391,0,0,1,.115-.278.377.377,0,0,1,.125-.084.391.391,0,0,1,.153-.031ZM22.139,48.946V33.875H24.7V48.946Zm3.867,0V33.875h4.852V48.946Zm6.163,0V33.875h2.555V48.946Zm3.867,0V33.875h4.851V48.946Zm6.163,0V33.875h2.556V48.946ZM45.41,32.564H18.389L33.447,20.948,48.505,32.564Z" style="fill:#00c0a5"/></svg>