<svg xmlns="http://www.w3.org/2000/svg" viewBox="0 0 80 63.423"><title>LVR</title><path d="M69.312,7.987a4.674,4.674,0,0,1-.234-.751A4.643,4.643,0,0,0,69.312,7.987Z" style="fill:none"/><path d="M69.043,7.052a4.889,4.889,0,0,1-.088-.871A4.8,4.8,0,0,0,69.043,7.052Z" style="fill:none"/><path d="M79.482,8.651V62.134a.609.609,0,0,0-.141-.029H1.737L17.385,31.574a6.149,6.149,0,0,0,8.247-2.927L42.6,36.317A6.18,6.18,0,1,0,53.587,33.7L71.3,11.822a6.162,6.162,0,0,0,8.179-3.171Z" style="fill:#edf7f5"/><path d="M44.581,34.841a4.968,4.968,0,0,0-.294.542A4.877,4.877,0,0,1,44.581,34.841Z" style="fill:none"/><path d="M48.676,32.579a4.847,4.847,0,0,1,.916.092A4.68,4.68,0,0,0,48.676,32.579Z" style="fill:none"/><path d="M45.32,33.938a4.776,4.776,0,0,1,.626-.517A4.843,4.843,0,0,0,45.32,33.938Z" style="fill:none"/><path d="M46.043,33.365a4.653,4.653,0,0,1,.648-.352A4.653,4.653,0,0,0,46.043,33.365Z" style="fill:none"/><path d="M46.942,32.912a4.985,4.985,0,0,1,.594-.184A4.755,4.755,0,0,0,46.942,32.912Z" style="fill:none"/><path d="M52.427,34.38c-.052-.062-.1-.127-.158-.187.055.061.1.126.156.19Z" style="fill:none"/><path d="M51.121,33.262c.012.008.026.014.038.021C51.147,33.275,51.133,33.27,51.121,33.262Z" style="fill:none"/><path d="M43.977,36.252a4.812,4.812,0,0,1,.208-.666A4.186,4.186,0,0,0,43.977,36.252Z" style="fill:none"/><path d="M47.793,32.668a4.85,4.85,0,0,1,.883-.089A4.841,4.841,0,0,0,47.793,32.668Z" style="fill:none"/><path d="M69.7,8.731a4.721,4.721,0,0,1-.282-.519A5,5,0,0,0,69.7,8.731Z" style="fill:none"/><path d="M44.768,34.575a5.075,5.075,0,0,1,.344-.417A4.913,4.913,0,0,0,44.768,34.575Z" style="fill:none"/><path d="M70.986,10.118a4.966,4.966,0,0,1-.469-.387A4.966,4.966,0,0,0,70.986,10.118Z" style="fill:none"/><path d="M69.926,9.068c.1.132.2.26.316.382C70.13,9.328,70.025,9.2,69.926,9.068Z" style="fill:none"/><path d="M71.443,10.4c.025.014.048.031.073.045l0,0Z" style="fill:none"/><path d="M50.16,32.835c.086.028.175.048.258.08C50.335,32.882,50.246,32.863,50.16,32.835Z" style="fill:none"/><path d="M16.212,28.956c-.01-.013-.022-.025-.032-.039C16.19,28.931,16.2,28.943,16.212,28.956Z" style="fill:none"/><path d="M24.831,26.839a4.858,4.858,0,0,0,.084-.832,4.858,4.858,0,0,1-.084.832Z" style="fill:none"/><path d="M24.7,27.35l0-.012,0,.012Z" style="fill:none"/><path d="M15.635,28.015a4.687,4.687,0,0,0,.284.522A4.778,4.778,0,0,1,15.635,28.015Z" style="fill:none"/><path d="M15.278,26.894a4.9,4.9,0,0,1-.09-.887A4.8,4.8,0,0,0,15.278,26.894Z" style="fill:none"/><path d="M15.523,27.742a4.73,4.73,0,0,1-.221-.711A4.694,4.694,0,0,0,15.523,27.742Z" style="fill:none"/><path d="M24.628,27.589c.028-.078.052-.158.075-.239h0C24.68,27.431,24.656,27.51,24.628,27.589Z" style="fill:#edf7f5"/><path d="M73.819,11.045a4.867,4.867,0,0,1-.859-.087A4.413,4.413,0,0,0,73.819,11.045Z" style="fill:#edf7f5"/><path d="M71.516,10.444l.118.059c-.039-.02-.077-.042-.115-.063Z" style="fill:#edf7f5"/><path d="M53.213,35.732a4.717,4.717,0,0,1,.176.567A4.717,4.717,0,0,0,53.213,35.732Z" style="fill:#edf7f5"/><path d="M52.728,34.763h0a4.794,4.794,0,0,1,.378.694A4.848,4.848,0,0,0,52.728,34.763Z" style="fill:#edf7f5"/><path d="M23.764,29.111c-.041.049-.078.1-.121.146C23.686,29.21,23.723,29.16,23.764,29.111Z" style="fill:#edf7f5"/><path d="M53.451,36.568a4.85,4.85,0,0,1,.088.874A4.761,4.761,0,0,0,53.451,36.568Z" style="fill:#edf7f5"/><path d="M52.509,34.484c-.028-.035-.053-.07-.082-.1l0,0C52.453,34.416,52.482,34.449,52.509,34.484Z" style="fill:#edf7f5"/><path d="M23.285,29.613c-.085.076-.174.147-.264.218C23.111,29.76,23.2,29.69,23.285,29.613Z" style="fill:#edf7f5"/><path d="M20.052,30.87a4.84,4.84,0,0,1-.839-.085A4.546,4.546,0,0,0,20.052,30.87Z" style="fill:#edf7f5"/><path d="M18.991,30.746a4.867,4.867,0,0,1-.611-.191A5.094,5.094,0,0,0,18.991,30.746Z" style="fill:#edf7f5"/><path d="M20.922,30.782a4.888,4.888,0,0,1-.87.088A4.8,4.8,0,0,0,20.922,30.782Z" style="fill:#edf7f5"/><path d="M21.759,30.544a4.831,4.831,0,0,1-.577.18A4.655,4.655,0,0,0,21.759,30.544Z" style="fill:#edf7f5"/><path d="M22.679,30.087a4.831,4.831,0,0,1-.656.357A4.831,4.831,0,0,0,22.679,30.087Z" style="fill:#edf7f5"/><path d="M20.052,21.143a4.823,4.823,0,0,0-4.774,5.751c.009.045.014.092.024.137a4.73,4.73,0,0,0,.221.711c.036.092.071.184.112.273a4.778,4.778,0,0,0,.284.522q.122.2.261.38c.01.014.022.026.032.039a5,5,0,0,0,.671.709,4.834,4.834,0,0,0,1.107.729c.126.06.258.111.39.161a4.867,4.867,0,0,0,.611.191c.073.017.148.025.222.039a4.264,4.264,0,0,0,1.709,0c.088-.016.174-.037.26-.058a4.831,4.831,0,0,0,.577-.18c.088-.033.178-.062.264-.1a4.831,4.831,0,0,0,.656-.357c.12-.078.23-.168.342-.256.09-.071.179-.142.264-.218a4.809,4.809,0,0,0,.358-.356c.043-.047.08-.1.121-.146a4.919,4.919,0,0,0,.658-1.011,4.825,4.825,0,0,0,.206-.511c.028-.079.052-.158.075-.239l0-.012a4.8,4.8,0,0,0-4.655-6.195Z" style="fill:#fff"/><path d="M53.389,36.3a4.717,4.717,0,0,0-.176-.567c-.035-.092-.067-.186-.107-.275a4.794,4.794,0,0,0-.378-.694c-.066-.1-.145-.187-.219-.279-.027-.035-.056-.068-.084-.1-.052-.064-.1-.129-.156-.19a5.938,5.938,0,0,0-.435-.419,5.079,5.079,0,0,0-.675-.491c-.012-.007-.026-.013-.038-.021a4.935,4.935,0,0,0-.7-.347c-.083-.032-.172-.052-.258-.08a4.689,4.689,0,0,0-.568-.164,4.515,4.515,0,0,0-1.8,0c-.087.016-.172.039-.257.06a4.985,4.985,0,0,0-.594.184c-.084.033-.169.064-.251.1a4.653,4.653,0,0,0-.648.352c-.032.02-.066.035-.1.056a4.776,4.776,0,0,0-.626.517c-.073.07-.139.146-.208.22a5.075,5.075,0,0,0-.344.417c-.064.088-.129.175-.187.266a4.877,4.877,0,0,0-.294.542c-.033.069-.073.132-.1.2h0a4.812,4.812,0,0,0-.208.666,6.047,6.047,0,0,0-.108.637,4.817,4.817,0,0,0-.056.553,4.863,4.863,0,1,0,9.638-.874C53.434,36.477,53.411,36.388,53.389,36.3Z" style="fill:#fff"/><path d="M73.819,1.318a4.817,4.817,0,0,0-4.776,5.734c.012.062.021.123.035.184a4.674,4.674,0,0,0,.234.751c.031.077.067.15.1.225a4.721,4.721,0,0,0,.282.519c.072.116.149.228.23.337.1.132.2.26.316.382.089.1.179.192.275.281a4.966,4.966,0,0,0,.469.387h0a4.537,4.537,0,0,0,.456.281l.076.041c.038.021.076.043.115.063a5.1,5.1,0,0,0,1.326.455,4.859,4.859,0,1,0,.859-9.64Z" style="fill:#fff"/><path d="M77.023,57.152v-45.7a6.094,6.094,0,0,1-5.72.373L53.587,33.7A6.185,6.185,0,1,1,42.6,36.317l-16.971-7.67a6.149,6.149,0,0,1-8.247,2.927L2.925,59.788H74.388A2.636,2.636,0,0,0,77.023,57.152Z" style="fill:none"/><path d="M48.676,42.306a4.869,4.869,0,0,0,4.863-4.864,4.761,4.761,0,0,0-.088-.874c-.017-.091-.04-.18-.062-.269a4.717,4.717,0,0,0-.176-.567c-.035-.092-.067-.186-.107-.275a4.848,4.848,0,0,0-.378-.694h0c-.066-.1-.145-.187-.219-.279-.028-.035-.053-.07-.082-.1-.052-.062-.1-.127-.158-.187a5.938,5.938,0,0,0-.435-.419,5.079,5.079,0,0,0-.675-.491c-.012-.008-.026-.013-.038-.021a4.935,4.935,0,0,0-.7-.347c-.083-.033-.172-.052-.258-.08a4.183,4.183,0,0,0-1.484-.256,4.841,4.841,0,0,0-.883.089c-.087.016-.172.039-.257.06a4.755,4.755,0,0,0-.594.184c-.084.033-.169.064-.251.1a4.653,4.653,0,0,0-.648.352c-.032.02-.066.035-.1.056a4.843,4.843,0,0,0-.626.517c-.073.07-.139.146-.208.22a4.913,4.913,0,0,0-.344.417c-.064.088-.129.175-.187.266a4.968,4.968,0,0,0-.294.542c-.033.069-.073.132-.1.2h0a4.186,4.186,0,0,0-.208.666,6.047,6.047,0,0,0-.108.637,4.817,4.817,0,0,0-.056.553A4.869,4.869,0,0,0,48.676,42.306Z" style="fill:none"/><path d="M17.99,30.394c.126.06.258.111.39.161a5.094,5.094,0,0,0,.611.191c.073.017.148.025.222.039a4.546,4.546,0,0,0,.839.085,4.8,4.8,0,0,0,.87-.088c.088-.016.174-.037.26-.058a4.655,4.655,0,0,0,.577-.18c.088-.033.178-.062.264-.1a4.831,4.831,0,0,0,.656-.357c.12-.078.23-.168.342-.256.09-.071.179-.141.264-.218a4.809,4.809,0,0,0,.358-.356c.043-.047.08-.1.121-.146a4.919,4.919,0,0,0,.658-1.011,4.825,4.825,0,0,0,.206-.511c.028-.078.052-.158.075-.239l0-.012a4.849,4.849,0,0,0,.124-.5h0a4.858,4.858,0,1,0-9.643-.832,4.8,4.8,0,0,0,.09.887c.009.045.014.092.024.137a4.694,4.694,0,0,0,.221.711c.036.092.071.184.112.273a4.687,4.687,0,0,0,.284.522q.122.2.261.38c.01.014.022.026.032.039a5,5,0,0,0,.671.709A4.834,4.834,0,0,0,17.99,30.394Z" style="fill:none"/><path d="M70.517,9.731a4.966,4.966,0,0,0,.469.387h0a4.537,4.537,0,0,0,.456.281c.025.014.048.031.073.045l.118.059a5.1,5.1,0,0,0,1.326.455,4.413,4.413,0,0,0,.859.087A4.905,4.905,0,0,0,78.673,6.27c0-.03.009-.058.009-.089a4.864,4.864,0,0,0-9.727,0,4.8,4.8,0,0,0,.088.871c.012.062.021.123.035.184a4.643,4.643,0,0,0,.234.751c.031.077.067.15.1.225a5,5,0,0,0,.282.519c.072.116.149.228.23.337.1.132.2.26.316.382C70.331,9.546,70.421,9.642,70.517,9.731Z" style="fill:none"/><path d="M77.023,57.152v-45.7a6.094,6.094,0,0,1-5.72.373L53.587,33.7A6.185,6.185,0,1,1,42.6,36.317l-16.971-7.67a6.149,6.149,0,0,1-8.247,2.927L2.925,59.788H74.388A2.636,2.636,0,0,0,77.023,57.152Z" style="fill:none"/><path d="M17.99,30.394c.126.06.258.111.39.161a5.094,5.094,0,0,0,.611.191c.073.017.148.025.222.039a4.546,4.546,0,0,0,.839.085,4.8,4.8,0,0,0,.87-.088c.088-.016.174-.037.26-.058a4.655,4.655,0,0,0,.577-.18c.088-.033.178-.062.264-.1a4.831,4.831,0,0,0,.656-.357c.12-.078.23-.168.342-.256.09-.071.179-.141.264-.218a4.809,4.809,0,0,0,.358-.356c.043-.047.08-.1.121-.146a4.919,4.919,0,0,0,.658-1.011,4.825,4.825,0,0,0,.206-.511c.028-.078.052-.158.075-.239l0-.012a4.849,4.849,0,0,0,.124-.5h0a4.858,4.858,0,1,0-9.643-.832,4.8,4.8,0,0,0,.09.887c.009.045.014.092.024.137a4.694,4.694,0,0,0,.221.711c.036.092.071.184.112.273a4.687,4.687,0,0,0,.284.522q.122.2.261.38c.01.014.022.026.032.039a5,5,0,0,0,.671.709A4.834,4.834,0,0,0,17.99,30.394Z" style="fill:none"/><path d="M48.676,42.306a4.869,4.869,0,0,0,4.863-4.864,4.761,4.761,0,0,0-.088-.874c-.017-.091-.04-.18-.062-.269a4.717,4.717,0,0,0-.176-.567c-.035-.092-.067-.186-.107-.275a4.848,4.848,0,0,0-.378-.694h0c-.066-.1-.145-.187-.219-.279-.028-.035-.053-.07-.082-.1-.052-.062-.1-.127-.158-.187a5.938,5.938,0,0,0-.435-.419,5.079,5.079,0,0,0-.675-.491c-.012-.008-.026-.013-.038-.021a4.935,4.935,0,0,0-.7-.347c-.083-.033-.172-.052-.258-.08a4.183,4.183,0,0,0-1.484-.256,4.841,4.841,0,0,0-.883.089c-.087.016-.172.039-.257.06a4.755,4.755,0,0,0-.594.184c-.084.033-.169.064-.251.1a4.653,4.653,0,0,0-.648.352c-.032.02-.066.035-.1.056a4.843,4.843,0,0,0-.626.517c-.073.07-.139.146-.208.22a4.913,4.913,0,0,0-.344.417c-.064.088-.129.175-.187.266a4.968,4.968,0,0,0-.294.542c-.033.069-.073.132-.1.2h0a4.186,4.186,0,0,0-.208.666,6.047,6.047,0,0,0-.108.637,4.817,4.817,0,0,0-.056.553A4.869,4.869,0,0,0,48.676,42.306Z" style="fill:none"/><path d="M79.482,8.651h0V62.134h0a.609.609,0,0,0-.141-.029H1.737l1.188-2.317H74.388a2.636,2.636,0,0,0,2.635-2.636v-45.7A6.218,6.218,0,0,0,79.482,8.651Z" style="fill:#00c0a5;opacity:0.2"/><path d="M79.482,62.134h0a.609.609,0,0,0-.141-.029H1.737l1.188-2.317,14.46-28.214a6.149,6.149,0,0,0,8.247-2.927L42.6,36.317A6.18,6.18,0,1,0,53.587,33.7L71.3,11.822a6.094,6.094,0,0,0,5.72-.373,6.218,6.218,0,0,0,2.459-2.8h0a6.182,6.182,0,1,0-9.328,2.5L52.674,32.736a6.172,6.172,0,0,0-9.694,2.3L26.069,27.4a6.179,6.179,0,1,0-9.808,3.48L1.318,60.034V3.01A.659.659,0,0,0,0,3.01V62.764a.659.659,0,0,0,.659.659c.009,0,.016-.005.025-.005s.016.005.025.005H79.341A.659.659,0,0,0,80,62.764.649.649,0,0,0,79.482,62.134ZM69.926,9.068c-.081-.109-.158-.221-.23-.337a5,5,0,0,1-.282-.519c-.035-.075-.071-.148-.1-.225a4.643,4.643,0,0,1-.234-.751c-.014-.061-.023-.122-.035-.184a4.8,4.8,0,0,1-.088-.871,4.864,4.864,0,0,1,9.727,0c0,.031-.008.059-.009.089a4.905,4.905,0,0,1-4.854,4.775,4.413,4.413,0,0,1-.859-.087,5.1,5.1,0,0,1-1.326-.455l-.118-.059c-.025-.014-.048-.031-.073-.045a4.537,4.537,0,0,1-.456-.281h0a4.966,4.966,0,0,1-.469-.387c-.1-.089-.186-.185-.275-.281C70.13,9.328,70.026,9.2,69.926,9.068ZM43.869,36.889a6.047,6.047,0,0,1,.108-.637,4.186,4.186,0,0,1,.208-.666h0c.029-.07.069-.133.1-.2a4.968,4.968,0,0,1,.294-.542c.058-.091.123-.178.187-.266a4.913,4.913,0,0,1,.344-.417c.069-.074.135-.15.208-.22a4.843,4.843,0,0,1,.626-.517c.031-.021.065-.036.1-.056a4.653,4.653,0,0,1,.648-.352c.082-.037.167-.068.251-.1a4.755,4.755,0,0,1,.594-.184c.085-.021.17-.044.257-.06a4.841,4.841,0,0,1,.883-.089,4.183,4.183,0,0,1,1.484.256c.086.028.175.047.258.08a4.935,4.935,0,0,1,.7.347c.012.008.026.013.038.021a5.079,5.079,0,0,1,.675.491,5.938,5.938,0,0,1,.435.419c.056.06.106.125.158.187.029.034.054.069.082.1.074.092.153.179.219.279h0a4.848,4.848,0,0,1,.378.694c.04.089.072.183.107.275a4.717,4.717,0,0,1,.176.567c.022.089.045.178.062.269a4.761,4.761,0,0,1,.088.874,4.863,4.863,0,1,1-9.726,0A4.817,4.817,0,0,1,43.869,36.889ZM16.212,28.956c-.01-.013-.022-.025-.032-.039q-.139-.183-.261-.38a4.687,4.687,0,0,1-.284-.522c-.041-.089-.076-.181-.112-.273a4.694,4.694,0,0,1-.221-.711c-.01-.045-.015-.092-.024-.137a4.8,4.8,0,0,1-.09-.887,4.864,4.864,0,1,1,9.643.832h0a4.849,4.849,0,0,1-.124.5l0,.012c-.023.081-.047.161-.075.239a4.825,4.825,0,0,1-.206.511,4.919,4.919,0,0,1-.658,1.011c-.041.049-.078.1-.121.146a4.809,4.809,0,0,1-.358.356c-.085.077-.174.147-.264.218-.112.088-.222.178-.342.256a4.831,4.831,0,0,1-.656.357c-.086.038-.176.067-.264.1a4.655,4.655,0,0,1-.577.18c-.086.021-.172.042-.26.058a4.8,4.8,0,0,1-.87.088,4.546,4.546,0,0,1-.839-.085c-.074-.014-.149-.022-.222-.039a5.094,5.094,0,0,1-.611-.191c-.132-.05-.264-.1-.39-.161a4.834,4.834,0,0,1-1.107-.729A5,5,0,0,1,16.212,28.956Z" style="fill:#00c0a5"/></svg>