<svg xmlns="http://www.w3.org/2000/svg" viewBox="0 0 344.305 217.478"><title>money</title><rect x="2.5" y="38.236" width="300.082" height="176.742" rx="10" ry="10" style="fill:#edf7f5;stroke:#5fe1cf;stroke-miterlimit:10;stroke-width:5px"/><path d="M41.937,20.236H311.582a10,10,0,0,1,10,10v156" style="fill:none;stroke:#5fe1cf;stroke-linecap:round;stroke-linejoin:round;stroke-width:5px"/><path d="M66.48,2.5H331.805a10,10,0,0,1,10,10V160.962" style="fill:none;stroke:#5fe1cf;stroke-linecap:round;stroke-linejoin:round;stroke-width:5px"/><path d="M292.582,38.236H290.74V193.272a10,10,0,0,1-10,10H2.5v1.706a10,10,0,0,0,10,10H292.582a10,10,0,0,0,10-10V48.236A10,10,0,0,0,292.582,38.236Z" style="fill:#5fe1cf;opacity:0.2"/><circle cx="151.947" cy="126.483" r="56.817" style="fill:#edf7f5;stroke:#5fe1cf;stroke-linecap:round;stroke-linejoin:round;stroke-width:5px"/><line x1="152.101" y1="156.585" x2="152.101" y2="146.829" style="fill:none;stroke:#5fe1cf;stroke-linecap:round;stroke-miterlimit:10;stroke-width:5px"/><line x1="152.101" y1="101.784" x2="152.101" y2="92.027" style="fill:none;stroke:#5fe1cf;stroke-linecap:round;stroke-miterlimit:10;stroke-width:5px"/><path d="M135.647,138.988s6.12,8.868,20.61,7.12c0,0,11.117-1,11.367-10.993a9.908,9.908,0,0,0-4.777-8.5c-3.9-2.447-8.712-2.475-13-3.829-5.691-1.794-13.255-4.913-11.74-12.328,1.106-5.409,7.02-7.782,11.909-8.449,0,0,11.117-1.374,18.237,6.246" style="fill:none;stroke:#5fe1cf;stroke-linecap:round;stroke-linejoin:round;stroke-width:5px"/><line x1="73.351" y1="68.839" x2="35.134" y2="68.839" style="fill:none;stroke:#5fe1cf;stroke-linecap:round;stroke-linejoin:round;stroke-width:5px"/><line x1="34.829" y1="107.835" x2="34.829" y2="68.839" style="fill:none;stroke:#5fe1cf;stroke-linecap:round;stroke-linejoin:round;stroke-width:5px"/><line x1="73.351" y1="182.18" x2="35.134" y2="182.18" style="fill:none;stroke:#5fe1cf;stroke-linecap:round;stroke-linejoin:round;stroke-width:5px"/><line x1="34.829" y1="144.712" x2="34.829" y2="182.18" style="fill:none;stroke:#5fe1cf;stroke-linecap:round;stroke-linejoin:round;stroke-width:5px"/><line x1="227.5" y1="182.18" x2="267.598" y2="182.18" style="fill:none;stroke:#5fe1cf;stroke-linecap:round;stroke-linejoin:round;stroke-width:5px"/><line x1="267.863" y1="144.712" x2="267.863" y2="182.18" style="fill:none;stroke:#5fe1cf;stroke-linecap:round;stroke-linejoin:round;stroke-width:5px"/><line x1="227.5" y1="68.839" x2="267.598" y2="68.839" style="fill:none;stroke:#5fe1cf;stroke-linecap:round;stroke-linejoin:round;stroke-width:5px"/><line x1="267.863" y1="107.835" x2="267.863" y2="68.839" style="fill:none;stroke:#5fe1cf;stroke-linecap:round;stroke-linejoin:round;stroke-width:5px"/></svg>