<svg xmlns="http://www.w3.org/2000/svg" viewBox="0 0 80 80"><title>No Deposit</title><path d="M54.857,75.718a38.725,38.725,0,1,1,20.95-21.087,15.122,15.122,0,1,0-20.95,21.087Z" style="fill:#edf7f5"/><path d="M78.689,40c0,.625-.018,1.247-.048,1.865-.01.211-.028.421-.042.631-.026.405-.054.81-.092,1.211-.024.25-.054.5-.083.746-.041.358-.085.715-.136,1.069-.038.265-.08.529-.123.793-.055.333-.115.664-.178,1-.052.271-.1.542-.163.812-.069.319-.144.635-.22.951-.066.271-.129.542-.2.811-.084.316-.177.629-.268.942-.076.261-.148.523-.229.781q-.247.789-.529,1.562l-.009.027a16.654,16.654,0,0,0-2.637-2.71,39.363,39.363,0,0,0-1.144-31.3A38.443,38.443,0,0,1,78.689,40ZM50.344,73.214A39.336,39.336,0,0,1,11.11,65.7,38.6,38.6,0,0,0,40,78.689c.63,0,1.255-.018,1.877-.048.219-.011.435-.03.652-.044.4-.026.8-.053,1.2-.092.262-.025.522-.058.783-.088.346-.041.691-.083,1.034-.132.285-.041.568-.087.85-.135.313-.052.625-.107.935-.167s.593-.118.888-.182.576-.13.862-.2c.306-.074.612-.149.915-.23.265-.071.526-.148.788-.224.318-.093.635-.183.949-.283.231-.074.458-.155.686-.233.337-.114.674-.226,1.007-.349h0A16.709,16.709,0,0,1,50.344,73.214Z" style="fill:#00c0a5;opacity:0.2"/><path d="M63.362,48.084a15.161,15.161,0,1,0,12.445,6.547A15.147,15.147,0,0,0,63.362,48.084Z" style="fill:#fff"/><path d="M72.588,19.188a38.676,38.676,0,1,0-19.162,57.1A16.421,16.421,0,1,1,76.369,53.2a38.6,38.6,0,0,0-3.781-34.008Z" style="fill:none"/><path d="M45.546,78.285c-.343.049-.688.091-1.034.132C44.858,78.376,45.2,78.335,45.546,78.285Z" style="fill:none"/><path d="M47.331,77.983c-.31.06-.622.115-.935.167C46.709,78.1,47.021,78.043,47.331,77.983Z" style="fill:none"/><path d="M49.081,77.6c-.286.069-.573.137-.862.2C48.508,77.738,48.794,77.671,49.081,77.6Z" style="fill:none"/><path d="M43.729,78.505c-.4.039-.8.066-1.2.092C42.93,78.571,43.331,78.544,43.729,78.505Z" style="fill:none"/><path d="M41.877,78.641c-.622.03-1.247.048-1.877.048C40.63,78.689,41.255,78.671,41.877,78.641Z" style="fill:none"/><path d="M50.784,77.148c-.262.076-.523.153-.788.224C50.261,77.3,50.522,77.224,50.784,77.148Z" style="fill:none"/><path d="M52.419,76.632c-.228.078-.455.159-.686.233C51.964,76.791,52.191,76.71,52.419,76.632Z" style="fill:none"/><polygon points="53.426 76.283 53.426 76.283 53.426 76.283 53.426 76.283" style="fill:none"/><path d="M80,40A40.035,40.035,0,1,0,54.727,77.179,16.409,16.409,0,0,0,77.272,54.49,39.783,39.783,0,0,0,80,40ZM53.426,76.283c-.333.123-.671.235-1.007.349-.228.078-.455.159-.686.233-.314.1-.631.19-.949.283-.262.076-.523.153-.788.224-.3.081-.609.156-.915.23-.287.069-.573.136-.862.2s-.591.124-.888.182-.622.115-.935.167c-.282.048-.565.094-.85.135-.343.05-.688.091-1.034.132-.261.03-.521.063-.783.088-.4.039-.8.066-1.2.092-.217.014-.433.033-.652.044-.622.03-1.247.048-1.877.048A38.657,38.657,0,1,1,78.689,40c0,.625-.018,1.247-.048,1.865-.01.211-.028.421-.042.631-.026.405-.054.81-.092,1.211-.024.25-.054.5-.083.746-.041.358-.085.715-.136,1.069-.038.265-.08.529-.123.793-.055.333-.115.664-.178,1-.052.271-.1.542-.163.812-.069.319-.144.635-.22.951-.066.271-.129.542-.2.811-.084.316-.177.629-.268.942-.076.261-.148.523-.229.781q-.249.789-.529,1.562l-.009.027a16.654,16.654,0,0,0-2.637-2.71A16.412,16.412,0,0,0,50.344,73.214a16.709,16.709,0,0,0,3.082,3.069ZM78.492,63.214a15.114,15.114,0,1,1-2.685-8.583,14.873,14.873,0,0,1,.846,1.362A15.028,15.028,0,0,1,78.492,63.214ZM47.56,42.393c-.113,4.526-4.263,6.093-6.442,6.288-.536.065-1.045.1-1.539.11v4.625a.656.656,0,1,1-1.312,0V48.772c-5.705-.331-8.226-3.859-8.345-4.032A.656.656,0,0,1,31,43.993c.126.179,3.052,4.222,9.981,3.384.229-.021,5.156-.535,5.268-5.017a4.437,4.437,0,0,0-2.149-3.8,11.687,11.687,0,0,0-4.049-1.311,23.326,23.326,0,0,1-2.487-.587c-2.038-.643-7.452-2.351-6.482-7.1.52-2.545,3.016-4.363,6.678-4.862.039,0,.226-.025.507-.04V20.22a.656.656,0,0,1,1.312,0v4.444a11.758,11.758,0,0,1,8.126,3.455.656.656,0,0,1-.958.9c-3.394-3.632-8.764-3.015-8.818-3.009-1.148.157-4.964.9-5.562,3.825-.646,3.162,2.464,4.6,5.591,5.583a21.789,21.789,0,0,0,2.347.551A12.835,12.835,0,0,1,44.8,37.452,5.75,5.75,0,0,1,47.56,42.393ZM70.244,58.651l-5.3,5.3,5.3,5.3a.655.655,0,1,1-.927.927l-5.3-5.3-5.3,5.3a.655.655,0,0,1-.927-.927l5.3-5.3-5.3-5.3a.656.656,0,1,1,.927-.928l5.3,5.3,5.3-5.3a.656.656,0,0,1,.927.928Z" style="fill:#00c0a5"/></svg>