<svg xmlns="http://www.w3.org/2000/svg" viewBox="0 0 80 80"><title>Offset</title><path d="M78.688,40A38.688,38.688,0,1,1,40,1.311,38.732,38.732,0,0,1,78.688,40Z" style="fill:#edf7f5"/><path d="M37.088,75.509a39.355,39.355,0,0,0,35.5-56.321A38.668,38.668,0,1,0,11.11,65.695,39.175,39.175,0,0,0,37.088,75.509Z" style="fill:none"/><path d="M76.433,36.165a39.18,39.18,0,0,0-3.845-16.977A38.662,38.662,0,0,1,11.11,65.695a39.33,39.33,0,0,0,65.323-29.53Z" style="fill:#00c0a5;opacity:0.2"/><path d="M47.968,38.91l-8.2,9.569a13.3,13.3,0,1,1-1.167-18.2.656.656,0,0,1-.9.958,11.991,11.991,0,1,0,1.059,16.394l8.209-9.577a.656.656,0,1,1,1,.853ZM50.484,26.7a13.265,13.265,0,0,0-10.251,4.824l-8.2,9.569a.656.656,0,1,0,1,.853l8.209-9.577A11.991,11.991,0,1,1,42.3,48.76a.656.656,0,1,0-.9.958A13.3,13.3,0,1,0,50.484,26.7ZM80,40A40,40,0,1,1,40,0,40.045,40.045,0,0,1,80,40Zm-1.312,0A38.688,38.688,0,1,0,1.312,40a38.688,38.688,0,1,0,77.376,0Z" style="fill:#00c0a5"/></svg>