<svg xmlns="http://www.w3.org/2000/svg" viewBox="0 0 80 79.951"><title>Pre approval</title><path d="M79.344,40A39.344,39.344,0,1,1,40,.656,39.344,39.344,0,0,1,79.344,40Z" style="fill:#edf7f5"/><path d="M79.344,40A39.346,39.346,0,0,1,7.251,61.81,39.345,39.345,0,0,0,69.837,14.355,39.187,39.187,0,0,1,79.344,40Z" style="fill:#00c0a5;opacity:0.2"/><path d="M22.029,4.984a.655.655,0,0,1,.3-.878,39.939,39.939,0,0,1,3.72-1.6.656.656,0,1,1,.458,1.229,38.5,38.5,0,0,0-3.6,1.552.655.655,0,0,1-.878-.3ZM5.25,21.521a.656.656,0,0,0,.891-.255,38.857,38.857,0,0,1,2.072-3.327.656.656,0,0,0-1.077-.749,40.275,40.275,0,0,0-2.142,3.44A.656.656,0,0,0,5.25,21.521ZM15.873,9.575a.651.651,0,0,0,.4-.138,39.048,39.048,0,0,1,3.211-2.246.656.656,0,1,0-.7-1.111A40.21,40.21,0,0,0,15.47,8.4a.656.656,0,0,0,.4,1.173Zm-5.761,5.493a.655.655,0,0,0,.5-.229A39.144,39.144,0,0,1,13.307,12a.656.656,0,1,0-.905-.949,40.5,40.5,0,0,0-2.788,2.939.656.656,0,0,0,.5,1.083ZM.925,44.675a.655.655,0,0,0,.586-.719c-.131-1.291-.2-2.608-.2-3.913a.655.655,0,0,0-.655-.655h0A.656.656,0,0,0,0,40.045c0,1.348.071,2.709.206,4.044a.656.656,0,0,0,.652.589A.508.508,0,0,0,.925,44.675ZM2.24,28.892a.667.667,0,0,0,.2.03.656.656,0,0,0,.625-.461,38.551,38.551,0,0,1,1.357-3.676.656.656,0,1,0-1.206-.516,39.882,39.882,0,0,0-1.4,3.8A.656.656,0,0,0,2.24,28.892ZM.785,36.717q.033,0,.066,0a.656.656,0,0,0,.652-.591,38.484,38.484,0,0,1,.584-3.873A.656.656,0,1,0,.8,31.994,39.939,39.939,0,0,0,.2,36,.655.655,0,0,0,.785,36.717ZM60.406,7.124A38.952,38.952,0,0,1,63.624,9.36a.656.656,0,0,0,.8-1.038A39.879,39.879,0,0,0,61.1,6.011a.655.655,0,1,0-.692,1.113ZM76.9,28.338a.656.656,0,0,0,1.251-.395,39.71,39.71,0,0,0-1.416-3.8.656.656,0,1,0-1.2.52A38.644,38.644,0,0,1,76.9,28.338Zm.987,3.791a38.412,38.412,0,0,1,.6,3.872.656.656,0,0,0,.652.588l.068,0a.656.656,0,0,0,.585-.719,40.181,40.181,0,0,0-.617-4,.656.656,0,0,0-1.285.266ZM73.8,21.154a.655.655,0,0,0,.573.336.647.647,0,0,0,.319-.083.655.655,0,0,0,.253-.892,40.164,40.164,0,0,0-2.153-3.432.656.656,0,1,0-1.074.752A38.737,38.737,0,0,1,73.8,21.154ZM2.1,47.829a.656.656,0,0,0-1.285.264,39.815,39.815,0,0,0,1.017,3.922.655.655,0,0,0,.625.459.643.643,0,0,0,.2-.031.654.654,0,0,0,.429-.822A38.649,38.649,0,0,1,2.1,47.829ZM30.076,2.574a.667.667,0,0,0,.165-.021,38.666,38.666,0,0,1,3.837-.791.656.656,0,1,0-.2-1.3,39.8,39.8,0,0,0-3.967.817.656.656,0,0,0,.164,1.291Zm15.718-.832a38.676,38.676,0,0,1,3.84.778.656.656,0,0,0,.326-1.27,39.885,39.885,0,0,0-3.971-.8.656.656,0,0,0-.2,1.3Zm7.581,1.943a38.643,38.643,0,0,1,3.6,1.541.656.656,0,1,0,.577-1.178,39.576,39.576,0,0,0-3.726-1.593.655.655,0,1,0-.453,1.23ZM76.426,54.911a.656.656,0,0,0-.861.344,38.685,38.685,0,0,1-1.728,3.517.655.655,0,0,0,.255.891.643.643,0,0,0,.318.083.656.656,0,0,0,.574-.337,40.143,40.143,0,0,0,1.786-3.637A.655.655,0,0,0,76.426,54.911ZM69.8,14.97a.656.656,0,0,0,.5-1.084c-.879-1.019-1.82-2-2.8-2.93a.656.656,0,1,0-.9.952,39.159,39.159,0,0,1,2.706,2.835A.652.652,0,0,0,69.8,14.97ZM66.662,68.035a39.173,39.173,0,0,1-2.971,2.554.656.656,0,0,0,.8,1.037,40.376,40.376,0,0,0,3.072-2.641.656.656,0,1,0-.9-.95Zm-6.185,4.8a39.066,39.066,0,0,1-3.423,1.905.656.656,0,0,0,.29,1.244.664.664,0,0,0,.289-.067,40.271,40.271,0,0,0,3.539-1.97.656.656,0,1,0-.7-1.112Zm-7.022,3.453a38.629,38.629,0,0,1-3.738,1.174.655.655,0,0,0,.163,1.29.667.667,0,0,0,.165-.021,39.98,39.98,0,0,0,3.866-1.213.656.656,0,0,0-.456-1.23ZM79.344,39.256a.656.656,0,0,0-.655.656V40c0,1.306-.066,2.623-.2,3.914a.657.657,0,0,0,.587.718c.022,0,.045,0,.066,0a.656.656,0,0,0,.652-.59c.134-1.335.2-2.695.2-4.045v-.088A.656.656,0,0,0,79.344,39.256ZM71.762,62.1a39.04,39.04,0,0,1-2.4,3.1.656.656,0,0,0,1,.855,40.377,40.377,0,0,0,2.481-3.2.656.656,0,0,0-1.076-.75Zm6.917-14.82a.655.655,0,0,0-.774.511,38.648,38.648,0,0,1-.979,3.793.656.656,0,0,0,.43.822.635.635,0,0,0,.2.03.654.654,0,0,0,.625-.46,39.815,39.815,0,0,0,1.013-3.923A.656.656,0,0,0,78.679,47.276ZM8.261,62.129a.656.656,0,0,0-1.075.751,40.185,40.185,0,0,0,2.484,3.2.656.656,0,1,0,.994-.856A39.03,39.03,0,0,1,8.261,62.129Zm5.106,5.933a.656.656,0,0,0-.9.952,40.369,40.369,0,0,0,3.075,2.637.646.646,0,0,0,.4.137.655.655,0,0,0,.4-1.174C15.313,69.818,14.312,68.959,13.367,68.062Zm9.617,6.693a38.659,38.659,0,0,1-3.426-1.9.656.656,0,1,0-.694,1.113,40.235,40.235,0,0,0,3.542,1.967.656.656,0,0,0,.578-1.178ZM4.451,55.294a.656.656,0,1,0-1.2.519,40.111,40.111,0,0,0,1.79,3.633.656.656,0,0,0,1.146-.638A38.934,38.934,0,0,1,4.451,55.294ZM30.324,77.469a38.364,38.364,0,0,1-3.739-1.17.656.656,0,1,0-.455,1.231A40.08,40.08,0,0,0,30,78.739a.665.665,0,0,0,.164.021.656.656,0,0,0,.163-1.291Zm7.618-76.1h.034c1.292-.066,2.617-.069,3.919-.006a.656.656,0,1,0,.063-1.31c-1.345-.065-2.714-.062-4.05.006a.656.656,0,0,0,.034,1.311Zm.12,77.277c-1.3-.065-2.614-.2-3.9-.39a.656.656,0,0,0-.2,1.3,40.49,40.49,0,0,0,4.03.4h.033a.655.655,0,0,0,.032-1.31Zm7.817-.4a39.127,39.127,0,0,1-3.9.394.655.655,0,0,0,.032,1.31h.034c1.345-.068,2.7-.2,4.03-.407a.656.656,0,0,0-.2-1.3ZM56.7,28.07,34.321,50.658,23.308,39.192a.656.656,0,1,0-.946.908L33.841,52.051a.659.659,0,0,0,.467.2h.006a.651.651,0,0,0,.465-.2L57.631,28.993a.656.656,0,1,0-.932-.923Z" style="fill:#00c0a5"/></svg>