<svg xmlns="http://www.w3.org/2000/svg" viewBox="0 0 304.985 199.704"><title>preferences</title><line x1="2.5" y1="29.738" x2="302.485" y2="29.738" style="fill:#edf7f5;stroke:#5fe1cf;stroke-linecap:round;stroke-linejoin:round;stroke-width:5px"/><line x1="2.5" y1="100.28" x2="302.485" y2="100.28" style="fill:#edf7f5;stroke:#5fe1cf;stroke-linecap:round;stroke-linejoin:round;stroke-width:5px"/><line x1="2.5" y1="172.857" x2="302.485" y2="172.857" style="fill:#edf7f5;stroke:#5fe1cf;stroke-linecap:round;stroke-linejoin:round;stroke-width:5px"/><circle cx="69.327" cy="27.936" r="25.436" style="fill:#edf7f5;stroke:#5fe1cf;stroke-miterlimit:10;stroke-width:5px"/><circle cx="155.131" cy="99.495" r="25.436" style="fill:#edf7f5;stroke:#5fe1cf;stroke-miterlimit:10;stroke-width:5px"/><circle cx="241.256" cy="171.768" r="25.436" style="fill:#edf7f5;stroke:#5fe1cf;stroke-miterlimit:10;stroke-width:5px"/><path d="M87.246,9.887a25.434,25.434,0,0,1-41.016,28.7,25.435,25.435,0,1,0,41.016-28.7Z" style="fill:#5fe1cf;opacity:0.25"/><path d="M173.05,81.446a25.434,25.434,0,0,1-41.017,28.7,25.435,25.435,0,1,0,41.017-28.7Z" style="fill:#5fe1cf;opacity:0.25"/><path d="M259.175,153.719a25.434,25.434,0,0,1-41.017,28.7,25.435,25.435,0,1,0,41.017-28.7Z" style="fill:#5fe1cf;opacity:0.25"/></svg>