<svg xmlns="http://www.w3.org/2000/svg" viewBox="0 0 299.156 277.579"><title>savings-options</title><path d="M51.276,160.016S19.46,166.99,6.384,147.377s11.051-39.154,11.051-39.154" style="fill:none;stroke:#5fe1cf;stroke-linecap:round;stroke-linejoin:round;stroke-width:5px"/><path d="M128.2,62.387H168.52a97.3,97.3,0,0,1,20.943,2.275c11.822-15.526,31.074-19.756,43.121-20.806a10.009,10.009,0,0,1,10.9,9.962V97.842a96.7,96.7,0,0,1,18.5,35.588h14.673a20,20,0,0,1,20,20V183.6a20,20,0,0,1-20,20H254.839a97.335,97.335,0,0,1-21.127,27.555v33.923a10,10,0,0,1-10,10H192.03a10,10,0,0,1-10-10V255.4a97.889,97.889,0,0,1-13.51.941H128.2c-.717,0-1.431-.012-2.144-.027v8.768a10,10,0,0,1-10,10H84.376a10,10,0,0,1-10-10V240.035a96.878,96.878,0,0,1-43.148-80.672h0A96.975,96.975,0,0,1,128.2,62.387Z" style="fill:#edf7f5;stroke:#5fe1cf;stroke-miterlimit:10;stroke-width:5px"/><path d="M241.062,220.307a97.465,97.465,0,0,0,11.278-12.175,97.291,97.291,0,0,1-11.278,15.554Z" style="fill:#5fe1cf;opacity:0.25"/><path d="M262.188,192.752h21.817a19.88,19.88,0,0,0,11.955-3.993,19.99,19.99,0,0,1-19.3,14.842H255.678A97.092,97.092,0,0,0,262.188,192.752Z" style="fill:#5fe1cf;opacity:0.25"/><path d="M133.408,254.231v-8.769c.713.016,1.427.028,2.144.028h40.317a97.733,97.733,0,0,0,13.51-.942v9.683a10,10,0,0,0,10,10h31.683a10,10,0,0,0,2.651-.367v1.215a10,10,0,0,1-10,10H192.03a10,10,0,0,1-10-10V255.4a97.733,97.733,0,0,1-13.51.942H133.181A10.023,10.023,0,0,0,133.408,254.231Z" style="fill:#5fe1cf;opacity:0.25"/><path d="M51.73,99.728a96.512,96.512,0,0,0-13.153,48.786h0a96.876,96.876,0,0,0,43.148,80.672v25.045a10,10,0,0,0,10,10h31.683a9.988,9.988,0,0,0,2.651-.367v1.215a10,10,0,0,1-10,10H84.376a10,10,0,0,1-10-10V240.035a96.881,96.881,0,0,1-43.148-80.672h0A96.556,96.556,0,0,1,51.73,99.728Z" style="fill:#5fe1cf;opacity:0.25"/><circle cx="219.806" cy="139.564" r="10.305" style="fill:#5fe1cf"/><path d="M176.331,61.1l-12.778-5.4a58.58,58.58,0,0,0-3.363-8.111l5.216-12.861a4.579,4.579,0,0,0-1-4.96L151.865,17.227a4.578,4.578,0,0,0-4.96-1.006l-12.861,5.216a58.691,58.691,0,0,0-8.11-3.363L120.531,5.3a4.581,4.581,0,0,0-4.219-2.8H98.584a4.58,4.58,0,0,0-4.218,2.8l-5.4,12.778a58.742,58.742,0,0,0-8.11,3.363L67.991,16.221a4.578,4.578,0,0,0-4.96,1.006L50.5,29.762a4.579,4.579,0,0,0-1,4.96l5.216,12.861a58.793,58.793,0,0,0-3.363,8.11L38.565,61.1a4.58,4.58,0,0,0-2.8,4.218V83.043a4.581,4.581,0,0,0,2.8,4.219l12.778,5.4a58.691,58.691,0,0,0,3.363,8.11L49.49,113.636a4.581,4.581,0,0,0,1,4.961l12.536,12.535a4.582,4.582,0,0,0,4.96,1.006l12.861-5.217a58.623,58.623,0,0,0,8.11,3.364l5.4,12.777a4.581,4.581,0,0,0,4.218,2.8h17.728a4.582,4.582,0,0,0,4.219-2.8l5.4-12.777a58.572,58.572,0,0,0,8.11-3.364l12.861,5.217a4.582,4.582,0,0,0,4.96-1.006L164.4,118.6a4.581,4.581,0,0,0,1-4.961l-5.216-12.86a58.631,58.631,0,0,0,3.363-8.111l12.778-5.4a4.581,4.581,0,0,0,2.8-4.219V65.315A4.58,4.58,0,0,0,176.331,61.1Z" style="fill:#fff;stroke:#5fe1cf;stroke-miterlimit:10;stroke-width:5px"/><circle cx="107.448" cy="74.179" r="37.562" style="fill:none;stroke:#5fe1cf;stroke-miterlimit:10;stroke-width:5px"/></svg>