<svg xmlns="http://www.w3.org/2000/svg" viewBox="0 0 80 67.856"><title>sun-bed</title><path d="M73.449,32.647a2.243,2.243,0,0,1-.661,1.6L48.566,58.465l-.11.122a2.265,2.265,0,0,1-1.846.961H8.091A2.261,2.261,0,0,1,5.833,57.29v-.8a2.261,2.261,0,0,1,2.258-2.258H45.282L69.031,30.487a2.26,2.26,0,0,1,3.193,0l.563.564h0A2.247,2.247,0,0,1,73.449,32.647Zm-31-19.635a3.892,3.892,0,0,1,3.193-.577,2.829,2.829,0,0,1,2.046,1.794,3.888,3.888,0,0,1,2.964-.414,2.907,2.907,0,0,1,2.095,1.794,4.127,4.127,0,0,1,3.075-.356,2.74,2.74,0,0,1,2.029,1.723,4.091,4.091,0,0,1,3.106-.411,2.758,2.758,0,0,1,2.022,1.7,3,3,0,0,1,1.4-.314,4.831,4.831,0,0,1,1.214.167,3.3,3.3,0,0,1,.664.252,14.215,14.215,0,0,0-26.809-7,3.313,3.313,0,0,1,.715.106A3.533,3.533,0,0,1,42.45,13.012Zm-29.1,13.851a9.13,9.13,0,1,0-5.545-4.254A9.071,9.071,0,0,0,13.352,26.863Z" style="fill:#edf7f5"/><line x1="58.282" y1="55.679" x2="69.732" y2="67.13" style="fill:#edf7f5"/><line x1="42.782" y1="63.754" x2="46.158" y2="67.13" style="fill:#edf7f5"/><line x1="16.053" y1="67.192" x2="19.385" y2="63.967" style="fill:#edf7f5"/><path d="M73.449,32.647a2.243,2.243,0,0,1-.661,1.6L48.566,58.465l-.11.122a2.265,2.265,0,0,1-1.846.961H8.091A2.24,2.24,0,0,1,7.065,59.3c.212-1.324,1.421-1.966,2.886-1.966H45.007L70.649,32.021a2.031,2.031,0,0,1,2.368-.7A2.238,2.238,0,0,1,73.449,32.647ZM58.258,16.765a4.194,4.194,0,0,1,2.7-.2,2.758,2.758,0,0,1,2.022,1.7,3,3,0,0,1,1.4-.314,4.831,4.831,0,0,1,1.214.167,3.273,3.273,0,0,1,.664.252A14.271,14.271,0,0,0,55.639,4.192c-.384-.1-.769-.182-1.154-.249a.457.457,0,0,0-.069.051A15.348,15.348,0,0,1,58.258,16.765Z" style="fill:#00c0a5;opacity:0.2"/><path d="M38.567,12.847a1.938,1.938,0,0,1,1.259-.092c1.247.326,1.769.932,1.55,1.8a.666.666,0,0,0,.455.8.666.666,0,0,0,.832-.462,2.153,2.153,0,0,1,2.644-1.174,1.6,1.6,0,0,1,1.142,2.163.665.665,0,0,0,1.286.336A2.05,2.05,0,0,1,50.317,15.1a1.588,1.588,0,0,1,1.2,2.108.665.665,0,0,0,1.286.336c.259-.953,1.595-1.29,2.681-1.006a1.427,1.427,0,0,1,1.105,2,.664.664,0,0,0,.477.8l.071.018a.664.664,0,0,0,.807-.469c.264-.969,1.595-1.319,2.674-1.037a1.458,1.458,0,0,1,1.112,2.026.665.665,0,0,0,.455.8.654.654,0,0,0,.191.028.661.661,0,0,0,.64-.49c.236-.866.988-1.14,2.235-.814a1.937,1.937,0,0,1,1.045.686.665.665,0,0,0,1.183-.331,15.542,15.542,0,0,0-29.789-7.771.664.664,0,0,0,.873.865ZM55.639,4.192A14.271,14.271,0,0,1,66.255,18.365a3.273,3.273,0,0,0-.664-.252,4.831,4.831,0,0,0-1.214-.167,3,3,0,0,0-1.4.314,2.758,2.758,0,0,0-2.022-1.7,4.091,4.091,0,0,0-3.106.411,2.74,2.74,0,0,0-2.029-1.723,4.127,4.127,0,0,0-3.075.356,2.907,2.907,0,0,0-2.095-1.794,3.888,3.888,0,0,0-2.964.414,2.828,2.828,0,0,0-2.046-1.794,3.891,3.891,0,0,0-3.193.577,3.533,3.533,0,0,0-2.289-1.542,3.313,3.313,0,0,0-.715-.106A14.268,14.268,0,0,1,55.639,4.192Z" style="fill:#00c0a5"/><path d="M15.715,6.652a.664.664,0,0,0,.664-.664V.664a.664.664,0,0,0-1.328,0V5.988A.664.664,0,0,0,15.715,6.652Z" style="fill:#00c0a5"/><path d="M.332,9.929l4.611,2.662a.664.664,0,1,0,.664-1.15L1,8.779a.664.664,0,0,0-.664,1.15Z" style="fill:#00c0a5"/><path d="M5.85,23.739a.663.663,0,0,0-.907-.243L.332,26.158A.664.664,0,0,0,.665,27.4.653.653,0,0,0,1,27.308l4.611-2.662A.665.665,0,0,0,5.85,23.739Z" style="fill:#00c0a5"/><path d="M16.379,35.423V30.1a.664.664,0,0,0-1.328,0v5.324a.664.664,0,0,0,1.328,0Z" style="fill:#00c0a5"/><path d="M30.434,27.308a.656.656,0,0,0,.331.089.664.664,0,0,0,.333-1.239L26.488,23.5a.664.664,0,0,0-.664,1.15Z" style="fill:#00c0a5"/><path d="M26.156,12.68a.667.667,0,0,0,.332-.089L31.1,9.929a.664.664,0,0,0-.664-1.15l-4.61,2.662a.664.664,0,0,0,.332,1.239Z" style="fill:#00c0a5"/><path d="M6.657,23.273a10.457,10.457,0,1,0-1.045-7.937A10.466,10.466,0,0,0,6.657,23.273ZM6.9,15.68a9.13,9.13,0,1,1,.912,6.929A9.07,9.07,0,0,1,6.9,15.68Z" style="fill:#00c0a5"/><path d="M4.505,56.493v.8a3.59,3.59,0,0,0,3.586,3.586H46.61a3.59,3.59,0,0,0,2.89-1.467L73.727,35.183a3.588,3.588,0,0,0,0-5.072l-.564-.564a3.59,3.59,0,0,0-5.071,0l-23.36,23.36H38.18L51.647,20.2a.664.664,0,0,0-1.228-.505L36.744,52.907H8.091A3.59,3.59,0,0,0,4.505,56.493Zm40.778-2.258L69.031,30.487a2.26,2.26,0,0,1,3.193,0l.563.564h0a2.258,2.258,0,0,1,0,3.193L48.566,58.465l-.11.122a2.265,2.265,0,0,1-1.846.961H8.091A2.261,2.261,0,0,1,5.833,57.29v-.8a2.261,2.261,0,0,1,2.258-2.258Z" style="fill:#00c0a5"/><path d="M79.805,33.126a.665.665,0,0,0-.939,0l-29.6,29.6a.935.935,0,0,1-.657.272H3.363a.664.664,0,1,0,0,1.328H18.056l-2.465,2.386a.664.664,0,0,0,.924.954l3.332-3.225a.633.633,0,0,0,.093-.115H42.418l3.27,3.27a.664.664,0,1,0,.939-.939L44.3,64.329h4.31a2.243,2.243,0,0,0,1.6-.661L57.771,56.1c.014.017.026.034.041.05L69.262,67.6a.664.664,0,1,0,.939-.939L58.751,55.21a.5.5,0,0,0-.05-.041l21.1-21.1A.663.663,0,0,0,79.805,33.126Z" style="fill:#00c0a5"/></svg>