<svg xmlns="http://www.w3.org/2000/svg" viewBox="0 0 308.572 312.311"><title>target</title><circle cx="126.279" cy="186.032" r="123.779" style="fill:none;stroke:#5fe1cf;stroke-miterlimit:10;stroke-width:5px"/><circle cx="125.283" cy="186.366" r="88.652" style="fill:none;stroke:#5fe1cf;stroke-miterlimit:10;stroke-width:5px"/><circle cx="125.142" cy="189.888" r="54.353" style="fill:#edf7f5;stroke:#5fe1cf;stroke-miterlimit:10;stroke-width:5px"/><path d="M160.891,148.963A54.345,54.345,0,0,1,80,220.165a54.35,54.35,0,1,0,80.891-71.2Z" style="fill:#5fe1cf;opacity:0.2"/><line x1="269.58" y1="40.071" x2="123.144" y2="186.093" style="fill:none;stroke:#5fe1cf;stroke-linecap:round;stroke-linejoin:round;stroke-width:5px"/><path d="M230.373,78.192l-.591-36.508a10,10,0,0,1,2.928-7.233L263.776,3.384A3,3,0,0,1,268.9,5.469L269.3,38.6Z" style="fill:none;stroke:#5fe1cf;stroke-linecap:round;stroke-linejoin:round;stroke-width:5px"/><path d="M230.083,78.662l36.5.9a10,10,0,0,0,7.258-2.866l31.327-30.8a3,3,0,0,0-2.041-5.139L270,40.066Z" style="fill:none;stroke:#5fe1cf;stroke-linecap:round;stroke-linejoin:round;stroke-width:5px"/></svg>