<svg xmlns="http://www.w3.org/2000/svg" viewBox="0 0 80 78.664"><title>telephone</title><path d="M78.294,62.675c-.448-1.782-2.015-3.246-4.66-4.351L60.718,53.346c-.209-.093-5.173-2.252-7.158,1.322l-.039.07-2.892,3.373A4.518,4.518,0,0,1,48.4,59.45c-1.292.365-3.46.438-6.448-1.289a88.082,88.082,0,0,1-8.6-6.394C27.213,46.608,23.032,41.674,20.923,37.1a13.35,13.35,0,0,1-.874-2.854c-.482-2.72.452-3.947,1.356-4.5l3.374-3.025c.032-.028,2.262-2.012,1.766-4.593-.107-.551-.207-1.191-.323-1.932a61.764,61.764,0,0,0-4.47-15.99c-.146-.283-2.226-4.048-9.13-2.062A17.021,17.021,0,0,0,6.555,6.2c-3.877,3.983-5.507,9.349-4.848,15.947l0,.04c.006.12.794,12.307,15.442,30.068.129.156,13.222,15.782,31.614,23.428.655.208,13.535,4.144,22.832-2.275a25.2,25.2,0,0,0,5.109-5.1l.055-.076C76.783,68.2,78.99,65.444,78.294,62.675Z" style="fill:#edf7f5"/><path d="M1.71,22.182c0,.021.028.413.144,1.125,1.672,5.326,5.515,13.981,14.34,24.682,0,0,13.135,15.856,31.949,23.666,0,0,13.608,4.5,23.548-2.366a25.867,25.867,0,0,0,5.325-5.325,9.594,9.594,0,0,0,1.1-1.825c-.608-1.541-2.106-2.823-4.479-3.815L60.718,53.346c-.209-.093-5.173-2.252-7.158,1.322l-.039.07-2.892,3.373A4.518,4.518,0,0,1,48.4,59.45c-1.292.365-3.46.438-6.448-1.289a88.082,88.082,0,0,1-8.6-6.394C27.213,46.608,23.032,41.674,20.923,37.1a13.35,13.35,0,0,1-.874-2.854c-.352-1.989.055-3.174.652-3.887-.44-1.58-.734-3.85.818-4.737l3.432-3.077a7.162,7.162,0,0,0,1.365-1.756c-.031-.2-.061-.381-.094-.593a61.764,61.764,0,0,0-4.47-15.99c-.146-.283-2.226-4.048-9.13-2.062A17.021,17.021,0,0,0,6.555,6.2c-3.877,3.983-5.507,9.349-4.848,15.947Z" style="fill:none"/><g style="opacity:0.2"><path d="M21.405,29.749l3.374-3.025c.032-.028,2.262-2.012,1.766-4.593-.076-.394-.151-.85-.229-1.339a7.162,7.162,0,0,1-1.365,1.756l-3.432,3.077c-1.552.887-1.258,3.157-.818,4.737A2.89,2.89,0,0,1,21.405,29.749Z" style="fill:#00c0a5"/><path d="M78.294,62.675a4.276,4.276,0,0,0-.181-.536,9.594,9.594,0,0,1-1.1,1.825,25.867,25.867,0,0,1-5.325,5.325c-9.94,6.863-23.548,2.366-23.548,2.366-18.814-7.81-31.949-23.666-31.949-23.666C7.369,37.288,3.526,28.633,1.854,23.307c.555,3.4,3.19,14.262,15.3,28.943.129.156,13.222,15.782,31.614,23.428.655.208,13.535,4.144,22.832-2.275a25.2,25.2,0,0,0,5.109-5.1l.055-.076C76.783,68.2,78.99,65.444,78.294,62.675Z" style="fill:#00c0a5"/></g><path d="M79.818,62.3c-.571-2.293-2.448-4.119-5.6-5.435L61.34,51.906c-2.227-.992-6.95-1.845-9.111,1.929l-2.8,3.268c-.082.1-2.072,2.37-6.665-.284-.156-.1-15.6-9.943-20.412-20.367-.506-1.122-1.606-4.519-.089-5.386l.072-.042L25.816,27.9c.12-.1,2.938-2.585,2.269-6.067-.1-.525-.2-1.153-.314-1.879A63.174,63.174,0,0,0,23.183,3.567l-.012-.025c-.1-.218-2.629-5.307-11.008-2.894a18.186,18.186,0,0,0-6.678,4.4C2.563,8.024-.735,13.431.145,22.279c.042.766.943,12.958,15.8,30.97.132.161,13.475,16.1,32.252,23.891l.055.02a35.422,35.422,0,0,0,10.21,1.5,24.519,24.519,0,0,0,14.051-3.985,26.483,26.483,0,0,0,5.5-5.5C78.324,68.78,80.659,65.677,79.818,62.3ZM6.555,6.2a17.021,17.021,0,0,1,6.067-4.048c6.9-1.986,8.984,1.779,9.13,2.062a61.764,61.764,0,0,1,4.47,15.99c.033.212.063.4.094.593.078.489.153.945.229,1.339.5,2.581-1.734,4.565-1.766,4.593l-3.374,3.025a2.89,2.89,0,0,0-.7.613c-.6.713-1,1.9-.652,3.887a13.35,13.35,0,0,0,.874,2.854c2.109,4.571,6.29,9.5,12.425,14.664a88.082,88.082,0,0,0,8.6,6.394c2.988,1.727,5.156,1.654,6.448,1.289a4.518,4.518,0,0,0,2.231-1.339l2.892-3.373.039-.07c1.985-3.574,6.949-1.415,7.158-1.322l12.916,4.978c2.373.992,3.871,2.274,4.479,3.815a4.276,4.276,0,0,1,.181.536c.7,2.769-1.511,5.525-1.532,5.552l-.055.076A25.2,25.2,0,0,1,71.6,73.4c-9.3,6.419-22.177,2.483-22.832,2.275C30.374,68.032,17.281,52.406,17.152,52.25,5.044,37.569,2.409,26.7,1.854,23.307c-.116-.712-.143-1.1-.144-1.125l0-.04C1.048,15.544,2.678,10.178,6.555,6.2Z" style="fill:#00c0a5"/></svg>