<svg xmlns="http://www.w3.org/2000/svg" viewBox="0 0 294.065 302.777"><title>weather</title><circle cx="184.885" cy="113.061" r="54.496" style="fill:none;stroke:#5fe1cf;stroke-miterlimit:10;stroke-width:5px"/><line x1="66.205" y1="239.987" x2="66.205" y2="281.285" style="fill:none;stroke:#5fe1cf;stroke-linecap:round;stroke-linejoin:round;stroke-width:5px"/><line x1="138.205" y1="239.987" x2="138.205" y2="281.285" style="fill:none;stroke:#5fe1cf;stroke-linecap:round;stroke-linejoin:round;stroke-width:5px"/><line x1="209.205" y1="239.987" x2="209.205" y2="281.285" style="fill:none;stroke:#5fe1cf;stroke-linecap:round;stroke-linejoin:round;stroke-width:5px"/><line x1="184.26" y1="2.5" x2="184.26" y2="43.799" style="fill:none;stroke:#5fe1cf;stroke-linecap:round;stroke-linejoin:round;stroke-width:5px"/><line x1="291.565" y1="109.366" x2="250.267" y2="109.366" style="fill:none;stroke:#5fe1cf;stroke-linecap:round;stroke-linejoin:round;stroke-width:5px"/><line x1="260.224" y1="32.961" x2="231.022" y2="62.164" style="fill:none;stroke:#5fe1cf;stroke-linecap:round;stroke-linejoin:round;stroke-width:5px"/><line x1="101.982" y1="258.978" x2="101.982" y2="300.277" style="fill:none;stroke:#5fe1cf;stroke-linecap:round;stroke-linejoin:round;stroke-width:5px"/><line x1="173.982" y1="258.978" x2="173.982" y2="300.277" style="fill:none;stroke:#5fe1cf;stroke-linecap:round;stroke-linejoin:round;stroke-width:5px"/><path d="M279.97,177.288a50.471,50.471,0,0,0-38.181-48.944A49.194,49.194,0,0,0,174.755,92.1,80.069,80.069,0,0,0,28.132,130.543,52.2,52.2,0,0,0,53,227.655v.078H229.051c.155,0,.307.011.463.011s.308-.01.463-.011h.568v-.015A50.446,50.446,0,0,0,279.97,177.288Z" style="fill:#edf7f5;stroke:#5fe1cf;stroke-miterlimit:10;stroke-width:5px"/><path d="M165.24,80.344c-.071-.073-.144-.145-.216-.217.054.079.11.157.164.237Z" style="fill:#5fe1cf;opacity:0.2"/><path d="M263.4,139.911a50.439,50.439,0,0,1-42.419,76.074V216h-.568c-.155,0-.307.012-.463.012s-.308-.011-.463-.012H43.432v-.078A52.023,52.023,0,0,1,9.855,202.206,52.2,52.2,0,0,0,53,227.655v.078H229.05c.155,0,.308.011.464.011s.308-.01.463-.011h.568v-.015A50.438,50.438,0,0,0,263.4,139.911Z" style="fill:#5fe1cf;opacity:0.2"/></svg>