<svg xmlns="http://www.w3.org/2000/svg" viewBox="0 0 24 24">
  <title>helpful-hassle-free-home</title>
  <path d="M17.3,3.275h-12a.959.959,0,0,0-.957.959V19.06a.959.959,0,0,0,.957.958h8.726l-.32-.405a3.474,3.474,0,0,1-.409-.658l-.068-.143H5.61a.1.1,0,0,1-.105-.1V4.583a.105.105,0,0,1,.105-.1H16.977a.1.1,0,0,1,.105.1v9.492l.188.047a3.571,3.571,0,0,1,.626.226l.357.169V4.234A.959.959,0,0,0,17.3,3.275Z" style="fill:#ccc"/>
  <path d="M15.531,12.353H7.763a.353.353,0,0,0,0,.706h7.768a.353.353,0,0,0,0-.706Z" style="fill:#ccc"/>
  <path d="M14.218,14.485a.385.385,0,0,0-.1-.013H8.467a.353.353,0,0,0,0,.706H13.5A3.7,3.7,0,0,1,14.218,14.485Z" style="fill:#ccc"/>
  <path d="M7.41,16.944a.352.352,0,0,0,.353.353H12.71a3.742,3.742,0,0,1,.1-.707H7.763A.354.354,0,0,0,7.41,16.944Z" style="fill:#ccc"/>
  <path d="M16.414,14.472a3,3,0,1,0,3,3A3,3,0,0,0,16.414,14.472ZM17.653,18H16.234a.351.351,0,0,1-.35-.353h0V15.885a.354.354,0,1,1,.707,0V17.3h1.062a.353.353,0,0,1,0,.706Z" style="fill:#0dd1ac"/>
  <path d="M13.7,6.508a.719.719,0,0,0-1.019,0L11.143,8.043l-.507-.507A.723.723,0,1,0,9.613,8.559l1.014,1.014,0,0,0,0a.719.719,0,0,0,1.019,0l2.055-2.055A.725.725,0,0,0,13.7,6.508Z" style="fill:#0dd1ac"/>
</svg>