<svg xmlns="http://www.w3.org/2000/svg" viewBox="0 0 24 24">
  <title>house-home</title>
  <path d="M21.566,11.129l-1.9-4.737a.5.5,0,0,0-.464-.314H8.723V4.488a.5.5,0,0,0-.5-.5H6.85a.5.5,0,0,0-.5.5v1.59H4.728a.5.5,0,0,0-.466.32l-1.83,4.737a.5.5,0,0,0,.466.681h.5v7.2a1,1,0,0,0,1,1H19.61a1,1,0,0,0,1-1v-7.2H21.1A.5.5,0,0,0,21.566,11.129ZM7.09,4.788a.2.2,0,0,1,.2-.2h.524a.2.2,0,0,1,.2.2v1.29H7.09Zm3.581,14.224V14.286h2.658v4.726Zm8.939-.5a.5.5,0,0,1-.5.5H14.4V14.218h-.013c0-.011.013-.02.013-.032v-.868a.1.1,0,0,0-.1-.1H9.7a.1.1,0,0,0-.1.1v.868c0,.012.009.021.013.032H9.6v4.794H4.9a.5.5,0,0,1-.5-.5v-6.7H7.787L11.465,9.57a1,1,0,0,1,1.039,0l3.716,2.248h3.39Zm.456-7.7H16.5L12.241,8.241a.5.5,0,0,0-.52,0L7.506,10.816H3.919a.2.2,0,0,1-.187-.272L5.021,7.206a.2.2,0,0,1,.187-.128H18.726a.2.2,0,0,1,.186.125l1.34,3.338A.2.2,0,0,1,20.066,10.816Z"/>
</svg>