<svg xmlns="http://www.w3.org/2000/svg" viewBox="0 0 24 24">
  <title>refinance-home</title>
  <path d="M12.3,13.966a1.47,1.47,0,0,1-.774.1,3.447,3.447,0,0,1-1.179-.355c-.218-.116-.281-.085-.356.151-.067.2-.121.409-.178.614-.076.276-.049.342.227.476a3.639,3.639,0,0,0,1.063.307c.285.044.294.058.3.356,0,.133,0,.271,0,.4a.24.24,0,0,0,.258.271c.2,0,.4,0,.6,0a.229.229,0,0,0,.249-.258c0-.187.009-.369,0-.556a.293.293,0,0,1,.254-.334,2.032,2.032,0,0,0,1.045-.672,1.885,1.885,0,0,0-.609-2.865,10.108,10.108,0,0,0-1.05-.476,2.355,2.355,0,0,1-.574-.325.5.5,0,0,1,.124-.895,1.031,1.031,0,0,1,.356-.071,2.643,2.643,0,0,1,1.326.263c.209.1.276.071.347-.147s.138-.467.205-.7a.245.245,0,0,0-.16-.324,3.23,3.23,0,0,0-.837-.25c-.382-.057-.382-.057-.382-.44-.005-.539-.005-.539-.543-.539-.08,0-.156,0-.236,0-.254.009-.3.054-.3.307v.343c0,.338,0,.334-.324.45a1.8,1.8,0,0,0-1.318,1.668,1.706,1.706,0,0,0,.966,1.633A9.677,9.677,0,0,0,12,12.649a1.758,1.758,0,0,1,.44.258A.6.6,0,0,1,12.3,13.966Z"/>
  <path d="M5.079,13.563A7.081,7.081,0,0,1,12,4.9a7.026,7.026,0,0,1,4.755,1.856h-.239a.612.612,0,0,0,0,1.224h1.827a.613.613,0,0,0,.612-.612V5.541a.612.612,0,0,0-1.224,0v.753A8,8,0,0,0,12,3.9,8.071,8.071,0,0,0,4.146,13.949l.029.117.922-.424Z"/>
  <path d="M19.834,9.971l-.03-.116-.922.424.019.079A7.076,7.076,0,0,1,12,19.1a7.024,7.024,0,0,1-4.755-1.857h.239a.612.612,0,1,0,0-1.223H5.657a.613.613,0,0,0-.612.612v1.827a.612.612,0,0,0,1.224,0V17.7A8,8,0,0,0,12,20.1,8.074,8.074,0,0,0,19.834,9.971Z"/>
</svg>