<svg xmlns="http://www.w3.org/2000/svg" viewBox="0 0 24 24">
  <title>step-by-step-home</title>
  <path d="M16.149,5.085H17.53a1.106,1.106,0,0,1,1.108,1.108V20.3A1.108,1.108,0,0,1,17.531,21.4H6.469A1.105,1.105,0,0,1,5.362,20.3V6.193A1.106,1.106,0,0,1,6.47,5.085H7.851V4.809A1.1,1.1,0,0,1,8.957,3.7h1.285a2.5,2.5,0,0,1,.209-.332,1.937,1.937,0,0,1,3.1,0,2.5,2.5,0,0,1,.209.332h1.285a1.105,1.105,0,0,1,1.106,1.107Zm-8.3,1.107H6.468V20.3l11.063,0,0-14.1H16.149v.278a1.106,1.106,0,0,1-1.106,1.1H8.957a1.106,1.106,0,0,1-1.106-1.1V6.192Zm7.192.276V4.809h-1.66a.554.554,0,0,1-.537-.419,1.126,1.126,0,0,0-.182-.356.83.83,0,0,0-1.328,0,1.126,1.126,0,0,0-.182.356.554.554,0,0,1-.537.419H8.957V6.468Zm.55,3.319a.554.554,0,0,1,0,1.107H12a.554.554,0,0,1,0-1.107Zm0,3.319a.554.554,0,1,1,0,1.107H12a.554.554,0,0,1,0-1.107Zm0,3.32a.553.553,0,1,1,0,1.106H12a.553.553,0,0,1,0-1.106Z" style="fill:#ccc"/>
  <path d="M8.6,11.266h0v0a.441.441,0,0,0,.624,0l1.259-1.259a.443.443,0,0,0-.627-.627l-.942.943-.311-.311a.443.443,0,1,0-.627.627Z" style="fill:#0dd1ac"/>
  <path d="M9.863,12.686l-.942.943-.311-.311a.443.443,0,1,0-.627.627l.621.621h0v0a.441.441,0,0,0,.624,0l1.259-1.259a.443.443,0,0,0-.627-.627Z" style="fill:#0dd1ac"/>
  <path d="M9.863,16.086l-.942.943-.311-.311a.443.443,0,1,0-.627.627l.621.621h0v0a.441.441,0,0,0,.624,0l1.259-1.259a.443.443,0,0,0-.627-.627Z" style="fill:#0dd1ac"/>
</svg>