<svg xmlns="http://www.w3.org/2000/svg" viewBox="0 0 24 24">
  <title>transparent-convenient-home</title>
  <path d="M20.256,11.894a1.308,1.308,0,0,0-1.31-1.075s-2.177-.022-2.9-.008a3.682,3.682,0,0,1-1.212-.074.3.3,0,0,1-.125-.371,9.934,9.934,0,0,1,.775-1.945c.353-.725.452-3.141-.128-3.54a1.287,1.287,0,0,0-1.778.32l-.461,1.651a5.824,5.824,0,0,1-.841,1.777L11.406,9.87c-.185.264-.915,1.111-1.326,1.583a1.162,1.162,0,0,0-.285.758L9.78,18.093a.785.785,0,0,0,.569.755l5.672.493.86,0a1.347,1.347,0,0,0,1.306-.91,1.21,1.21,0,0,0-.036-.812,1.264,1.264,0,0,0,.98-1.222,1.251,1.251,0,0,0-.413-.929,1.269,1.269,0,0,0,1.033-1.237,1.248,1.248,0,0,0-.421-.935,1.26,1.26,0,0,0,.926-1.4" style="fill:none;stroke:#ccc;stroke-linejoin:round;stroke-width:0.9093228578567505px"/>
  <path d="M8.134,10.961l-3.889-.01a.486.486,0,0,0-.5.478l-.02,7.423a.486.486,0,0,0,.492.481l3.889.01a.487.487,0,0,0,.495-.478l.02-7.423A.487.487,0,0,0,8.134,10.961ZM6.877,18.294a.7.7,0,1,1,.7-.7A.7.7,0,0,1,6.877,18.294Z" style="fill:#0dd1ac"/>
</svg>