<svg xmlns="http://www.w3.org/2000/svg" viewBox="0 0 280 100"><title>Adelaide Bank</title><rect x="73.186" y="71.085" width="3.525" height="12.426" style="fill:#50c8e8"/><rect x="73.091" y="66.582" width="3.71" height="3.132" style="fill:#50c8e8"/><path d="M84.13,67.906H80.605v3.179H79.121V74.1h1.484v5.886c0,2.874,1.468,3.732,3.619,3.727A5.218,5.218,0,0,0,87.007,83V80.173a3.572,3.572,0,0,1-1.739.439c-.782,0-1.138-.393-1.138-1.2V74.1h2.923V71.085H84.13Z" style="fill:#50c8e8"/><path d="M93.614,67.28h-3.75v3.71H91.3c.116,1.32-.667,2.132-2.272,2.3l.3,1.459a3.8,3.8,0,0,0,4.281-4.336Z" style="fill:#50c8e8"/><path d="M101.523,76C100.18,75.539,99,75.21,99,74.517v-.049c0-.483.44-.856,1.3-.856a7.386,7.386,0,0,1,3.363,1.16l1.348-2.426a8.606,8.606,0,0,0-4.638-1.44,3.233,3.233,0,0,0-.394-.028h0a4.062,4.062,0,0,0-4.152,3.972V74.9c0,2.411,1.971,3.223,3.71,3.735,1.368.41,2.576.664,2.576,1.427v.048c0,.559-.466.928-1.484.928A7.021,7.021,0,0,1,96.7,79.549l-1.507,2.319a8.726,8.726,0,0,0,5.335,1.887c2.692,0,4.754-1.254,4.754-4.014v-.053C105.28,77.415,103.264,76.58,101.523,76Z" style="fill:#50c8e8"/><path d="M122.157,70.851a4.564,4.564,0,0,0-3.873,2.017V71.085h-3.521v16.13h3.521V81.882a4.768,4.768,0,0,0,3.873,1.859c2.945,0,5.658-2.269,5.658-6.422v-.046a4.09,4.09,0,0,0,.027-.413A5.85,5.85,0,0,0,122.157,70.851Zm2.137,6.43v.047a3.051,3.051,0,1,1-6.053,0v-.047a3.05,3.05,0,1,1,6.053,0Z" style="fill:#50c8e8"/><path d="M135.958,70.858h-.248a6.186,6.186,0,0,0-5.9,6.463v.044l-.006.009a6.567,6.567,0,0,0,11.572,4.1l-2.018-1.784a4.063,4.063,0,0,1-3.014,1.276,2.886,2.886,0,0,1-3.033-2.437h8.65c.023-.323.046-.648.046-.926C142.01,74.08,140.109,70.858,135.958,70.858Zm-2.69,5.462a2.771,2.771,0,0,1,2.69-2.644,2.666,2.666,0,0,1,2.62,2.648Z" style="fill:#50c8e8"/><path d="M148.156,73.582v-2.5h-3.527V83.507h3.534V78.915c0-2.968,1.437-4.382,3.78-4.382h.178V70.847A3.836,3.836,0,0,0,148.156,73.582Z" style="fill:#50c8e8"/><path d="M159.688,76.01c-1.345-.462-2.528-.791-2.528-1.484v-.049c0-.483.441-.856,1.3-.856a7.382,7.382,0,0,1,3.362,1.16l1.345-2.435a8.573,8.573,0,0,0-4.638-1.44,3.3,3.3,0,0,0-.4-.028h0a4.062,4.062,0,0,0-4.149,3.972V74.9c0,2.411,1.97,3.223,3.711,3.735,1.366.41,2.572.664,2.572,1.427v.048c0,.559-.464.928-1.484.928a7.032,7.032,0,0,1-3.925-1.484l-1.507,2.319a8.731,8.731,0,0,0,5.341,1.887c2.69,0,4.754-1.254,4.754-4.014V79.7C163.445,77.424,161.429,76.589,159.688,76.01Z" style="fill:#50c8e8"/><path d="M172.116,70.847h-.179a6.526,6.526,0,0,0-6.577,6.474v.044h0a6.73,6.73,0,0,0,13.45-.044v-.255A6.462,6.462,0,0,0,172.116,70.847Zm3.218,6.518a1.738,1.738,0,0,1,0,.25,3.188,3.188,0,0,1-3.231,3.141H172a3.3,3.3,0,0,1-3.168-3.43v-.3a3.186,3.186,0,0,1,3.229-3.136h.1a3.305,3.305,0,0,1,3.168,3.431Z" style="fill:#50c8e8"/><path d="M188.527,70.851a4.4,4.4,0,0,0-3.641,1.992V71.085h-3.525l-.009,12.425h3.527V76.579c0-1.67.847-2.526,2.2-2.526s2.14.856,2.14,2.526V83.5h3.527V75.46a4.144,4.144,0,0,0,.032-.713A4.079,4.079,0,0,0,188.527,70.851Z" style="fill:#50c8e8"/><path d="M200.935,70.944a10.991,10.991,0,0,0-4.817,1l.883,2.69a9.114,9.114,0,0,1,3.431-.673c1.771,0,2.675.812,2.675,2.271v.211a8.917,8.917,0,0,0-3.032-.511c-2.945,0-5.009,1.251-5.009,3.966v.044a3.425,3.425,0,0,0,.021.379,3.846,3.846,0,0,0,4.223,3.426,4.77,4.77,0,0,0,3.756-1.578V83.51h3.409V76.3a5.4,5.4,0,0,0-1.345-3.964A5.73,5.73,0,0,0,200.935,70.944Zm2.224,8.184c0,1.275-1.113,2.181-2.759,2.181-1.137,0-1.925-.556-1.925-1.509v-.044c0-1.115.927-1.718,2.435-1.718a5.428,5.428,0,0,1,2.249.467Z" style="fill:#50c8e8"/><rect x="209.699" y="66.582" width="3.525" height="16.928" style="fill:#50c8e8"/><rect x="60.416" y="5" width="0.563" height="90" style="fill:#003767"/><polygon points="17.142 56.133 38.816 40.362 17.142 24.627 17.142 28.546 33.409 40.362 17.142 52.149 17.142 56.133" style="fill:#003767"/><polygon points="16.786 21.086 43.849 40.362 16.786 59.797 16.786 63.773 49.263 40.362 16.786 17.166 16.786 21.086" style="fill:#003767"/><polygon points="17.142 48.216 27.991 40.362 17.142 32.444 17.142 36.432 22.574 40.362 17.142 44.286 17.142 48.216" style="fill:#003767"/><path d="M79.294,27.2l-7.849,26.16h5.3l1.3-5.371h7.331l1.344,5.362h5.834l-7.452-26.16Zm-.163,16.268L81.682,32.8,84.31,43.469Z" style="fill:#003767"/><path d="M102.517,35.783a3.962,3.962,0,0,0-3.883-2.041c-6.394,0-6.394,8.513-6.394,10.04,0,3.847.985,9.844,6.158,9.844a4.388,4.388,0,0,0,4.433-3.449v3.175H107.8V27.192h-5.287Zm-2.4,14.131c-2.319,0-2.319-3.219-2.319-6.985,0-3.1.277-5.608,2.355-5.608,2.353,0,2.353,3.091,2.353,4.816l0,3.421C102.513,46.971,102.513,49.914,100.121,49.914Z" style="fill:#003767"/><path d="M117.815,33.585a7.316,7.316,0,0,0-6.565,3.684,14.928,14.928,0,0,0-1.45,6.666c0,5.145,2.118,9.811,8.04,9.811,6.236,0,7.3-4.943,7.688-6.748l-4.816-.312c-.157,1.257-.428,3.334-2.747,3.334-2.667,0-2.628-2.824-2.589-5.452l10.166-.007a14.99,14.99,0,0,0-1.412-7.453A6.935,6.935,0,0,0,117.815,33.585Zm2.62,7.885h-5.019c.039-1.374.078-4.315,2.509-4.315C120.555,37.155,120.474,40.412,120.435,41.47Z" style="fill:#003767"/><rect x="127.497" y="27.192" width="5.375" height="26.159" style="fill:#003767"/><path d="M150.392,49.037V41.35c0-2.351-.071-4.548-1.248-5.724a7.561,7.561,0,0,0-5.61-2.041,9.187,9.187,0,0,0-4.588,1.06,6.183,6.183,0,0,0-3.211,4.98l5.055.511c.163-1.531.516-2.981,2.319-2.981,1.923,0,1.923,1.764,1.923,3.452v.743c-5.765.323-9.962,1.727-9.962,7.1a4.557,4.557,0,0,0-.018.809,4.79,4.79,0,0,0,5.076,4.485,5.644,5.644,0,0,0,5.334-3.375,8.714,8.714,0,0,0,.275,2.981h4.969A13,13,0,0,1,150.392,49.037Zm-6.188.08a2.08,2.08,0,0,1-1.762,1.06c-1.3,0-1.805-1.06-1.805-2.434,0-2.508,1.3-3.255,4.393-3.646v.94A6.785,6.785,0,0,1,144.2,49.117Z" style="fill:#003767"/><rect x="153.229" y="34.017" width="5.375" height="19.335" style="fill:#003767"/><rect x="153.189" y="27.035" width="5.453" height="5.334" style="fill:#003767"/><path d="M170.808,35.783a3.959,3.959,0,0,0-3.881-2.041c-6.392,0-6.392,8.513-6.392,10.04,0,3.847.983,9.844,6.156,9.844a4.387,4.387,0,0,0,4.424-3.449v3.175H176.1V27.192h-5.289Zm-2.4,14.131c-2.319,0-2.319-3.219-2.319-6.985,0-3.1.275-5.608,2.355-5.608,2.351,0,2.351,3.091,2.351,4.816l0,3.421C170.8,46.971,170.8,49.914,168.407,49.914Z" style="fill:#003767"/><path d="M186.09,33.582a7.313,7.313,0,0,0-6.548,3.687,14.945,14.945,0,0,0-1.454,6.666c0,5.145,2.119,9.811,8.041,9.811,6.236,0,7.3-4.943,7.688-6.748L189,46.686c-.157,1.257-.426,3.334-2.745,3.334-2.665,0-2.626-2.824-2.589-5.452l10.15-.007a14.98,14.98,0,0,0-1.411-7.453A6.942,6.942,0,0,0,186.09,33.582Zm2.636,7.888h-5.019c.041-1.374.08-4.315,2.511-4.315C188.844,37.155,188.769,40.412,188.726,41.47Z" style="fill:#003767"/><path d="M207.635,39.468a5.677,5.677,0,0,0,4-5.8,7.168,7.168,0,0,0-1.572-4.588c-1.6-1.884-4.039-1.884-6.432-1.884h-7.1v26.16h7.3c6.55,0,8.707-3.175,8.707-7.294A6.151,6.151,0,0,0,207.635,39.468Zm-4-9.648c1.453,0,4.707,0,4.707,4.158,0,4.119-3.059,4.315-5.139,4.315h-3.491l0-8.473Zm.119,20.9h-4.042l-.005-9.8h3.414a6.707,6.707,0,0,1,4.281.983,4.7,4.7,0,0,1,1.843,4C209.244,49.392,207.007,50.722,203.753,50.722Z" style="fill:#003767"/><path d="M228.778,47.157V41.47c0-2.2,0-4.551-1.177-5.962a6.424,6.424,0,0,0-5.1-2.04,8.172,8.172,0,0,0-3.728.824,5.565,5.565,0,0,0-3.139,4.158l2.816.469a3.664,3.664,0,0,1,3.843-3.057c3.61,0,3.61,3.41,3.61,4.784v.824a20.517,20.517,0,0,0-2.551-.157,8.743,8.743,0,0,0-7.021,2.469,6.837,6.837,0,0,0-1.448,4.318,5.528,5.528,0,0,0,0,.7h0a5.4,5.4,0,0,0,5.692,5.1,5.933,5.933,0,0,0,5.573-3.96,20.363,20.363,0,0,0,.231,3.409h2.753A26.62,26.62,0,0,1,228.778,47.157Zm-3.694,1.88a4.45,4.45,0,0,1-3.962,2.474,2.953,2.953,0,0,1-3.211-3.334c0-3.14,1.805-4.67,5.767-4.67a10.626,10.626,0,0,1,2.228.237A8.947,8.947,0,0,1,225.084,49.037Z" style="fill:#003767"/><path d="M240.435,33.468A5.089,5.089,0,0,0,235.453,37V34.017h-2.676l.016,19.335h2.865V42.92c0-5.453,1.838-7.058,4.157-7.058,2.982,0,2.982,2.358,2.982,5.569V53.346h2.854V41.038a12.543,12.543,0,0,0-.589-4.982A4.843,4.843,0,0,0,240.435,33.468Z" style="fill:#003767"/><polygon points="257.487 40.844 262.553 34.017 259.413 34.017 252.512 43.626 252.512 27.192 249.638 27.192 249.638 53.355 252.512 53.355 252.512 47.276 255.567 43.077 260.118 53.352 263.214 53.352 257.487 40.844" style="fill:#003767"/></svg>