<svg xmlns="http://www.w3.org/2000/svg" viewBox="0 0 167.244 80.333"><title>Adelaide Bank</title><line x1="38.68" y1="15.2" x2="38.68" y2="65.654" style="fill:none;stroke:#003767;stroke-width:0.5631809999999999px"/><polygon points="14.263 26.203 14.263 28.4 23.382 35.024 14.263 41.632 14.263 43.865 26.413 35.024 14.263 26.203" style="fill:#003767"/><polygon points="14.063 22.02 14.063 24.218 29.235 35.024 14.063 45.919 14.063 48.148 32.27 35.024 14.063 22.02" style="fill:#003767"/><polygon points="14.263 37.224 14.263 39.427 20.345 35.024 14.263 30.585 14.263 32.821 17.308 35.024 14.263 37.224" style="fill:#003767"/><path d="M45.628,49.723h2.08v1.756h-2.08Zm.053,2.524h1.976v6.966H45.681Z" style="fill:#50c8e8"/><path d="M49.84,57.239v-3.3h-.832V52.247h.832V50.465h1.976v1.782h1.639v1.689H51.816v2.977c0,.455.2.675.638.675a2,2,0,0,0,.975-.246v1.586a2.925,2.925,0,0,1-1.56.4C50.659,59.331,49.84,58.85,49.84,57.239Z" style="fill:#50c8e8"/><path d="M54.559,53.481c.9-.092,1.339-.547,1.274-1.287h-.806v-2.08h2.106v1.754a2.131,2.131,0,0,1-2.4,2.431Z" style="fill:#50c8e8"/><path d="M58.017,58.292l.845-1.3a3.933,3.933,0,0,0,2.2.832c.571,0,.832-.207.832-.52v-.027c0-.428-.677-.57-1.444-.805-.975-.287-2.08-.742-2.08-2.094v-.025a2.278,2.278,0,0,1,2.549-2.211,4.82,4.82,0,0,1,2.6.807l-.755,1.365a4.14,4.14,0,0,0-1.885-.65c-.481,0-.728.209-.728.48v.027c0,.389.664.573,1.417.832.976.325,2.106.793,2.106,2.067v.025c0,1.547-1.156,2.25-2.665,2.25A4.892,4.892,0,0,1,58.017,58.292Z" style="fill:#50c8e8"/><path d="M68.989,52.247h1.976v1a2.557,2.557,0,0,1,2.171-1.131,3.279,3.279,0,0,1,3.172,3.6v.026c0,2.328-1.521,3.6-3.172,3.6A2.671,2.671,0,0,1,70.965,58.3v2.99H68.989Zm5.343,3.5v-.026a1.71,1.71,0,1,0-3.393,0v.026a1.71,1.71,0,1,0,3.393,0Z" style="fill:#50c8e8"/><path d="M77.426,55.768v-.025a3.469,3.469,0,0,1,3.445-3.627c2.327,0,3.393,1.806,3.393,3.783,0,.156-.013.338-.026.519H79.389a1.617,1.617,0,0,0,1.7,1.366,2.28,2.28,0,0,0,1.69-.715l1.131,1a3.681,3.681,0,0,1-6.487-2.3Zm4.914-.584A1.494,1.494,0,0,0,80.871,53.7a1.554,1.554,0,0,0-1.508,1.482Z" style="fill:#50c8e8"/><path d="M85.732,52.247h1.977v1.4a2.151,2.151,0,0,1,2.223-1.533v2.066h-.1c-1.313,0-2.119.793-2.119,2.457v2.574H85.732Z" style="fill:#50c8e8"/><path d="M90.621,58.292l.845-1.3a3.938,3.938,0,0,0,2.2.832c.572,0,.832-.207.832-.52v-.027c0-.428-.676-.57-1.442-.805-.976-.287-2.08-.742-2.08-2.094v-.025a2.277,2.277,0,0,1,2.548-2.211,4.814,4.814,0,0,1,2.6.807l-.754,1.365a4.136,4.136,0,0,0-1.885-.65c-.481,0-.728.209-.728.48v.027c0,.389.663.573,1.417.832.976.325,2.106.793,2.106,2.067v.025c0,1.547-1.157,2.25-2.665,2.25A4.894,4.894,0,0,1,90.621,58.292Z" style="fill:#50c8e8"/><path d="M97.354,55.768v-.025a3.658,3.658,0,0,1,3.784-3.627,3.621,3.621,0,0,1,3.756,3.6v.026a3.773,3.773,0,0,1-7.54.025Zm5.591,0v-.025a1.851,1.851,0,0,0-1.834-1.924,1.784,1.784,0,0,0-1.806,1.9v.026a1.851,1.851,0,0,0,1.833,1.924A1.786,1.786,0,0,0,102.945,55.768Z" style="fill:#50c8e8"/><path d="M106.324,52.247H108.3v.986a2.467,2.467,0,0,1,2.041-1.117,2.285,2.285,0,0,1,2.366,2.588v4.509h-1.977V55.327c0-.936-.441-1.416-1.2-1.416s-1.234.48-1.234,1.416v3.886h-1.977Z" style="fill:#50c8e8"/><path d="M114.007,57.211v-.025c0-1.522,1.157-2.223,2.808-2.223a4.981,4.981,0,0,1,1.7.286v-.118c0-.818-.507-1.273-1.5-1.273a5.1,5.1,0,0,0-1.923.377l-.495-1.508a6.149,6.149,0,0,1,2.7-.559,3.214,3.214,0,0,1,2.352.78,3.03,3.03,0,0,1,.754,2.222v4.043h-1.911v-.754a2.676,2.676,0,0,1-2.106.885A2.156,2.156,0,0,1,114.007,57.211Zm4.537-.455v-.349a3.044,3.044,0,0,0-1.261-.262c-.845,0-1.365.338-1.365.963v.025c0,.534.442.846,1.079.846C117.92,57.979,118.544,57.471,118.544,56.756Z" style="fill:#50c8e8"/><path d="M122.21,49.723h1.976v9.49H122.21Z" style="fill:#50c8e8"/><path d="M52.356,27.641l4.178,14.665H53.258L52.51,39.3H48.4l-.726,3.011H44.705l4.4-14.665Zm-.439,9.125-1.473-5.98-1.43,5.98Z" style="fill:#003767"/><path d="M65.088,27.641V42.306H62.3v-1.78a2.46,2.46,0,0,1-2.485,1.934c-2.9,0-3.452-3.362-3.452-5.519,0-.856,0-5.628,3.584-5.628a2.222,2.222,0,0,1,2.177,1.144V27.641ZM62.12,36.019c0-.967,0-2.7-1.319-2.7-1.165,0-1.32,1.407-1.32,3.144,0,2.111,0,3.916,1.3,3.916,1.341,0,1.341-1.65,1.341-2.442Z" style="fill:#003767"/><path d="M69.333,37.382c-.022,1.473-.044,3.056,1.451,3.056,1.3,0,1.452-1.164,1.54-1.869l2.7.175c-.22,1.012-.814,3.783-4.31,3.783-3.32,0-4.507-2.616-4.507-5.5a8.373,8.373,0,0,1,.813-3.737A4.1,4.1,0,0,1,70.7,31.225a3.888,3.888,0,0,1,3.54,1.979,8.4,8.4,0,0,1,.792,4.178Zm2.836-1.737c.022-.593.067-2.419-1.407-2.419-1.363,0-1.385,1.649-1.407,2.419Z" style="fill:#003767"/><path d="M79.141,27.641V42.306H76.128V27.641Z" style="fill:#003767"/><path d="M80.746,34.611a3.468,3.468,0,0,1,1.8-2.792,5.155,5.155,0,0,1,2.572-.594,4.237,4.237,0,0,1,3.145,1.144c.66.659.7,1.891.7,3.209v4.309a7.256,7.256,0,0,0,.176,2.419H86.353a4.9,4.9,0,0,1-.154-1.671,3.165,3.165,0,0,1-2.99,1.892,2.686,2.686,0,0,1-2.837-2.968c0-3.013,2.353-3.8,5.585-3.981v-.417c0-.946,0-1.935-1.078-1.935-1.011,0-1.209.813-1.3,1.671Zm5.211,2.507c-1.736.219-2.463.638-2.463,2.044,0,.77.286,1.364,1.012,1.364a1.165,1.165,0,0,0,.988-.594,3.808,3.808,0,0,0,.463-2.287Z" style="fill:#003767"/><path d="M90.531,30.543v-2.99h3.057v2.99Zm3.035.924V42.306H90.553V31.467Z" style="fill:#003767"/><path d="M103.373,27.641V42.306H100.58v-1.78A2.459,2.459,0,0,1,98.1,42.46c-2.9,0-3.451-3.362-3.451-5.519,0-.856,0-5.628,3.583-5.628a2.219,2.219,0,0,1,2.176,1.144V27.641ZM100.4,36.019c0-.967,0-2.7-1.318-2.7-1.166,0-1.32,1.407-1.32,3.144,0,2.111,0,3.916,1.3,3.916,1.339,0,1.339-1.65,1.339-2.442Z" style="fill:#003767"/><path d="M107.617,37.382c-.021,1.473-.043,3.056,1.451,3.056,1.3,0,1.451-1.164,1.539-1.869l2.7.175c-.22,1.012-.814,3.783-4.31,3.783-3.32,0-4.508-2.616-4.508-5.5a8.38,8.38,0,0,1,.815-3.737,4.1,4.1,0,0,1,3.671-2.067,3.891,3.891,0,0,1,3.541,1.979,8.4,8.4,0,0,1,.791,4.178Zm2.836-1.737c.024-.593.066-2.419-1.406-2.419-1.363,0-1.385,1.649-1.408,2.419Z" style="fill:#003767"/><path d="M114.83,27.641h3.98c1.342,0,2.706,0,3.606,1.056a4.018,4.018,0,0,1,.881,2.572,3.182,3.182,0,0,1-2.244,3.254,3.448,3.448,0,0,1,2.748,3.694c0,2.309-1.209,4.089-4.881,4.089h-4.09Zm1.781,6.223h1.957c1.166,0,2.881-.11,2.881-2.419,0-2.331-1.824-2.331-2.639-2.331h-2.2Zm0,6.968h2.266c1.824,0,3.078-.746,3.078-2.7a2.633,2.633,0,0,0-1.033-2.242,3.757,3.757,0,0,0-2.4-.551h-1.914Z" style="fill:#003767"/><path d="M125.539,33.952a3.121,3.121,0,0,1,1.76-2.331,4.582,4.582,0,0,1,2.09-.462,3.6,3.6,0,0,1,2.857,1.144c.66.791.66,2.11.66,3.342v3.188a14.932,14.932,0,0,0,.2,3.473h-1.539a11.421,11.421,0,0,1-.13-1.911,3.324,3.324,0,0,1-3.124,2.22,3.029,3.029,0,0,1-3.187-3.253,3.832,3.832,0,0,1,.812-2.421,4.894,4.894,0,0,1,3.936-1.384,11.6,11.6,0,0,1,1.43.088v-.462c0-.77,0-2.682-2.024-2.682a2.053,2.053,0,0,0-2.154,1.714Zm4.508,2.835c-2.221,0-3.233.858-3.233,2.618a1.654,1.654,0,0,0,1.805,1.869,2.494,2.494,0,0,0,2.221-1.387,5.014,5.014,0,0,0,.461-2.967A5.924,5.924,0,0,0,130.047,36.787Z" style="fill:#003767"/><path d="M135.148,31.467h1.5v1.671a2.852,2.852,0,0,1,2.793-1.979,2.715,2.715,0,0,1,2.594,1.451,7.04,7.04,0,0,1,.33,2.793v6.9h-1.6V35.623c0-1.8,0-3.122-1.672-3.122-1.3,0-2.33.9-2.33,3.957v5.848h-1.606Z" style="fill:#003767"/><path d="M146.211,27.641v9.213l3.869-5.387h1.76L149,35.294l3.211,7.012h-1.736l-2.551-5.76L146.211,38.9v3.408H144.6V27.641Z" style="fill:#003767"/></svg>