<svg xmlns="http://www.w3.org/2000/svg" xmlns:xlink="http://www.w3.org/1999/xlink" viewBox="0 0 131.108 57.54"><defs><clipPath id="a"><path d="M85.756,48.727c-.842,1.817-.347,2.723,2.12,2.2,5.143-1.085,7.848-3.974,11.055-7.008.142-.135.25-.239.344-.332a34.331,34.331,0,0,0-.344,3.986c-.1,3,.625,7.238,1.958,9.291.59.858,1.471,1.027,2.661-.266a29.11,29.11,0,0,1-2.075-5.941,15.927,15.927,0,0,1-.067-6.851c-.572-.2-1.679-.558-1.769-.586l-.29-.093c-.243-.079-.486-.158-.738-.238-.4-.126-.788-.242-1.185-.351C92.9,47.434,89.348,48.655,85.756,48.727Z" style="fill:none"/></clipPath><linearGradient id="b" x1="2423.906" y1="-832.933" x2="2404.959" y2="-865.003" gradientTransform="matrix(0.354, 0, 0, -0.354, -757.998, -251.356)" gradientUnits="userSpaceOnUse"><stop offset="0" stop-color="#3263b7"/><stop offset="0.581" stop-color="#68cef6"/><stop offset="1" stop-color="#73d2f6"/></linearGradient><clipPath id="c"><path d="M82.589,32.085a23.975,23.975,0,0,0,10.92,4.384,10.467,10.467,0,0,0,6.476-1.3l.02-.014a4.158,4.158,0,0,0,.294-3.1c-.321,1.409-2.936,2.936-6.606,2.431a15.343,15.343,0,0,1-6.287-2.521,29.044,29.044,0,0,1-3.152-2.294,1.836,1.836,0,0,0-1.18-.462c-1.308,0-2.228,1.639-.485,2.88Z" style="fill:none"/></clipPath><linearGradient id="d" x1="2370.667" y1="-802.922" x2="2423.797" y2="-802.922" gradientTransform="matrix(0.354, 0, 0, -0.354, -757.998, -251.356)" gradientUnits="userSpaceOnUse"><stop offset="0" stop-color="#1c63b7"/><stop offset="1" stop-color="#59c9f4"/></linearGradient><clipPath id="e"><path d="M90.581,14.346c.01.049.053.254.09.414.209.821.477,2.456,1.2,4.785,1.491,1.811,3.066,3.709,3.771,4.572,5.238,6.4,5.269,9.424,4.359,11.033a5.1,5.1,0,0,0,1.956-2.2c.887-2.2-.842-5.261-3.012-8.109-2.1-2.755-7.823-9.816-8.368-10.49Z" style="fill:none"/></clipPath><linearGradient id="f" x1="2395.903" y1="-759.291" x2="2430.277" y2="-805.607" gradientTransform="matrix(0.354, 0, 0, -0.354, -757.998, -251.356)" gradientUnits="userSpaceOnUse"><stop offset="0" stop-color="#1c63b7"/><stop offset="0.484" stop-color="#5cbeee"/><stop offset="0.584" stop-color="#65ccf5"/><stop offset="0.605" stop-color="#66cef5"/><stop offset="0.608" stop-color="#66cef5"/><stop offset="0.609" stop-color="#66cef5"/><stop offset="1" stop-color="#1c63b8"/></linearGradient><clipPath id="g"><path d="M107.906,2.086c-.1,1.169-.35,3.629-.552,6.064-.1,1.222-.186,2.374-.221,3.231-.014.436-.019.8,0,1.054a1.652,1.652,0,0,0,.044.35.488.488,0,0,0,.333.4.513.513,0,0,0,.582-.289,2.19,2.19,0,0,0,.152-.356c.1-.273.215-.67.34-1.15.254-.939.55-2.208.846-3.509.555-2.46,1.109-5,1.254-5.592C111.009.785,110.3,0,109.511,0,108.781,0,107.986.679,107.906,2.086Z" style="fill:none"/></clipPath><linearGradient id="h" x1="2449.098" y1="-747.146" x2="2448.863" y2="-709.899" gradientTransform="matrix(0.354, 0, 0, -0.354, -757.998, -251.356)" gradientUnits="userSpaceOnUse"><stop offset="0" stop-color="#1c63b7"/><stop offset="1" stop-color="#0db1ef"/></linearGradient><clipPath id="i"><path d="M78.758,23.617a36.22,36.22,0,0,1,5.847,2.649,49.689,49.689,0,0,1,6.016,4.127c.464.361.667.5.915.28.394-.359-.338-1.209-.607-1.558-1.081-1.417-4.97-6.192-10.54-8.077a2.655,2.655,0,0,0-.81-.13C77.8,20.906,77,22.949,78.758,23.617Z" style="fill:none"/></clipPath><linearGradient id="j" x1="2392.861" y1="-800.885" x2="2366.468" y2="-766.179" xlink:href="#h"/><clipPath id="k"><path d="M100.93,4.683c-.209.716-.392,1.392-.556,2.061a20.522,20.522,0,0,1,2.337,9.112c-.031,4.882-2.15,14.225-5.2,14.215-1.175,0-2.736-3.216-4.163-6.552a43.946,43.946,0,0,1-2.677-8.759c-.037-.168-.045-.2-.09-.414,0,0-.051-.07-.1-.127a1.137,1.137,0,0,0-2.114.653c-.051,1.413,1.756,6.846,2.835,9.437,2.285,5.5,4.155,8.32,6.026,8.232,2.431-.117,4.734-3.546,6.134-7.775a32.2,32.2,0,0,0,1.877-9.106c0-4.249-1.5-7.709-3.941-12.453C101.291,3.294,101.1,4.117,100.93,4.683Z" style="fill:none"/></clipPath><linearGradient id="l" x1="2398.505" y1="-777.968" x2="2455.797" y2="-736.939" gradientTransform="matrix(0.354, 0, 0, -0.354, -757.998, -251.356)" gradientUnits="userSpaceOnUse"><stop offset="0" stop-color="#73d2f6"/><stop offset="0.06" stop-color="#7cd5f7"/><stop offset="0.079" stop-color="#7fd6f7"/><stop offset="0.092" stop-color="#7ed6f7"/><stop offset="0.284" stop-color="#4ac5f4"/><stop offset="0.326" stop-color="#18b5f1"/><stop offset="0.335" stop-color="#05afef"/><stop offset="0.337" stop-color="#01adef"/><stop offset="0.337" stop-color="#00adef"/><stop offset="0.416" stop-color="#59caf5"/><stop offset="0.436" stop-color="#58c8f4"/><stop offset="1" stop-color="#1c63b8"/></linearGradient><clipPath id="m"><path d="M113.313,30.2a40.845,40.845,0,0,0-6.984,1.877c-.111.8-.213,1.607-.3,2.437a60.43,60.43,0,0,1,6.02-1.922,43.009,43.009,0,0,1,16.713-.288c3,.522,2.951-1.954.856-2.384a32.676,32.676,0,0,0-7.525-.522A48.971,48.971,0,0,0,113.313,30.2Z" style="fill:none"/></clipPath><linearGradient id="n" x1="2439.437" y1="-794.103" x2="2507.029" y2="-807.668" xlink:href="#d"/><clipPath id="o"><path d="M121.411,2.514c-9.655,3.452-15.78,13.342-17.538,31.071-.122,1.386,1.193,1.231,2.152.927,1.815-16.7,8.355-27.042,17.136-29.882.248-.083.569-.149.74-.2-.1-1.461-.693-2.082-1.6-2.082A2.873,2.873,0,0,0,121.411,2.514Z" style="fill:none"/></clipPath><linearGradient id="p" x1="2428.367" y1="-802.009" x2="2487.784" y2="-715.6" gradientTransform="matrix(0.354, 0, 0, -0.354, -757.998, -251.356)" gradientUnits="userSpaceOnUse"><stop offset="0" stop-color="#59caf5"/><stop offset="0.519" stop-color="#79d4f7"/><stop offset="0.648" stop-color="#7ed6f7"/><stop offset="0.686" stop-color="#7fd6f7"/><stop offset="0.712" stop-color="#7ed6f7"/><stop offset="1" stop-color="#74d2f6"/></linearGradient><clipPath id="q"><path d="M98.938,3.321c-1.85,6.263-1.905,11.059-1.165,14.15,1.212,5.039,5.505,10.955,6.556,12.345.132-.915.279-1.811.436-2.681a33.926,33.926,0,0,1-4.73-9.7c-.925-3.852-.591-7.675.9-12.748.165-.571.364-1.4.37-1.476a1.338,1.338,0,0,0-1.181-.882A1.259,1.259,0,0,0,98.938,3.321Z" style="fill:none"/></clipPath><linearGradient id="r" x1="2450.795" y1="-766.722" x2="2392.938" y2="-734.747" gradientTransform="matrix(0.354, 0, 0, -0.354, -757.998, -251.356)" gradientUnits="userSpaceOnUse"><stop offset="0" stop-color="#1ea7e7"/><stop offset="0.208" stop-color="#5ecbf5"/><stop offset="0.481" stop-color="#79d4f7"/><stop offset="0.529" stop-color="#7ed6f7"/><stop offset="0.539" stop-color="#7fd6f7"/><stop offset="1" stop-color="#74d2f6"/></linearGradient><linearGradient id="s" x1="107.503" y1="37.317" x2="127.467" y2="37.317" gradientUnits="userSpaceOnUse"><stop offset="0" stop-color="#73d2f6"/><stop offset="1" stop-color="#73d2f6"/></linearGradient><clipPath id="t"><path d="M93.95,39.754c-3.586,2.492-6.937,6.217-8.194,8.973a13.425,13.425,0,0,0,2.907-.355,29.164,29.164,0,0,1,7.715-7.547c4.25-2.955,7.045-4.038,7.718,2.642.385,3.454.169,7.822-1.651,10.484.358.973.756,1.889,1.105,2.649,1.958-2.1,3.2-6.886,2.9-11.221-.423-3.634-.865-8.951-5.022-8.953C99.679,36.426,97.279,37.361,93.95,39.754Z" style="fill:none"/></clipPath><linearGradient id="u" x1="2405.288" y1="-870.445" x2="2429.779" y2="-803.247" gradientTransform="matrix(0.354, 0, 0, -0.354, -757.998, -251.356)" gradientUnits="userSpaceOnUse"><stop offset="0" stop-color="#1c63b7"/><stop offset="0.416" stop-color="#12a5e7"/><stop offset="1" stop-color="#66cef5"/></linearGradient><clipPath id="v"><path d="M80.593,40.935c-3.05,1.176-2.219,4.1,1.04,2.794a23.552,23.552,0,0,1,16.978-.838c6.425,2.055,10.227,3.373,15.494,9.154,1.584,1.854,3.406.959,2.839-1-.783-3.246-10.936-8.493-17.388-10.308a37.781,37.781,0,0,0-9.888-1.317A24.356,24.356,0,0,0,80.593,40.935Z" style="fill:none"/></clipPath><linearGradient id="w" x1="2363.25" y1="-844.864" x2="2483.129" y2="-837.272" gradientTransform="matrix(0.354, 0, 0, -0.354, -757.998, -251.356)" gradientUnits="userSpaceOnUse"><stop offset="0" stop-color="#1a8ad3"/><stop offset="0.487" stop-color="#7dd4f6"/><stop offset="0.515" stop-color="#7fd6f7"/><stop offset="0.519" stop-color="#7fd6f7"/><stop offset="0.521" stop-color="#7fd6f7"/><stop offset="0.523" stop-color="#7fd6f7"/><stop offset="1" stop-color="#67cef5"/></linearGradient><clipPath id="x"><path d="M107.478,38.386a2.513,2.513,0,0,0-.469,2.4,15.323,15.323,0,0,0,2.149,2.978c.141.162.642.793,1.321,1.649,3.139,1.783,5.672,3.716,6.34,5.268a17.021,17.021,0,0,0-2.346-4.053c-.472-.66-3.757-4.529-4.44-5.379-.977-1.218-2.142-2.825-.685-4.227A4.358,4.358,0,0,0,107.478,38.386Z" style="fill:none"/></clipPath><linearGradient id="y" x1="2445.569" y1="-818.462" x2="2471.711" y2="-854.746" gradientTransform="matrix(0.354, 0, 0, -0.354, -757.998, -251.356)" gradientUnits="userSpaceOnUse"><stop offset="0" stop-color="#1c63b7"/><stop offset="0.318" stop-color="#61c5f1"/><stop offset="0.376" stop-color="#65cdf5"/><stop offset="0.413" stop-color="#65ccf5"/><stop offset="1" stop-color="#1c63b8"/></linearGradient><clipPath id="z"><path d="M115.293,37.119c-.264.162-.217.471-.075.7a3.735,3.735,0,0,0,.315.406c.356.412.741.807,1.122,1.2,1.188,1.236,2.38,2.467,3.548,3.724,1.2,1.3,2.436,2.782,5.378,5.98,2.233,2.206,4.112-.028,1.919-2.214-1.8-1.865-4.28-4.222-6.254-5.914-1.153-.982-2.34-1.935-3.576-2.819-.4-.287-.805-.567-1.232-.817a4.119,4.119,0,0,0-.44-.234,1.173,1.173,0,0,0-.413-.09.573.573,0,0,0-.292.073Z" style="fill:none"/></clipPath><linearGradient id="aa" x1="2461.808" y1="-822.278" x2="2505.521" y2="-843.334" xlink:href="#h"/><clipPath id="ab"><path d="M110.069,36.754c.221,5.042,6.177,5.546,8.865,5.051-.6-.634-1.216-1.27-1.824-1.9-1.937.1-5.071-.694-5.194-3.574A12.7,12.7,0,0,0,110.069,36.754Z" style="fill:none"/></clipPath><linearGradient id="ac" x1="2448.504" y1="-813.242" x2="2476.351" y2="-829.916" gradientTransform="matrix(0.354, 0, 0, -0.354, -757.998, -251.356)" gradientUnits="userSpaceOnUse"><stop offset="0" stop-color="#1c63b7"/><stop offset="0.441" stop-color="#65ccf5"/><stop offset="0.446" stop-color="#66cef5"/><stop offset="1" stop-color="#01adef"/></linearGradient><clipPath id="ad"><path d="M119.4,39.488q.939.742,1.847,1.518l.155.134a27.768,27.768,0,0,0,6.143-3.318,29.077,29.077,0,0,0-3.075-.793A18.106,18.106,0,0,1,119.4,39.488Z" style="fill:none"/></clipPath><linearGradient id="ae" x1="2482.674" y1="-826.362" x2="2495.457" y2="-813.985" gradientTransform="matrix(0.354, 0, 0, -0.354, -757.998, -251.356)" gradientUnits="userSpaceOnUse"><stop offset="0" stop-color="#33bdf2"/><stop offset="0.26" stop-color="#66cef5"/><stop offset="0.307" stop-color="#65ccf5"/><stop offset="1" stop-color="#1c63b8"/></linearGradient><linearGradient id="af" x1="123.255" y1="17.254" x2="106.212" y2="17.254" gradientUnits="userSpaceOnUse"><stop offset="0" stop-color="#1c63b7"/><stop offset="0.709" stop-color="#63c9f3"/><stop offset="0.74" stop-color="#66cef5"/><stop offset="0.767" stop-color="#65cdf5"/><stop offset="1" stop-color="#1fa8e7"/></linearGradient><linearGradient id="ag" x1="109.911" y1="28.437" x2="128.727" y2="28.437" gradientUnits="userSpaceOnUse"><stop offset="0" stop-color="#1c63b7"/><stop offset="0.367" stop-color="#5bcaf5"/><stop offset="1" stop-color="#73d2f6"/></linearGradient></defs><title>AMP</title><path d="M63.256,37.259c.858.029,2.234.057,3.6.057,3.856,0,6.261-2.093,6.261-5.457,0-3.729-3.186-5.393-6.336-5.393H63.256Zm3.549,12.4H56.679V46.7H59.3a.772.772,0,0,0,.743-.745l-.008-19.493H56.679V23.508h9.945c5.714,0,9.712,3.416,9.712,8.311,0,5.131-3.757,8.454-9.556,8.454-1.264,0-2.65-.028-3.526-.054v5.74a.736.736,0,0,0,.731.741h2.822ZM9.365,37.739h7.764L13.26,27.258ZM55.27,49.656H45.45V46.7h3.266l-.595-16.88L40.394,46.41h-1.5L31.165,29.824,30.574,46.7h3.264v2.952h-16.1V46.7h2.7L18.2,40.654H8.284L6.045,46.7h2.82v2.952H0V46.7H2.035a1.111,1.111,0,0,0,.919-.745c.134-.351,7.379-19.493,7.379-19.493H7.668V23.508H13.26a3.02,3.02,0,0,1,2.749,2.266s7.534,19.955,7.641,20.185a1.078,1.078,0,0,0,.924.745h2.182a.753.753,0,0,0,.744-.745c.02-.335.781-17.319.88-19.493H24.935V23.508h5.01c1.22,0,1.971.7,2.679,2.266S39.685,41.2,39.685,41.2s6.448-14.011,7.095-15.43C47.5,24.2,48.121,23.5,49.344,23.5H54.4v2.958H50.949l.851,19.5a.818.818,0,0,0,.744.749h2.725Z" style="fill:#1c2a5b"/><g style="clip-path:url(#a)"><path d="M85.756,48.727c-.842,1.817-.347,2.723,2.12,2.2,5.143-1.085,7.848-3.974,11.055-7.008.142-.135.25-.239.344-.332a34.331,34.331,0,0,0-.344,3.986c-.1,3,.625,7.238,1.958,9.291.59.858,1.471,1.027,2.661-.266a29.11,29.11,0,0,1-2.075-5.941,15.927,15.927,0,0,1-.067-6.851c-.572-.2-1.679-.558-1.769-.586l-.29-.093c-.243-.079-.486-.158-.738-.238-.4-.126-.788-.242-1.185-.351C92.9,47.434,89.348,48.655,85.756,48.727Z" style="fill:url(#b)"/></g><g style="clip-path:url(#c)"><path d="M82.589,32.085a23.975,23.975,0,0,0,10.92,4.384,10.467,10.467,0,0,0,6.476-1.3l.02-.014a4.158,4.158,0,0,0,.294-3.1c-.321,1.409-2.936,2.936-6.606,2.431a15.343,15.343,0,0,1-6.287-2.521,29.044,29.044,0,0,1-3.152-2.294,1.836,1.836,0,0,0-1.18-.462c-1.308,0-2.228,1.639-.485,2.88Z" style="fill:url(#d)"/></g><g style="clip-path:url(#e)"><path d="M90.581,14.346c.01.049.053.254.09.414.209.821.477,2.456,1.2,4.785,1.491,1.811,3.066,3.709,3.771,4.572,5.238,6.4,5.269,9.424,4.359,11.033a5.1,5.1,0,0,0,1.956-2.2c.887-2.2-.842-5.261-3.012-8.109-2.1-2.755-7.823-9.816-8.368-10.49Z" style="fill:url(#f)"/></g><g style="clip-path:url(#g)"><path d="M107.906,2.086c-.1,1.169-.35,3.629-.552,6.064-.1,1.222-.186,2.374-.221,3.231-.014.436-.019.8,0,1.054a1.652,1.652,0,0,0,.044.35.488.488,0,0,0,.333.4.513.513,0,0,0,.582-.289,2.19,2.19,0,0,0,.152-.356c.1-.273.215-.67.34-1.15.254-.939.55-2.208.846-3.509.555-2.46,1.109-5,1.254-5.592C111.009.785,110.3,0,109.511,0,108.781,0,107.986.679,107.906,2.086Z" style="fill:url(#h)"/></g><g style="clip-path:url(#i)"><path d="M78.758,23.617a36.22,36.22,0,0,1,5.847,2.649,49.689,49.689,0,0,1,6.016,4.127c.464.361.667.5.915.28.394-.359-.338-1.209-.607-1.558-1.081-1.417-4.97-6.192-10.54-8.077a2.655,2.655,0,0,0-.81-.13C77.8,20.906,77,22.949,78.758,23.617Z" style="fill:url(#j)"/></g><g style="clip-path:url(#k)"><path d="M100.93,4.683c-.209.716-.392,1.392-.556,2.061a20.522,20.522,0,0,1,2.337,9.112c-.031,4.882-2.15,14.225-5.2,14.215-1.175,0-2.736-3.216-4.163-6.552a43.946,43.946,0,0,1-2.677-8.759c-.037-.168-.045-.2-.09-.414,0,0-.051-.07-.1-.127a1.137,1.137,0,0,0-2.114.653c-.051,1.413,1.756,6.846,2.835,9.437,2.285,5.5,4.155,8.32,6.026,8.232,2.431-.117,4.734-3.546,6.134-7.775a32.2,32.2,0,0,0,1.877-9.106c0-4.249-1.5-7.709-3.941-12.453C101.291,3.294,101.1,4.117,100.93,4.683Z" style="fill:url(#l)"/></g><g style="clip-path:url(#m)"><path d="M113.313,30.2a40.845,40.845,0,0,0-6.984,1.877c-.111.8-.213,1.607-.3,2.437a60.43,60.43,0,0,1,6.02-1.922,43.009,43.009,0,0,1,16.713-.288c3,.522,2.951-1.954.856-2.384a32.676,32.676,0,0,0-7.525-.522A48.971,48.971,0,0,0,113.313,30.2Z" style="fill:url(#n)"/></g><g style="clip-path:url(#o)"><path d="M121.411,2.514c-9.655,3.452-15.78,13.342-17.538,31.071-.122,1.386,1.193,1.231,2.152.927,1.815-16.7,8.355-27.042,17.136-29.882.248-.083.569-.149.74-.2-.1-1.461-.693-2.082-1.6-2.082A2.873,2.873,0,0,0,121.411,2.514Z" style="fill:url(#p)"/></g><g style="clip-path:url(#q)"><path d="M98.938,3.321c-1.85,6.263-1.905,11.059-1.165,14.15,1.212,5.039,5.505,10.955,6.556,12.345.132-.915.279-1.811.436-2.681a33.926,33.926,0,0,1-4.73-9.7c-.925-3.852-.591-7.675.9-12.748.165-.571.364-1.4.37-1.476a1.338,1.338,0,0,0-1.181-.882A1.259,1.259,0,0,0,98.938,3.321Z" style="fill:url(#r)"/></g><path d="M107.479,38.384c2.734-3.76,15.181-2.167,20.064-.564,1.094-.785,1.152-1.983-1.211-2.506a50.289,50.289,0,0,0-11.192-1.465h-.032c-6.3,0-10.583,1.9-8.1,6.934A2.51,2.51,0,0,1,107.479,38.384Z" style="fill-rule:evenodd;fill:url(#s)"/><g style="clip-path:url(#t)"><path d="M93.95,39.754c-3.586,2.492-6.937,6.217-8.194,8.973a13.425,13.425,0,0,0,2.907-.355,29.164,29.164,0,0,1,7.715-7.547c4.25-2.955,7.045-4.038,7.718,2.642.385,3.454.169,7.822-1.651,10.484.358.973.756,1.889,1.105,2.649,1.958-2.1,3.2-6.886,2.9-11.221-.423-3.634-.865-8.951-5.022-8.953C99.679,36.426,97.279,37.361,93.95,39.754Z" style="fill:url(#u)"/></g><g style="clip-path:url(#v)"><path d="M80.593,40.935c-3.05,1.176-2.219,4.1,1.04,2.794a23.552,23.552,0,0,1,16.978-.838c6.425,2.055,10.227,3.373,15.494,9.154,1.584,1.854,3.406.959,2.839-1-.783-3.246-10.936-8.493-17.388-10.308a37.781,37.781,0,0,0-9.888-1.317A24.356,24.356,0,0,0,80.593,40.935Z" style="fill:url(#w)"/></g><g style="clip-path:url(#x)"><path d="M107.478,38.386a2.513,2.513,0,0,0-.469,2.4,15.323,15.323,0,0,0,2.149,2.978c.141.162.642.793,1.321,1.649,3.139,1.783,5.672,3.716,6.34,5.268a17.021,17.021,0,0,0-2.346-4.053c-.472-.66-3.757-4.529-4.44-5.379-.977-1.218-2.142-2.825-.685-4.227A4.358,4.358,0,0,0,107.478,38.386Z" style="fill:url(#y)"/></g><g style="clip-path:url(#z)"><path d="M115.293,37.119c-.264.162-.217.471-.075.7a3.735,3.735,0,0,0,.315.406c.356.412.741.807,1.122,1.2,1.188,1.236,2.38,2.467,3.548,3.724,1.2,1.3,2.436,2.782,5.378,5.98,2.233,2.206,4.112-.028,1.919-2.214-1.8-1.865-4.28-4.222-6.254-5.914-1.153-.982-2.34-1.935-3.576-2.819-.4-.287-.805-.567-1.232-.817a4.119,4.119,0,0,0-.44-.234,1.173,1.173,0,0,0-.413-.09.573.573,0,0,0-.292.073Z" style="fill:url(#aa)"/></g><g style="clip-path:url(#ab)"><path d="M110.069,36.754c.221,5.042,6.177,5.546,8.865,5.051-.6-.634-1.216-1.27-1.824-1.9-1.937.1-5.071-.694-5.194-3.574A12.7,12.7,0,0,0,110.069,36.754Z" style="fill:url(#ac)"/></g><g style="clip-path:url(#ad)"><path d="M119.4,39.488q.939.742,1.847,1.518l.155.134a27.768,27.768,0,0,0,6.143-3.318,29.077,29.077,0,0,0-3.075-.793A18.106,18.106,0,0,1,119.4,39.488Z" style="fill:url(#ae)"/></g><path d="M121.361,5.33a12.659,12.659,0,0,1-.86,4.448c-1.97,5.847-6.29,14.667-13.345,17.626q-.284,1.294-.514,2.662v.009c7.466-2.708,11.109-8.951,13.6-13.342,2.213-3.9,3.9-9.277,3.653-12.3,0,0-.379.082-.737.2A16.586,16.586,0,0,0,121.361,5.33Z" style="fill-rule:evenodd;fill:url(#af)"/><path d="M127.377,22.539a4.909,4.909,0,0,0-.542.03,23.317,23.317,0,0,0-6.659,1.535,19.645,19.645,0,0,0-5.781,3.552,13.754,13.754,0,0,0-2.884,3.687,12.589,12.589,0,0,0-1.164,2.989v0h0a15.192,15.192,0,0,1,1.859-.328,7.038,7.038,0,0,1,.528-1.269,9.354,9.354,0,0,1,2.145-2.656,19.525,19.525,0,0,1,5.3-3.265,25.253,25.253,0,0,1,6.585-1.563c2.179-.218,2.633-1.008,2.5-1.657C129.155,23.025,128.568,22.539,127.377,22.539Z" style="fill-rule:evenodd;fill:url(#ag)"/></svg>