<svg xmlns="http://www.w3.org/2000/svg" viewBox="0 0 280 100"><title>ANZ</title><path d="M216.828,48.305a17.435,17.435,0,1,0-27.264,0c3.1,3.737,6.938,5.094,8.5,5.055,2.4-.032,1.962-1.992,1.776-2.8a8.748,8.748,0,0,0-1.2-2.568,8.235,8.235,0,0,1-1.508-4.742c.007-3.395,3.226-5.854,6.072-5.855s6.056,2.459,6.056,5.855a8.225,8.225,0,0,1-1.508,4.742,9.026,9.026,0,0,0-1.193,2.568c-.194.811-.62,2.77,1.775,2.8C209.892,53.4,213.729,52.042,216.828,48.305Z" style="fill:#007dba"/><path d="M185.585,54.367h0a17.127,17.127,0,0,0-8.674-1.065,8.679,8.679,0,0,0-4.542,1.851,3.142,3.142,0,0,0-.719,4.441c1.274,1.786,13.086,15.772,16.2,19.384a2.824,2.824,0,0,0,2.649.982c1.557-.334,3.318-2.172,3.986-3.49a11.472,11.472,0,0,0,1.183-3.131,16.037,16.037,0,0,0-2.313-12.75A19.03,19.03,0,0,0,185.585,54.367Z" style="fill:#007dba"/><path d="M234.032,55.153h0a8.712,8.712,0,0,0-4.54-1.851,17.14,17.14,0,0,0-8.674,1.065,18.978,18.978,0,0,0-7.773,6.222,15.954,15.954,0,0,0-2.313,12.75A11.386,11.386,0,0,0,211.9,76.47c.668,1.318,2.438,3.158,3.985,3.49a2.822,2.822,0,0,0,2.647-.982c3.118-3.612,14.933-17.6,16.215-19.384A3.147,3.147,0,0,0,234.032,55.153Z" style="fill:#007dba"/><path d="M44.916,75.791h0a1.859,1.859,0,0,0-.146,1.756,1.647,1.647,0,0,0,1.49.811h9.856a3.513,3.513,0,0,0,2.974-1.673l10.88-17.4H55.213C50.147,67.412,45.043,75.6,44.916,75.791Z" style="fill:#007dba"/><path d="M81.9,39.363A2.188,2.188,0,0,0,79.611,37.4H75.5a11.96,11.96,0,0,0-10.18,5.7s-3.927,6.284-8.328,13.349H84.93Z" style="fill:#007dba"/><path d="M134.295,48.568h13.876l-5.982,7.876h16.173l5.9-7.759a10.143,10.143,0,0,0,2.242-6.447v-2.7a1.956,1.956,0,0,0-1.753-2.139,2.061,2.061,0,0,0-.36,0H134.295a1.891,1.891,0,0,0-2.071,2.086V46.49A1.888,1.888,0,0,0,134.295,48.568Z" style="fill:#007dba"/><path d="M164.8,67.156v0H150.233l5.977-7.869H140.03l-5.764,7.577a13.353,13.353,0,0,0-2.364,8.159v1.192a1.958,1.958,0,0,0,1.773,2.127,2.011,2.011,0,0,0,.347,0H164.8a1.9,1.9,0,0,0,2.078-2.085V69.249A1.9,1.9,0,0,0,164.8,67.156Z" style="fill:#007dba"/><path d="M85.429,59.292h-13.8c.353,1.93,2.9,16.281,3.049,17.115A2.122,2.122,0,0,0,76.9,78.359H86.39a1.95,1.95,0,0,0,1.717-.77,2,2,0,0,0,.264-1.638Z" style="fill:#007dba"/><path d="M115.992,56.453h11.929V39.481a1.9,1.9,0,0,0-2.085-2.086h-8.378a1.9,1.9,0,0,0-2.079,2.086V55.356l-7.941-14.274c-1.586-2.631-4.259-3.631-7.376-3.689H93.871a1.9,1.9,0,0,0-2.07,2.086V56.453h10.407l1.6,2.837H91.8V76.26a1.9,1.9,0,0,0,2.07,2.1h8.4a1.9,1.9,0,0,0,2.074-2.1l0-15.977,8.015,14.39c1.571,2.617,4.253,3.616,7.349,3.684h6.134a1.906,1.906,0,0,0,2.085-2.1V59.29H117.589Z" style="fill:#007dba"/></svg>