<svg xmlns="http://www.w3.org/2000/svg" viewBox="0 0 440 146.31"><title>ANZ</title><path d="M352.533,46.947c5.939,0,12.7,5.156,12.7,12.277a17.242,17.242,0,0,1-3.162,9.943,18.9,18.9,0,0,0-2.505,5.384c-.408,1.7-1.3,5.808,3.721,5.876,3.269.083,11.315-2.763,17.813-10.6a36.558,36.558,0,1,0-57.169,0c6.508,7.836,14.548,10.682,17.813,10.6,5.025-.068,4.115-4.178,3.725-5.876a18.365,18.365,0,0,0-2.509-5.384,17.271,17.271,0,0,1-3.162-9.943c.015-7.121,6.766-12.277,12.735-12.277m64.635,37.24c-1.5-1.24-4.125-3.05-9.519-3.882a35.94,35.94,0,0,0-18.187,2.233,39.814,39.814,0,0,0-16.3,13.046c-4.747,6.547-7.2,16.432-4.849,26.734a23.843,23.843,0,0,0,2.462,6.567c1.4,2.762,5.111,6.62,8.356,7.316a5.912,5.912,0,0,0,5.55-2.058c6.537-7.573,31.311-36.9,34-40.645,2.637-3.722.914-7.3-1.508-9.311m-101.58-1.649a35.92,35.92,0,0,0-18.182-2.233c-5.394.832-8.045,2.642-9.524,3.882-2.422,2.014-4.159,5.589-1.508,9.311,2.671,3.745,27.439,33.072,33.977,40.645a5.916,5.916,0,0,0,5.555,2.058c3.264-.7,6.956-4.554,8.356-7.316a24.024,24.024,0,0,0,2.481-6.567c2.35-10.3-.146-20.187-4.849-26.734a39.915,39.915,0,0,0-16.306-13.046" style="fill:#007dba"/><path d="M272,109.36H241.467L254,92.861H220.074l-12.087,15.887c-4.519,6.313-4.957,12.685-4.957,17.108v2.5a4.106,4.106,0,0,0,4.446,4.46H272c2.6,0,4.358-1.435,4.358-4.373v-14.7c0-2.957-1.756-4.388-4.358-4.388M98.186,51.073a4.589,4.589,0,0,0-4.8-4.126H84.762A25.077,25.077,0,0,0,63.417,58.9S55.182,72.072,45.954,86.892h58.585Zm96.5.248c0-2.939-1.751-4.374-4.372-4.374H172.746c-2.6,0-4.359,1.435-4.359,4.374V84.612l-16.65-29.93c-3.327-5.516-8.931-7.613-15.468-7.735H123.286c-2.578,0-4.339,1.435-4.339,4.374V86.912h21.821l3.357,5.949H118.947v35.582c0,2.938,1.761,4.4,4.339,4.4H140.9c2.616,0,4.348-1.459,4.348-4.4l-.01-33.5,16.806,30.173c3.294,5.487,8.917,7.583,15.41,7.724h12.862c2.621,0,4.372-1.459,4.372-4.4V92.861H173.018l-3.347-5.949h25.012Zm-89.1,41.54H76.648c.739,4.047,6.075,34.138,6.392,35.888.491,2.71,2.179,4.091,4.654,4.091H107.6a4.083,4.083,0,0,0,3.6-1.614,4.188,4.188,0,0,0,.554-3.435Zm-84.944,34.6a3.89,3.89,0,0,0-.306,3.681,3.445,3.445,0,0,0,3.123,1.7H44.126a7.363,7.363,0,0,0,6.236-3.507L73.175,92.861H42.228c-10.623,17.03-21.324,34.2-21.592,34.6M208.055,70.374h29.088L224.6,86.892h33.913l12.369-16.27a21.267,21.267,0,0,0,4.7-13.518V51.437a4.1,4.1,0,0,0-4.431-4.49h-63.1c-2.6,0-4.343,1.435-4.343,4.374v14.7c0,2.928,1.741,4.358,4.343,4.358" style="fill:#007dba"/></svg>