<svg xmlns="http://www.w3.org/2000/svg" xmlns:xlink="http://www.w3.org/1999/xlink" viewBox="0 0 280 100"><defs><clipPath id="a"><rect x="48.357" y="20" width="183.286" height="60" style="fill:none"/></clipPath></defs><title>AFM</title><g style="clip-path:url(#a)"><path d="M151.853,67.115l-12.1,2.689V63.719a13.416,13.416,0,0,1-10.892,5.8c-4.811,0-9.055-2.618-9.055-8.347,0-7.217,8.842-11.957,19.949-13.088V43.346c0-2.9-2.12-4.032-5.022-4.032-3.751,0-8.42,2.194-10.188,4.809l-1.485-.212-.993-5.165c2.051-1.7,8.49-3.961,14.22-3.961,5.659,0,10.468,1.769,10.468,9.41V63.436h5.094ZM139.757,51.2c-3.748.356-12.451,3.253-12.451,8.774,0,3.324,2.053,4.6,4.6,4.6,3.041,0,6.577-1.84,7.851-4.245Z" style="fill:#003846"/><path d="M176.682,25.943l-1.415.638a4.167,4.167,0,0,0-3.324-1.415c-3.964,0-5.944,3.324-5.944,7.851,0,1.062.072,2.265.142,3.4h5.872V40.8H166.14V63.933l5.094,1.7v3.183h-17.19V65.631l5.091-1.7V40.8h-5.091V36.414h5.165c0-7.783,5.729-16.414,14.784-16.414a17.811,17.811,0,0,1,2.689.213Z" style="fill:#003846"/><path d="M231.644,68.812H214.525V65.628l5.023-1.7V45.4c0-3.4-2.193-4.812-4.881-4.812a11.046,11.046,0,0,0-8.066,4.031V63.931l5.094,1.7v3.183h-17.19V65.628l5.092-1.7V45.4c0-3.4-2.12-4.812-4.951-4.812a10.662,10.662,0,0,0-7.993,4.031V63.931l5.094,1.7v3.183H174.554V65.628l5.094-1.7V40.8h-5.094v-3.68l12.1-2.619v6.084c2.9-3.183,7.993-5.8,12.239-5.8,3.466,0,6.365,1.7,7.355,6.227,2.831-3.325,8.136-6.227,12.594-6.227,4.244,0,7.78,2.337,7.78,9.623V63.931l5.024,1.7Z" style="fill:#003846"/><path d="M75.2,35.815c.97-.694,1.252-2.027,1.879-3.192a16.76,16.76,0,0,0,1.69-3.383c.213-.769.45-1.768.627-2.756.254-1.421-.1-3.051.564-4.006a2.959,2.959,0,0,1,3.005-1.066,1.9,1.9,0,0,1,1.189,1.755,6.324,6.324,0,0,1-.938,2.065,19.835,19.835,0,0,1-1.065,1.878,32.42,32.42,0,0,0-1.94,3.946c-.674,1.458-1.289,2.777-1.88,4.007-.675,1.4-1.421,2.63-1.94,3.943-.606,1.533-1.088,4.177-.313,5.825a3.525,3.525,0,0,0,.839,1.175,1.825,1.825,0,0,0,1.164.7c1.2.127,2.531-1.313,2.943-1.819.367-.447.728-1.221,1.252-1.94.686-.941,1.279-1.853,2.006-2.816a7.864,7.864,0,0,0,.625-.94,6.4,6.4,0,0,0,1-3.258,10.59,10.59,0,0,0-.938-3.569c-.144-.349-.232-.746-.378-1.064a20.859,20.859,0,0,1-.938-2c-.734-2.331.471-5.022,2.065-5.7,1.912-.812,4.207-.09,5.948.753.668.32,1.507.563,2,.875a7.992,7.992,0,0,1,2.382,2.5c1.155,2.123-.666,3.915-2.193,5.01-.8.573-1.923,1.086-2.881,1.752-.756.524-2.016,1.342-2.066,2.506-.081,1.919,1.6,1.792,3.193,1.441a14.356,14.356,0,0,0,2.067-.564c2.4-1,4.2-3.149,6.7-3.758a2.32,2.32,0,0,1,1.816.375,8.749,8.749,0,0,1,1.628,1.879c.558.744,1.692,2.065.938,3.32a3.626,3.626,0,0,1-1.815,1.19c-2.816.859-5.769-.517-9.017-.878a10.345,10.345,0,0,0-1.879,0c-.85.069-1.689.1-2.5.187a8.512,8.512,0,0,0-5.07,2.444,21.969,21.969,0,0,0-1.754,2c-.851,1.07-2.018,2.161-2.254,3.884-.338,2.443,1.059,4.143,2,5.7.906,1.49,1.905,2.6,3.82,2.818,3.383.389,4.27-1.2,6.252-2.695a50.133,50.133,0,0,1,4.33-3.942,45.438,45.438,0,0,1,4.571-3.757c1.425-.624,2.009-1.984,3.442-2.068,1.833-.107,2.54,2.161,2.817,3.822.379,2.245-.037,4.808-2.189,4.758a5.924,5.924,0,0,1-2.068-.69c-.468-.233-.778-.663-1.189-.876-.219-.114-.605-.189-.941-.314-1.172-.423-1.595-.131-2.628.691-1.446,1.143-2.9,2.524-4.259,3.631A31.309,31.309,0,0,0,92.1,58.044c-.857.866-2.04,1.865-2.316,2.943a5.663,5.663,0,0,0,.376,3.13A13.043,13.043,0,0,0,92.6,67.875a4.755,4.755,0,0,0,1.315.875c.492.232,1.04.277,1.5.5a2.444,2.444,0,0,1,1.626,2.567c-.237,1.365-1.771,2.262-2.944,3.07-.515.354-1.113.832-1.753,1.252-.99.643-2.981,1.967-3.442.813-.778-2.319-.045-4.957.251-7.577a10.427,10.427,0,0,0,.125-3.255,7.068,7.068,0,0,0-1.127-2,21.8,21.8,0,0,0-2.632-3.63c-.428-.444-1.252-1.267-1.94-1.129-1.079.219-1.029,3.747-1.127,4.948-.078.981-.361,1.913-.374,2.943a16.437,16.437,0,0,0-.064,3.131,7.012,7.012,0,0,0,.877,1.878c.487.722,1.225,1.248,1.752,1.94A5.059,5.059,0,0,1,85.9,76.581a3.3,3.3,0,0,1-.689,2.441c-.75.506-2.778.4-3.946.376a5.146,5.146,0,0,1-2.005-.19c-.826-.453-.924-1.944-.686-3.63.335-2.4.735-4.478,1-7.077.079-.769.21-1.542.314-2.066.091-.454.062-.757.151-1.381.121-.83.235-1.475.287-1.938.075-.7,0-1.269.061-1.815.207-1.722.5-4.325-.061-6.073-.265-.828-1.506-2.285-2.379-2.317-.825-.029-1.855,1.026-2.383,1.566a24.113,24.113,0,0,0-1.752,2.128c-1.264,1.6-2.52,2.929-3.508,4.322a5.114,5.114,0,0,0-.375,1.752c-.053,2.392,1.07,4.724,1.5,6.7s.707,4.068,1.066,6.262c.258,1.581.685,2.723-.564,3.757-.929.605-2.909-.5-4.133-1a2.41,2.41,0,0,1-1.19-1.5,7.914,7.914,0,0,1,.753-3.506c.615-1.292,1.551-1.424,1.44-3.508a17.873,17.873,0,0,0-1.44-6.135,4.486,4.486,0,0,0-3.32-2.254,11.626,11.626,0,0,0-2.567.187c-1.539.24-3.086.4-3.819,1.441a9.189,9.189,0,0,0-.814,2.816c-.243,1.138-.312,3.414-2.254,3.006a2.462,2.462,0,0,1-.939-.75A7.353,7.353,0,0,1,51.9,65.435c-.223-.656-.4-1.626-.627-2.505-.3-1.2-.406-2.31.253-2.819,1.312-1.014,4.416-.007,6.259.064.577.022,1.3-.148,2-.189,1.221-.068,2.265.089,3.131-.438a3.335,3.335,0,0,0,1.252-1.94c.171-1.336-.667-2.352-1.189-3.256-.215-.369-.332-.81-.564-1.19a8.269,8.269,0,0,0-1.252-1.378c-.317-.327-.9-1.158-1.439-1.19-.588-.034-.8.3-1.437.775-1.013.751-2.255,1.341-3.573,2.42a23.05,23.05,0,0,0-2.065,2.128c-.637.681-1.552,1.612-2.569,1.441A1.994,1.994,0,0,1,48.893,54.6c.338-.707,1.557-.864,2.568-1.252a16.864,16.864,0,0,0,2.5-1.252c.669-.41,1.347-1.038,2.193-1.565.712-.447,1.747-1,2.065-1.691a4.007,4.007,0,0,0-.625-3.757,10.737,10.737,0,0,0-2.5-1.691c-.41-.267-.838-.549-1.252-.816-1.114-.712-2.446-1.444-2.63-3.067a6.656,6.656,0,0,1,.814-2.755,23.668,23.668,0,0,1,1.627-3.381c.466-.757,1.021-1.532,1.689-1.566a2.79,2.79,0,0,1,1.629.877,12.883,12.883,0,0,1,1,1.315,27.843,27.843,0,0,1,3.13,5.887c.657,1.581,1.353,3.2,1.879,4.821.794,2.444,1.47,5.26,2.442,7.64A9.951,9.951,0,0,0,66.486,54.6a3.279,3.279,0,0,0,1.5,1.127c1.4.216,2.966-1.087,3.631-1.815a16.1,16.1,0,0,0,2.317-3.195,6.966,6.966,0,0,0,.5-.876,8.3,8.3,0,0,0-.061-2.693,20.045,20.045,0,0,0-1.816-7.076,30.462,30.462,0,0,0-1.818-4.133,14.154,14.154,0,0,0-1.689-1.815,9.984,9.984,0,0,0-3.382-2.379c-1.582-.614-4.586-.681-5.449-2.254a2.759,2.759,0,0,1,0-2.317,5.953,5.953,0,0,1,4.51-2.192,7.98,7.98,0,0,1,2.631.688,13.344,13.344,0,0,1,2.317,2.816c.114.152.257.341.358.492q.153.264.33.512a2.343,2.343,0,0,0,1.691.815c.744-.118,1.261-1.122,1.5-1.754a9.074,9.074,0,0,0,.5-2.63c.05-1.35-.448-2.764,0-3.82.507-1.2,2.158-1.448,3.569-.691,1.55.835.713,2.459-.189,3.7a18.115,18.115,0,0,0-2.63,4.7,22.689,22.689,0,0,0-.939,2.692,3.464,3.464,0,0,0,.378,2.945c.289.3.621.678.938.374" style="fill:#003846"/></g></svg>