<svg xmlns="http://www.w3.org/2000/svg" xmlns:xlink="http://www.w3.org/1999/xlink" viewBox="0 0 595.28 245.794"><defs><clipPath id="a"><rect x="67.19" y="33.954" width="484.636" height="158.649" style="fill:none"/></clipPath></defs><title>AFM</title><g style="clip-path:url(#a)"><path d="M340.85,158.533l-31.984,7.109V149.554c-8.048,10.849-18.7,15.339-28.805,15.339-12.721,0-23.943-6.922-23.943-22.072,0-19.081,23.38-31.615,52.748-34.607V95.684c0-7.672-5.607-10.66-13.279-10.66-9.919,0-22.263,5.8-26.939,12.716l-3.927-.562L262.1,83.522c5.425-4.49,22.449-10.474,37.6-10.474,14.964,0,27.68,4.676,27.68,24.882v50.875h13.47Zm-31.984-42.089c-9.911.94-32.923,8.6-32.923,23.2,0,8.789,5.429,12.161,12.162,12.161,8.041,0,17.393-4.866,20.761-11.226Z" style="fill:#003846"/><path d="M406.5,49.668l-3.741,1.684a11.019,11.019,0,0,0-8.79-3.741c-10.481,0-15.716,8.79-15.716,20.761,0,2.806.19,5.988.376,8.98h15.526v11.6H378.626v61.165l13.47,4.49v8.417H346.643v-8.417l13.461-4.49V88.951H346.643v-11.6H360.3c0-20.575,15.149-43.4,39.092-43.4a47.171,47.171,0,0,1,7.11.562Z" style="fill:#003846"/><path d="M551.829,163.021H506.562V154.6l13.283-4.49v-49c0-8.979-5.8-12.724-12.907-12.724s-15.9,3.931-21.327,10.66v51.068l13.469,4.49v8.417H453.627V154.6l13.465-4.49v-49c0-8.979-5.607-12.724-13.092-12.724-7.3,0-15.9,3.931-21.134,10.66v51.068l13.469,4.49v8.417h-45.46V154.6l13.469-4.49V88.949H400.875V79.224L432.866,72.3V88.386c7.664-8.417,21.134-15.34,32.36-15.34,9.166,0,16.83,4.49,19.449,16.465,7.486-8.793,21.514-16.465,33.3-16.465,11.223,0,20.571,6.178,20.571,25.445v51.623l13.284,4.49Z" style="fill:#003846"/><path d="M138.16,75.771c2.565-1.835,3.31-5.359,4.967-8.44,1.525-2.844,3.562-5.65,4.47-8.945.563-2.033,1.188-4.676,1.657-7.287.672-3.757-.26-8.068,1.491-10.594,1.525-2.2,5.436-3.757,7.947-2.817a5.02,5.02,0,0,1,3.143,4.641c-.023,1.587-1.478,3.446-2.48,5.46a52.475,52.475,0,0,1-2.817,4.967,85.945,85.945,0,0,0-5.13,10.435c-1.781,3.853-3.407,7.342-4.971,10.594-1.785,3.709-3.756,6.954-5.13,10.427-1.6,4.051-2.875,11.044-.826,15.4a9.3,9.3,0,0,0,2.219,3.108c1.126,1.1,1.739,1.715,3.077,1.863,3.179.337,6.691-3.47,7.781-4.808.97-1.184,1.925-3.229,3.31-5.131,1.816-2.487,3.384-4.9,5.305-7.446a20.706,20.706,0,0,0,1.653-2.484c1.35-2.495,2.732-5.25,2.647-8.615-.082-3.38-1.44-6.892-2.48-9.437-.38-.924-.613-1.972-1-2.814a54.75,54.75,0,0,1-2.48-5.3c-1.94-6.162,1.245-13.279,5.46-15.068,5.056-2.146,11.125-.237,15.728,1.991,1.765.846,3.985,1.49,5.3,2.313a21.124,21.124,0,0,1,6.3,6.624c3.054,5.615-1.762,10.353-5.8,13.248-2.119,1.514-5.083,2.872-7.617,4.633-1.995,1.386-5.332,3.547-5.464,6.625-.214,5.075,4.226,4.738,8.444,3.81a37.98,37.98,0,0,0,5.464-1.49c6.352-2.646,11.121-8.328,17.715-9.938a6.118,6.118,0,0,1,4.8.993c1.517,1.064,2.833,3,4.307,4.968s4.474,5.459,2.48,8.777c-.695,1.161-2.829,2.538-4.8,3.148-7.447,2.27-15.255-1.366-23.843-2.321a27.194,27.194,0,0,0-4.967,0c-2.247.182-4.466.272-6.624.493a22.5,22.5,0,0,0-13.407,6.461,57.689,57.689,0,0,0-4.638,5.3c-2.25,2.829-5.335,5.712-5.96,10.268-.893,6.461,2.8,10.955,5.3,15.064,2.394,3.939,5.037,6.869,10.1,7.451,8.945,1.028,11.289-3.163,16.531-7.125,3.473-3.865,7.548-6.985,11.448-10.423a119.653,119.653,0,0,1,12.088-9.934c3.768-1.65,5.312-5.247,9.1-5.468,4.847-.283,6.717,5.712,7.45,10.105,1,5.937-.1,12.713-5.789,12.581a15.6,15.6,0,0,1-5.468-1.824c-1.238-.617-2.057-1.754-3.143-2.317-.579-.3-1.6-.5-2.488-.83-3.1-1.118-4.218-.346-6.95,1.828-3.822,3.022-7.672,6.674-11.261,9.6a82.51,82.51,0,0,0-7.451,6.457c-2.266,2.29-5.394,4.932-6.124,7.781-.706,2.728.163,5.987.994,8.277,1.428,3.943,3.935,6.818,6.457,9.938a12.571,12.571,0,0,0,3.477,2.313c1.3.613,2.751.733,3.974,1.327,2.375,1.16,4.9,3.349,4.3,6.787-.628,3.609-4.683,5.98-7.784,8.118-1.362.936-2.945,2.2-4.637,3.31-2.616,1.7-7.882,5.2-9.1,2.15-2.057-6.131-.12-13.108.663-20.035.361-3.171.9-6.2.33-8.607-.434-1.832-1.866-3.613-2.98-5.3-2.352-3.551-3.838-6.38-6.958-9.6-1.133-1.172-3.31-3.349-5.13-2.985-2.852.579-2.72,9.907-2.98,13.085-.206,2.593-.955,5.057-.99,7.781-.035,2.546-.652,5.441-.167,8.277a18.531,18.531,0,0,0,2.317,4.967c1.288,1.91,3.24,3.3,4.633,5.131,1.269,1.664,3.078,3.834,3.315,6.3.228,2.336-.656,5.665-1.82,6.453-1.983,1.339-7.346,1.056-10.435.994-2.15-.043-4.129.143-5.3-.5-2.185-1.2-2.445-5.142-1.816-9.6.888-6.344,1.944-11.839,2.642-18.712.21-2.033.555-4.078.831-5.464.24-1.2.163-2,.4-3.651.318-2.193.621-3.9.757-5.123.2-1.843-.012-3.356.163-4.8.547-4.552,1.319-11.436-.163-16.057-.7-2.189-3.981-6.042-6.29-6.128-2.181-.077-4.905,2.713-6.3,4.141a63.17,63.17,0,0,0-4.633,5.627c-3.341,4.225-6.663,7.745-9.275,11.428a13.488,13.488,0,0,0-.993,4.633c-.14,6.325,2.829,12.492,3.97,17.715s1.87,10.757,2.817,16.558c.683,4.18,1.812,7.2-1.49,9.935-2.456,1.6-7.691-1.335-10.928-2.647-1.144-.718-2.821-2.045-3.147-3.978-.438-2.631,1.118-7.431,1.991-9.27,1.626-3.415,4.1-3.764,3.807-9.275-.272-5.056-1.809-12.437-3.807-16.221a11.85,11.85,0,0,0-8.778-5.96,30.684,30.684,0,0,0-6.787.493c-4.071.636-8.161,1.051-10.1,3.81-1.079,1.533-1.545,4.6-2.15,7.447-.644,3.008-.827,9.026-5.961,7.948a6.53,6.53,0,0,1-2.483-1.983,19.458,19.458,0,0,1-4.637-7.284c-.59-1.735-1.06-4.3-1.657-6.624-.808-3.186-1.075-6.108.667-7.455,3.469-2.681,11.677-.019,16.551.171,1.525.058,3.434-.392,5.3-.5,3.228-.182,5.987.233,8.277-1.16a8.792,8.792,0,0,0,3.31-5.13c.454-3.531-1.762-6.217-3.143-8.607-.567-.978-.877-2.142-1.49-3.147a21.788,21.788,0,0,0-3.311-3.644c-.838-.865-2.378-3.062-3.806-3.147-1.553-.09-2.111.791-3.8,2.049-2.678,1.986-5.961,3.547-9.446,6.4a60.366,60.366,0,0,0-5.46,5.627c-1.684,1.8-4.105,4.26-6.794,3.81-2.7-.458-4.572-4.3-3.144-7.287.893-1.871,4.118-2.286,6.791-3.311a44.836,44.836,0,0,0,6.62-3.31c1.77-1.086,3.563-2.747,5.8-4.14,1.882-1.18,4.618-2.655,5.46-4.471,1.385-2.98.307-7.532-1.653-9.934-1.56-1.909-4.311-2.961-6.624-4.47-1.083-.707-2.216-1.452-3.31-2.158-2.946-1.882-6.469-3.818-6.954-8.11-.253-2.216,1.265-5.111,2.153-7.284a62.592,62.592,0,0,1,4.3-8.941c1.234-2,2.7-4.051,4.467-4.14,1.42-.07,3.329,1.362,4.307,2.32a34.168,34.168,0,0,1,2.65,3.477,73.564,73.564,0,0,1,8.278,15.565c1.738,4.179,3.577,8.468,4.967,12.748,2.1,6.461,3.888,13.908,6.457,20.2.9,2.193,1.626,4.447,2.813,5.961.8,1.012,2.635,2.774,3.978,2.98,3.714.57,7.843-2.876,9.6-4.8a42.492,42.492,0,0,0,6.128-8.448,18.628,18.628,0,0,0,1.323-2.317c.57-2.1.047-4.816-.163-7.121a53.024,53.024,0,0,0-4.8-18.708c-1.715-3.8-2.868-8.076-4.808-10.928a37.38,37.38,0,0,0-4.467-4.8,26.364,26.364,0,0,0-8.941-6.29c-4.183-1.623-12.126-1.8-14.408-5.961a7.3,7.3,0,0,1,0-6.127c1.393-2.538,7.191-5.93,11.925-5.794a21.107,21.107,0,0,1,6.954,1.82c2.006,1.191,4.455,5.278,6.127,7.447.3.4.679.9.947,1.3a15.992,15.992,0,0,0,.873,1.354,6.188,6.188,0,0,0,4.471,2.154c1.967-.311,3.333-2.965,3.973-4.638a23.912,23.912,0,0,0,1.324-6.953c.132-3.57-1.184-7.308,0-10.1,1.342-3.178,5.708-3.83,9.437-1.827,4.1,2.208,1.886,6.5-.5,9.775a47.927,47.927,0,0,0-6.953,12.414,60.548,60.548,0,0,0-2.484,7.117c-.6,2.735-.633,6.073,1,7.788.765.807,1.642,1.793,2.48.989" style="fill:#003846"/></g></svg>
