<svg xmlns="http://www.w3.org/2000/svg" viewBox="0 0 779.528 283.465"><title>Auswide Bank</title><path d="M119.763,257.657,96.7,242.433V153.36H55.09v61.593L32.057,199.746V83.786l87.706-57.978ZM96.7,130.275V71.413L55.09,98.963v31.312Z" style="fill:#6a2889;fill-rule:evenodd"/><path d="M144.376,153.36v58.868l41.889-27.661V153.36Zm41.889-23.085V98.963l-41.889-27.55v58.862ZM121.348,25.808l87.9,57.978v115.96l-87.9,57.911Z" style="fill:#f58a33;fill-rule:evenodd"/><path d="M301.468,139.565l-3.7-7.292h-28.5l-3.7,7.292h-15L273.43,96.48h20.4l22.54,43.085Zm-8.3-16.73-8.309-16.316h-2.62l-8.308,16.316ZM332.7,96.48h13.134v19.79a62.293,62.293,0,0,0,.471,8.622,4.191,4.191,0,0,0,3.265,3.318q2.766.79,11.151.785a73.531,73.531,0,0,0,9.458-.4,6.266,6.266,0,0,0,3.741-1.565,4.751,4.751,0,0,0,1.024-1.979,23.358,23.358,0,0,0,.453-4.019c.109-1.927.162-3.522.162-4.765V96.48H388.7v19.79c-.152,6.888-.366,11.391-.666,13.513a10.306,10.306,0,0,1-5.175,7.951,17.966,17.966,0,0,1-7.035,1.962q-4.545.5-14.934.5-7.788,0-12.018-.279a46.624,46.624,0,0,1-7.367-1.015q-6.9-1.649-8.077-8.339a41.694,41.694,0,0,1-.554-4.634q-.111-2.079-.166-9.664V96.48ZM408.735,125.3h12.719c-.021,2.123.406,3.492,1.291,4.107a5.4,5.4,0,0,0,2.445.71q1.511.1,9.464.17c5.544-.017,8.888-.052,10-.109a7.764,7.764,0,0,0,2.65-.492c.972-.4,1.456-1.478,1.456-3.257a2.822,2.822,0,0,0-1.024-2.563,9.282,9.282,0,0,0-4.181-.71q-2.437,0-10.291-.38-8.043-.386-10.484-.44a31.367,31.367,0,0,1-7.271-.9,7.974,7.974,0,0,1-3.953-2.419q-2.439-2.772-2.437-9.285,0-7.29,2.781-10.287c1.412-1.565,3.579-2.555,6.5-2.986s8.876-.645,17.842-.645a111.758,111.758,0,0,1,13.347.536q5.931.824,8.147,3.3T459.936,108c0,.366-.009,1.037-.031,2.027H447.181a9.361,9.361,0,0,0-.3-2.467,2.01,2.01,0,0,0-.929-1.077,7.335,7.335,0,0,0-3-.65q-2.151-.144-9.1-.139c-5.579,0-8.97.174-10.191.519s-1.831,1.312-1.831,2.886a2.519,2.519,0,0,0,1.831,2.78c1.016.279,5.649.541,13.927.8q10.435.308,13.958.733a14.992,14.992,0,0,1,5.605,1.626,7.838,7.838,0,0,1,3.344,3.9,20.214,20.214,0,0,1,.976,7.123q0,6.093-1.639,9.062a7.756,7.756,0,0,1-3.426,3.252,18.752,18.752,0,0,1-6.172,1.455q-4.265.374-15.872.375-9.729,0-14.358-.5a19.169,19.169,0,0,1-6.988-1.8,7.515,7.515,0,0,1-3.361-3.662,19.527,19.527,0,0,1-.928-6.918V125.3ZM477.481,96.48h13.382l11.548,32.257h2.432L514.6,96.48h15.85l9.812,32.257h2.467L554.344,96.48h13.923L551.5,139.565h-20.27l-8.652-31.6-8.553,31.6H493.706L477.481,96.48Zm108.675,0h13.787v43.085H586.156V96.48Zm35.535,43.085V96.48h31.1c5.5,0,9.115.044,10.815.127a36.158,36.158,0,0,1,5.344.689,10.422,10.422,0,0,1,8.426,7.332,23.636,23.636,0,0,1,.981,4.868c.161,1.744.248,4.364.248,7.877,0,3.854-.1,6.761-.3,8.749a23.875,23.875,0,0,1-1.115,5.4,10.144,10.144,0,0,1-7.921,7,39.908,39.908,0,0,1-6,.841c-2.123.14-5.6.2-10.444.2Zm12.938-10.989h18.277a58.089,58.089,0,0,0,7.432-.336,6.684,6.684,0,0,0,3.365-1.151,5.051,5.051,0,0,0,1.517-2.9,30.142,30.142,0,0,0,.445-6,35.635,35.635,0,0,0-.38-6.02,6.5,6.5,0,0,0-1.325-3.095,5.246,5.246,0,0,0-3.116-1.5,60.8,60.8,0,0,0-8.056-.331H634.629v21.329ZM699.5,96.48h47.731v10.127H712.433v6.224h33.024V122.3H712.433v6.908h35.038v10.353H699.5V96.48Z" style="fill:#6a2889"/><path d="M380.836,160.381h19.585c9.036.04,9.321.04,10.835.775,2,.941,2.779,2.739,2.779,6.339,0,3.883-.94,5.479-3.68,6.254,3.6.613,4.7,2.209,4.7,6.582,0,3.8-.981,5.766-3.273,6.667a18.563,18.563,0,0,1-4.945.613c-.328,0-2.455,0-6.38.04H380.836Zm19.585,10.752a17.65,17.65,0,0,0,4.578-.285c.656-.246.984-.941.984-1.964,0-1.1-.371-1.716-1.186-1.922-.45-.122-.533-.122-4.376-.162H388.726v4.333Zm.04,9.976c4.866-.04,4.866-.04,5.479-.285.735-.288,1.063-.9,1.063-2.086,0-1.226-.368-1.8-1.226-2.044-.45-.123-.45-.123-5.316-.123H388.726v4.538Z" style="fill:#f58a33"/><path d="M471.731,183.03H453.7l-2.329,4.621h-9.486l14.432-27.27h12.921l14.269,27.27h-9.443Zm-8.178-16.313H461.92l-5.276,10.345h12.185Z" style="fill:#f58a33"/><path d="M525.83,160.381,540.1,180.7h.861l-.205-20.321h8.463v27.27H534.783L520.431,167.33h-.9l.2,20.321h-8.462v-27.27Z" style="fill:#f58a33"/><path d="M587.858,160.381v9.894H592.4l10.8-10.06h12.716l-15.783,13.534,17.091,13.9H604.622L592.4,177.224h-4.538v10.427h-8.3v-27.27Z" style="fill:#f58a33"/><polygon points="250.581 172.596 357.862 172.596 357.862 174.675 250.581 174.675 250.581 172.596 250.581 172.596" style="fill:#f58a33;fill-rule:evenodd"/><polygon points="640.189 172.596 747.471 172.596 747.471 174.675 640.189 174.675 640.189 172.596 640.189 172.596" style="fill:#f58a33;fill-rule:evenodd"/></svg>