<svg xmlns="http://www.w3.org/2000/svg" viewBox="0 0 280 100"><title>Auswide  Bank</title><path d="M16.572,70.018l7.948,5.247V54.012H38.878V84.747L46.836,90V10L16.572,30.005ZM24.52,35.242l14.358-9.506V46.047H24.52Z" style="fill:#6a2889"/><path d="M99.859,34.385,91.97,49.252h5.176l1.277-2.516h9.834l1.276,2.516h5.142L106.9,34.385Zm.172,9.094,2.867-5.63h.9l2.867,5.63Z" style="fill:#6a2889"/><polygon points="251.338 45.678 251.338 43.295 262.733 43.295 262.733 40.028 251.337 40.028 251.337 37.88 263.345 37.88 263.345 34.384 246.875 34.384 246.875 49.251 263.427 49.251 263.427 45.678 251.338 45.678" style="fill:#6a2889"/><polygon points="120.31 34.386 120.313 34.386 120.313 34.385 120.31 34.386" style="fill:#6a2889"/><path d="M135.1,41.213c0,.429-.019.979-.056,1.644a7.984,7.984,0,0,1-.157,1.387,1.648,1.648,0,0,1-.353.683,2.165,2.165,0,0,1-1.291.54,25.406,25.406,0,0,1-3.263.138,17.083,17.083,0,0,1-3.848-.271A1.448,1.448,0,0,1,125,44.189a21.44,21.44,0,0,1-.162-2.975V34.386h-4.529v6.826q.018,2.617.057,3.335a14.56,14.56,0,0,0,.191,1.6,3.38,3.38,0,0,0,2.787,2.877,16.026,16.026,0,0,0,2.542.351q1.46.1,4.147.1,3.585,0,5.153-.173a6.186,6.186,0,0,0,2.427-.677,3.556,3.556,0,0,0,1.786-2.743c.1-.732.177-2.286.23-4.663V34.385H135.1Z" style="fill:#6a2889"/><polygon points="192.781 45.516 191.93 45.516 188.544 34.386 183.075 34.386 179.708 45.516 178.869 45.516 174.884 34.386 170.267 34.386 175.865 49.252 182.877 49.252 185.828 38.348 188.813 49.252 195.807 49.252 201.593 34.386 196.789 34.386 192.781 45.516" style="fill:#6a2889"/><path d="M239.241,37.2a3.6,3.6,0,0,0-2.907-2.53,12.589,12.589,0,0,0-1.844-.238c-.587-.028-1.834-.044-3.732-.044H220.027V49.252H230.77c1.671,0,2.871-.02,3.6-.069a13.768,13.768,0,0,0,2.07-.29,3.5,3.5,0,0,0,2.733-2.415,8.24,8.24,0,0,0,.385-1.863c.069-.686.1-1.69.1-3.019,0-1.212-.03-2.117-.085-2.718A8.14,8.14,0,0,0,239.241,37.2Zm-4.194,6.75a1.743,1.743,0,0,1-.524,1,2.3,2.3,0,0,1-1.161.4,19.783,19.783,0,0,1-2.564.116h-6.307V38.1h6.266a20.986,20.986,0,0,1,2.78.115,1.806,1.806,0,0,1,1.075.517,2.25,2.25,0,0,1,.457,1.068,12.229,12.229,0,0,1,.131,2.077A10.415,10.415,0,0,1,235.047,43.947Z" style="fill:#6a2889"/><rect x="207.766" y="34.386" width="4.757" height="14.867" style="fill:#6a2889"/><path d="M163.252,40.789a5.183,5.183,0,0,0-1.934-.561q-1.215-.147-4.816-.253A43.521,43.521,0,0,1,151.7,39.7a.87.87,0,0,1-.632-.959.9.9,0,0,1,.632-1,19.071,19.071,0,0,1,3.517-.179q2.4,0,3.14.048a2.532,2.532,0,0,1,1.035.224.7.7,0,0,1,.32.372,3.216,3.216,0,0,1,.1.851H164.2c.008-.342.011-.573.011-.7a4.286,4.286,0,0,0-.759-2.882,4.572,4.572,0,0,0-2.811-1.138,38.286,38.286,0,0,0-4.606-.185,53.125,53.125,0,0,0-6.156.222,3.624,3.624,0,0,0-2.243,1.031,5.185,5.185,0,0,0-.959,3.549,4.834,4.834,0,0,0,.84,3.2,2.754,2.754,0,0,0,1.364.835,10.832,10.832,0,0,0,2.509.31q.843.019,3.618.152,2.711.13,3.551.131a3.2,3.2,0,0,1,1.442.245.974.974,0,0,1,.354.884c0,.614-.167.986-.5,1.124a2.667,2.667,0,0,1-.914.17c-.384.02-1.538.032-3.451.038q-2.744-.024-3.265-.059a1.858,1.858,0,0,1-.844-.245q-.458-.318-.445-1.417h-4.393v.7a6.755,6.755,0,0,0,.32,2.387,2.6,2.6,0,0,0,1.16,1.263,6.6,6.6,0,0,0,2.411.621q1.6.172,4.955.173,4,0,5.476-.129a6.463,6.463,0,0,0,2.13-.5,2.676,2.676,0,0,0,1.182-1.122,6.687,6.687,0,0,0,.566-3.126,6.991,6.991,0,0,0-.337-2.458A2.7,2.7,0,0,0,163.252,40.789Z" style="fill:#6a2889"/><path d="M47.383,90l30.33-19.982V30.005L47.383,10Zm7.945-64.264,14.454,9.506V46.047H55.328Zm0,28.276H69.782V64.78L55.328,74.325Z" style="fill:#f58a33;fill-rule:evenodd"/><path d="M147.1,61.047c.945-.267,1.27-.818,1.27-2.158,0-1.242-.269-1.862-.959-2.187-.523-.254-.621-.254-3.739-.267h-6.758v9.409h6.771c1.354-.014,2.088-.014,2.2-.014a6.372,6.372,0,0,0,1.706-.211c.791-.311,1.13-.989,1.13-2.3C148.727,61.81,148.347,61.259,147.1,61.047Zm-7.463-2.4h4.035a6.907,6.907,0,0,1,1.51.056c.281.071.409.283.409.663,0,.353-.113.592-.339.677a6.067,6.067,0,0,1-1.58.1h-4.035Zm5.94,4.839c-.212.084-.212.084-1.891.1h-4.049V62.021h4.049a8.763,8.763,0,0,1,1.834.043c.3.084.423.282.423.7S145.835,63.389,145.582,63.489Z" style="fill:#f58a33;fill-rule:evenodd"/><path d="M162.964,56.435l-4.98,9.409h3.274l.8-1.594h6.222l.805,1.594h3.258l-4.923-9.409Zm.114,5.755,1.821-3.569h.563l1.821,3.569Z" style="fill:#f58a33;fill-rule:evenodd"/><polygon points="192.171 63.446 191.874 63.446 186.95 56.435 181.926 56.435 181.926 65.844 184.845 65.844 184.776 58.832 185.087 58.832 190.039 65.844 195.022 65.844 195.022 56.434 192.102 56.434 192.171 63.446" style="fill:#f58a33;fill-rule:evenodd"/><polygon points="218.034 56.377 213.646 56.377 209.92 59.849 208.352 59.849 208.352 56.435 205.489 56.435 205.489 65.844 208.352 65.844 208.352 62.246 209.92 62.246 214.138 65.844 218.485 65.844 212.588 61.047 218.034 56.377" style="fill:#f58a33;fill-rule:evenodd"/><rect x="91.975" y="60.649" width="37.018" height="0.717" style="fill:#f58a33"/><rect x="226.41" y="60.649" width="37.018" height="0.717" style="fill:#f58a33"/></svg>