<svg xmlns="http://www.w3.org/2000/svg" viewBox="0 0 280 100"><title>Bank SA</title><path d="M74.964,54.537a7.87,7.87,0,0,1-3.944-1.348,8.276,8.276,0,0,1-1.186-1.18c-.127-.148-.233-.222-.3-.21-.14.027-.227.326-.232.8a1.31,1.31,0,0,1-.861,1.315c-.235.108-.328.113-2.132.113-1.873,0-1.889,0-2.171-.128a1.494,1.494,0,0,1-.82-.939c-.044-.2-.056-4.633-.044-16.236.015-15.137.021-15.965.111-16.13a1.808,1.808,0,0,1,.736-.682c.238-.11.323-.114,2.188-.114,1.934,0,1.941,0,2.183.127a1.681,1.681,0,0,1,.7.665c.1.193.1.38.107,4.825,0,3.435.019,4.673.067,4.813.093.271.225.27.46,0a7.141,7.141,0,0,1,2.513-2.047,7.585,7.585,0,0,1,3.344-.788,6.907,6.907,0,0,1,3.4.679,6.463,6.463,0,0,1,1.968,1.4,6.266,6.266,0,0,1,1.854,3.417c.257,1.378.313,12.044.08,15.35a6.59,6.59,0,0,1-2.058,4.5,7.051,7.051,0,0,1-3.52,1.723,11.7,11.7,0,0,1-2.452.081Zm-.577-4.631a3.411,3.411,0,0,0,2.521-2.6,17.9,17.9,0,0,0,.17-3.413,70.339,70.339,0,0,0-.17-8.463,3.5,3.5,0,0,0-3.427-2.756,4.484,4.484,0,0,0-3.906,1.847l-.271.406V47.673l.183.3a3.5,3.5,0,0,0,.967,1.082,4.557,4.557,0,0,0,3.933.846Zm18.255,4.631a9.058,9.058,0,0,1-4.027-1.32,7.646,7.646,0,0,1-1.921-1.955,7.138,7.138,0,0,1-.75-1.92,12.942,12.942,0,0,1-.02-3.453,6.908,6.908,0,0,1,4-5.118c.47-.233,1.915-.793,4.393-1.7,4.1-1.507,4.929-1.863,5.4-2.328a1.9,1.9,0,0,0,.6-1.181,2.807,2.807,0,0,0-.744-2.338,4.766,4.766,0,0,0-5.03-.589A3.013,3.013,0,0,0,92.861,35.2a1.281,1.281,0,0,1-.428,1.065c-.445.443-.508.455-2.511.455-1.9,0-2.038-.021-2.434-.369a1.266,1.266,0,0,1-.448-1.2,7.278,7.278,0,0,1,3.5-6.077,11.158,11.158,0,0,1,5.9-1.694c5.593-.187,9.293,2.554,9.835,7.288.036.312.056,3.649.056,9.381v8.9l-.139.279a1.553,1.553,0,0,1-.759.7,6.547,6.547,0,0,1-1.92.11c-1.914.019-2.161-.008-2.558-.281a1.324,1.324,0,0,1-.6-1.113c-.053-.724-.2-.75-.85-.156a9.164,9.164,0,0,1-6.864,2.043Zm4.908-4.519a4.065,4.065,0,0,0,2.624-2.513l.152-.432.016-2.763c.014-2.451.007-2.767-.067-2.8S94.5,43.874,93.8,44.237a3.066,3.066,0,0,0-1.569,1.98,4.988,4.988,0,0,0,.081,2.019,3.162,3.162,0,0,0,.658,1.111,3.838,3.838,0,0,0,1.11.614,5.257,5.257,0,0,0,2.037.247,3.377,3.377,0,0,0,1.429-.19Zm13.891,3.961a1.548,1.548,0,0,1-.873-.655l-.162-.259-.014-11.889-.014-11.889.138-.282a1.545,1.545,0,0,1,.761-.7,6.654,6.654,0,0,1,1.948-.11,16.418,16.418,0,0,1,2.034.044,1.576,1.576,0,0,1,.967.671,1.337,1.337,0,0,1,.191.817c.032.589.1.761.287.691a3.8,3.8,0,0,0,.517-.534,7.53,7.53,0,0,1,5.891-2.507,6.933,6.933,0,0,1,5.371,2.506,7.244,7.244,0,0,1,1.483,2.883l.169.62.015,9.805.014,9.806-.112.232a1.565,1.565,0,0,1-.75.689c-.23.107-.349.115-2,.131-2.082.021-2.25,0-2.7-.413-.493-.443-.445.512-.478-9.577-.032-9.976,0-9.23-.406-10a3.9,3.9,0,0,0-4.484-1.728,4.455,4.455,0,0,0-2.554,1.75l-.262.372V52.955l-.139.279a1.562,1.562,0,0,1-.759.7,6.923,6.923,0,0,1-2.013.105,12.228,12.228,0,0,1-2.065-.06Zm23.717,0a1.64,1.64,0,0,1-.871-.617l-.163-.233-.014-16.149L134.1,20.83l.111-.231a1.571,1.571,0,0,1,.749-.688c.231-.107.348-.115,2.041-.13,2.006-.018,2.181,0,2.605.328a1.581,1.581,0,0,1,.381.464l.151.288v8.453c0,5.362.019,8.5.052,8.592.081.214.272.181.521-.091.115-.126,1.744-2.041,3.62-4.255s3.532-4.135,3.68-4.268c.465-.418.473-.419,3.1-.4l2.309.016.27.139a1.275,1.275,0,0,1,.4.323.624.624,0,0,1,.1.51,1.728,1.728,0,0,1-.134.539c-.061.118-1.836,2.25-3.945,4.738s-3.859,4.566-3.887,4.619a.412.412,0,0,0-.051.149c0,.03,1.973,2.817,4.385,6.194s4.4,6.2,4.419,6.27a2.3,2.3,0,0,1,.036.423,1.065,1.065,0,0,1-.45.913c-.437.3-.479.3-2.757.3h-2.1l-.307-.151a2.562,2.562,0,0,1-.6-.458c-.164-.169-2.059-2.83-4.213-5.914s-3.965-5.648-4.025-5.7c-.154-.133-.285-.117-.358.043-.046.1-.063,1.576-.064,5.62,0,5.231-.006,5.492-.1,5.7a1.615,1.615,0,0,1-.739.726c-.262.13-.277.131-2.069.143a12.042,12.042,0,0,1-2.067-.061Z" style="fill:#003e75"/><path d="M214.483,84.856c-.363-.181-.56-.417-1.066-1.281a46.519,46.519,0,0,0-3.661-5.237,47.365,47.365,0,0,0-5.93-5.963,54.616,54.616,0,0,0-16.037-9.033,78.615,78.615,0,0,0-21.46-4.462c-1.456-.1-4.277-.2-5.2-.178-.879.019-1.149-.061-1.563-.464-.5-.491-.457,1.843-.441-21.516l.014-20.644.116-.218a1.88,1.88,0,0,1,.857-.757c.261-.1.85-.1,27.839-.1h27.572l.3.149a1.571,1.571,0,0,1,.826.913c.075.259.082,3.65.07,34.058l-.014,33.77-.134.263A1.642,1.642,0,0,1,214.483,84.856Zm-39.227-30.05a13.914,13.914,0,0,0,5.025-1.21,7.9,7.9,0,0,0,4.6-5.833,17.15,17.15,0,0,0,.105-3.592,8.7,8.7,0,0,0-2.453-5.471c-1.188-1.227-1.694-1.567-6.39-4.3a46.742,46.742,0,0,1-5.041-3.071,3.979,3.979,0,0,1-1.734-3.693,3.786,3.786,0,0,1,1.086-2.725A4.5,4.5,0,0,1,173.9,23.7a4.216,4.216,0,0,1,3.333,1.248,2.935,2.935,0,0,1,.712.975,4.992,4.992,0,0,1,.5,2.5c.027,1.031.035,1.09.169,1.34a1.433,1.433,0,0,0,.806.683,7.449,7.449,0,0,0,2.3.107c2.383,0,2.411,0,2.891-.483.43-.429.447-.517.413-2.144a8.687,8.687,0,0,0-.5-3.194c-1.1-3.156-3.88-5.238-7.847-5.874-3.707-.594-7.521.049-9.964,1.68a8.869,8.869,0,0,0-3.971,7.363,9.439,9.439,0,0,0,3.062,7.487c.656.554.745.609,4.976,3.089,4.446,2.605,4.824,2.838,5.532,3.407a5.44,5.44,0,0,1,1.3,1.417,4.228,4.228,0,0,1,.705,2.507,3.267,3.267,0,0,1-2.649,3.6,10.68,10.68,0,0,1-3.32.022,3.866,3.866,0,0,1-2.837-2.652,7.034,7.034,0,0,1-.152-1.972l-.032-1.567-.163-.266a1.709,1.709,0,0,0-.879-.667c-.119-.033-1.025-.055-2.273-.055-2.067,0-2.077,0-2.349.127a1.541,1.541,0,0,0-.767.7,4.059,4.059,0,0,0-.147,1.5c-.084,2.753.312,4.475,1.405,6.116,1.973,2.962,6.1,4.492,11.1,4.122Zm17.294-.756a1.341,1.341,0,0,0,.728-.662c.06-.127.463-1.576.9-3.219s.811-3.042.839-3.109l.051-.122,5.133.014,5.132.014.819,3.089c.45,1.7.86,3.183.912,3.3a1.514,1.514,0,0,0,.59.638,9.368,9.368,0,0,0,2.509.09c2.3,0,2.35,0,2.561-.116a1.02,1.02,0,0,0,.595-1.068c-.064-.48-8.267-32.336-8.387-32.57a1.218,1.218,0,0,0-.7-.558c-.112-.032-1.706-.052-4.092-.051-3.818,0-3.915,0-4.152.111a1.124,1.124,0,0,0-.567.485c-.122.233-8.338,32.288-8.367,32.642a.759.759,0,0,0,.095.548,1.115,1.115,0,0,0,.669.528,42.524,42.524,0,0,0,4.738.018Zm3.756-12.263c0-.134,3.673-15.023,3.728-15.111.092-.146.185-.144.284.008.043.066.893,3.456,1.889,7.533s1.823,7.454,1.839,7.506c.028.089-.18.094-3.855.094-2.137,0-3.885-.013-3.885-.03Z" style="fill:#e91b2a"/></svg>