<svg xmlns="http://www.w3.org/2000/svg" viewBox="0 0 280 100"><title>Bankwest</title><path d="M232.561,60.663v8.581H56a8.567,8.567,0,0,1-8.552-8.581h0V30.757H224.009a8.566,8.566,0,0,1,8.551,8.581Z" style="fill:#faa634"/><path d="M224.777,47.6a3.144,3.144,0,0,0-3.527,1.137l-.069.027a3.772,3.772,0,0,1-.489-.641,12.287,12.287,0,0,0,2.063-6.3c-.042-1.928-.757-4.011-2.5-4.729a2.732,2.732,0,0,0-3.082.718c-1.9,2.288-1.011,5.926.029,8.334-.815.929-1.561,1.885-2.279,2.844a14.4,14.4,0,0,1-1.179-1.452c1.424-2.408,2.318-5.833,1.017-8.587a3.536,3.536,0,0,0-2.55-2.036,2.857,2.857,0,0,0-2.9,1.751c-1.22,2.349-.311,5.265.6,7.468-.8.927-1.588,1.9-2.308,2.871l-.038.016c-.407-.48-.8-.975-1.143-1.468a11.551,11.551,0,0,0,1.669-5.342c.016-2.08-.635-4.353-2.56-5.129a2.686,2.686,0,0,0-2.687.45c-1.436,1.258-1.667,3.4-1.314,5.326a10.821,10.821,0,0,0,1.961,4.69l.041-.014a14.741,14.741,0,0,0,3.308-5.972l.016.018a10.812,10.812,0,0,1-1.057,3.456,16.431,16.431,0,0,1-2.533,3.748,3.367,3.367,0,0,0-3.3-1.257,1.827,1.827,0,0,0-1.22,1.257,1.922,1.922,0,0,0,.431,1.75,3.532,3.532,0,0,0,3.881.688c.268-.1.541-.255.8-.357a3.852,3.852,0,0,1,.015,2.108c-.04.3-.225.553-.247.866.041.014.071-.026.112-.059a5.065,5.065,0,0,0,.489-3.157l.692-.673h.054l1.123,1.315.027.089-.379,1.01c-.869,2.324-1.166,5.749.6,7.708a2.9,2.9,0,0,0,3.144,1.077,3.593,3.593,0,0,0,1.859-2.53,10.923,10.923,0,0,0-1.288-6.115c.745-.81,1.5-1.737,2.223-2.575.379.434.8.929,1.176,1.392-1.029,2.259-1.639,5.593-.364,7.926a3.46,3.46,0,0,0,3.145,2.04,3.124,3.124,0,0,0,2.3-2.323c.561-2.334-.312-4.531-1.179-6.46.744-.794,1.436-1.692,2.127-2.56l.069-.027.694.674a4.956,4.956,0,0,0,.008,1.8,3.54,3.54,0,0,0,.573,1.448c.026-.013.026-.044.026-.09a4.393,4.393,0,0,1-.225-2.92,5.336,5.336,0,0,0,1,.449,3.432,3.432,0,0,0,3.66-.81,1.943,1.943,0,0,0,.421-1.779A1.751,1.751,0,0,0,224.777,47.6Zm-18.808-6.2a10.75,10.75,0,0,1-1.874,3.157,4.538,4.538,0,0,1-.393-.762,9.347,9.347,0,0,1-.772-5.114,2.072,2.072,0,0,1,.854-1.275,1.525,1.525,0,0,1,1.386,0,1.637,1.637,0,0,1,.592.63,4.383,4.383,0,0,1,.207,3.37Zm-3.134,7.886a2.774,2.774,0,0,1-3.009.732,1.321,1.321,0,0,1-.855-.718.743.743,0,0,1,.2-.687,3.125,3.125,0,0,1,3.014-.015l.458.3C202.716,49.026,202.97,49.126,202.835,49.294Zm14.714-10.333a2.039,2.039,0,0,1,.963-1.59,1.5,1.5,0,0,1,1.986.754h0l.018.042a4.7,4.7,0,0,1-.31,4.188,12.136,12.136,0,0,1-1.46,2.2l-.027-.015a10.048,10.048,0,0,1-1.169-5.584Zm-6.237-1.631a1.436,1.436,0,0,1,1.787.719,4.514,4.514,0,0,1,0,3.819,11.455,11.455,0,0,1-1.667,2.7h-.038a10.784,10.784,0,0,1-1.25-4.92c.041-.927.285-1.974,1.169-2.318ZM209.4,60.58a1.408,1.408,0,0,1-1.6.135,2.79,2.79,0,0,1-1.045-2.531,6.4,6.4,0,0,1,1.722-3.977,7.132,7.132,0,0,1,1.56,3.369,3.4,3.4,0,0,1-.638,3Zm3.876-15.86a16.227,16.227,0,0,1-2.1,3.38,22.368,22.368,0,0,0-3.989,5.7,12.817,12.817,0,0,0-1.01,3.514A12.62,12.62,0,0,1,208.8,50c1.005-1.236,2.075-2.383,3.024-3.687a12.22,12.22,0,0,0,2.335-4.726,10.11,10.11,0,0,1-.878,3.126Zm4.111,14.321c-.083.73-.405,1.6-1.153,1.8a1.474,1.474,0,0,1-1.46-.375,3.606,3.606,0,0,1-.667-2.72,7.1,7.1,0,0,1,1.685-3.547l.041.015a6.946,6.946,0,0,1,1.552,4.824Zm.378-10.1a15.985,15.985,0,0,0-4.255,8.318,12.828,12.828,0,0,1,2.559-7.195,34.822,34.822,0,0,0,4.773-6.492,8.766,8.766,0,0,0,.666-1.962,8.741,8.741,0,0,1-.433,1.9,16.72,16.72,0,0,1-3.313,5.424Zm7.678.464a2.333,2.333,0,0,1-2.3.708,2.443,2.443,0,0,1-1.549-.915,1.951,1.951,0,0,1,.87-.689,3.377,3.377,0,0,1,2.669-.033,1,1,0,0,1,.368.449.706.706,0,0,1-.057.474ZM66.555,44.9A5.488,5.488,0,0,0,64,45.509a7.421,7.421,0,0,0-1.408,1.011V38.905H56.345v.712a2.6,2.6,0,0,1,1.355.449,1.642,1.642,0,0,1,.363,1.242V59.16h.457l2.542-1.66a7.957,7.957,0,0,0,1.863,1.2,5.413,5.413,0,0,0,2.292.458A7.477,7.477,0,0,0,70.5,57.19a7.273,7.273,0,0,0,2.126-5.608,7.029,7.029,0,0,0-1.668-4.756,5.532,5.532,0,0,0-4.4-1.934Zm.626,11.733a2.391,2.391,0,0,1-2.347,1.591,2,2,0,0,1-1.9-1,3.258,3.258,0,0,1-.349-1.318V48.182q0-.3.625-1a2.133,2.133,0,0,1,1.668-.694,2.328,2.328,0,0,1,2.379,1.663,11.56,11.56,0,0,1,.608,3.973,11.723,11.723,0,0,1-.689,4.492Zm20.779.6a.846.846,0,0,1-.337.064.515.515,0,0,1-.4-.224.817.817,0,0,1-.182-.539V49.431a3.691,3.691,0,0,0-1.831-3.581,9.916,9.916,0,0,0-4.594-.958,8.685,8.685,0,0,0-4.311.986,2.991,2.991,0,0,0-1.752,2.677A1.706,1.706,0,0,0,75.206,50a2.538,2.538,0,0,0,1.592.5,2.3,2.3,0,0,0,1.416-.449,1.507,1.507,0,0,0,.61-1.284,1.479,1.479,0,0,0-.135-.624,2.085,2.085,0,0,0-.356-.539l-.189-.2a1.093,1.093,0,0,1-.189-.244.593.593,0,0,1-.063-.289.86.86,0,0,1,.561-.738,3.051,3.051,0,0,1,1.422-.295,2.918,2.918,0,0,1,2.134.623,2.694,2.694,0,0,1,.605,1.931v2.134a30.291,30.291,0,0,0-6.577,2.339,3.5,3.5,0,0,0-2.1,3.144A2.663,2.663,0,0,0,75.092,58.4a4.38,4.38,0,0,0,2.477.767,6.831,6.831,0,0,0,2.022-.315,7.752,7.752,0,0,0,3.036-1.713,2.758,2.758,0,0,0,.554,1.275,2.657,2.657,0,0,0,2.106.758,4.582,4.582,0,0,0,1.535-.258A5.272,5.272,0,0,0,88.928,57.5l-.491-.616a2.226,2.226,0,0,1-.476.345Zm-5.391-1.4a5.947,5.947,0,0,1-.9.8,2.681,2.681,0,0,1-1.46.429,1.472,1.472,0,0,1-1.078-.492,2.014,2.014,0,0,1-.48-1.46A3.08,3.08,0,0,1,80.3,52.457a7.1,7.1,0,0,1,2.266-.9Zm22.423,1.968a2.543,2.543,0,0,0,1.236.384v.7h-7.6v-.713a2.6,2.6,0,0,0,1.187-.426,1.649,1.649,0,0,0,.318-1.225v-7.1a3.9,3.9,0,0,0-.225-1.5,1.476,1.476,0,0,0-1.507-.9,2.454,2.454,0,0,0-1.544.553,5.038,5.038,0,0,0-1.085,1.111v7.853a1.649,1.649,0,0,0,.316,1.226,2.608,2.608,0,0,0,1.189.425V58.9h-7.8V58.19a2.577,2.577,0,0,0,1.3-.43,1.655,1.655,0,0,0,.418-1.329V47.782a1.766,1.766,0,0,0-.337-1.235,2.365,2.365,0,0,0-1.38-.461v-.712H95.6V47.5a6.355,6.355,0,0,1,1.971-1.75,5.2,5.2,0,0,1,2.652-.691,4.864,4.864,0,0,1,3.238.971,4.307,4.307,0,0,1,1.148,3.422v7.089q0,.978.377,1.264Zm18.554.262a1.617,1.617,0,0,0,.458.122v.7h-7.549v-.713a3.394,3.394,0,0,0,1.02-.157.428.428,0,0,0,.322-.4.94.94,0,0,0-.132-.395,8.947,8.947,0,0,0-.657-.925l-3.063-3.946-.711.718v3.328a2.243,2.243,0,0,0,.268,1.319,2.214,2.214,0,0,0,1.376.459V58.9h-7.713v-.713a2.8,2.8,0,0,0,1.208-.493,1.7,1.7,0,0,0,.356-1.284V41.462a1.633,1.633,0,0,0-.33-1.219,2.849,2.849,0,0,0-1.236-.472v-.713h6.065v12.63l4.106-3.745a2.451,2.451,0,0,0,.521-.622,1.1,1.1,0,0,0,.157-.468.571.571,0,0,0-.434-.587,7.012,7.012,0,0,0-1.477-.23v-.674h6.933v.674a7.79,7.79,0,0,0-1.579.314,6.091,6.091,0,0,0-2.022,1.263l-2.513,2.31,6.254,7.82a1.011,1.011,0,0,0,.371.322Zm22.53-11.988a2.066,2.066,0,0,0-.926.367,2.815,2.815,0,0,0-.688,1.1l-5.03,11.772h-.743l-3.325-9.067h-.134l-3.873,9.067h-.787l-4.788-11a10.9,10.9,0,0,0-.885-1.748,1.442,1.442,0,0,0-.948-.5V45.37h7.189v.712a2.651,2.651,0,0,0-.9.209.672.672,0,0,0-.346.674,1.127,1.127,0,0,0,.047.331,4.551,4.551,0,0,0,.19.49l2.506,5.756h.112l2.059-4.82a6.069,6.069,0,0,0-.252-.875,6.463,6.463,0,0,0-.428-1.079,1.264,1.264,0,0,0-.481-.508,3.828,3.828,0,0,0-.942-.174v-.712h7.562v.712a4.618,4.618,0,0,0-1.115.16.5.5,0,0,0-.417.5,2.494,2.494,0,0,0,.055.495A6.572,6.572,0,0,0,139,48l1.865,5.086,2.319-5.429c.03-.1.059-.188.079-.274a.977.977,0,0,0,.032-.246.8.8,0,0,0-.4-.807,3.59,3.59,0,0,0-1.176-.245v-.712h4.369Zm10.333,10.461a3.923,3.923,0,0,1-2.145.645,3.37,3.37,0,0,1-3.331-2.42,9.767,9.767,0,0,1-.632-3.049h8.237a8.845,8.845,0,0,0-.113-1.16,7.5,7.5,0,0,0-.786-2.637,5.359,5.359,0,0,0-2.165-2.106,6.244,6.244,0,0,0-3-.759,6.707,6.707,0,0,0-4.775,1.869,6.867,6.867,0,0,0-1.982,5.249q0,3.74,2.085,5.445a6.936,6.936,0,0,0,4.47,1.7,7.289,7.289,0,0,0,2.941-.562,8.314,8.314,0,0,0,3.472-3.107l-.742-.417a9.5,9.5,0,0,1-1.528,1.3Zm-5.663-9.376a1.719,1.719,0,0,1,1.728-1.19,1.6,1.6,0,0,1,1.641,1.03,11.425,11.425,0,0,1,.441,3.621h-4.338a10.767,10.767,0,0,1,.531-3.467Zm18.78,4.877a3.658,3.658,0,0,1,1.271,2.808,4.419,4.419,0,0,1-1.305,3.047,5.071,5.071,0,0,1-3.911,1.412,7.223,7.223,0,0,1-1.3-.121,15,15,0,0,1-1.618-.418L162.1,58.6c-.2-.065-.322-.105-.371-.113a.99.99,0,0,0-.181-.013.649.649,0,0,0-.466.191,2.948,2.948,0,0,0-.449.647h-.775V54.453h.9a4.586,4.586,0,0,0,1.771,2.968,4.731,4.731,0,0,0,2.66.865,2.748,2.748,0,0,0,1.834-.507,1.687,1.687,0,0,0,.586-1.338,1.735,1.735,0,0,0-.633-1.348,4.793,4.793,0,0,0-1.124-.645l-2.4-1.058a7.452,7.452,0,0,1-2.716-1.833,3.5,3.5,0,0,1-.839-2.333,3.911,3.911,0,0,1,1.313-2.941,5.123,5.123,0,0,1,3.663-1.236,8.552,8.552,0,0,1,2.181.3,8.343,8.343,0,0,0,1.435.3.842.842,0,0,0,.561-.147,1.132,1.132,0,0,0,.278-.418h.712v4.23h-.811a5.021,5.021,0,0,0-1.5-2.389,3.614,3.614,0,0,0-2.437-.9,2.151,2.151,0,0,0-1.606.545,1.659,1.659,0,0,0-.529,1.174,1.543,1.543,0,0,0,.474,1.031,5.013,5.013,0,0,0,1.74,1.088l1.768.775a9.4,9.4,0,0,1,2.4,1.392Zm11.6,3.594.772.337a6.605,6.605,0,0,1-1.356,1.96,5.1,5.1,0,0,1-5.391.941,2.734,2.734,0,0,1-1.653-2.711V46.643h-1.676v-.817q.427-.357,1.061-.84.843-.7,1.583-1.442a24.761,24.761,0,0,0,2.678-3.124h.815v4.942h3.081v1.279h-3.081V55.5a2.337,2.337,0,0,0,.207,1.035,1.08,1.08,0,0,0,1.051.65,1.473,1.473,0,0,0,1.059-.408,5.4,5.4,0,0,0,.85-1.133ZM224.011,30H68.226l.024.028A1.865,1.865,0,0,0,67.991,30H46.685V60.663A9.333,9.333,0,0,0,55.992,70H233.315V39.337A9.33,9.33,0,0,0,224.01,30ZM55.994,68.488a7.82,7.82,0,0,1-7.8-7.825V31.513H68.227l-.014-.014c.043,0,.079.014.126.014H190.49V60.589a9.932,9.932,0,0,0,4.02,7.9Zm175.812,0H197.518a8.666,8.666,0,0,1-5.518-7.9V31.513h32.01a7.82,7.82,0,0,1,7.8,7.825Z" style="fill:#fff"/></svg>