<svg xmlns="http://www.w3.org/2000/svg" viewBox="0 0 280 100"><title>Bank of Melbourne</title><polygon points="48.385 20 28.385 20 38.385 29.999 48.385 20" style="fill:#685ac0"/><polygon points="28.385 60 48.385 60 38.385 50 28.385 60" style="fill:#685ac0"/><polygon points="48.385 39.999 58.385 50 68.385 39.999 48.385 39.999" style="fill:#685ac0"/><polygon points="48.385 20 48.385 39.999 58.385 29.999 48.385 20" style="fill:#a094fc"/><polygon points="38.385 50 48.385 39.999 28.385 39.999 38.385 50" style="fill:#a094fc"/><polygon points="38.385 70 48.385 59.999 28.385 59.999 38.385 70" style="fill:#a094fc"/><polygon points="48.385 39.999 48.385 59.999 48.385 60 48.385 80 58.385 70 48.385 60 58.385 50 48.385 39.999" style="fill:#a094fc"/><polygon points="28.385 39.999 38.385 29.999 28.385 20 28.385 39.999" style="fill:#403489"/><polygon points="38.385 29.999 48.385 39.999 48.385 20 38.385 29.999" style="fill:#403489"/><polygon points="48.385 39.999 68.385 39.999 58.385 29.999 48.385 39.999" style="fill:#403489"/><polygon points="68.385 20 48.385 20 58.385 29.999 68.385 20" style="fill:#403489"/><polygon points="38.385 50 28.385 39.999 28.385 59.999 38.385 50" style="fill:#403489"/><polygon points="68.384 59.999 48.385 59.999 58.385 70 68.385 60 68.385 60 68.385 39.999 58.385 50 68.384 59.999" style="fill:#403489"/><polygon points="28.385 39.999 48.385 39.999 38.385 29.999 28.385 39.999" style="fill:#20024e"/><polygon points="68.385 39.999 68.385 20 58.385 29.999 68.385 39.999" style="fill:#20024e"/><polygon points="38.385 50 48.385 59.999 48.385 39.999 38.385 50" style="fill:#20024e"/><polygon points="48.385 60 68.385 60 58.385 50 48.385 60" style="fill:#20024e"/><polygon points="38.385 70 48.385 80 48.385 60 48.385 59.999 38.385 70" style="fill:#20024e"/><path d="M98.78,40.385c0-3.65-2.374-5.492-6.059-5.988v-.106c3.083-.638,5-2.2,5-5.386,0-4.464-3.366-6.271-8.894-6.271H78.938V24.9h1.491a1.282,1.282,0,0,1,1.1,1.169V43.964a1.28,1.28,0,0,1-1.1,1.133H78.938v2.337H89.213C94.953,47.434,98.78,45.2,98.78,40.385ZM85.635,25.15h3.082c3.26,0,4.89,1.027,4.89,4.039,0,2.905-1.63,4.11-4.925,4.11H85.635Zm0,19.806V35.712h3.331c4,0,5.526,1.351,5.526,4.5s-1.594,4.744-5.385,4.744Z" style="fill:#20024e"/><path d="M107.742,36.487c-4.284,0-7.334,1.806-7.334,5.632,0,3.687,2.48,5.529,6.026,5.529a6.779,6.779,0,0,0,5.669-2.515c.283,1.7,1.346,2.515,3.366,2.515a4.785,4.785,0,0,0,2.445-.566V45.168h-.957a1.319,1.319,0,0,1-.154,0h0a1.06,1.06,0,0,1-.98-1.133V34.148c0-4.109-2.551-5.49-6.909-5.49a16.125,16.125,0,0,0-7.263,1.452v2.941h1.769a6.692,6.692,0,0,1,4.819-1.736c2.373,0,3.755.851,3.755,3.224v2.444A17.061,17.061,0,0,0,107.742,36.487ZM112,39.108v4.04h0a5.651,5.651,0,0,1-4.355,2.05c-2.161,0-3.437-.918-3.437-3.185,0-2.3,1.631-3.26,4.323-3.26A17.76,17.76,0,0,1,112,39.108Z" style="fill:#20024e"/><path d="M121.523,32.271V44.213a1.057,1.057,0,0,1-.957.956h-1.382v2.268h8.751V45.169h-2.586V33.441a10.7,10.7,0,0,1,5.422-1.772c1.878,0,2.905.565,2.905,2.87v10.63h-2.551v2.267h8.468V45.168h-1.168a1.026,1.026,0,0,1-.922-.956V33.266c0-3.652-2.2-4.608-4.854-4.608a10.9,10.9,0,0,0-7.3,2.976v-.5c.035-1.772-.355-2.268-.886-2.268h-5.422v2.409h1.523A1.128,1.128,0,0,1,121.523,32.271Z" style="fill:#20024e"/><path d="M143.222,25.964V44.213a1.057,1.057,0,0,1-.955.956h-1.382v2.268h8.5V45.169h-2.339V41.841l2.693-2.657,5.6,8.256h4.252V45.172h-.531a2.158,2.158,0,0,1-1.559-1.1l-5.173-7.44,4.609-4.609a2.554,2.554,0,0,1,1.559-.746h.921V28.87h-7.688v2.409h.851c.673,0,.885.744.353,1.311l-5.881,5.988V23.591c0-.638-.248-.957-.708-.957h-5.568v2.338h1.491A1.126,1.126,0,0,1,143.222,25.964Z" style="fill:#20024e"/><path d="M176.808,47.648c5.351,0,9.461-3.543,9.461-9.424,0-5.953-4.11-9.566-9.461-9.566-5.314,0-9.459,3.613-9.459,9.566C167.349,44.105,171.494,47.648,176.808,47.648Zm0-16.405c3.221,0,5.489,2.406,5.49,7.014,0,4.539-2.269,6.911-5.49,6.911s-5.49-2.374-5.49-6.909C171.321,33.653,173.589,31.243,176.811,31.243Z" style="fill:#20024e"/><path d="M189.424,44.213a1.063,1.063,0,0,1-.992.956H187.12v2.267h8.894V45.168h-1.808a1.03,1.03,0,0,1-.956-.956V31.282h3.9V28.873h-3.893V27.381c0-2.054,1.1-2.409,2.729-2.409h1.771v-2.2a8.507,8.507,0,0,0-2.906-.425c-3.3,0-5.422,1.453-5.422,4.925V28.87h-2.445v2.409h2.443Z" style="fill:#20024e"/><path d="M94.338,71.605h-.106l-5.847-18.53h-9v2.339h1.453a1.251,1.251,0,0,1,1.1,1.17V74.477a1.246,1.246,0,0,1-1.1,1.134H79.386v2.27h8.467v-2.27h-2.8V55.805h.212l7.016,22.076h2.869L102.2,55.805h.248V75.611H99.685v2.27h9.462V75.609h-1.491a1.243,1.243,0,0,1-1.1-1.133V56.583a1.249,1.249,0,0,1,1.1-1.17h1.491V53.075h-8.892Z" style="fill:#20024e"/><path d="M118.5,59.1c-5.386,0-9.035,3.686-9.035,9.567,0,5.81,3.188,9.424,9.423,9.424a12.348,12.348,0,0,0,7.264-1.913V73.556h-2.2a5.442,5.442,0,0,1-4.783,2.091c-3.685,0-5.563-2.126-5.7-6.448h13.217c0-.143.036-.638.036-1.17C126.72,61.828,123.708,59.1,118.5,59.1Zm-4.961,7.8c.352-3.651,2.162-5.423,4.961-5.423,2.693,0,4.216,1.491,4.358,5.423Z" style="fill:#20024e"/><path d="M133.958,74.652V54.032c0-.638-.213-.957-.709-.957h-5.563v2.34h1.453a1.127,1.127,0,0,1,.991.992V74.654a1.062,1.062,0,0,1-.991.957h-1.347v2.265h8.5V75.608h-1.382A1.027,1.027,0,0,1,133.958,74.652Z" style="fill:#20024e"/><path d="M149.261,59.1a8.4,8.4,0,0,0-6.483,3.011V54.032c0-.638-.248-.957-.708-.957h-5.563v2.34H138a1.128,1.128,0,0,1,.957.992V77.879h2.054c.425,0,1.133-.78,1.452-1.949,1.242,1.273,2.836,2.161,5.812,2.163,3.933,0,8.113-2.48,8.113-9.743C156.383,61.3,152.769,59.1,149.261,59.1Zm-2.05,16.686a5.8,5.8,0,0,1-4.429-1.735V63.918a7.889,7.889,0,0,1,4.744-2.018c2.584,0,4.889,1.31,4.889,6.767h0C152.418,74.406,149.726,75.788,147.211,75.788Z" style="fill:#20024e"/><path d="M168.286,59.1c-5.315,0-9.46,3.614-9.46,9.567,0,5.881,4.145,9.424,9.46,9.424,5.351,0,9.461-3.543,9.461-9.424C177.747,62.714,173.64,59.1,168.286,59.1Zm0,16.511c-3.223,0-5.49-2.374-5.49-6.909,0-4.606,2.268-7.015,5.49-7.015s5.49,2.407,5.49,7.015C173.779,73.237,171.511,75.611,168.289,75.611Z" style="fill:#20024e"/><path d="M195.927,74.619V59.31h-6.488v2.412H192.1V73.483a9.892,9.892,0,0,1-5.281,1.843c-1.735,0-2.975-.6-2.975-3.012v-13h-6.168v2.41h1.382a1.058,1.058,0,0,1,.956.956V73.521c0,3.578,2.375,4.606,4.959,4.608a10.334,10.334,0,0,0,7.156-2.87v.461c0,1.736.355,2.161.852,2.161h5.352v-2.27H196.92A1.1,1.1,0,0,1,195.927,74.619Z" style="fill:#20024e"/><path d="M205.1,62.392v-.6c0-2.02-.354-2.481-.886-2.481h-5.422v2.412h1.524a1.127,1.127,0,0,1,.957.992v11.94a1.059,1.059,0,0,1-.957.957h-1.382v2.27h9.1v-2.27H205.1V64.341c1.382-1.2,3.011-1.877,5.847-1.877h.746V59.31a4.333,4.333,0,0,0-1.063-.142C208.039,59.168,206.409,60.727,205.1,62.392Z" style="fill:#20024e"/><path d="M231.421,74.652V63.706c0-3.652-2.2-4.609-4.854-4.609a10.916,10.916,0,0,0-7.3,2.977v-.5c.035-1.772-.354-2.268-.886-2.268h-5.422v2.412h1.524a1.129,1.129,0,0,1,.957.992v11.94a1.06,1.06,0,0,1-.957.957H213.1v2.266h8.748V75.609h-2.587V63.884a10.715,10.715,0,0,1,5.422-1.773c1.878,0,2.906.566,2.906,2.871V75.608H225.04v2.268h8.471V75.608h-1.169A1.025,1.025,0,0,1,231.421,74.652Z" style="fill:#20024e"/><path d="M251.615,68.029c0-6.2-3.012-8.929-8.22-8.929-5.386,0-9.035,3.686-9.035,9.567,0,5.81,3.189,9.424,9.424,9.424a12.347,12.347,0,0,0,7.263-1.913V73.556h-2.2a5.445,5.445,0,0,1-4.783,2.091c-3.685,0-5.563-2.126-5.705-6.448h13.216C251.579,69.056,251.615,68.561,251.615,68.029ZM238.434,66.9c.352-3.651,2.162-5.423,4.961-5.423,2.692,0,4.215,1.491,4.357,5.423Z" style="fill:#20024e"/></svg>