<svg xmlns="http://www.w3.org/2000/svg" viewBox="0 0 425.197 198.425"><title>Bank of Melbourne</title><polygon points="53.258 54.664 68.013 69.417 53.258 84.172 53.258 54.664" style="fill:#403489"/><polygon points="82.767 54.664 68.013 69.417 82.767 84.172 82.767 54.664" style="fill:#403489"/><polygon points="82.767 54.664 68.013 69.417 53.258 54.664 82.767 54.664" style="fill:#685ac0"/><polygon points="82.767 84.172 68.013 69.417 53.258 84.172 82.767 84.172" style="fill:#20024e"/><polygon points="82.767 84.172 97.521 69.417 112.276 84.172 82.767 84.172" style="fill:#403489"/><polygon points="82.767 54.664 97.521 69.417 112.276 54.664 82.767 54.664" style="fill:#403489"/><polygon points="82.767 54.664 97.521 69.417 82.767 84.172 82.767 54.664" style="fill:#a094fc"/><polygon points="112.276 54.664 97.521 69.417 112.276 84.172 112.276 54.664" style="fill:#20024e"/><polygon points="53.258 84.172 68.013 98.927 53.258 113.681 53.258 84.172" style="fill:#403489"/><polygon points="82.767 84.172 68.013 98.927 82.767 113.681 82.767 84.172" style="fill:#20024e"/><polygon points="82.767 84.172 68.013 98.927 53.258 84.172 82.767 84.172" style="fill:#a094fc"/><polygon points="82.767 113.682 68.013 98.927 53.258 113.682 82.767 113.682" style="fill:#685ac0"/><polygon points="82.767 113.682 97.521 98.927 112.276 113.682 82.767 113.682" style="fill:#20024e"/><polygon points="82.767 113.681 68.013 128.436 53.258 113.681 82.767 113.681" style="fill:#a094fc"/><polygon points="82.767 113.681 97.521 128.436 112.276 113.681 82.767 113.681" style="fill:#403489"/><polygon points="82.767 84.172 97.521 98.927 112.276 84.172 82.767 84.172" style="fill:#685ac0"/><polygon points="82.767 84.172 97.521 98.927 82.767 113.682 82.767 84.172" style="fill:#a094fc"/><polygon points="82.767 113.681 68.013 128.436 82.767 143.191 82.767 113.681" style="fill:#20024e"/><polygon points="82.767 113.681 97.521 128.436 82.767 143.191 82.767 113.681" style="fill:#a094fc"/><polygon points="112.276 84.172 97.521 98.927 112.276 113.682 112.276 84.172" style="fill:#403489"/><path d="M127.847,91.694h2.2a1.889,1.889,0,0,0,1.621-1.673v-26.4a1.893,1.893,0,0,0-1.621-1.725h-2.2V58.55h14.585c8.155,0,13.122,2.666,13.122,9.253,0,4.7-2.823,7.006-7.371,7.947v.156c5.437.732,8.939,3.45,8.939,8.835,0,7.11-5.646,10.4-14.115,10.4h-15.16Zm14.376-17.408c4.862,0,7.267-1.778,7.267-6.064,0-4.444-2.405-5.96-7.215-5.96h-4.548V74.286Zm.628,17.2c5.593,0,7.945-2.353,7.945-7s-2.247-6.64-8.154-6.64h-4.915V91.485Z" style="fill:#20024e"/><path d="M159.524,87.3c0-5.645,4.5-8.311,10.822-8.311a25.183,25.183,0,0,1,6.273.732V76.115c0-3.5-2.039-4.757-5.541-4.757a9.88,9.88,0,0,0-7.11,2.562h-2.614V69.581a23.8,23.8,0,0,1,10.717-2.143c6.43,0,10.194,2.038,10.194,8.1V90.126a1.563,1.563,0,0,0,1.672,1.672h1.412v2.824a7.058,7.058,0,0,1-3.607.836c-2.98,0-4.548-1.2-4.966-3.712a10,10,0,0,1-8.364,3.712C163.184,95.458,159.524,92.74,159.524,87.3Zm17.1,1.517v-5.96a26.19,26.19,0,0,0-5.123-.522c-3.973,0-6.378,1.411-6.378,4.809,0,3.346,1.882,4.7,5.071,4.7A8.335,8.335,0,0,0,176.619,88.819Z" style="fill:#20024e"/><path d="M187.228,91.8h2.039a1.561,1.561,0,0,0,1.412-1.411V72.77a1.664,1.664,0,0,0-1.412-1.464h-2.248V67.751h8c.784,0,1.359.732,1.307,3.346v.732a16.093,16.093,0,0,1,10.769-4.391c3.92,0,7.161,1.411,7.161,6.8V90.387a1.513,1.513,0,0,0,1.36,1.411h1.724v3.346H204.846V91.8h3.763V76.115c0-3.4-1.515-4.234-4.286-4.234a15.8,15.8,0,0,0-8,2.614V91.8h3.816v3.346H187.228Z" style="fill:#20024e"/><path d="M219.246,91.8h2.039a1.56,1.56,0,0,0,1.41-1.411V63.464A1.663,1.663,0,0,0,221.285,62h-2.2V58.55H227.3c.68,0,1.045.471,1.045,1.412V82.075l8.678-8.835c.785-.836.471-1.934-.521-1.934h-1.256V67.751h11.343v3.555h-1.359a3.766,3.766,0,0,0-2.3,1.1l-6.8,6.8,7.633,10.978a3.178,3.178,0,0,0,2.3,1.62h.783v3.346h-6.273l-8.26-12.181-3.973,3.921V91.8h3.451v3.346H219.246Z" style="fill:#20024e"/><path d="M258.292,81.552c0-8.782,6.116-14.114,13.957-14.114,7.895,0,13.959,5.332,13.959,14.114,0,8.678-6.064,13.906-13.959,13.906C264.408,95.458,258.292,90.23,258.292,81.552Zm22.061.052c0-6.8-3.346-10.351-8.1-10.351s-8.1,3.556-8.1,10.351c0,6.692,3.346,10.194,8.1,10.194S280.353,88.3,280.353,81.6Z" style="fill:#20024e"/><path d="M287.464,91.8H289.4a1.569,1.569,0,0,0,1.463-1.411V71.306h-3.608V67.751h3.608V65.4c0-5.124,3.136-7.267,8-7.267a12.523,12.523,0,0,1,4.287.627V62h-2.613c-2.405,0-4.026.523-4.026,3.555v2.2h5.75v3.555h-5.75V90.387a1.518,1.518,0,0,0,1.41,1.411h2.668v3.346H287.464Z" style="fill:#20024e"/><path d="M128.507,136.715h2.144a1.837,1.837,0,0,0,1.62-1.673v-26.4a1.845,1.845,0,0,0-1.62-1.726h-2.144v-3.45h13.279l8.626,27.341h.156l8.73-27.341h13.121v3.45h-2.2a1.845,1.845,0,0,0-1.621,1.726v26.4a1.837,1.837,0,0,0,1.621,1.673h2.2v3.346H158.461v-3.346h4.078V107.493h-.366l-10.4,32.568h-4.234l-10.351-32.568h-.313v29.222H141v3.346H128.507Z" style="fill:#20024e"/><path d="M172.887,126.469c0-8.677,5.385-14.115,13.331-14.115,7.685,0,12.128,4.025,12.128,13.174,0,.785-.053,1.516-.053,1.726h-19.5c.209,6.377,2.98,9.514,8.417,9.514,3.869,0,5.646-1.359,7.057-3.085h3.241v3.869c-2.142,1.411-5.227,2.823-10.717,2.823C177.592,140.375,172.887,135.042,172.887,126.469Zm19.761-2.613c-.209-5.8-2.457-8-6.43-8-4.13,0-6.8,2.614-7.319,8Z" style="fill:#20024e"/><path d="M199.928,136.715h1.987a1.567,1.567,0,0,0,1.463-1.411V108.381a1.665,1.665,0,0,0-1.463-1.464h-2.143v-3.45h8.207c.732,0,1.046.471,1.046,1.412V135.3a1.516,1.516,0,0,0,1.411,1.411h2.039v3.346H199.928Z" style="fill:#20024e"/><path d="M221.568,137.186c-.471,1.725-1.516,2.875-2.143,2.875h-3.031v-31.68a1.665,1.665,0,0,0-1.412-1.464h-2.195v-3.45h8.207c.679,0,1.045.471,1.045,1.412V116.8a12.389,12.389,0,0,1,9.566-4.443c5.176,0,10.508,3.242,10.508,13.645,0,10.716-6.168,14.376-11.971,14.376C225.751,140.375,223.4,139.068,221.568,137.186Zm14.689-10.717c0-8.051-3.4-9.984-7.213-9.984-2.666,0-5.123,1.463-7.005,2.978v14.953a8.555,8.555,0,0,0,6.535,2.561C232.285,136.977,236.257,134.938,236.257,126.469Z" style="fill:#20024e"/><path d="M245.718,126.469c0-8.783,6.115-14.115,13.957-14.115,7.895,0,13.959,5.332,13.959,14.115,0,8.678-6.064,13.906-13.959,13.906C251.833,140.375,245.718,135.147,245.718,126.469Zm22.061.053c0-6.8-3.346-10.351-8.1-10.351s-8.1,3.554-8.1,10.351c0,6.69,3.345,10.193,8.1,10.193S267.779,133.212,267.779,126.522Z" style="fill:#20024e"/><path d="M276.976,133.631v-16a1.56,1.56,0,0,0-1.41-1.411h-2.039v-3.555h9.1v19.186c0,3.555,1.83,4.443,4.39,4.443a14.589,14.589,0,0,0,7.791-2.718V116.223h-3.922v-3.555h9.567v22.584a1.618,1.618,0,0,0,1.465,1.463H304v3.346h-7.892c-.733,0-1.256-.627-1.256-3.188v-.68a15.242,15.242,0,0,1-10.559,4.234C280.48,140.427,276.976,138.911,276.976,133.631Z" style="fill:#20024e"/><path d="M304.89,136.715h2.039a1.561,1.561,0,0,0,1.412-1.411V117.686a1.664,1.664,0,0,0-1.412-1.463h-2.248v-3.555h8c.785,0,1.307.68,1.307,3.66v.888c1.935-2.457,4.34-4.757,8.156-4.757a6.319,6.319,0,0,1,1.568.209v4.653h-1.1c-4.184,0-6.588.993-8.627,2.77v16.624h4.34v3.346H304.89Z" style="fill:#20024e"/><path d="M325.8,136.715h2.039a1.561,1.561,0,0,0,1.412-1.411V117.686a1.664,1.664,0,0,0-1.412-1.463h-2.248v-3.555h8c.784,0,1.358.732,1.307,3.346v.732a16.1,16.1,0,0,1,10.768-4.392c3.921,0,7.162,1.412,7.162,6.8V135.3a1.512,1.512,0,0,0,1.359,1.411h1.725v3.346h-12.5v-3.346h3.766V121.032c0-3.4-1.517-4.235-4.287-4.235a15.81,15.81,0,0,0-8,2.615v17.3h3.816v3.346H325.8Z" style="fill:#20024e"/><path d="M357.164,126.469c0-8.677,5.384-14.115,13.33-14.115,7.685,0,12.129,4.025,12.129,13.174,0,.785-.053,1.516-.053,1.726h-19.5c.209,6.377,2.98,9.514,8.418,9.514,3.867,0,5.644-1.359,7.056-3.085h3.241v3.869c-2.143,1.411-5.227,2.823-10.717,2.823C361.869,140.375,357.164,135.042,357.164,126.469Zm19.759-2.613c-.209-5.8-2.457-8-6.429-8-4.129,0-6.8,2.614-7.319,8Z" style="fill:#20024e"/></svg>