<svg xmlns="http://www.w3.org/2000/svg" viewBox="0 0 3558.75 1623.75"><title>Bank SA</title><path d="M271.105,917.343c-37.079-3.557-69.114-14.5-91.451-31.251-7.36-5.518-16.4-14.517-27.5-27.373-2.951-3.419-5.392-5.144-6.875-4.859-3.254.624-5.267,7.557-5.382,18.535-.157,15.019-6.082,24.063-19.979,30.493-5.441,2.518-7.591,2.632-49.439,2.632-43.431,0-43.8-.022-50.349-2.982-9.225-4.169-17.2-13.294-19.014-21.752C.1,876.047-.175,773.35.1,504.27.461,153.264.594,134.063,2.69,130.228,6,124.166,13.3,117.405,19.744,114.424c5.511-2.549,7.5-2.654,50.736-2.654,44.853,0,45.019.01,50.625,2.948,7.2,3.77,13.327,9.556,16.36,15.44,2.3,4.458,2.393,8.8,2.461,111.875.052,79.656.454,108.359,1.562,111.6,2.15,6.282,5.216,6.26,10.667-.076,21.276-24.727,35.654-36.442,58.275-47.481,24.722-12.065,46.486-17.192,77.55-18.27,29.733-1.033,53.69,3.749,78.867,15.742,18.321,8.727,30.647,17.5,45.627,32.482,23.779,23.779,37.281,48.667,42.984,79.231,5.961,31.945,7.263,279.29,1.874,355.943-2.972,42.263-19.325,78-47.729,104.295-21.921,20.3-51.253,34.657-81.623,39.964-14.145,2.471-41.349,3.372-56.875,1.883ZM257.731,809.96c29.794-7.623,50.709-29.2,58.467-60.3,2.362-9.471,2.709-16.452,3.928-79.138,1.781-91.513-.011-181.078-3.926-196.25-10.047-38.937-37.573-61.072-79.47-63.9-35.119-2.374-72.014,15.067-90.573,42.816l-6.3,9.422V758.167l4.263,7.08c6.537,10.855,12.617,17.664,22.413,25.1,27.175,20.629,59.806,27.646,91.2,19.613Zm423.31,107.383c-34.26-3.056-67.762-14.041-93.363-30.613-14.762-9.556-36.326-31.492-44.563-45.33-7.18-12.064-13.642-28.618-17.377-44.514-3.682-15.671-3.954-62.761-.462-80.07,11.081-54.934,40.8-92.987,92.7-118.69,10.9-5.4,44.414-18.394,101.875-39.5,95.093-34.935,114.283-43.2,125.262-53.976,8.177-8.023,12.031-15.643,13.848-27.377,3-19.361-3.825-40.785-17.266-54.226-25.657-25.657-79.345-31.943-116.634-13.655-22.847,11.206-38.868,35.742-38.941,59.641-.035,11.359-2.359,17.139-9.928,24.692C665.892,504,664.414,504.27,617.98,504.27c-44.13,0-47.262-.474-56.442-8.555-8.422-7.414-10.373-12.609-10.4-27.695-.1-55.551,29.938-107.675,81.217-140.936,38.2-24.775,82.408-37.463,136.875-39.282,129.713-4.331,215.5,59.241,228.072,169.019.826,7.214,1.287,84.616,1.293,217.516l.01,206.317-3.223,6.469c-3.417,6.857-9.709,12.657-17.6,16.228-4.164,1.883-10.043,2.221-44.529,2.561-44.378.439-50.1-.191-59.32-6.528-9.033-6.209-13.121-13.736-14.007-25.79-1.234-16.8-4.575-17.41-19.7-3.623-38.2,34.823-98.546,52.781-159.181,47.372ZM794.855,812.557c29.708-10.106,51.112-30.607,60.855-58.287l3.52-10,.376-64.077c.333-56.843.157-64.161-1.555-64.818-1.96-.753-133.823,54.711-150.064,63.119-18.206,9.426-31.812,26.6-36.37,45.918-2.737,11.6-1.8,35.177,1.867,46.823,2.69,8.551,10.1,21.062,15.256,25.76s17.353,11.442,25.751,14.237c14.674,4.883,24.691,6.1,47.239,5.72,20.195-.337,21.84-.555,33.125-4.395ZM1116.979,904.4a35.867,35.867,0,0,1-20.249-15.19l-3.75-6-.321-275.693-.32-275.693,3.2-6.54c3.379-6.906,9.687-12.751,17.644-16.35,4.171-1.886,10.073-2.221,45.158-2.561,26.693-.259,42.669.088,47.177,1.024a36.6,36.6,0,0,1,22.419,15.561c3.294,5.305,3.787,7.413,4.427,18.958.758,13.646,2.414,17.634,6.65,16.008,1.157-.443,6.559-6.016,12.006-12.384,32.228-37.679,80.534-58.234,136.6-58.126,48.834.094,93.98,21.159,124.545,58.114,16.879,20.406,27.124,40.329,34.384,66.861l3.933,14.375.335,227.371.336,227.37-2.608,5.387c-3.113,6.43-9.584,12.385-17.375,15.99-5.349,2.475-8.113,2.656-46.313,3.035-48.282.479-52.187-.118-62.707-9.576-11.439-10.284-10.333,11.868-11.089-222.077-.747-231.349-.045-214.04-9.415-231.874-18.062-34.372-61.206-51-103.985-40.078a103.36,103.36,0,0,0-59.221,40.586l-6.083,8.633V880.654l-3.223,6.469c-3.418,6.857-9.709,12.657-17.6,16.228-4.206,1.9-9.97,2.2-46.673,2.435-31.541.2-43.356-.141-47.877-1.385Zm549.967-.01a37.954,37.954,0,0,1-20.181-14.327l-3.785-5.386-.319-374.485-.318-374.485,2.591-5.352c3.1-6.4,9.579-12.356,17.358-15.955,5.364-2.482,8.061-2.654,47.339-3.008,46.5-.419,50.56.092,60.4,7.6a36.819,36.819,0,0,1,8.833,10.757l3.491,6.682V332.455c0,124.342.446,197.2,1.219,199.232,1.886,4.96,6.316,4.187,12.073-2.106,2.674-2.922,40.453-47.325,83.955-98.675s81.9-95.888,85.336-98.974c10.781-9.694,10.951-9.716,71.99-9.288l53.552.375,6.25,3.21c3.437,1.766,7.57,5.141,9.184,7.5,2.5,3.66,2.848,5.4,2.353,11.827a39.94,39.94,0,0,1-3.121,12.5c-1.4,2.73-42.565,52.165-91.482,109.856S1924.19,573.8,1923.539,575.017a9.915,9.915,0,0,0-1.184,3.466c0,.689,45.755,65.324,101.678,143.635s102.04,143.736,102.482,145.392a52.091,52.091,0,0,1,.823,9.8c.023,9.007-3.71,16.594-10.419,21.176-10.137,6.924-11.11,7.031-63.939,7.031h-48.75l-7.108-3.491A60.125,60.125,0,0,1,1983.13,891.4c-3.786-3.924-47.748-65.634-97.693-137.134s-91.946-130.984-93.335-132.187c-3.559-3.084-6.6-2.718-8.3,1-1.07,2.348-1.458,36.552-1.478,130.312-.026,121.3-.134,127.364-2.355,132.255-3.043,6.7-9.514,13.064-17.124,16.839-6.074,3.013-6.426,3.037-47.994,3.3-31.643.2-43.349-.139-47.909-1.394Z" style="fill:#003e75"/><path d="M3506.413,1620.41c-8.416-4.194-12.973-9.673-24.7-29.7-21.386-36.519-57.422-88.061-84.906-121.439-39.328-47.762-88.992-97.7-137.515-138.271-101.5-84.867-229.394-156.912-371.875-209.482-150.449-55.511-322.126-91.2-497.644-103.461-33.756-2.358-99.166-4.6-120.577-4.137-20.393.443-26.654-1.414-36.245-10.752-11.7-11.395-10.592,42.744-10.23-498.932l.321-478.715,2.707-5.056c3.737-6.98,12.489-14.716,19.866-17.561C2251.659.571,2265.32.52,2891.165.52H3530.54l7.052,3.463c9.4,4.615,16.668,12.651,19.14,21.153,1.749,6.018,1.911,84.639,1.625,789.784l-.317,783.1-3.115,6.1C3546.36,1620.891,3523.072,1628.711,3506.413,1620.41ZM2596.79,923.588c45.975-3.406,83.768-12.51,116.516-28.067q87.668-41.644,106.736-135.251c3.407-16.781,4.718-61.519,2.44-83.307-5.486-52.493-23.265-92.148-56.877-126.861-27.556-28.46-39.277-36.338-148.184-99.6-92.021-53.454-101.546-59.258-116.881-71.222-30.342-23.671-42.006-48.5-40.228-85.633,1.338-27.949,8.843-46.768,25.2-63.195,19.414-19.5,44.192-28.261,79.811-28.225,34.725.034,56.753,8.277,77.286,28.921,9.005,9.053,11.776,12.849,16.52,22.626,8.767,18.07,10.854,28.463,11.647,58,.641,23.9.814,25.267,3.925,31.07,4.014,7.484,10.046,12.591,18.7,15.831,6.154,2.3,9.828,2.474,53.294,2.474,55.263,0,55.914-.108,67.047-11.2,9.978-9.94,10.372-11.985,9.576-49.7-.737-34.887-3.018-49.481-11.577-74.072-25.475-73.188-89.975-121.474-181.946-136.207-85.98-13.774-174.422,1.131-231.072,38.941-57.5,38.375-88.626,96.109-92.066,170.748-3.079,66.809,24.566,134.417,70.989,173.605,15.221,12.849,17.282,14.129,115.4,71.63,103.084,60.414,111.849,65.813,128.282,79.016,13.526,10.868,21.907,20.021,30.091,32.865,11.806,18.53,16.408,34.886,16.355,58.125-.105,46.224-19.1,72.026-61.444,83.476-11.233,3.038-13.865,3.256-39.534,3.277-24.632.02-28.536-.267-37.433-2.751-33.749-9.427-56.733-30.917-65.787-61.511-2.482-8.386-2.851-13.17-3.526-45.717l-.754-36.352-3.787-6.148c-4.114-6.681-13-13.438-20.367-15.483-2.763-.768-23.783-1.275-52.721-1.271-47.936,0-48.15.016-54.457,2.953-8.444,3.932-14.734,9.642-17.8,16.155-2.195,4.67-2.627,9.068-3.4,34.673-1.94,63.823,7.238,103.763,32.587,141.824,45.739,68.676,141.357,104.171,257.446,95.569Zm401.025-17.533c6.17-1.713,13.683-8.546,16.883-15.354,1.389-2.954,10.741-36.547,20.782-74.651s18.793-70.548,19.447-72.1l1.189-2.819,119.019.319,119.018.318,18.976,71.64c10.437,39.4,19.958,73.819,21.159,76.483a35.13,35.13,0,0,0,13.675,14.78c3.416,1.872,9.66,2.1,58.2,2.1,53.279,0,54.476-.054,59.375-2.691,10.267-5.525,15.174-14.333,13.793-24.758-1.478-11.147-191.7-749.858-194.491-755.285-2.938-5.715-9.605-11.006-16.277-12.92-2.6-.745-39.547-1.21-94.892-1.193-88.525.027-90.764.087-96.258,2.577-6.438,2.919-10.749,6.6-13.168,11.249-2.816,5.41-193.34,748.721-194.019,756.942-.528,6.4-.164,8.5,2.2,12.7a25.9,25.9,0,0,0,15.517,12.239c6.6,2.066,102.63,2.436,109.876.424Zm87.1-284.376c0-3.114,85.184-348.362,86.454-350.4,2.124-3.4,4.277-3.344,6.57.175,1.008,1.547,20.724,80.156,43.813,174.687s42.284,172.86,42.656,174.063c.639,2.069-4.19,2.187-89.409,2.187-49.546,0-90.084-.322-90.084-.716Z" style="fill:#e91b2a"/></svg>
