<svg xmlns="http://www.w3.org/2000/svg" xmlns:xlink="http://www.w3.org/1999/xlink" viewBox="0 0 280 100"><defs><clipPath id="a"><path d="M49.443,30.158,17.363,10V55.532l32.08,21.024Z" style="fill:none"/></clipPath><linearGradient id="b" x1="40.829" y1="677.74" x2="26.184" y2="666.934" gradientTransform="matrix(1, 0, 0, -1, 0, 750)" gradientUnits="userSpaceOnUse"><stop offset="0" stop-color="#ef7d00"/><stop offset="1" stop-color="#ea5153"/></linearGradient></defs><title>Bank Australia Alternate</title><g style="clip-path:url(#a)"><polygon points="28.598 76.556 22.714 67.364 49.443 52.323 49.443 76.556 28.598 76.556" style="fill:#e9218e"/><polygon points="22.714 67.364 21.725 65.821 49.443 50.224 49.443 52.323 22.714 67.364" style="fill:#e9218e"/><polygon points="21.725 65.821 20.737 64.277 49.443 48.124 49.443 50.224 21.725 65.821" style="fill:#e91e8d"/><polygon points="20.737 64.277 19.749 62.734 49.443 46.024 49.443 48.124 20.737 64.277" style="fill:#e91c8b"/><polygon points="19.749 62.734 18.761 61.19 49.443 43.925 49.443 46.024 19.749 62.734" style="fill:#e8198a"/><polygon points="18.761 61.19 17.773 59.646 49.443 41.825 49.443 43.925 18.761 61.19" style="fill:#e81689"/><polygon points="17.773 59.646 17.363 59.007 17.363 57.777 49.443 39.725 49.443 41.825 17.773 59.646" style="fill:#e81387"/><polygon points="17.363 55.677 49.443 37.626 49.443 39.725 17.363 57.777 17.363 55.677" style="fill:#e81186"/><polygon points="17.363 53.578 49.443 35.526 49.443 37.626 17.363 55.677 17.363 53.578" style="fill:#e70e85"/><polygon points="17.363 51.478 49.443 33.426 49.443 35.526 17.363 53.578 17.363 51.478" style="fill:#e70b83"/><polygon points="17.363 49.378 49.443 31.326 49.443 33.426 17.363 51.478 17.363 49.378" style="fill:#e70882"/><polygon points="17.363 47.279 49.443 29.227 49.443 31.326 17.363 49.378 17.363 47.279" style="fill:#e70681"/><polygon points="17.363 45.179 49.443 27.127 49.443 29.227 17.363 47.279 17.363 45.179" style="fill:#e6037f"/><polygon points="17.363 43.079 48.664 25.466 49.443 26.683 49.443 27.127 17.363 45.179 17.363 43.079" style="fill:#e6007e"/><polygon points="17.363 40.299 47.356 23.422 48.664 25.466 17.363 43.079 17.363 40.299" style="fill:#e6007e"/><polygon points="17.363 37.519 46.047 21.378 47.356 23.422 17.363 40.299 17.363 37.519" style="fill:#e3007e"/><polygon points="17.363 34.739 44.739 19.334 46.047 21.378 17.363 37.519 17.363 34.739" style="fill:#e0007e"/><polygon points="17.363 31.959 43.43 17.29 44.739 19.334 17.363 34.739 17.363 31.959" style="fill:#de007e"/><polygon points="17.363 29.178 42.122 15.246 43.43 17.29 17.363 31.959 17.363 29.178" style="fill:#db007e"/><polygon points="17.363 26.398 40.814 13.203 42.122 15.246 17.363 29.178 17.363 26.398" style="fill:#d8007e"/><polygon points="17.363 23.618 39.505 11.159 40.814 13.203 17.363 26.398 17.363 23.618" style="fill:#d5017f"/><polygon points="17.363 20.838 36.624 10 38.763 10 39.505 11.159 17.363 23.618 17.363 20.838" style="fill:#d2017f"/><polygon points="17.363 18.058 31.683 10 36.624 10 17.363 20.838 17.363 18.058" style="fill:#cf017f"/><polygon points="17.363 15.278 26.742 10 31.683 10 17.363 18.058 17.363 15.278" style="fill:#cd017f"/><polygon points="17.363 12.497 21.802 10 26.742 10 17.363 15.278 17.363 12.497" style="fill:#ca017f"/><polygon points="21.802 10 17.363 12.497 17.363 10 21.802 10" style="fill:#c7017f"/></g><path d="M32.5,65.452,49.443,53.183V76.556Z" style="fill:#e30613"/><path d="M31.968,67.45V90l16.29-11.873Z" style="fill:url(#b)"/><path d="M113.969,41.164v0a7.124,7.124,0,0,0-1.176.1,6.109,6.109,0,0,0-4.966,3.4l-.073.157V42.376c0-.748-1-.748-1-.748s-1,0-1,.745V59.382h2.1V48.737a5.5,5.5,0,0,1,5.288-5.712h.181c2.429,0,4.073,1.39,4.073,4.715V59.382h2.107V46.772C119.507,43.665,117.684,41.164,113.969,41.164Z" style="fill:#333332"/><path d="M243.914,41.628l0,0s-1.052-.017-1.052.706V59.387h2.106V42.335C244.966,41.635,243.914,41.628,243.914,41.628Z" style="fill:#333332"/><path d="M201.04,55.242V43.33h4.322V41.613H201.04V36.74c0-.722-1.049-.722-1.049-.722-.126,0-1.054,0-1.054.715v4.884h-2.366v1.712h2.366V55.813c0,3,2.068,3.852,4.28,3.852a12.487,12.487,0,0,0,3.317-.464V57.379a11.307,11.307,0,0,1-2.712.392C202,57.775,201.04,57.169,201.04,55.242Z" style="fill:#333332"/><path d="M100.665,56.964v2.418h2V42.335c0-.71-1.007-.711-1.007-.711s-.993,0-.993.711v1.524l-.148-.22a5.669,5.669,0,0,0-4.941-2.452c-4.448,0-7.659,3.783-7.659,9.56,0,4.9,2.275,8.954,7.359,8.954A6.038,6.038,0,0,0,100.665,56.964Zm-10.61-6.379c0-4.676,2.158-7.664,5.673-7.664a5.493,5.493,0,0,1,4.838,2.867v5.265c0,3.176-.279,4.383-1.254,5.508A4.838,4.838,0,0,1,95.484,58C91.343,58,90.055,54.276,90.055,50.585Z" style="fill:#333332"/><path d="M124.515,53.25l3.46-3.643,5.805,9.776h2.354L129.44,48.109h0l6.062-6.491h-2.568l-8.421,9.2V34.6c0-.722-1.051-.722-1.051-.722s-1.052,0-1.052.722V59.382h2.1Z" style="fill:#333332"/><path d="M230.947,41.624s-.993,0-.993.711v1.524l-.148-.22a5.669,5.669,0,0,0-4.941-2.452c-4.448,0-7.659,3.783-7.659,9.56,0,4.9,2.275,8.954,7.358,8.954a6.037,6.037,0,0,0,5.388-2.737v2.418h2V42.335C231.955,41.625,230.947,41.624,230.947,41.624ZM228.6,56.561A4.842,4.842,0,0,1,224.771,58c-4.142,0-5.43-3.727-5.43-7.418,0-4.676,2.158-7.664,5.673-7.664a5.493,5.493,0,0,1,4.838,2.867l0,5.266C229.854,54.229,229.575,55.436,228.6,56.561Z" style="fill:#333332"/><path d="M237.2,55.734a2.242,2.242,0,0,1-.009-.456V34.594c0-.715-1.054-.718-1.054-.718s-1.048,0-1.053.718V55.136c0,2.207.892,4.387,4,4.387a10.5,10.5,0,0,0,1.688-.149V57.68a9.471,9.471,0,0,1-1.01.06A2.3,2.3,0,0,1,237.2,55.734Z" style="fill:#333332"/><path d="M217.35,41.374h0l-.3-.006a6.893,6.893,0,0,0-6.6,4.031l-.071.14v-3.2c0-.718-1.018-.722-1.018-.722s-1.017,0-1.017.722V59.382h2.106v-8.77a8.325,8.325,0,0,1,1.483-5.069,5.927,5.927,0,0,1,4.721-2.214c.2,0,.435,0,.69.011Z" style="fill:#333332"/><path d="M155.74,34.845a1.54,1.54,0,0,0-1.414-1h-.049a1.552,1.552,0,0,0-1.435,1.04l-9.151,24.5h2.195l2.811-7.7a.678.678,0,0,1,.617-.363h9.734a.668.668,0,0,1,.611.354l2.743,7.709h2.331Zm-6.215,14.584,4.669-12.8.056-.056.058.056,4.559,12.8Z" style="fill:#333332"/><path d="M78.4,59.381c3.887,0,7.669-2.212,7.669-7.026a6.087,6.087,0,0,0-5.582-6.212,6.1,6.1,0,0,0,4.833-6.023c0-4.1-2.818-6.242-7.1-6.242H69.969a1.128,1.128,0,0,0-1.124,1.128V58.268a1.121,1.121,0,0,0,1.018,1.113Zm5.386-7.1v0c0,3.567-2.6,5.171-5.92,5.171H71.643a.559.559,0,0,1-.55-.52V47.25h6.7C81.114,47.25,83.79,48.784,83.79,52.279Zm-12.7-15.961a.558.558,0,0,1,.54-.519H77.7c3.03,0,5.42,1.392,5.42,4.673,0,3.353-2.747,4.851-5.742,4.851H71.093Z" style="fill:#333332"/><path d="M261.628,41.624s-.993,0-.993.711v1.524l-.148-.22a5.668,5.668,0,0,0-4.94-2.452c-4.449,0-7.659,3.783-7.659,9.56,0,4.9,2.274,8.954,7.358,8.954a6.039,6.039,0,0,0,5.388-2.737v2.418h2V42.335C262.637,41.625,261.628,41.624,261.628,41.624Zm-2.343,14.937A4.84,4.84,0,0,1,255.454,58c-4.142,0-5.429-3.726-5.429-7.417,0-4.676,2.157-7.664,5.673-7.664a5.494,5.494,0,0,1,4.838,2.867l0,5.265C260.538,54.229,260.259,55.436,259.285,56.561Z" style="fill:#333332"/><path d="M243.983,35.755h-.146a1.121,1.121,0,0,0-1.131,1.111v.376a1.121,1.121,0,0,0,1.131,1.108h.146a1.121,1.121,0,0,0,1.131-1.112v-.372h0A1.121,1.121,0,0,0,243.983,35.755Z" style="fill:#333332"/><path d="M195.41,54.135c0-2.6-1.746-3.924-4.243-4.5v0l-2.64-.572c-2.6-.572-4.031-1.283-4.031-3.138,0-1.819,1.57-3.138,3.924-3.138a7.077,7.077,0,0,1,4.708,1.5l1.39-1.177c-1.355-1.39-3.424-1.962-5.92-1.962-3.925,0-6.172,2.247-6.172,5.137,0,2.5,1.892,3.924,5.03,4.53l1.962.428c2.461.463,3.818,1.144,3.818,3.317,0,2.282-2.32,3.531-4.6,3.531a7.449,7.449,0,0,1-5.529-2.141l-1.426,1.213c1.635,1.891,4.17,2.6,6.991,2.6C192.022,59.771,195.41,57.881,195.41,54.135Z" style="fill:#333332"/><path d="M179.688,59.382V42.335c0-.709-1.046-.709-1.046-.709v0s-1.056,0-1.056.71v9.8a5.5,5.5,0,0,1-5.289,5.712h0c-.06,0-.12,0-.18,0-2.429,0-4.072-1.39-4.072-4.715V42.335c0-.709-1.055-.709-1.055-.709s-1.053,0-1.053.709V54.092c0,3.107,1.822,5.609,5.537,5.609a7.243,7.243,0,0,0,1.176-.1,6.11,6.11,0,0,0,4.966-3.4l.073-.156v3.333Z" style="fill:#333332"/><path d="M93.934,68.714H91.027v7.837h.981V73.514h1.937a2.625,2.625,0,0,0,1.922-.655h0a2.427,2.427,0,0,0,.652-1.78,2.388,2.388,0,0,0-.6-1.657A2.58,2.58,0,0,0,93.934,68.714Zm-.014,3.9H92.008V69.609h1.9c.972,0,1.591.476,1.589,1.47C95.5,72.129,94.969,72.614,93.92,72.614Z" style="fill:#333332"/><path d="M87.023,72.178c-.435-.066-.865-.143-1.308-.2-.585-.08-1.17-.4-1.17-1.106a1.247,1.247,0,0,1,.32-.851,2.045,2.045,0,0,1,2.774,0,1.642,1.642,0,0,1,.386.981h1.032a2.343,2.343,0,0,0-.751-1.679,2.94,2.94,0,0,0-2.034-.751,2.911,2.911,0,0,0-2.056.773,2.163,2.163,0,0,0-.685,1.547c0,1.249.916,1.9,2.089,2.078l1.238.187c.928.144,1.316.653,1.316,1.261a1.156,1.156,0,0,1-.4.917,2.054,2.054,0,0,1-1.459.453,2.21,2.21,0,0,1-1.5-.49,1.784,1.784,0,0,1-.556-1.238H83.23a2.591,2.591,0,0,0,.84,1.881,3.236,3.236,0,0,0,2.243.751,3.194,3.194,0,0,0,2.221-.785l0,0A2.035,2.035,0,0,0,89.2,74.4,2.245,2.245,0,0,0,87.023,72.178Z" style="fill:#333332"/><path d="M102.835,69.411a3.075,3.075,0,0,0-4.222,0,4.231,4.231,0,0,0-1,3.226,4.235,4.235,0,0,0,1,3.228,3.075,3.075,0,0,0,4.222,0h0a4.234,4.234,0,0,0,1.007-3.227A4.233,4.233,0,0,0,102.835,69.411Zm-.685,5.769a2.027,2.027,0,0,1-2.851,0,3.615,3.615,0,0,1-.675-2.543A3.615,3.615,0,0,1,99.3,70.1a2.027,2.027,0,0,1,2.851,0v0a3.614,3.614,0,0,1,.675,2.545A3.62,3.62,0,0,1,102.15,75.18Z" style="fill:#333332"/><polygon points="76.814 76.551 82.048 76.551 82.048 75.644 77.797 75.644 77.797 72.936 81.537 72.936 81.537 72.008 77.801 72.008 77.801 69.62 82.052 69.62 82.052 68.714 76.814 68.714 76.814 76.551" style="fill:#333332"/><path d="M74.413,72.549A2.1,2.1,0,0,0,75.01,71a2.221,2.221,0,0,0-.619-1.591,2.644,2.644,0,0,0-1.99-.7H69.329v7.837h.982V73.289h2.165l1.481,3.262h1.086L73.472,73.1A2.231,2.231,0,0,0,74.413,72.549ZM72.4,72.372H70.311V69.62H72.4c.928,0,1.591.387,1.591,1.383S73.327,72.372,72.4,72.372Z" style="fill:#333332"/><path d="M152.829,72.475a1.787,1.787,0,0,0,1.127-1.734,1.837,1.837,0,0,0-.507-1.308,2.635,2.635,0,0,0-1.912-.719H148.41v7.841h3.16a2.706,2.706,0,0,0,1.967-.719h0a2.084,2.084,0,0,0,.6-1.472A1.972,1.972,0,0,0,152.829,72.475Zm-3.458-2.884h2.166v-.007c.044-.005.088-.008.131-.009a1.263,1.263,0,0,1,1.284,1.241c0,.873-.564,1.238-1.382,1.238h-2.2Zm2.2,6.052h-2.2V72.918h2.222v-.007a.628.628,0,0,1,.106-.006h0a1.408,1.408,0,0,1,1.427,1.39C153.128,75.222,152.431,75.643,151.57,75.643Z" style="fill:#333332"/><path d="M157.76,68.719,155,76.555h1l.628-1.858h3.405l.641,1.858h1.018l-2.774-7.836Zm-.828,5.045,1.382-4.068,1.39,4.068Z" style="fill:#333332"/><polygon points="187.272 75.037 183.425 68.714 182.32 68.714 182.32 76.551 183.27 76.551 183.27 70.251 187.113 76.551 188.222 76.551 188.222 68.714 187.272 68.714 187.272 75.037" style="fill:#333332"/><rect x="178.937" y="68.714" width="1.005" height="7.836" style="fill:#333332"/><path d="M193.214,73.244h2.1a2.74,2.74,0,0,1-.674,1.99,2,2,0,0,1-1.426.542,1.911,1.911,0,0,1-1.4-.564,3.717,3.717,0,0,1-.707-2.577,3.624,3.624,0,0,1,.685-2.541,1.985,1.985,0,0,1,1.426-.6,1.922,1.922,0,0,1,1.536.619,1.474,1.474,0,0,1,.355.861h1.023a2.349,2.349,0,0,0-.675-1.525,3.055,3.055,0,0,0-2.243-.883,3,3,0,0,0-2.111.839,4.241,4.241,0,0,0-1.017,3.226A4.261,4.261,0,0,0,191.1,75.9a2.966,2.966,0,0,0,2.111.808,2.549,2.549,0,0,0,2.134-1.093l.163.939h.691V72.328h-2.984Z" style="fill:#333332"/><polygon points="110.66 75.037 106.813 68.714 105.708 68.714 105.708 76.551 106.658 76.551 106.658 70.255 110.501 76.555 111.61 76.551 111.61 68.714 110.66 68.714 110.66 75.037" style="fill:#333332"/><polygon points="168.121 75.037 164.273 68.714 163.168 68.714 163.168 76.551 164.119 76.551 164.119 70.251 167.961 76.551 169.071 76.551 169.071 68.714 168.121 68.714 168.121 75.037" style="fill:#333332"/><polygon points="177.251 68.714 176.025 68.714 172.433 72.892 172.433 68.714 171.452 68.714 171.452 76.551 172.433 76.551 172.433 74.343 174.024 72.483 176.368 76.551 176.371 76.551 177.515 76.551 174.697 71.698 177.251 68.714" style="fill:#333332"/><rect x="121.179" y="68.714" width="1.005" height="7.839" transform="translate(-0.295 0.496) rotate(-0.233)" style="fill:#333332"/><polygon points="138.079 76.555 143.317 76.551 143.317 75.644 139.065 75.644 139.065 72.936 142.801 72.936 142.801 72.008 139.065 72.008 139.065 69.62 143.317 69.62 143.317 68.714 138.079 68.714 138.079 76.555" style="fill:#333332"/><path d="M117.178,72.176c-.436-.066-.865-.144-1.308-.2-.585-.079-1.17-.4-1.17-1.106a1.235,1.235,0,0,1,.32-.85,2.043,2.043,0,0,1,2.774,0,1.646,1.646,0,0,1,.386.981h1.028a2.345,2.345,0,0,0-.751-1.679,3.124,3.124,0,0,0-4.091.022,2.162,2.162,0,0,0-.685,1.547c0,1.249.917,1.9,2.089,2.078l1.239.187c.928.144,1.315.653,1.315,1.261a1.154,1.154,0,0,1-.4.916,2.055,2.055,0,0,1-1.46.461,2.21,2.21,0,0,1-1.5-.49,1.784,1.784,0,0,1-.552-1.239h-1.029a2.6,2.6,0,0,0,.84,1.881,3.237,3.237,0,0,0,2.243.751,3.2,3.2,0,0,0,2.222-.785l.006,0a2.026,2.026,0,0,0,.663-1.513A2.243,2.243,0,0,0,117.178,72.176Z" style="fill:#333332"/><path d="M128.761,72.475a1.787,1.787,0,0,0,1.126-1.734,1.833,1.833,0,0,0-.507-1.308,2.635,2.635,0,0,0-1.912-.719h-3.127v7.841h3.16a2.708,2.708,0,0,0,1.968-.719h0a2.084,2.084,0,0,0,.6-1.472A1.973,1.973,0,0,0,128.761,72.475ZM125.3,69.591h2.166v-.007q.066-.008.132-.009a1.262,1.262,0,0,1,1.283,1.241c0,.873-.564,1.238-1.381,1.238h-2.2Zm2.2,6.052h-2.2V72.918h2.222v-.007a.605.605,0,0,1,.1-.006h0a1.41,1.41,0,0,1,1.429,1.39C129.06,75.222,128.363,75.643,127.5,75.643Z" style="fill:#333332"/><polygon points="132.877 68.714 131.896 68.714 131.896 76.555 136.648 76.551 136.648 75.633 132.877 75.633 132.877 68.714" style="fill:#333332"/></svg>