<svg xmlns="http://www.w3.org/2000/svg" xmlns:xlink="http://www.w3.org/1999/xlink" viewBox="0 0 300 100"><defs><linearGradient id="a" x1="1308.729" y1="1457.145" x2="1259.109" y2="1492.063" gradientTransform="matrix(0, 1, -1, -0.141, 1487.416, -1046.509)" gradientUnits="userSpaceOnUse"><stop offset="0" stop-color="#e9218e"/><stop offset="0.45" stop-color="#e6007e"/><stop offset="1" stop-color="#c7017f"/></linearGradient><linearGradient id="b" x1="28.701" y1="25.898" x2="10.788" y2="12.682" gradientTransform="matrix(1, 0, 0, -1, 0, 102)" gradientUnits="userSpaceOnUse"><stop offset="0" stop-color="#ef7d00"/><stop offset="1" stop-color="#ea5153"/></linearGradient></defs><title>Bank Australi</title><path d="M39.238,24.606,0-.05V55.641L39.238,81.356Z" style="fill:url(#a)"/><path d="M18.515,67.775,39.238,52.768V81.356Z" style="fill:#e30613"/><path d="M17.863,70.219V97.8L37.788,83.278Z" style="fill:url(#b)"/><path d="M137.084,46.562l8.187,13.79h-2.879l-7.1-11.958-4.232,4.451v7.507h-2.573V30.04c0-.879,1.286-.883,1.286-.883s1.286,0,1.286.883V49.879l10.3-11.256H144.5l-7.415,7.939ZM84.04,51.755c0,5.889-4.625,8.594-9.38,8.594H64.214a1.369,1.369,0,0,1-1.245-1.361V30.536a1.379,1.379,0,0,1,1.374-1.38h10.1c5.235,0,8.682,2.618,8.682,7.634a7.458,7.458,0,0,1-5.912,7.367A7.445,7.445,0,0,1,84.04,51.755Zm-18.323-8.6H73.4c3.664,0,7.024-1.833,7.024-5.934,0-4.013-2.924-5.715-6.63-5.715H66.378a.683.683,0,0,0-.66.634V43.16Zm15.531,8.508c0-4.275-3.273-6.152-7.33-6.152h-8.2V57.357a.684.684,0,0,0,.673.636h7.616C78.063,57.993,81.248,56.031,81.248,51.668Zm36.913-13.6a8.732,8.732,0,0,0-1.439.119,7.475,7.475,0,0,0-6.074,4.156l-.089.191V39.546c0-.915-1.223-.915-1.223-.915s-1.223,0-1.223.911V60.35h2.573V47.33a6.733,6.733,0,0,1,6.69-6.991c2.971,0,4.981,1.7,4.981,5.767V60.35h2.578V44.927C124.933,41.125,122.705,38.067,118.161,38.067ZM104.338,39.5V60.351h-2.45V57.393A7.383,7.383,0,0,1,95.3,60.74c-6.218,0-9-4.959-9-10.951,0-7.066,3.927-11.694,9.368-11.694a6.934,6.934,0,0,1,6.043,3l.181.269V39.5c0-.87,1.214-.87,1.214-.87S104.338,38.631,104.338,39.5Zm-2.571,4.223a6.719,6.719,0,0,0-5.917-3.507c-4.3,0-6.939,3.655-6.939,9.374,0,4.515,1.575,9.073,6.641,9.073a5.92,5.92,0,0,0,4.683-1.763c1.192-1.376,1.533-2.853,1.533-6.737ZM262.473,39.5V60.351h-2.45V57.393a7.383,7.383,0,0,1-6.59,3.347c-6.218,0-9-4.959-9-10.951,0-7.066,3.927-11.694,9.368-11.694a6.934,6.934,0,0,1,6.043,3l.181.269V39.5c0-.87,1.214-.87,1.214-.87S262.473,38.631,262.473,39.5ZM259.9,43.722a6.719,6.719,0,0,0-5.917-3.507c-4.3,0-6.939,3.655-6.939,9.374,0,4.515,1.575,9.073,6.641,9.073A5.92,5.92,0,0,0,258.37,56.9c1.192-1.376,1.533-2.853,1.533-6.737ZM300,39.5V60.351h-2.45V57.393a7.383,7.383,0,0,1-6.59,3.347c-6.218,0-9-4.959-9-10.951,0-7.066,3.927-11.694,9.368-11.694a6.934,6.934,0,0,1,6.043,3l.181.269V39.5c0-.87,1.214-.87,1.214-.87S300,38.631,300,39.5Zm-2.57,4.223a6.719,6.719,0,0,0-5.917-3.507c-4.3,0-6.939,3.655-6.939,9.374,0,4.515,1.575,9.073,6.641,9.073A5.92,5.92,0,0,0,295.9,56.9c1.192-1.376,1.533-2.853,1.533-6.737ZM224.659,55.287V40.717h5.287V38.622h-5.287V32.656h0c0-.883-1.283-.883-1.283-.883-.153,0-1.289,0-1.289.875v5.973h-2.894v2.095h2.894V55.985c0,3.665,2.53,4.711,5.235,4.711a15.242,15.242,0,0,0,4.057-.567V57.9a13.827,13.827,0,0,1-3.317.48C225.837,58.385,224.659,57.643,224.659,55.287ZM244.61,38.324l-.364-.007a8.432,8.432,0,0,0-8.07,4.93l-.087.172V39.505c0-.879-1.244-.883-1.244-.883s-1.244,0-1.244.883V60.348h2.575V49.623a10.179,10.179,0,0,1,1.815-6.2,7.249,7.249,0,0,1,5.774-2.708c.241,0,.532,0,.844.014V38.324Zm-75.358-7.985,11,30.013H177.4l-3.354-9.43a.819.819,0,0,0-.748-.433H161.392a.833.833,0,0,0-.755.444L157.2,60.352h-2.685l11.192-29.968h0a1.9,1.9,0,0,1,1.755-1.272h.06A1.885,1.885,0,0,1,169.252,30.339Zm3.825,17.837L167.5,32.514l-.07-.068-.069.068-5.711,15.662Zm39.506.263-3.228-.7c-3.185-.7-4.931-1.57-4.931-3.839,0-2.224,1.92-3.838,4.8-3.838a8.655,8.655,0,0,1,5.758,1.832l1.7-1.44c-1.657-1.7-4.187-2.4-7.241-2.4-4.8,0-7.549,2.748-7.549,6.283,0,3.054,2.314,4.8,6.152,5.541l2.4.523c3.011.567,4.67,1.4,4.67,4.057,0,2.792-2.837,4.319-5.629,4.319a9.107,9.107,0,0,1-6.762-2.618l-1.744,1.483c2,2.313,5.1,3.184,8.55,3.184,4.1,0,8.244-2.311,8.244-6.893,0-3.185-2.135-4.8-5.189-5.5Zm56.292,6.892v-25.3c0-.874-1.288-.878-1.288-.878s-1.282,0-1.288.878V55.157c0,2.705,1.091,5.366,4.887,5.366a12.953,12.953,0,0,0,2.065-.182V58.268a11.679,11.679,0,0,1-1.236.074A2.811,2.811,0,0,1,268.875,55.331Zm8.222-16.7s-1.286-.021-1.286.864l0,20.862h2.575V39.5C278.384,38.643,277.1,38.635,277.1,38.635Zm-1.475-5.365v-.455a1.372,1.372,0,0,1,1.384-1.36h.178a1.372,1.372,0,0,1,1.384,1.36v.455a1.372,1.372,0,0,1-1.384,1.36h-.178A1.372,1.372,0,0,1,275.622,33.27Zm-78.358,5.361s-1.292,0-1.292.868V51.477a6.733,6.733,0,0,1-6.69,6.991c-2.971,0-4.981-1.7-4.981-5.767V39.5c0-.868-1.29-.868-1.29-.868s-1.288,0-1.288.868V53.88c0,3.8,2.228,6.86,6.772,6.86a8.732,8.732,0,0,0,1.439-.119,7.475,7.475,0,0,0,6.074-4.156l.089-.191v4.075h2.447V39.5c0-.868-1.28-.868-1.28-.868Z" style="fill:#333332"/><path d="M69.221,81.349,67.41,77.36H64.761v3.989h-1.2V71.765h3.757a3.231,3.231,0,0,1,2.434.852,2.715,2.715,0,0,1,.757,1.946,2.568,2.568,0,0,1-.73,1.892,2.744,2.744,0,0,1-1.151.676l1.921,4.218Zm-1.905-8.477H64.761v3.366h2.555c1.135,0,1.946-.458,1.946-1.676S68.451,72.872,67.316,72.872Zm5.4,8.477V71.765h6.407v1.108h-5.2v2.921h4.569v1.135H73.918v3.312h5.2v1.108Zm14.335-.785a3.909,3.909,0,0,1-2.717.96,3.956,3.956,0,0,1-2.744-.919,3.173,3.173,0,0,1-1.027-2.3h1.256a2.182,2.182,0,0,0,.676,1.515,2.7,2.7,0,0,0,1.838.6,2.517,2.517,0,0,0,1.784-.555,1.412,1.412,0,0,0,.488-1.121c0-.744-.474-1.366-1.609-1.542l-1.515-.229c-1.434-.216-2.555-1.014-2.555-2.542a2.645,2.645,0,0,1,.838-1.892,3.563,3.563,0,0,1,2.515-.946,3.6,3.6,0,0,1,2.488.919,2.873,2.873,0,0,1,.919,2.054H86.428a2,2,0,0,0-.472-1.2,2.5,2.5,0,0,0-3.393,0,1.519,1.519,0,0,0-.391,1.04c0,.865.715,1.256,1.431,1.353.542.067,1.067.162,1.6.243a2.745,2.745,0,0,1,2.663,2.717,2.489,2.489,0,0,1-.811,1.85Zm8.969-3.73a3.209,3.209,0,0,1-2.351.8H91.3v3.717H90.1V71.765h3.555a3.157,3.157,0,0,1,2.432.865,2.918,2.918,0,0,1,.73,2.027A2.966,2.966,0,0,1,96.02,76.834Zm-2.391-3.976H91.3v3.676h2.339c1.283,0,1.933-.593,1.933-1.879C95.575,73.44,94.817,72.858,93.629,72.858Zm10.914,7.652a3.759,3.759,0,0,1-5.164,0,5.184,5.184,0,0,1-1.229-3.948,5.18,5.18,0,0,1,1.229-3.946,3.759,3.759,0,0,1,5.164,0,5.183,5.183,0,0,1,1.231,3.946A5.176,5.176,0,0,1,104.543,80.51Zm-.838-7.056a2.48,2.48,0,0,0-3.488,0,4.426,4.426,0,0,0-.825,3.108,4.424,4.424,0,0,0,.825,3.11,2.48,2.48,0,0,0,3.488,0,4.429,4.429,0,0,0,.825-3.11A4.421,4.421,0,0,0,103.705,73.454Zm10.214,7.9-4.7-7.706v7.706h-1.162V71.765h1.351l4.706,7.733V71.765h1.162v9.584Zm10.011-.785a3.909,3.909,0,0,1-2.717.96,3.956,3.956,0,0,1-2.744-.919,3.173,3.173,0,0,1-1.027-2.3H118.7a2.182,2.182,0,0,0,.676,1.515,2.7,2.7,0,0,0,1.838.6A2.517,2.517,0,0,0,123,79.862a1.412,1.412,0,0,0,.488-1.121c0-.744-.474-1.366-1.609-1.542l-1.515-.229c-1.434-.216-2.555-1.014-2.555-2.542a2.637,2.637,0,0,1,.838-1.892,3.563,3.563,0,0,1,2.515-.946,3.6,3.6,0,0,1,2.488.919,2.873,2.873,0,0,1,.919,2.054h-1.258a2,2,0,0,0-.472-1.2,2.5,2.5,0,0,0-3.393,0,1.519,1.519,0,0,0-.391,1.04c0,.865.715,1.256,1.431,1.353.542.067,1.067.162,1.6.243a2.745,2.745,0,0,1,2.663,2.717,2.482,2.482,0,0,1-.811,1.85Zm3.05.785V71.765h1.229v9.584Zm10.139-.879a3.314,3.314,0,0,1-2.407.879h-3.865V71.765h3.825a3.215,3.215,0,0,1,2.339.879,2.247,2.247,0,0,1,.62,1.6,2.188,2.188,0,0,1-1.378,2.121,2.413,2.413,0,0,1,1.6,2.312,2.549,2.549,0,0,1-.73,1.8Zm-2.447-7.639h-2.649v3.016h2.69c1,0,1.69-.447,1.69-1.515A1.544,1.544,0,0,0,134.672,72.831Zm.068,4.07h-2.717V80.24h2.69c1.054,0,1.906-.515,1.906-1.649a1.724,1.724,0,0,0-1.879-1.69Zm5.348,4.448V71.765h1.2v8.463H145.9v1.121Zm7.562,0V71.765h6.407v1.108h-5.2v2.921h4.569v1.135h-4.569v3.312h5.2v1.108Zm18.908-.879a3.314,3.314,0,0,1-2.407.879h-3.865V71.765h3.825a3.215,3.215,0,0,1,2.339.879,2.247,2.247,0,0,1,.62,1.6,2.188,2.188,0,0,1-1.378,2.121,2.413,2.413,0,0,1,1.6,2.312,2.549,2.549,0,0,1-.73,1.8Zm-2.447-7.639h-2.649v3.016h2.69c1,0,1.69-.447,1.69-1.515A1.544,1.544,0,0,0,164.111,72.831Zm.067,4.07h-2.717V80.24h2.69c1.054,0,1.906-.515,1.906-1.649a1.723,1.723,0,0,0-1.879-1.69Zm11.1,4.448-.784-2.272h-4.164l-.769,2.272h-1.218l3.38-9.584h1.407l3.393,9.584ZM172.4,72.966l-1.69,4.975h3.393ZM184.2,81.349l-4.7-7.706v7.706h-1.162V71.765h1.351l4.706,7.733V71.765h1.162v9.584Zm10.283,0-2.867-4.975-1.946,2.272v2.7h-1.2V71.765h1.2v5.11l4.393-5.11h1.5l-3.124,3.65,3.447,5.935h-1.4Zm3.142,0V71.765h1.229v9.584Zm10,0-4.7-7.706v7.706h-1.162V71.765h1.351l4.706,7.733V71.765h1.162v9.584Zm10.267,0-.2-1.148a3.114,3.114,0,0,1-2.609,1.337,3.631,3.631,0,0,1-2.582-.987c-.973-.946-1.243-2.272-1.243-3.989a5.184,5.184,0,0,1,1.243-3.946,3.674,3.674,0,0,1,2.582-1.027,3.736,3.736,0,0,1,2.744,1.081,2.871,2.871,0,0,1,.825,1.865H217.4a1.8,1.8,0,0,0-.434-1.054,2.352,2.352,0,0,0-1.879-.757,2.433,2.433,0,0,0-1.744.73,4.435,4.435,0,0,0-.838,3.108,4.549,4.549,0,0,0,.865,3.151,2.332,2.332,0,0,0,1.717.69,2.447,2.447,0,0,0,1.744-.663,3.343,3.343,0,0,0,.825-2.434h-2.569V76.185h3.65v5.164Z" style="fill:#333332"/></svg>
