<svg xmlns="http://www.w3.org/2000/svg" viewBox="0 0 166.161 35.613"><title>Bankwest</title><path d="M165.49,27.3v7.64H8.29A7.627,7.627,0,0,1,.676,27.3h0V.674h157.2a7.627,7.627,0,0,1,7.613,7.64Z" style="fill:#faa634"/><path d="M158.56,15.673a2.8,2.8,0,0,0-3.141,1.013l-.061.024a3.351,3.351,0,0,1-.435-.571,10.944,10.944,0,0,0,1.836-5.608c-.037-1.717-.674-3.571-2.23-4.211a2.433,2.433,0,0,0-2.744.64c-1.69,2.037-.9,5.276.026,7.42-.726.827-1.39,1.678-2.029,2.532a12.886,12.886,0,0,1-1.05-1.293c1.268-2.144,2.064-5.193.906-7.645a3.15,3.15,0,0,0-2.271-1.813,2.542,2.542,0,0,0-2.585,1.559c-1.086,2.091-.277,4.688.534,6.649-.715.825-1.414,1.689-2.055,2.556l-.034.014c-.362-.427-.714-.868-1.017-1.307a10.283,10.283,0,0,0,1.486-4.756c.014-1.852-.566-3.875-2.28-4.566a2.391,2.391,0,0,0-2.392.4c-1.278,1.12-1.484,3.024-1.17,4.742a9.639,9.639,0,0,0,1.746,4.176l.037-.013a13.131,13.131,0,0,0,2.945-5.317l.014.016a9.638,9.638,0,0,1-.941,3.077,14.618,14.618,0,0,1-2.255,3.337,3,3,0,0,0-2.935-1.119,1.628,1.628,0,0,0-1.086,1.119,1.709,1.709,0,0,0,.384,1.558,3.144,3.144,0,0,0,3.455.613c.239-.094.482-.227.711-.318a3.44,3.44,0,0,1,.013,1.877c-.036.266-.2.492-.22.771.037.012.063-.023.1-.053a4.51,4.51,0,0,0,.435-2.81l.616-.6h.048l1,1.171.024.079-.337.9c-.774,2.069-1.038,5.118.53,6.862a2.579,2.579,0,0,0,2.8.959,3.2,3.2,0,0,0,1.655-2.252,9.732,9.732,0,0,0-1.147-5.445c.663-.721,1.338-1.546,1.979-2.292.338.386.713.827,1.047,1.239-.916,2.011-1.459,4.98-.324,7.057a3.081,3.081,0,0,0,2.8,1.816A2.781,2.781,0,0,0,153,25.792c.5-2.078-.277-4.034-1.049-5.752.662-.707,1.278-1.506,1.893-2.279l.062-.024.618.6a4.413,4.413,0,0,0,.007,1.6,3.141,3.141,0,0,0,.51,1.289c.023-.011.023-.039.023-.08a3.91,3.91,0,0,1-.2-2.6,4.7,4.7,0,0,0,.893.4,3.055,3.055,0,0,0,3.258-.721,1.729,1.729,0,0,0,.375-1.584A1.561,1.561,0,0,0,158.56,15.673Zm-16.746-5.516a9.57,9.57,0,0,1-1.668,2.811,4.036,4.036,0,0,1-.35-.679,8.317,8.317,0,0,1-.687-4.553,1.841,1.841,0,0,1,.76-1.135,1.356,1.356,0,0,1,1.234,0,1.45,1.45,0,0,1,.527.561,3.9,3.9,0,0,1,.184,3Zm-2.79,7.021a2.471,2.471,0,0,1-2.679.652,1.177,1.177,0,0,1-.761-.64.661.661,0,0,1,.179-.611,2.781,2.781,0,0,1,2.683-.014l.408.267C138.918,16.939,139.144,17.028,139.024,17.178Zm13.1-9.2a1.815,1.815,0,0,1,.858-1.415,1.337,1.337,0,0,1,1.768.671l.016.037A4.182,4.182,0,0,1,154.49,11a10.809,10.809,0,0,1-1.3,1.958l-.024-.014a8.942,8.942,0,0,1-1.041-4.971Zm-5.553-1.452a1.278,1.278,0,0,1,1.591.64,4.019,4.019,0,0,1,0,3.4,10.17,10.17,0,0,1-1.484,2.4h-.034a9.618,9.618,0,0,1-1.113-4.381c.037-.825.254-1.757,1.041-2.063Zm-1.7,20.7a1.253,1.253,0,0,1-1.426.12,2.485,2.485,0,0,1-.93-2.253,5.7,5.7,0,0,1,1.533-3.541,6.349,6.349,0,0,1,1.389,3,3.029,3.029,0,0,1-.568,2.669Zm3.451-14.12a14.432,14.432,0,0,1-1.871,3.009,19.9,19.9,0,0,0-3.551,5.072,11.416,11.416,0,0,0-.9,3.129,11.243,11.243,0,0,1,2.33-6.508c.895-1.1,1.848-2.121,2.693-3.282a10.9,10.9,0,0,0,2.079-4.208,9,9,0,0,1-.782,2.783Zm3.66,12.75c-.074.65-.361,1.424-1.027,1.6a1.314,1.314,0,0,1-1.3-.334,3.209,3.209,0,0,1-.593-2.422,6.32,6.32,0,0,1,1.5-3.158l.036.014a6.182,6.182,0,0,1,1.382,4.295Zm.336-8.994a14.231,14.231,0,0,0-3.788,7.406,11.42,11.42,0,0,1,2.278-6.406,31.016,31.016,0,0,0,4.25-5.78,7.81,7.81,0,0,0,.593-1.747,7.74,7.74,0,0,1-.386,1.693,14.878,14.878,0,0,1-2.949,4.829Zm6.836.413a2.075,2.075,0,0,1-2.051.63,2.171,2.171,0,0,1-1.379-.814,1.735,1.735,0,0,1,.774-.614,3.011,3.011,0,0,1,2.377-.029.889.889,0,0,1,.327.4.629.629,0,0,1-.05.422ZM17.691,13.264a4.892,4.892,0,0,0-2.279.544,6.61,6.61,0,0,0-1.253.9V7.928H8.6v.634a2.317,2.317,0,0,1,1.207.4,1.462,1.462,0,0,1,.323,1.106V25.962h.407L12.8,24.484a7.077,7.077,0,0,0,1.659,1.07,4.818,4.818,0,0,0,2.04.408,6.655,6.655,0,0,0,4.7-1.754,6.472,6.472,0,0,0,1.893-4.993,6.252,6.252,0,0,0-1.485-4.234,4.921,4.921,0,0,0-3.916-1.722Zm.557,10.446a2.129,2.129,0,0,1-2.09,1.417,1.783,1.783,0,0,1-1.689-.894,2.894,2.894,0,0,1-.31-1.174V16.188q0-.268.556-.888a1.9,1.9,0,0,1,1.485-.618,2.073,2.073,0,0,1,2.118,1.481A10.315,10.315,0,0,1,18.86,19.7a10.442,10.442,0,0,1-.614,4Zm18.5.539a.77.77,0,0,1-.3.057.458.458,0,0,1-.36-.2.73.73,0,0,1-.162-.479V17.3a3.285,3.285,0,0,0-1.63-3.188,8.821,8.821,0,0,0-4.09-.853,7.724,7.724,0,0,0-3.838.878,2.661,2.661,0,0,0-1.56,2.383,1.519,1.519,0,0,0,.585,1.285,2.263,2.263,0,0,0,1.417.446,2.055,2.055,0,0,0,1.261-.4,1.341,1.341,0,0,0,.543-1.143,1.315,1.315,0,0,0-.12-.556,1.869,1.869,0,0,0-.317-.48l-.168-.178a.989.989,0,0,1-.169-.217.533.533,0,0,1-.056-.257.764.764,0,0,1,.5-.657A2.714,2.714,0,0,1,29.55,14.1a2.6,2.6,0,0,1,1.9.555,2.4,2.4,0,0,1,.538,1.719v1.9a26.988,26.988,0,0,0-5.855,2.082,3.118,3.118,0,0,0-1.868,2.8,2.372,2.372,0,0,0,1.026,2.125,3.905,3.905,0,0,0,2.206.683,6.075,6.075,0,0,0,1.8-.281A6.894,6.894,0,0,0,32,24.158a2.454,2.454,0,0,0,.493,1.135,2.366,2.366,0,0,0,1.875.675,4.08,4.08,0,0,0,1.367-.23,4.7,4.7,0,0,0,1.875-1.252l-.437-.549a1.968,1.968,0,0,1-.424.307Zm-4.8-1.243a5.312,5.312,0,0,1-.8.713,2.388,2.388,0,0,1-1.3.382,1.31,1.31,0,0,1-.96-.438,1.792,1.792,0,0,1-.427-1.3,2.742,2.742,0,0,1,1.471-2.369,6.3,6.3,0,0,1,2.017-.8Zm19.964,1.752a2.261,2.261,0,0,0,1.1.342v.628H46.244v-.635a2.321,2.321,0,0,0,1.057-.379,1.47,1.47,0,0,0,.283-1.091V17.3a3.473,3.473,0,0,0-.2-1.34,1.314,1.314,0,0,0-1.342-.8,2.181,2.181,0,0,0-1.375.492,4.487,4.487,0,0,0-.966.989v6.992a1.469,1.469,0,0,0,.282,1.091,2.325,2.325,0,0,0,1.058.379v.63H38.1v-.635a2.285,2.285,0,0,0,1.159-.383,1.473,1.473,0,0,0,.372-1.183v-7.7a1.574,1.574,0,0,0-.3-1.1,2.111,2.111,0,0,0-1.229-.41v-.634h5.448v1.895a5.671,5.671,0,0,1,1.755-1.558,4.632,4.632,0,0,1,2.361-.615,4.329,4.329,0,0,1,2.883.865,3.833,3.833,0,0,1,1.022,3.046v6.312q0,.871.336,1.125Zm16.519.233a1.441,1.441,0,0,0,.408.109v.628H62.118v-.635a3.009,3.009,0,0,0,.908-.14.382.382,0,0,0,.287-.357.845.845,0,0,0-.118-.352,8.017,8.017,0,0,0-.585-.823l-2.727-3.513-.633.639V23.51a1.99,1.99,0,0,0,.239,1.174,1.972,1.972,0,0,0,1.225.409v.635H53.847v-.635a2.484,2.484,0,0,0,1.075-.439,1.514,1.514,0,0,0,.317-1.143V10.205a1.448,1.448,0,0,0-.294-1.085,2.532,2.532,0,0,0-1.1-.421V8.065h5.4V19.309L62.9,15.975a2.166,2.166,0,0,0,.464-.554.979.979,0,0,0,.14-.416.508.508,0,0,0-.386-.523,6.23,6.23,0,0,0-1.315-.205v-.6h6.172v.6a6.95,6.95,0,0,0-1.406.28,5.425,5.425,0,0,0-1.8,1.124l-2.237,2.057L68.1,24.7a.9.9,0,0,0,.33.287ZM88.49,14.318a1.833,1.833,0,0,0-.824.327,2.51,2.51,0,0,0-.613.981L82.575,26.107h-.662l-2.96-8.073h-.119l-3.449,8.073h-.7l-4.263-9.79a9.751,9.751,0,0,0-.788-1.556,1.282,1.282,0,0,0-.844-.443v-.634h6.4v.634a2.371,2.371,0,0,0-.8.186.6.6,0,0,0-.308.6,1.016,1.016,0,0,0,.042.295,4.048,4.048,0,0,0,.169.436l2.231,5.125h.1l1.833-4.291a5.412,5.412,0,0,0-.224-.779,5.807,5.807,0,0,0-.381-.961,1.125,1.125,0,0,0-.429-.452,3.367,3.367,0,0,0-.838-.155v-.634h6.732v.634a4.11,4.11,0,0,0-.992.142.45.45,0,0,0-.372.449,2.257,2.257,0,0,0,.049.441,5.794,5.794,0,0,0,.19.673l1.66,4.528,2.065-4.834c.027-.085.053-.167.07-.244a.85.85,0,0,0,.029-.219.714.714,0,0,0-.359-.718,3.183,3.183,0,0,0-1.047-.218v-.634H88.5Zm9.2,9.314a3.5,3.5,0,0,1-1.91.574,3,3,0,0,1-2.966-2.154,8.708,8.708,0,0,1-.562-2.715h7.333a7.785,7.785,0,0,0-.1-1.033,6.693,6.693,0,0,0-.7-2.348,4.773,4.773,0,0,0-1.928-1.875,5.555,5.555,0,0,0-2.672-.675,5.969,5.969,0,0,0-4.252,1.664,6.113,6.113,0,0,0-1.764,4.673q0,3.329,1.856,4.848a6.179,6.179,0,0,0,3.98,1.516,6.5,6.5,0,0,0,2.618-.5,7.4,7.4,0,0,0,3.091-2.767l-.66-.371a8.461,8.461,0,0,1-1.361,1.159Zm-5.042-8.348a1.53,1.53,0,0,1,1.538-1.059,1.424,1.424,0,0,1,1.461.917,10.154,10.154,0,0,1,.393,3.224H92.178a9.571,9.571,0,0,1,.473-3.087Zm16.72,4.342a3.257,3.257,0,0,1,1.132,2.5,3.938,3.938,0,0,1-1.162,2.713,4.512,4.512,0,0,1-3.482,1.257,6.463,6.463,0,0,1-1.161-.107,13.249,13.249,0,0,1-1.441-.373l-.5-.153c-.177-.058-.287-.093-.33-.1a.867.867,0,0,0-.161-.012.576.576,0,0,0-.415.17,2.638,2.638,0,0,0-.4.576h-.69V21.771h.8a4.086,4.086,0,0,0,1.577,2.643,4.215,4.215,0,0,0,2.368.77,2.446,2.446,0,0,0,1.633-.452,1.5,1.5,0,0,0,.522-1.191,1.545,1.545,0,0,0-.564-1.2,4.248,4.248,0,0,0-1-.574l-2.137-.942a6.633,6.633,0,0,1-2.418-1.632,3.111,3.111,0,0,1-.747-2.077,3.481,3.481,0,0,1,1.169-2.619,4.56,4.56,0,0,1,3.261-1.1,7.633,7.633,0,0,1,1.942.27,7.419,7.419,0,0,0,1.277.27.747.747,0,0,0,.5-.131.991.991,0,0,0,.247-.372h.634V17.2H109.1a4.467,4.467,0,0,0-1.34-2.127,3.215,3.215,0,0,0-2.169-.8,1.914,1.914,0,0,0-1.43.485,1.472,1.472,0,0,0-.471,1.045,1.373,1.373,0,0,0,.422.918,4.469,4.469,0,0,0,1.549.969l1.574.69a8.356,8.356,0,0,1,2.136,1.239Zm10.332,3.2.687.3a5.878,5.878,0,0,1-1.207,1.745,4.543,4.543,0,0,1-4.8.838,2.434,2.434,0,0,1-1.472-2.414V14.818h-1.492V14.09q.38-.317.945-.748.75-.624,1.409-1.283a22.015,22.015,0,0,0,2.384-2.782h.726v4.4h2.743v1.139H116.88V22.7a2.072,2.072,0,0,0,.184.921A.962.962,0,0,0,118,24.2a1.315,1.315,0,0,0,.943-.363A4.842,4.842,0,0,0,119.7,22.828ZM157.878,0H19.178L19.2.025A1.658,1.658,0,0,0,18.969,0H0V27.3a8.309,8.309,0,0,0,8.286,8.313H166.161V8.313A8.306,8.306,0,0,0,157.877,0ZM8.288,34.267A6.963,6.963,0,0,1,1.345,27.3V1.347H19.179l-.012-.012c.038,0,.07.012.112.012H128.033V27.234a8.843,8.843,0,0,0,3.579,7.033Zm156.53,0H134.29a7.717,7.717,0,0,1-4.913-7.033V1.347h28.5a6.962,6.962,0,0,1,6.941,6.967Z" style="fill:#fff"/></svg>
