<svg xmlns="http://www.w3.org/2000/svg" viewBox="0 0 280 100"><title>Better Choice</title><polygon points="43.276 56.3 17.214 40.65 17.214 50.042 17.214 71.95 43.276 56.3" style="fill:#bc202a"/><polygon points="43.276 56.302 69.337 71.952 69.337 62.56 69.337 40.652 43.276 56.302" style="fill:#869fb7"/><polygon points="17.214 40.65 43.276 56.301 43.276 46.908 43.276 25 17.214 40.65" style="fill:#14293c"/><polygon points="69.349 40.651 43.276 25.001 43.276 34.393 43.276 56.301 69.349 40.651" style="fill:#14293c"/><polygon points="17.214 71.95 43.24 56.31 69.22 71.962 43.24 25.064 17.214 71.95" style="fill:#fff;opacity:0.200000002980232;isolation:isolate"/><path d="M92.558,49.437a3.74,3.74,0,0,0-1.01-.77,5.9,5.9,0,0,0-1.048-.422q.336-.168.746-.409A3.121,3.121,0,0,0,92,47.2a3.38,3.38,0,0,0,.589-1.01,4.2,4.2,0,0,0,.241-1.528,5.884,5.884,0,0,0-.216-1.589,3.279,3.279,0,0,0-.783-1.372,3.987,3.987,0,0,0-1.515-.963,6.879,6.879,0,0,0-2.419-.361H76.538V57.559H87.779a6.892,6.892,0,0,0,2.865-.518,5.138,5.138,0,0,0,1.794-1.285,4.558,4.558,0,0,0,.927-1.649,5.656,5.656,0,0,0,.265-1.6,4.917,4.917,0,0,0-.3-1.829A3.855,3.855,0,0,0,92.558,49.437ZM86.265,43.07a3.919,3.919,0,0,1,2.274.505,1.841,1.841,0,0,1,.686,1.589A2.484,2.484,0,0,1,89,46.319a1.79,1.79,0,0,1-.566.661,1.907,1.907,0,0,1-.746.3,4.609,4.609,0,0,1-.8.072H80.15l0-4.283Zm3.334,10.6a1.971,1.971,0,0,1-.735.759,2.866,2.866,0,0,1-1.048.349,8.2,8.2,0,0,1-1.192.084H80.15l0-4.959h7.007a3.048,3.048,0,0,1,1.974.6,2.208,2.208,0,0,1,.746,1.829A2.74,2.74,0,0,1,89.6,53.671Z" style="fill:#424143"/><path d="M109.5,46.535a6.647,6.647,0,0,0-2.431-1.613,9.654,9.654,0,0,0-3.612-.6,9.386,9.386,0,0,0-3.118.493,7.116,7.116,0,0,0-2.419,1.4,6.266,6.266,0,0,0-1.577,2.2,7.161,7.161,0,0,0-.565,2.889,7.546,7.546,0,0,0,.421,2.491,5.61,5.61,0,0,0,1.36,2.155A6.892,6.892,0,0,0,100,57.463a10.256,10.256,0,0,0,3.671.578,9.146,9.146,0,0,0,3.093-.458,7.7,7.7,0,0,0,2.118-1.119,6.19,6.19,0,0,0,1.348-1.384,9.886,9.886,0,0,0,.759-1.276h-3.612a3.907,3.907,0,0,1-1.323,1.312,4.794,4.794,0,0,1-2.48.518,5.178,5.178,0,0,1-2.059-.361,3.83,3.83,0,0,1-1.324-.9,3.354,3.354,0,0,1-.71-1.168,4.13,4.13,0,0,1-.24-1.179h12.034v-.481a8.686,8.686,0,0,0-.417-2.7A6.135,6.135,0,0,0,109.5,46.535ZM99.238,49.9a4.361,4.361,0,0,1,.686-1.612A3.782,3.782,0,0,1,101,47.269a4.248,4.248,0,0,1,1.264-.53,5.454,5.454,0,0,1,1.24-.155,6,6,0,0,1,1.3.155,4.187,4.187,0,0,1,1.311.542,3.956,3.956,0,0,1,1.084,1.023,3.542,3.542,0,0,1,.613,1.6Z" style="fill:#424143"/><path d="M119.121,55.3q-.843,0-1.023-.578a5.939,5.939,0,0,1-.18-1.685V47.209h3.465V44.8h-3.465V40.854H114.6V44.8h-2.648v2.408H114.6V54a10.9,10.9,0,0,0,.108,1.624,2.256,2.256,0,0,0,.554,1.2,2.838,2.838,0,0,0,1.312.758,8.47,8.47,0,0,0,2.383.265q.771,0,1.324-.048t1.228-.144V55.25c-.4.016-.794.028-1.18.036S119.538,55.3,119.121,55.3Z" style="fill:#424143"/><path d="M128.918,55.3q-.843,0-1.023-.578a5.976,5.976,0,0,1-.181-1.685V47.209h3.466V44.8h-3.466V40.854h-3.322V44.8h-2.647v2.408h2.647V54a10.9,10.9,0,0,0,.108,1.624,2.256,2.256,0,0,0,.554,1.2,2.838,2.838,0,0,0,1.312.758,8.47,8.47,0,0,0,2.383.265q.771,0,1.324-.048t1.228-.144V55.25q-.6.024-1.18.036T128.918,55.3Z" style="fill:#424143"/><path d="M146.471,46.535a6.622,6.622,0,0,0-2.431-1.613,9.656,9.656,0,0,0-3.613-.6,9.384,9.384,0,0,0-3.117.493,7.106,7.106,0,0,0-2.419,1.4,6.254,6.254,0,0,0-1.577,2.2,7.162,7.162,0,0,0-.566,2.889,7.572,7.572,0,0,0,.421,2.491,5.622,5.622,0,0,0,1.36,2.155,6.886,6.886,0,0,0,2.443,1.516,10.263,10.263,0,0,0,3.671.578,9.146,9.146,0,0,0,3.093-.458,7.716,7.716,0,0,0,2.119-1.119A6.211,6.211,0,0,0,147.2,55.08a9.994,9.994,0,0,0,.758-1.276h-3.612a3.91,3.91,0,0,1-1.324,1.312,4.79,4.79,0,0,1-2.479.518,5.174,5.174,0,0,1-2.059-.361,3.82,3.82,0,0,1-1.324-.9,3.364,3.364,0,0,1-.71-1.168,4.165,4.165,0,0,1-.241-1.179h12.035v-.481a8.686,8.686,0,0,0-.417-2.7A6.119,6.119,0,0,0,146.471,46.535ZM136.213,49.9a4.378,4.378,0,0,1,.686-1.612,3.8,3.8,0,0,1,1.072-1.023,4.231,4.231,0,0,1,1.263-.53,5.454,5.454,0,0,1,1.24-.155,5.985,5.985,0,0,1,1.3.155,4.192,4.192,0,0,1,1.312.542,3.967,3.967,0,0,1,1.083,1.023,3.542,3.542,0,0,1,.613,1.6Z" style="fill:#424143"/><path d="M158.718,44.463a5.583,5.583,0,0,0-1.709.24,5.353,5.353,0,0,0-1.324.626,4.744,4.744,0,0,0-1.01.9,10.125,10.125,0,0,0-.77,1.049h-.048V44.8h-3.322V57.559h3.322V51.4a3.909,3.909,0,0,1,.4-1.853,3.488,3.488,0,0,1,1-1.2,3.74,3.74,0,0,1,1.323-.626,5.574,5.574,0,0,1,1.348-.18q.433,0,.927.048a6.14,6.14,0,0,1,1.191.265V44.583c-.224-.032-.437-.06-.637-.084A5.62,5.62,0,0,0,158.718,44.463Z" style="fill:#424143"/><path d="M184.261,52.444a4.611,4.611,0,0,1-.927,1.408,4.748,4.748,0,0,1-1.576,1.072,5.882,5.882,0,0,1-2.36.421,6.522,6.522,0,0,1-2.455-.445,5.483,5.483,0,0,1-3.141-3.154,6.6,6.6,0,0,1-.446-2.467,9,9,0,0,1,.433-2.937,5.739,5.739,0,0,1,1.216-2.082,5.076,5.076,0,0,1,1.842-1.252,6.865,6.865,0,0,1,6.088.674,4.449,4.449,0,0,1,1.758,3.045h3.9a7.248,7.248,0,0,0-.795-2.637,6.879,6.879,0,0,0-1.817-2.178,8.79,8.79,0,0,0-2.864-1.481,12.889,12.889,0,0,0-3.912-.541,11.589,11.589,0,0,0-4.346.734,8.247,8.247,0,0,0-2.985,1.986,7.884,7.884,0,0,0-1.72,2.9,11.054,11.054,0,0,0,0,6.908,8.041,8.041,0,0,0,1.7,2.9,8.127,8.127,0,0,0,2.865,1.986,10.271,10.271,0,0,0,4.056.734,13.589,13.589,0,0,0,4.441-.626,8.7,8.7,0,0,0,2.925-1.625,6.616,6.616,0,0,0,1.7-2.263,9.793,9.793,0,0,0,.759-2.539h-3.9A6.97,6.97,0,0,1,184.261,52.444Z" style="fill:#424143"/><path d="M203.24,45.379a4.9,4.9,0,0,0-1.733-.71,9.836,9.836,0,0,0-2.01-.2,6.655,6.655,0,0,0-2.973.614,5.925,5.925,0,0,0-2.058,1.649h-.049V40.083H191.1V57.559h3.321V50.7a3.659,3.659,0,0,1,.374-1.721,3.265,3.265,0,0,1,.963-1.144,3.917,3.917,0,0,1,1.287-.626,5.09,5.09,0,0,1,1.349-.194,4.33,4.33,0,0,1,1.66.265,2.386,2.386,0,0,1,.963.686,2.337,2.337,0,0,1,.458.951,4.677,4.677,0,0,1,.121,1.035v7.606h3.321V48.893a4.532,4.532,0,0,0-.457-2.154A3.691,3.691,0,0,0,203.24,45.379Z" style="fill:#424143"/><path d="M221.041,46.438A6.71,6.71,0,0,0,218.6,44.9a11.79,11.79,0,0,0-7.294,0,6.714,6.714,0,0,0-2.444,1.54,5.955,5.955,0,0,0-1.371,2.19,7.625,7.625,0,0,0-.434,2.552,7.719,7.719,0,0,0,.434,2.564,5.785,5.785,0,0,0,1.371,2.19,6.8,6.8,0,0,0,2.444,1.529,11.8,11.8,0,0,0,7.294,0,6.792,6.792,0,0,0,2.443-1.529,5.808,5.808,0,0,0,1.372-2.19,7.693,7.693,0,0,0,.433-2.564,7.6,7.6,0,0,0-.433-2.552A5.944,5.944,0,0,0,221.041,46.438Zm-1.9,6.355A3.662,3.662,0,0,1,217,55.128a5.971,5.971,0,0,1-4.092,0,3.666,3.666,0,0,1-2.143-2.335,5.375,5.375,0,0,1-.24-1.613h0a5.424,5.424,0,0,1,.241-1.6,3.643,3.643,0,0,1,2.143-2.347,5.971,5.971,0,0,1,4.092,0,3.64,3.64,0,0,1,2.142,2.347A5.464,5.464,0,0,1,219.139,52.793Z" style="fill:#424143"/><rect x="225.086" y="40.083" width="3.322" height="2.696" style="fill:#424143"/><rect x="225.086" y="44.801" width="3.322" height="12.758" style="fill:#424143"/><path d="M241.6,53.888a3.074,3.074,0,0,1-.722.878,2.864,2.864,0,0,1-1.083.542,6.13,6.13,0,0,1-1.613.181,4.344,4.344,0,0,1-1.854-.362,3.543,3.543,0,0,1-1.264-.963,3.887,3.887,0,0,1-.722-1.371,5.614,5.614,0,0,1-.228-1.613,5.178,5.178,0,0,1,.252-1.6,3.788,3.788,0,0,1,.795-1.384,3.88,3.88,0,0,1,1.384-.963,5.027,5.027,0,0,1,2-.361,3.931,3.931,0,0,1,2.4.7,2.726,2.726,0,0,1,1.144,1.709h3.47a5.093,5.093,0,0,0-1.119-2.587,6.236,6.236,0,0,0-1.927-1.505,7.428,7.428,0,0,0-2.154-.7,12.264,12.264,0,0,0-1.805-.169,10.425,10.425,0,0,0-3.322.494,7.022,7.022,0,0,0-2.479,1.4,6.055,6.055,0,0,0-1.554,2.167,7.042,7.042,0,0,0-.541,2.8,7.687,7.687,0,0,0,.433,2.563,5.812,5.812,0,0,0,1.372,2.191,6.806,6.806,0,0,0,2.443,1.529,10.2,10.2,0,0,0,3.647.577q.216,0,.782-.024a7.781,7.781,0,0,0,1.289-.18,8.479,8.479,0,0,0,1.514-.494,6.009,6.009,0,0,0,1.5-.927,5.7,5.7,0,0,0,1.252-1.5,6.077,6.077,0,0,0,.733-2.239h-3.467A9.244,9.244,0,0,1,241.6,53.888Z" style="fill:#424143"/><path d="M262.786,51.542a8.71,8.71,0,0,0-.421-2.7,6.135,6.135,0,0,0-1.36-2.311,6.622,6.622,0,0,0-2.431-1.613,9.654,9.654,0,0,0-3.612-.6,9.386,9.386,0,0,0-3.118.493,7.106,7.106,0,0,0-2.419,1.4,6.266,6.266,0,0,0-1.577,2.2,7.161,7.161,0,0,0-.565,2.889,7.521,7.521,0,0,0,.421,2.491,5.62,5.62,0,0,0,1.359,2.155,6.886,6.886,0,0,0,2.443,1.516,10.265,10.265,0,0,0,3.672.578,9.144,9.144,0,0,0,3.092-.458,7.7,7.7,0,0,0,2.119-1.119,6.211,6.211,0,0,0,1.348-1.384A9.879,9.879,0,0,0,262.5,53.8h-3.612a3.9,3.9,0,0,1-1.324,1.312,4.788,4.788,0,0,1-2.479.518,5.173,5.173,0,0,1-2.058-.361,3.824,3.824,0,0,1-1.325-.9,3.364,3.364,0,0,1-.71-1.168,4.165,4.165,0,0,1-.241-1.179h12.04ZM250.746,49.9a4.363,4.363,0,0,1,.687-1.612,3.782,3.782,0,0,1,1.071-1.023,4.231,4.231,0,0,1,1.263-.53,5.454,5.454,0,0,1,1.24-.155,5.985,5.985,0,0,1,1.3.155,4.192,4.192,0,0,1,1.312.542A3.967,3.967,0,0,1,258.7,48.3a3.532,3.532,0,0,1,.614,1.6Z" style="fill:#424143"/><path d="M100.779,63.5a3.424,3.424,0,0,0-.96.216,8.64,8.64,0,0,1-1.405,3.458q-1.285,2.1-2,2.1-.648,0-1.561-2.617l-.1-.276q-.144-.444-.2-.66a27.325,27.325,0,0,0-.864-2.6q-.229-.486-.541-.486a1.881,1.881,0,0,0-1,.36,2.94,2.94,0,0,1,.8,1.489l.24.744-1.3,5.007a8.866,8.866,0,0,0-.349,1.9q0,.456.589.456a3.981,3.981,0,0,0,1-.2.718.718,0,0,1-.36-.66,6.258,6.258,0,0,1,.144-1.177l.769-3.854v.012a12.945,12.945,0,0,0,.528,1.585,5.367,5.367,0,0,0,1.056,1.777,1.807,1.807,0,0,0,.45.336.973.973,0,0,0,.439.12q.852,0,1.968-1.477a11.688,11.688,0,0,0,1.8-3.59l-.505,4.863q-.1.924-.1,1.417,0,1.428.709,1.428a1.957,1.957,0,0,0,1.032-.42q-.48-.288-.48-1.429a7.69,7.69,0,0,1,.036-.8l.408-3.806q.06-.576.18-1.405a11.58,11.58,0,0,0,.132-1.164Q101.343,63.5,100.779,63.5Z" style="fill:#bc202a"/><path d="M114.37,67.272a14.905,14.905,0,0,1-2.162,2.69,3.065,3.065,0,0,1-1.728,1.056q-.6,0-.6-1.285a10.166,10.166,0,0,1,.168-1.957l.1-.48a4,4,0,0,1,.516-1.4h-.228q-1.106,0-1.249.54a4.057,4.057,0,0,0-1.909-.54,3.226,3.226,0,0,0-2.581,1.4,5.062,5.062,0,0,0-1.105,3.218,3.314,3.314,0,0,0,.1.828q.276,1.177,1.273,1.177a3.009,3.009,0,0,0,1.921-1.081,9.312,9.312,0,0,0,1.837-2.641v.012c0,.136-.006.335-.018.594s-.018.459-.018.595q0,2.113,1.273,2.113a3.923,3.923,0,0,0,2.413-1.309,12.778,12.778,0,0,0,2.461-3.23Zm-5.379.132c-.1.137-.184.249-.24.337q-2.378,3.674-3.206,3.674-.768,0-.768-1.177a4.952,4.952,0,0,1,.63-2.551,1.81,1.81,0,0,1,1.543-1.075,4.177,4.177,0,0,1,2.041.781Z" style="fill:#bc202a"/><path d="M128.051,70.46a4.635,4.635,0,0,1-2.78,1.207q-1.446,0-1.451-1.717a5.224,5.224,0,0,0,2.91-.817,2.272,2.272,0,0,0,1.255-1.849,1.257,1.257,0,0,0-.451-1.014,1.834,1.834,0,0,0-1.218-.378,3.517,3.517,0,0,0-2.671,1.194,4.213,4.213,0,0,0-.317.411l-.374-.2a15.634,15.634,0,0,1-1.272,1.8,8.276,8.276,0,0,1-1.321,1.381,1.661,1.661,0,0,1-1.009.372q-1.08,0-2.581-2.341a7.794,7.794,0,0,1,1.609-1.2,4.529,4.529,0,0,1,1.584-.642q-.36-.78-.624-.78a3.281,3.281,0,0,0-1.539.864,14.563,14.563,0,0,0-2.018,1.968l1.3-6.6a4.2,4.2,0,0,1-1.837.516,1.413,1.413,0,0,1-1.034-.432,3.985,3.985,0,0,0-.12.72q0,.624.685.624a2.493,2.493,0,0,0,.925-.2l-1.441,7.24a8.009,8.009,0,0,0-.193,1.405q0,.528.481.528a4.033,4.033,0,0,0,.912-.18,1.127,1.127,0,0,1-.156-.624,6.569,6.569,0,0,1,.149-1.284l.277-1.392.01.013a7.276,7.276,0,0,0,1.641,2.015,3,3,0,0,0,1.75.888,3.208,3.208,0,0,0,2.049-1.189,12.077,12.077,0,0,0,1.519-1.953A4.533,4.533,0,0,0,122.534,70a2.921,2.921,0,0,0,.408,1.585,2.047,2.047,0,0,0,1.873.936,5.821,5.821,0,0,0,3.5-1.393,10.8,10.8,0,0,0,2.971-3.554l-.5-.263A12.233,12.233,0,0,1,128.051,70.46Zm-1.879-4q.66,0,.66.756a1.817,1.817,0,0,1-.876,1.477,3.616,3.616,0,0,1-2.1.684,4.332,4.332,0,0,1,.838-2.053A1.936,1.936,0,0,1,126.172,66.456Z" style="fill:#bc202a"/><path d="M143.857,69.962a3.066,3.066,0,0,1-1.729,1.056q-.6,0-.6-1.285a10.087,10.087,0,0,1,.168-1.957l.1-.48a4,4,0,0,1,.516-1.4h-.228q-1.1,0-1.248.54a4.064,4.064,0,0,0-1.91-.54,3.227,3.227,0,0,0-2.581,1.4,5.062,5.062,0,0,0-1.1,3.218,3.314,3.314,0,0,0,.1.828q.276,1.177,1.272,1.177a3,3,0,0,0,1.921-1.081,9.292,9.292,0,0,0,1.837-2.641v.012c0,.136-.006.335-.018.594s-.018.459-.018.595q0,2.113,1.273,2.113a3.921,3.921,0,0,0,2.413-1.309,12.78,12.78,0,0,0,2.462-3.23l-.457-.3A14.946,14.946,0,0,1,143.857,69.962ZM140.64,67.4c-.1.137-.185.249-.241.337q-2.377,3.674-3.205,3.674-.769,0-.769-1.177a4.943,4.943,0,0,1,.631-2.551,1.808,1.808,0,0,1,1.543-1.075,4.184,4.184,0,0,1,2.041.781Z" style="fill:#bc202a"/><path d="M155.851,67.356q1.776-1.1,1.776-2.353a1.242,1.242,0,0,0-.66-1.086,3.317,3.317,0,0,0-1.777-.415,7.77,7.77,0,0,0-3.565.835q-1.646.834-1.646,1.843a1.432,1.432,0,0,0,.145.6v.012a5.934,5.934,0,0,1,4.658-2.5q1.621,0,1.621,1.047a1.488,1.488,0,0,1-.072.453,3.1,3.1,0,0,1-1.177,1.345h-.4a1.247,1.247,0,0,0-.822.222,1.72,1.72,0,0,0-.427.847,1.794,1.794,0,0,0,.385.048,2.343,2.343,0,0,0,.828-.144,3.79,3.79,0,0,1,1.369.5,1.446,1.446,0,0,1,.612,1.261,2.006,2.006,0,0,1-.828,1.6,3.031,3.031,0,0,1-1.969.672q-1.417,0-1.417-.745a5.648,5.648,0,0,1,.132-.888l.768-3.842q.193-.96.193-1.032c0-.272-.121-.409-.361-.409a3.68,3.68,0,0,0-1.08.289.622.622,0,0,1,.132.372,4.033,4.033,0,0,1-.1.708l-.829,4.166a7.22,7.22,0,0,0-.168,1.129q0,.984,1.609.984a6.886,6.886,0,0,0,3.728-.966,2.819,2.819,0,0,0,1.543-2.419,1.757,1.757,0,0,0-.595-1.3A3.585,3.585,0,0,0,155.851,67.356Z" style="fill:#bc202a"/><path d="M176.66,66.156h3.3a1.643,1.643,0,0,0,.914-.178,1.369,1.369,0,0,0,.385-.783,2.862,2.862,0,0,1-1.236.2h-3.1a7.286,7.286,0,0,1,.948-1.969h-.288a1.641,1.641,0,0,0-1.116.337,2.607,2.607,0,0,0-.649,1.224l-.12.408h-.609c.023-.07.049-.121.069-.2a2.864,2.864,0,0,1-1.237.2h-3.1a7.286,7.286,0,0,1,.948-1.969h-.288a1.641,1.641,0,0,0-1.116.337,2.607,2.607,0,0,0-.649,1.224l-.12.408h-.889a2.211,2.211,0,0,0-.359.025.868.868,0,0,0-.4.134,2.543,2.543,0,0,0-.552.79,2.107,2.107,0,0,1,.984-.192h1l-.276,1c-.038.138-.066.257-.1.387l-.441-.23a12.233,12.233,0,0,1-2.731,3.151,4.635,4.635,0,0,1-2.78,1.207q-1.446,0-1.451-1.717a5.224,5.224,0,0,0,2.91-.817,2.27,2.27,0,0,0,1.255-1.849,1.254,1.254,0,0,0-.451-1.014,1.832,1.832,0,0,0-1.218-.378,3.519,3.519,0,0,0-2.671,1.194A4.119,4.119,0,0,0,160.317,70a2.921,2.921,0,0,0,.408,1.585,2.048,2.048,0,0,0,1.873.936,5.821,5.821,0,0,0,3.5-1.393,10.765,10.765,0,0,0,2.845-3.342,11.186,11.186,0,0,0-.414,2.514,2.705,2.705,0,0,0,.439,1.6,1.345,1.345,0,0,0,1.146.618,3.165,3.165,0,0,0,1.771-.678q.966-.678.967-1.267a1.363,1.363,0,0,0-.156-.516v.012a2.437,2.437,0,0,1-.856.972,1.969,1.969,0,0,1-1.1.42q-.99,0-.989-1.356a14.04,14.04,0,0,1,.71-3.65,1.906,1.906,0,0,0,.1-.3h3.047c-.036.061-.07.121-.108.192a2.107,2.107,0,0,1,.984-.192h1l-.276,1a12.957,12.957,0,0,0-.577,3.146,2.705,2.705,0,0,0,.439,1.6,1.345,1.345,0,0,0,1.146.618,3.163,3.163,0,0,0,1.771-.678q.966-.678.967-1.267a1.363,1.363,0,0,0-.156-.516v.012a2.437,2.437,0,0,1-.856.972,1.969,1.969,0,0,1-1.1.42q-.989,0-.988-1.356a14.03,14.03,0,0,1,.709-3.65A1.806,1.806,0,0,0,176.66,66.156Zm-12.7.3q.66,0,.66.756a1.817,1.817,0,0,1-.876,1.477,3.616,3.616,0,0,1-2.1.684,4.332,4.332,0,0,1,.838-2.053A1.937,1.937,0,0,1,163.955,66.456Z" style="fill:#bc202a"/><path d="M188.6,67.309a12.252,12.252,0,0,1-2.731,3.151,4.635,4.635,0,0,1-2.78,1.207q-1.448,0-1.451-1.717a5.226,5.226,0,0,0,2.91-.817,2.272,2.272,0,0,0,1.255-1.849,1.257,1.257,0,0,0-.451-1.014,1.834,1.834,0,0,0-1.218-.378,3.521,3.521,0,0,0-2.672,1.194A4.123,4.123,0,0,0,180.355,70a2.921,2.921,0,0,0,.409,1.585,2.047,2.047,0,0,0,1.873.936,5.823,5.823,0,0,0,3.5-1.393,10.8,10.8,0,0,0,2.971-3.554Zm-4.61-.853q.66,0,.66.756a1.818,1.818,0,0,1-.877,1.477,3.613,3.613,0,0,1-2.1.684,4.322,4.322,0,0,1,.838-2.053A1.936,1.936,0,0,1,183.994,66.456Z" style="fill:#bc202a"/><path d="M194.115,65.892a3.044,3.044,0,0,0-2.042,1.188,16.063,16.063,0,0,0-2.233,3.326l.336-1.693q.3-1.512.3-1.693c0-.344-.141-.516-.42-.516a3.73,3.73,0,0,0-1,.2.9.9,0,0,1,.192.576,10.709,10.709,0,0,1-.264,1.909l-.3,1.477a8.5,8.5,0,0,0-.2,1.345c0,.336.2.5.589.5a1.6,1.6,0,0,0,.648-.18l-.012-.084a4.05,4.05,0,0,1,.535-1.5,14.8,14.8,0,0,1,1.242-2.029q1.152-1.585,1.9-1.585a.679.679,0,0,1,.624.468q.9-.684.9-1.092a.538.538,0,0,0-.24-.444A.9.9,0,0,0,194.115,65.892Z" style="fill:#bc202a"/><path d="M205.184,64.079a2.208,2.208,0,0,1,2,1.417,1.306,1.306,0,0,0,.528-.9q0-.468-.612-.781a3.278,3.278,0,0,0-1.5-.312,4.916,4.916,0,0,0-3.764,1.723,5.924,5.924,0,0,0-1.567,4.125,2.991,2.991,0,0,0,3.242,3.241,5.507,5.507,0,0,0,2.69-.714q1.3-.715,1.3-1.483a1.222,1.222,0,0,0-.107-.432v.012a4.508,4.508,0,0,1-3.411,1.765,2.131,2.131,0,0,1-1.728-.745,2.977,2.977,0,0,1-.625-1.981,5.812,5.812,0,0,1,1.051-3.451A3.03,3.03,0,0,1,205.184,64.079Z" style="fill:#bc202a"/><path d="M229.316,67.681l-.3-.493a3.035,3.035,0,0,1-1.477.469A3.558,3.558,0,0,1,225.51,67a3.165,3.165,0,0,0-2.389-1.465.845.845,0,0,0-.192.541.829.829,0,0,0,.156.444,2.519,2.519,0,0,0-.432-.06,3.019,3.019,0,0,0-2.257,1.008c-.018.018-.029.039-.046.057l-.387-.212a18.264,18.264,0,0,1-1.908,2.665q-.926,1.044-1.345,1.044h-.024q-.54,0-.54-1.872v-.685a8.286,8.286,0,0,0-.072-1.177q-.23-1.392-1.309-1.392-1.822,0-3.55,3.905c.077-.386.12-.605.128-.651q.492-1.958.54-2.186l.961-4.838a4.872,4.872,0,0,1-2.017.42,2.067,2.067,0,0,1-1.309-.42q0,1.344,1.141,1.344a1.954,1.954,0,0,0,.792-.156l-1.2,6.064q-.156.792-.156.756a14.251,14.251,0,0,0-.36,1.945q0,.444.516.444a1.424,1.424,0,0,0,.685-.144.383.383,0,0,1-.1-.264,11.026,11.026,0,0,1,1.335-2.84q1.333-2.382,2.2-2.383.609,0,.61,1.765v.528A5.544,5.544,0,0,0,215.3,71.4a1.076,1.076,0,0,0,1.039.661q.78,0,1.969-1.3a11.827,11.827,0,0,0,1.183-1.536,3.468,3.468,0,0,0-.055.6,2.657,2.657,0,0,0,.732,1.945,2.593,2.593,0,0,0,1.934.744,3.543,3.543,0,0,0,2.7-1.248,4.221,4.221,0,0,0,1.14-2.942v-.246a4.991,4.991,0,0,0,1.453.258A3.26,3.26,0,0,0,229.316,67.681Zm-5.289,3.211a2.059,2.059,0,0,1-1.7,1,1.5,1.5,0,0,1-1.225-.577,2.028,2.028,0,0,1-.444-1.332,3.111,3.111,0,0,1,.192-1.093,3.059,3.059,0,0,1,.9-1.285,2.2,2.2,0,0,1,1.441-.564,4.628,4.628,0,0,1,.5.06,2.49,2.49,0,0,0,.889.457v.011a3.14,3.14,0,0,1,.156.937A4,4,0,0,1,224.027,70.892Z" style="fill:#bc202a"/><path d="M230.349,65.664a3.237,3.237,0,0,0,1.344-.829,2.8,2.8,0,0,0,.913-1.356,5.071,5.071,0,0,1-1.153.78,2.711,2.711,0,0,1-1.128.372h-.084a1.821,1.821,0,0,0-.133.753C230.108,65.57,230.188,65.664,230.349,65.664Z" style="fill:#bc202a"/><path d="M250.5,67.309a12.233,12.233,0,0,1-2.731,3.151,4.635,4.635,0,0,1-2.78,1.207q-1.446,0-1.451-1.717a5.224,5.224,0,0,0,2.91-.817,2.272,2.272,0,0,0,1.255-1.849,1.257,1.257,0,0,0-.451-1.014,1.834,1.834,0,0,0-1.218-.378,3.521,3.521,0,0,0-2.672,1.194,4.4,4.4,0,0,0-.34.441l-.373-.218q-2.9,4.49-5.043,4.49a1.57,1.57,0,0,1-1.279-.6,2.366,2.366,0,0,1-.486-1.546,3.462,3.462,0,0,1,.738-2.148,2.054,2.054,0,0,1,1.6-.969q1.008,0,1.009.948a.74.74,0,0,1-.061.264q1.094-.335,1.093-.96a.743.743,0,0,0-.42-.648,2.105,2.105,0,0,0-1.093-.252,3.884,3.884,0,0,0-2.857,1.212,4.439,4.439,0,0,0-.4.475l-.482-.27a16.454,16.454,0,0,1-2.353,3.133,3.272,3.272,0,0,1-1.957,1.225q-.613,0-.613-.721a7.368,7.368,0,0,1,.169-1.08l.228-1.141a7.124,7.124,0,0,0,.168-1.3q0-.6-.432-.6a6.5,6.5,0,0,0-.961.168.8.8,0,0,1,.2.552,11.83,11.83,0,0,1-.288,1.946l-.132.648a4.436,4.436,0,0,0-.108.84,1.571,1.571,0,0,0,.39,1.123,1.39,1.39,0,0,0,1.063.414,3.707,3.707,0,0,0,2.437-1.285,14.676,14.676,0,0,0,2.143-2.757,3.867,3.867,0,0,0-.282,1.461,2.816,2.816,0,0,0,.708,2,2.391,2.391,0,0,0,1.826.756,4.654,4.654,0,0,0,2.953-1.345,13.294,13.294,0,0,0,2.311-2.654,4.5,4.5,0,0,0-.2,1.3,2.921,2.921,0,0,0,.408,1.585,2.047,2.047,0,0,0,1.873.936,5.823,5.823,0,0,0,3.5-1.393A10.8,10.8,0,0,0,251,67.572Zm-4.61-.853q.66,0,.66.756a1.818,1.818,0,0,1-.877,1.477,3.613,3.613,0,0,1-2.1.684,4.322,4.322,0,0,1,.838-2.053A1.936,1.936,0,0,1,245.885,66.456Z" style="fill:#bc202a"/></svg>