<svg xmlns="http://www.w3.org/2000/svg" viewBox="0 0 317.48 184.251"><title>Better Mortgage Management</title><polygon points="158.741 9.715 223.472 56.046 223.472 30.055 256.081 30.055 256.081 79.455 300.473 111.415 256.081 111.415 158.741 42.163 61.562 111.415 17.492 111.415 158.741 9.715" style="fill:#7ac143;fill-rule:evenodd"/><path d="M253.98,171.792v-.969c.325-.163.486-.163.651-.326a4.369,4.369,0,0,0,1.127-1.289h1.292a4.517,4.517,0,0,1-1.292,1.93,5.8,5.8,0,0,1-1.778.654Zm0-3.554v-.967h2.262v-.322a2.723,2.723,0,0,0-.484-1.615,1.811,1.811,0,0,0-1.292-.487h-.486v-.964h.486a3.043,3.043,0,0,1,2.1.8,3.276,3.276,0,0,1,.97,2.422c0,.323-.161.8-.161,1.129Zm4.362,3.388,1.614-7.585h1.128l-.322,1.613a6,6,0,0,1,1.289-1.453,2.37,2.37,0,0,1,1.13-.318,1.618,1.618,0,0,1,.972.318l-.647,1.133a.941.941,0,0,0-.645-.167,1.993,1.993,0,0,0-1.455.65,7.26,7.26,0,0,0-1.125,2.9l-.649,2.905Zm-4.362-7.743v.964a8.979,8.979,0,0,0-1.129.647,2.739,2.739,0,0,0-.97,1.777h2.1v.967h-2.259a.588.588,0,0,0-.165.483,2.715,2.715,0,0,0,.488,1.613,2.138,2.138,0,0,0,1.292.489h.644v.969h-.644c-.646,0-1.129-.166-1.615-.166a3,3,0,0,1-1.13-1.292,4.662,4.662,0,0,1-.322-1.613,4.718,4.718,0,0,1,.645-2.584,3.982,3.982,0,0,1,1.456-1.775,3.11,3.11,0,0,1,1.61-.479Zm-16.629,7.909v-.969c.328-.163.488-.163.653-.326a4.427,4.427,0,0,0,1.127-1.289h1.293a6.823,6.823,0,0,1-1.293,1.93,5.815,5.815,0,0,1-1.78.654Zm0-3.554v-.967h2.264v-.322a2.716,2.716,0,0,0-.484-1.615,1.817,1.817,0,0,0-1.292-.487h-.488v-.964h.488a3.049,3.049,0,0,1,2.1.8,3.161,3.161,0,0,1,.809,2.422v1.129Zm7.428,2.422-.162.966a1.964,1.964,0,0,1-.962.166,3.016,3.016,0,0,1-1.295-.329.95.95,0,0,1-.323-.8,4.183,4.183,0,0,1,.163-1.129l.966-4.524h-1.129l.323-.966h.967l.488-1.933,1.452-.972-.65,2.905h1.455l-.326.966h-1.288l-.8,4.361a2.77,2.77,0,0,0-.165.966v.326a.6.6,0,0,0,.485.163,1.187,1.187,0,0,0,.8-.163Zm4.2,0-.32.966a1.427,1.427,0,0,1-.809.166,2.487,2.487,0,0,1-1.292-.329c-.321-.16-.321-.325-.321-.8a4.183,4.183,0,0,1,.163-1.129l.969-4.524h-1.132l.321-.966h.971l.484-1.933,1.454-.972-.645,2.905h1.287l-.16.966h-1.29l-.972,4.361a5.791,5.791,0,0,1-.158.966.575.575,0,0,0,.158.326.6.6,0,0,0,.488.163A1.426,1.426,0,0,0,248.976,170.66Zm-11.625-6.777v.964a3.945,3.945,0,0,0-1.127.647,2.725,2.725,0,0,0-.969,1.777h2.1v.967h-2.422v.483a2.722,2.722,0,0,0,.488,1.613,1.826,1.826,0,0,0,1.293.489h.641v.969h-.641c-.646,0-1.129-.166-1.615-.166a2.99,2.99,0,0,1-1.13-1.292,4.661,4.661,0,0,1-.323-1.613,4.711,4.711,0,0,1,.647-2.584,3.968,3.968,0,0,1,1.452-1.775,3.12,3.12,0,0,1,1.61-.479Zm-8.227,7.909v-.969c.321,0,.481-.163.8-.489a5.565,5.565,0,0,0,.972-1.45,8.027,8.027,0,0,0,.32-1.935,1.964,1.964,0,0,0-.483-1.455,1.618,1.618,0,0,0-1.132-.647c-.16,0-.323.16-.481.16v-.966a1.468,1.468,0,0,1,.8-.158,2.182,2.182,0,0,1,1.942.8,3.173,3.173,0,0,1,.645,2.262,3.491,3.491,0,0,1-.323,1.935,3.02,3.02,0,0,1-.646,1.45c-.326.326-.646.649-.971.969a2.311,2.311,0,0,1-.97.323C229.445,171.626,229.282,171.792,229.124,171.792Zm0-7.751v.966a.88.88,0,0,0-.808.487,2.712,2.712,0,0,0-.967,1.615,2.943,2.943,0,0,0-.323,1.455v.32a1.975,1.975,0,0,0,.48,1.45,1.462,1.462,0,0,0,1.13.489h.488v.969H228.8c-.483,0-.969-.166-1.45-.166a3.517,3.517,0,0,1-.81-1.292l-.32,1.292h-1.135l2.1-10.49h1.45l-.806,3.711a4.9,4.9,0,0,1,1.131-.806Zm-19.857,5.652v-.485l1.453-.161a2.039,2.039,0,0,0,.16.964c0,.323.324.486.646.649a2.32,2.32,0,0,0,1.133.323,3,3,0,0,0,1.289-.323,2.309,2.309,0,0,0,.326-.967,1.207,1.207,0,0,0-.163-.646,8.646,8.646,0,0,0-1.292-.646,6.645,6.645,0,0,1-1.455-.649,1.6,1.6,0,0,1-.644-.8,1.258,1.258,0,0,1-.321-.812,2.228,2.228,0,0,1,.805-1.61,2.571,2.571,0,0,1,1.94-.644,3.139,3.139,0,0,1,2.257.644,2.292,2.292,0,0,1,.808,1.775l-1.29.16a1.26,1.26,0,0,0-.485-1.128,1.819,1.819,0,0,0-1.29-.487,2.37,2.37,0,0,0-1.134.32,1.248,1.248,0,0,0-.321.65c0,.32,0,.485.321.645a5.406,5.406,0,0,0,1.134.647c.967.483,1.61.8,1.934.969a2.908,2.908,0,0,1,.646,1.453,2.153,2.153,0,0,1-.483,1.292,1.7,1.7,0,0,1-.967.8c-.488,0-1.13.166-1.778.166a5.166,5.166,0,0,1-2.262-.489,2.762,2.762,0,0,1-.967-1.61Zm0-5.652h0Zm7.749,7.585.323-1.292h1.452l-.163,1.292a5.039,5.039,0,0,1-.808,1.619,1.85,1.85,0,0,1-1.292.483l.162-.483c.649-.163.973-.647,1.13-1.619Zm-7.749-7.585h0l-.162.966h-1.292l-.8,4.361a2.817,2.817,0,0,0-.162.966v.326a.588.588,0,0,0,.483.163,1.2,1.2,0,0,0,.809-.163l-.163.966a1.989,1.989,0,0,1-.967.166,3.024,3.024,0,0,1-1.3-.329.95.95,0,0,1-.322-.8,4.207,4.207,0,0,1,.162-1.129l.967-4.524h-1.129l.322-.966h.97l.485-1.933,1.454-.972-.647,2.905Zm0,5.167h0v0Zm-24.7,2.418v-.8a1.863,1.863,0,0,0,1.13-.812,5.082,5.082,0,0,0,1.134-3.062,3.018,3.018,0,0,0-.489-1.455,1.8,1.8,0,0,0-1.287-.487h-.488v-1.124h.326a2.574,2.574,0,0,1,2.259,1.284l.808-4.031h1.451l-2.259,10.49H185.86l.325-.966a2.5,2.5,0,0,1-1.618.966Zm10.008-1.292a3.632,3.632,0,0,1-2.906,1.458,3.2,3.2,0,0,1-1.45-.329,1.821,1.821,0,0,1-.485-1.292,7.43,7.43,0,0,1,.16-1.607l.969-4.523h1.295l-.972,5.006a2.075,2.075,0,0,0-.158.964,1,1,0,0,0,.158.649,1.445,1.445,0,0,0,.809.163,2.365,2.365,0,0,0,1.129-.163,4.366,4.366,0,0,0,.969-.807,6.971,6.971,0,0,0,.644-1.132c0-.157.163-.643.326-1.289l.646-3.391H197l-1.615,7.585h-1.129l.321-1.292Zm8.394-1.45,1.3.163a4.58,4.58,0,0,1-1.453,2.256,4.474,4.474,0,0,1-2.1.489,3.226,3.226,0,0,1-2.1-.654,3.131,3.131,0,0,1-.646-2.254,7.33,7.33,0,0,1,.484-2.582,3.876,3.876,0,0,1,3.55-2.419,2.567,2.567,0,0,1,1.939.644,2.665,2.665,0,0,1,.808,1.935h-1.292a1.455,1.455,0,0,0-.488-1.128,1.348,1.348,0,0,0-1.13-.327,1.829,1.829,0,0,0-1.292.487,2.361,2.361,0,0,0-.966,1.455,8.179,8.179,0,0,0-.321,1.935,2.145,2.145,0,0,0,.484,1.613,1.14,1.14,0,0,0,.966.486A2.129,2.129,0,0,0,202,170.5,4.651,4.651,0,0,0,202.969,168.884Zm-18.4-5v1.124c-.157,0-.322,0-.322.16a1.637,1.637,0,0,0-.807.65,3.27,3.27,0,0,0-.647,1.292,6.1,6.1,0,0,0-.32,1.455c0,.483.162.967.162,1.289a2.877,2.877,0,0,0,.645.807,1.222,1.222,0,0,0,.805.323c.162,0,.327-.16.484-.16v.8c-.157.166-.484.166-.8.166a2.193,2.193,0,0,1-1.775-.654,3.317,3.317,0,0,1-.81-2.417,5.13,5.13,0,0,1,.647-2.584,3.976,3.976,0,0,1,1.453-1.775,2.146,2.146,0,0,1,1.289-.479Zm-8.069,7.909v-.969h.326a2.9,2.9,0,0,0,.8-.652,3.465,3.465,0,0,0,.647-.8c.16-.16.16-.484.32-.967a3.8,3.8,0,0,0,.325-1.292,2.48,2.48,0,0,0-.645-1.615,1.47,1.47,0,0,0-1.293-.647H176.5v-.964h.483a3.2,3.2,0,0,1,2.262.8,3.282,3.282,0,0,1,.969,2.422,4.225,4.225,0,0,1-.646,2.422,3.246,3.246,0,0,1-1.455,1.772A6.34,6.34,0,0,1,176.5,171.792Zm0-7.909v.964c-.321.16-.483.16-.646.32a4.406,4.406,0,0,0-.969.812,13.157,13.157,0,0,0-.646,1.453c0,.481-.16.806-.16,1.289a1.866,1.866,0,0,0,.645,1.613,1.3,1.3,0,0,0,1.293.649.593.593,0,0,0,.483-.16v.969h-.483c-.646,0-1.132-.166-1.778-.166a3.755,3.755,0,0,1-1.13-1.129v-3.548a5.477,5.477,0,0,1,.97-1.942,4.214,4.214,0,0,1,2.421-1.124Zm-3.391.964.323-.646a.5.5,0,0,0-.323-.16Zm0-.806v.806l-.323.487a.945.945,0,0,0-.646-.167,1.977,1.977,0,0,0-1.45.65,5.432,5.432,0,0,0-1.13,2.9l-.809,2.905h-1.131l1.615-7.585h1.13l-.322,1.613a5.685,5.685,0,0,1,1.13-1.453,3.822,3.822,0,0,1,1.287-.318,1.247,1.247,0,0,1,.649.158Zm0,2.908a6.045,6.045,0,0,0-.323,1.935,4.719,4.719,0,0,0,.323,1.45v-3.385Zm-9.847,4.843v-.969a1.942,1.942,0,0,0,1.455-1.292,4.9,4.9,0,0,0,.807-2.582,1.944,1.944,0,0,0-1.778-2.1c-.161,0-.322.16-.484.16v-.966a2.1,2.1,0,0,1,.972-.158,2.039,2.039,0,0,1,1.77.8,3.177,3.177,0,0,1,.809,2.262,5.185,5.185,0,0,1-.483,2.259,14.711,14.711,0,0,1-.967,1.615,5.225,5.225,0,0,1-1.129.8C163.907,171.626,163.583,171.792,163.26,171.792Zm0-7.751v.966a.594.594,0,0,0-.483.16,3.726,3.726,0,0,0-.647.812,3.228,3.228,0,0,0-.645,1.292,4.877,4.877,0,0,0-.323,1.293c0,.644.16.967.16,1.289a3.015,3.015,0,0,0,.646.807c.162.163.484.163.972.163h.32v.969h-.32a2.085,2.085,0,0,1-2.1-1.295l-.966,4.04H158.58l2.258-10.5h1.292l-.323,1.126a8.439,8.439,0,0,1,1.29-1.126Zm-17.435,7.751v-.969c.164-.163.323-.163.647-.326a3.893,3.893,0,0,0,.969-1.289h1.291a4.46,4.46,0,0,1-1.291,1.93,4.9,4.9,0,0,1-1.616.654Zm0-3.554v-.967h2.1v-.322a2.717,2.717,0,0,0-.486-1.615,1.578,1.578,0,0,0-1.293-.487h-.323v-.964h.323a3.5,3.5,0,0,1,2.264.8,3.987,3.987,0,0,1,.8,2.422,2.723,2.723,0,0,1-.163,1.129Zm4.2,3.388,1.614-7.585h1.294l-.323,1.613a5.685,5.685,0,0,1,1.129-1.453,3,3,0,0,1,1.126-.318,1.2,1.2,0,0,1,.97.318l-.481,1.133a1.43,1.43,0,0,0-.81-.167,1.989,1.989,0,0,0-1.452.65,7.267,7.267,0,0,0-1.13,2.9l-.646,2.905Zm-4.2-7.743v.964a2.569,2.569,0,0,0-1.13.647,3.737,3.737,0,0,0-1.128,1.777h2.258v.967h-2.419v.483a2.725,2.725,0,0,0,.482,1.613,1.736,1.736,0,0,0,1.131.489h.806v.969h-.806c-.485,0-.97-.166-1.452-.166a2.223,2.223,0,0,1-1.129-1.292,2.643,2.643,0,0,1-.323-1.613,6.711,6.711,0,0,1,.484-2.584,5.8,5.8,0,0,1,1.612-1.775,2.739,2.739,0,0,1,1.614-.479ZM129.2,171.792v-.969c.164-.163.322-.163.646-.326a8.985,8.985,0,0,0,.97-1.289h1.291a4.487,4.487,0,0,1-1.291,1.93,4.9,4.9,0,0,1-1.616.654Zm0-3.554v-.967h2.1v-.322a2.723,2.723,0,0,0-.485-1.615,1.822,1.822,0,0,0-1.294-.487H129.2v-.964h.322a3.5,3.5,0,0,1,2.265.8,3.993,3.993,0,0,1,.8,2.422,2.754,2.754,0,0,1-.161,1.129Zm7.264,2.422-.158.966a2.011,2.011,0,0,1-.971.166,1.863,1.863,0,0,1-1.129-.329.743.743,0,0,1-.485-.8c0-.163.161-.489.32-1.129l.812-4.524h-.971l.159-.966h1.132l.324-1.933,1.614-.972-.647,2.905h1.291l-.158.966h-1.291l-.971,4.361a2.817,2.817,0,0,0-.162.966c0,.163,0,.326.162.326,0,.163.162.163.482.163a.959.959,0,0,0,.647-.163Zm4.2,0-.16.966a2,2,0,0,1-.97.166,3.034,3.034,0,0,1-1.293-.329.953.953,0,0,1-.323-.8,5.733,5.733,0,0,0,.164-1.129l.97-4.524h-.97l.159-.966h.97l.485-1.933,1.455-.972-.487,2.905h1.293l-.324.966h-1.293l-.806,4.361a2.865,2.865,0,0,0-.159.966c0,.163,0,.326.159.326,0,.163.162.163.323.163A1.2,1.2,0,0,0,140.66,170.66ZM129.2,163.883v.964a2.558,2.558,0,0,0-1.13.647,3.755,3.755,0,0,0-1.132,1.777H129.2v.967h-2.423v.483a2.706,2.706,0,0,0,.485,1.613,1.462,1.462,0,0,0,1.131.489h.807v.969h-.807c-.484,0-1.131-.166-1.616-.166a2,2,0,0,1-.965-1.292,2.706,2.706,0,0,1-.485-1.613,6.756,6.756,0,0,1,.647-2.584,5.361,5.361,0,0,1,1.45-1.775,3.7,3.7,0,0,1,1.776-.479Zm-8.393,7.909v-.969a.881.881,0,0,0,.8-.489,2.326,2.326,0,0,0,.97-1.45,4.079,4.079,0,0,0,.324-1.935c0-.647,0-1.132-.324-1.455a1.976,1.976,0,0,0-1.292-.647c-.161,0-.323.16-.482.16v-.966a2.081,2.081,0,0,1,.968-.158,2.054,2.054,0,0,1,1.776.8,3.2,3.2,0,0,1,.806,2.262,5.948,5.948,0,0,1-.324,1.935,3.081,3.081,0,0,1-.8,1.45c-.323.326-.483.649-.807.969a2.316,2.316,0,0,1-.969.323C121.288,171.626,120.965,171.792,120.806,171.792Zm0-7.751v.966a1.463,1.463,0,0,0-.8.487,7,7,0,0,0-.97,1.615,8.069,8.069,0,0,0-.324,1.455v.32a1.964,1.964,0,0,0,.485,1.45,1.456,1.456,0,0,0,1.132.489h.482v.969h-.323c-.482,0-.97-.166-1.291-.166a2.5,2.5,0,0,1-.97-1.292l-.321,1.292h-1.132l2.262-10.49h1.293l-.811,3.711c.488-.32.811-.646,1.134-.806Zm-16.628,7.751v-.969c.161-.163.322-.163.646-.326a2.539,2.539,0,0,0,.97-1.289h1.288a4.469,4.469,0,0,1-1.288,1.93,4.925,4.925,0,0,1-1.616.654Zm0-3.554v-.967h2.1v-.322a2.721,2.721,0,0,0-.482-1.615,1.58,1.58,0,0,0-1.294-.487h-.322v-.964h.322a3.18,3.18,0,0,1,2.26.8,3.947,3.947,0,0,1,.81,2.422,2.708,2.708,0,0,1-.164,1.129Zm4.521,3.388.323-1.292h1.612l-.324,1.292a5.137,5.137,0,0,1-.805,1.619,1.766,1.766,0,0,1-1.129.483v-.483c.646-.163.969-.647,1.129-1.619Zm-4.521-7.743v.964a2.553,2.553,0,0,0-1.127.647,3.763,3.763,0,0,0-1.133,1.777h2.26v.967h-2.421v.483a2.7,2.7,0,0,0,.486,1.613,1.824,1.824,0,0,0,1.29.489h.645v.969h-.8c-.486,0-.969-.166-1.455-.166a2.241,2.241,0,0,1-1.13-1.292,2.636,2.636,0,0,1-.324-1.613,6.675,6.675,0,0,1,.488-2.584,5.752,5.752,0,0,1,1.614-1.775,2.733,2.733,0,0,1,1.612-.479Zm-14.687,7.743v-.966l1.452-6.619h1.291l-1.614,7.585Zm0-7.264.159-.321h-.159v.321Zm1.611-1.774.323-1.452h1.45l-.32,1.452Zm6.942,6.3,1.291.163a4.6,4.6,0,0,1-1.45,2.256,4.478,4.478,0,0,1-2.1.489,3.236,3.236,0,0,1-2.1-.654,3.126,3.126,0,0,1-.646-2.254,7.307,7.307,0,0,1,.484-2.582,3.884,3.884,0,0,1,3.554-2.419,2.554,2.554,0,0,1,1.934.644,2.654,2.654,0,0,1,.809,1.935H98.529a1.456,1.456,0,0,0-.485-1.128,1.349,1.349,0,0,0-1.129-.327,1.818,1.818,0,0,0-1.293.487,2.359,2.359,0,0,0-.968,1.455,8.033,8.033,0,0,0-.323,1.935,2.136,2.136,0,0,0,.485,1.613,1.146,1.146,0,0,0,.97.486,2.133,2.133,0,0,0,1.291-.486A4.682,4.682,0,0,0,98.044,168.884Zm-8.553-4.843v.321l-4.2,7.264H83.837l-1.291-7.264V164.2h0v-.16h1.291l.648,4.2c0,.483.161,1.293.161,2.422.323-.649.646-1.292.969-1.939l2.741-4.68Zm0,6.619-.324.966h.324Zm-6.945-6.619h0a2.083,2.083,0,0,0-.966-.158,3.014,3.014,0,0,0-1.13.318,5.709,5.709,0,0,0-1.132,1.453l.323-1.613H78.512l-1.776,7.585h1.291l.645-2.905a7.192,7.192,0,0,1,1.131-2.9,2.272,2.272,0,0,1,1.455-.65,1.166,1.166,0,0,1,.8.167l.485-1.133v-.16ZM72.54,171.792v-.969c.161-.163.483-.163.645-.326a2.507,2.507,0,0,0,.968-1.289h1.292a4.481,4.481,0,0,1-1.292,1.93,4.89,4.89,0,0,1-1.613.654Zm0-3.554v-.967h2.1v-.322a2.725,2.725,0,0,0-.487-1.615,1.581,1.581,0,0,0-1.291-.487H72.54v-.964h.322a3.183,3.183,0,0,1,2.26.8,3.97,3.97,0,0,1,.807,2.422v1.129Zm0-4.355v.964a2.52,2.52,0,0,0-1.13.647,3.741,3.741,0,0,0-1.133,1.777H72.54v.967H70.119v.483a2.7,2.7,0,0,0,.482,1.613,1.826,1.826,0,0,0,1.293.489h.646v.969h-.646c-.646,0-1.132-.166-1.617-.166a2.233,2.233,0,0,1-1.127-1.292,2.65,2.65,0,0,1-.322-1.613,6.748,6.748,0,0,1,.482-2.584,5.824,5.824,0,0,1,1.613-1.775,2.75,2.75,0,0,1,1.617-.479Zm-25.023,7.909v-.969c.321-.163.485-.163.645-.326a4.4,4.4,0,0,0,1.131-1.289h1.291a6.73,6.73,0,0,1-1.291,1.93,5.869,5.869,0,0,1-1.776.654Zm0-3.554v-.967h2.261v-.322a2.716,2.716,0,0,0-.485-1.615A1.82,1.82,0,0,0,48,164.847h-.485v-.964H48a3.061,3.061,0,0,1,2.1.8,3.171,3.171,0,0,1,.807,2.422v1.129Zm4.36,3.388,1.613-7.585h1.13l-.323,1.613a15.821,15.821,0,0,1,1.13-1.453,3.837,3.837,0,0,1,1.293-.318,1.616,1.616,0,0,1,.969.318l-.646,1.133a.946.946,0,0,0-.647-.167,1.986,1.986,0,0,0-1.453.65,5.448,5.448,0,0,0-1.131,2.9l-.642,2.905Zm9.2-2.418,1.291-.161a2.255,2.255,0,0,0,.323.964c0,.323.323.486.646.649a2.279,2.279,0,0,0,.97.323,3.2,3.2,0,0,0,1.45-.323,2.317,2.317,0,0,0,.323-.967,1.219,1.219,0,0,0-.161-.646,14.961,14.961,0,0,0-1.453-.646,9.053,9.053,0,0,1-1.291-.649,1.6,1.6,0,0,1-.646-.8,1.254,1.254,0,0,1-.322-.812,2.227,2.227,0,0,1,.807-1.61,2.562,2.562,0,0,1,1.935-.644,3.148,3.148,0,0,1,2.261.644,2.3,2.3,0,0,1,.807,1.775l-1.291.16a1.252,1.252,0,0,0-.484-1.128,1.82,1.82,0,0,0-1.293-.487,2.334,2.334,0,0,0-1.127.32.652.652,0,0,0-.324.65c0,.32,0,.485.324.645a5.454,5.454,0,0,0,1.127.647c.97.483,1.616.8,1.938.969a2.612,2.612,0,0,1,.487,1.453,1.954,1.954,0,0,1-.323,1.292,1.693,1.693,0,0,1-.971.8c-.484,0-1.131.166-1.773.166a4.7,4.7,0,0,1-2.264-.489A2.391,2.391,0,0,1,61.078,169.208Zm-13.561-5.325v.964a3.9,3.9,0,0,0-1.128.647,2.723,2.723,0,0,0-.971,1.777h2.1v.967H45.1v.483a2.714,2.714,0,0,0,.487,1.613,1.819,1.819,0,0,0,1.291.489h.644v.969h-.644c-.646,0-1.132-.166-1.614-.166a2.962,2.962,0,0,1-1.132-1.292,4.944,4.944,0,0,1,.323-4.2,3.976,3.976,0,0,1,1.453-1.775,3.134,3.134,0,0,1,1.614-.479ZM30.89,171.792v-.969c.162-.163.483-.163.645-.326a2.509,2.509,0,0,0,.969-1.289H33.8a3.415,3.415,0,0,1-1.294,1.93,4.9,4.9,0,0,1-1.614.654Zm0-3.554v-.967h2.262v-.322a2.074,2.074,0,0,0-.648-1.615,1.455,1.455,0,0,0-1.131-.487H30.89v-.964h.321a2.823,2.823,0,0,1,3.069,3.226v1.129Zm7.427,2.422-.323.966a1.426,1.426,0,0,1-.809.166,2.48,2.48,0,0,1-1.289-.329c-.322-.16-.322-.325-.322-.8a4.308,4.308,0,0,1,.158-1.129l.969-4.524H35.574l.322-.966h.966l.486-1.933,1.452-.972-.645,2.905h1.291l-.161.966H37.994l-.971,4.361a5.693,5.693,0,0,1-.161.966.571.571,0,0,0,.161.326.594.594,0,0,0,.486.163,1.446,1.446,0,0,0,.808-.163Zm4.2,0-.321.966a2,2,0,0,1-.97.166,2.324,2.324,0,0,1-1.129-.329c-.324-.16-.324-.325-.324-.8a4.207,4.207,0,0,1,.162-1.129l.968-4.524h-1.13l.162-.966h1.132l.323-1.933L43,161.136l-.643,2.905h1.291l-.16.966H42.192l-.97,4.361a2.865,2.865,0,0,0-.159.966c0,.163,0,.326.159.326.164.163.164.163.487.163A1.431,1.431,0,0,0,42.513,170.66Zm-20.179-9.524h1.614c.488.16.812.16,1.132.484a1.981,1.981,0,0,1,.807.808,3.058,3.058,0,0,1,.322,1.129,2.709,2.709,0,0,1-.486,1.61,2.316,2.316,0,0,1-1.451.97,3.829,3.829,0,0,1,1.291.972,3.051,3.051,0,0,1,.324,1.292,2.724,2.724,0,0,1-.484,1.61,3.267,3.267,0,0,1-1.291,1.292,3.481,3.481,0,0,1-1.778.323V170.5H22.5a2.323,2.323,0,0,0,1.132-.326c.161-.318.484-.478.644-.8a2.015,2.015,0,0,0,.164-.967,1.457,1.457,0,0,0-.488-1.13c-.32-.322-.8-.322-1.614-.322v-1.3a2.578,2.578,0,0,0,1.778-.487,1.687,1.687,0,0,0,.806-1.45,1.217,1.217,0,0,0-.322-.805l-.484-.484a3.551,3.551,0,0,0-1.453-.163h-.325v-1.129Zm8.556,2.747v.964a3.927,3.927,0,0,0-1.129.647,2.743,2.743,0,0,0-.97,1.777h2.1v.967H28.469v.483a2.714,2.714,0,0,0,.487,1.613,1.819,1.819,0,0,0,1.291.489h.643v.969h-.643c-.648,0-1.132-.166-1.614-.166a2.916,2.916,0,0,1-1.13-1.292,4.684,4.684,0,0,1-.323-1.613,6.711,6.711,0,0,1,.482-2.584,5.784,5.784,0,0,1,1.617-1.775A2.727,2.727,0,0,1,30.89,163.883Zm-13.883,7.743,2.263-10.49h3.064v1.129H20.4l-.644,3.389h2.581v1.3H19.429l-.646,3.548h3.551v1.129H17.007Z" style="fill:#0054a4;fill-rule:evenodd"/><path d="M289.013,171.792v-.969c.16-.163.484-.163.484-.326a2.519,2.519,0,0,0,.966-1.289h1.295a4.527,4.527,0,0,1-1.295,1.93,5.857,5.857,0,0,1-1.45.654Zm0-3.554v-.967h1.934a.5.5,0,0,0,.16-.322,2.853,2.853,0,0,0-.644-1.615,1.453,1.453,0,0,0-1.127-.487h-.323v-.964h.323a3.059,3.059,0,0,1,2.1.8,3.173,3.173,0,0,1,.81,2.422v1.129Zm4.2.97,1.456-.161a2.039,2.039,0,0,0,.16.964c0,.323.323.486.643.649a2.269,2.269,0,0,0,.972.323,3.192,3.192,0,0,0,1.45-.323,2.315,2.315,0,0,0,.322-.967,1.226,1.226,0,0,0-.16-.646,8.489,8.489,0,0,0-1.292-.646,6.616,6.616,0,0,1-1.452-.649,1.586,1.586,0,0,1-.643-.8,1.226,1.226,0,0,1-.327-.812,2.238,2.238,0,0,1,.81-1.61,2.556,2.556,0,0,1,1.935-.644,3.151,3.151,0,0,1,2.262.644,2.309,2.309,0,0,1,.809,1.775l-1.292.16a1.248,1.248,0,0,0-.489-1.128,1.808,1.808,0,0,0-1.29-.487,2.359,2.359,0,0,0-1.129.32,1.23,1.23,0,0,0-.326.65c0,.32,0,.485.326.645a5.432,5.432,0,0,0,1.129.647c.969.483,1.616.8,1.941.969a2.919,2.919,0,0,1,.643,1.453,2.142,2.142,0,0,1-.488,1.292,1.649,1.649,0,0,1-.967.8c-.482,0-1.129.166-1.772.166a4.666,4.666,0,0,1-2.259-.489A2.4,2.4,0,0,1,293.208,169.208Zm-4.2-5.325v.964a2.571,2.571,0,0,0-1.132.647,3.745,3.745,0,0,0-1.129,1.777h2.261v.967h-2.422v.483a2.725,2.725,0,0,0,.482,1.613,1.828,1.828,0,0,0,1.292.489h.648v.969h-.648c-.644,0-1.13-.166-1.613-.166a2.971,2.971,0,0,1-1.13-1.292,2.629,2.629,0,0,1-.325-1.613,6.749,6.749,0,0,1,.486-2.584,5.829,5.829,0,0,1,1.615-1.775,2.731,2.731,0,0,1,1.615-.479ZM276.1,171.626v-.8c.16,0,.32-.163.642-.163q.488-.489.968-.967c.162-.485.326-1.129.486-1.78a1.191,1.191,0,0,0-.644.165h-.972a.588.588,0,0,1-.48.16v-.967c.16,0,.32-.162.48-.162a5.057,5.057,0,0,0,1.777-.16,2.055,2.055,0,0,0,.162-.97c0-.325,0-.485-.323-.645a1.815,1.815,0,0,0-1.289-.487,6.8,6.8,0,0,0-.807.16v-1.124h.807a3.137,3.137,0,0,1,2.254.644,1.455,1.455,0,0,1,.645,1.29,4.605,4.605,0,0,1-.157,1.454l-.323,1.937A7.828,7.828,0,0,0,279,170.66c0,.323.159.643.159.966h-1.289a7.309,7.309,0,0,1-.162-.8c-.483.315-.968.64-1.29.8Zm7.746-.966-.163.966a1.98,1.98,0,0,1-.967.166,3.018,3.018,0,0,1-1.292-.329.942.942,0,0,1-.323-.8,5.866,5.866,0,0,0,.16-1.129l.97-4.524h-.97l.163-.966h1.13l.322-1.933,1.616-.972-.646,2.905h1.29l-.161.966h-1.292l-.967,4.361a2.817,2.817,0,0,0-.162.966c0,.163,0,.326.162.326,0,.163.16.163.326.163A1.2,1.2,0,0,0,283.847,170.66Zm-10.816-6.619a.5.5,0,0,1,.32.16l-.32.646v-.806Zm3.07-.158v1.124c-.165.16-.488.16-.648.327a1.485,1.485,0,0,0-.647.968h-1.455a3.878,3.878,0,0,1,1.3-1.775,5.474,5.474,0,0,1,1.455-.644Zm0,3.388v.967a8.973,8.973,0,0,0-1.132.163,3.6,3.6,0,0,0-.811.483,1.463,1.463,0,0,0-.161.809,2.3,2.3,0,0,0,.324.967,2.332,2.332,0,0,0,1.132.323.99.99,0,0,0,.648-.16v.8a2.343,2.343,0,0,1-1.132.166,2.42,2.42,0,0,1-1.618-.489c-.16-.165-.32-.165-.32-.32v-2.419a1.589,1.589,0,0,1,.645-.812,11.354,11.354,0,0,1,1.293-.481Zm-8.56,4.355,1.616-7.585h1.132l-.326,1.613a5.844,5.844,0,0,1,1.129-1.453,4.16,4.16,0,0,1,1.135-.318,1.478,1.478,0,0,1,.8.158v.806l-.324.487c-.16-.167-.48-.167-.806-.167a1.957,1.957,0,0,0-1.294.65,5.5,5.5,0,0,0-1.13,2.9l-.807,2.905Zm5.49-3.062h-.163a2.388,2.388,0,0,0-.161,1.129,1.943,1.943,0,0,0,.324,1.29Z" style="fill:#0054a4;fill-rule:evenodd"/><rect x="17.654" y="129.656" width="282.013" height="25.186" style="fill:#7ac143"/><path d="M208.3,126.751V108.674a6.656,6.656,0,0,1,3.709-.968,4.5,4.5,0,0,1,3.879,1.77l.16.163.8-1.613h1.775v7.261H216.37a7.986,7.986,0,0,0-1.129-4.031,2.677,2.677,0,0,0-2.422-1.292,2.108,2.108,0,0,0-2.259,1.616c-.483,1.127-.646,3.065-.646,5.97a43.516,43.516,0,0,0,.325,6.456,1.909,1.909,0,0,0,1.61,1.292,2.077,2.077,0,0,0,1.615-.645,4.6,4.6,0,0,0,.647-2.1v-.8a4.3,4.3,0,0,0-.325-1.775c-.161-.321-.642-.321-1.127-.321h-.97V117.39h8.878v2.261h-.646c-.483,0-.646,0-.806.16a1.369,1.369,0,0,0-.324.97v6.293h-2.263l-.8-1.45a4.332,4.332,0,0,1-4.035,1.933,7.534,7.534,0,0,1-3.388-.806Zm0-32.772V91.558a3.06,3.06,0,0,0,1.452-.641,3.818,3.818,0,0,0,.646-2.585,3.337,3.337,0,0,0-.646-2.42,3.042,3.042,0,0,0-1.452-.647V83.006h.321c2.258,0,3.874.32,5,1.127a4.592,4.592,0,0,1,1.616,3.873,4.832,4.832,0,0,1-1.616,3.877,7.582,7.582,0,0,1-3.226.968,7.281,7.281,0,0,1,1.45.487,4.337,4.337,0,0,1,2.262,3.226l.163,1.938a8.236,8.236,0,0,1,.32,1.453.845.845,0,0,0,.647.323c.325,0,.483-.163.648-.484a5.623,5.623,0,0,0,.16-1.938h1.771a5.284,5.284,0,0,1-.967,3.389,3.587,3.587,0,0,1-3.067,1.131,5.554,5.554,0,0,1-3.226-.806,4.9,4.9,0,0,1-1.13-3.068V96.564a3.962,3.962,0,0,0-.646-2.1c-.162-.323-.326-.323-.483-.488Zm15.494,33.1v-2.1h.644a3.368,3.368,0,0,0,.811-.16,1.234,1.234,0,0,0,.321-.809v-12.75a3.294,3.294,0,0,0-.16-.808,1.2,1.2,0,0,0-.807-.163H223.8v-2.259h15.174v6.459H236.71v-.807a3.5,3.5,0,0,0-.809-2.584,4.458,4.458,0,0,0-2.9-.809h-2.743V116.1h1.45a1.359,1.359,0,0,0,.971-.325,1.375,1.375,0,0,0,.322-.967v-1.455h2.1v7.588H233v-1.29a2.315,2.315,0,0,0-.322-1.129c-.16-.163-.483-.163-.971-.163h-1.45v6.616H233a3.936,3.936,0,0,0,2.9-.969,4.631,4.631,0,0,0,.809-3.065v-.969h2.259v7.1H223.8ZM208.3,83.006v2.259h-2.1v6.293h2.1v2.421a2.469,2.469,0,0,0-1.133-.157H206.2v5.809c.16.163.32.163.646.163h.967v2.259h-8.23V99.794h.806c.321,0,.647,0,.8-.163s.165-.32.165-.645V86.07c0-.322,0-.643-.165-.643a.709.709,0,0,0-.8-.162h-.806V83.006H208.3Zm0,25.668v18.077a4.427,4.427,0,0,1-1.618-1.29c-1.13-1.455-1.613-3.714-1.613-6.939,0-3.877.643-6.622,1.613-8.4a4.544,4.544,0,0,1,1.618-1.453ZM192,121.584v-2.258h1.613l-1.45-6.94h0l-.163.644v-5h3.388l4.039,15.98c.159.487.159.647.322.809.16,0,.32.16.645.16h.8v2.1h-8.07v-2.1h.647a3.281,3.281,0,0,0,.8-.16,1.208,1.208,0,0,0,.162-.809l-.644-2.422Zm0-19.531V99.311c.163,0,.323-.163.483-.325a4.966,4.966,0,0,0,.81-3.066v-.969h2.258v7.1Zm0-16.465V83.006h3.551v6.458h-2.258v-.807a4.266,4.266,0,0,0-.81-2.745C192.318,85.912,192.158,85.748,192,85.588Zm0-2.582v2.582a8.438,8.438,0,0,0-2.261-.323h-2.745v5.813h1.292a1.34,1.34,0,0,0,.966-.326,1.856,1.856,0,0,0,.326-1.129V88.332h2.259V95.76h-2.259V94.467a1.352,1.352,0,0,0-.326-.97,1.368,1.368,0,0,0-.966-.323h-1.292v6.62h2.584A5.432,5.432,0,0,0,192,99.311v2.742H180.372V99.794h.806a1.207,1.207,0,0,0,.81-.163c.16-.16.16-.32.16-.645V86.07c0-.322,0-.643-.16-.643a.717.717,0,0,0-.81-.162h-.806V83.006H192Zm0,25.02v5l-1.776,6.3H192v2.258h-2.261l-.647,2.422a.729.729,0,0,0,0,.809,7.062,7.062,0,0,0,.807.16h.809v2.1H184.41v-2.1h.8a1.144,1.144,0,0,0,.972-.969l4.518-15.98ZM133.559,119v-2.419a2.042,2.042,0,0,0,1.452-.644,3.353,3.353,0,0,0,.646-2.421,3.818,3.818,0,0,0-.646-2.585,3.08,3.08,0,0,0-1.452-.646v-2.259h.322a8.432,8.432,0,0,1,5,1.29,4.731,4.731,0,0,1,1.616,3.714,4.828,4.828,0,0,1-1.616,3.874,8.4,8.4,0,0,1-3.227,1.13,1.958,1.958,0,0,1,1.453.488,4.076,4.076,0,0,1,2.261,3.062l.159,1.939a13.157,13.157,0,0,1,.323,1.452.842.842,0,0,0,.647.323c.324,0,.483-.162.647-.483a5.657,5.657,0,0,0,.159-1.939h1.775a4.71,4.71,0,0,1-.966,3.389,3.593,3.593,0,0,1-3.067,1.132,5.572,5.572,0,0,1-3.232-.807,4.934,4.934,0,0,1-1.128-3.067v-1.939a4.516,4.516,0,0,0-.648-2.095c-.159-.163-.32-.323-.481-.489Zm0-16.947V99.471c.322-.16.481-.323.805-.485a4.954,4.954,0,0,0,.808-3.066v-.969h2.261v7.1Zm0-6.293h.161V88.332h-.161V95.76Zm0-10.333V83.006h3.874v6.458h-2.261v-.807a4.254,4.254,0,0,0-.808-2.745,3.372,3.372,0,0,0-.805-.485Zm13.4,13.559V85.265h0a2.833,2.833,0,0,0-2.422.969,5.188,5.188,0,0,0-.808,3.23v1.128h-2.259V83.006h15.66v7.586h-2.264V89.464a5.381,5.381,0,0,0-.641-3.23,2.834,2.834,0,0,0-2.423-.969h0V98.986c0,.325,0,.645.323.645.163.163.486.324,1.132.163h.968v2.259h-9.688V99.794h1.455a1.2,1.2,0,0,0,.806-.163c.161-.16.161-.32.161-.645Zm19.372,0V85.265h0a2.833,2.833,0,0,0-2.421.969,5.354,5.354,0,0,0-.645,3.23v1.128H161V83.006h15.5v7.586h-2.261V89.464a5.362,5.362,0,0,0-.644-3.23,2.835,2.835,0,0,0-2.422-.969h0V98.986c0,.325,0,.645.321.645a1.112,1.112,0,0,0,1.13.163h.971v2.259h-9.686V99.794h1.454a1.189,1.189,0,0,0,.8-.163c.163-.16.163-.32.163-.645Zm-14.691,25.02V110.285h-.159a2.836,2.836,0,0,0-2.423.971,5.687,5.687,0,0,0-.643,3.229v1.127h-2.264v-7.586h15.659v7.586h-2.259v-1.127a5.685,5.685,0,0,0-.645-3.229,2.842,2.842,0,0,0-2.424-.971h-.161v13.721a1.225,1.225,0,0,0,.324.809c.162.16.644.16,1.131.16h1.13v2.1h-9.687v-2.1h1.292a.943.943,0,0,0,.806-.322c.164,0,.323-.321.323-.647Zm21.31,3.551a6.089,6.089,0,0,1-5.006-2.1c-1.13-1.455-1.613-3.714-1.613-6.939,0-3.877.643-6.622,1.613-8.4a6.041,6.041,0,0,1,5.327-2.421,4.488,4.488,0,0,1,3.876,1.77l.158.163.809-1.613h1.613l.165,7.261h-2.262a10.132,10.132,0,0,0-1.129-4.031,2.769,2.769,0,0,0-2.584-1.292,2.055,2.055,0,0,0-2.1,1.616c-.482,1.127-.642,3.065-.642,5.97a43.9,43.9,0,0,0,.321,6.456,1.916,1.916,0,0,0,1.615,1.292,2.078,2.078,0,0,0,1.615-.645,4.613,4.613,0,0,0,.647-2.1v-.8a4.281,4.281,0,0,0-.326-1.775c-.16-.321-.641-.321-1.129-.321h-1.13V117.39h9.041v2.261h-.647c-.482,0-.645,0-.806.16a1.369,1.369,0,0,0-.323.97v6.293h-2.422l-.646-1.45A4.5,4.5,0,0,1,172.947,127.557ZM111.281,83.006a9.989,9.989,0,0,1,5,1.127,4.386,4.386,0,0,1,1.775,3.714,4.079,4.079,0,0,1-1.775,3.551,10.646,10.646,0,0,1-2.744,1.13,7.651,7.651,0,0,1,3.067.969c1.129.647,1.614,1.937,1.614,3.712s-.485,3.069-1.453,3.714c-1.13.807-2.905,1.13-5.488,1.13V99.794a3.773,3.773,0,0,0,1.614-.646,4.367,4.367,0,0,0,.646-2.422,3.355,3.355,0,0,0-.8-2.421,3.039,3.039,0,0,0-1.455-.645V91.4a2.416,2.416,0,0,0,1.291-.646,4.856,4.856,0,0,0,0-4.84,2.438,2.438,0,0,0-1.291-.647V83.006Zm22.278,0v2.421a7.874,7.874,0,0,0-2.1-.162h-2.745v5.813h1.453a1.347,1.347,0,0,0,.969-.326,1.871,1.871,0,0,0,.323-1.129V88.332h2.1V95.76h-2.1V94.467a1.142,1.142,0,0,0-1.292-1.293h-1.453v6.62h2.745a4.438,4.438,0,0,0,2.1-.323v2.582h-11.3V99.794h.809c.323,0,.644,0,.644-.163a.824.824,0,0,0,.323-.645V86.07a1.674,1.674,0,0,0-.159-.643.715.715,0,0,0-.808-.162h-.809V83.006h11.3Zm0,25.02v2.259H131.3v6.457h1.288a2.064,2.064,0,0,0,.971-.161V119c-.324,0-.648-.16-1.132-.16H131.3v5.166a6.94,6.94,0,0,0,.161.809c.161,0,.325.16.483.16h1.13v2.1h-8.233v-2.1h.807c.325,0,.648-.16.648-.322.157,0,.321-.321.321-.647v-12.75a3.225,3.225,0,0,0-.164-.808c-.157-.163-.48-.163-.805-.163h-.807v-2.259h8.718ZM111.281,127.4v-4.846a14.011,14.011,0,0,0,.323,1.618c.162.806.808,1.129,1.776,1.129s1.614-.323,1.775-1.129a18.591,18.591,0,0,0,.484-5.49V116.42a17.227,17.227,0,0,0-.484-5.326c-.161-.809-.805-1.13-1.775-1.13s-1.614.321-1.776,1.13a9.119,9.119,0,0,0-.323,1.613v-4.843a8.7,8.7,0,0,1,2.1-.158c2.42,0,4.2.643,5.327,2.095,1.13,1.293,1.617,3.389,1.617,6.459h0v2.419c0,3.232-.487,5.49-1.617,6.782-.97,1.29-2.745,2.1-5.327,2.1C112.572,127.557,111.925,127.4,111.281,127.4ZM104.66,98.986V86.07c0-.322-.16-.643-.321-.643a.641.641,0,0,0-.806-.162h-.646V83.006h8.394v2.259h-1.936V91.4h1.936V93.66h-1.936v6.134h1.936v2.259h-8.394V99.794h.646c.485,0,.645,0,.806-.163a.831.831,0,0,0,.321-.645Zm6.621,8.878v4.843c0,.809-.161,2.1-.161,3.713v2.259c0,1.615.161,2.905.161,3.872V127.4a5.035,5.035,0,0,1-3.228-1.936c-1.13-1.292-1.615-3.55-1.615-6.782V116.26c0-2.907.485-5.166,1.615-6.459a6.042,6.042,0,0,1,3.228-1.937ZM84.969,124.006a1.235,1.235,0,0,0,.323.809,1.683,1.683,0,0,0,.646.16h.809v2.1h-6.3v-2.1h.808a6.961,6.961,0,0,0,.8-.16,6.9,6.9,0,0,0,.162-.809V111.094c0-.326-.162-.483-.162-.646a1.189,1.189,0,0,0-.8-.163H80.45v-2.259h8.229L91.1,119.651h.164l3.065-11.625h7.749v2.259h-.646c-.482,0-.646,0-.807.163a.831.831,0,0,0-.322.646v12.912a7.017,7.017,0,0,0,.159.809,1.227,1.227,0,0,0,.808.16h.808v2.1H93.846v-2.1h.646a3.246,3.246,0,0,0,.806-.16,1.22,1.22,0,0,0,.324-.809V113.353h0l-3.874,13.721H88.843L84.969,111.58h0Z" style="fill:#0054a4;fill-rule:evenodd"/><path d="M130.169,146.608v-2.1h1.617l-1.455-6.944h0l-.162.485v-4.842h3.39L137.6,149.19c.158.323.158.646.318.646.164.161.323.161.646.161h.811v2.255H131.3V150h.644c.483,0,.644,0,.805-.161s.162-.323.162-.646l-.646-2.582Zm19.693,5.971c-2.259,0-4.037-.647-5-2.1-1.132-1.292-1.612-3.714-1.612-6.944,0-3.871.642-6.617,1.612-8.232a5.8,5.8,0,0,1,5.327-2.58,4.476,4.476,0,0,1,3.875,1.776l.162.158.8-1.452H156.8v7.1h-2.262a8.531,8.531,0,0,0-1.129-4.034,3.054,3.054,0,0,0-2.422-1.293,2.108,2.108,0,0,0-2.259,1.616c-.485,1.127-.643,3.066-.643,5.975a41.522,41.522,0,0,0,.323,6.451,1.693,1.693,0,0,0,1.611,1.293,1.638,1.638,0,0,0,1.614-.647,3.591,3.591,0,0,0,.648-2.1v-.805a2.969,2.969,0,0,0-.325-1.612,1.257,1.257,0,0,0-1.128-.489h-.97v-2.256h8.879v2.256H158.1a1.106,1.106,0,0,0-1.13,1.134v6.451H154.7l-.8-1.449a4.607,4.607,0,0,1-4.039,1.776Zm12.106-.327V150h.649c.48,0,.643,0,.805-.161a.842.842,0,0,0,.322-.646V136.278a7.152,7.152,0,0,0-.161-.812,1.218,1.218,0,0,0-.806-.16h-.809v-2.1h15.176v6.459h-2.261V138.7a3.8,3.8,0,0,0-.806-2.585,4.468,4.468,0,0,0-2.906-.809h-2.742v5.81h1.45c.484,0,.809,0,.969-.321.16-.163.16-.483.16-.966v-1.292h2.26v7.424h-2.26v-1.294c0-.481,0-.8-.16-.966-.16-.321-.485-.321-.969-.321h-1.45V150h2.742a4.815,4.815,0,0,0,2.906-.807,5.008,5.008,0,0,0,.806-3.068v-.966h2.261v7.1H161.968Zm23.571-3.062a.836.836,0,0,0,.321.646c.162.161.325.161.808.161h.646v2.255h-6.136V150h.647a1.215,1.215,0,0,0,.808-.161c.158-.163.158-.323.158-.646V136.278a1.247,1.247,0,0,0-.158-.812,7.088,7.088,0,0,0-.808-.16h-.647v-2.1h8.069l2.585,11.625h0l3.231-11.625h7.586v2.1H202a3.379,3.379,0,0,0-.808.16,1.265,1.265,0,0,0-.322.812v12.749a.962.962,0,0,0,.322.809c0,.161.325.161.808.161h.647v2.255h-8.235V150h.649c.483,0,.807,0,.807-.161a.846.846,0,0,0,.322-.646V138.376h0l-3.874,13.876h-2.907L185.539,136.6h0V149.19Zm20.661,3.062V150h.808a1.2,1.2,0,0,0,.8-.161c.162-.163.162-.323.162-.646V136.278a.742.742,0,0,0-.967-.972H206.2v-2.1h15.175v6.459h-2.26V138.7a3.8,3.8,0,0,0-.807-2.585,3.975,3.975,0,0,0-2.742-.809h-2.747v5.81h1.292c.483,0,.808,0,.967-.321a1.355,1.355,0,0,0,.323-.966v-1.292h2.262v7.424H215.4v-1.294a1.359,1.359,0,0,0-.323-.966c-.159-.321-.484-.321-.967-.321h-1.292V150H215.4a4.175,4.175,0,0,0,2.907-.807,5.007,5.007,0,0,0,.807-3.068v-.966h2.26v7.1H206.2Zm24.054-3.062c0,.323,0,.483.162.646a1.2,1.2,0,0,0,.8.161h.65v2.255h-6.139V150h.648a1.208,1.208,0,0,0,.807-.161c.163-.163.163-.323.163-.646V136.278a1.215,1.215,0,0,0-.163-.812,6.928,6.928,0,0,0-.807-.16h-.648v-2.1h6.461L238,145.8v-9.523a1.2,1.2,0,0,0-.165-.812,7.134,7.134,0,0,0-.808-.16h-.642v-2.1h6.131v2.1h-.644a3.405,3.405,0,0,0-.811.16,1.253,1.253,0,0,0-.32.812v15.974H236.71l-6.456-13.4V149.19Zm21.3,0V135.306h0a2.814,2.814,0,0,0-2.414.972,5.741,5.741,0,0,0-.811,3.389v.965h-2.259v-7.424h15.659v7.424h-2.259v-.965a5.958,5.958,0,0,0-.646-3.389,2.836,2.836,0,0,0-2.424-.972h0v13.721c0,.486,0,.646.16.809a2.8,2.8,0,0,0,1.3.161h.969v2.255h-9.684V150h1.449c.323,0,.65,0,.807-.161S251.556,149.513,251.556,149.19ZM130.169,133.208v4.842l-1.777,6.459h1.777v2.1h-2.261l-.647,2.582c-.161.323-.161.483,0,.646a1.215,1.215,0,0,0,.808.161h.806v2.255h-6.3V150h.808c.321,0,.485,0,.644-.161a1.208,1.208,0,0,0,.324-.646l4.519-15.982Zm-40.037,13.4v-2.1h1.616L90.3,137.565h0l-.164.485v-4.842h3.391l4.038,15.982c.16.323.324.646.324.646.159.161.323.161.644.161h.806v2.255H91.266V150h.645c.485,0,.644,0,.8-.161s.159-.323.159-.646l-.479-2.582Zm16.95,2.582a.85.85,0,0,0,.324.646c.164.161.323.161.811.161h.644v2.255h-6.134V150h.646a1.2,1.2,0,0,0,.8-.161c.161-.163.161-.323.161-.646V136.278a1.228,1.228,0,0,0-.161-.812,6.878,6.878,0,0,0-.8-.16h-.646v-2.1h6.457l5.81,12.593v-9.523a7.231,7.231,0,0,0-.159-.812,7.181,7.181,0,0,0-.808-.16h-.809v-2.1h6.3v2.1h-.806a1.7,1.7,0,0,0-.647.16,1.26,1.26,0,0,0-.323.812v15.974H113.7l-6.621-13.4Zm-44.552,0a.843.843,0,0,0,.323.646c0,.161.323.161.646.161h.809v2.255h-6.3V150h.807c.32,0,.645,0,.645-.161a.853.853,0,0,0,.323-.646V136.278a1.265,1.265,0,0,0-.323-.812,1.694,1.694,0,0,0-.645-.16h-.807v-2.1h8.231l2.423,11.625h0l3.228-11.625h7.747v2.1H79a3.282,3.282,0,0,0-.806.16,1.245,1.245,0,0,0-.323.812v12.749a3.313,3.313,0,0,0,.161.809,1.217,1.217,0,0,0,.809.161h.805v2.255H71.41V150h.643c.487,0,.648,0,.809-.161a.843.843,0,0,0,.323-.646V138.376h0L69.31,152.252H66.4L62.53,136.6h0V149.19Zm27.6-15.982v4.842l-1.776,6.459h1.776v2.1H87.874l-.647,2.582c-.162.323-.162.483,0,.646a1.22,1.22,0,0,0,.809.161h.807v2.255h-6.3V150h.809c.323,0,.482,0,.646-.161a1.243,1.243,0,0,0,.323-.646L89,133.208Z" style="fill:#fff;fill-rule:evenodd"/><path d="M309.352,136.309a5.365,5.365,0,1,1-5.407,5.337A5.335,5.335,0,0,1,309.352,136.309Zm0,9.939a4.577,4.577,0,1,0-4.433-4.6A4.424,4.424,0,0,0,309.352,146.248Zm-2.094-7.715h2.424c1.49,0,2.193.589,2.193,1.793a1.611,1.611,0,0,1-1.648,1.707l1.793,2.769h-1.047l-1.707-2.7h-1.033v2.7h-.975Zm.975,2.783h1.018c.862,0,1.65-.043,1.65-1.033,0-.831-.718-.961-1.377-.961h-1.291Z" style="fill:#0054a4"/></svg>