<svg xmlns="http://www.w3.org/2000/svg" viewBox="0 0 280 100"><title>Better Mortgage Management</title><polygon points="136.551 25.75 183.799 59.364 205.346 59.364 183.799 43.851 183.799 19.873 167.971 19.873 167.971 32.488 136.551 10 67.991 59.364 89.382 59.364 136.551 25.75" style="fill:#7ac143"/><rect x="68.07" y="68.217" width="136.885" height="12.225" style="fill:#7ac143"/><path d="M122.683,76.446v-1.02h.785l-.706-3.37h0l-.079.235v-2.35h1.646L126.29,77.7c.077.157.077.313.154.313.08.079.157.079.314.079h.394v1.094h-3.92V78.092h.313c.234,0,.312,0,.39-.078s.079-.157.079-.314l-.314-1.253Zm9.559,2.9a2.734,2.734,0,0,1-2.427-1.019,5.326,5.326,0,0,1-.783-3.371,8.08,8.08,0,0,1,.783-4,2.816,2.816,0,0,1,2.585-1.252,2.17,2.17,0,0,1,1.881.862l.079.077.388-.7h.861v3.446h-1.1a4.135,4.135,0,0,0-.548-1.958,1.481,1.481,0,0,0-1.175-.627,1.023,1.023,0,0,0-1.1.784,8.36,8.36,0,0,0-.312,2.9,20.228,20.228,0,0,0,.157,3.131.821.821,0,0,0,.782.628.794.794,0,0,0,.783-.314,1.745,1.745,0,0,0,.315-1.019V76.52a1.446,1.446,0,0,0-.158-.783.611.611,0,0,0-.547-.237h-.471V74.405h4.31V75.5h-.31a.537.537,0,0,0-.548.525V79.18h-1.1l-.388-.7a2.241,2.241,0,0,1-1.961.862Zm5.876-.159V78.092h.315c.233,0,.312,0,.388-.078a.406.406,0,0,0,.156-.314V71.432a3.268,3.268,0,0,0-.078-.394.587.587,0,0,0-.391-.078h-.393V69.941h7.367v3.135h-1.1v-.469a1.843,1.843,0,0,0-.391-1.254,2.165,2.165,0,0,0-1.411-.393h-1.331v2.82h.7c.235,0,.393,0,.471-.156.077-.079.077-.234.077-.469v-.627h1.1v3.6h-1.095V75.5c0-.234,0-.389-.077-.469-.078-.156-.236-.156-.471-.156h-.7v3.213h1.331A2.332,2.332,0,0,0,144,77.7a2.433,2.433,0,0,0,.391-1.489v-.469h1.1v3.447h-7.366ZM149.559,77.7a.4.4,0,0,0,.156.313c.078.079.157.079.392.079h.313v1.094h-2.978V78.092h.314a.59.59,0,0,0,.392-.078c.077-.079.077-.157.077-.314V71.432a.6.6,0,0,0-.077-.394,3.274,3.274,0,0,0-.392-.078h-.314V69.941h3.917l1.254,5.642h0l1.569-5.642h3.682V70.96h-.315a1.632,1.632,0,0,0-.392.078.61.61,0,0,0-.157.394V77.62a.467.467,0,0,0,.157.392c0,.079.157.079.392.079h.314v1.094h-4V78.092h.315c.234,0,.391,0,.391-.078a.411.411,0,0,0,.157-.314V72.45h0l-1.881,6.735h-1.412l-1.878-7.6h0Zm10.028,1.486V78.092h.392a.585.585,0,0,0,.388-.078c.079-.079.079-.157.079-.314V71.432a.36.36,0,0,0-.469-.472h-.389V69.941h7.366v3.135h-1.1v-.469a1.837,1.837,0,0,0-.392-1.254,1.925,1.925,0,0,0-1.331-.393H162.8v2.82h.624c.235,0,.392,0,.47-.156a.657.657,0,0,0,.156-.469v-.627h1.1v3.6h-1.1V75.5a.658.658,0,0,0-.157-.469c-.077-.156-.235-.156-.469-.156H162.8v3.213h1.253a2.025,2.025,0,0,0,1.411-.392,2.434,2.434,0,0,0,.392-1.489v-.469h1.1v3.447h-7.364ZM171.263,77.7c0,.157,0,.234.078.313a.589.589,0,0,0,.389.079h.315v1.094h-2.98V78.092h.315a.591.591,0,0,0,.392-.078c.079-.079.079-.157.079-.314V71.432a.6.6,0,0,0-.079-.394,3.274,3.274,0,0,0-.392-.078h-.315V69.941H172.2l2.822,6.112V71.431a.586.586,0,0,0-.081-.394,3.722,3.722,0,0,0-.392-.078h-.311V69.94h2.976v1.019H176.9a1.658,1.658,0,0,0-.394.078.61.61,0,0,0-.155.394v7.754H174.4l-3.134-6.5V77.7Zm10.338,0V70.96h0a1.362,1.362,0,0,0-1.171.472,2.785,2.785,0,0,0-.394,1.645v.468h-1.1v-3.6h7.6v3.6h-1.1v-.468a2.886,2.886,0,0,0-.314-1.645,1.375,1.375,0,0,0-1.176-.472h0v6.66c0,.236,0,.313.077.392a1.357,1.357,0,0,0,.631.079h.471v1.094h-4.7V78.092h.7c.157,0,.316,0,.392-.078s.075-.158.075-.315Zm-58.918-7.757v2.35l-.862,3.135h.862v1.019h-1.1l-.314,1.253c-.078.157-.078.235,0,.314a.591.591,0,0,0,.392.078h.392v1.1H119V78.092h.392c.156,0,.235,0,.312-.078a.6.6,0,0,0,.158-.314l2.193-7.757Zm-19.433,6.5v-1.02h.784l-.7-3.37h0l-.079.236v-2.35H104.9l1.96,7.757c.077.157.157.313.157.313.077.079.157.079.312.079h.392v1.094H103.8V78.092h.311c.236,0,.313,0,.389-.078s.077-.157.077-.314l-.233-1.253Zm8.227,1.253a.41.41,0,0,0,.157.313c.08.079.157.079.394.079h.313v1.094h-2.978V78.092h.314a.586.586,0,0,0,.388-.078c.078-.079.078-.157.078-.314V71.432a.59.59,0,0,0-.078-.394,3.211,3.211,0,0,0-.388-.078h-.314V69.941H112.5l2.82,6.112V71.431a3.471,3.471,0,0,0-.077-.394,3.274,3.274,0,0,0-.392-.078h-.393V69.94h3.058v1.019h-.391a.812.812,0,0,0-.314.078.61.61,0,0,0-.157.394v7.753h-1.962l-3.213-6.5Zm-21.625,0a.407.407,0,0,0,.157.313c0,.079.157.079.314.079h.392v1.094H87.657V78.092h.392c.155,0,.313,0,.313-.078a.413.413,0,0,0,.156-.314V71.432a.609.609,0,0,0-.156-.394.816.816,0,0,0-.313-.078h-.392V69.941h4l1.176,5.642h0L94.4,69.941h3.761V70.96h-.31a1.542,1.542,0,0,0-.391.078.605.605,0,0,0-.157.394V77.62a1.6,1.6,0,0,0,.079.392.591.591,0,0,0,.392.079h.389v1.094h-4V78.092h.312c.236,0,.315,0,.393-.078a.414.414,0,0,0,.157-.314V72.45h0l-1.881,6.735H91.729l-1.878-7.6h0V77.7Zm13.4-7.757v2.35l-.862,3.135h.862v1.019h-1.095L101.84,77.7c-.079.157-.079.235,0,.314a.591.591,0,0,0,.392.078h.392v1.1H99.566V78.092h.393c.157,0,.234,0,.313-.078a.6.6,0,0,0,.157-.314l2.271-7.758Z" style="fill:#fff;fill-rule:evenodd"/><path d="M112.262,88.589h.392c-.078.472-.235.707-.548.786v.234a.86.86,0,0,0,.548-.234,2.514,2.514,0,0,0,.39-.786l.158-.627h-.783Z" style="fill:#0054a4"/><polygon points="118.139 88.67 118.141 88.67 118.141 88.669 118.139 88.669 118.139 88.67" style="fill:#0054a4"/><path d="M117.907,88.2a.7.7,0,0,1-.549-.237.958.958,0,0,1-.236-.7V87.1a3.991,3.991,0,0,1,.158-.707,3.368,3.368,0,0,1,.471-.783.7.7,0,0,1,.388-.237h0v-.469h-.073c-.157.078-.313.236-.55.392l.393-1.8h-.627l-1.1,5.092h.549l.156-.627a1.213,1.213,0,0,0,.471.627c.156,0,.393.081.627.081h.154V88.2Z" style="fill:#0054a4"/><polygon points="125.739 88.12 125.738 88.122 125.739 88.122 125.739 88.12" style="fill:#0054a4"/><path d="M122.369,84.831h-.156a1.783,1.783,0,0,0-.862.232,2.6,2.6,0,0,0-.7.862,3.267,3.267,0,0,0-.314,1.254,1.317,1.317,0,0,0,.235.783.969.969,0,0,0,.469.627c.235,0,.549.081.784.081h.392V88.2h-.392a.708.708,0,0,1-.549-.237,1.311,1.311,0,0,1-.235-.783v-.234h1.176l1.566,0a1.347,1.347,0,0,0,.078-.548,1.94,1.94,0,0,0-.389-1.176A1.693,1.693,0,0,0,122.369,84.831Zm.863,1.644h-2.117a1.824,1.824,0,0,1,.549-.862,1.231,1.231,0,0,1,.549-.314h.156a.886.886,0,0,1,.628.236,1.327,1.327,0,0,1,.235.784Z" style="fill:#0054a4"/><path d="M122.526,88.041c-.157.079-.234.079-.313.158v.471a2.394,2.394,0,0,0,.784-.318,2.192,2.192,0,0,0,.627-.937H123A4.289,4.289,0,0,1,122.526,88.041Z" style="fill:#0054a4"/><path d="M118.607,84.831a1.007,1.007,0,0,0-.47.076h0v.469c.076,0,.154-.077.232-.077a.956.956,0,0,1,.627.314c.157.156.157.392.157.706a1.978,1.978,0,0,1-.157.939,1.129,1.129,0,0,1-.471.7.427.427,0,0,1-.388.237h0v.47c.078,0,.232-.082.311-.082a1.124,1.124,0,0,0,.471-.157c.157-.155.235-.312.392-.47a1.5,1.5,0,0,0,.388-.7,2.882,2.882,0,0,0,.157-.939,1.553,1.553,0,0,0-.391-1.1A1,1,0,0,0,118.607,84.831Z" style="fill:#0054a4"/><path d="M99.1,84.833a1.459,1.459,0,0,0-.548.154,2.788,2.788,0,0,0-.55.7l.157-.783H97.61l-.862,3.682h.626l.313-1.41a3.5,3.5,0,0,1,.549-1.408,1.1,1.1,0,0,1,.706-.315.567.567,0,0,1,.389.081l.235-.55v-.078h0A1,1,0,0,0,99.1,84.833Z" style="fill:#0054a4"/><polygon points="82.568 88.67 82.568 88.669 82.565 88.67 82.568 88.67" style="fill:#0054a4"/><path d="M78.334,83.5l-.7.472-.236.938h-.469l-.156.469h.547l-.47,2.2a2.066,2.066,0,0,0-.077.548c0,.23,0,.31.156.388a1.217,1.217,0,0,0,.626.16.7.7,0,0,0,.393-.081l.156-.467a.709.709,0,0,1-.392.079.294.294,0,0,1-.236-.079.282.282,0,0,1-.078-.159,2.639,2.639,0,0,0,.078-.469l.472-2.116h.626l.079-.469h-.627Z" style="fill:#0054a4"/><path d="M80.373,83.5l-.782.474-.157.938h-.549l-.079.469h.549l-.47,2.2a2.028,2.028,0,0,0-.079.548c0,.23,0,.31.158.388a1.137,1.137,0,0,0,.548.16.972.972,0,0,0,.47-.081l.156-.469h-.006a.689.689,0,0,1-.388.079c-.157,0-.157,0-.236-.079-.077,0-.077-.079-.077-.158a1.362,1.362,0,0,1,.077-.469l.471-2.117h.63l.078-.469h-.626Z" style="fill:#0054a4"/><path d="M82.568,88.669a2.841,2.841,0,0,0,.859-.317,3.254,3.254,0,0,0,.627-.937h-.627a2.111,2.111,0,0,1-.549.626c-.077.079-.157.079-.313.158h0Z" style="fill:#0054a4"/><path d="M74.648,84.831H74.5V85.3h.232a.7.7,0,0,1,.549.236,1.007,1.007,0,0,1,.315.784v.156H74.5v.47h1.641V86.4a1.391,1.391,0,0,0,.009-.335A1.371,1.371,0,0,0,74.648,84.831Z" style="fill:#0054a4"/><path d="M110.227,84.831h-.158V85.3h.156a.766.766,0,0,1,.628.236,1.32,1.32,0,0,1,.234.784v.156h-2.116a1.819,1.819,0,0,1,.55-.862,1.234,1.234,0,0,1,.547-.314v-.468a1.329,1.329,0,0,0-.78.232,2.783,2.783,0,0,0-.783.862,3.225,3.225,0,0,0-.237,1.254,1.274,1.274,0,0,0,.157.783,1.09,1.09,0,0,0,.548.627c.236,0,.471.081.707.081h.388a2.394,2.394,0,0,0,.784-.318,2.172,2.172,0,0,0,.626-.937h-.626a1.233,1.233,0,0,1-.47.626c-.158.079-.236.079-.314.158h-.313a.883.883,0,0,1-.626-.237,1.312,1.312,0,0,1-.236-.783v-.234h1.175l1.57,0a1.312,1.312,0,0,0,.079-.548,1.912,1.912,0,0,0-.393-1.176A1.54,1.54,0,0,0,110.227,84.831Z" style="fill:#0054a4"/><path d="M72.224,84.672a1.481,1.481,0,0,0-.156-.548.965.965,0,0,0-.391-.392c-.156-.157-.313-.157-.55-.235H68.854l-1.1,5.092v0h2.586v-.548H68.618l.314-1.722h1.411V85.69H69.09l.313-1.645h.941v0H70.5a1.724,1.724,0,0,1,.706.079l.235.235a.594.594,0,0,1,.156.388.82.82,0,0,1-.391.707,1.251,1.251,0,0,1-.863.237v.631c.4,0,.628,0,.783.156a.708.708,0,0,1,.237.549.983.983,0,0,1-.08.469c-.077.156-.234.234-.312.388a1.124,1.124,0,0,1-.55.158h-.078v.547a1.69,1.69,0,0,0,.863-.157,1.586,1.586,0,0,0,.626-.627,1.32,1.32,0,0,0,.235-.783,1.491,1.491,0,0,0-.157-.628,1.848,1.848,0,0,0-.627-.471,1.127,1.127,0,0,0,.7-.471A1.314,1.314,0,0,0,72.224,84.672Z" style="fill:#0054a4"/><path d="M82.8,84.831h-.235V85.3H82.8a.882.882,0,0,1,.627.236,1.321,1.321,0,0,1,.236.784v.156H81.546a1.32,1.32,0,0,1,.471-.862,1.881,1.881,0,0,1,.548-.314h0v-.468h0l0,0a1.521,1.521,0,0,0-.784.233,1.921,1.921,0,0,0-.705.861,2.4,2.4,0,0,0-.157,2.039,1.429,1.429,0,0,0,.55.627c.234,0,.469.081.783.081h.31V88.2h-.31a.883.883,0,0,1-.627-.237,1.318,1.318,0,0,1-.236-.783v-.234h1.173l1.646,0V86.4a1.545,1.545,0,0,0-.392-1.176A1.483,1.483,0,0,0,82.8,84.831Z" style="fill:#0054a4"/><polygon points="78.1 88.12 78.099 88.122 78.1 88.122 78.1 88.12" style="fill:#0054a4"/><path d="M74.5,84.831a1.319,1.319,0,0,0-.782.232,2.8,2.8,0,0,0-.785.862,3.262,3.262,0,0,0-.234,1.254,2.285,2.285,0,0,0,.157.783,1.419,1.419,0,0,0,.548.627c.234,0,.469.081.784.081H74.5a2.389,2.389,0,0,0,.783-.318,1.649,1.649,0,0,0,.628-.937h-.631a1.214,1.214,0,0,1-.47.626c-.079.079-.235.079-.313.158h-.312a.881.881,0,0,1-.627-.237,1.312,1.312,0,0,1-.236-.783v-.234H74.5v-.47H73.478a1.33,1.33,0,0,1,.471-.862A1.868,1.868,0,0,1,74.5,85.3h0Z" style="fill:#0054a4"/><path d="M105.915,85.615a.878.878,0,0,1,.627-.237.657.657,0,0,1,.548.159.7.7,0,0,1,.236.547h.627a1.293,1.293,0,0,0-.393-.939,1.238,1.238,0,0,0-.939-.312,1.884,1.884,0,0,0-1.725,1.174,3.552,3.552,0,0,0-.235,1.253,1.516,1.516,0,0,0,.314,1.094,1.571,1.571,0,0,0,1.019.318,2.172,2.172,0,0,0,1.019-.238,2.222,2.222,0,0,0,.7-1.095l-.626-.079v0a2.259,2.259,0,0,1-.469.785,1.042,1.042,0,0,1-.627.236.561.561,0,0,1-.471-.236,1.039,1.039,0,0,1-.235-.783,3.884,3.884,0,0,1,.157-.939A1.138,1.138,0,0,1,105.915,85.615Z" style="fill:#0054a4"/><polygon points="102.939 88.12 102.939 88.122 102.782 88.591 102.939 88.591 102.939 88.589 103.487 88.589 104.271 84.907 103.644 84.907 102.939 88.12" style="fill:#0054a4"/><polygon points="103.721 84.202 104.426 84.202 104.582 83.497 103.878 83.497 103.721 84.202" style="fill:#0054a4"/><polygon points="110.069 84.831 110.068 84.831 110.068 84.831 110.069 84.831 110.069 84.831" style="fill:#0054a4"/><path d="M86.4,84.985a7.776,7.776,0,0,0-.548.7l.157-.783h-.549l-.783,3.682.628,0,.312-1.41a2.643,2.643,0,0,1,.549-1.408.964.964,0,0,1,.7-.315.456.456,0,0,1,.314.081l.313-.55a.781.781,0,0,0-.47-.154A1.844,1.844,0,0,0,86.4,84.985Z" style="fill:#0054a4"/><path d="M94.867,84.831h-.156a1.33,1.33,0,0,0-.785.232,2.819,2.819,0,0,0-.783.862,3.281,3.281,0,0,0-.234,1.254,1.294,1.294,0,0,0,.156.783,1.088,1.088,0,0,0,.547.627c.236,0,.472.081.785.081h.314a2.389,2.389,0,0,0,.783-.318,2.183,2.183,0,0,0,.627-.937h-.627a1.214,1.214,0,0,1-.47.626c-.079.079-.235.079-.313.158H94.4a.887.887,0,0,1-.627-.237,1.319,1.319,0,0,1-.234-.783v-.234h1.175l1.645,0V86.4a1.926,1.926,0,0,0-.392-1.176A1.54,1.54,0,0,0,94.867,84.831Zm.863,1.644H93.612a1.819,1.819,0,0,1,.55-.862,1.222,1.222,0,0,1,.549-.314h.156a.765.765,0,0,1,.627.236,1.321,1.321,0,0,1,.236.784Z" style="fill:#0054a4"/><path d="M91.026,85.3a.884.884,0,0,1,.628.236.607.607,0,0,1,.235.548l.627-.078a1.117,1.117,0,0,0-.392-.861,1.531,1.531,0,0,0-1.1-.313,1.245,1.245,0,0,0-.939.313,1.079,1.079,0,0,0-.392.781.61.61,0,0,0,.157.394.774.774,0,0,0,.313.389,4.537,4.537,0,0,0,.627.315,7.267,7.267,0,0,1,.7.313.585.585,0,0,1,.078.314,1.133,1.133,0,0,1-.156.469,1.548,1.548,0,0,1-.7.157,1.11,1.11,0,0,1-.471-.157c-.157-.079-.314-.158-.314-.315a1.083,1.083,0,0,1-.156-.468l-.627.078h0a1.162,1.162,0,0,0,.469,1.017,2.285,2.285,0,0,0,1.1.238c.311,0,.625-.081.86-.081a.825.825,0,0,0,.472-.388.949.949,0,0,0,.156-.627,1.26,1.26,0,0,0-.236-.706c-.156-.082-.47-.236-.941-.47a2.675,2.675,0,0,1-.547-.314c-.157-.078-.157-.158-.157-.313a.318.318,0,0,1,.157-.316A1.134,1.134,0,0,1,91.026,85.3Z" style="fill:#0054a4"/><path d="M126.053,83.5l-.784.472-.157.938h-.55l-.077.469h.472l-.395,2.2c-.077.31-.155.468-.155.548a.361.361,0,0,0,.236.388.9.9,0,0,0,.548.16.99.99,0,0,0,.471-.081l.076-.467a.463.463,0,0,1-.313.079c-.155,0-.234,0-.234-.079-.079,0-.079-.08-.079-.159a1.392,1.392,0,0,1,.079-.469l.471-2.116h.627l.076-.469h-.626Z" style="fill:#0054a4"/><path d="M102.939,85.063l.077-.156h-.077v0h-.551l-1.331,2.272c-.156.314-.313.626-.47.941,0-.548-.078-.941-.078-1.176l-.315-2.038h-.626v0h0v.155l.626,3.526h.707l2.038-3.526Z" style="fill:#0054a4"/><path d="M130.6,88.041c-.158.08-.235.08-.314.159v.47a2.392,2.392,0,0,0,.784-.317,2.174,2.174,0,0,0,.627-.937h-.627A1.874,1.874,0,0,1,130.6,88.041Z" style="fill:#0054a4"/><polygon points="174.711 88.67 174.711 88.669 174.708 88.67 174.711 88.67" style="fill:#0054a4"/><path d="M174.711,88.669a2.811,2.811,0,0,0,.86-.317,3.292,3.292,0,0,0,.628-.937h-.628a2.117,2.117,0,0,1-.547.626c-.08.079-.157.079-.316.158h0Z" style="fill:#0054a4"/><polygon points="174.709 84.831 174.708 84.831 174.708 84.831 174.709 84.831 174.709 84.831" style="fill:#0054a4"/><path d="M164.839,88.589h.39c-.076.472-.234.707-.549.786l-.078.234a.9.9,0,0,0,.627-.234,2.446,2.446,0,0,0,.392-.786l.079-.627H165Z" style="fill:#0054a4"/><path d="M162.957,85.3a.89.89,0,0,1,.626.236.612.612,0,0,1,.235.548l.627-.078a1.117,1.117,0,0,0-.393-.861,1.524,1.524,0,0,0-1.095-.313,1.249,1.249,0,0,0-.942.313,1.082,1.082,0,0,0-.388.781.6.6,0,0,0,.156.394.772.772,0,0,0,.312.389,3.246,3.246,0,0,0,.707.315,4.12,4.12,0,0,1,.627.313.6.6,0,0,1,.079.314,1.109,1.109,0,0,1-.159.469,1.459,1.459,0,0,1-.625.157,1.123,1.123,0,0,1-.55-.157c-.156-.079-.314-.158-.314-.315a.987.987,0,0,1-.077-.468l-.706.078v.236h0a1.336,1.336,0,0,0,.469.781,2.526,2.526,0,0,0,1.1.238c.315,0,.626-.081.863-.081a.829.829,0,0,0,.47-.388,1.049,1.049,0,0,0,.234-.627,1.415,1.415,0,0,0-.313-.706c-.158-.082-.47-.236-.939-.47a2.589,2.589,0,0,1-.551-.314c-.155-.078-.155-.158-.155-.313a.6.6,0,0,1,.155-.316A1.16,1.16,0,0,1,162.957,85.3Z" style="fill:#0054a4"/><path d="M171.1,84.831a.713.713,0,0,0-.388.076h0v.469c.076,0,.154-.077.231-.077a.78.78,0,0,1,.55.314.953.953,0,0,1,.234.706,3.881,3.881,0,0,1-.155.939,2.74,2.74,0,0,1-.472.7c-.155.158-.232.237-.388.237h-.237a.708.708,0,0,1-.549-.237.959.959,0,0,1-.233-.7V87.1a1.436,1.436,0,0,1,.157-.707,1.315,1.315,0,0,1,.469-.783.427.427,0,0,1,.393-.237h0v-.469h-.079a2.367,2.367,0,0,0-.549.392l.391-1.8h-.7l-1.019,5.092h.551l.155-.627a1.72,1.72,0,0,0,.393.627c.234,0,.47.081.7.081h.157c.077,0,.156-.083.231-.083a1.11,1.11,0,0,0,.471-.157c.158-.155.313-.312.471-.47a1.458,1.458,0,0,0,.314-.7,1.7,1.7,0,0,0,.157-.939,1.541,1.541,0,0,0-.313-1.1A1.058,1.058,0,0,0,171.1,84.831Z" style="fill:#0054a4"/><path d="M174.708,84.831a1.515,1.515,0,0,0-.779.232,1.928,1.928,0,0,0-.7.862,2.388,2.388,0,0,0-.158,2.037,1.457,1.457,0,0,0,.549.627c.236,0,.47.081.784.081h.308V88.2H174.4a.889.889,0,0,1-.628-.237,1.319,1.319,0,0,1-.237-.783v-.234h1.173v-.47h-1.016a1.318,1.318,0,0,1,.47-.862,1.889,1.889,0,0,1,.547-.314h0Z" style="fill:#0054a4"/><path d="M183.015,84.831h-.236v0a1.514,1.514,0,0,0-.781.233,1.932,1.932,0,0,0-.707.861,2.393,2.393,0,0,0-.157,2.039,1.457,1.457,0,0,0,.549.627c.236,0,.47.081.784.081h.312V88.2h-.312a1.041,1.041,0,0,1-.627-.237,1.319,1.319,0,0,1-.237-.783.282.282,0,0,1,.08-.234h1.1v-.47H181.76a1.33,1.33,0,0,1,.471-.862,4.311,4.311,0,0,1,.548-.314h.236a.873.873,0,0,1,.627.236,1.32,1.32,0,0,1,.235.784v.156h-1.1v.47l1.648,0c0-.16.078-.392.078-.548a1.588,1.588,0,0,0-.471-1.176A1.472,1.472,0,0,0,183.015,84.831Z" style="fill:#0054a4"/><path d="M182.779,88.669a2.8,2.8,0,0,0,.863-.317,2.192,2.192,0,0,0,.627-.937h-.627a2.1,2.1,0,0,1-.547.626c-.08.079-.158.079-.316.158h0Z" style="fill:#0054a4"/><path d="M128.014,83.5l-.707.472-.235.938H126.6l-.077.469H127l-.471,2.2a2.756,2.756,0,0,1-.08.548.465.465,0,0,0,.157.388,1.476,1.476,0,0,0,.628.16.978.978,0,0,0,.471-.081l.077-.469h0a.584.584,0,0,1-.389.081c-.078,0-.156,0-.156-.079-.077,0-.077-.08-.077-.159a1.365,1.365,0,0,1,.077-.469l.391-2.116h.627l.158-.469h-.628Z" style="fill:#0054a4"/><path d="M186.7,84.985a2.939,2.939,0,0,0-.625.7l.156-.783h-.547l-.784,3.682.626,0,.315-1.41a3.551,3.551,0,0,1,.546-1.408.971.971,0,0,1,.707-.315.459.459,0,0,1,.313.081l.314-.55a.787.787,0,0,0-.472-.154A1.143,1.143,0,0,0,186.7,84.985Z" style="fill:#0054a4"/><path d="M159.983,87.493l.389-2.117H161l.078-.469-.627,0,.314-1.41-.705.472-.236.938h-.471l-.156.469h.548l-.469,2.2a2.028,2.028,0,0,0-.079.548.461.461,0,0,0,.156.388,1.478,1.478,0,0,0,.631.16.974.974,0,0,0,.47-.081l.079-.469a.583.583,0,0,1-.393.079.282.282,0,0,1-.234-.079v-.158A1.359,1.359,0,0,1,159.983,87.493Z" style="fill:#0054a4"/><path d="M178.55,83.5l-.705.472-.237.938h-.469l-.157.469h.548l-.469,2.2a2.028,2.028,0,0,0-.079.548.459.459,0,0,0,.157.388,1.479,1.479,0,0,0,.628.16.96.96,0,0,0,.467-.081l.079-.469v0a.58.58,0,0,1-.388.079.291.291,0,0,1-.235-.079v-.159a1.322,1.322,0,0,1,.08-.469l.388-2.116h.625l.159-.469h-.707Z" style="fill:#0054a4"/><path d="M180.588,83.5l-.7.472-.235.938h-.472l-.155.469h.549l-.47,2.2a1.989,1.989,0,0,0-.079.548c0,.23,0,.31.155.388a1.222,1.222,0,0,0,.628.16.694.694,0,0,0,.392-.081l.156-.469h0a.7.7,0,0,1-.389.081.3.3,0,0,1-.237-.079.289.289,0,0,1-.076-.159,2.73,2.73,0,0,0,.076-.469l.472-2.116h.626l.078-.469h-.624Z" style="fill:#0054a4"/><polygon points="182.779 88.67 182.779 88.669 182.779 88.67 182.779 88.67" style="fill:#0054a4"/><path d="M174.944,84.831h-.235V85.3h.235a.88.88,0,0,1,.627.236,1.314,1.314,0,0,1,.235.784v.156h-1.095v.47l1.645,0V86.4a1.533,1.533,0,0,0-.392-1.176A1.484,1.484,0,0,0,174.944,84.831Z" style="fill:#0054a4"/><path d="M143.527,85.3l.157-.314a.243.243,0,0,0-.157-.077v0a.608.608,0,0,0-.315-.077,1.852,1.852,0,0,0-.625.155,2.724,2.724,0,0,0-.548.7l.156-.783h-.548l-.784,3.682h.549l.392-1.411a2.643,2.643,0,0,1,.549-1.407.959.959,0,0,1,.7-.316.459.459,0,0,1,.313.081Z" style="fill:#0054a4"/><path d="M139.221,84.832a1.018,1.018,0,0,0-.472.077v.469c.078,0,.157-.078.235-.078h0a.943.943,0,0,1,.861,1.019,2.381,2.381,0,0,1-.391,1.254.946.946,0,0,1-.707.627h-.155c-.237,0-.393,0-.472-.079a1.466,1.466,0,0,1-.313-.392c0-.156-.078-.313-.078-.626a2.345,2.345,0,0,1,.157-.627,1.545,1.545,0,0,1,.313-.627,1.791,1.791,0,0,1,.314-.4.287.287,0,0,1,.234-.077v-.469l-.082,0a4.175,4.175,0,0,0-.626.547l.157-.547h-.627l-1.1,5.1h.631l.469-1.961a1.011,1.011,0,0,0,1.019.631h.154c.157,0,.314-.083.475-.083a2.531,2.531,0,0,0,.548-.388,7.06,7.06,0,0,0,.469-.784,2.5,2.5,0,0,0,.234-1.1,1.545,1.545,0,0,0-.392-1.1A.99.99,0,0,0,139.221,84.832Z" style="fill:#0054a4"/><path d="M156.846,85.613a.887.887,0,0,1,.627-.237.653.653,0,0,1,.548.159.7.7,0,0,1,.237.547h.627a1.294,1.294,0,0,0-.392-.939,1.242,1.242,0,0,0-.941-.312,1.881,1.881,0,0,0-1.723,1.174,3.556,3.556,0,0,0-.235,1.253,1.516,1.516,0,0,0,.314,1.094,1.569,1.569,0,0,0,1.019.318,2.172,2.172,0,0,0,1.019-.238,2.219,2.219,0,0,0,.705-1.095l-.63-.079h0a2.263,2.263,0,0,1-.47.784,1.035,1.035,0,0,1-.624.235.556.556,0,0,1-.469-.236,1.039,1.039,0,0,1-.235-.783,3.991,3.991,0,0,1,.156-.939A1.141,1.141,0,0,1,156.846,85.613Z" style="fill:#0054a4"/><path d="M130.44,84.831h-.155V85.3h.155a.766.766,0,0,1,.628.236,1.323,1.323,0,0,1,.236.784v.157h-2.115a1.816,1.816,0,0,1,.547-.863,1.25,1.25,0,0,1,.549-.314h0v-.468h0a1.33,1.33,0,0,0-.784.233,2.812,2.812,0,0,0-.782.861,3.267,3.267,0,0,0-.235,1.254,1.272,1.272,0,0,0,.157.783,1.074,1.074,0,0,0,.548.627c.234,0,.469.081.7.081h.391V88.2h-.391a.843.843,0,0,1-.549-.238,1.315,1.315,0,0,1-.234-.783v-.234h1.176l1.564,0a1.345,1.345,0,0,0,.079-.548,1.934,1.934,0,0,0-.389-1.176A1.7,1.7,0,0,0,130.44,84.831Z" style="fill:#0054a4"/><path d="M134.126,84.985a2.746,2.746,0,0,0-.548.706l.157-.783h-.628l-.784,3.681h.627l.313-1.411a3.531,3.531,0,0,1,.549-1.407.966.966,0,0,1,.7-.316.7.7,0,0,1,.393.081l.233-.55a.584.584,0,0,0-.47-.154A1.468,1.468,0,0,0,134.126,84.985Z" style="fill:#0054a4"/><path d="M145.406,84.833h-.233V85.3h.233a.712.712,0,0,1,.627.315,1.2,1.2,0,0,1,.313.783,1.843,1.843,0,0,1-.157.628c-.078.234-.078.391-.156.469a1.651,1.651,0,0,1-.314.388,1.414,1.414,0,0,1-.388.317h-.158a.29.29,0,0,1-.235.077.63.63,0,0,1-.627-.315.9.9,0,0,1-.313-.783c0-.234.077-.392.077-.625a6.438,6.438,0,0,1,.314-.7,2.117,2.117,0,0,1,.47-.4c.079-.077.158-.078.312-.154v-.467h0v0a2.041,2.041,0,0,0-1.175.546,2.635,2.635,0,0,0-.471.942,2.947,2.947,0,0,0-.157.94,2.292,2.292,0,0,0,.157.7v.079a1.813,1.813,0,0,0,.548.548c.314,0,.55.081.863.081h.233a3.056,3.056,0,0,0,.783-.238,1.577,1.577,0,0,0,.707-.86,2.049,2.049,0,0,0,.313-1.176,1.6,1.6,0,0,0-.47-1.175A1.553,1.553,0,0,0,145.406,84.833Z" style="fill:#0054a4"/><path d="M149.089,84.832h0a1.037,1.037,0,0,0-.626.232,1.93,1.93,0,0,0-.7.862,2.489,2.489,0,0,0-.314,1.254,1.611,1.611,0,0,0,.393,1.173,1.063,1.063,0,0,0,.862.318c.153,0,.312,0,.388-.081V88.2c-.076,0-.156.077-.235.077a.594.594,0,0,1-.388-.156,1.414,1.414,0,0,1-.313-.392c0-.156-.079-.391-.079-.626a2.99,2.99,0,0,1,.155-.706,1.593,1.593,0,0,1,.314-.627.807.807,0,0,1,.392-.316c0-.077.08-.077.155-.077v-.545Z" style="fill:#0054a4"/><path d="M154.183,86.553c-.079.314-.158.55-.158.626a3.383,3.383,0,0,1-.313.549,2.1,2.1,0,0,1-.47.392,1.142,1.142,0,0,1-.548.079.706.706,0,0,1-.393-.079.486.486,0,0,1-.077-.315,1.014,1.014,0,0,1,.077-.468l.472-2.43h-.629l-.47,2.2a3.647,3.647,0,0,0-.078.78.886.886,0,0,0,.236.627,1.561,1.561,0,0,0,.7.16,1.763,1.763,0,0,0,1.409-.707h0l-.155.626h.548l.784-3.682H154.5Z" style="fill:#0054a4"/><path d="M150.343,85.455a1.251,1.251,0,0,0-1.1-.623h-.158v.545h.236a.875.875,0,0,1,.625.236,1.461,1.461,0,0,1,.237.706,2.468,2.468,0,0,1-.55,1.487.907.907,0,0,1-.549.394v.388h0a1.209,1.209,0,0,0,.785-.468l-.157.468h.628l1.1-5.091h-.7Z" style="fill:#0054a4"/><path d="M193.907,84.832h-.391a2.656,2.656,0,0,0-.7.311,1.885,1.885,0,0,0-.631.862h.706a.723.723,0,0,1,.314-.47c.078-.081.235-.081.315-.159v0a3.258,3.258,0,0,1,.391-.078.887.887,0,0,1,.626.236c.157.078.157.156.157.313a1,1,0,0,1-.079.471,2.458,2.458,0,0,1-.862.078c-.078,0-.156.079-.233.079v0h-.55a5.618,5.618,0,0,0-.627.233.771.771,0,0,0-.313.394v0h-.08a1.176,1.176,0,0,0-.078.548.946.946,0,0,0,.158.626v0c0,.076.077.076.155.156a1.172,1.172,0,0,0,.785.237,1.149,1.149,0,0,0,.55-.08h.154c.156-.078.392-.235.626-.388a3.464,3.464,0,0,0,.079.388H195c0-.157-.077-.312-.077-.469a3.928,3.928,0,0,1,.158-.7l.157-.94a2.214,2.214,0,0,0,.076-.706.7.7,0,0,0-.313-.626A1.52,1.52,0,0,0,193.907,84.832Zm.39,2.82c-.156.155-.312.311-.47.47-.156,0-.234.079-.311.079v0a.481.481,0,0,1-.315.078.573.573,0,0,1-.707-.626.706.706,0,0,1,.079-.393,1.716,1.716,0,0,1,.393-.234,4.26,4.26,0,0,1,.55-.079h0a.284.284,0,0,0,.233-.078h.471a.592.592,0,0,1,.313-.08C194.455,87.1,194.376,87.417,194.3,87.652Z" style="fill:#0054a4"/><path d="M203.7,85.3a.882.882,0,0,1,.627.236.61.61,0,0,1,.237.548l.627-.078a1.118,1.118,0,0,0-.393-.861,1.531,1.531,0,0,0-1.1-.313,1.244,1.244,0,0,0-.939.313,1.084,1.084,0,0,0-.393.781.593.593,0,0,0,.159.394.772.772,0,0,0,.312.389,3.231,3.231,0,0,0,.7.315,4.12,4.12,0,0,1,.627.313.6.6,0,0,1,.077.314,1.119,1.119,0,0,1-.156.469,1.546,1.546,0,0,1-.7.157,1.1,1.1,0,0,1-.471-.157c-.156-.079-.313-.158-.313-.315a.987.987,0,0,1-.077-.468l-.707.078h0a1.162,1.162,0,0,0,.474,1.017,2.265,2.265,0,0,0,1.1.238c.312,0,.626-.081.86-.081a.8.8,0,0,0,.47-.388,1.046,1.046,0,0,0,.237-.627,1.422,1.422,0,0,0-.312-.706c-.158-.082-.472-.236-.943-.47a2.663,2.663,0,0,1-.548-.314c-.158-.078-.158-.158-.158-.313a.6.6,0,0,1,.158-.316A1.152,1.152,0,0,1,203.7,85.3Z" style="fill:#0054a4"/><path d="M192.024,84.907a.718.718,0,0,0-.389-.076,2.036,2.036,0,0,0-.551.154,2.887,2.887,0,0,0-.548.7l.159-.783h-.55l-.784,3.682.546,0,.392-1.41a2.673,2.673,0,0,1,.548-1.408.951.951,0,0,1,.628-.315c.158,0,.314,0,.391.081l.158-.236Z" style="fill:#0054a4"/><path d="M197.589,83.5l-.784.472-.157.938H196.1l-.079.469h.471l-.471,2.2a2.828,2.828,0,0,1-.078.548.456.456,0,0,0,.157.388,1.471,1.471,0,0,0,.627.16.956.956,0,0,0,.469-.081l.079-.469h0a.581.581,0,0,1-.388.081c-.08,0-.158,0-.158-.079-.079,0-.079-.08-.079-.159a1.392,1.392,0,0,1,.079-.469l.469-2.116h.627l.079-.469h-.627Z" style="fill:#0054a4"/><path d="M199.94,84.831h-.157a1.317,1.317,0,0,0-.783.232,2.81,2.81,0,0,0-.784.862,3.242,3.242,0,0,0-.236,1.254,1.281,1.281,0,0,0,.157.783,1.445,1.445,0,0,0,.549.627c.234,0,.47.081.783.081h.314a2.844,2.844,0,0,0,.7-.318,2.2,2.2,0,0,0,.629-.937h-.629a1.217,1.217,0,0,1-.469.626c0,.079-.157.079-.235.158h-.314a.887.887,0,0,1-.627-.237,1.319,1.319,0,0,1-.234-.783v-.234h1.175l1.57,0V86.4a1.543,1.543,0,0,0-.394-1.176A1.481,1.481,0,0,0,199.94,84.831Zm.782,1.644h-2.036a1.815,1.815,0,0,1,.548-.862,1.231,1.231,0,0,1,.549-.314h.157a.7.7,0,0,1,.547.236,1.384,1.384,0,0,1,.313.784A.247.247,0,0,1,200.722,86.475Z" style="fill:#0054a4"/><polygon points="193.516 84.831 193.516 84.832 193.518 84.831 193.516 84.831" style="fill:#0054a4"/><path d="M192.026,84.907V85.3l.155-.314A.247.247,0,0,0,192.026,84.907Z" style="fill:#0054a4"/><path d="M113.515,54.819a4.659,4.659,0,0,0,2.662-.548,2.049,2.049,0,0,0,.7-1.8,1.9,1.9,0,0,0-.783-1.8,3.728,3.728,0,0,0-1.489-.47,5.168,5.168,0,0,0,1.332-.548,1.983,1.983,0,0,0,.862-1.724,2.13,2.13,0,0,0-.862-1.8,4.847,4.847,0,0,0-2.426-.547v1.1a1.18,1.18,0,0,1,.626.314,2.357,2.357,0,0,1,0,2.349,1.176,1.176,0,0,1-.626.314v1.1a1.462,1.462,0,0,1,.706.313,1.628,1.628,0,0,1,.388,1.175,2.116,2.116,0,0,1-.313,1.175,1.838,1.838,0,0,1-.784.314h0Z" style="fill:#0054a4"/><path d="M113.515,54.819h0v-1.1h-.938V50.746h.94v-1.1h-.94V46.671h.94v-1.1h-4.074v1.1h.313a.312.312,0,0,1,.392.078c.078,0,.155.156.155.312v6.27a.4.4,0,0,1-.155.313c-.079.079-.156.079-.392.079h-.313v1.1Z" style="fill:#0054a4"/><path d="M152.7,57.721v2.426l.079-.312.7,3.368h-1.645l.862-3.057V57.719h-.632l-2.193,7.756a.555.555,0,0,1-.472.47h-.388v1.02h3.058v-1.02h-.393a3.481,3.481,0,0,1-.392-.077.355.355,0,0,1,0-.393L151.6,64.3h1.1l1.014,0,.312,1.176a.588.588,0,0,1-.078.393,1.608,1.608,0,0,1-.388.077h-.315v1.02h3.917v-1.02h-.388c-.158,0-.235-.077-.313-.077-.079-.079-.079-.157-.156-.393l-1.961-7.756Z" style="fill:#0054a4"/><path d="M126.206,54.818V51.372h-1.1v.471a2.406,2.406,0,0,1-.392,1.488c-.155.078-.232.157-.388.235a2.159,2.159,0,0,1-1.02.157h-1.332V50.51h.7a.517.517,0,0,1,.157,0,.553.553,0,0,1,.47.627v.628h1.1V48.159h-1.1v.627a.905.905,0,0,1-.157.548.649.649,0,0,1-.47.158h-.7V46.671h1.332a3.839,3.839,0,0,1,1.02.078,1.617,1.617,0,0,1,.39.236,2.055,2.055,0,0,1,.392,1.332v.392h1.1V45.574h-7.365v1.1h.392a.349.349,0,0,1,.393.078.824.824,0,0,1,.077.312v6.27a.4.4,0,0,1-.157.313c0,.079-.156.079-.313.079h-.392v1.1h7.362Z" style="fill:#0054a4"/><path d="M152.7,54.819h1.723V51.374h-1.1v.47a2.408,2.408,0,0,1-.393,1.489c-.077.078-.155.157-.234.157v0a2.632,2.632,0,0,1-1.176.235h-1.254V50.51h.627a.661.661,0,0,1,.469.156.654.654,0,0,1,.158.471v.628h1.1V48.159h-1.1v.627a.9.9,0,0,1-.158.548.648.648,0,0,1-.469.158h-.627V46.671H151.6a4.075,4.075,0,0,1,1.1.157c.077.077.154.158.234.157a2.062,2.062,0,0,1,.393,1.332v.392h1.1V45.574h-7.367v1.1h.391a.348.348,0,0,1,.393.078c.078,0,.078.156.078.312v6.27c0,.157,0,.235-.078.313a.582.582,0,0,1-.393.079h-.391v1.1Z" style="fill:#0054a4"/><path d="M160.37,53.723H159.9c-.158,0-.236,0-.314-.079v-2.82h.47a1.2,1.2,0,0,1,.55.076h0c.076.08.156.08.235.237a1.923,1.923,0,0,1,.313,1.019V53.1a2.38,2.38,0,0,0,.549,1.489,2.691,2.691,0,0,0,1.565.391,1.74,1.74,0,0,0,1.489-.549,2.567,2.567,0,0,0,.47-1.645h-.86a2.713,2.713,0,0,1-.078.941c-.08.156-.157.235-.314.235a.411.411,0,0,1-.314-.157,4.054,4.054,0,0,0-.156-.705l-.079-.941a2.1,2.1,0,0,0-1.1-1.566,3.532,3.532,0,0,0-.7-.236,3.69,3.69,0,0,0,1.566-.47A2.346,2.346,0,0,0,163.974,48a2.228,2.228,0,0,0-.785-1.88,4.129,4.129,0,0,0-2.427-.547h-4.386v1.1h.391a.343.343,0,0,1,.388.078c.08,0,.08.156.08.312v6.27c0,.157-.006.234-.08.313s-.232.079-.388.079h-.391v1.1h3.994Zm-.783-7.052h1.02a1.462,1.462,0,0,1,.7.314,1.619,1.619,0,0,1,.314,1.174,1.85,1.85,0,0,1-.314,1.255,1.481,1.481,0,0,1-.7.311h-1.02Z" style="fill:#0054a4"/><path d="M129.265,48.709a2.521,2.521,0,0,1,.392-1.568,1.374,1.374,0,0,1,1.176-.47v6.66c0,.157,0,.235-.078.313a.591.591,0,0,1-.392.079h-.706v1.1h4.7v-1.1h-.469c-.314.078-.471,0-.55-.079-.157,0-.157-.156-.157-.313v-6.66a1.373,1.373,0,0,1,1.176.47,2.618,2.618,0,0,1,.312,1.568v.547h1.1V45.574h-7.6v3.682h1.1Z" style="fill:#0054a4"/><path d="M138.747,48.709a2.6,2.6,0,0,1,.313-1.568,1.376,1.376,0,0,1,1.176-.47v6.66h0c0,.157,0,.235-.079.313a.581.581,0,0,1-.388.079h-.706v1.1h4.7v-1.1h-.471a.541.541,0,0,1-.548-.079c-.156,0-.156-.156-.156-.313v-6.66a1.374,1.374,0,0,1,1.175.47,2.6,2.6,0,0,1,.313,1.568v.547h1.1V45.574h-7.523v3.682h1.1Z" style="fill:#0054a4"/><path d="M147.758,63.361v-1.1H143.37v1.1h.548c.237,0,.47,0,.548.156a2.049,2.049,0,0,1,.158.861v.388a2.234,2.234,0,0,1-.314,1.02,1.009,1.009,0,0,1-.784.313.929.929,0,0,1-.783-.627,21.319,21.319,0,0,1-.156-3.134,8.386,8.386,0,0,1,.311-2.9,1,1,0,0,1,1.02-.784,1.344,1.344,0,0,1,1.254.627,4.923,4.923,0,0,1,.548,1.957h1.1l-.08-3.525h-.783l-.393.783-.077-.079a2.175,2.175,0,0,0-1.881-.859,2.932,2.932,0,0,0-2.586,1.175,8.68,8.68,0,0,0-.782,4.077,5.484,5.484,0,0,0,.782,3.368,2.96,2.96,0,0,0,2.43,1.02,2.184,2.184,0,0,0,1.959-.939l.313.7H146.9V63.91a.663.663,0,0,1,.157-.471c.078-.078.157-.078.391-.078Z" style="fill:#0054a4"/><path d="M117.905,62.889V61.715a4.714,4.714,0,0,0-.785-3.135,3.051,3.051,0,0,0-2.586-1.017,4.2,4.2,0,0,0-1.019.077,2.932,2.932,0,0,0-1.567.94,4.863,4.863,0,0,0-.784,3.135v1.176a5.075,5.075,0,0,0,.784,3.292,2.446,2.446,0,0,0,1.567.939c.313,0,.627.077,1.019.079a3.077,3.077,0,0,0,2.586-1.02A5.068,5.068,0,0,0,117.905,62.889Zm-2.275,0a9.019,9.019,0,0,1-.234,2.665c-.079.391-.392.548-.862.548s-.783-.157-.862-.548a6.788,6.788,0,0,1-.157-.786h0c0-.47-.078-1.1-.078-1.88v-1.1c0-.783.078-1.41.078-1.8a4.415,4.415,0,0,1,.157-.783c.079-.393.389-.549.862-.549s.783.156.862.549a8.363,8.363,0,0,1,.234,2.585Z" style="fill:#0054a4"/><path d="M175.491,63.517h-1.1v.47A2.248,2.248,0,0,1,174,65.475a1.906,1.906,0,0,1-1.407.47h-1.332V62.734h.7c.237,0,.394,0,.471.079a1.115,1.115,0,0,1,.157.548v.626h1.019V60.3H172.6v.706a.59.59,0,0,1,0,.157.556.556,0,0,1-.628.471h-.7V58.817H172.6A2.159,2.159,0,0,1,174,59.21a1.7,1.7,0,0,1,.393,1.254v.392h1.1V57.721h-7.365v1.1h.388a.58.58,0,0,1,.392.079,1.592,1.592,0,0,1,.077.392v6.189a.6.6,0,0,1-.156.393,1.639,1.639,0,0,1-.393.077h-.313v1.02l0,0h7.361Z" style="fill:#0054a4"/><path d="M162.251,63.364h.47c.236,0,.469,0,.547.156a2.084,2.084,0,0,1,.158.861v.389a2.227,2.227,0,0,1-.314,1.019,1,1,0,0,1-.784.313.925.925,0,0,1-.781-.627,21.177,21.177,0,0,1-.158-3.134,8.335,8.335,0,0,1,.314-2.9,1.023,1.023,0,0,1,1.1-.785,1.3,1.3,0,0,1,1.176.627,3.889,3.889,0,0,1,.548,1.957h1.093V57.719h-.861l-.389.782-.077-.079a2.186,2.186,0,0,0-1.883-.859,3.234,3.234,0,0,0-1.8.47v0a2.209,2.209,0,0,0-.786.7,8.666,8.666,0,0,0-.783,4.077,5.483,5.483,0,0,0,.783,3.368,2.141,2.141,0,0,0,.786.626h0a3.642,3.642,0,0,0,1.645.392,2.1,2.1,0,0,0,1.958-.939l.388.7h1.1V63.91a.667.667,0,0,1,.157-.471c.078-.078.157-.078.391-.078h.314v-1.1h-4.309Z" style="fill:#0054a4"/><path d="M101.607,65.945h-.393a.806.806,0,0,1-.313-.077.6.6,0,0,1-.157-.393V59.444l1.88,7.52h1.41l1.88-6.66v5.171a.591.591,0,0,1-.157.393,1.576,1.576,0,0,1-.391.077h-.314v1.02h4v-1.02h-.392a.6.6,0,0,1-.392-.077,3.326,3.326,0,0,1-.077-.393V59.208a.4.4,0,0,1,.156-.314c.078-.079.158-.079.392-.079h.313v-1.1h-3.761L103.8,63.361h-.079l-1.176-5.642H98.55v1.1h.391a.58.58,0,0,1,.388.079c0,.079.079.155.079.314v6.267a3.334,3.334,0,0,1-.079.393,3.413,3.413,0,0,1-.388.077h-.392v1.02h3.058Z" style="fill:#0054a4"/><polygon points="143.448 67.199 143.448 67.199 143.447 67.199 143.448 67.199" style="fill:#0054a4"/><path d="M128.949,64.927h-.862a2.739,2.739,0,0,1-.077.941c-.079.155-.157.234-.314.234a.407.407,0,0,1-.314-.157,6.275,6.275,0,0,0-.157-.7l-.077-.942a1.979,1.979,0,0,0-1.1-1.486.954.954,0,0,0-.706-.237,4.071,4.071,0,0,0,1.567-.548,2.346,2.346,0,0,0,.784-1.881,2.3,2.3,0,0,0-.784-1.8,4.092,4.092,0,0,0-2.427-.626H120.1v1.1h.392c.155,0,.312,0,.388.079a1.552,1.552,0,0,1,.08.392v6.189c0,.158-.08.314-.156.314,0,.079-.157.156-.314.156H120.1v1.02h4v-1.02h-.548c-.077,0-.157-.077-.235-.077a3.33,3.33,0,0,1-.078-.393V62.968h.547c.235,0,.392.077.55.077h0c.078.081.156.158.234.238a2.2,2.2,0,0,1,.314,1.016v.942a2.387,2.387,0,0,0,.548,1.488,2.7,2.7,0,0,0,1.568.392,1.743,1.743,0,0,0,1.489-.55A2.288,2.288,0,0,0,128.949,64.927Zm-4.62-3.056a1.006,1.006,0,0,1-.472.078h-.625V58.815h1.1a1.486,1.486,0,0,1,.7.314,1.854,1.854,0,0,1,.314,1.254,1.625,1.625,0,0,1-.314,1.175A.987.987,0,0,1,124.329,61.871Z" style="fill:#0054a4"/><path d="M133.1,65.475c0,.158-.077.314-.157.314a.455.455,0,0,1-.391.156h-.627v1.02h4.7v-1.02h-.548c-.237,0-.471,0-.549-.077a.6.6,0,0,1-.158-.393v-6.66h.079a1.38,1.38,0,0,1,1.176.471,2.755,2.755,0,0,1,.313,1.568V61.4h1.1V57.719h-7.6V61.4h1.1v-.548a2.765,2.765,0,0,1,.313-1.568,1.379,1.379,0,0,1,1.176-.471h.077v6.66Z" style="fill:#0054a4"/><path d="M209.656,71.447h-.037a2.607,2.607,0,1,0,.037,0Zm0,4.824h-.092a2.148,2.148,0,0,1-2.059-2.233V73.98a2.222,2.222,0,1,1,2.151,2.291Z" style="fill:#0054a4"/><path d="M210.146,74.224a.782.782,0,0,0,.734-.828c0-.584-.341-.87-1.064-.87h-1.177v3.042h.473v-1.31h.5l.828,1.31h.509l-.871-1.344Zm-.539-.347h-.5v-.968h.627c.32,0,.668.063.668.467C210.407,73.856,210.025,73.877,209.607,73.877Z" style="fill:#0054a4"/></svg>