<svg xmlns="http://www.w3.org/2000/svg" viewBox="0 0 747 150"><title>Better Choice</title><polygon points="142.333 89.391 75.234 49.097 75.234 73.279 75.234 129.685 142.333 89.391" style="fill:#bc202a"/><polygon points="142.333 89.396 209.432 129.69 209.432 105.508 209.432 49.102 142.333 89.396" style="fill:#869fb7"/><polygon points="75.234 49.099 142.333 89.393 142.333 65.21 142.333 8.804 75.234 49.099" style="fill:#14293c"/><polygon points="209.462 49.101 142.334 8.807 142.334 32.989 142.334 89.395 209.462 49.101" style="fill:#14293c"/><polygon points="75.234 129.685 142.241 89.418 209.131 129.717 142.241 8.969 75.234 129.685" style="fill:#fff;opacity:0.2"/><path d="M227.972,48.382h29.253a17.753,17.753,0,0,1,6.229.93,10.251,10.251,0,0,1,3.9,2.479,8.434,8.434,0,0,1,2.015,3.533,15.035,15.035,0,0,1,.557,4.09,10.852,10.852,0,0,1-.62,3.936,8.733,8.733,0,0,1-1.518,2.6A8.019,8.019,0,0,1,265.84,67.6q-1.054.619-1.921,1.053a15.064,15.064,0,0,1,2.7,1.085,9.717,9.717,0,0,1,2.6,1.983,9.991,9.991,0,0,1,1.983,3.192,12.636,12.636,0,0,1,.775,4.71,14.408,14.408,0,0,1-.682,4.121,11.674,11.674,0,0,1-2.386,4.246A13.212,13.212,0,0,1,264.29,91.3a17.759,17.759,0,0,1-7.375,1.332H227.972Zm9.3,17.974h17.354a11.77,11.77,0,0,0,2.045-.186,4.906,4.906,0,0,0,1.922-.775,4.593,4.593,0,0,0,1.456-1.7,6.4,6.4,0,0,0,.589-2.975,4.743,4.743,0,0,0-1.767-4.091q-1.766-1.3-5.856-1.3H237.268Zm0,19.337H253.94a21.471,21.471,0,0,0,3.068-.217,7.4,7.4,0,0,0,2.7-.9,5.068,5.068,0,0,0,1.891-1.952,7.055,7.055,0,0,0,.712-3.44,5.692,5.692,0,0,0-1.921-4.71,7.854,7.854,0,0,0-5.082-1.55H237.268Z" style="fill:#424143"/><path d="M286.416,78.379a10.679,10.679,0,0,0,.62,3.037,8.611,8.611,0,0,0,1.828,3.006,9.817,9.817,0,0,0,3.409,2.325,13.318,13.318,0,0,0,5.3.929,12.353,12.353,0,0,0,6.384-1.332,10.067,10.067,0,0,0,3.407-3.378h9.3a25.677,25.677,0,0,1-1.953,3.285,16.036,16.036,0,0,1-3.471,3.563,19.855,19.855,0,0,1-5.453,2.882,23.546,23.546,0,0,1-7.964,1.178,26.473,26.473,0,0,1-9.452-1.487,17.752,17.752,0,0,1-6.291-3.905,14.454,14.454,0,0,1-3.5-5.547,19.429,19.429,0,0,1-1.085-6.415,18.443,18.443,0,0,1,1.456-7.437,16.113,16.113,0,0,1,4.06-5.671,18.337,18.337,0,0,1,6.229-3.595,24.16,24.16,0,0,1,8.026-1.271,24.889,24.889,0,0,1,9.3,1.55,17.114,17.114,0,0,1,6.26,4.153,15.808,15.808,0,0,1,3.5,5.95A22.37,22.37,0,0,1,317.4,77.14v1.239Zm22.064-5.454A9.134,9.134,0,0,0,306.9,68.8a10.2,10.2,0,0,0-2.789-2.634,10.75,10.75,0,0,0-3.377-1.394,15.352,15.352,0,0,0-3.347-.4,13.893,13.893,0,0,0-3.192.4,10.921,10.921,0,0,0-3.254,1.363,9.775,9.775,0,0,0-2.758,2.634,11.239,11.239,0,0,0-1.766,4.152Z" style="fill:#424143"/><path d="M325.957,65.984h-6.818v-6.2h6.818V49.622h8.554V59.786h8.923v6.2h-8.923v15a15.355,15.355,0,0,0,.464,4.338q.463,1.488,2.634,1.488,1.611,0,3.1-.031c.993-.021,2-.052,3.038-.094v6.2q-1.737.247-3.162.373t-3.409.123a21.817,21.817,0,0,1-6.134-.682,7.3,7.3,0,0,1-3.378-1.952,5.812,5.812,0,0,1-1.427-3.1,28.109,28.109,0,0,1-.278-4.183Z" style="fill:#424143"/><path d="M351.181,65.984h-6.817v-6.2h6.817V49.622h8.554V59.786h8.924v6.2h-8.924v15a15.385,15.385,0,0,0,.465,4.338q.465,1.488,2.634,1.488,1.611,0,3.1-.031t3.038-.094v6.2q-1.737.247-3.161.373t-3.41.123a21.82,21.82,0,0,1-6.135-.682,7.312,7.312,0,0,1-3.378-1.952,5.818,5.818,0,0,1-1.426-3.1,28.1,28.1,0,0,1-.279-4.183Z" style="fill:#424143"/><path d="M381.613,78.379a10.713,10.713,0,0,0,.62,3.037,8.641,8.641,0,0,0,1.828,3.006,9.826,9.826,0,0,0,3.409,2.325,13.323,13.323,0,0,0,5.3.929,12.346,12.346,0,0,0,6.383-1.332,10.064,10.064,0,0,0,3.409-3.378h9.3a25.519,25.519,0,0,1-1.951,3.285,16.058,16.058,0,0,1-3.471,3.563,19.9,19.9,0,0,1-5.455,2.882,23.548,23.548,0,0,1-7.963,1.178,26.473,26.473,0,0,1-9.452-1.487,17.734,17.734,0,0,1-6.291-3.905,14.456,14.456,0,0,1-3.5-5.547,19.428,19.428,0,0,1-1.084-6.415,18.443,18.443,0,0,1,1.456-7.437,16.113,16.113,0,0,1,4.06-5.671,18.322,18.322,0,0,1,6.228-3.595,24.162,24.162,0,0,1,8.027-1.271,24.889,24.889,0,0,1,9.3,1.55,17.105,17.105,0,0,1,6.26,4.153,15.808,15.808,0,0,1,3.5,5.95A22.4,22.4,0,0,1,412.6,77.14v1.239Zm22.065-5.454A9.134,9.134,0,0,0,402.1,68.8a10.228,10.228,0,0,0-2.789-2.634,10.736,10.736,0,0,0-3.378-1.394,15.345,15.345,0,0,0-3.347-.4,13.907,13.907,0,0,0-3.192.4,10.915,10.915,0,0,0-3.253,1.363,9.791,9.791,0,0,0-2.759,2.634,11.239,11.239,0,0,0-1.766,4.152Z" style="fill:#424143"/><path d="M418.489,59.786h8.553V66.17h.123a26.073,26.073,0,0,1,1.984-2.7,12.2,12.2,0,0,1,2.6-2.324,13.677,13.677,0,0,1,3.408-1.612,14.362,14.362,0,0,1,4.4-.619,15.221,15.221,0,0,1,1.766.092q.774.093,1.642.217v8.429a15.961,15.961,0,0,0-3.067-.682q-1.272-.123-2.387-.123a14.355,14.355,0,0,0-3.471.464,9.6,9.6,0,0,0-3.409,1.612A9.01,9.01,0,0,0,428.064,72a10.08,10.08,0,0,0-1.022,4.772V92.634h-8.553Z" style="fill:#424143"/><path d="M506.434,64.745a11.452,11.452,0,0,0-4.525-7.841,17.68,17.68,0,0,0-15.68-1.735,13.079,13.079,0,0,0-4.742,3.223,14.739,14.739,0,0,0-3.13,5.361,23.152,23.152,0,0,0-1.115,7.561,17.011,17.011,0,0,0,1.147,6.353,14.112,14.112,0,0,0,8.087,8.119,16.794,16.794,0,0,0,6.322,1.147,15.151,15.151,0,0,0,6.075-1.085,12.255,12.255,0,0,0,4.059-2.758,11.871,11.871,0,0,0,2.386-3.626,17.926,17.926,0,0,0,1.116-3.749h10.041a25.171,25.171,0,0,1-1.953,6.538,17.039,17.039,0,0,1-4.369,5.826,22.389,22.389,0,0,1-7.531,4.184,35.042,35.042,0,0,1-11.435,1.611,26.477,26.477,0,0,1-10.443-1.891,20.924,20.924,0,0,1-7.376-5.113A20.694,20.694,0,0,1,469,79.4a28.465,28.465,0,0,1,0-17.787,20.283,20.283,0,0,1,4.431-7.469,21.184,21.184,0,0,1,7.685-5.113,29.842,29.842,0,0,1,11.188-1.89,33.147,33.147,0,0,1,10.072,1.394,22.62,22.62,0,0,1,7.375,3.812,17.727,17.727,0,0,1,4.679,5.609,18.648,18.648,0,0,1,2.046,6.787Z" style="fill:#424143"/><path d="M522.92,47.638h8.552V64.745h.124a15.285,15.285,0,0,1,5.3-4.246,17.1,17.1,0,0,1,7.654-1.58,25.152,25.152,0,0,1,5.175.527,12.627,12.627,0,0,1,4.463,1.828,9.526,9.526,0,0,1,3.13,3.5,11.68,11.68,0,0,1,1.177,5.546V92.634h-8.552V73.05a12.038,12.038,0,0,0-.31-2.665,6.031,6.031,0,0,0-1.179-2.449,6.177,6.177,0,0,0-2.479-1.766,11.163,11.163,0,0,0-4.276-.682,13.055,13.055,0,0,0-3.471.5,10.079,10.079,0,0,0-3.315,1.612,8.45,8.45,0,0,0-2.48,2.944,9.414,9.414,0,0,0-.961,4.431V92.634H522.92Z" style="fill:#424143"/><path d="M564.01,76.21a19.6,19.6,0,0,1,1.116-6.57A15.292,15.292,0,0,1,568.658,64a17.29,17.29,0,0,1,6.291-3.966,30.369,30.369,0,0,1,18.779,0A17.29,17.29,0,0,1,600.019,64a15.308,15.308,0,0,1,3.533,5.64,19.62,19.62,0,0,1,1.115,6.57,19.882,19.882,0,0,1-1.115,6.6,14.959,14.959,0,0,1-3.533,5.64,17.51,17.51,0,0,1-6.291,3.936,30.388,30.388,0,0,1-18.779,0,17.51,17.51,0,0,1-6.291-3.936,14.945,14.945,0,0,1-3.532-5.64A19.857,19.857,0,0,1,564.01,76.21Zm8.925,0a13.813,13.813,0,0,0,.62,4.153,9.436,9.436,0,0,0,5.516,6.011,15.367,15.367,0,0,0,10.535,0,9.428,9.428,0,0,0,5.517-6.011,14.112,14.112,0,0,0,0-8.274,9.38,9.38,0,0,0-5.517-6.043,15.383,15.383,0,0,0-10.535,0,9.7,9.7,0,0,0-3.532,2.479,9.569,9.569,0,0,0-1.984,3.564A13.912,13.912,0,0,0,572.935,76.21Z" style="fill:#424143"/><path d="M610.431,47.638h8.552V54.58h-8.552Zm0,12.148h8.552V92.634h-8.552Z" style="fill:#424143"/><path d="M654.186,71.314a7.019,7.019,0,0,0-2.944-4.4,10.145,10.145,0,0,0-6.166-1.8,12.993,12.993,0,0,0-5.145.93,10.022,10.022,0,0,0-3.563,2.479,9.749,9.749,0,0,0-2.046,3.564,13.353,13.353,0,0,0-.651,4.121,14.531,14.531,0,0,0,.589,4.153,9.968,9.968,0,0,0,1.859,3.532,9.129,9.129,0,0,0,3.254,2.479,11.175,11.175,0,0,0,4.773.931,15.775,15.775,0,0,0,4.153-.466,7.388,7.388,0,0,0,2.789-1.394,7.985,7.985,0,0,0,1.859-2.262,24,24,0,0,0,1.425-3.13H663.3a15.654,15.654,0,0,1-1.889,5.764,14.691,14.691,0,0,1-3.223,3.873,15.54,15.54,0,0,1-3.874,2.387,22,22,0,0,1-3.9,1.27,20,20,0,0,1-3.317.465q-1.457.061-2.013.062a26.263,26.263,0,0,1-9.39-1.487,17.5,17.5,0,0,1-6.291-3.936,14.959,14.959,0,0,1-3.533-5.64,19.882,19.882,0,0,1-1.115-6.6,18.143,18.143,0,0,1,1.394-7.22,15.617,15.617,0,0,1,4-5.578,18.1,18.1,0,0,1,6.383-3.595,26.8,26.8,0,0,1,8.554-1.271,31.306,31.306,0,0,1,4.648.435,19.1,19.1,0,0,1,5.546,1.8,16.028,16.028,0,0,1,4.959,3.873,13.107,13.107,0,0,1,2.882,6.663Z" style="fill:#424143"/><path d="M676.5,78.379a10.713,10.713,0,0,0,.62,3.037,8.641,8.641,0,0,0,1.828,3.006,9.821,9.821,0,0,0,3.41,2.325,13.314,13.314,0,0,0,5.3.929,12.346,12.346,0,0,0,6.383-1.332,10.064,10.064,0,0,0,3.409-3.378h9.3a25.656,25.656,0,0,1-1.952,3.285,16.036,16.036,0,0,1-3.471,3.563,19.883,19.883,0,0,1-5.455,2.882,23.544,23.544,0,0,1-7.963,1.178,26.473,26.473,0,0,1-9.452-1.487,17.734,17.734,0,0,1-6.291-3.905,14.456,14.456,0,0,1-3.5-5.547,19.428,19.428,0,0,1-1.084-6.415,18.443,18.443,0,0,1,1.456-7.437,16.113,16.113,0,0,1,4.06-5.671,18.322,18.322,0,0,1,6.228-3.595,24.162,24.162,0,0,1,8.027-1.271,24.889,24.889,0,0,1,9.3,1.55,17.105,17.105,0,0,1,6.26,4.153,15.808,15.808,0,0,1,3.5,5.95,22.4,22.4,0,0,1,1.084,6.941v1.239Zm22.065-5.454a9.134,9.134,0,0,0-1.581-4.121,10.228,10.228,0,0,0-2.789-2.634,10.736,10.736,0,0,0-3.378-1.394,15.345,15.345,0,0,0-3.347-.4,13.907,13.907,0,0,0-3.192.4,10.915,10.915,0,0,0-3.253,1.363,9.775,9.775,0,0,0-2.758,2.634,11.223,11.223,0,0,0-1.767,4.152Z" style="fill:#424143"/><text transform="translate(262.844 129.082)" style="font-size:26px;fill:#bc202a;font-family:LucidaHandwriting-Italic, Lucida Handwriting;font-style:italic;letter-spacing:0.20000751201923078em">Make a Better Choice</text></svg>
