<svg xmlns="http://www.w3.org/2000/svg" viewBox="0 0 841.89 595.28"><title>Bluebay home loans</title><path d="M371.542,306.08v7.258H360.834v-64.6h10.708V274.4c3.451-4.868,8.318-8.76,15.84-8.76,11.062,0,21.77,8.76,21.77,24.247v.178c0,15.487-10.619,24.246-21.77,24.246C379.683,314.31,374.816,310.418,371.542,306.08Zm26.726-16.016v-.178c0-9.028-6.106-14.956-13.364-14.956s-13.628,6.018-13.628,14.956v.178c0,9.026,6.372,14.956,13.628,14.956C392.249,305.02,398.268,299.266,398.268,290.064Z" style="fill:#231f20"/><path d="M418.8,248.735h10.709v64.6H418.8Z" style="fill:#231f20"/><path d="M441.017,296.346V266.611h10.708V293.16c0,7.256,3.628,11.416,10,11.416,6.195,0,10.531-4.336,10.531-11.593V266.611h10.708v46.727H472.256V306.08c-3.01,4.426-7.346,8.23-14.6,8.23C447.123,314.31,441.017,307.23,441.017,296.346Z" style="fill:#231f20"/><path d="M491.905,290.151v-.176c0-13.364,9.469-24.336,22.832-24.336,14.866,0,22.39,11.68,22.39,25.131,0,.974-.088,1.948-.178,3.011H502.613c1.152,7.61,6.549,11.858,13.451,11.858,5.222,0,8.939-1.948,12.656-5.575L535,305.639c-4.425,5.31-10.531,8.759-19.115,8.759C502.348,314.4,491.905,304.576,491.905,290.151Zm34.6-3.451c-.708-6.9-4.779-12.3-11.859-12.3-6.548,0-11.15,5.044-12.123,12.3Z" style="fill:#231f20"/><path d="M556.687,306.08v7.258H545.978v-64.6h10.709V274.4c3.452-4.868,8.319-8.76,15.841-8.76,11.062,0,21.77,8.76,21.77,24.247v.178c0,15.487-10.62,24.246-21.77,24.246C564.828,314.31,559.961,310.418,556.687,306.08Zm26.725-16.016v-.178c0-9.028-6.105-14.956-13.362-14.956s-13.629,6.018-13.629,14.956v.178c0,9.026,6.372,14.956,13.629,14.956C577.4,305.02,583.412,299.266,583.412,290.064Z" style="fill:#231f20"/><path d="M631.912,313.338v-5.752c-3.185,3.806-8.053,6.724-15.132,6.724-8.85,0-16.637-5.042-16.637-14.425v-.176c0-10.354,8.052-15.311,18.938-15.311A39.319,39.319,0,0,1,632,286.346v-.885c0-6.461-4.071-10-11.5-10a32.511,32.511,0,0,0-13.363,2.921l-2.92-8.585A40.079,40.079,0,0,1,622,265.9c13.806,0,20.531,7.256,20.531,19.736v27.7Zm.267-19.557a30.569,30.569,0,0,0-10.709-1.859c-6.725,0-10.708,2.743-10.708,7.256v.175c0,4.426,3.983,6.9,9.027,6.9,7.08,0,12.39-3.983,12.39-9.823Z" style="fill:#231f20"/><path d="M650.056,324.93l3.629-7.963a13.2,13.2,0,0,0,6.282,1.769c3.009,0,4.867-1.328,6.637-5.4l-19.468-46.727h11.415l13.275,34.69,12.124-34.69H695.1l-18.585,48.054c-3.717,9.558-7.876,13.1-15.4,13.1A21.809,21.809,0,0,1,650.056,324.93Z" style="fill:#231f20"/><path d="M300.235,340.107Q293.8,345.5,280.064,345.5H267.558V304.906H277.81q16.349,0,22.684,5.828a18.946,18.946,0,0,1,6.517,14.6,18.628,18.628,0,0,1-6.776,14.775m-32.677-91.164h7.126q10.266,0,15.635,4.912,5.391,4.908,5.4,14.384,0,9.735-5.262,14.726t-16.555,5H268.23v0h-.672ZM207.391,345.5H194.872q-13.721,0-20.16-5.391a18.61,18.61,0,0,1-6.777-14.775,18.914,18.914,0,0,1,6.515-14.6q6.347-5.821,22.682-5.828h10.259Zm-22.774-91.643q5.387-4.908,15.645-4.912h7.129v39.015h-6.423q-11.238-.018-16.476-4.993-5.266-5-5.26-14.726,0-9.471,5.385-14.384m136.118,51.233a32.393,32.393,0,0,0-16.855-12.781q11.039-9.991,11.035-24.419a38.637,38.637,0,0,0-3.386-15.638,36.493,36.493,0,0,0-8.948-12.779,32.234,32.234,0,0,0-13.654-7.035q-7.982-2.1-21.461-2.089H247.3v57.611H227.639V230.347H207.475q-13.475,0-21.465,2.089a32.259,32.259,0,0,0-13.647,7.035,36.523,36.523,0,0,0-8.944,12.779,38.549,38.549,0,0,0-3.394,15.638q0,14.432,11.035,24.419a32.433,32.433,0,0,0-16.855,12.781,37.78,37.78,0,0,0,4.874,47.62,36.381,36.381,0,0,0,15.022,9.3q9.133,2.523,22.857,2.518h30.681V304.9H247.3v59.622h30.685q13.722,0,22.851-2.518a36.418,36.418,0,0,0,15.037-9.3,37.784,37.784,0,0,0,4.861-47.62" style="fill:#0081c6"/><path d="M360.937,320.436h2.29v14.726a9.335,9.335,0,0,1,8.6-5c6.03,0,9.536,4.113,9.536,9.818v14.585h-2.29V340.4c0-4.908-2.759-8.134-7.574-8.134a8.173,8.173,0,0,0-8.275,8.508v13.791h-2.29Z" style="fill:#231f20"/><path d="M386.02,342.735v-.092a12.319,12.319,0,0,1,12.3-12.483,12.191,12.191,0,0,1,12.2,12.389v.094a12.319,12.319,0,0,1-12.3,12.482A12.191,12.191,0,0,1,386.02,342.735Zm22.019,0v-.092c0-5.75-4.3-10.333-9.817-10.333-5.657,0-9.724,4.63-9.724,10.239v.094c0,5.75,4.3,10.332,9.817,10.332C403.972,352.975,408.039,348.346,408.039,342.735Z" style="fill:#231f20"/><path d="M415.637,330.721h2.291v4.255c1.542-2.478,3.693-4.816,7.947-4.816a8.558,8.558,0,0,1,8.041,5.143,9.472,9.472,0,0,1,8.6-5.143c5.658,0,9.164,3.975,9.164,9.957v14.446h-2.291V340.4c0-5.142-2.665-8.134-7.06-8.134-4.021,0-7.526,3.086-7.526,8.416v13.883h-2.291V340.258c0-4.955-2.711-7.994-6.965-7.994s-7.621,3.74-7.621,8.554v13.745h-2.291Z" style="fill:#231f20"/><path d="M456.52,342.69V342.6c0-6.92,4.863-12.436,11.314-12.436,6.685,0,10.939,5.424,10.939,12.483a6.055,6.055,0,0,1-.046.935H458.952c.42,5.938,4.675,9.4,9.35,9.4a10.705,10.705,0,0,0,8.18-3.741l1.59,1.4a12.534,12.534,0,0,1-9.864,4.488C461.943,355.125,456.52,350.123,456.52,342.69Zm19.776-1.17c-.327-4.815-3.085-9.256-8.556-9.256-4.722,0-8.368,3.973-8.788,9.256Z" style="fill:#231f20"/><path d="M495.586,320.436h2.29v34.127h-2.29Z" style="fill:#231f20"/><path d="M503.324,342.735v-.092a12.32,12.32,0,0,1,12.3-12.483,12.19,12.19,0,0,1,12.2,12.389v.094a12.319,12.319,0,0,1-12.3,12.482A12.191,12.191,0,0,1,503.324,342.735Zm22.02,0v-.092c0-5.75-4.3-10.333-9.818-10.333-5.657,0-9.723,4.63-9.723,10.239v.094c0,5.75,4.3,10.332,9.816,10.332C521.277,352.975,525.344,348.346,525.344,342.735Z" style="fill:#231f20"/><path d="M531.433,347.645v-.094c0-4.955,4.254-7.76,10.424-7.76a28.727,28.727,0,0,1,7.9,1.027v-1.027c0-4.815-2.946-7.293-7.855-7.293a15.983,15.983,0,0,0-7.479,1.916l-.841-2.01a19.17,19.17,0,0,1,8.461-2.056c3.225,0,5.8.888,7.526,2.617A9.051,9.051,0,0,1,552,339.7v14.866h-2.243V350.59a10.845,10.845,0,0,1-9.116,4.535C536.2,355.125,531.433,352.6,531.433,347.645Zm18.373-2.01v-2.711a31.533,31.533,0,0,0-8.089-1.076c-5.049,0-7.854,2.244-7.854,5.562v.094c0,3.459,3.273,5.471,6.92,5.471C545.644,352.975,549.806,349.982,549.806,345.635Z" style="fill:#231f20"/><path d="M558.293,330.721h2.29v4.441a9.334,9.334,0,0,1,8.6-5c6.031,0,9.536,4.113,9.536,9.818v14.585h-2.29V340.4c0-4.908-2.758-8.134-7.574-8.134a8.173,8.173,0,0,0-8.274,8.508v13.791h-2.29Z" style="fill:#231f20"/><path d="M582.954,351.572l1.356-1.824a13.985,13.985,0,0,0,8.554,3.133c3.227,0,5.751-1.778,5.751-4.535v-.093c0-2.806-2.992-3.833-6.311-4.769-3.881-1.123-8.182-2.291-8.182-6.544v-.094c0-3.834,3.226-6.592,7.855-6.592a16.082,16.082,0,0,1,8.461,2.618l-1.215,1.917a13.7,13.7,0,0,0-7.34-2.385c-3.274,0-5.423,1.777-5.423,4.161v.093c0,2.666,3.225,3.647,6.638,4.629,3.834,1.074,7.854,2.477,7.854,6.686v.092c0,4.254-3.645,6.966-8.227,6.966A16.326,16.326,0,0,1,582.954,351.572Z" style="fill:#231f20"/></svg>
