<svg xmlns="http://www.w3.org/2000/svg" viewBox="0 0 280 100"><title>Bluebay Home Loans</title><path d="M90.285,67.491q-2.637,2.21-8.268,2.21H76.891V53.062h4.2q6.7,0,9.3,2.389a7.765,7.765,0,0,1,2.672,5.984,7.635,7.635,0,0,1-2.778,6.056M76.891,30.124h2.921q4.208,0,6.408,2.014a7.58,7.58,0,0,1,2.214,5.9q0,3.99-2.157,6.036t-6.786,2.049h-2.6ZM52.228,69.7H47.1q-5.625,0-8.264-2.21a7.629,7.629,0,0,1-2.778-6.056,7.753,7.753,0,0,1,2.671-5.984q2.6-2.387,9.3-2.389h4.2ZM42.893,32.137q2.209-2.013,6.413-2.013h2.922V46.116H49.6q-4.605-.006-6.753-2.047t-2.156-6.036a7.581,7.581,0,0,1,2.207-5.9m55.8,21A13.281,13.281,0,0,0,91.779,47.9,12.984,12.984,0,0,0,96.3,37.889a15.828,15.828,0,0,0-1.388-6.41,14.943,14.943,0,0,0-3.667-5.238,13.212,13.212,0,0,0-5.6-2.884,35.832,35.832,0,0,0-8.8-.857H68.587V46.116H60.529V22.5H52.263a36.116,36.116,0,0,0-8.8.856A13.235,13.235,0,0,0,37.87,26.24,14.984,14.984,0,0,0,34.2,31.477a15.8,15.8,0,0,0-1.391,6.41A12.989,12.989,0,0,0,37.336,47.9a13.3,13.3,0,0,0-6.909,5.24,15.489,15.489,0,0,0,2,19.52,14.92,14.92,0,0,0,6.158,3.812A35.822,35.822,0,0,0,47.952,77.5H60.529V53.059h8.058V77.5H81.165a35.872,35.872,0,0,0,9.366-1.032A14.92,14.92,0,0,0,96.7,72.654a15.487,15.487,0,0,0,1.993-19.519" style="fill:#0081c6"/><path d="M119.513,53.543a7.808,7.808,0,0,0,6.493,3.374c4.571,0,8.924-3.59,8.924-9.939v-.073c0-6.348-4.389-9.938-8.924-9.938a7.65,7.65,0,0,0-6.493,3.59V30.038h-4.388v26.48h4.388Zm-.108-6.638c0-3.664,2.61-6.13,5.585-6.13s5.478,2.429,5.478,6.13v.073h0c0,3.772-2.467,6.13-5.478,6.13-2.974,0-5.586-2.43-5.586-6.13Z" style="fill:#231f20"/><rect x="138.885" y="30.037" width="4.39" height="26.48" style="fill:#231f20"/><path d="M160.8,48.174c0,2.975-1.777,4.752-4.316,4.752-2.612,0-4.1-1.705-4.1-4.679V37.365h-4.389V49.553c0,4.461,2.5,7.363,6.82,7.363a6.891,6.891,0,0,0,5.984-3.373v2.975h4.39V37.365H160.8Z" style="fill:#231f20"/><path d="M186.515,53.361l-2.574-2.286a6.958,6.958,0,0,1-5.188,2.286A5.347,5.347,0,0,1,173.24,48.5h14.074c.037-.436.073-.835.073-1.234,0-5.514-3.084-10.3-9.178-10.3-5.477,0-9.358,4.5-9.358,9.975v.072a9.554,9.554,0,0,0,9.829,9.939A9.687,9.687,0,0,0,186.515,53.361Zm-8.343-12.8c2.9,0,4.571,2.213,4.861,5.041H173.2C173.6,42.623,175.488,40.556,178.172,40.556Z" style="fill:#231f20"/><path d="M201.9,56.917c4.57,0,8.923-3.59,8.923-9.939v-.073c0-6.348-4.389-9.938-8.923-9.938a7.65,7.65,0,0,0-6.493,3.59V30.038h-4.39v26.48h4.39V53.543A7.805,7.805,0,0,0,201.9,56.917Zm-6.6-9.939v-.073c0-3.664,2.612-6.13,5.586-6.13s5.477,2.429,5.477,6.13v.073c0,3.772-2.464,6.13-5.477,6.13C197.908,53.108,195.3,50.678,195.3,46.978Z" style="fill:#231f20"/><path d="M222.178,37.072a16.433,16.433,0,0,0-7.289,1.6l1.2,3.519a13.317,13.317,0,0,1,5.476-1.2c3.045,0,4.714,1.45,4.714,4.1v.362a16.14,16.14,0,0,0-5.3-.8c-4.462,0-7.763,2.031-7.763,6.275V51c0,3.846,3.192,5.912,6.82,5.912a7.736,7.736,0,0,0,6.2-2.756v2.358l4.355,0V45.162C230.594,40.046,227.837,37.072,222.178,37.072Zm4.171,12.515c0,2.394-2.177,4.027-5.079,4.027-2.067,0-3.7-1.014-3.7-2.828v-.072c0-1.85,1.633-2.974,4.389-2.974a12.5,12.5,0,0,1,4.39.762Z" style="fill:#231f20"/><path d="M247.57,37.364,242.6,51.583l-5.441-14.219h-4.677l7.978,19.153c-.726,1.669-1.487,2.214-2.721,2.214a5.424,5.424,0,0,1-2.575-.725l-1.487,3.264a8.947,8.947,0,0,0,4.533,1.161c3.084,0,4.789-1.452,6.312-5.37l7.618-19.7Z" style="fill:#231f20"/><path d="M119.632,63.414a3.826,3.826,0,0,0-3.525,2.05V59.427h-.939v13.99h.939V67.764c0-.059,0-.121,0-.182a3.35,3.35,0,0,1,3.4-3.3c1.973,0,3.1,1.322,3.1,3.334v5.806h.939V67.439A3.722,3.722,0,0,0,119.632,63.414Z" style="fill:#231f20"/><path d="M130.49,63.415h-.06a5.051,5.051,0,0,0-4.982,5.117v.124h0a5,5,0,0,0,5,4.992h.06a5.049,5.049,0,0,0,4.982-5.116v-.124A5,5,0,0,0,130.49,63.415Zm3.985,5.153a4.036,4.036,0,0,1-3.987,4.2,4.1,4.1,0,0,1-4.024-4.235v-.039a4.033,4.033,0,0,1,3.986-4.2,4.1,4.1,0,0,1,4.024,4.236v.036Z" style="fill:#231f20"/><path d="M148.608,63.413a3.883,3.883,0,0,0-3.525,2.108,3.51,3.51,0,0,0-3.3-2.108,3.6,3.6,0,0,0-3.257,1.974V63.643h-.939v9.773h.939V67.782a3.3,3.3,0,0,1,3.124-3.506c1.744,0,2.855,1.245,2.855,3.277v5.864h.939V67.726a3.149,3.149,0,0,1,3.085-3.449c1.8,0,2.894,1.226,2.894,3.334v5.8h.939V67.5C152.364,65.043,150.927,63.413,148.608,63.413Z" style="fill:#231f20"/><path d="M158.984,63.415a4.818,4.818,0,0,0-4.638,5.1v.036a4.859,4.859,0,0,0,4.791,5.1,5.138,5.138,0,0,0,4.043-1.839l-.651-.574a4.387,4.387,0,0,1-3.353,1.533,3.876,3.876,0,0,1-3.833-3.853h8.106a2.452,2.452,0,0,0,.019-.383C163.468,65.638,161.724,63.415,158.984,63.415Zm-3.641,4.655a3.807,3.807,0,0,1,3.6-3.794c2.243,0,3.373,1.82,3.507,3.794Z" style="fill:#231f20"/><rect x="170.359" y="59.427" width="0.939" height="13.989" style="fill:#231f20"/><path d="M178.573,63.415h-.059a5.05,5.05,0,0,0-4.983,5.117v.124h0a5,5,0,0,0,5,4.992h.06a5.049,5.049,0,0,0,4.982-5.116v-.125A5,5,0,0,0,178.573,63.415Zm3.984,5.153h0a4.034,4.034,0,0,1-3.985,4.2,4.1,4.1,0,0,1-4.024-4.235v-.039a4.033,4.033,0,0,1,3.986-4.2,4.1,4.1,0,0,1,4.024,4.236Z" style="fill:#231f20"/><path d="M189.4,63.49a7.854,7.854,0,0,0-3.467.842l.345.823a6.55,6.55,0,0,1,3.065-.785c2.013,0,3.22,1.016,3.22,2.989v.421a11.8,11.8,0,0,0-3.238-.421c-2.529,0-4.273,1.15-4.273,3.181v.041c0,2.031,1.954,3.065,3.774,3.065a4.444,4.444,0,0,0,3.736-1.859v1.63h.92V67.323a3.709,3.709,0,0,0-1-2.76A4.219,4.219,0,0,0,189.4,63.49Zm3.183,6.267c0,1.782-1.706,3.009-3.7,3.009-1.5,0-2.837-.825-2.837-2.243v-.038c0-1.36,1.15-2.28,3.22-2.28a12.931,12.931,0,0,1,3.315.441Z" style="fill:#231f20"/><path d="M200.527,63.414A3.824,3.824,0,0,0,197,65.464V63.643h-.939v9.774H197V67.764c0-.061,0-.121,0-.182a3.35,3.35,0,0,1,3.394-3.3c1.974,0,3.105,1.322,3.105,3.334v5.806h.939V67.439A3.722,3.722,0,0,0,200.527,63.414Z" style="fill:#231f20"/><path d="M210.33,67.975c-1.4-.4-2.721-.8-2.721-1.9v-.038c0-.977.881-1.7,2.223-1.7a5.611,5.611,0,0,1,3.008.977l.5-.786a6.6,6.6,0,0,0-3.468-1.073c-1.9,0-3.22,1.131-3.22,2.7v.039c0,1.743,1.763,2.222,3.354,2.682,1.361.384,2.587.805,2.587,1.955v.038c0,1.13-1.035,1.859-2.357,1.859a5.737,5.737,0,0,1-3.507-1.284l-.555.747a6.69,6.69,0,0,0,4,1.418c1.878,0,3.372-1.111,3.372-2.855v-.038C213.549,68.99,211.9,68.415,210.33,67.975Z" style="fill:#231f20"/></svg>