<svg xmlns="http://www.w3.org/2000/svg" viewBox="0 0 280 100"><title>Citibank</title><path d="M60.147,49.061a10.485,10.485,0,0,1,7.474,3.489l.138.138,3.573-4.321-.1-.117a13.637,13.637,0,0,0-10.917-5.219,16.576,16.576,0,0,0-11.313,4.143A15.512,15.512,0,0,0,44.2,58.97a15.511,15.511,0,0,0,4.809,11.8,16.506,16.506,0,0,0,11.313,4.153A13.63,13.63,0,0,0,71.236,69.7l.1-.11-3.573-4.319-.138.134a10.5,10.5,0,0,1-7.474,3.478c-5.554,0-9.586-4.166-9.586-9.915S54.593,49.061,60.147,49.061Z" style="fill:#003b70"/><rect x="74.944" y="43.531" width="6.31" height="30.804" style="fill:#003b70"/><path d="M105.968,67.637a9.135,9.135,0,0,1-4.656,1.54c-2.039,0-2.961-1.075-2.961-3.473V49.36h6.427v-5.8H98.351V33.974l-6.185,3.31v6.275H86.831v5.8h5.335V66.747c0,4.737,2.806,7.974,7,8.058a9.945,9.945,0,0,0,5.6-1.411l.061-.045,1.516-5.939-.373.227Z" style="fill:#003b70"/><rect x="111.194" y="43.531" width="6.315" height="30.804" style="fill:#003b70"/><path d="M196.743,43.067a9.549,9.549,0,0,0-8.174,4.309l-.732,1.1V43.727h-3.6V74.335h3.6V56.37c0-6.39,3-10.209,8.017-10.209,5.245,0,7.665,3.236,7.665,10.209V74.335h3.611V55.593C207.132,47.4,203.533,43.067,196.743,43.067Z" style="fill:#003b70"/><path d="M139.136,43.07c-3.376,0-6.31,1.424-8.964,4.354l-.7.763V31.811c-.846.478-3.289,1.876-3.595,2.056V74.34h3.595V70.133l.7.815A10.5,10.5,0,0,0,138.546,75c6.82,0,11.222-6.469,11.222-16.479C149.768,48.7,145.891,43.07,139.136,43.07Zm-.929,28.838A10.386,10.386,0,0,1,129.539,67l-.064-.1V50.964l.085-.113h0c2.46-3.113,5.309-4.69,8.466-4.69,5.209,0,8.2,4.524,8.2,12.422C146.223,67.424,143.527,71.908,138.207,71.908Z" style="fill:#003b70"/><path d="M226.234,54.407s6.945-9.555,7.783-10.68H230.08c-1.131,1.63-9.963,14.421-9.963,14.408l-1.965,3.06V31.811c-.848.478-3.287,1.876-3.6,2.056V74.335h3.6V65.57l5.8-8.13s7.772,16.456,7.985,16.895H235.8C235.281,73.261,226.234,54.407,226.234,54.407Z" style="fill:#003b70"/><path d="M166.431,43.067h0a21.326,21.326,0,0,0-9.8,2.3c.232.525,1.064,2.365,1.3,2.909a16.17,16.17,0,0,1,8.2-2.244c4.7,0,7.081,2.467,7.081,7.339v4.393l-.593-.328a15.809,15.809,0,0,0-7.48-1.748c-5.507,0-11.387,2.53-11.387,9.651,0,8.713,6.605,9.652,9.444,9.652a12.079,12.079,0,0,0,9.315-4.354l.7-.772v4.466h3.6v-21.5C176.815,46.263,173.422,43.067,166.431,43.067Zm6.777,24.084-.065.108a11.12,11.12,0,0,1-9.182,4.882c-4.307,0-6.678-2.522-6.678-7.1,0-4.108,2.852-6.558,7.616-6.558a15.231,15.231,0,0,1,8.114,1.839l.195.115Z" style="fill:#003b70"/><path d="M121.292,38.065a30.691,30.691,0,0,0-50.246,0l-.3.421h7.27l.08-.087a24.792,24.792,0,0,1,35.045-1.084h0q.558.523,1.083,1.083l.081.087h7.271Z" style="fill:#d9261c;fill-rule:evenodd"/></svg>