<svg xmlns="http://www.w3.org/2000/svg" viewBox="0 0 300 81.234"><title>Citibank</title><path d="M38.4,64.215l-.213.207c-3.447,3.511-7.436,5.372-11.547,5.372-8.58,0-14.808-6.436-14.808-15.318,0-8.865,6.228-15.311,14.808-15.311,4.111,0,8.1,1.869,11.547,5.39l.213.213L43.919,38.1l-.148-.181c-4.589-5.423-10.095-8.062-16.864-8.062A25.6,25.6,0,0,0,9.429,36.26C4.567,40.725,2,47.021,2,54.476S4.567,68.24,9.429,72.705A25.512,25.512,0,0,0,26.907,79.12c6.769,0,12.275-2.638,16.864-8.063l.148-.169Z" style="fill:#003b70"/><path d="M49.5,78.212h9.748V30.625H49.5V78.212Z" style="fill:#003b70"/><path d="M97.427,67.865a14.13,14.13,0,0,1-7.194,2.379c-3.15,0-4.573-1.662-4.573-5.365V39.629h9.928V30.668H85.66V15.861l-9.555,5.113v9.694H67.863v8.961h8.242V66.49c0,7.318,4.335,12.318,10.806,12.448a15.367,15.367,0,0,0,8.652-2.18l.094-.07L98,67.513l-.577.352Z" style="fill:#003b70"/><path d="M105.5,78.212h9.755V30.625H105.5V78.212Z" style="fill:#003b70"/><path d="M270.731,12.518V57.912l3.037-4.727c0,.021,13.643-19.739,15.391-22.258h6.082c-1.295,1.739-12.024,16.5-12.024,16.5S297.193,76.553,298,78.212h-5.972c-.328-.679-12.334-26.1-12.334-26.1l-8.963,12.559V78.212h-5.564V15.7c.487-.279,4.254-2.439,5.564-3.177Zm-45.7,24.046a14.752,14.752,0,0,1,12.627-6.656c10.49,0,16.049,6.691,16.049,19.351V78.212h-5.577V50.458c0-10.771-3.74-15.771-11.842-15.771-7.755,0-12.385,5.9-12.385,15.771V78.212h-5.562V30.927H223.9V38.26Zm-34.2-6.656c10.8,0,16.042,4.937,16.042,15.094v33.21h-5.564v-6.9l-1.083,1.193c-4.095,4.518-8.795,6.727-14.391,6.727-4.386,0-14.589-1.451-14.589-14.912,0-11,9.083-14.909,17.591-14.909a24.426,24.426,0,0,1,11.556,2.7l.916.508V45.832c0-7.526-3.676-11.338-10.94-11.338A24.987,24.987,0,0,0,177.7,37.961c-.366-.84-1.651-3.683-2.009-4.494a32.949,32.949,0,0,1,15.138-3.559ZM176.7,63.858c0,7.069,3.662,10.964,10.316,10.964A17.177,17.177,0,0,0,201.2,67.281l.1-.167V56.747L201,56.568c-3.552-2.025-7.189-2.841-12.535-2.841C181.105,53.727,176.7,57.513,176.7,63.858ZM133.74,12.518v25.3l1.077-1.179c4.1-4.526,8.633-6.726,13.848-6.726,10.435,0,16.425,8.7,16.425,23.868,0,15.465-6.8,25.458-17.336,25.458-5.132,0-9.241-1.991-12.932-6.259l-1.082-1.26v6.5h-5.553V15.7c.473-.279,4.247-2.439,5.553-3.177Zm.132,29.415-.132.175V66.722l.1.151a16.042,16.042,0,0,0,13.39,7.589c8.219,0,12.384-6.927,12.384-20.585,0-12.2-4.615-19.19-12.662-19.19-4.877,0-9.278,2.437-13.079,7.246" style="fill:#003b70"/><path d="M121.1,22.181a47.411,47.411,0,0,0-77.623,0l-.457.65H54.251l.124-.135a38.3,38.3,0,0,1,55.812,0l.125.135h11.232Z" style="fill:#d9261c;fill-rule:evenodd"/></svg>