<svg xmlns="http://www.w3.org/2000/svg" viewBox="0 0 582 253"><title>Click Loans</title><path d="M558.79,214.033a15.119,15.119,0,0,1-15.118,15.119H273.88a15.118,15.118,0,0,1-15.118-15.117V41.125A15.119,15.119,0,0,1,273.88,26.007H543.672A15.119,15.119,0,0,1,558.79,41.125Z" style="fill:#298fcc;fill-rule:evenodd"/><path d="M208.741,135.587h.238c1.314-2.387,2.75-4.784,4.185-7.052L225,110.96h21.879l-20.919,23.67,23.905,34.793H227.508L213.4,145.4l-4.662,5.736v18.292H190.566V84.542h18.175Zm-22.262,32.4c-3.229,1.441-9.326,2.635-16.262,2.635-18.889,0-30.959-11.477-30.959-29.89,0-17.091,11.713-31.082,33.47-31.082a42.258,42.258,0,0,1,13.867,2.268l-2.867,13.514a24.835,24.835,0,0,0-10.163-1.791c-9.563,0-15.778,6.813-15.661,16.378,0,10.755,7.174,16.375,16.022,16.375a27.983,27.983,0,0,0,10.4-1.8Zm-70.666,1.441V110.96h18.175v58.463ZM134.584,94.7c0,5.022-3.825,9.085-9.8,9.085-5.743,0-9.568-4.063-9.446-9.085-.122-5.258,3.7-9.2,9.564-9.2S134.463,89.443,134.584,94.7ZM88.9,84.542h18.176v84.881H88.9Zm-5.05,82.608c-3.349,1.67-10.883,3.467-20.685,3.467-27.855,0-42.2-17.332-42.2-40.291,0-27.495,19.606-42.795,43.993-42.795,9.444,0,16.617,1.912,19.845,3.587l-3.7,14.464a39.312,39.312,0,0,0-15.3-2.987c-14.467,0-25.7,8.726-25.7,26.656,0,16.144,9.564,26.3,25.82,26.3A45.531,45.531,0,0,0,81.1,152.922Z" style="fill:#384778;fill-rule:evenodd"/><path d="M270.626,169.3h50.087V154.034H288.752V88.92H270.626Zm233.1-2.982c4.414,2.386,11.211,4.174,18.844,4.174,16.7,0,25.162-7.989,25.162-18.961-.118-8.467-4.651-14.071-15.742-17.888-7.155-2.385-9.42-3.935-9.42-6.678,0-2.862,2.5-4.651,6.916-4.651a30.979,30.979,0,0,1,12.641,3.22l3.1-12.4a38.317,38.317,0,0,0-16.338-3.459c-14.43,0-23.733,8.228-23.733,19.2-.118,6.8,4.533,13.358,16.7,17.412,6.678,2.147,8.467,3.7,8.467,6.678s-2.266,4.771-7.751,4.771a35.409,35.409,0,0,1-15.622-4.294ZM445.051,169.3h18.127V135.669a13.049,13.049,0,0,1,.6-4.532c1.311-3.339,4.292-6.8,9.3-6.8,6.558,0,9.182,5.128,9.182,12.641V169.3h18.127V134.834c0-17.173-8.944-25.163-20.869-25.163a20.94,20.94,0,0,0-18.008,9.422h-.359l-.834-8.111H444.574c.239,5.248.477,11.33.477,18.6Zm-5.859-34.464c0-13.715-6.082-25.163-25.52-25.163-10.615,0-18.6,2.982-22.659,5.247l3.339,11.568a34.109,34.109,0,0,1,16.1-4.293c8.945,0,10.614,4.411,10.614,7.513v.715c-20.631,0-34.225,7.156-34.225,22.3,0,9.3,7.035,17.888,18.842,17.888,6.917,0,12.879-2.5,16.7-7.155h.357l1.074,5.843h16.337c-.715-3.219-.954-8.585-.954-14.072Zm-17.531,13.237a13.015,13.015,0,0,1-.357,3.1,10.019,10.019,0,0,1-9.422,6.679c-4.054,0-7.154-2.265-7.154-6.917,0-6.916,7.394-9.182,16.933-9.182ZM353.055,170.61c15.5,0,30.649-9.779,30.649-31.007,0-17.65-11.926-29.932-29.695-29.932-18.842,0-31.245,12.045-31.245,30.887s13.119,30.052,30.172,30.052Zm.238-13c-7.632,0-11.806-7.512-11.806-17.411,0-8.7,3.34-17.53,11.926-17.53,8.228,0,11.567,8.825,11.567,17.411,0,10.5-4.411,17.53-11.567,17.53Z" style="fill:#fff;fill-rule:evenodd"/></svg>