<svg xmlns="http://www.w3.org/2000/svg" viewBox="0 0 280 100"><title>Click Loans</title><path d="M219.425,75.535A4.465,4.465,0,0,1,214.96,80H135.275a4.464,4.464,0,0,1-4.464-4.465V24.465A4.465,4.465,0,0,1,135.275,20H214.96a4.466,4.466,0,0,1,4.465,4.465Z" style="fill:#298fcc;fill-rule:evenodd"/><path d="M116.036,52.365h.07c.388-.705.812-1.413,1.236-2.083l3.5-5.191H127.3l-6.177,6.991,7.059,10.277h-6.6l-4.167-7.1-1.377,1.7v5.4h-5.367V37.289h5.368Zm-6.575,9.57a13.069,13.069,0,0,1-4.8.778c-5.579,0-9.144-3.39-9.144-8.828,0-5.048,3.459-9.181,9.885-9.181a12.512,12.512,0,0,1,4.1.67l-.847,3.992a7.323,7.323,0,0,0-3-.529,4.468,4.468,0,0,0-4.625,4.837,4.493,4.493,0,0,0,4.732,4.837,8.282,8.282,0,0,0,3.072-.532Zm-20.872.425V45.091h5.368V62.359Zm5.544-22.071a2.694,2.694,0,0,1-2.894,2.683,2.7,2.7,0,1,1,.035-5.4A2.688,2.688,0,0,1,94.133,40.289Zm-13.493-3h5.369v25.07H80.64Zm-1.491,24.4a15.361,15.361,0,0,1-6.11,1.024c-8.227,0-12.464-5.119-12.464-11.9,0-8.122,5.791-12.64,12.994-12.64a14.017,14.017,0,0,1,5.861,1.06L78.337,43.5a11.6,11.6,0,0,0-4.519-.882c-4.273,0-7.59,2.577-7.59,7.873,0,4.768,2.824,7.768,7.626,7.768a13.45,13.45,0,0,0,4.482-.777Z" style="fill:#384778;fill-rule:evenodd"/><path d="M134.314,62.322h14.793V57.813h-9.439V38.582h-5.354Zm68.847-.88a12.18,12.18,0,0,0,5.566,1.232c4.932,0,7.432-2.359,7.432-5.6-.035-2.5-1.374-4.156-4.65-5.283-2.113-.7-2.782-1.162-2.782-1.972,0-.846.738-1.374,2.043-1.374a9.131,9.131,0,0,1,3.733.951l.916-3.663a11.313,11.313,0,0,0-4.826-1.021c-4.262,0-7.009,2.43-7.009,5.671-.035,2.008,1.339,3.945,4.932,5.142,1.972.634,2.5,1.093,2.5,1.973s-.669,1.409-2.289,1.409a10.47,10.47,0,0,1-4.614-1.268Zm-17.33.88h5.354V52.389a3.863,3.863,0,0,1,.177-1.338,2.942,2.942,0,0,1,2.747-2.009c1.937,0,2.712,1.515,2.712,3.734v9.546h5.354V52.143c0-5.072-2.642-7.432-6.164-7.432a6.183,6.183,0,0,0-5.318,2.782h-.106l-.247-2.4h-4.65c.071,1.55.141,3.346.141,5.493ZM184.1,52.143c0-4.051-1.8-7.432-7.538-7.432a14.149,14.149,0,0,0-6.692,1.55l.986,3.417a10.067,10.067,0,0,1,4.755-1.268c2.642,0,3.135,1.3,3.135,2.219v.211c-6.093,0-10.108,2.113-10.108,6.586A5.28,5.28,0,0,0,174.2,62.71a6.2,6.2,0,0,0,4.932-2.114h.106l.317,1.726h4.825a22.347,22.347,0,0,1-.282-4.156Zm-5.177,3.91a3.807,3.807,0,0,1-.105.915,2.96,2.96,0,0,1-2.783,1.973,1.923,1.923,0,0,1-2.113-2.043c0-2.043,2.184-2.712,5-2.712ZM158.66,62.708c4.578,0,9.052-2.888,9.052-9.158,0-5.213-3.522-8.84-8.77-8.84-5.566,0-9.229,3.557-9.229,9.122s3.875,8.876,8.912,8.876Zm.07-3.839c-2.254,0-3.487-2.219-3.487-5.143,0-2.569.987-5.177,3.523-5.177,2.43,0,3.416,2.606,3.416,5.142,0,3.1-1.3,5.178-3.416,5.178Z" style="fill:#fff;fill-rule:evenodd"/></svg>