<svg xmlns="http://www.w3.org/2000/svg" viewBox="0 0 300 49.675"><title>Commonwealth Bank</title><path d="M16.615,27.576c-1.173,2.351-3.644,4.113-7.339,4.113C3.524,31.688,0,27.871,0,22.486c0-5.018,2.94-9.3,8.886-9.3,5.823,0,8.44,3.5,8.563,6.975H11.478c-.49-1.835-1.64-2.2-2.448-2.2-1.051,0-2.839.734-2.839,4.429s1.788,4.429,2.839,4.429a2.449,2.449,0,0,0,2.131-1.3,3.4,3.4,0,0,0,.465-1.222h5.823a7.524,7.524,0,0,1-.834,3.277"/><path d="M25.354,21.752c-1.52,0-1.666,2.1-1.666,3.207s.173,3.18,1.666,3.18,1.664-2.1,1.664-3.18c0-1.1-.17-3.207-1.664-3.207m-.075,9.936c-4.355,0-7.217-2.62-7.217-6.9,0-4.329,3.032-6.8,7.217-6.8,4.209,0,7.341,2.546,7.341,6.9,0,4.381-3.157,6.8-7.341,6.8"/><path d="M65.633,31.125V24.2c0-1.2-.392-1.688-1.247-1.688s-1.42.784-1.42,1.787v6.827H57.509v-6.9c0-1.2-.393-1.665-1.248-1.665-.88,0-1.444.758-1.444,1.762v6.8h-5.36v-6.9c0-1.2-.392-1.665-1.247-1.665-.882,0-1.444.758-1.444,1.762v6.8H41.408v-6.9c0-1.2-.392-1.665-1.247-1.665-.884,0-1.445.758-1.445,1.762v6.8H33.359V18.72h4.868l.123,1.1a4.926,4.926,0,0,1,3.891-1.737,4.8,4.8,0,0,1,4.036,1.909,5.071,5.071,0,0,1,4.089-1.884,4.78,4.78,0,0,1,4.013,1.958A5,5,0,0,1,58.3,18.108,4.673,4.673,0,0,1,62.4,20.066,4.744,4.744,0,0,1,66.3,18.108c3.818,0,4.72,2.469,4.72,5.237v7.781H65.633"/><path d="M79.043,21.752c-1.515,0-1.664,2.1-1.664,3.207s.171,3.18,1.664,3.18,1.664-2.1,1.664-3.18c0-1.1-.171-3.207-1.664-3.207m-.073,9.936c-4.356,0-7.218-2.62-7.218-6.9,0-4.329,3.034-6.8,7.218-6.8,4.21,0,7.341,2.546,7.341,6.9,0,4.381-3.158,6.8-7.341,6.8"/><path d="M95.216,31.1V24.225c0-1.2-.51-1.665-1.368-1.665-.881,0-1.443.758-1.443,1.762V31.1H87.046V18.72h4.942l.05,1.247a4.988,4.988,0,0,1,3.892-1.884c1.783,0,4.722,1.026,4.722,4.209V31.1H95.216"/><path d="M118.712,31.1l-5.6-.022s-.736-2.18-1.03-3.551a13.068,13.068,0,0,1-.538-2.373,11.742,11.742,0,0,1-.488,2.373c-.269,1.274-1.029,3.573-1.029,3.573h-5.65l-3.722-12.38h5.824s.661,2.127.907,3.325a14.961,14.961,0,0,1,.439,2.18,13.789,13.789,0,0,1,.464-2.18c.269-1.269.93-3.325.93-3.325h4.895s.661,2.056.931,3.325a12.114,12.114,0,0,1,.465,2.18,12.866,12.866,0,0,1,.465-2.18c.244-1.173.905-3.325.905-3.325h5.556l-3.72,12.38"/><path d="M129.283,21.142a1.91,1.91,0,0,0-1.86,1.882h3.646a1.936,1.936,0,0,0-1.786-1.882m-1.933,4.623c.023,1.249.562,2.327,2,2.327a1.836,1.836,0,0,0,1.787-1.1h5.137a4.783,4.783,0,0,1-.659,1.588,7.782,7.782,0,0,1-6.484,3.083c-4.575,0-7.317-2.716-7.44-6.607-.1-3.451,1.91-7.071,7.049-7.071,4.75,0,7.637,2.913,7.637,7.78Z"/><path d="M145.285,25.618s-.709.222-1.368.418c-.419.122-1.469.318-1.469,1.149a.955.955,0,0,0,1.076.907c1.4-.05,1.761-.856,1.761-2.081v-.393m.688,5.482-.149-1.1a6.663,6.663,0,0,1-4.209,1.665c-.9,0-2.959-.17-4.037-1.614a4.14,4.14,0,0,1-.2-4.307c1.028-1.64,3.4-2.253,5.752-2.546.856-.1,2.056-.367,2.056-1.125a1.015,1.015,0,0,0-1.1-1.1,1.5,1.5,0,0,0-1.471,1.493H137.53l.024-.147c.536-2.959,2.692-4.454,6.363-4.454,6.189,0,6.924,2.154,6.948,5.872l.048,3.476a13.306,13.306,0,0,0,.393,3.891Z"/><rect x="152.286" y="13.628" width="5.357" height="17.472"/><path d="M164.494,31.516c-3.548,0-4.5-1.712-4.5-5.018V22.144h-1.641V18.72h1.641V13.629h5.359V18.72h2.1v3.425h-2.1V25.52c0,1.2.389,1.958,1.592,1.958a3.617,3.617,0,0,0,.682-.073c.123-.022.123-.047.123-.047v3.5a7.8,7.8,0,0,1-3.255.66"/><path d="M182.312,31.1h-5.361V24.25c0-1.2-.538-1.689-1.395-1.689s-1.419.784-1.419,1.787V31.1h-5.58V13.628h5.19v6.338a5.307,5.307,0,0,1,3.866-1.884c1.811,0,4.7,1.026,4.7,4.209V31.1"/><path d="M192.243,22.741c1.662,0,4.445.44,4.445,3.383,0,3.156-2.783,3.626-4.445,3.626h-5.381V22.741h5.381m-.19-7.715c1.443,0,3.864.41,3.864,3.165,0,2.026-1.3,3.141-3.674,3.141h-5.381V15.026Zm-6.585-1.385h-.138V31.136h6.913c3.741,0,5.979-1.865,5.979-4.985a4.3,4.3,0,0,0-3.349-4.291,3.686,3.686,0,0,0,2.575-3.715c0-2.819-2.017-4.5-5.4-4.5Z"/><path d="M207.3,24.471v1.823a3.92,3.92,0,0,1-4.106,3.842,2.457,2.457,0,0,1-2.731-2.37c0-1.854,1.414-2.236,2.911-2.64a27.028,27.028,0,0,1,3.926-.655m2.855,5.363-.17.015-.544.046c-.305,0-.707-.118-.707-1.14v-6.8c0-2.379-1.516-3.635-4.382-3.635-2.805,0-4.487,1.392-4.744,3.912l-.017.15h1.46l.013-.122a3.1,3.1,0,0,1,.575-1.546,3.131,3.131,0,0,1,2.639-1.1c2.805,0,3.021,1.76,3.021,2.3v.359c0,.79-.5,1.008-1.251,1.1a16.228,16.228,0,0,0-5.335,1.417,3.265,3.265,0,0,0-1.26,1.211,4.208,4.208,0,0,0-.077,3.522c.571,1.249,1.9,1.938,3.745,1.938a4.622,4.622,0,0,0,4.226-2.324v.183c.033,1.263.639,1.874,1.852,1.874l.977-.171-.021-.111V29.834Z"/><path d="M216.411,18.317a4.354,4.354,0,0,0-3.892,2.308V18.658h-1.433V31.136h1.433V24.173c0-2.731,1.545-4.565,3.842-4.565,2.031,0,3.023,1.209,3.023,3.7v7.831h1.433V23.305c0-1.234,0-4.988-4.406-4.988"/><path d="M227.2,23.348l4.915-4.689h-1.943L223.9,24.647V13.641h-1.435V31.136H223.9V26.427c.081-.073,2.017-1.834,2.227-2.021.172.25,4.605,6.73,4.605,6.73h1.754s-5.16-7.6-5.287-7.788"/><polygon points="293.821 18.662 275.162 0 250.324 24.837 275.162 49.675 286.063 26.421 293.821 18.662" style="fill:#ffc425"/><polygon points="293.821 18.662 286.063 26.421 275.162 49.675 300 24.837 293.821 18.662"/></svg>
