<svg xmlns="http://www.w3.org/2000/svg" viewBox="0 0 280 100"><title>Commonwealth Bank</title><polygon points="255.81 45.027 240.785 30 220.784 50 240.785 70 249.563 51.275 255.81 45.027" style="fill:#ffc425"/><path d="M26.486,44.463c.651,0,1.577.294,1.971,1.771h4.808c-.1-2.8-2.206-5.616-6.895-5.616-4.788,0-7.155,3.448-7.155,7.488,0,4.337,2.838,7.41,7.469,7.411a6.239,6.239,0,0,0,5.91-3.312v0a6.047,6.047,0,0,0,.671-2.638H28.577a2.748,2.748,0,0,1-.375.984A1.974,1.974,0,0,1,26.486,51.6c-.846,0-2.286-.591-2.286-3.567S25.64,44.463,26.486,44.463Z"/><path d="M39.57,44.485c-3.369,0-5.811,1.989-5.811,5.475,0,3.446,2.3,5.556,5.811,5.556,3.37,0,5.912-1.948,5.912-5.475C45.482,46.535,42.96,44.485,39.57,44.485Zm.061,8.173c-1.2,0-1.342-1.669-1.342-2.56s.118-2.583,1.342-2.583c1.2,0,1.34,1.7,1.34,2.583C40.971,50.968,40.833,52.658,39.631,52.658Z"/><path d="M72.6,44.581a3.819,3.819,0,0,0-3.141,1.577,3.762,3.762,0,0,0-3.3-1.577A4.024,4.024,0,0,0,63,46.158a3.851,3.851,0,0,0-3.232-1.577A4.081,4.081,0,0,0,56.479,46.1a3.868,3.868,0,0,0-3.25-1.537,3.963,3.963,0,0,0-3.133,1.4l-.1-.886h-3.92v9.982H50.39V49.581c0-.809.452-1.419,1.164-1.419.688,0,1,.374,1,1.341v5.556h4.314V49.583c0-.808.453-1.419,1.163-1.419.689,0,1,.375,1,1.341v5.556h4.316V49.586c0-.809.455-1.419,1.163-1.419.689,0,1,.374,1,1.341v5.556h4.394v-5.5c0-.807.455-1.439,1.144-1.439s1,.393,1,1.36v5.576H76.4V48.8C76.4,46.569,75.676,44.581,72.6,44.581Z"/><path d="M82.8,44.485c-3.369,0-5.812,1.989-5.812,5.475,0,3.446,2.3,5.556,5.812,5.556,3.369,0,5.911-1.948,5.911-5.475C88.715,46.535,86.194,44.485,82.8,44.485Zm.059,8.173c-1.2,0-1.34-1.669-1.34-2.56s.12-2.583,1.34-2.583c1.2,0,1.34,1.7,1.34,2.583C84.2,50.968,84.065,52.658,82.863,52.658Z"/><path d="M96.461,44.561a4.016,4.016,0,0,0-3.134,1.517l-.04-1h-3.98v9.969h4.316V49.585c0-.809.452-1.419,1.161-1.419.691,0,1.1.375,1.1,1.341v5.536h4.377V47.95C100.263,45.387,97.9,44.561,96.461,44.561Z"/><path d="M113.331,45.074s-.533,1.733-.729,2.677a10.437,10.437,0,0,0-.375,1.756,9.666,9.666,0,0,0-.374-1.756c-.217-1.022-.75-2.677-.75-2.677h-3.941s-.533,1.655-.749,2.677a11.086,11.086,0,0,0-.374,1.756,12.08,12.08,0,0,0-.353-1.756c-.2-.964-.731-2.677-.731-2.677h-4.689l3,9.969h4.549s.612-1.851.829-2.877a9.511,9.511,0,0,0,.393-1.911,10.6,10.6,0,0,0,.433,1.911c.237,1.1.83,2.859.83,2.859l4.509.018h0l3-9.969Z"/><path d="M122.881,44.482c-4.138,0-5.757,2.915-5.676,5.694.1,3.133,2.307,5.32,5.991,5.32a6.267,6.267,0,0,0,5.221-2.482,3.862,3.862,0,0,0,.53-1.279h-4.136a1.479,1.479,0,0,1-1.439.886c-1.158,0-1.592-.868-1.611-1.874h7.269C129.03,46.828,126.706,44.482,122.881,44.482ZM121.82,48.54a1.539,1.539,0,0,1,1.5-1.516,1.559,1.559,0,0,1,1.438,1.516Z"/><path d="M140.735,51.913l-.038-2.8c-.02-2.994-.612-4.729-5.595-4.729-2.956,0-4.692,1.2-5.124,3.587l-.019.118h4.094a1.209,1.209,0,0,1,1.185-1.2.854.854,0,0,1,.143,0,.818.818,0,0,1,.743.886c0,.61-.967.825-1.656.906-1.894.236-3.8.729-4.632,2.05A3.333,3.333,0,0,0,130,54.2a4.12,4.12,0,0,0,3.251,1.3,5.362,5.362,0,0,0,3.389-1.341l.12.886,4.295,0A10.7,10.7,0,0,1,140.735,51.913Zm-4.532-.968c0,.986-.29,1.635-1.418,1.676l-.065,0a.768.768,0,0,1-.8-.736c0-.669.845-.827,1.183-.925.53-.158,1.1-.337,1.1-.337Z"/><rect x="141.841" y="40.974" width="4.314" height="14.069"/><path d="M153.645,52.126c-.969,0-1.282-.61-1.282-1.576V47.832h1.691V45.074h-1.691v-4.1h-4.316v4.1h-1.321v2.757h1.321v3.506c0,2.662.767,4.041,3.624,4.041h0a6.283,6.283,0,0,0,2.621-.531V52.03s0,.02-.1.037A2.9,2.9,0,0,1,153.645,52.126Z"/><path d="M162.235,44.56a4.276,4.276,0,0,0-3.113,1.517v-5.1h-4.179V55.043h4.493V49.606c0-.808.452-1.439,1.143-1.439s1.123.394,1.123,1.36v5.516h4.318V47.949C166.02,45.386,163.693,44.56,162.235,44.56Z"/><path d="M176.133,47.6a2.968,2.968,0,0,0,2.074-2.991c0-2.27-1.624-3.624-4.349-3.624l-5.3,0h-.111V55.072h5.567c3.012,0,4.814-1.5,4.814-4.014A3.463,3.463,0,0,0,176.133,47.6Zm-6.45-5.5h4.179c1.162,0,3.112.331,3.112,2.549,0,1.631-1.047,2.529-2.958,2.529h-4.333Zm4.333,11.857h-4.333V48.312h4.333c1.338,0,3.579.354,3.579,2.724C177.6,53.577,175.354,53.956,174.016,53.956Z"/><path d="M188.439,54.023l-.137.012-.438.038c-.246,0-.569-.1-.569-.918V47.679c0-1.916-1.221-2.927-3.529-2.927-2.259,0-3.613,1.121-3.82,3.15l-.014.121h1.176l.01-.1a2.293,2.293,0,0,1,2.588-2.131c2.259,0,2.433,1.417,2.433,1.852v.289c0,.636-.4.812-1.007.886a13.055,13.055,0,0,0-4.3,1.141,2.627,2.627,0,0,0-1.015.975,3.39,3.39,0,0,0-.062,2.836,3.049,3.049,0,0,0,3.016,1.56,3.721,3.721,0,0,0,3.4-1.871v.147c.026,1.017.514,1.509,1.491,1.509l.787-.137-.017-.09Zm-2.3-2.85a3.157,3.157,0,0,1-3.215,3.1l-.091,0a1.979,1.979,0,0,1-2.188-1.745c-.006-.054-.01-.109-.011-.164,0-1.493,1.138-1.8,2.344-2.126a21.81,21.81,0,0,1,3.161-.527Z"/><path d="M193.476,44.75a3.507,3.507,0,0,0-3.134,1.858V45.024h-1.153V55.072h1.153V49.465c0-2.2,1.244-3.676,3.094-3.676,1.636,0,2.434.973,2.434,2.979v6.306h1.154V48.766C197.024,47.772,197.024,44.75,193.476,44.75Z"/><path d="M202.164,48.8l3.958-3.776h-1.565l-5.05,4.822V40.984h-1.156V55.072h1.156V51.28c.065-.059,1.624-1.477,1.793-1.627.139.2,3.708,5.419,3.708,5.419h1.413L202.163,48.8Z"/><polygon points="255.81 45.027 249.563 51.275 240.785 70 260.785 50 255.81 45.027"/></svg>