<svg xmlns="http://www.w3.org/2000/svg" viewBox="0 0 356.115 138.849"><title>Connective</title><path d="M320.779,35.957a3.683,3.683,0,1,1-3.683,3.686A3.686,3.686,0,0,1,320.779,35.957Z" style="fill:#222944"/><path d="M311.564,23.088V23.1a7.364,7.364,0,0,1-7.369,7.361h-.009a9.2,9.2,0,0,0,.006,18.4h0a7.37,7.37,0,0,1,7.369,7.364v.006a9.2,9.2,0,0,0,18.4-.006v-.006a7.359,7.359,0,0,1,7.36-7.358,9.2,9.2,0,1,0-9.2-9.206v.007a7.365,7.365,0,0,1-7.362,7.361h-.006a7.358,7.358,0,0,1-7.35-7.361v-.013a7.356,7.356,0,0,1,7.356-7.347,9.2,9.2,0,1,0-9.194-9.21Zm22.11,16.555a3.681,3.681,0,1,1,3.681,3.679A3.68,3.68,0,0,1,333.674,39.643Z" style="fill:#4f91ce"/><path d="M26.182,94.892a12.416,12.416,0,0,1-12.748-12.52V70.163A12.417,12.417,0,0,1,26.182,57.644c7.651,0,10.661,5.334,11.282,6.726A1.742,1.742,0,0,1,37,66.686l-1.856,1.319a1.476,1.476,0,0,1-2.319-.387c-.693-1.085-2.315-4.485-6.643-4.485a6.8,6.8,0,0,0-6.8,7.03V82.372a6.8,6.8,0,0,0,6.8,7.035c4.328,0,5.792-3.169,6.643-4.331.7-1,1.47-1.159,2.319-.618L36.92,85.7a1.619,1.619,0,0,1,.7,2.321A12.124,12.124,0,0,1,26.182,94.892Z" style="fill:#222944"/><path d="M56.339,94.892a12.421,12.421,0,0,1-12.752-12.52V70.163A12.422,12.422,0,0,1,56.339,57.644,12.421,12.421,0,0,1,69.087,70.163V82.372A12.42,12.42,0,0,1,56.339,94.892Zm6.8-24.729a6.805,6.805,0,1,0-13.6,0V82.372a6.805,6.805,0,1,0,13.6,0Z" style="fill:#222944"/><path d="M99.226,94.121H96.671a1.548,1.548,0,0,1-1.7-1.7V70.163a6.8,6.8,0,1,0-13.6,0V92.422a1.545,1.545,0,0,1-1.7,1.7H77.125a1.549,1.549,0,0,1-1.7-1.7V60.12a1.548,1.548,0,0,1,1.7-1.7h2a1.368,1.368,0,0,1,1.239.7.7.7,0,0,0,1.083.31,12.776,12.776,0,0,1,6.72-1.782,12.424,12.424,0,0,1,12.755,12.519V92.422A1.548,1.548,0,0,1,99.226,94.121Z" style="fill:#222944"/><path d="M132.6,94.121h-2.55a1.546,1.546,0,0,1-1.7-1.7V70.163a6.8,6.8,0,1,0-13.6,0V92.422a1.549,1.549,0,0,1-1.7,1.7H110.5a1.546,1.546,0,0,1-1.7-1.7V60.12a1.545,1.545,0,0,1,1.7-1.7h2.01a1.365,1.365,0,0,1,1.236.7.7.7,0,0,0,1.081.31,12.777,12.777,0,0,1,6.724-1.782,12.421,12.421,0,0,1,12.75,12.519V92.422A1.547,1.547,0,0,1,132.6,94.121Z" style="fill:#222944"/><path d="M162.739,78.82h-14.45a1.546,1.546,0,0,0-1.7,1.7v1.853a6.8,6.8,0,0,0,6.8,7.035c4.02,0,6.417-2.782,7.729-4.558a1.612,1.612,0,0,1,2.314-.311l1.7,1.235a1.768,1.768,0,0,1,.388,2.4,13.847,13.847,0,0,1-12.135,6.722,12.417,12.417,0,0,1-12.747-12.52V70.163a12.752,12.752,0,0,1,25.5,0V75.42A3.1,3.1,0,0,1,162.739,78.82Zm-2.548-8.657a6.8,6.8,0,1,0-13.6,0V72.02a1.549,1.549,0,0,0,1.7,1.7h10.205a1.546,1.546,0,0,0,1.7-1.7Z" style="fill:#222944"/><path d="M185.094,94.892a12.421,12.421,0,0,1-12.75-12.52V70.163a12.422,12.422,0,0,1,12.75-12.519c7.649,0,10.663,5.334,11.28,6.726a1.745,1.745,0,0,1-.465,2.316l-1.853,1.319a1.476,1.476,0,0,1-2.318-.387c-.695-1.085-2.32-4.485-6.644-4.485a6.8,6.8,0,0,0-6.8,7.03V82.372a6.8,6.8,0,0,0,6.8,7.035c4.324,0,5.793-3.169,6.644-4.331.7-1,1.469-1.159,2.318-.618l1.776,1.24a1.614,1.614,0,0,1,.695,2.321A12.111,12.111,0,0,1,185.094,94.892Z" style="fill:#222944"/><path d="M218.361,94.892a12.421,12.421,0,0,1-12.754-12.52V65.218a1.547,1.547,0,0,0-1.695-1.7h-1.7a1.543,1.543,0,0,1-1.7-1.7v-1.7a1.544,1.544,0,0,1,1.7-1.7h1.7a1.545,1.545,0,0,0,1.695-1.7v-6.8a1.549,1.549,0,0,1,1.7-1.7h2.549a1.543,1.543,0,0,1,1.7,1.7v6.8a1.551,1.551,0,0,0,1.7,1.7h8.5a1.544,1.544,0,0,1,1.7,1.7v1.7a1.542,1.542,0,0,1-1.7,1.7h-8.5a1.553,1.553,0,0,0-1.7,1.7V82.372a6.807,6.807,0,0,0,6.8,7.035,6.685,6.685,0,0,0,4.711-1.932c1.083-.925,1.854-1,2.863-.309l1.545,1.08a1.6,1.6,0,0,1,.308,2.4A12.007,12.007,0,0,1,218.361,94.892Z" style="fill:#222944"/><path d="M251.293,92.961a13.556,13.556,0,0,1-6.875,1.931,12.422,12.422,0,0,1-12.755-12.52V60.12a1.548,1.548,0,0,1,1.7-1.7h2.551a1.544,1.544,0,0,1,1.7,1.7V82.372a6.8,6.8,0,0,0,6.8,7.035,7.994,7.994,0,0,0,3.553-.929c.928-.459,1.7-.541,2.4.307l1.39,1.78A1.583,1.583,0,0,1,251.293,92.961Z" style="fill:#222944"/><path d="M264.976,91.955c-.462,1.545-1.313,2.937-2.936,2.937s-2.472-1.392-2.934-2.937L249.521,60.2a1.466,1.466,0,0,1,1.622-1.775h2.549a2.273,2.273,0,0,1,2.013,1.7l5.641,19.628c.157.541.311,1,.694,1s.542-.462.694-1l5.647-19.628a2.26,2.26,0,0,1,2.007-1.7h2.547a1.533,1.533,0,0,1,1.623,1.775Z" style="fill:#222944"/><path d="M300.663,78.82h-14.45a1.546,1.546,0,0,0-1.7,1.7v1.853a6.8,6.8,0,0,0,6.8,7.035c4.02,0,6.415-2.782,7.73-4.558a1.613,1.613,0,0,1,2.314-.311l1.7,1.235a1.764,1.764,0,0,1,.388,2.4,13.839,13.839,0,0,1-12.135,6.722,12.415,12.415,0,0,1-12.744-12.52V70.163a12.751,12.751,0,0,1,25.5,0V75.42A3.094,3.094,0,0,1,300.663,78.82Zm-2.553-8.657a6.8,6.8,0,1,0-13.6,0V72.02a1.549,1.549,0,0,0,1.7,1.7h10.2a1.548,1.548,0,0,0,1.7-1.7Z" style="fill:#222944"/><path d="M234.579,37.247a3.675,3.675,0,1,1-3.673,3.675A3.675,3.675,0,0,1,234.579,37.247Z" style="fill:#222944"/><path d="M195.718,124.562v-8.906a5.47,5.47,0,0,0-.1-1.107,2.159,2.159,0,0,0-.377-.872,1.866,1.866,0,0,0-.729-.573,2.725,2.725,0,0,0-1.134-.209,2.649,2.649,0,0,0-1.327.3,2.155,2.155,0,0,0-.82.834,3.788,3.788,0,0,0-.417,1.25,9.624,9.624,0,0,0-.118,1.549v7.735h-2.135v-18.8h2.135V113.1h.1a3.68,3.68,0,0,1,1.458-1.55,4.744,4.744,0,0,1,2.109-.4,3.454,3.454,0,0,1,2.591.925,4.476,4.476,0,0,1,.9,3.164v9.323Z" style="fill:#4f91ce"/><path d="M206.239,124.822a8.228,8.228,0,0,1-1.953-.221,3.224,3.224,0,0,1-1.589-.925,4.855,4.855,0,0,1-1.068-2,12.555,12.555,0,0,1-.391-3.489,24.767,24.767,0,0,1,.144-2.721,6.141,6.141,0,0,1,.651-2.24,3.727,3.727,0,0,1,1.5-1.51,6.816,6.816,0,0,1,5.416,0,3.743,3.743,0,0,1,1.5,1.51,6.2,6.2,0,0,1,.652,2.24,24.781,24.781,0,0,1,.142,2.721,12.48,12.48,0,0,1-.391,3.489,4.854,4.854,0,0,1-1.067,2,3.234,3.234,0,0,1-1.588.925A8.246,8.246,0,0,1,206.239,124.822Zm0-1.744a2.666,2.666,0,0,0,1.366-.314,2.12,2.12,0,0,0,.847-.989,5.741,5.741,0,0,0,.429-1.784A26.206,26.206,0,0,0,209,117.27a10.041,10.041,0,0,0-.2-2.2,3.479,3.479,0,0,0-.559-1.328,1.884,1.884,0,0,0-.873-.664,3.6,3.6,0,0,0-2.265,0,1.882,1.882,0,0,0-.872.664,3.51,3.51,0,0,0-.561,1.328,10.12,10.12,0,0,0-.194,2.2,26.846,26.846,0,0,0,.116,2.721,5.767,5.767,0,0,0,.43,1.784,2.135,2.135,0,0,0,.846.989A2.669,2.669,0,0,0,206.239,123.078Z" style="fill:#4f91ce"/><path d="M221.081,124.562v-9.114a5.745,5.745,0,0,0-.079-.964,2.061,2.061,0,0,0-.312-.821,1.668,1.668,0,0,0-.637-.559A2.306,2.306,0,0,0,219,112.9a2.536,2.536,0,0,0-1.054.26,1.833,1.833,0,0,0-.794.626,3.318,3.318,0,0,0-.391,1.028,4.885,4.885,0,0,0-.1.9v8.854h-2.135V114.145q0-.675-.039-1.367t-.091-1.367h2.265v1.641h.052A2.865,2.865,0,0,1,218,111.567a4.373,4.373,0,0,1,1.992-.417,4.839,4.839,0,0,1,.912.092,3.434,3.434,0,0,1,.885.3,3.092,3.092,0,0,1,.756.534,2.247,2.247,0,0,1,.52.768,2.723,2.723,0,0,1,1.381-1.366,4.748,4.748,0,0,1,1.745-.327,8.106,8.106,0,0,1,1.145.092,2.945,2.945,0,0,1,1.172.442,2.727,2.727,0,0,1,.911,1.03,3.92,3.92,0,0,1,.365,1.848v10h-2.135v-9.114a5.851,5.851,0,0,0-.079-.964,2.107,2.107,0,0,0-.312-.821,1.689,1.689,0,0,0-.639-.559,2.3,2.3,0,0,0-1.054-.209,3.774,3.774,0,0,0-.9.079,2.033,2.033,0,0,0-.715.416,1.533,1.533,0,0,0-.378.522,3.3,3.3,0,0,0-.221.65,4.57,4.57,0,0,0-.1.651c-.019.209-.026.373-.026.5v8.854Z" style="fill:#4f91ce"/><path d="M235.507,118.677a11.18,11.18,0,0,0,.183,2.239,3.713,3.713,0,0,0,.52,1.342,1.67,1.67,0,0,0,.834.65,3.422,3.422,0,0,0,1.12.17,2.11,2.11,0,0,0,.963-.209,2.2,2.2,0,0,0,.7-.546,2.43,2.43,0,0,0,.443-.794,3.561,3.561,0,0,0,.183-.951H242.8a4.006,4.006,0,0,1-1.263,3.229,5.079,5.079,0,0,1-3.321,1.015,8.246,8.246,0,0,1-1.953-.221,3.234,3.234,0,0,1-1.588-.925,4.843,4.843,0,0,1-1.067-2,12.555,12.555,0,0,1-.391-3.489,24.529,24.529,0,0,1,.143-2.721,6.161,6.161,0,0,1,.651-2.24,3.743,3.743,0,0,1,1.5-1.51,5.512,5.512,0,0,1,2.708-.561,5.938,5.938,0,0,1,2.319.391,3.162,3.162,0,0,1,1.432,1.185,5.244,5.244,0,0,1,.729,1.993,16.868,16.868,0,0,1,.209,2.837v1.121Zm5.13-1.615a10.591,10.591,0,0,0-.194-2.279,3.526,3.526,0,0,0-.535-1.3,1.507,1.507,0,0,0-.833-.587,4.216,4.216,0,0,0-1.067-.13,2.879,2.879,0,0,0-.964.156,1.66,1.66,0,0,0-.782.625,3.838,3.838,0,0,0-.546,1.315,9.49,9.49,0,0,0-.209,2.2Z" style="fill:#4f91ce"/><path d="M254.309,124.562h-2.136v-18.8h2.136Z" style="fill:#4f91ce"/><path d="M262.642,124.822a8.228,8.228,0,0,1-1.953-.221,3.224,3.224,0,0,1-1.589-.925,4.855,4.855,0,0,1-1.068-2,12.555,12.555,0,0,1-.391-3.489,24.767,24.767,0,0,1,.144-2.721,6.161,6.161,0,0,1,.65-2.24,3.736,3.736,0,0,1,1.5-1.51,6.816,6.816,0,0,1,5.416,0,3.743,3.743,0,0,1,1.5,1.51,6.18,6.18,0,0,1,.651,2.24,24.529,24.529,0,0,1,.143,2.721,12.48,12.48,0,0,1-.391,3.489,4.854,4.854,0,0,1-1.067,2,3.234,3.234,0,0,1-1.588.925A8.246,8.246,0,0,1,262.642,124.822Zm0-1.744a2.666,2.666,0,0,0,1.366-.314,2.12,2.12,0,0,0,.847-.989,5.741,5.741,0,0,0,.429-1.784,26.206,26.206,0,0,0,.118-2.721,10.041,10.041,0,0,0-.2-2.2,3.479,3.479,0,0,0-.559-1.328,1.884,1.884,0,0,0-.873-.664,3.6,3.6,0,0,0-2.265,0,1.872,1.872,0,0,0-.872.664,3.51,3.51,0,0,0-.561,1.328,10.049,10.049,0,0,0-.2,2.2,26.811,26.811,0,0,0,.117,2.721,5.767,5.767,0,0,0,.43,1.784,2.135,2.135,0,0,0,.846.989A2.669,2.669,0,0,0,262.642,123.078Z" style="fill:#4f91ce"/><path d="M277.8,122.661h-.051a3.608,3.608,0,0,1-1.276,1.654,3.674,3.674,0,0,1-2.031.507,4.052,4.052,0,0,1-1.732-.326,2.81,2.81,0,0,1-1.107-.9,3.553,3.553,0,0,1-.586-1.367,8.294,8.294,0,0,1-.169-1.732,3.469,3.469,0,0,1,2.318-3.567,7.546,7.546,0,0,1,2.238-.469q1.226-.078,2.345-.052.025-.651,0-1.3a3.546,3.546,0,0,0-.235-1.174,1.875,1.875,0,0,0-.663-.845,2.249,2.249,0,0,0-1.316-.326,1.984,1.984,0,0,0-1.628.652,2.216,2.216,0,0,0-.429,1.693h-2.318a3.865,3.865,0,0,1,1.211-3.087,5.22,5.22,0,0,1,3.242-.873,5.948,5.948,0,0,1,2.1.314,3.281,3.281,0,0,1,1.3.846,3.032,3.032,0,0,1,.678,1.249,5.93,5.93,0,0,1,.195,1.551v6.327c0,.52.022,1.047.065,1.576s.108,1.046.2,1.549H277.8Zm-.051-4.636q-.756,0-1.6.026a5.446,5.446,0,0,0-1.551.262,2.538,2.538,0,0,0-1.158.768,2.364,2.364,0,0,0-.456,1.575,2.948,2.948,0,0,0,.5,1.693,1.753,1.753,0,0,0,1.562.729,2.759,2.759,0,0,0,1-.2,2.075,2.075,0,0,0,.912-.742,4.279,4.279,0,0,0,.638-1.536A9.565,9.565,0,0,0,277.746,118.025Z" style="fill:#4f91ce"/><path d="M291.183,124.562v-9.114a4.574,4.574,0,0,0-.105-.99,2.16,2.16,0,0,0-.364-.821,1.708,1.708,0,0,0-.716-.546,2.89,2.89,0,0,0-1.134-.2,2.478,2.478,0,0,0-1.4.352,2.4,2.4,0,0,0-.808.912,3.777,3.777,0,0,0-.377,1.25,10.2,10.2,0,0,0-.092,1.366v7.787h-2.136V114.145q0-.675-.039-1.367t-.09-1.367h2.265V113.1h.1a3.642,3.642,0,0,1,1.431-1.537,4.554,4.554,0,0,1,2.084-.417,4.363,4.363,0,0,1,1.732.3,2.443,2.443,0,0,1,1.08.871,3.684,3.684,0,0,1,.548,1.368,9.23,9.23,0,0,1,.155,1.758v9.114Z" style="fill:#4f91ce"/><path d="M305.531,120.811a4.356,4.356,0,0,1-.351,1.85,3.345,3.345,0,0,1-.963,1.237,3.941,3.941,0,0,1-1.459.7,7.117,7.117,0,0,1-1.809.221,5.149,5.149,0,0,1-3.36-1,3.864,3.864,0,0,1-1.172-3.268h2.422c0,.19.013.429.039.715a2.268,2.268,0,0,0,.247.834,1.8,1.8,0,0,0,.652.689,2.27,2.27,0,0,0,1.249.288,2.587,2.587,0,0,0,1.614-.5,1.776,1.776,0,0,0,.652-1.51,1.312,1.312,0,0,0-.482-1,5.894,5.894,0,0,0-1.211-.807q-.729-.377-1.588-.755a9.3,9.3,0,0,1-1.589-.885,4.824,4.824,0,0,1-1.211-1.2,2.86,2.86,0,0,1-.482-1.68,4.152,4.152,0,0,1,.183-1.146,2.937,2.937,0,0,1,.69-1.172,3.884,3.884,0,0,1,1.394-.91,5.994,5.994,0,0,1,2.265-.366,6.121,6.121,0,0,1,1.667.222,4.119,4.119,0,0,1,1.366.664,2.851,2.851,0,0,1,.9,1.158,3.457,3.457,0,0,1,.234,1.68h-2.37a2.066,2.066,0,0,0-.507-1.575,2.1,2.1,0,0,0-1.549-.534,2.286,2.286,0,0,0-1.446.456,1.565,1.565,0,0,0-.585,1.315,1.27,1.27,0,0,0,.48.99,5.892,5.892,0,0,0,1.211.781q.729.364,1.589.729a8.647,8.647,0,0,1,1.588.873,4.71,4.71,0,0,1,1.211,1.211A2.915,2.915,0,0,1,305.531,120.811Z" style="fill:#4f91ce"/></svg>
