<svg xmlns="http://www.w3.org/2000/svg" viewBox="0 0 280 100"><title>Connective Home Loans</title><path d="M228.854,28.917h0a2.324,2.324,0,1,0,2.327,2.324A2.323,2.323,0,0,0,228.851,28.917Z" style="fill:#222944"/><path d="M49.723,60.309,48.6,59.52c-.536-.341-1.022-.241-1.464.39-.537.734-1.46,2.734-4.192,2.734H42.8a4.292,4.292,0,0,1-4.141-4.437V50.356a4.292,4.292,0,0,1,4.291-4.292A4.753,4.753,0,0,1,47.138,48.9a.936.936,0,0,0,1.464.244l1.171-.833a1.1,1.1,0,0,0,.293-1.462,7.542,7.542,0,0,0-7.12-4.244h-.275A7.836,7.836,0,0,0,34.9,50.5v7.985a7.835,7.835,0,0,0,8.044,7.62,7.65,7.65,0,0,0,7.218-4.335.88.88,0,0,0,.059-.109h0A1.021,1.021,0,0,0,49.723,60.309Z" style="fill:#222944"/><path d="M61.977,42.6h-.272a7.839,7.839,0,0,0-7.773,7.9v7.979a7.839,7.839,0,0,0,8.045,7.626c.092,0,.183.006.273,0a7.839,7.839,0,0,0,7.77-7.9V50.5c0-.091,0-.181,0-.272h0A7.839,7.839,0,0,0,61.977,42.6Zm4.291,15.607q.007.165,0,.33a4.294,4.294,0,0,1-8.582-.33V50.5q-.006-.165,0-.33a4.294,4.294,0,0,1,8.582.33Z" style="fill:#222944"/><path d="M82.062,42.607a8.065,8.065,0,0,0-4.241,1.124.391.391,0,0,1-.115.063.442.442,0,0,1-.568-.259.864.864,0,0,0-.782-.442H75.094a.977.977,0,0,0-1.073,1.073V64.549a1.125,1.125,0,0,0,0,.2.978.978,0,0,0,1.073.872H76.7a.9.9,0,0,0,.207,0h0a.975.975,0,0,0,.865-1.073V50.5a4.291,4.291,0,1,1,8.582.005V64.549a.977.977,0,0,0,1.073,1.073h1.612a1,1,0,0,0,.2,0h0a.977.977,0,0,0,.87-1.073V50.505c0-.091,0-.181,0-.272A7.839,7.839,0,0,0,82.062,42.607Z" style="fill:#222944"/><path d="M103.128,42.606a8.071,8.071,0,0,0-4.243,1.125.462.462,0,0,1-.113.063.442.442,0,0,1-.568-.259.864.864,0,0,0-.78-.442H96.156a1.023,1.023,0,0,0-.207,0,.976.976,0,0,0-.866,1.073V64.549a1,1,0,0,0,0,.2h0a.976.976,0,0,0,1.073.867h1.609a.965.965,0,0,0,.2,0,.978.978,0,0,0,.872-1.073V50.5a4.291,4.291,0,1,1,8.582.005V64.549a1,1,0,0,0,0,.2h0a.977.977,0,0,0,1.073.868H110.1a1.038,1.038,0,0,0,.2,0h0a.975.975,0,0,0,.867-1.073V50.234A7.838,7.838,0,0,0,103.128,42.606Z" style="fill:#222944"/><path d="M118.93,56.833h0A.975.975,0,0,1,120,55.966h9.119a2.066,2.066,0,0,0,.4,0,1.957,1.957,0,0,0,1.746-2.146V50.5a8.047,8.047,0,0,0-16.092,0v7.981a7.836,7.836,0,0,0,8.042,7.624,8.739,8.739,0,0,0,7.658-4.242,1.115,1.115,0,0,0-.245-1.514l-1.073-.78-.039-.03a1.018,1.018,0,0,0-1.421.226,6.1,6.1,0,0,1-4.878,2.877h-.151a4.292,4.292,0,0,1-4.14-4.437V57.039A1.013,1.013,0,0,1,118.93,56.833Zm0-6.33a4.292,4.292,0,1,1,8.583,0l0,1.171a1.013,1.013,0,0,1,0,.206h0a.976.976,0,0,1-1.073.866H120a.965.965,0,0,1-.2,0,.977.977,0,0,1-.872-1.073Z" style="fill:#222944"/><path d="M150.007,60.309l-1.122-.788c-.536-.341-1.021-.241-1.463.39-.537.733-1.464,2.733-4.193,2.733h-.151a4.29,4.29,0,0,1-4.14-4.437V50.356a4.292,4.292,0,0,1,4.291-4.292,4.762,4.762,0,0,1,4.193,2.831.916.916,0,0,0,.146.2h0a.932.932,0,0,0,1.316.039l1.171-.833a1.1,1.1,0,0,0,.294-1.462,7.54,7.54,0,0,0-7.119-4.244h-.271a7.838,7.838,0,0,0-7.774,7.9v7.976h0a7.837,7.837,0,0,0,8.043,7.628,7.641,7.641,0,0,0,7.215-4.335,1.127,1.127,0,0,0,.063-.113A1.018,1.018,0,0,0,150.007,60.309Z" style="fill:#222944"/><path d="M169.975,61.911,169,61.229a1.278,1.278,0,0,0-1.807.2,4.22,4.22,0,0,1-2.973,1.22h-.141a4.3,4.3,0,0,1-4.145-4.437V47.382a1.058,1.058,0,0,1,0-.2.982.982,0,0,1,1.073-.878h5.364a.939.939,0,0,0,.212,0h0a.973.973,0,0,0,.861-1.073V44.164a1.043,1.043,0,0,0,0-.209.974.974,0,0,0-1.073-.864h-5.364a.927.927,0,0,1-.2,0,.98.98,0,0,1-.876-1.073V37.727a.922.922,0,0,0,0-.21.974.974,0,0,0-1.072-.863h-1.609a.965.965,0,0,0-.2,0,.978.978,0,0,0-.872,1.073v4.291a.984.984,0,0,1,0,.2v0a.975.975,0,0,1-1.073.867h-1.072a.9.9,0,0,0-.208,0h0a.974.974,0,0,0-.865,1.073v1.072a1.053,1.053,0,0,0,0,.21.973.973,0,0,0,1.073.863h1.072a.918.918,0,0,1,.2,0,.974.974,0,0,1,.867,1.072V58.207c0,.092,0,.184,0,.276a7.838,7.838,0,0,0,8.045,7.625,7.569,7.569,0,0,0,5.947-2.683.813.813,0,0,0,.089-.114h0A1.009,1.009,0,0,0,169.975,61.911Z" style="fill:#222944"/><path d="M184.423,62.252c-.442-.535-.929-.484-1.514-.194a5.047,5.047,0,0,1-2.242.586h-.151a4.291,4.291,0,0,1-4.141-4.437V44.165a.9.9,0,0,0,0-.208.975.975,0,0,0-1.073-.865h-1.609a.977.977,0,0,0-1.073,1.073V58.207c0,.092,0,.184,0,.275h0a7.838,7.838,0,0,0,8.046,7.625A8.548,8.548,0,0,0,185,64.889a.964.964,0,0,0,.161-.108h0a1,1,0,0,0,.135-1.405Z" style="fill:#222944"/><path d="M198.661,43.1h-1.607a1.426,1.426,0,0,0-1.266,1.072l-3.564,12.387c-.1.339-.2.631-.438.631s-.338-.29-.438-.631l-3.559-12.387a1.434,1.434,0,0,0-1.271-1.072H184.91a.905.905,0,0,0-.324.014.926.926,0,0,0-.7,1.106l6.049,20.038c.291.975.827,1.853,1.851,1.853s1.562-.878,1.853-1.853l6.046-20.038a.894.894,0,0,0,.01-.225h0A.965.965,0,0,0,198.661,43.1Z" style="fill:#222944"/><path d="M205.968,56.833h0a.975.975,0,0,1,1.073-.867h9.123a1.954,1.954,0,0,0,2.146-2.146V50.5a8.047,8.047,0,0,0-16.092,0v7.7c0,.092,0,.185,0,.277a7.835,7.835,0,0,0,8.039,7.624,8.731,8.731,0,0,0,7.658-4.242,1.114,1.114,0,0,0-.245-1.515l-1.072-.779-.039-.03h0a1.019,1.019,0,0,0-1.422.226,6.1,6.1,0,0,1-4.878,2.877h-.151a4.291,4.291,0,0,1-4.14-4.436V57.039A1.013,1.013,0,0,1,205.968,56.833Zm0-5.159V50.5a4.292,4.292,0,1,1,8.583,0v1.171a.984.984,0,0,1,0,.2h0a.975.975,0,0,1-1.072.869h-6.437a.965.965,0,0,1-.2,0A.977.977,0,0,1,205.966,51.674Z" style="fill:#222944"/><path d="M174.459,34.369a2.319,2.319,0,1,0-2.32-2.318A2.319,2.319,0,0,0,174.459,34.369Z" style="fill:#222944"/><path d="M239.293,25.45a5.806,5.806,0,0,0-5.806,5.8v0a4.648,4.648,0,0,1-4.646,4.645h0a4.644,4.644,0,0,1-4.639-4.645v-.008a4.642,4.642,0,0,1,4.642-4.637,5.806,5.806,0,1,0-5.8-5.812v0a4.648,4.648,0,0,1-4.648,4.646h-.008a5.806,5.806,0,0,0,0,11.611,4.65,4.65,0,0,1,4.65,4.647v0a5.806,5.806,0,0,0,11.611,0v0a4.645,4.645,0,0,1,4.645-4.643,5.806,5.806,0,1,0,0-11.611Zm.023,8.114a2.323,2.323,0,1,1,2.321-2.324A2.323,2.323,0,0,1,239.316,33.564Z" style="fill:#4f91ce"/><path d="M149.078,76.369a3,3,0,0,0-1.331.252,2.329,2.329,0,0,0-.92.979h-.063V72.968h-1.347V84.832h1.347V79.951a6.168,6.168,0,0,1,.075-.978,2.388,2.388,0,0,1,.263-.788,1.37,1.37,0,0,1,.517-.527,1.671,1.671,0,0,1,.838-.189,1.7,1.7,0,0,1,.715.132,1.172,1.172,0,0,1,.46.361,1.35,1.35,0,0,1,.238.551,3.408,3.408,0,0,1,.063.7v5.621h1.348V78.949a2.818,2.818,0,0,0-.568-2A2.177,2.177,0,0,0,149.078,76.369Z" style="fill:#4f91ce"/><path d="M159.229,77.678a2.352,2.352,0,0,0-.946-.953,4.3,4.3,0,0,0-3.418,0,2.361,2.361,0,0,0-.947.953,3.886,3.886,0,0,0-.41,1.413,15.655,15.655,0,0,0-.091,1.718,7.927,7.927,0,0,0,.247,2.2,3.072,3.072,0,0,0,.673,1.262,2.039,2.039,0,0,0,1,.584,5.508,5.508,0,0,0,2.468,0,2.027,2.027,0,0,0,1-.584,3.051,3.051,0,0,0,.674-1.262,7.815,7.815,0,0,0,.246-2.2,15.409,15.409,0,0,0-.089-1.718A3.889,3.889,0,0,0,159.229,77.678Zm-.989,4.269a3.617,3.617,0,0,1-.271,1.126,1.337,1.337,0,0,1-.534.624,1.982,1.982,0,0,1-1.727,0,1.347,1.347,0,0,1-.534-.624,3.653,3.653,0,0,1-.272-1.126q-.079-.856-.073-1.717a6.529,6.529,0,0,1,.122-1.388,2.258,2.258,0,0,1,.354-.839,1.2,1.2,0,0,1,.551-.419,2.282,2.282,0,0,1,1.429,0,1.192,1.192,0,0,1,.551.419,2.2,2.2,0,0,1,.353.839,6.337,6.337,0,0,1,.126,1.388A16.413,16.413,0,0,1,158.24,81.947Z" style="fill:#4f91ce"/><path d="M170.626,76.705a1.861,1.861,0,0,0-.74-.279,5.284,5.284,0,0,0-.722-.058,2.99,2.99,0,0,0-1.1.207,1.714,1.714,0,0,0-.871.862,1.421,1.421,0,0,0-.328-.485,1.944,1.944,0,0,0-.477-.337,2.169,2.169,0,0,0-.559-.189,3.007,3.007,0,0,0-.575-.058,2.741,2.741,0,0,0-1.257.263,1.811,1.811,0,0,0-.813.937h-.032V76.532h-1.43q.033.426.058.863t.024.863v6.58h1.348V79.25a3.031,3.031,0,0,1,.063-.568,2.122,2.122,0,0,1,.246-.648,1.162,1.162,0,0,1,.5-.4,1.607,1.607,0,0,1,.666-.164,1.445,1.445,0,0,1,.664.126,1.045,1.045,0,0,1,.4.353,1.288,1.288,0,0,1,.2.518,3.538,3.538,0,0,1,.05.608v5.752l1.353,0V79.248c0-.08,0-.184.016-.316a3.147,3.147,0,0,1,.063-.41,2.054,2.054,0,0,1,.14-.411.968.968,0,0,1,.238-.329,1.3,1.3,0,0,1,.452-.263,2.351,2.351,0,0,1,.568-.049,1.426,1.426,0,0,1,.665.132,1.052,1.052,0,0,1,.4.352,1.346,1.346,0,0,1,.2.518,3.762,3.762,0,0,1,.05.609v5.751h1.347v-6.31a2.458,2.458,0,0,0-.23-1.167A1.723,1.723,0,0,0,170.626,76.705Z" style="fill:#4f91ce"/><path d="M179.121,77.365a1.989,1.989,0,0,0-.9-.747,3.729,3.729,0,0,0-1.463-.247,3.482,3.482,0,0,0-1.709.354,2.373,2.373,0,0,0-.947.953,3.906,3.906,0,0,0-.41,1.413,15.655,15.655,0,0,0-.091,1.718,7.927,7.927,0,0,0,.247,2.2,3.072,3.072,0,0,0,.673,1.262,2.042,2.042,0,0,0,1,.584,5.262,5.262,0,0,0,1.232.14,3.21,3.21,0,0,0,2.1-.641,2.526,2.526,0,0,0,.8-2.038h-1.481a2.237,2.237,0,0,1-.116.6,1.516,1.516,0,0,1-.279.5,1.4,1.4,0,0,1-.442.344,1.331,1.331,0,0,1-.608.132,2.174,2.174,0,0,1-.707-.107,1.062,1.062,0,0,1-.526-.41,2.358,2.358,0,0,1-.328-.847,7.052,7.052,0,0,1-.116-1.413l4.671,0v-.707a10.527,10.527,0,0,0-.132-1.791A3.305,3.305,0,0,0,179.121,77.365ZM175.042,80.1a6.053,6.053,0,0,1,.132-1.389,2.462,2.462,0,0,1,.345-.83,1.056,1.056,0,0,1,.493-.394,1.828,1.828,0,0,1,.609-.1,2.634,2.634,0,0,1,.673.082.947.947,0,0,1,.526.37,2.227,2.227,0,0,1,.337.82,6.68,6.68,0,0,1,.123,1.439Z" style="fill:#4f91ce"/><rect x="185.56" y="72.968" width="1.348" height="11.864" style="fill:#4f91ce"/><path d="M194.822,77.678a2.352,2.352,0,0,0-.946-.953,4.3,4.3,0,0,0-3.418,0,2.352,2.352,0,0,0-.946.953,3.867,3.867,0,0,0-.41,1.413,15.907,15.907,0,0,0-.092,1.718,7.927,7.927,0,0,0,.247,2.2,3.062,3.062,0,0,0,.674,1.262,2.035,2.035,0,0,0,1,.584,5.508,5.508,0,0,0,2.468,0,2.044,2.044,0,0,0,1-.584,3.06,3.06,0,0,0,.673-1.262,7.815,7.815,0,0,0,.246-2.2,15.41,15.41,0,0,0-.09-1.718A3.868,3.868,0,0,0,194.822,77.678Zm-.989,4.269a3.615,3.615,0,0,1-.27,1.126,1.333,1.333,0,0,1-.535.624,1.991,1.991,0,0,1-1.731,0,1.358,1.358,0,0,1-.534-.624,3.68,3.68,0,0,1-.271-1.126,16.976,16.976,0,0,1-.074-1.717,6.4,6.4,0,0,1,.126-1.388A2.258,2.258,0,0,1,190.9,78a1.192,1.192,0,0,1,.551-.419,2.282,2.282,0,0,1,1.429,0,1.192,1.192,0,0,1,.551.419,2.2,2.2,0,0,1,.353.839,6.337,6.337,0,0,1,.126,1.388A16.413,16.413,0,0,1,193.833,81.947Z" style="fill:#4f91ce"/><path d="M203.049,82.859V78.866a3.765,3.765,0,0,0-.123-.979,1.928,1.928,0,0,0-.428-.788,2.07,2.07,0,0,0-.821-.534,3.751,3.751,0,0,0-1.325-.2,3.293,3.293,0,0,0-2.046.551,2.436,2.436,0,0,0-.764,1.948h1.463a1.4,1.4,0,0,1,.27-1.068,1.256,1.256,0,0,1,1.027-.412,1.426,1.426,0,0,1,.831.206,1.173,1.173,0,0,1,.418.533,2.218,2.218,0,0,1,.149.741q.015.409,0,.821-.706-.016-1.48.032a4.814,4.814,0,0,0-1.413.3,2.189,2.189,0,0,0-1.462,2.251,5.274,5.274,0,0,0,.106,1.093,2.25,2.25,0,0,0,.37.863,1.774,1.774,0,0,0,.7.568,2.564,2.564,0,0,0,1.093.206,2.321,2.321,0,0,0,1.281-.32,2.277,2.277,0,0,0,.806-1.044h.032v1.2h1.484c-.058-.318-.1-.644-.126-.978S203.049,83.187,203.049,82.859Zm-1.446-.528a2.681,2.681,0,0,1-.4.97,1.3,1.3,0,0,1-.575.468,1.752,1.752,0,0,1-.631.126,1.107,1.107,0,0,1-.986-.46,1.869,1.869,0,0,1-.315-1.068,1.492,1.492,0,0,1,.287-.994,1.6,1.6,0,0,1,.731-.485,3.429,3.429,0,0,1,.979-.165q.531-.016,1.008-.017A6.025,6.025,0,0,1,201.6,82.331Z" style="fill:#4f91ce"/><path d="M211.08,77.105a1.538,1.538,0,0,0-.681-.549,2.743,2.743,0,0,0-1.093-.189,2.885,2.885,0,0,0-1.316.263,2.3,2.3,0,0,0-.9.97h-.064V76.532H205.6q.032.426.057.863c.016.291.025.579.025.863v6.571h1.347V79.915a6.38,6.38,0,0,1,.059-.862,2.394,2.394,0,0,1,.237-.789,1.527,1.527,0,0,1,.51-.575,1.569,1.569,0,0,1,.884-.223,1.821,1.821,0,0,1,.715.127,1.073,1.073,0,0,1,.452.344,1.358,1.358,0,0,1,.23.518,2.861,2.861,0,0,1,.066.625v5.752l1.347,0V79.078a5.812,5.812,0,0,0-.1-1.109A2.32,2.32,0,0,0,211.08,77.105Z" style="fill:#4f91ce"/><path d="M218.161,80.631a5.455,5.455,0,0,0-1-.551q-.543-.229-1-.46a3.776,3.776,0,0,1-.764-.493.8.8,0,0,1-.3-.625.989.989,0,0,1,.369-.83,1.449,1.449,0,0,1,.913-.288,1.33,1.33,0,0,1,.978.337,1.3,1.3,0,0,1,.319.994h1.5a2.183,2.183,0,0,0-.148-1.06,1.8,1.8,0,0,0-.568-.731,2.635,2.635,0,0,0-.862-.419,3.886,3.886,0,0,0-1.051-.14,3.787,3.787,0,0,0-1.43.231,2.476,2.476,0,0,0-.88.574,1.852,1.852,0,0,0-.435.74,2.612,2.612,0,0,0-.115.723,1.789,1.789,0,0,0,.3,1.06,3.024,3.024,0,0,0,.764.758,5.915,5.915,0,0,0,1,.558q.543.239,1,.477a3.711,3.711,0,0,1,.764.509.827.827,0,0,1,.3.631,1.121,1.121,0,0,1-.412.953,1.631,1.631,0,0,1-1.019.315,1.428,1.428,0,0,1-.788-.181,1.145,1.145,0,0,1-.411-.435,1.454,1.454,0,0,1-.156-.526c-.016-.181-.025-.332-.025-.452h-1.523a2.441,2.441,0,0,0,.74,2.063,3.253,3.253,0,0,0,2.12.631,4.533,4.533,0,0,0,1.142-.14,2.476,2.476,0,0,0,.92-.442,2.1,2.1,0,0,0,.608-.78,2.753,2.753,0,0,0,.222-1.168,1.846,1.846,0,0,0-.308-1.069A2.987,2.987,0,0,0,218.161,80.631Z" style="fill:#4f91ce"/></svg>