<svg xmlns="http://www.w3.org/2000/svg" xmlns:xlink="http://www.w3.org/1999/xlink" viewBox="0 0 160.375 62.5"><defs><clipPath id="a"><path d="M62.768,40.752c-2.592.12-4.387.2-6.98.219a47.719,47.719,0,0,0-4.776,2.2l-.074.037c1.582.012,3.163.024,4.74.024a114.893,114.893,0,0,0,12.271-.527,18.621,18.621,0,0,0-4.18-2.006c-.334.02-.667.037-1,.053m44.591-1.243a18.372,18.372,0,0,0-4.485,1.186c-1.706.58-3.391,1.219-5.1,1.789a22.67,22.67,0,0,1-7.028,1.466,10.085,10.085,0,0,1-2.7-.348c-3-.825-5.534-2.77-8.564-3.58a14.689,14.689,0,0,0-3.842-.478,25.767,25.767,0,0,0-3.716.306q-1.975.288-3.952.5c.994.6,1.962,1.272,2.908,1.98a33.33,33.33,0,0,1,4.7-.417,15.529,15.529,0,0,1,3.377.351c3.1.684,5.656,2.546,8.623,3.572a8.971,8.971,0,0,0,2.954.469,20.383,20.383,0,0,0,5.522-.98c2.911-.835,5.7-2.024,8.6-2.905a11.467,11.467,0,0,1,3.355-.527,10.186,10.186,0,0,1,1.925.183,21.513,21.513,0,0,1,3.835-.929c.036,0,.073-.011.109-.016a13.355,13.355,0,0,0-5.9-1.643c-.2,0-.413.007-.622.021M133.44,45.9a28.191,28.191,0,0,1-2.928.153,30.171,30.171,0,0,1-12.7-2.922,32.915,32.915,0,0,0-4.081.306c1.836.9,3.582,1.991,5.468,2.793a26.434,26.434,0,0,0,5.044,1.56,5.945,5.945,0,0,1,2.993-1.241,11.2,11.2,0,0,1,1.141-.056c2.762,0,5.49.919,8.223,1.2.044.006.088.01.131.014,5.541-1.141,10.791-3.621,15.771-6.227.138-.071.188-.295.195-.578v-.149c-.015-.666-.2-1.543-.073-1.612-6,3.139-12.375,6.043-19.181,6.756M8.026,41.8c14.587.011,23.972,1.21,38.062,1.376,1.139-.475,2.264-.994,3.373-1.527.468-.225.937-.463,1.405-.706l-1.116-.018C36.409,40.688,21.56,39,7.95,38.991A7.515,7.515,0,0,0,8.026,41.8" style="fill:none"/></clipPath><linearGradient id="b" x1="-218.637" y1="458.607" x2="-217.637" y2="458.607" gradientTransform="matrix(144.07, 0, 0, 144.07, 31507.671, -66027.75)" gradientUnits="userSpaceOnUse"><stop offset="0" stop-color="#ffd33f"/><stop offset="0.503" stop-color="#ffd33f"/><stop offset="0.613" stop-color="#f9a23e"/><stop offset="0.621" stop-color="#faa73e"/><stop offset="0.671" stop-color="#fec73f"/><stop offset="0.699" stop-color="#ffd33f"/><stop offset="0.716" stop-color="#fecd3f"/><stop offset="0.737" stop-color="#fcbc3f"/><stop offset="0.761" stop-color="#f9a23e"/><stop offset="0.8" stop-color="#fbb23e"/><stop offset="0.863" stop-color="#fdc43f"/><stop offset="0.929" stop-color="#ffcf3f"/><stop offset="1" stop-color="#ffd33f"/></linearGradient><clipPath id="c"><path d="M90,54.682a10.974,10.974,0,0,1-1.123-.058,16.6,16.6,0,0,1-1.645-.252,6.273,6.273,0,0,0,1.44.788,4.779,4.779,0,0,0,1.719.346A4.571,4.571,0,0,0,93.5,54.129a11.67,11.67,0,0,1-3.5.553m48.228-6.9c-.511,0-1.014-.025-1.5-.072-.334.068-.67.133-1.006.193a32.211,32.211,0,0,1-5.519.481,29.6,29.6,0,0,1-5.963-.594c-2.42,1.808-4.1,4.955-7.344,5.4a6.1,6.1,0,0,1-.837.058c-4.218,0-7.629-4.327-10.928-6.378l-.109-.067c-.659.457-1.315.943-1.974,1.441a16.647,16.647,0,0,1,4.9,3.1c2.424,1.92,5.238,4.177,8.2,4.177a6,6,0,0,0,3.59-1.234c1.429-1.037,2.517-2.481,3.831-3.649a6.837,6.837,0,0,1,4.837-1.78c.239,0,.482.009.729.024,2.859.181,5.622,1.074,8.484,1.252.215.014.435.019.66.019a12.173,12.173,0,0,0,6.405-1.774c.212-.142.166-.955.179-1.165,0-.072-.045-1.176-.056-1.176a11.986,11.986,0,0,1-6.578,1.744M99.345,46c-1.66.69-2.8,2.284-3.851,3.667A16.976,16.976,0,0,1,93.7,51.8a11.947,11.947,0,0,0,2.212-.9q.312-.165.616-.341c.2-.235.4-.462.6-.675a5.971,5.971,0,0,1,3.122-1.827c.951-.712,1.889-1.444,2.84-2.15a6.024,6.024,0,0,0-1.8-.29A4.968,4.968,0,0,0,99.345,46M66.2,48.593a31.493,31.493,0,0,1-9.3,1.657c-1.381.09-2.761.128-4.141.128-4.418,0-8.827-.38-13.244-.569-3.463-.149-6.444-.2-9.2-.2-7.308,0-13.056.379-22.093.379a6.5,6.5,0,0,0,.01,2.606s17.741-.47,27.708-.47c2.147,0,3.932.021,5.1.073,3.523.16,7.771.423,11.908.423a53.65,53.65,0,0,0,8.813-.6A15.767,15.767,0,0,0,69.4,48.873a30.164,30.164,0,0,1,3.449-2.6c-.509-.4-1.027-.8-1.554-1.208-1.639,1.277-3.119,2.755-5.1,3.533m6.761-4.671c.639.5,1.281,1,1.929,1.493a6.215,6.215,0,0,1,.9-.153c.194-.019.387-.03.576-.03,2.73,0,4.87,1.909,6.574,3.9a24.222,24.222,0,0,1,1.539,2.078,19.3,19.3,0,0,0,2.411.724c.146.035.294.065.443.095a9.079,9.079,0,0,1-1.89-1.9c-1.709-2.324-3.143-4.756-5.679-6.308a6.032,6.032,0,0,0-3.176-.9,7.5,7.5,0,0,0-3.627,1" style="fill:none"/></clipPath><linearGradient id="d" x1="-218.455" y1="458.961" x2="-217.455" y2="458.961" gradientTransform="translate(61780.303 29350.755) rotate(90) scale(134.442)" gradientUnits="userSpaceOnUse"><stop offset="0" stop-color="#8bd7f8"/><stop offset="0.503" stop-color="#8bd7f8"/><stop offset="0.548" stop-color="#58c1ed"/><stop offset="0.592" stop-color="#2cafe4"/><stop offset="0.613" stop-color="#1ca8e1"/><stop offset="0.618" stop-color="#22aae2"/><stop offset="0.674" stop-color="#6dcaf2"/><stop offset="0.699" stop-color="#8bd7f8"/><stop offset="0.709" stop-color="#83d3f6"/><stop offset="0.724" stop-color="#6bcaf1"/><stop offset="0.743" stop-color="#46baea"/><stop offset="0.761" stop-color="#1ca8e1"/><stop offset="0.768" stop-color="#22abe2"/><stop offset="0.816" stop-color="#48baea"/><stop offset="0.863" stop-color="#65c7f0"/><stop offset="0.91" stop-color="#7ad0f5"/><stop offset="0.956" stop-color="#87d5f7"/><stop offset="1" stop-color="#8bd7f8"/></linearGradient><clipPath id="e"><path d="M90.117,52.307a14.293,14.293,0,0,1-2.786-.28,5.464,5.464,0,0,0,3.186,1.18,3.9,3.9,0,0,0,1.008-.131A5.017,5.017,0,0,0,93.7,51.8a12.6,12.6,0,0,1-3.578.508m10.124-4.252a36.95,36.95,0,0,1-3.718,2.5,35.244,35.244,0,0,1-3.02,3.572c3.485-1.09,6.537-3.609,9.545-5.887a6.566,6.566,0,0,0-.807-.2,5.476,5.476,0,0,0-.976-.089,5.024,5.024,0,0,0-1.024.1M72.847,46.268l.588.459c4.076,3.168,8.631,6.583,13.8,7.645a12.468,12.468,0,0,1-2.759-3.164,37.989,37.989,0,0,1-9.589-5.793,7.637,7.637,0,0,0-2.041.853m-31.74-1.431a29.324,29.324,0,0,1-6.776.64c-1.061,0-2.118-.025-3.165-.045-3.638-.071-5.278-.184-8.913-.337-7.383-.31-9.893-.667-18.166-1.064h0a6.533,6.533,0,0,0-.121,2.606c8.606.562,14.653.782,22.343,1.1,1.315.055,1.991.071,2.473.071.33,0,.569-.007.861-.015s.635-.013,1.174-.013c.392,0,.89,0,1.547.013.47.008.941.014,1.411.014a30.675,30.675,0,0,0,8.554-.986,52.714,52.714,0,0,0,8.611-3.615c-.9-.007-1.8-.015-2.7-.017-.73,0-1.446-.007-2.151-.017a32.713,32.713,0,0,1-4.981,1.663m29.3-2.44q-1.23.176-2.462.308c1.158.722,2.27,1.534,3.344,2.355.353-.274.713-.538,1.088-.785q.283-.187.578-.353c-.629-.488-1.255-.972-1.88-1.444l-.2-.148-.47.067m34.294,2.347c-.548.374-1.088.763-1.624,1.161a8.866,8.866,0,0,1,1.941.9c.327-.227.654-.448.983-.658a19.078,19.078,0,0,1,7.723-2.709c-.483-.237-.972-.461-1.472-.662a12.237,12.237,0,0,0-2.317-.7,21.894,21.894,0,0,0-5.234,2.668m9.178-3.613c.552.271,1.1.562,1.642.855q1.132.614,2.284,1.142.382-.006.763-.006c2.345,0,4.687.177,6.929.358,3.069.25,6.145.435,9.2.82a28.038,28.038,0,0,0,3.469.307,6.527,6.527,0,0,0,3.706-.938c.212-.144.167-.954.178-1.165,0-.074-.045-1.175-.056-1.175a6.533,6.533,0,0,1-3.712.943,30.535,30.535,0,0,1-3.777-.352c-3.248-.41-6.531-.593-9.794-.852-1.926-.153-3.857-.274-5.784-.274a35,35,0,0,0-5.047.337m-56.442-3a28.05,28.05,0,0,0-6.575,2.811c1.524.023,2.793.034,3.907.034.353,0,.69,0,1.015,0a13.709,13.709,0,0,1,3.5-.809q.466-.039.923-.039a11.671,11.671,0,0,1,3.557.576q2.109-.124,4.2-.349a15.309,15.309,0,0,0-7.915-2.512,11.953,11.953,0,0,0-2.617.292" style="fill:none"/></clipPath><linearGradient id="f" x1="-218.973" y1="459.746" x2="-217.973" y2="459.746" gradientTransform="matrix(102.934, 0, 0, 102.934, 22579.029, -47277.112)" gradientUnits="userSpaceOnUse"><stop offset="0" stop-color="#ee4d9a"/><stop offset="0.466" stop-color="#ee4d9a"/><stop offset="0.476" stop-color="#ef559e"/><stop offset="0.527" stop-color="#f279b0"/><stop offset="0.569" stop-color="#f390bb"/><stop offset="0.595" stop-color="#f498bf"/><stop offset="0.617" stop-color="#f493bd"/><stop offset="0.643" stop-color="#f285b5"/><stop offset="0.671" stop-color="#f16daa"/><stop offset="0.699" stop-color="#ee4d9a"/><stop offset="0.737" stop-color="#f061a4"/><stop offset="0.794" stop-color="#f279b0"/><stop offset="0.855" stop-color="#f38ab8"/><stop offset="0.921" stop-color="#f495bd"/><stop offset="1" stop-color="#f498bf"/></linearGradient><clipPath id="g"><path d="M95.907,50.9a11.947,11.947,0,0,1-2.212.9,5.017,5.017,0,0,1-2.17,1.277,3.9,3.9,0,0,1-1.008.131,5.464,5.464,0,0,1-3.186-1.18c-.148-.03-.3-.06-.443-.095a19.3,19.3,0,0,1-2.411-.724,12.468,12.468,0,0,0,2.759,3.164c.542.11,1.089.2,1.645.252A10.974,10.974,0,0,0,90,54.682a11.67,11.67,0,0,0,3.5-.553,35.244,35.244,0,0,0,3.02-3.572q-.3.175-.616.341" style="fill:none"/></clipPath><linearGradient id="h" x1="-233.322" y1="426.15" x2="-232.322" y2="426.15" gradientTransform="matrix(12.046, 0, 0, -12.046, 2895.17, 5186.198)" gradientUnits="userSpaceOnUse"><stop offset="0" stop-color="#9f499b"/><stop offset="0.219" stop-color="#814b9d"/><stop offset="0.509" stop-color="#544da0"/><stop offset="0.622" stop-color="#5950a2"/><stop offset="0.748" stop-color="#665aa6"/><stop offset="0.881" stop-color="#7c69ae"/><stop offset="1" stop-color="#977cb8"/></linearGradient><clipPath id="i"><path d="M127.233,46.546a5.945,5.945,0,0,0-2.993,1.241,29.6,29.6,0,0,0,5.963.594,32.211,32.211,0,0,0,5.519-.481c.336-.06.672-.125,1.006-.193-.043,0-.087-.008-.131-.014-2.733-.284-5.461-1.2-8.223-1.2a11.2,11.2,0,0,0-1.141.056" style="fill:none"/></clipPath><linearGradient id="j" x1="-232.747" y1="427.213" x2="-231.747" y2="427.213" gradientTransform="matrix(12.488, 0, 0, -12.488, 3030.811, 5382.514)" gradientUnits="userSpaceOnUse"><stop offset="0" stop-color="#77a561"/><stop offset="1" stop-color="#a6b75e"/></linearGradient></defs><title>Firstmac</title><g style="clip-path:url(#a)"><rect x="7.689" y="31.089" width="145.051" height="24.6" transform="translate(-4.265 9.035) rotate(-6.28)" style="fill:url(#b)"/></g><g style="clip-path:url(#c)"><rect x="69.846" y="-19.258" width="13.207" height="136.954" transform="translate(26.891 125.449) rotate(-89.745)" style="fill:url(#d)"/></g><g style="clip-path:url(#e)"><rect x="3.681" y="36.632" width="138.54" height="18.946" transform="translate(-0.794 1.281) rotate(-1.001)" style="fill:url(#f)"/></g><g style="clip-path:url(#g)"><rect x="84.477" y="50.557" width="12.047" height="4.125" style="fill:url(#h)"/></g><path d="M100.241,48.055a5.024,5.024,0,0,1,1.024-.1,5.476,5.476,0,0,1,.976.089,6.227,6.227,0,0,1,.807.2c.659-.5,1.315-.985,1.974-1.442a8.88,8.88,0,0,0-1.94-.9c-.951.706-1.89,1.439-2.841,2.15" style="fill:#9a81bc"/><path d="M72.38,44.275c-.374.247-.734.511-1.087.785.527.405,1.045.81,1.555,1.208a7.658,7.658,0,0,1,2.041-.854c-.649-.5-1.291-1-1.93-1.492-.2.11-.39.228-.579.353" style="fill:#9f499b"/><path d="M113.774,41.147a21.545,21.545,0,0,0-3.836.929,12.224,12.224,0,0,1,2.318.7c.5.2.989.425,1.471.662a32.769,32.769,0,0,1,4.083-.3q-1.152-.531-2.286-1.143c-.542-.293-1.089-.583-1.64-.855-.037.006-.074.012-.11.016" style="fill:#f15536"/><path d="M49.461,41.647c-1.109.534-2.232,1.052-3.373,1.528q1.057.012,2.151.016c.9,0,1.8.01,2.7.016.024-.012.049-.023.074-.037a47.7,47.7,0,0,1,4.776-2.2c-.325,0-.662,0-1.017,0-1.112,0-2.381-.011-3.905-.035-.47.244-.937.481-1.405.706" style="fill:#ef4738"/><path d="M63.769,40.7a18.692,18.692,0,0,1,4.181,2.006c.82-.088,1.64-.189,2.461-.308l.47-.067c-.946-.707-1.914-1.38-2.908-1.98q-2.1.224-4.2.349" style="fill:#ef4738"/><g style="clip-path:url(#i)"><rect x="124.24" y="46.49" width="12.488" height="1.891" style="fill:url(#j)"/></g><path d="M26.684,31.685H28.23V15.814h4.976V14.47H28.23V11.41c0-2.589,2.252-2.589,3.027-2.589a15.176,15.176,0,0,1,2.454.2V7.678c-.976-.1-1.916-.2-2.656-.2-3.6,0-4.371,1.714-4.371,4.4V14.47H22.648v1.344h4.036Z" style="stroke:#010101;stroke-miterlimit:10;stroke-width:0.234px"/><path d="M36.3,11.242h1.547V7.678H36.3Zm0,20.443h1.547V14.47H36.3Z" style="stroke:#010101;stroke-miterlimit:10;stroke-width:0.234px"/><path d="M42.418,31.685h1.547V22.372c0-3.5,2.219-6.893,6.689-6.893a4.993,4.993,0,0,1,1.782.2V14.133a4.251,4.251,0,0,0-1.276-.2c-3.362,0-5.985,1.579-7.129,4.606h-.066V14.47H42.418Z" style="stroke:#010101;stroke-miterlimit:10;stroke-width:0.234px"/><path d="M69.046,19.513c-.2-2.69-1.614-5.581-8-5.581-5.85,0-7.229,2.925-7.229,4.875,0,3.06,2.724,4.068,4.842,4.338l6.052.806c2.017.269,3.463,1.143,3.463,3.127,0,2.454-1.748,3.8-6.287,3.8-6.691,0-7.061-2.79-7.263-4.572H53.076c.234,4.3,3.664,5.917,8.405,5.917,2.925,0,8.237-.47,8.237-5.144,0-3.093-2.185-4.269-5.413-4.707l-5.48-.74c-2.051-.269-3.463-1.042-3.463-2.924,0-1.783,1.378-3.43,5.615-3.43,4.471,0,6.287,1.378,6.522,4.236Z" style="stroke:#010101;stroke-miterlimit:10;stroke-width:0.234px"/><path d="M73.988,14.47h-3.9v1.345h3.9V27.381c0,3.295.605,4.64,4.2,4.64a13.589,13.589,0,0,0,2.622-.2V30.474c-.706.067-1.445.2-2.152.2-1.916,0-3.126-.336-3.126-2.455V15.815h5.11V14.47h-5.11V8.653H73.988Z" style="stroke:#010101;stroke-miterlimit:10;stroke-width:0.234px"/><path d="M82.9,31.685h1.547V21.43c0-3.968,2.657-6.153,6.421-6.153,3.968,0,5.582,1.916,5.582,4.942V31.685h1.546V21.093c0-3.631,2.219-5.816,6.422-5.816,4.035,0,5.581,2.42,5.581,5.245V31.685h1.547V20.018c0-3.867-2.219-6.085-7.162-6.085a6.849,6.849,0,0,0-6.656,4c-.706-2.153-2.354-4-6.59-4A7.629,7.629,0,0,0,84.512,17.4h-.068V14.47H82.9Z" style="stroke:#010101;stroke-miterlimit:10;stroke-width:0.234px"/><path d="M116.62,19.782c.471-3.093,1.883-4.505,6.422-4.505,5.077,0,6.388,1.58,6.388,3.9,0,2.118-.841,2.32-2.622,2.454l-6.019.4c-3.5.2-6.489,1.412-6.489,4.942,0,5.245,5.581,5.245,7.06,5.245,2.253,0,6.287-.437,8.2-3.967h.068c0,2.286,0,3.766,2.118,3.766a5.746,5.746,0,0,0,1.883-.269V30.407a4.794,4.794,0,0,1-1.513.269c-1.143,0-1.143-.774-1.143-2.051v-9.65c0-3.866-2.892-5.043-7.9-5.043-5.212,0-7.431,1.513-8,5.85Zm12.81,5.447c0,4.1-4.539,5.648-7.968,5.648-2.085,0-5.615-.4-5.615-3.9,0-2.589,2.05-3.4,4.942-3.6l5.816-.4a4.3,4.3,0,0,0,2.758-.907h.067Z" style="stroke:#010101;stroke-miterlimit:10;stroke-width:0.234px"/><path d="M152.8,19.883c-.2-2.925-3.565-5.951-8.843-5.951s-9.716,3.261-9.716,9.313c0,5.346,4.068,8.977,9.716,8.977,4.338,0,8.171-2.051,9.078-6.556h-1.547c-.773,3.564-4.068,5.211-7.531,5.211-6.221,0-8.17-4.841-8.17-7.632,0-4.1,2.724-7.968,8.17-7.968,4.136,0,7.095,2.421,7.3,4.606Z" style="stroke:#010101;stroke-miterlimit:10;stroke-width:0.234px"/></svg>