<svg xmlns="http://www.w3.org/2000/svg" xmlns:xlink="http://www.w3.org/1999/xlink" viewBox="0 0 179.05 76.667"><defs><clipPath id="a"><rect x="11.771" y="15.812" width="152.79" height="46.96" style="fill:none"/></clipPath></defs><title>Gateway Bank</title><g style="clip-path:url(#a)"><path d="M51.258,43.637c.286-4.716,4.5-6.127,8.611-6.127,3.654,0,8.047.81,8.047,5.2v9.53a9.4,9.4,0,0,0,.636,4.08H63.447a7.5,7.5,0,0,1-.35-1.776,8.4,8.4,0,0,1-6.169,2.27c-3.475,0-6.237-1.735-6.237-5.487,0-4.15,3.119-5.144,6.237-5.566,3.084-.461,5.953-.353,5.953-2.416,0-2.156-1.491-2.475-3.257-2.475-1.916,0-3.153.775-3.331,2.764Zm11.623,3.719c-.853.746-2.623.777-4.18,1.063-1.56.318-2.979.85-2.979,2.7,0,1.878,1.457,2.339,3.088,2.339,3.932,0,4.071-3.119,4.071-4.218Z" style="fill:#002b54"/><path d="M76.422,38H80.1v3.371H76.422v9.068c0,1.7.424,2.127,2.125,2.127a7.7,7.7,0,0,0,1.556-.143v3.931a18.72,18.72,0,0,1-2.937.182c-3.085,0-5.776-.708-5.776-4.36v-10.8H68.34V38h3.05V32.513h5.032Z" style="fill:#002b54"/><path d="M84.409,48.387c.142,3.188,1.7,4.639,4.5,4.639,2.016,0,3.649-1.239,3.967-2.372h4.43c-1.417,4.325-4.43,6.163-8.577,6.163-5.777,0-9.357-3.967-9.357-9.637,0-5.493,3.8-9.67,9.357-9.67,6.238,0,9.252,5.238,8.892,10.877ZM92.6,45.2c-.461-2.551-1.564-3.9-4.007-3.9a3.969,3.969,0,0,0-4.183,3.9Z" style="fill:#002b54"/><polygon points="118.482 56.323 113.308 56.323 110.051 44.025 109.983 44.025 106.859 56.323 101.649 56.323 95.84 37.999 101.154 37.999 104.523 50.439 104.592 50.439 107.639 37.999 112.528 37.999 115.647 50.408 115.718 50.408 119.085 37.999 124.258 37.999 118.482 56.323" style="fill:#002b54"/><path d="M123.2,43.637c.281-4.716,4.5-6.127,8.61-6.127,3.65,0,8.041.81,8.041,5.2v9.53a9.321,9.321,0,0,0,.643,4.08h-5.106a7.353,7.353,0,0,1-.354-1.776,8.4,8.4,0,0,1-6.167,2.27c-3.47,0-6.239-1.735-6.239-5.487,0-4.15,3.123-5.144,6.239-5.566,3.088-.461,5.956-.353,5.956-2.416,0-2.156-1.489-2.475-3.258-2.475-1.916,0-3.152.775-3.336,2.764Zm11.623,3.719c-.853.746-2.621.777-4.181,1.063-1.562.318-2.979.85-2.979,2.7,0,1.878,1.453,2.339,3.083,2.339,3.935,0,4.077-3.119,4.077-4.218Z" style="fill:#002b54"/><path d="M150.128,58.63c-1.1,2.937-2.833,4.141-6.307,4.141a29.2,29.2,0,0,1-3.083-.18V58.447a27.5,27.5,0,0,0,2.939.183c1.737-.183,2.307-1.989,1.737-3.444L138.964,38h5.383L148.5,50.548h.069L152.574,38h5.209Z" style="fill:#002b54"/><path d="M29.748,22.575c-9.9,0-17.977,7.263-17.977,17.3A17.541,17.541,0,0,0,16.2,51.577l6.186-5.117a10.536,10.536,0,0,1-2.031-6.589c0-6.628,4.948-9.76,9.17-9.76a8.132,8.132,0,0,1,7.364,4.262l6.63-5.5a18.068,18.068,0,0,0-13.767-6.3" style="fill:#78a22f"/><path d="M50.09,37.948l-16.949,0v6.838h4.586c-.9,3.256-3.758,5.385-8.012,5.385a9.066,9.066,0,0,1-7.333-3.708L16.2,51.575A17.719,17.719,0,0,0,29.76,57.682a18.03,18.03,0,0,0,13.5-5.883v4.5H50.09Z" style="fill:#002b54"/></g><text transform="translate(118.255 34.63)" style="font-size:16.790000915527344px;fill:#152c53;font-family:Arial-BoldMT, Arial;font-weight:700">bank</text></svg>
