<svg xmlns="http://www.w3.org/2000/svg" viewBox="0 0 280 100"><title>Heritage bank</title><polyline points="33.957 83.957 246.043 83.957 246.043 81.713 33.957 81.713" style="fill:#cd1543"/><path d="M130.416,62.443V62.36c2.965-.82,6.116-2.53,6.116-5.679,0-5.379-5.647-6.284-8.848-6.284h-13.6v1.442h2.079c1.474,0,1.76.167,1.76,5.847V75.614c0,.434-.1.687-.7.687H115.1v1.423h10.993c2.748,0,12.063-.6,12.063-7.958C138.157,65.677,134.4,63.181,130.416,62.443Zm-7.137-9.8c0-.554.1-.554,1.86-.554,4.859,0,6.534,2.848,6.534,5.429a4.582,4.582,0,0,1-3.1,4.472,27.628,27.628,0,0,0-5.3-.3Zm2.3,23.422c-2.311,0-2.311-.394-2.311-6.969l-.017.009v-6h.886c6.585,0,8.63,4,8.63,7.02C132.77,73.569,130.592,76.065,125.582,76.065Z" style="fill:#231f20"/><path d="M153.856,71.383V64.734c0-4.692-.418-6.032-5.11-6.032-3.77,0-9.416,2.153-9.416,5.546a1.424,1.424,0,0,0,1.474,1.374c1.86,0,2.865-1.945,2.865-4.307a5.26,5.26,0,0,1,2.865-.849c2.781,0,2.866,1.642,2.866,4.357V66.08l-2.128.91c-3.083,1.3-8.226,3.067-8.226,7.239,0,2.464,1.524,4.222,3.97,4.222,2.363,0,5.026-2.11,6.753-3.535a5.364,5.364,0,0,0,5.395,3.535l1.642-2.545C154.358,75.472,153.856,74.734,153.856,71.383ZM149.4,73.3a5.588,5.588,0,0,1-3.922,2.11,2.007,2.007,0,0,1-2.027-2.278c0-2.581,2.748-4.222,5.194-5.211l.755-.3Z" style="fill:#231f20"/><path d="M191.437,65.51l4.592-3.871a2.715,2.715,0,0,1,2.229-.937h.653v-1.29H190.1V60.7h2.28c.5,0,.971.034.971.386,0,1.019-3.75,4.467-8.2,7.348l.034-21.038c-2.783.42-5.563.687-8.344.939v1.29h1.943c1.1,0,1.525,1.173,1.525,7.925V75.764c0,.637-.346.687-.848.687h-2.681c-1.19,0-1.357-.988-1.357-5.98V64.647c0-3.911-1.778-5.939-5.112-5.939-2.274,0-4.333,1.37-6.606,3.091V58.708c-2.524.352-5.1.524-7.635.736v1.292h1.777c1.44,0,1.44,1.892,1.44,6.248v8.78c0,.637-.284.687-.753.687h-1.525v1.294h9.536V76.451h-1.474c-1.19,0-1.358-.988-1.358-5.98V63.417a6.349,6.349,0,0,1,4.172-1.979c3.116,0,3.116,2.447,3.116,5.378v8.948c0,.637-.285.687-.753.687h-1.19v1.294h19.628V76.456H186.64c-1.485,0-1.485-.982-1.485-6.284l2.832-1.892a38.069,38.069,0,0,0,6.534,9.164c.267.3.6.3,1.105.3h5.648V76.451a2.688,2.688,0,0,1-2.045-.653C198.676,75.361,195.376,72.178,191.437,65.51Z" style="fill:#231f20"/><path d="M109.606,43.629h-1.977v1.423H119.05V43.629h-1.977c-1.408,0-1.675-.168-1.675-5.849V31.063l12.454,0V42.942c0,.435-.1.687-.67.687h-1.994v1.423h11.419V43.629h-1.964c-1.409,0-1.676-.168-1.676-5.849V19.835c0-.435.1-.685.67-.685h1.973V17.725H124.191V19.15h1.977c1.408,0,1.675.167,1.675,5.847v4.382H115.4V19.835c0-.435.1-.685.67-.685h1.994V17.725H106.607V19.15H108.6c1.408,0,1.675.167,1.675,5.847V42.942C110.276,43.377,110.176,43.629,109.606,43.629Z" style="fill:#231f20"/><path d="M144.112,45.739a12.831,12.831,0,0,0,8.613-3.266l-.642-.99a8.76,8.76,0,0,1-5.479,1.978c-4.816,0-6.362-3.981-6.574-8.01l12.532-3.232c-1.642-3.453-3.936-6.2-8.125-6.2-5.915,0-9.232,4.825-9.232,10.2C135.205,41.567,138.248,45.739,144.112,45.739Zm-.568-18.3c2.161,0,3.434,2.934,4.1,4.609l-7.372,1.977-.3.082C139.875,32.051,140.713,27.442,143.544,27.442Z" style="fill:#231f20"/><path d="M155.582,34.312v8.78c0,.637-.3.687-.787.687H153.2v1.29h10.719v-1.29h-2.295c-1.24,0-1.408-.988-1.408-5.982V31.464a6.1,6.1,0,0,1,4.106-2.062c2.295,0,1.71,1.459,2.6,1.459.458,0,.535-.3.67-1.124l.355-1.854v.162h1.86c1.508,0,1.508,1.894,1.508,6.25v8.78c0,.637-.3.688-.787.688h-1.591v1.289h10.371V43.763h-1.945c-1.221,0-1.406-.989-1.406-5.983l-.017-11.761c-2.647.35-5.344.524-7.993.736v.039a3.143,3.143,0,0,0-1.981-.76c-2.191,0-3.515,1.593-5.727,3.871h-.017V26.034c-2.646.352-5.344.526-7.991.738v1.29h1.843C155.582,28.062,155.582,29.956,155.582,34.312Z" style="fill:#231f20"/><path d="M173.259,22.3a2.335,2.335,0,1,0-2.43-2.338A2.381,2.381,0,0,0,173.259,22.3Z" style="fill:#231f20"/><polygon points="170.829 19.954 170.829 19.964 170.829 19.959 170.829 19.954" style="fill:#231f20"/><path d="M178.939,28.013h1.542V40.8c0,3.4,1.088,4.944,4.757,4.944a12.085,12.085,0,0,0,5.832-1.591l-.57-1a7.231,7.231,0,0,1-2.647.6c-2.52,0-2.732-1.692-2.732-4.138V28.038h3.47c.67,0,.889,0,.974-1.291h-4.454V22.081h-.889c-5.283,4.524-6.131,5.111-6.131,5.461C178.091,27.962,178.5,28.013,178.939,28.013Z" style="fill:#231f20"/><path d="M209.484,43.186c-2.547-.435-3.084-1.173-3.084-4.524V32.028c0-4.692-.452-6.032-5.345-6.032-3.936,0-9.851,2.17-9.851,5.563a1.461,1.461,0,0,0,1.542,1.372c1.938,0,3-1.942,3-4.3a5.749,5.749,0,0,1,3-.848c2.916,0,3,1.641,3,4.356v1.257l-2.246.879c-3.233,1.3-8.611,3.066-8.611,7.238a3.957,3.957,0,0,0,4.155,4.223c2.479,0,5.262-2.111,7.071-3.536a5.644,5.644,0,0,0,5.645,3.536Zm-11.837-.463a2.045,2.045,0,0,1-2.121-2.278c0-2.581,2.866-4.222,5.43-5.211l.787-.3.01,5.671A5.916,5.916,0,0,1,197.647,42.723Z" style="fill:#231f20"/><path d="M217.827,43.058c-3.217-.2-4.589-.335-4.589-1.541,0-.637.7-1.424,1.1-1.894a12.867,12.867,0,0,0,2.78.3c4.157,0,8.028-2.8,8.032-7.077a6.061,6.061,0,0,0-1.542-4.257,19.837,19.837,0,0,0,2.479.168c.938,0,1.023-2.363,1.023-2.412v-.034a.461.461,0,0,0-.486-.386c-.7,0-.3.94-1.977.94a19.15,19.15,0,0,1-4.029-.437A14.044,14.044,0,0,0,217.441,26c-4.507,0-8.343,2.969-8.337,7.529a6,6,0,0,0,3.837,5.646c-.921.988-2.865,2.8-2.865,4.256,0,1.424,1.056,2.062,2.246,2.579-2.162.789-4.592,2.079-4.592,4.743,0,1.391,1.183,5.043,8.907,5.043,7.943,0,11.294-3.434,11.294-6.886C227.931,43.192,221.882,43.36,217.827,43.058ZM216.6,27.71c3.319,0,4.157,4.14,4.157,6.636,0,1.809-.672,4.171-2.968,4.172-3.1,0-4.288-4.056-4.271-6.45C213.513,29.99,213.948,27.71,216.6,27.71ZM217.762,54.4c-3.754,0-6.452-1.642-6.452-4.138,0-1.843,1.457-2.965,3.132-3.485a28.31,28.31,0,0,0,4.189.554v.008c3.436.217,5.731.654,5.748,3.031C224.379,53.412,220.241,54.4,217.762,54.4Z" style="fill:#231f20"/><path d="M243.191,41.483a8.78,8.78,0,0,1-5.478,1.978c-4.817,0-6.363-3.981-6.575-8.01l12.532-3.232c-1.642-3.453-3.936-6.2-8.125-6.2-5.915,0-9.232,4.825-9.232,10.2,0,5.344,3.041,9.516,8.907,9.516a12.826,12.826,0,0,0,8.611-3.266ZM234.65,27.442c2.161,0,3.434,2.934,4.1,4.609l-7.372,1.977-.3.082C230.981,32.051,231.819,27.442,234.65,27.442Z" style="fill:#231f20"/><path d="M65.1,21.008h-.049c-.318.034-.621-.1-.94.051-.033.017-.167-.051-.25-.017a6.909,6.909,0,0,0-1.777.9c-.151.134-.083.3-.083.469a.183.183,0,0,1-.184.151c-.318-.066-.6-.066-.787.184a5.793,5.793,0,0,0-.437.938c-.384.772-.954,1.828-.168,2.545a.184.184,0,0,1-.26.006l-.007-.006a4.38,4.38,0,0,0-.73-.777c-.238-.151-.643-.022-.911-.01-1.443.051-3.351.15-4.811.1-.15,0-.369-.116-.551-.082-.1.017-.184.15-.252.15-.2.034-.386-.133-.554-.051a1.1,1.1,0,0,1-.409.041c-.25.01-.5.011-.751.012-.274,0-.548,0-.822,0a1.442,1.442,0,0,0-.335.006c-.1.025-.217.176-.33.11-.082-.049-.082-.233-.167-.233-1.273.048-2.545.25-3.818.233a6.463,6.463,0,0,0-1.61-.034.315.315,0,0,0-.25.212c-.116.3.284.437.335.7a.281.281,0,0,1-.085.267c-.15.119-.366,0-.468.168-.1.208.172.517-.09.663-.164.093-.457-.083-.547.143a1.222,1.222,0,0,0,.051.685c.049.235.049.6-.252.687a2.173,2.173,0,0,0-.636.252.767.767,0,0,0-.236.821c.119.386.671.452.923.755.25.335.585.469.848.77-.252.083-.57.034-.738.236-.452.534-1.122.6-1.675.971-.284.184-.185.67-.034.9.286.454,1.022.454,1.124,1.061.167,1.241-.017,2.43.116,3.652a4.48,4.48,0,0,0,.3.772c.051.168-.268.212-.285.318a10.435,10.435,0,0,0,0,2.948,5.1,5.1,0,0,1,.017,1.241,4.259,4.259,0,0,0,0,1.139c.017.235-.252.5-.15.738.066.133.267.233.318.352.083.2-.235.424-.252.636-.1,1.758.269,3.5.135,5.26-.017.286-.437.235-.67.424-.051.034-.153-.017-.2.017a.856.856,0,0,0-.3,1.139c.213.335.671.318,1.038.52.3.167.118.519.184.8.017.034-.117.068-.184.034a2.878,2.878,0,0,0-2.145.034,2.37,2.37,0,0,0-1.289.787c-.082.136.274.42-.068.42-.151-.017-.3-.1-.424-.034a2.28,2.28,0,0,0-1.039,1.977v.1l-.1.3c-.017,0-.051.014-.068.014-.252.085-.2.353-.212.537,0,.017-.083.051-.083.051A1.934,1.934,0,0,0,37.2,60c.1.184-.185.212-.236.369-.116.352.168.7,0,1.088-.1.235.134.437.268.6.051.049.212.066.269.151.066.116-.051.233-.085.369a.21.21,0,0,0-.212-.051c-.318.083-.252.452-.3.7-.015.1.1.2.119.318a16.674,16.674,0,0,1,.1,1.826c.02.157-.125.288-.055.446.05.111.223.162.223.3-.017.318.252.519.212.8-.019.11-.164.141-.2.236a1.326,1.326,0,0,0-.008.445q0,.555.007,1.112c.01.732.035,1.464.095,2.195a1.045,1.045,0,0,1-.119.721c-.25.284-.452.568-.687.848-.066.083.051.25.051.3-.168.821.67,1.19,1.272,1.391.134.049.1.319.233.425.185.184.452.133.687.212-.1.184-.335.116-.485.25-.212.2-.1.52-.284.687-.236.2-.671-.068-.821.253a.926.926,0,0,0-.017.568c.032.151.318.1.284.269-.017.083-.184.032-.252.117a.655.655,0,0,0-.032.585c.049.185.25.386.352.386,1.323.068,2.647-.051,3.987.034.066,0,.151-.085.212-.085a23.456,23.456,0,0,0,3.067.085c.1,0,.017-.133.068-.184.083-.117.284,0,.352-.117.089-.128.06-.447.267-.437.228.011.391.366.469.537.057.127.236.1.347.091.2-.012.392-.007.589-.011.258-.007.518-.016.775-.048a3.758,3.758,0,0,1,.685-.066c.213.017,1.81.068,2.045.017a.955.955,0,0,1,.435.017c.15.034.167-.2.318-.251.03-.007.374-.007.263-.118-.2-.251.1-.537-.119-.736-.117-.1-.848-.1-.821-.136a4.21,4.21,0,0,1,.7-.015c-.065,0,.319-.252.486-.017.051.066-.116.151-.133.25-.1.37.184.588.212.923a1.3,1.3,0,0,1,.369.066c.031,0,.048.119.116.136.8.167,1.525-.168,2.312-.068.738.082,1.457-.2,2.2-.085a3.972,3.972,0,0,0,1.341.017c.167-.032,0-.25-.1-.335.066-.066.017-.212.116-.251.37-.167.955-.184,1.074.213.031.1-.153.25.065.349a.722.722,0,0,0,.588-.014,2.568,2.568,0,0,1,1.022-.034c.032,0,.1-.085.168-.085a.867.867,0,0,0,.719-.424c.15-.236.424-.185.6,0,.134.116.066.4.284.384,2.4-.1,4.76.034,7.154-.134.151-.017.212-.3.437-.318.167-.017.427-.08.513.119.047.108-.047.306.123.333.048,0,.1-.069.151-.083a1.012,1.012,0,0,1,.252,0l.589,0,1.222.013c.8.008,1.594.01,2.391-.017.152,0,.286-.168.4-.318.3-.335.67.034.971.25.335.235.755-.032,1.156-.134.352-.082.621.335.956.3a30.579,30.579,0,0,1,3.72-.049.349.349,0,0,0,.318-.136c.017-.049-.017-.117.017-.151a.258.258,0,0,1,.35-.031c.153.116.168.4.4.451.151.034.284-.068.424-.068a15,15,0,0,1,1.943.034,1.406,1.406,0,0,0,.906-.116.347.347,0,0,0,.182-.352c.335-.034.738-.185,1.005.065.136.136.017.425.236.437a21.747,21.747,0,0,0,3.921-.051c.838-.05,1.676.185,2.53.1.319-.034.535-.335.821-.488.1-.05.258.316.352.085.2.1.212.424.435.452a11.147,11.147,0,0,0,2.462.1c1.392-.068,2.531.066,4.14-.017.066,0,.234-.085.251-.168a1.064,1.064,0,0,0,0-.687c-.034-.068-.151-.116-.234-.184-.235-.185.032-.452-.051-.671-.05-.167-.318-.084-.5-.133-.017,0-.051-.085-.051-.085a.316.316,0,0,0,.068-.233c.049-.335-.185-.637.034-.957.048-.066.15-.066.2-.116.488-.654,1.408-.588,1.962-1.105a2.238,2.238,0,0,0,.369-.772c0-.6-.923-.486-1.408-.7a.171.171,0,0,1-.1-.15,18.568,18.568,0,0,1,.032-2.73c.068-.335.135-.738-.117-.939-.149-.128-.871-.212-.664-.559.143-.24.578.041.647-.239a4.988,4.988,0,0,0,.017-1.658c-.017-.185-.2-.151-.352-.212.106-.146-.036-.334.157-.426.119-.056.3-.059.312-.227a3.338,3.338,0,0,0-.083-.8c-.068-.3.166-.6-.055-.873a1.225,1.225,0,0,0-.766-.311c.066-.085.017-.184.066-.269.085-.151.235.034.369,0a2.426,2.426,0,0,0,.52-.233c.068-.051.424-.4.386-.52a9.329,9.329,0,0,1-.335-1.122c-.034-.235-.253-.335-.4-.5-.034-.033-.034-.118,0-.135.15-.117.335-.212.335-.384a4.819,4.819,0,0,0-.285-1.76,4.122,4.122,0,0,0-1.138-1.642c-.1-.083-.085-.267-.185-.352-.3-.25-.687-.318-.848-.7a14.377,14.377,0,0,0-2.045-.234c-.212.017-.369.285-.6.319-.175.014-.169-.2-.161-.32.014-.19.086-.253.261-.317.468-.167,1.073-.286,1.24-.755.212-.568-.519-1.005-1.06-1.206A.636.636,0,0,1,98.6,52.3a12.535,12.535,0,0,1,.017-1.61c0-.083-.2-.168-.168-.267.083-.3-.167-.67.2-.8-.212-1.022-.048-2.045-.167-3.067-.032-.318-.049-.687-.049-1.022a2.212,2.212,0,0,0-.235-.872c-.051-.1.184-.133.235-.25.049-.151-.034-.252-.068-.386,0-.016.159-.076.178-.112.066-.123.006-.407.006-.544q0-.589-.01-1.179-.015-1.243-.044-2.486c-.035-1.642-.077-3.285-.1-4.928.369-.367,1.039-.619.989-1.239a.782.782,0,0,0-.3-.587c-.167-.1-.386-.25-.6-.1-.134.083-.032-.167-.134-.252-.212-.2-.519-.168-.736-.335-.1-.066-.252-.234-.15-.335a4.441,4.441,0,0,1,1.088-.849.781.781,0,0,0,.318-.77c-.017-.184-.2-.318-.4-.4-.1-.031-.1-.212-.136-.352-.065-.267-.424-.367-.485-.6-.066-.212.2-.452.051-.67-.051-.083-.213-.083-.285-.151-.167-.1,0-.335.017-.519.049-.469-.424-.554-.772-.753-.318-.185-.051-.67.168-.991.034-.048.051-.167-.034-.2a3.349,3.349,0,0,0-1.266-.157c-.374,0-.755-.038-1.126,0a.536.536,0,0,0-.374.143.468.468,0,0,1-.341.207.979.979,0,0,1-.441-.013c-.139-.064-.179-.246-.2-.382s-.212-.252-.352-.252a34.89,34.89,0,0,0-3.771.1c-.066,0-.116.133-.15.117a2.663,2.663,0,0,0-.6-.083c-1.374.049-2.757-.068-4.14.066-.065,0-.133.1-.167.212-.535-.318-1.188-.117-1.775-.134-.236-.017-.212.3-.352.424a.485.485,0,0,1-.687,0,.478.478,0,0,1-.134-.251c-.034-.2.235-.252.252-.437a4.274,4.274,0,0,0-.587-1.826.181.181,0,0,0-.151-.1c-.252-.017-.636.1-.6-.212A1.109,1.109,0,0,0,79.651,22c-.1-.085-.085-.252-.151-.335a2.227,2.227,0,0,0-.789-.587c-.138-.081-.345.145-.457-.054-.059-.1.1-.263-.018-.332a1.94,1.94,0,0,0-1.173-.234c-.068,0-.133-.068-.212-.084a1.271,1.271,0,0,0-1.06.235c-.068.051-.017-.437-.034-.619-.017-.119-.134-.212-.134-.321a2.8,2.8,0,0,0-.649-1.518c-.162-.207-.294-.549-.543-.67s-.346.194-.5.318c-.017-.287-.386-.153-.424-.437-.017-.185.252-.318.212-.469-.068-.284-.212-.452-.5-.452a4.112,4.112,0,0,1-1.474-.318,2.969,2.969,0,0,0-.956-.051,2.431,2.431,0,0,0-1.457.185c-.017-.034-.066-.134-.083-.134a2.353,2.353,0,0,0-.848.384.634.634,0,0,0-.424.386c-.034.1-.185.051-.3.068a.284.284,0,0,1-.116.25c-.186.132-.407-.028-.6.047a2.158,2.158,0,0,0-.285.18.73.73,0,0,0-.268.225.636.636,0,0,0-.068.7.115.115,0,0,1-.051.151c-.184.1-.486-.017-.6.1a1.572,1.572,0,0,0-.27.67,3.286,3.286,0,0,0-.25,1.173Z" style="fill:#fbce33"/><path d="M73.5,20.405c.017-.017.017-.033.034-.033.235-.213.605.033.8-.213a.672.672,0,0,0,.167-.3c0-.25-.366-.117-.5-.318a3.348,3.348,0,0,0-.719-.937c-.352-.253-.755-.336-1.124-.62-.185-.135-.168-.488-.352-.454-.335.068-.318.5-.367.8a.592.592,0,0,1-.287.454C72.209,19.182,73.466,19.014,73.5,20.405Z" style="fill:#ffe934"/><path d="M79.131,26.287c-.186-.262-.536-.034-.776-.13s-.215-.513-.146-.708a.943.943,0,0,0,0-.571c-.049-.212-.3-.451-.134-.7-.1.015-.151-.2-.267-.051-.253-.587-.957-.738-1.241-1.289-.134.083-.3.182-.424.134a1.294,1.294,0,0,0-1.089.225c-.249.183-.666.581-1.007.479-.386-.136-1.022-.335-.905-.872.034-.185.3-.252.335-.437a2.719,2.719,0,0,0,.068-.9c-.068-.352-.3-.755-.051-1.006-.032-1.391-1.29-1.24-2.346-1.609a.237.237,0,0,1-.116.034c-.369.084-.753-.083-1.061.033-.519.213-1.156.353-1.423.921-.068.119-.235.085-.3.167a1.7,1.7,0,0,1-.236.3.589.589,0,0,0-.251.5c-.01.254-.045.5-.067.751-.017.068-.084.134-.084.212-.017.134.184.1.184.151-.034.469.318.821.286,1.289-.068-.017-.152.017-.152.051a.684.684,0,0,1-.318.62c-.066.034-.1.133-.168.184-.185.151-.384,0-.585.034-.151.017-.168-.2-.285-.267a2.718,2.718,0,0,0-.47-.286,1.574,1.574,0,0,0-.955-.034,9.1,9.1,0,0,0-1.408.453.731.731,0,0,0-.3.331,4.276,4.276,0,0,0-.535,1.29c-.03.511.164.952-.283,1.334-.166.142-.416.288-.48.512-.07.246.14.464.21.684.1-.034.184.085.25.034a2.049,2.049,0,0,1,1.525-.252,6.334,6.334,0,0,0,1.323,1.843.656.656,0,0,0,.5.152c0,.049-.017.117,0,.151a.126.126,0,0,0,.1.049c.035-.018.021-.064.049-.083.043-.031.224-.006.282-.01.174-.009.349-.024.523-.024a1.211,1.211,0,0,0,.9-.5,1.937,1.937,0,0,0,.2-.871c.017-.066-.082-.117-.067-.151a1.411,1.411,0,0,0-1.006-1.423c-.35-.1-.685.2-1.06.117-.236-.068-.168-.335-.119-.452a2.459,2.459,0,0,1,1.794-1.326,1.239,1.239,0,0,1,1.19.369c.083.1.2-.1.3-.116.335-.068.537.25.787.424.437.318.5.848.8,1.292.034.031.136-.136.168-.2a2.711,2.711,0,0,1,.687-.988,4.3,4.3,0,0,1,1.022-.653A1.934,1.934,0,0,1,73.9,25.36a3.816,3.816,0,0,1,.849.2,1.251,1.251,0,0,1,.848,1.358c-.051.15-.286-.083-.469-.134a1.161,1.161,0,0,0-.536-.051,1.879,1.879,0,0,0-.906.5c-.051.034.017.184-.034.235a1.489,1.489,0,0,0-.435.821,2.091,2.091,0,0,0,.052.459c.007.045.036.148.01.184-.012.015-.079.022-.079.044.017.185.2.117.3.185.167.1.118.352.252.424a1.691,1.691,0,0,0,1.323.352c.654-.168,1.375-.369,1.591-1.105,0-.017.2-.085.2-.119.034-.25.085-.452.353-.486a.982.982,0,0,1,.033-.786c.151-.336.569-.336.938-.3.235.017.486.213.738.168C79.4,27.158,79.362,26.571,79.131,26.287Z" style="fill:#fff"/><path d="M64.584,21.629a2.229,2.229,0,0,0-1.272.3c-.051.034-.134.168-.1.236.066.15,0,.3.066.35.318.286.67-.3,1.039-.168a2.4,2.4,0,0,0,.821.236c.149,0,.088-.257.038-.317-.071-.088-.208-.156-.172-.292.034-.119.083-.253-.017-.3a.7.7,0,0,0-.4-.049" style="fill:#ffe934"/><path d="M61.568,24.208a1.777,1.777,0,0,0,.185-.424c.034-.151-.212-.318-.335-.284-.268.082-.049.424-.168.67-.066.151-.233.212-.3.335a1.684,1.684,0,0,0-.034,1.307c.034.082.252.184.3.352a.694.694,0,0,0,.083.2c.085.168.335.032.386-.068.185-.318-.2-.553-.318-.848a1.49,1.49,0,0,1,.2-1.224" style="fill:#ffe934"/><path d="M75.242,22.2a1.66,1.66,0,0,1,1.289.034c.017-.034.051-.066.051-.1a.244.244,0,0,0-.151-.212,1.962,1.962,0,0,0-.7-.134,6.76,6.76,0,0,0-1.173.017.848.848,0,0,1-.184.719,6.044,6.044,0,0,1,.871-.335" style="fill:#ffe934"/><path d="M78.726,24.058a1.482,1.482,0,0,1-.167.1c.352.3.3.787.57,1.156.017.034.1.083.117.134.051.133.034.318.133.4.085.049.236-.1.352.015a.2.2,0,0,0,.051-.168c-.068-.15-.212-.25-.235-.384-.066-.587.051-1.442-.636-1.626-.051.017.034.252-.185.369" style="fill:#ffe934"/><path d="M72.9,26.454c.116-.051.335-.167.267-.352-.1-.25-.551-.67-.52-.469.051.318-.534.554-.735.736a2.441,2.441,0,0,0-.27.321c-.133.182-.35.383-.267.619.068.2.352.25.4.486.032.167-.318.553-.286.752a1.665,1.665,0,0,0,.424.838,2.356,2.356,0,0,1-.017-1.557.561.561,0,0,1,.585-.468c.085,0,.168-.1.153-.136-.136-.134-.335-.267-.236-.424a1.312,1.312,0,0,1,.5-.335" style="fill:#ffe934"/><path d="M68.926,29.973c.212-.369.031-.838.434-1.139.068-.051.1-.151.051-.2a.909.909,0,0,1-.286-.721.578.578,0,0,0-.2-.469c-.085-.067-.2.034-.185.134a5.883,5.883,0,0,0,.1.94c.15.4-.212.619-.6.636.017.208-.22.175-.278.321s.225.172.3.264a.3.3,0,0,1-.034.369,4.258,4.258,0,0,1-.755.7c-.048.051.185.285.236.285.335.051.553-.425.954-.425-.066-.267.134-.451.27-.687" style="fill:#ffe934"/><path d="M72.913,30.14a.374.374,0,0,0-.485.21v0c.335.066.4.469.267.753.151.051.352.212.469.051.034-.051-.017-.15.017-.2a.5.5,0,0,1,.533-.178c.217.036.379.216.591.245a.416.416,0,0,0,.367-.67c-.2.185-.469.051-.7.034-.335-.034-.6.066-.823-.286-.032-.1-.117.085-.233.051" style="fill:#ffe934"/><path d="M65.925,30.944a.4.4,0,0,1-.285.3,1.033,1.033,0,0,1-1.238-.424c-.051-.068-.153-.068-.185-.117a4.232,4.232,0,0,0-.424-.5c-.083-.1-.318,0-.452-.136-.068-.066-.2-.083-.212-.2-.125.062-.108.1-.1.249a.436.436,0,0,0,.115.319c.085.068.335-.017.386.051a3.177,3.177,0,0,0,1.909,1.289c.051.017.068.168.119.185.233.068.485-.083.753,0a.145.145,0,0,0,.051-.134c-.088-.173-.3-.337-.218-.551.047-.128.263-.249.194-.4a.225.225,0,0,0-.284-.1c-.085,0-.119.085-.136.168" style="fill:#ffe934"/><path d="M77.973,28.1c-.269.252-.3.653-.687.772-.134.031-.017.335.083.267.212-.134.485-.034.636-.212.068-.066.1-.2.185-.233.252-.1.553.048.788,0,.151-.034.2-.336.336-.488-.287-.049-.588.068-.849-.015-.119-.051-.212-.252-.386-.185-.034-.017-.068.032-.1.083" style="fill:#ffe934"/><path d="M78.945,29.856c-.253.134-.185.424-.253.568a2.915,2.915,0,0,0-.233,1.525,3.089,3.089,0,0,0,.585,1.485,2.684,2.684,0,0,0,.424.536c.2.176.418-.032.627-.033.164,0,.384.154.512-.017s-.184-.35-.284-.319a.794.794,0,0,1-1.09-.2,3.176,3.176,0,0,1-.335-1.508c-.034-.4-.083-.888.252-1.141.212-.15.6-.267.469-.568a1.74,1.74,0,0,0-.335-.622c-.117-.116-.185.212-.335.287" style="fill:#ffe934"/><path d="M77.5,31.7a8.083,8.083,0,0,1-2.479.92c-.034.017.017.119.051.134a2.07,2.07,0,0,1,.721.212c.284.212.568.335.848.52a3.133,3.133,0,0,1,.7.424c.352.352.872.872,1.324.52.136-.1-.134-.367-.267-.552-.051-.068.017-.184-.034-.252a5.708,5.708,0,0,1-.352-1.256c-.049-.136.1-.269.067-.369-.05-.235-.1-1.107.034-1.06-.1-.034-.352.536-.621.738" style="fill:#fff"/><path d="M70.283,30.238a4.946,4.946,0,0,1-1.158,1.7c-.117.119-.318.136-.452.253-.034.034.017.133.051.133a15.1,15.1,0,0,1,1.726-.133c.838.034,1.676.2,2.529.25.017,0,.05-.083.05-.083a7.589,7.589,0,0,1-1.357-1,6.508,6.508,0,0,1-.536-.636,2.788,2.788,0,0,1-.209-.446c-.048-.113-.109-.345-.233-.4-.184-.08-.366.24-.411.373" style="fill:#fff"/><path d="M83.082,27.375c.151.017.335.067.425-.066.116-.185.082-.486.25-.605.519-.335,1.124-.014,1.7-.1a5.1,5.1,0,0,1,.872-.068.6.6,0,0,1,.5.212c.1.151-.168.369-.068.553.136.251.269.469.4.722.034.065.068.212-.034.25-.369.1-.872.116-1.005.424-.083.182-.017.452-.212.687-.015.015.034.066.05.1a6.16,6.16,0,0,0,.872-.469c.168-.15.386-.437.687-.386.251.051.424.3.7.267a.843.843,0,0,0,.213-.1c-.017-.034-.032-.1-.049-.1a1.213,1.213,0,0,1-.789-.721c-.032-.051.034-.424.1-.424.468-.032.736.57,1.272.837.3.151.486.136.469.068-.066-.184-.938-.57-1.372-1.022a1.753,1.753,0,0,1-.454-1.173c-.034-.235-.369.212-.62.134-.05-.017.134-.185-.017-.233-.738-.213-1.507.082-2.26-.185-.321.4-.957.267-1.409.117-.116-.034-.335-.034-.335.034.083.451-.167,1.005-.636.988-.085,0-.184.1-.136.134.185.269.588.1.889.116" style="fill:#ffe934"/><path d="M85.763,29.705c.017-.05.151-.167.168-.212a.939.939,0,0,0-.212,0,.213.213,0,0,0-.213.2c0,.318-.1.67-.436.753.118.269-.168.5-.1.8.034.118.15.252.2.235.189-.055.126-.278.148-.422a1.921,1.921,0,0,1,.3-.617.5.5,0,0,1,.253-.185.632.632,0,0,1-.119-.551" style="fill:#ffe934"/><path d="M89.048,30.14c.021.082,0,.174.085.22.063.032.186-.034.233.026.168.234.336.212.537.384a1.541,1.541,0,0,1,.452,1.156.156.156,0,0,0,.3.051.846.846,0,0,1,.369-.435c.15-.123-.32-.338-.352-.42a2.678,2.678,0,0,0-1.542-1.508c-.051-.017.017.3-.2.386a.265.265,0,0,1,.118.151" style="fill:#ffe934"/><path d="M90.287,26.119c-.185-.017-.486-.068-.5.151-.017.386.554.252.8.167a7.342,7.342,0,0,0,.772-.212c-.269-.352-.738-.083-1.073-.117" style="fill:#ffe934"/><path d="M92.766,26.17a4.228,4.228,0,0,0-.636-.051c-.121.008-.7-.174-.689.068,0,.158.373-.014.473.134.233.318-.1.687.065.92.085.134.452-.034.654.185.017.016.084-.034.084-.051A.442.442,0,0,1,93,26.857c.437-.2.871.117,1.257.3.251.117.384-.4.67-.536l-.05-.1a1.588,1.588,0,0,1-1.358-.034,1.7,1.7,0,0,0-.755-.318" style="fill:#ffe934"/><path d="M81.926,33.508c.068.168.051.424.2.585a.212.212,0,0,0,.352-.065c.034-.068.787-.352.6-.386-.4-.083-1.06.485-.937-.168A1.085,1.085,0,0,1,81.926,33.508Z" style="fill:#ffe934"/><path d="M89.8,32.721c-.017-.017-.066,0-.1,0a5.318,5.318,0,0,0-.1-1.022c-.049-.318-.3-.537-.284-.848-.369.212-.554-.369-.872-.4-.034,0-.185.051-.212.051-.586-.168-.972.235-1.457.451a.235.235,0,0,1-.267-.048c-.185.318-.5.619-.486.971,0,.2,0,.424.017.653a1.1,1.1,0,0,0,.534.8c.119.1-.017.185,0,.267.017.051.017.136.1.1,0,.083.017.168-.051.212-.212.168-.435-.051-.636-.1-.085-.017-.134.085-.212.051a2.56,2.56,0,0,1-1.224-1.073,1.437,1.437,0,0,0-.1-.3c-.468-.6-.25-1.256-.212-1.894.017-.212.236-.367.335-.568.051-.1.151.1.253.184.066.066.184-.034.184-.136-.017-.2-.167-.424-.118-.585A.738.738,0,0,1,85.18,29a2.622,2.622,0,0,0,.736-.553c.017-.017-.017-.083-.049-.083a3.653,3.653,0,0,0-1.124.015,2.329,2.329,0,0,1-.753.184c-.636-.048-1.258.051-1.877-.048a.458.458,0,0,1-.25-.369c-.017-.319-.471-.27-.605-.051-.1.167-.212.167-.318.284-.051.051.034.212.1.286a1.3,1.3,0,0,1,.386.552c.1.487-.335.848-.5,1.272-.028.084-.118.033-.167.075s-.029.125-.021.193c.016.123.075.359-.1.4a1.334,1.334,0,0,0-.553.168c-.068.051.15.068.133.184a.342.342,0,0,1,.352.212c.134.469.117,1.006.605,1.29.082.051.031.212.116.25.185.1.386.034.5.119a.5.5,0,0,1,.117.151.8.8,0,0,1,.212-.034v-.017c.034-.168.25-.151.4-.185a1.6,1.6,0,0,0,.971-.92c.034-.085.384-.051.369.184a6.4,6.4,0,0,1,.015.8,5.543,5.543,0,0,1-.182.753,2.541,2.541,0,0,1-.588.906c-.134.133-.386-.017-.5.133-.15.236-.386.253-.57.335a2.973,2.973,0,0,1-1.389.1c-.168-.015-.335-.151-.486-.168-.286-.014-.1.287.015.4a7.356,7.356,0,0,0,1,.671c.034.017,0,.1.017.15.034.185.253.185.352.253a5.072,5.072,0,0,1,1.508,1.7c.109.179-.169.366-.018.539a1.42,1.42,0,0,0,.3.175.589.589,0,0,1,.254.292c.017.033.133-.032.184.067.318.588.62,1.156.972,1.727.167-.94-.319-2.246.7-2.8a.356.356,0,0,1-.151-.424A6.633,6.633,0,0,1,86.446,36.4c.05-.05.143,0,.2-.042.078-.057.076-.21.119-.293a8.89,8.89,0,0,1,1.408-1.326c.107-.093.171-.222.267-.323.13-.137.237-.11.409-.115.323-.009.068-.315.213-.5a5.232,5.232,0,0,1,.384-.469c.051-.051.184-.085.235-.133C89.784,33.056,89.948,32.872,89.8,32.721Z" style="fill:#fff"/><path d="M92.047,42.505c.034.212.212.335.234.536a1.1,1.1,0,0,1-.151.654c-.017.034.085.1.134.084A1.947,1.947,0,0,0,93.555,42.3c.52-.335.2-.988.3-1.508,0-.017-.068-.051-.082-.051-.085.066-.253.083-.212.2.065.212.212.4.116.585-.235.536-.553,1.323-1.257,1.156a.317.317,0,0,1-.234-.352c-.068.034-.116.1-.184.135C92.047,42.488,92.047,42.488,92.047,42.505Z" style="fill:#ffe934"/><path d="M95.716,31.884a6.658,6.658,0,0,1-.619-.27,2.472,2.472,0,0,1-.848-.568.642.642,0,0,1-.012-.74c.124-.147.412-.1.5-.282a3.856,3.856,0,0,1,.6-.789c-.017-.083-.284-.234-.234-.6.032-.284.285-.284.5-.4.185-.1.185-.519-.1-.551-.384-.051-.485.352-.77.551-.212.151-.485.1-.755.151-.848.119-1.641-.134-2.53.034-.15.034-.284.133-.424.051-.284-.185-.554-.085-.872-.134-.017,0-.051.083-.051.083a6.508,6.508,0,0,1,1.71,1.442c.2.284.536.585.4.988-.034.1.133.117.083.268.424.118.335.636.352.971.017.212-.336.153-.369.286a.993.993,0,0,0,.152.7c.168.318-.034.671-.152.989a1.816,1.816,0,0,1-.8,1.122c-.051.017-.066.25.034.386-.452.284-.7.786-1.173,1.022-.063.029-.074.1-.108.156a.365.365,0,0,1-.147.12c-.128.081-.2.2-.316.292a5.4,5.4,0,0,1-.619.318c-.134.085-.068.3-.184.454-.066.1-.213.117-.268.212a1.725,1.725,0,0,1-.621.637c-.2.135-.134.352-.083.6a4.036,4.036,0,0,1-.235,1.44c-.032.168-.267.051-.352.168-.09.1.194.111.2.118a3.36,3.36,0,0,1,.848,1.273c.034.068.134-.083.185-.068.284.1.537.352.821.424.068.017.212-.017.3,0,.269.068.5.284.755.212a5.892,5.892,0,0,0,1.256-.485c.05-.034.184-.068.235,0,.068-.034.117-.1.184-.136,0-.032.017-.066.017-.1a6.562,6.562,0,0,1,.435-.67A2.764,2.764,0,0,0,93,40.418a2.385,2.385,0,0,0-.989-2.062c.068-.636.77-.082,1.19-.1-.017.032-.051.066-.051.1.051.213.212.236.369.117.2.352.738.52.7.974.4.15.486.585.569.971.017.049-.151.134-.066.184.424.251.151-.519.424-.653.085-.051.27-.119.212-.212-.133-.235-.352-.424-.386-.653-.082-.653-.017-1.292-.065-1.928a3.182,3.182,0,0,1-.034-.8c.082-.386-.2-.988-.051-1.374.068-.168.437-.267.67-.2-.045-.042-.038-.161-.1-.182s-.181.1-.269.083a2.33,2.33,0,0,1-.971-.5.971.971,0,0,1-.353-.787.713.713,0,0,1,.287-.424,13.984,13.984,0,0,0,1.59-.838C95.816,32.051,95.816,31.9,95.716,31.884Z" style="fill:#fff"/><path d="M86.13,42.857c.469.134.636.636,1.039.922.267.185.787.285.753-.1-.017-.285-.5-.268-.636-.552-.066-.135.051-.4-.083-.437-.3-.082-.636-.082-.838-.369A1.532,1.532,0,0,1,86.13,41.1c.051-.212-.034-.454.117-.687.084-.151-.168-.454-.134-.722.017-.116.269-.738.168-.653,0,0-.4.469-.62.424-.112-.023-.324-.209-.437-.167-.073.027-.081.185,0,.212.253.068.253.269.287.4a1.194,1.194,0,0,1-.017.636,1.542,1.542,0,0,0,.386,1.307c.167.235-.136.453-.386.6-.068.032.082.185.034.3l-.051.051c.068.1.133.2.212.318a.339.339,0,0,1,.388-.282A.316.316,0,0,1,86.13,42.857Z" style="fill:#ffe934"/><path d="M92.885,49.073a1.583,1.583,0,0,0-.318-1.525c-.111-.135-.373-.1-.506-.231-.112-.107-.093-.347-.232-.418a3.908,3.908,0,0,0-1.423-.7c-.068-.017-.119-.15-.168-.167-.119-.049-.286.1-.424.067a7.108,7.108,0,0,1-1.625-.57.676.676,0,0,1-.369-.486.485.485,0,0,1-.434.034c-.336-.082-.52-.352-.789-.553a3.47,3.47,0,0,1-.8-.9.691.691,0,0,1-.083-.485,3.754,3.754,0,0,0-.212-.319c-.167.074-.039.343,0,.481a1.122,1.122,0,0,1,.095.525c-.034.25-.52.182-.719.4-.017.016.048.167.082.167a1.8,1.8,0,0,1,.724.092.727.727,0,0,1,.432.508,17.641,17.641,0,0,1,.359,1.9.486.486,0,0,1-.168.424.784.784,0,0,1-.519.133c-.1,0-.185-.2-.251-.051-.051.119-.085.353.049.4.318.134.721.034.94.369.167.268.034.569.048.849a2.257,2.257,0,0,1-.065.267c-.117.971.034,1.894-.017,2.681,0,.034-.068.068-.085.133a2.283,2.283,0,0,0-.015.437c.083.083.168-.536.182-.519a2.281,2.281,0,0,1,.889-.94c.3-.2.7-.116,1-.352a1.3,1.3,0,0,1-.284-1.122,2.182,2.182,0,0,1,.3-.738c.134-.233.469-.335.637-.486a1.048,1.048,0,0,1,1-.318.161.161,0,0,1,.051.2c-.253.335-.486.755-.253,1.139a1.857,1.857,0,0,0,.4.454,2.052,2.052,0,0,0,.62.349,1.421,1.421,0,0,0,1.24-.15,1.207,1.207,0,0,0,.452-.535c.034-.118.286,0,.335-.118C92.985,49.309,92.834,49.19,92.885,49.073Z" style="fill:#fff"/><path d="M86.836,37.661a3.386,3.386,0,0,1,1.29-1.406c.133-.1.184-.3.335-.4a7.9,7.9,0,0,0,1.34-.972,1.426,1.426,0,0,0-.67.066,3.942,3.942,0,0,0-.988.755c-.316.263-.528.622-.838.9-.051.032-.151,0-.212.066-.083.1-.034.212-.066.318-.051.134-.184.2-.286.3a2.74,2.74,0,0,0-.52.849.664.664,0,0,0,.153.653,5.05,5.05,0,0,1,.452-1.122" style="fill:#ffe934"/><path d="M90.287,43.6a5.549,5.549,0,0,0-.537.469,2.623,2.623,0,0,0,1.292-.1c-.212-.252-.212-.687-.5-.755-.1-.034-.068.27-.252.386" style="fill:#ffe934"/><path d="M91.275,45.992c.318.233.872.167.906.6.212-.051.4-.1.536.117a1.077,1.077,0,0,1,.134.755c0,.175.143.2.283.225.177.036.294.1.339.284.025.1,0,.4.132.445s.218-.172.351-.083a2.637,2.637,0,0,0,.269.151.988.988,0,0,0-.2-.989,2.912,2.912,0,0,1-.318-.32A3.728,3.728,0,0,0,92.3,45.924a2.116,2.116,0,0,1-.25-.268c-.068-.05-.212.015-.286-.033a2.3,2.3,0,0,0-.4-.335c-.053-.029-.162-.086-.225-.067-.024.008-.077.083-.081.083a.956.956,0,0,1-.7-.1c-.134.184.184.286.066.5-.015.034.084.085.152.085a1.106,1.106,0,0,1,.7.2" style="fill:#ffe934"/><path d="M93.606,49.576c-.2.15-.471-.151-.721-.066-.017,0-.017.1,0,.151.083.15.318.267.184.4A2.834,2.834,0,0,1,91.7,51c-.2.049-.4-.1-.587-.034-.151.051,0,.25.051.267a2.237,2.237,0,0,0,1.809-.568c.145-.1.162-.3.308-.4.181-.131.359-.007.546-.07.319-.083.319-.5.352-.821.017-.117.236-.184.213-.318-.017-.369-.287-.25-.571-.233-.1,0-.184-.1-.212-.2a.627.627,0,0,0-.1.051.273.273,0,0,0,0,.2c.151.253.3.554.1.705" style="fill:#ffe934"/><path d="M87.924,51.7c.212-.117.4-.151.6-.25.1-.051.284.1.284-.017-.017-.369-.469-.424-.77-.352-.244.061-1.189.372-.953.79.142.252.663-.083.828-.171" style="fill:#ffe934"/><path d="M93.689,44.235a1.48,1.48,0,0,1-.588.435c-.065.034-.182.119-.1.185a2.165,2.165,0,0,0,.67.424c.085.034.116.233.184.267.452.168.654.571.938.906.085.1-.1.233-.066.3.066.151.284-.068.369.167.017.034.117.017.134-.05.082-.212-.168-.5.1-.671.085-.048-.065-.133-.082-.2-.036-.728-.034-1.454-.053-2.182-.017-.648-.106-1.293-.132-1.941a4.486,4.486,0,0,1-.838,1.826c-.1.119-.335.168-.437.318a.476.476,0,0,1-.1.212" style="fill:#fff"/><path d="M96.1,35.3c-.1-.017-.235-.034-.252.051a12.025,12.025,0,0,0-.051,2.312,2.38,2.38,0,0,0,.136.772c.017.015.031-.537.048-.554.168-.3-.116-.67.119-.905.032-.034.117-.034.134,0,.4.587-.2,1.408.352,1.86.017.017.082-.017.082-.051a6.432,6.432,0,0,0-.133-1.608c0-.017.085-.034.085-.051a3.786,3.786,0,0,0-.236-1.925c-.034-.085-.15.116-.284.1" style="fill:#ffe934"/><path d="M96.151,40.429a.3.3,0,0,0-.2.3c.049.77.116,1.542.1,2.311a8.079,8.079,0,0,0-.116.923,3.012,3.012,0,0,1,.083.534c-.017.168-.2.353-.117.471a2.169,2.169,0,0,0,.352.424c.134.1.117-.116.2-.133.336-.068.719.051.8-.386.017-.1.049-.267-.051-.3-.212-.068-.369-.2-.386-.352-.133-1.392-.048-2.757-.15-4.138-.088.088-.2-.028-.291.072s-.081.227-.225.263" style="fill:#ffe934"/><path d="M96,46.392c-.066.134.118.168.133.27a6.8,6.8,0,0,1,.017,1.556,2.317,2.317,0,0,1-.049.821c-.068.168.185.335.049.537a1.208,1.208,0,0,1,.437.7c.034-.017.1-.034.1-.051a6.084,6.084,0,0,0-.1-1.826c-.034-.117-.2-.117-.2-.212a21.875,21.875,0,0,0-.117-2.757c-.119.25-.151.77-.269.971" style="fill:#ffe934"/><path d="M95.515,33.19a4.464,4.464,0,0,0-.477.017c-.034,0-.034.066-.068.1.184.034.269.235.437.252a3.765,3.765,0,0,1,.753.066c.084.034.118.133.212.15.352.017.335-.384.738-.519.367-.117,1.457.119,1.06-.151a1.814,1.814,0,0,0-.848,0c-.35.068-1.156.486-1.307-.15a1.273,1.273,0,0,1-.485.235" style="fill:#ffe934"/><path d="M96.151,30.728a.608.608,0,0,1-.267-.5c.012-.061-.149.056-.165.07-.079.068-.174.165-.155.276.038.217.406.338.587.307.085-.017.286.117.424.134a.211.211,0,0,0,.212-.1c-.084-.066-.424-.049-.636-.182" style="fill:#ffe934"/><path d="M88.126,52.961a1.39,1.39,0,0,0-.586.424,5,5,0,0,0-.485,1.205c-.034.1-.287-.151-.454-.268-.1-.068-.185-.335-.25-.267-.3.318-.151.954-.671,1.188-.051.017.1.2.151.335a2.431,2.431,0,0,1,.92-.083,1.483,1.483,0,0,0,.27-.068c.369-.065.687.236,1.071.185a2.169,2.169,0,0,0,.806-.168c.435-.233.954-.468,1.037-1.005.6.068.67.821.67,1.292a1.375,1.375,0,0,1-.551,1.02c.318.553.988.823,1.071,1.508.235-.1.184-.4.235-.586a1.754,1.754,0,0,1,.424-.837c.085-.068.3-.051.386-.151.1-.134-.051-.386.051-.5a2.574,2.574,0,0,1,.736-.536,2.5,2.5,0,0,1,1.444-.382c.185.017.369.235.586.168.184-.049.437-.185.352-.425a1.764,1.764,0,0,0-.335-.57.6.6,0,0,0-.4-.212.846.846,0,0,1-.52-.151.768.768,0,0,1,.049-1.19c.454-.267,1.19-.367,1.173-.937-.017-.424.119-.821.085-1.241-.017-.133.1-.3.1-.424a.521.521,0,0,0-.352-.424c-.017-.017-.065.034-.1.051a.888.888,0,0,1-.117,1.122c-.034.034-.151,0-.2.068a1.532,1.532,0,0,1-1.19.848c.034.134-.085.25-.134.3a.871.871,0,0,1-1.207.085c-.051.517-.67.452-1.073.469-.034,0-.1-.085-.167-.085q-1.18.051-2.363,0c-.032,0-.066.085-.117.085a1.316,1.316,0,0,0-.352.133" style="fill:#fff"/><path d="M84.433,54.628a.248.248,0,0,0-.1-.337.207.207,0,0,0-.034-.015c-.168-.034-.335.286-.537.133-.051.287-.133.571-.167.849,0,.067-.117.067-.134.118-.034.151.184.134.235.212a.652.652,0,0,1-.084.486c-.034.1.05.212.1.32.437-.4,1.039-.453,1.542-.772.034-.017.034-.15,0-.184-.2-.185-.469.1-.67-.034-.284-.2-.25-.486-.151-.787" style="fill:#ffe934"/><path d="M96.688,51.268a2.382,2.382,0,0,0-.017-.485c0-.034-.066-.068-.1-.051-.352.133-.386.553-.4.848-.017.2.3.284.5.168-.117-.151.034-.319.017-.486" style="fill:#ffe934"/><path d="M96.27,53.48c-.108-.121-.1-.324-.218-.433s-.168.054-.268.115c-.269.151-.621-.068-.838.134a.193.193,0,0,0,.134.335,2.208,2.208,0,0,1,1.357.653c.151.168.569-.034.849,0,.182.017.367-.133.534,0,.212-.3.588-.352.821-.568.1-.1-.168-.337-.2-.3a1.485,1.485,0,0,1-2.095.147,1.033,1.033,0,0,1-.083-.079" style="fill:#ffe934"/><path d="M96.756,55.423c-.185.085-.554-.017-.486.119a2.347,2.347,0,0,0,.9.838c.212-.319.637-.5.7-.872.016-.051-.2-.134-.336-.134a1.576,1.576,0,0,0-.786.049" style="fill:#ffe934"/><path d="M82.915,57.618c-.066.2-.267.335-.3.554-.068.318-.268.57-.236.905.017.083-.066.134-.15.168.034.049.068.1.051.15a1.839,1.839,0,0,0-.117,1.239,3.52,3.52,0,0,0,.92,2.121c.051.032.034.167-.034.25.168.068.253.284.386.284.755.068,1.19.789,1.945.94.015,0,.049-.085.049-.085-.168-.168-.168-.4-.335-.52-.653-.485-1.156-1.005-1.758-1.524-.185-.168-.454-.117-.554-.336a5.736,5.736,0,0,1-.212-2.025c-.017-.235.352-.352.554-.2.167.133-.034.485.133.536.287.083.134-.386.369-.553-.7-1.091.6-2.011,1.392-2.647l-.051-.1c-.352.252-.889.184-.921-.318a6.176,6.176,0,0,0-.5.468,1.386,1.386,0,0,0-.622.688" style="fill:#ffe934"/><path d="M86,56.4c-.319.182-.671.065-.972.267-.136.09,0,.151.087.139.137-.018.255-.1.4-.071a1.293,1.293,0,0,1,.67.468c.034.034.134-.017.134-.051a.7.7,0,0,1,.6-.653c-.117-.57-.619-.284-.92-.1" style="fill:#ffe934"/><path d="M91.142,64.606a.207.207,0,0,1-.066-.135c0-.688-.119-1.358-.068-2.043a1.012,1.012,0,0,0-.117-.386c-.017-.051.083-.15.066-.2-.083-.2.068-.386.051-.537-.117-.585.034-1.105-.034-1.675,0-.017-.066-.034-.1-.049a2,2,0,0,1-.926,1.156c-.083.049-.336.083-.319-.017a1.736,1.736,0,0,0,0-.972c-.267-.587-.67-1.272-1.374-1.357-.066,0-.083-.136-.117-.136-.32-.049-.636-.128-.956-.173a2.981,2.981,0,0,0-.887.159,1.771,1.771,0,0,0-1.189.988,2,2,0,0,0,.772,2.479,22.6,22.6,0,0,0,2.695,1.676,8.343,8.343,0,0,1,1.894,1.374c.168.168.236.5.437.486.083,0,.117-.151.233-.2C91.108,64.874,91.059,64.757,91.142,64.606Z" style="fill:#fff"/><path d="M92.968,72.379c-.087-.32-.628-.153-.859-.223a.317.317,0,0,1-.241-.365c.05-.218.319-.34.514-.383.017-.452.049-.889.1-1.34.017-.134-.168-.083-.151-.151a1.469,1.469,0,0,0,.085-.168c.015-.1-.1-.167-.051-.267a.652.652,0,0,0,.066-.386,20.732,20.732,0,0,1,.051-2.263c.017-.167.252-.212.252-.367a5.36,5.36,0,0,0-.369-1.308A2.909,2.909,0,0,1,92.4,63.6c.017-.068-.085-.184-.118-.269-.049-.168.2-.335.15-.469-.1-.267-.3-.7-.032-.954.049-.051-.1-.253-.184-.486a1.836,1.836,0,0,1-.068-.4c-.155.218-.068.325.026.531a.252.252,0,0,1-.194.389c-.167.017-.434-.048-.434.051-.02.488,0,.976.01,1.463q.012.348.02.7c0,.165.073.467-.149.522a.39.39,0,0,1-.335-.066.423.423,0,0,0,.017.4.211.211,0,0,1,.15-.017c.119.034.2.1.2.212.034.268-.117.52-.1.755a1.2,1.2,0,0,0,.233.62,2.009,2.009,0,0,1,.335.888c.051.384.336.753.213,1.1-.083.212.017.435-.017.6-.083.437-.168.837-.268,1.24-.15.62-.553,1.139-.7,1.744-.051.212.335.15.537.267.452.267.519.848.971,1.122a.554.554,0,0,0,.051-.1.989.989,0,0,1-.252-.553C92.493,72.547,93.036,72.615,92.968,72.379Z" style="fill:#ffe934"/><path d="M92.1,57.669c-.182.318-.25.67-.435,1.005a3.325,3.325,0,0,0-.133.637c-.034.116-.068.318.051.335.67.15.349.871.485,1.323.017.034.066.034.1.051a7.434,7.434,0,0,0,.252-1.943,1.079,1.079,0,0,1,.2-.789c.167-.167-.017-.519.1-.77a6.066,6.066,0,0,1,.77-1.206c.034-.051,0-.134-.048-.134-.253-.051-.425.185-.637.267-.082.034-.034.185-.116.253-.134.1-.486.017-.4.267.118.318-.066.486-.185.7" style="fill:#ffe934"/><path d="M97.761,57.132c.267-.318.585-.553.848-.848.9-1.06-.15-.049-.034-.083-.424.168-.653.62-1.139.637.017.212-.068.434.066.636a.108.108,0,0,0,.1,0c.083-.1.066-.233.15-.335" style="fill:#ffe934"/><path d="M99.436,56.8a1.122,1.122,0,0,0-.636.5c.3.068.619-.066.921.1.067.032.212.049.235-.051a.571.571,0,0,1,.627-.508.558.558,0,0,1,.221.071,2.126,2.126,0,0,1,.67.554,10.17,10.17,0,0,1,.654,1.609.618.618,0,0,0,.1-.051c.051-.386-.051-.687-.017-1.022.034-.369-.352-.721-.619-1.022a1.762,1.762,0,0,0-.553-.4,2.34,2.34,0,0,0-1.224.051c-.151,0-.25.116-.384.167" style="fill:#ffe934"/><path d="M101.161,59.612a.488.488,0,0,0-.1-.049.638.638,0,0,0-.2.67c.085.3.27.5.085.849-.212.424.424.568.67.349a.528.528,0,0,0-.017-.585c-.016-.017-.084,0-.084-.017a.876.876,0,0,1-.083-.67.807.807,0,0,1,.619-.386c.068,0,.151.085.2.085a.378.378,0,0,0,.3-.4c-.017-.168-.212-.284-.3-.435-.168.151-.212.424-.435.537a.814.814,0,0,1-.655.048" style="fill:#ffe934"/><path d="M100.374,65.868c-.318-.184-.318-.67-.212-1.039a5.791,5.791,0,0,0,.155-1.856c-.013-.307-.035-.615-.051-.922q-.014-.24-.018-.48a1.315,1.315,0,0,1,.081-.371c.017-.184-.1-.318-.133-.485-.066-.27.235-.27.369-.437a.235.235,0,0,1-.2-.168c-.184-.719-.233-1.574-.954-1.875a1,1,0,0,0-1.258.284,2.161,2.161,0,0,0-.4,2.028,3.2,3.2,0,0,1,2.038,1.08.222.222,0,0,1,0,.2c-.4.588-1.073.721-1.609,1.09-.234.168-.168.6-.234.955a2.068,2.068,0,0,1-.5.988c-.1.117-.4.017-.537-.151a7.162,7.162,0,0,1-.553-.687,4.538,4.538,0,0,1-.386-1.34c-.586-.2-1.508-.284-1.574-1.022-.017-.213.267-.37.4-.554.352-.486,1.141-.335,1.559-.685a.941.941,0,0,0,.084-.738A2.084,2.084,0,0,0,95.4,58.327a.821.821,0,0,0-.838.1c-.05.034-.116.034-.15.068a2.944,2.944,0,0,0-.52,1.122c-.068.789,0,1.576-.051,2.363,0,.1-.212.118-.25.269-.051.267.151.4.233.6A5.708,5.708,0,0,1,94.007,65a.565.565,0,0,1-.25.424c-.051.034-.136-.034-.136-.034a.523.523,0,0,0,.026.74.529.529,0,0,0,.175.108,19.241,19.241,0,0,1,.051,2.63,9.341,9.341,0,0,1,.017,1.675c-.017.051.083.119.066.151-.066.335-.1.6.153.772.424.284.9.369,1.06.9.034.118.212.135.3.235a.424.424,0,0,1,.034.5,1.178,1.178,0,0,1-.988.468c-.212,0-.568.386-.352.437a18.167,18.167,0,0,0,3,.083c.068,0,.15.085.212.085a9.167,9.167,0,0,0,1.508-.085c.352-.051.787.167,1.105-.083.085-.068-.083-.212-.151-.269-.338-.221-.929-.516-.778-1.013.157-.518.744-.79,1.215-.947-.1-.838.083-1.675-.017-2.53-.017-.117.318-.168.212-.3a1.188,1.188,0,0,1-.235-1.107c.1-.5-.212-1.088,0-1.525a.419.419,0,0,1,.212-.168,1.707,1.707,0,0,0-.034-.284Z" style="fill:#fff"/><path d="M101.5,66.969c-.1-.136-.049-.352-.066-.52a2.378,2.378,0,0,1-.1-.755c.034-.3.424-.369.471-.553a1.549,1.549,0,0,0-.185-1.457c-.1-.117-.4-.068-.6-.151a1.837,1.837,0,0,0,0,1.122,1.227,1.227,0,0,1,.034.974.574.574,0,0,1-.6.25c.017.1.017.184.034.284a.45.45,0,0,1,.615.161l.021.041a.647.647,0,0,1-.033.437,1.826,1.826,0,0,0-.074.5,6.412,6.412,0,0,0-.012,1.159c.017.117-.182.185-.2.267-.051.212.212.352.3.537.25.568,0,1.207.133,1.809.051.212.051.536.336.653A15.247,15.247,0,0,0,101.581,70c.082-.637-.168-1.273-.051-1.926.017-.068.133-.117.133-.212a1.027,1.027,0,0,1,.168-.653A.65.65,0,0,1,101.5,66.969Z" style="fill:#ffe934"/><path d="M100.842,72.581c-.133.116-.383-.017-.4.167a.893.893,0,0,0,.383.7c.3.233.554.468.849.7.119.1.286-.136.352-.287a1.9,1.9,0,0,1-.636-.384c-.034-.033-.034-.167,0-.184a3.117,3.117,0,0,1,1.709-.252c.017,0,.051-.066.051-.083-.108-.177-.359-.078-.507-.192-.057-.045-.184-.342-.265-.311-.435.185-.653-.133-.954-.252-.185-.066-.4.2-.588.369" style="fill:#ffe934"/><path d="M94.978,75.329a.32.32,0,0,0-.3.117.48.48,0,0,0,.117.554c.181.229-.214.435-.128.658.12.31.465-.149.48-.306.051-.335.051-.7.318-.721.687-.068,1.374.051,2.095-.085.068-.017.083-.083.117-.151-.9-.116-1.792.051-2.7-.066" style="fill:#ffe934"/><path d="M91.746,75.211c-.269.034-.52-.151-.738-.066-.117.043.072.307.051.4-.013.058-.218.223-.2.235.4.3.9.083,1.375.134a.148.148,0,0,0,.15-.1.514.514,0,0,0-.118-.5.674.674,0,0,0-.518-.1" style="fill:#ffe934"/><path d="M86.049,75.966a5.439,5.439,0,0,0-.755.017c-.017,0-.05.082-.05.082a1.441,1.441,0,0,0,1.022.253c.119.017.167-.151.252-.253.017-.017-.017-.082-.051-.082a1.719,1.719,0,0,0-.424-.017" style="fill:#ffe934"/><path d="M89.852,73.486a10.872,10.872,0,0,1-.954.654c.35.384.77.034,1.187.116a3.49,3.49,0,0,0,1.661-.116c-.52-.335-.772-.923-1.19-1.341a5.641,5.641,0,0,1-.7.687" style="fill:#fff"/><path d="M86.416,72.146a.676.676,0,0,0-.048-.1c-.051-.034-.136.017-.151.051-.068.369-.352.486-.655.537.233.575,1.037.1,1.442.25.066.034.133.185.212.168a2.386,2.386,0,0,0,.971-.469c0-.119-.132-.065-.2-.1-.134-.068-.151-.335-.212-.318-.424.015-1.122.67-1.358-.017" style="fill:#ffe934"/><path d="M88.8,71.675c-.117.085-.117.335,0,.369.437.1.537-.435.821-.687.184-.167.386-.486.252-.687-.1-.151-.386-.049-.6.017.212.454-.117.738-.469.988" style="fill:#ffe934"/><path d="M80.754,68.242a1.448,1.448,0,0,0-.469-.285c-.068-.034-.185-.017-.2.049-.033.185-.335.212-.25.286a3.078,3.078,0,0,1,.87,1.061c.051.119.017.352.118.335.213-.066.034-.367.821-.318-.3.017-.587-.787-.888-1.122" style="fill:#ffe934"/><path d="M81.888,69.4c-.1.021-.239-.031-.227.112.012.127.182.208.206.34a2.645,2.645,0,0,0,.789,1.391c.017.017.083-.017.083-.05.068-.213-.117-.367-.2-.52a2.479,2.479,0,0,1-.35-1.256c-.017-.1-.184-.051-.3-.017" style="fill:#ffe934"/><path d="M82.6,67.906c.15-.116.252-.369.084-.468-.118-.068-.386.116-.352.065.3-.619,1.273-.424,1.81-.048.133.1.4.352.167.468-.424.2-.889.435-.971.9a1.7,1.7,0,0,0,.034,1.224c.116.2.1.4.2.6.051.083.2.032.252.117a1.318,1.318,0,0,0,.5.5,4.467,4.467,0,0,0,.848.435,2.133,2.133,0,0,0,1.173.168,4.141,4.141,0,0,1,.424-.1c.068,0,.134-.068.212-.1.151-.066.3.119.425-.015.034-.051,0-.152.068-.2.15-.119.318-.185.451-.3a5.036,5.036,0,0,0,.8-.872c.017-.034.168,0,.185-.068.034-.15-.083-.318-.032-.469a3.348,3.348,0,0,0-.119-2.212,2.242,2.242,0,0,1,.8.2s.051-.068.034-.085c-.134-.318-.469-.452-.537-.8-.167.2-.435.369-.619.27a6.914,6.914,0,0,1-1.256-1.091c-.135-.116-.017-.318-.084-.468-.034-.1-.213-.085-.213,0-.031.133-.1.267-.233.2a2.948,2.948,0,0,0-.922-.437c-.1-.017-.083-.2-.168-.233a.418.418,0,0,1-.2-.134c.105-.08.048-.214-.059-.257-.127-.051-.241.1-.361.039-.386-.134-.654-.469-1.023-.636-.184-.085-.1-.386-.318-.424-.051,0-.1.067-.15.033-.253-.133-.253-.519-.554-.553-.034,0-.1.117-.083.184.034.253.3.336.134.588a2.879,2.879,0,0,1-.536.653c-.117.1-.213.034-.336-.034-.067-.051-.235-.034-.235.034a1.114,1.114,0,0,1-.367.736c-.3.269-.536.554-.848.806-.469.35-.849.719-1.324,1.037-.184.119-.437-.017-.57.136-.083.083-.2.284-.068.318.3.1.636-.168.956-.051a1.426,1.426,0,0,0,.285.134c.133.017.235.068.369.085a1.244,1.244,0,0,1,.536.267c.185.116.3.452.469.369.283-.119.319-.509.548-.69.057-.045.241-.144.258-.037.012.078-.2.216-.036.275s.3.015.424.134c.051-.1.066-.168.117-.2" style="fill:#fff"/><path d="M102.285,74.776c-.168-.117-.425.017-.352.151a.444.444,0,0,0,.335.212c.15-.017.184-.236.017-.352" style="fill:#ffe934"/><path d="M96.989,62.528c-.032.267-.083.687.184.848a4.911,4.911,0,0,0,.319-1.709c.033-.318.485-.4.82-.284,0,0,.051-.068.034-.085a.491.491,0,0,0-.468-.185.66.66,0,0,0-.469.253,2.518,2.518,0,0,0-.424,1.156" style="fill:#ffe934"/><path d="M72.109,18.679c0-.066-.017-.134.049-.151.286-.033.536-.116.738.1a4.411,4.411,0,0,1,.848,1.061.211.211,0,0,1,0,.212c-.116.252-.284.085-.469.068-.016,0-.033.082-.05.082-.336-.065-.452-.386-.637-.636-.034-.051-.017-.184-.068-.184a1.866,1.866,0,0,1-1.022-.3.087.087,0,0,1,.051-.133c.117-.034.212.066.318.1.117,0,.212-.017.236-.213" style="fill:#fbce33"/><path d="M63.38,32.335c.016.083-.068.134-.151.168a1.4,1.4,0,0,1-.068,1.073c-.017.032-.167,0-.184.066a.762.762,0,0,1-.435.721c-.017,0,0,.083,0,.15,1.139-.5,2.21-1.073,3.383-1.484a.631.631,0,0,1,.436-.034c.117.034.268-.168.234-.212-.183-.233-.5.034-.77-.032a3.815,3.815,0,0,1-1.374-.454c-.369-.267-.719-.486-1.04-.77a2.246,2.246,0,0,0-.031.821" style="fill:#fff"/><path d="M47.742,28.365c-.451.083-.687-.184-.871-.554-.132.066-.1.125-.042.256.05.109.147.231.115.358-.056.221-.408.186-.559.307-.212.184-.267.587-.051.7a1.5,1.5,0,0,1,.94,1.224.425.425,0,0,1-.27.4,3.14,3.14,0,0,0-.871.384,2.328,2.328,0,0,0-.435.468c-.068.1.15.212.25.335a1.3,1.3,0,0,0,.622.253,1.518,1.518,0,0,1,.769.7.686.686,0,0,1-.065.838c-.236.233-.688.212-.806.468a3.845,3.845,0,0,1-.424.77c-.319.352-.185.94-.151,1.409a29.131,29.131,0,0,0,.212,4.453c.017.1.185-.1.335-.1-.136-.151-.017-.386-.051-.5-.133-.636.586-.937,1.006-1.34.033-.034-.017-.168.017-.185a2.967,2.967,0,0,1,1.022-.653.748.748,0,0,1,.636.212c.034.017.034.117,0,.134a2.881,2.881,0,0,0-.77.92,2.631,2.631,0,0,0-.153,1.073,1.563,1.563,0,0,0,.369.938c.168.184.2.424.4.57a3.271,3.271,0,0,0,1.156.738,2.545,2.545,0,0,0,1.173.234c.151-.034.2.269.369.184.066-.051.066-.2.168-.233a1.994,1.994,0,0,0,1.525-2.062c-.034-.184.2-.184.25-.286.085-.182-.25-.3-.3-.486-.1-.318-.017-.736-.236-.971A16.873,16.873,0,0,1,51.8,37.722c-.1-.15.167-.335-.051-.437-.117-.065-.3.017-.4-.031a4.826,4.826,0,0,1-1.875-1.7,4.262,4.262,0,0,1-.923-1.794,4.077,4.077,0,0,0,0-.469,4.435,4.435,0,0,1-.15-1.156c-.017-.117.212-.212.212-.267a3.37,3.37,0,0,1,.452-1.19c.051-.085-.017-.235.034-.3.133-.136.184-.32.3-.437a11.627,11.627,0,0,1,.988-.838c.318-.3.821-.352,1.107-.721-1.107-.083-2.178.119-3.268,0a3.876,3.876,0,0,0-.469-.032" style="fill:#fff"/><path d="M54.818,31.145c.167-.15.284.236.4.386.017.017.085-.033.085-.033-.034-.2-.085-.386-.119-.588-.048-.3-.318-.486-.451-.77-.1-.235.184-.452.133-.687-.065-.3-.4-.267-.619-.4-.134-.066-.051-.212.034-.318.017-.017-.034-.083-.051-.083-.452.034-.6.687-1.071.452a.535.535,0,0,1-.235-.753,1.344,1.344,0,0,0,.318-.848c0-.017-.068-.051-.083-.051-.212.2-.32.486-.52.67a2.25,2.25,0,0,1-.848.537,3.556,3.556,0,0,0-.848.3c-.212.116,0,.335-.085.468-.3.437-.787.554-1.088,1.006a3.208,3.208,0,0,0-.537,1.107c-.034.167-.252.184-.4.267.352.335.3.872.352,1.34.017.185-.2.117-.3.213-.034.033.017.133.051.133.185-.034.4-.15.586-.034.1-.2-.083-.386-.049-.585a1.741,1.741,0,0,1,.167-.424c.066-.168.424-.083.35-.318a2.353,2.353,0,0,1,.537-1.826,1.606,1.606,0,0,1,.848-.787c.3-.085.571-.287.906-.2.25.066.424.335.585.3.318-.034.6-.267.906-.068a5.64,5.64,0,0,0,.536.386.48.48,0,0,1,.212.353.679.679,0,0,1-.133.536l.352.352A.181.181,0,0,0,54.818,31.145Z" style="fill:#ffe934"/><path d="M59.793,35.485a1.958,1.958,0,0,1-1.34-.67c-.083.116-.2,0-.251-.034-.167-.083-.269-.285-.4-.425a2.94,2.94,0,0,1-.5-.937,1.035,1.035,0,0,1-.017-.889c.1-.184.3-.687.435-.386a1.823,1.823,0,0,0,1.86,1.074c.085,0,.135,0,.167.034a.063.063,0,0,1,.017-.051c-.033.147.367-.086.4-.105.2-.128.279-.367.477-.487.051-.032.15,0,.2-.066a.1.1,0,0,0,0-.1c-.051-.048-.184-.082-.184-.1.034-.3.034-.571.051-.872,0-.1.15-.185.133-.318-.034-.185-.252-.2-.284-.335-.051-.168.117-.386.049-.52-.134-.284-.52-.352-.6-.721a.725.725,0,0,1,.017-.469c.162-.284.563-.3.474-.7-.065-.293-.225-.772-.608-.721-.286.032-.153.5-.352.67s-.539.044-.776,0c-.1-.017-.114-.017-.179-.1s-.085-.162-.2-.152c-.085.017-.119.117-.17.134a6.9,6.9,0,0,1-1.44.1,4.585,4.585,0,0,1-1.073-.016,3.581,3.581,0,0,0-1.122-.051c-.017,0-.051.084-.051.084.237.235.608.228.866.432a4.981,4.981,0,0,1,.827.656,1.528,1.528,0,0,1,.386.906c.017.117.167.168.184.267a2.407,2.407,0,0,1,.068.906c-.017.117-.167.167-.136.267a1.255,1.255,0,0,1-.7,1.419c-.034.017.015.184-.034.233a1.736,1.736,0,0,1-.687.386.522.522,0,0,1-.62-.212.315.315,0,0,1,0-.3c.2-.233.469-.4.5-.721a3.411,3.411,0,0,0-.119-.9c-.017-.212-.352-.386-.267-.553l-.352-.352c-.034.017-.068.034-.1.017-.32-.151-.806-.066-.939-.352-.083-.212-.168-.486-.424-.384-.151.066.017.335-.136.452-.335.284-.8.267-1.1.6a1.958,1.958,0,0,0-.486,1.485,1.406,1.406,0,0,0,.469.939c.034.034-.051.117-.034.134a4.9,4.9,0,0,0,1.19,1.223,10.215,10.215,0,0,1,2.01,1.892c.212.318.5.554.687.889.134.252.117.52.27.721a2.624,2.624,0,0,1,.486,1.273,3.6,3.6,0,0,0,.016.587,3.347,3.347,0,0,1,0,1.222c0,.017.066.051.083.051a2.3,2.3,0,0,0,.619-.989,19.186,19.186,0,0,1,1.241-2.379c.1-.168.486-.051.452-.336,0-.05-.066-.1-.049-.167.083-.3.318-.424.552-.585.084-.068.1-.336.252-.425a5.749,5.749,0,0,1,.954-.5c.085-.034.017-.185.117-.212.212-.032.571-.066.554-.285a.642.642,0,0,1,.1-.318A14.144,14.144,0,0,1,59.793,35.485Z" style="fill:#fff"/><path d="M57.515,27.073c.05.087.041.228.134.287s.27-.023.369-.051c.384-.1.886.117,1.1-.3.085-.151.212-.424.051-.486a1.48,1.48,0,0,0-.906-.034c-.568.1-1.122-.068-1.709.034a11.716,11.716,0,0,0-1.574.015c.134.212,1.741.119,1.96.119a.732.732,0,0,1,.57.424" style="fill:#ffe934"/><path d="M47.428,26.844a.481.481,0,0,0,.452.168c.117-.034.017-.212.117-.3.184-.151.471.084.636-.168-.136-.049-.252-.2-.369-.182a2.2,2.2,0,0,0-1.139.233,1.429,1.429,0,0,1,.3.252" style="fill:#ffe934"/><path d="M44.4,28.2c-.151,0-.3.049-.437-.05-.032.335-.1.82.15.954.233.147.579-.139.732-.293.27-.274-.043-.465-.244-.661-.034-.034-.119.034-.2.05" style="fill:#ffe934"/><path d="M44.194,29.922c-.133,0-.212-.151-.267-.134a3.107,3.107,0,0,0-1.292.253c-.017.016-.017.082,0,.082.352.085.7-.034,1.073.017.168.017.168.267.319.253a2.326,2.326,0,0,0,.6-.1,2.042,2.042,0,0,0,.426-.273c.2-.1.519.212.585.033.151-.5-.468-.269-.8-.252a6.188,6.188,0,0,1-.636.117" style="fill:#ffe934"/><path d="M43.439,33.088a.335.335,0,0,1-.318.253,3.46,3.46,0,0,1-.831-.049,2.558,2.558,0,0,0-.381-.035c-.052,0-.224.033-.128.134a6.8,6.8,0,0,0,1.172.7c.133.083.283-.014.425.016.11.024.2.152.318.136.335-.034.787-.034.905-.286.139-.25-.36-.283-.493-.36-.112-.064-.212-.181-.151-.314s.207-.167.207-.314A.733.733,0,0,0,43.9,32.4a.4.4,0,0,0-.454.1c-.15.167.051.386,0,.585" style="fill:#ffe934"/><path d="M43.223,35.669c-.051.923.15,1.809.017,2.757a.235.235,0,0,0,.1.2c.068.034.185-.015.253.034.212.118.367.235.6.369a3.3,3.3,0,0,0,.034-1.073c-.017-.066.066-.2.049-.268a23.812,23.812,0,0,0-.134-2.479c-.3.1-.636-.085-.886.083-.085.034-.034.252-.034.386" style="fill:#ffe934"/><path d="M43.39,40.679a5.39,5.39,0,0,1-.335,2.312.423.423,0,0,1,.424.386,10.043,10.043,0,0,0-.048,1.022.225.225,0,0,1-.178.264l-.024,0a.875.875,0,0,1,.1.212c.051.151-.117.318-.034.424.167.168.369.284.437.5a.829.829,0,0,1-.151.719c-.085.119.134.318.117.52a11.082,11.082,0,0,0-.117,1.658,4.842,4.842,0,0,1-.046.647c-.015.237,0,.478-.007.715,0,.48-.018.96-.066,1.438-.017.133.119.318.253.451a.291.291,0,0,1-.034.386c-.25.151-.537-.034-.787,0a1.509,1.509,0,0,0-.6.285c.118.133.051.4.167.451.335.134.755.151.957.52.15.252-.034.636.167.7.134.051.52.1.52-.051.015-.6.6-.719.92-1.071-.051-.034-.082-.134-.1-.134-.369.015-.789-.1-.721-.5.033-.151.235-.268.267-.435,0-.034-.083-.1-.066-.151a11.228,11.228,0,0,0,.017-2.479c-.017-.1.134-.235.117-.318-.085-.318.051-.622-.1-.94a.423.423,0,0,1,.233-.5c.085-.034.284-.117.212-.212-.133-.153-.386-.212-.434-.4a2.305,2.305,0,0,0-.213-.7c-.133-.185.017-.5-.067-.654a.877.877,0,0,1,.067-1.088c.051-.051.185.015.251-.068.184-.235.085-.519.118-.8.017-.085.1-.185.083-.2a.879.879,0,0,1-.424-1,6.2,6.2,0,0,0,.066-2.3,1.887,1.887,0,0,0-.849.284c-.031-.017-.048.066-.048.117" style="fill:#ffe934"/><path d="M47.21,47.733a1.343,1.343,0,0,1,.386-.687.279.279,0,0,1,.369-.017c.049-.151.284-.234.233-.367-.1-.253.212-.571.034-.588-.553-.034-.871.588-1.122,1.061-.068.133-.212.082-.318.15-.152.083-.286-.212-.424-.034a1.209,1.209,0,0,0-.127.469.718.718,0,0,1-.077.23c-.019.033-.105.1-.105.139,0,.094.422.078.511.134a.185.185,0,0,1,.1.167c.034.253-.15.52-.017.738.236.4.017.872.287,1.156.116.134.352.2.519.4.032.049.168.032.25,0a.12.12,0,0,0,.051-.1c-.1-.267-.369-.424-.335-.7.017-.15-.034-.318.185-.318-.034-.284-.352-.335-.424-.585a1.751,1.751,0,0,1,.017-1.241" style="fill:#ffe934"/><path d="M47.511,45.3a1.75,1.75,0,0,1,.554-.318c-.469-.537-1.023-.957-1.457-1.559-.085-.134-.253-.134-.369-.212-.151.772.082,1.61-.318,2.312.551.212.065.905.212,1.34.235-.2.269-.534.487-.753a5.88,5.88,0,0,1,.887-.8" style="fill:#fff"/><path d="M46.926,41.6c-.151.017-.318.083-.437-.051,0-.017-.083.017-.083.051-.017.1-.051.268.051.3.3.116.4.424.653.585.168.119.251-.183.425-.233a2.306,2.306,0,0,1-.268-.755c-.118.017-.2.1-.335.1" style="fill:#ffe934"/><path d="M51.984,43.947c-.136.066-.335-.1-.4-.051a1.5,1.5,0,0,1-1.039.134,8.158,8.158,0,0,0-.971-.2,1.433,1.433,0,0,0,1.005.352,4.16,4.16,0,0,1,.92.151c.1,0,.27.167.369.153a2.621,2.621,0,0,0,1.207-.537c.134-.119.3-.051.486.017.051.017.184-.068.184-.085-.017-.212-.25-.424-.116-.636.568-.848,1.508-1.726,1.022-2.831a.591.591,0,0,1,.4-.738c-.168-.268.2-.452.184-.7,0-.082-.167-.082-.233-.082-.185.017-.369.233-.52.15-.3-.133-.47-.4-.82-.435-.017,0-.051.083-.051.083.568.424.553,1.139.77,1.744.067.2-.234.366-.213.519a.965.965,0,0,1,.085.636,3.352,3.352,0,0,1-.546,1.015,7.656,7.656,0,0,1-1.061.661c-.119.083-.253,0-.369-.085a.486.486,0,0,0-.051.1c.131.1.074.3.034.435-.045.156-.154.159-.285.235" style="fill:#ffe934"/><path d="M50.26,35.686c.083.083.25.117.25.2a.469.469,0,0,0,.252.435c.285.067.425.252.688.369.017-.285.485-.369.424-.425-.6-.619-1.207-1.221-1.809-1.843-.054-.053-.106.239-.134.273-.117.143-.356-.025-.452.13-.051.068-.051.212.049.236.369.065.486.4.738.619" style="fill:#ffe934"/><path d="M50.746,45.137c-1.122.435-1.909,1.976-2.312,3.048a1.466,1.466,0,0,1-.27.352c-.017.017.017.084.051.084a.449.449,0,0,0,.212.017c0,.486.425.989.049,1.457.136.085.335-.017.424-.017.268.017.452.4.753.425a1.447,1.447,0,0,0,.7-.034,1.418,1.418,0,0,0,.469-.27,1.588,1.588,0,0,0,.424-1.221c-.017-.27-.386-.253-.485-.5-.085-.2.212-.454.4-.4s.362.179.553.246.4.031.581.158a1.269,1.269,0,0,1,.4.461c.09.2.083.427.176.626s-.151.454.034.687c.017.017.085,0,.085.017.082.267-.136.588.048.77.253.252.849.119.889.571.369.017.424.587.753.738.017.017.085-.034.085-.051A7.22,7.22,0,0,1,54.6,50.3c.017-.133-.1-.284-.068-.424.017-.049.085-.1.085-.168-.085-.585.234-1.088.267-1.624.015-.13-.093-.258-.136-.373-.072-.193,0-.246.037-.425.034-.212-.034-.4.034-.587.065-.212.367-.032.519-.168.183-.167.049-.367.066-.585.017-.085-.318,0-.3-.151a4.507,4.507,0,0,1,.284-1.408c.119-.233.454-.066.5-.212.068-.2,0-.585-.134-.619-.486-.134-.469.888-1,.738-.267.551-.821.838-1.224,1.306-.117.134-.424-.068-.6-.068s-.914.383-1.044.206.5-.41.575-.439c.017,0-.537.134-.554.134-.3-.051-.318.386-.424.553-.135.234-.487-.922-.738-.837" style="fill:#fff"/><path d="M47.954,52.458a1.509,1.509,0,0,1-.335-.318.728.728,0,0,0-.3-.151,2.024,2.024,0,0,1-.753-.687c-.1-.133-.116-.424-.267-.369-.235.085-.386.369-.537.619a.269.269,0,0,0,.049.185c.119.119.369.051.424.286.034.151-.051.367.068.384a1.152,1.152,0,0,1,.8.755c.212.554-.437.955-.906,1.239a.562.562,0,0,0-.167.772.3.3,0,0,0,.3.116,5.618,5.618,0,0,1,2.464-.1c.049,0,.185.116.285.15.193.076.262-.135.4-.215.184-.107.366.052.556.031a5.156,5.156,0,0,1,1.894.184c.051.017.134-.085.2-.085a3.829,3.829,0,0,1,2.613.989c.068.068.017.3,0,.454a.262.262,0,0,0,.285.233.277.277,0,0,0,.212-.352,3.09,3.09,0,0,1-.268-1.508c.017-.134-.051-.2-.133-.284-.051-.051,0-.2-.034-.3,0-.034-.085-.051-.085-.051a.616.616,0,0,1-.8.085.57.57,0,0,1-.3-.425c.051-.6-.587-.9-1.107-.971-.151-.017-.151-.212-.212-.235-.134-.032-.212.135-.212.3-.5-.136-1.006.167-1.508.032-.435-.117-.872-.083-1.29-.212a4.433,4.433,0,0,1-1.34-.554" style="fill:#fff"/><path d="M44.01,56.076c.068.068.1.185.167.185.352.017.6-.586.3-.753a.846.846,0,0,0-.653-.1c-.212.119.017.471.185.67" style="fill:#ffe934"/><path d="M50.8,56.076c-.369.068-.82-.25-1.073-.015-.1.083-.15.535-.017.586,1.023.386,2.121-.051,3.218.184.169.047.31-.235.372-.352.1-.182-.138-.246-.29-.284a1.42,1.42,0,0,0-1.02-.051c-.4.151-.772-.133-1.19-.068" style="fill:#ffe934"/><path d="M43.223,60.265c-.212.119-.52.1-.653.369.485.017.786.335,1.189.587.015.017.083-.016.083-.05a.774.774,0,0,1,.117-.435c-.121-.107-.143-.288-.266-.389a.469.469,0,0,0-.47-.082" style="fill:#ffe934"/><path d="M42.7,57.809c-.939-.369-1.743.469-1.976,1.323-.034.134-.27.236-.3.336-.051.221.3.374.335.587a3.824,3.824,0,0,1-.007.668c0,.21-.011.419-.019.629-.03.88-.079,1.759-.09,2.639-.012.8.072,1.6.13,2.4.028.39.059.785.054,1.176,0,.278-.279.359-.335.615a.474.474,0,0,0,0,.212c.051.168.253.253.284.386a7.377,7.377,0,0,1-.017.9c.068.67-.25,1.357.153,1.978.233.35.719.452.848.887.212.7-.636,1.022-.988,1.485-.058.071.171.05.2.051.135.006.245.077.374.084a1.452,1.452,0,0,0,.451-.085c.1-.035.119-.184.212-.2a3.437,3.437,0,0,1,.8-.034c.3.034.62.017.923.068a6.3,6.3,0,0,0,2.681,0c.184.386.6.252.92.2.017,0,.051-.084.051-.084-.424-.384-.67-.849-1.273-1.023-.352-.082-.369-.534-.235-.8.185-.4.753-.451.988-.8a1.9,1.9,0,0,0,.185-.721,8.769,8.769,0,0,0,0-1.494,1.92,1.92,0,0,1,.011-.642c.052-.168.188-.3.242-.46.1-.253-.335-.486-.3-.787.034-.212-.049-.437-.017-.656.034-.167.068-.318.119-.485.032-.117.267-.168.184-.318a2.037,2.037,0,0,1-.2-.335c-.017-.066.049-.117.034-.151a.854.854,0,0,1-.068-.267,10.824,10.824,0,0,1,.017-1.292c.051-.233.4-.284.335-.6-.034-.151-.252-.253-.269-.335-.134-1.474.05-2.933-.015-4.407-.017-.2-.068-.469-.253-.569a1.55,1.55,0,0,0-.818-.263c-.352.017-.62.318-.889.537a1.019,1.019,0,0,0-.284,1.374c.469.568,1.408.687,1.709,1.44a2.985,2.985,0,0,1-1.408.848,3.1,3.1,0,0,1-.233,1.173c-.212.424-.424,1.023-1.006,1.09a2.9,2.9,0,0,1-.922-1.993.234.234,0,0,0-.2-.212,1.852,1.852,0,0,1-1.206-.821c-.032-.068-.213-.185-.083-.3a15.291,15.291,0,0,1,1.726-1.073c.5-.369.234-1.156-.119-1.642-.116-.034-.267-.167-.424-.235" style="fill:#fff"/><path d="M44.561,60.265c-.068,0-.151.068-.212.1.051.051.017.116.034.2.066.251.787.117.753-.034,0-.15-.335-.269-.569-.269" style="fill:#ffe934"/><path d="M43.825,61.724c-.117.117-.066.284-.051.424,0,.017.068.051.085.051.134-.116,0-.335.117-.469-.5-.016.352-.453-.151,0" style="fill:#ffe934"/><path d="M47.9,59.126a2.168,2.168,0,0,0-.116.971,7.278,7.278,0,0,0-.017,2.263c.065.212.352.251.434.4.168.384.469.8.168,1.205a2.7,2.7,0,0,0-.52.838,4.173,4.173,0,0,0-.017.905c0,.134-.318.236-.267.285.585.4.168,1.06.151,1.558,0,.168-.335.4-.117.571.185.134.435.212.5.452a11.422,11.422,0,0,1-.085,2.362c.017.2.167.386.133.586a.164.164,0,0,1-.1.15,1.229,1.229,0,0,0-.554.424.391.391,0,0,1-.3.134c-.083,0-.167.085-.151.151.1.286.425.15.637.212.369.133.5.6.871.67.19.038.277-.092.29-.249.02-.232.1-.456.113-.689,0-.067-.212-.017-.235-.118a2.242,2.242,0,0,1-.117-.753c0-.119-.269-.287-.235-.424.117-.369,0-.719.1-1.088A1.892,1.892,0,0,0,48.4,69.1a.857.857,0,0,1,.156-.644c.03-.051.139-.185.126-.244-.017-.074-.131-.084-.115-.185.051-.335-.051-.653-.017-.971a1.95,1.95,0,0,1,.068-.872c-.4-.034-.738-.335-.536-.753.116-.235.386-.15.568-.286.051-.032-.032-.134-.032-.2.03-.461.3-.9.189-1.373a3.568,3.568,0,0,1-.12-.712,2.481,2.481,0,0,0-.113-.78.443.443,0,0,1,.1-.4c.085-.082.352.034.369-.082.017-.168-.335-.253-.352-.437-.082-.849.051-1.71-.065-2.579,0-.034,0-.185-.136-.168a.512.512,0,0,0,.1-.051c.065-.318-.27-.424-.469-.2-.269.284-.085.653-.212.971" style="fill:#ffe934"/><path d="M50.6,58.233a.58.58,0,0,0-.284.2c-.119,1.039-.068,2.078-.085,3.117,0,.161-.126.294-.157.449-.036.185.092.341.074.523-.051.587.032,1.138-.034,1.726,0,.017.066.034.1.049.1-.241.32-.393.437-.62s.085-.488.284-.653a8.3,8.3,0,0,0,.838-1.039c.167-.185.424-.049.585-.212-.032-.034-.1-.068-.1-.1.034-.352.5-.5.637-.736.184-.3.451-.6.437-.939,0-.251.167-.452.082-.7a1.607,1.607,0,0,0-.335-.569,2.576,2.576,0,0,0-2.479-.486" style="fill:#fff"/><path d="M54.466,58.373c-.017-.085-.1-.167-.151-.15-.269.133-.471-.185-.7-.119a.142.142,0,0,0-.051.15c.017.119.184.119.2.212.034.151-.167.3-.133.336.468.369.284,1.005.3,1.484,0,.017.083.051.083.051.286-.284.369-.687.655-.954a.37.37,0,0,1-.138-.3,4.9,4.9,0,0,0-.066-.7" style="fill:#ffe934"/><path d="M55.872,60.952a.816.816,0,0,1-.318.5c-.034.017.016.15-.017.184-.268.253-.367.571-.736.687-.034.017-.034.213.048.213a2.153,2.153,0,0,1,1.241.233c.085.051.168-.066.267-.049.656.185,1.107.736,1.778.848-.085-.1-.017-.235-.068-.318-.168-.252-.4-.437-.537-.67-.2-.352-.551-.655-.619-1a15.053,15.053,0,0,0-.554-1.542c-.233.134-.233.435-.284.636-.051.1-.167.168-.2.267" style="fill:#fff"/><path d="M51.6,64.439c.212-.185.537-.236.62-.437.1-.25-.336-.4-.435-.721-.068-.2-.236.153-.335.235-.185.168-.437-.034-.622.085-.032.015,0,.117.051.134a.334.334,0,0,1,.253.184c.082.234-.151.435-.168.636a1.838,1.838,0,0,1-.212.921c-.051.068.068.1.133.085-.016.267.285.468.213.753-.017.051-.068.068-.1.118a1.112,1.112,0,0,0,.653.336c.066,0,.066-.213.032-.336-.066-.269-.4-.286-.518-.485a1.121,1.121,0,0,1,.032-.838,1.037,1.037,0,0,1,.424-.67" style="fill:#ffe934"/><path d="M52.705,65.277a.889.889,0,0,0,.184,1.243.827.827,0,0,0,.069.046.951.951,0,0,0,.82.212c.138-.033.2-.159.3-.242.064-.052.332-.145.332.024a1.154,1.154,0,0,1-.369.848c-.049.034-.168,0-.185.066-.134.369-.469.4-.77.536-.252.119-.485-.212-.755-.048-.015.014,0,.065,0,.1a2.615,2.615,0,0,1-.8-.252,1.477,1.477,0,0,1-.3-.1c-.352-.167-.821-.57-.5-1.005a.11.11,0,0,0-.048-.149l0,0a.359.359,0,0,0-.367.117,4.457,4.457,0,0,0-.2,2.036c.043.678.048,1.357.082,2.036,0,.168.119.352.017.537-.077.139-.273.107-.352.233-.089.142.076.318-.017.471.068.032.15.066.212.1,0-.15.185-.2.235-.235.654-.25,1.341.136,2.028.034.284-.051.636-.168.9,0,.117.068.168.269.336.235.252-.051.352-.318.468-.4.471-.318,1.09-.335,1.576-.721a2.947,2.947,0,0,0,.437-.61,6.283,6.283,0,0,0,.391-.494c.111-.181.189-.271.405-.283s.442-.084.459-.337a.731.731,0,0,0-.212-.52c-.267-.318-.15-.772-.116-1.155.017-.185.25-.119.4-.236.118-.083.017-.267.118-.369-.184-.117-.437.034-.587-.167-.352-.52-.568-1.023-.938-1.54-.118-.168-.335-.153-.436-.369-.017-.034-.134.017-.185-.017-.619-.5-1.423-.253-2.11-.134-.117.017-.284-.068-.352.049-.134.136-.117.286-.185.454" style="fill:#fff"/><path d="M52.856,72.748c-.222.043-.515-.183-.7,0-.23.223.031.545.214.691a.483.483,0,0,0,.473,0,.457.457,0,0,1,.431.006c.32.124.545-.245.873-.224.083,0,.185-.1.134-.134-.157-.156-.386.019-.569-.018-.217-.045-.3-.284-.453-.416-.085-.068-.253.065-.4.1" style="fill:#ffe934"/><path d="M57.314,69.616a.257.257,0,0,0-.1.267c.051.134.168.236.2.386.067.284-.2.352-.336.5-.082.1-.284.369-.116.4a1.086,1.086,0,0,0,.821-.134c.2-.151-.1-.4-.017-.619.116-.335.335-.62.424-.972a.173.173,0,0,1-.212-.068c-.082-.121-.128-.344.009-.445.156-.116.345.09.476-.091.068-.1.083-.212,0-.25-.177-.036-.4-.035-.428-.262-.027-.2.182-.36.106-.559a.563.563,0,0,0-.168.1c-.15.252-.034.6-.2.772-.318.318-.212.685-.469.971" style="fill:#ffe934"/><path d="M40.207,74.676a.337.337,0,0,0-.134.318.234.234,0,0,0,.292.154.23.23,0,0,0,.132-.1c.085-.233.034-.519.2-.736-.1-.034-.034-.286-.134-.184-.167.116-.15.4-.352.553" style="fill:#ffe934"/><path d="M42.351,75.3c-.335,0-.67-.2-.954-.051a.745.745,0,0,0-.236.335,4.07,4.07,0,0,0,1.19.085c.955-.067,1.913-.019,2.869,0a3.228,3.228,0,0,1,1.115.082.539.539,0,0,1,.389.649c0,.016.051.133.083.133.621.085,1.207.017,1.828.068.066,0,.183-.051.2-.1.051-.184-.151-.424-.017-.553a.951.951,0,0,1,1.06-.051c.117.051.335.068.386,0,.151-.212.168-.5.52-.537.065,0,.065-.116.048-.2a16.392,16.392,0,0,0,2.045.25c.017,0,.034-.066.051-.1-.284-.051-.469-.185-.755-.236-.212-.034-.469.068-.685,0a1.406,1.406,0,0,0-.287-.066,11.2,11.2,0,0,0-2.343.077,7.984,7.984,0,0,1-1.125.055c-.375-.021-.734-.182-1.113-.166-.135,0-.3.185-.436.234a2.307,2.307,0,0,1-1.006-.049c-.937-.051-1.86.134-2.831.134" style="fill:#ffe934"/><path d="M51.884,51.72c-.352-.083-.67.335-1.022.051a.1.1,0,0,0-.132.048v0c-.017.212-.017.551.3.424a.633.633,0,0,1,.485-.066c.282.115.561.254.849.352a2.027,2.027,0,0,0,.888-.051c.017,0,.051-.067.051-.1-.051-.083-.118-.183-.2-.2-.452-.15-.77-.352-1.207-.454" style="fill:#ffe934"/><path d="M49.607,50.81c-.017-.034-.085-.051-.085-.051a.636.636,0,0,1-.872.224.711.711,0,0,1-.1-.073c-.05.085-.212.051-.184.1.167.318.587.352.906.4.424.068.9.27,1.323.017.051-.033-.017-.2.066-.3-.367-.068-.838.117-1.061-.318" style="fill:#ffe934"/><path d="M55.638,54.67a1.909,1.909,0,0,1,.4.955,4.864,4.864,0,0,0,.185,1.484,6.892,6.892,0,0,0,.888,2.38c0,.017.083-.034.083-.034a7.188,7.188,0,0,1-.5-1.994c.017-.1.213-.167.185-.318a4.331,4.331,0,0,0-.25-.653c-.335-.955-.185-1.994-.654-2.9-.269.3-.67.636-.335,1.073" style="fill:#ffe934"/><path d="M55.235,49.709a6.936,6.936,0,0,0,.185,1.659,1.758,1.758,0,0,0,.6.923,2.061,2.061,0,0,0-.2-1.139c-.051-.134.15-.236.133-.369a11.894,11.894,0,0,0-.067-1.909c-.049-.2-.425.068-.537.212a1.446,1.446,0,0,0-.117.619" style="fill:#ffe934"/><path d="M59.893,66.929a4.491,4.491,0,0,1-.1,2.7c-.034.1.017.213-.034.319a12.284,12.284,0,0,1-.536,1.289,6.652,6.652,0,0,1-.87,1.173,4.1,4.1,0,0,1-.687.636c-.424.253-.806.469-1.224.721-.15.083-.369.083-.5.168a1.719,1.719,0,0,1-1.375.116c-.066-.016-.212.085-.3.2-.134.2-.469.017-.7.151-.017.017-.017.084,0,.084a.932.932,0,0,0,.889-.034c.424-.269,1.005,0,1.524-.033,1.525-.083,2.883,0,4.306-.134,0,.084.031.181-.083.2.1.3.452.212.619.049.034-.032,0-.1.017-.15a.5.5,0,0,1,.52-.185,21.318,21.318,0,0,0,3.567.1c.153.017.424-.034.437-.134.066-.536-.848-.5-1.224-.6-.352-.083-.468-.889-.1-1.088a2.2,2.2,0,0,0,.753-.486c.15-.2-.034-.5-.017-.789,0-.066.068-.116.085-.167.065-.151-.117-.268-.085-.425.017-.084.1-.15.085-.212-.068-.184-.213-.352-.134-.536.066-.134.25-.134.352-.234.032-.033,0-.118-.051-.135-.252-.1-.636,0-.7-.284-.068-.251.034-.571-.3-.62-.185-.034-.369.034-.52-.034a8.6,8.6,0,0,1-1.607-.922A8.229,8.229,0,0,1,60.3,66.275c-.151-.167-.051-.5-.251-.655-.152-.117-.621-.384-.536-.032a9.354,9.354,0,0,0,.384,1.324" style="fill:#fff"/><path d="M66.618,75.73c-.424.1-.838-.017-1.222.151-.033.017-.017.167.049.167a22.448,22.448,0,0,1,2.581.017c.554.068,5.981.017,6.535.1a44.975,44.975,0,0,0-4.959-.235c-.335-.017-.235-.369-.252-.424,0-.1.133-.212,0-.253a1.24,1.24,0,0,0-1.061.117c-.1.068-.065.269-.184.335a1.385,1.385,0,0,1-.787.051,2.482,2.482,0,0,0-.7-.034" style="fill:#ffe934"/><path d="M56.326,75.446c.031,0,2.11.034,2.144.017-.017-.034-2.333-.134-2.363-.134a.7.7,0,0,0-.369,0c-.3.066-.267-.084-.051.083a1.349,1.349,0,0,0,.636.034" style="fill:#ffe934"/><path d="M59.575,75.446c-.938.236-.251-.335-.049.083a.1.1,0,0,0,.135.059l.015-.008c.034-.017.034-.066.066-.1-.066-.017-.116-.051-.167-.034" style="fill:#ffe934"/><path d="M61.3,75.5c-.034,0-1.44-.034-1.485,0,.151.284,1.122.032,1.424.151.252.1.636-.1.4-.335-.134-.134-.151.212-.353.184" style="fill:#ffe934"/><path d="M66.406,72.362a.507.507,0,0,1-.168-.212l-.1.049c-.017-.1-.1-.2-.151-.184-.318.084-.369.519-.7.621a12.493,12.493,0,0,1,1.139,1.005.145.145,0,0,0,.2-.037l.009-.014c.1-.15.15-.318.252-.451.066-.085.3-.1.268-.236-.034-.1.05-.284-.083-.318a1.018,1.018,0,0,1-.653-.212" style="fill:#ffe934"/><path d="M66.228,70.42c-.034-.236-.085-.7-.27-.537-.267.252.119.738.017,1.122a5.41,5.41,0,0,0-.116.7c0,.017.066.051.083.051.519-.267.352-.872.286-1.34" style="fill:#ffe934"/><path d="M69.411,70.085a1.553,1.553,0,0,1-1.06-.268c-.1-.084-.151-.386-.335-.335-.134.032-.386.066-.352.251.051.352.653.369.619.7a2.162,2.162,0,0,0-.083.937c.017.068-.034.212,0,.3.163.391.615.5.828.836.145.232.226.675-.107.791-.454.167-.806.551-1.257.77-.117.068-.117.269-.134.424-.017.1.185.151.284.083.236-.168.236-.486.554-.5.553-.051,1.073.151,1.607.117.688-.032,1.358.017,2.045-.049.284-.017.553.167.848.083-.068-.7-.905-.671-1.323-1.04-.134-.116-.335-.267-.212-.451.212-.369.653-.452.939-.721.155-.14.1-.425.142-.61.057-.251-.078-.466-.042-.714.051-.284.452-.267.6-.5.057-.093.144-.227.017-.3s-.241.086-.367.068a3.712,3.712,0,0,0-.841-.042c-.231.039-.427.2-.667.2-.587-.034-1.158-.05-1.709-.034" style="fill:#fff"/><path d="M73.734,72.413c-.2-.284.116-.57.15-.848,0-.083-.083-.185-.133-.134-.2.124-.141.381-.2.571-.07.216-.309.293-.452.452-.352.424.4.6.7.769.083.051.183-.167.251-.15a4.264,4.264,0,0,0,1.139-.051c.017,0,.034-.066.05-.1a6.912,6.912,0,0,1-.871-.235c-.051-.015-.2.034-.3.017a.621.621,0,0,1-.335-.284" style="fill:#ffe934"/><path d="M76.465,68.761c-.262.16-.706.095-.9.361-.218.3.179.69.21,1,.066.485-.085.954-.051,1.44a.478.478,0,0,0,.151.318c.269.286.755.235.888.6a.626.626,0,0,1-.05.619c-.4.369-1.006.5-1.156,1.105-.017.034.017.085.051.1.267.034.451-.212.7-.252a4.04,4.04,0,0,1,.636.068c.424.034.821-.034,1.238,0,.9.062,1.794.087,2.691.1.426,0,.855-.012,1.279.027a2.948,2.948,0,0,0,1.241-.041c-.016-.335-.352-.352-.551-.5-.1-.066-.184-.212-.352-.185.017-.182-.151-.267-.235-.35-.386-.4-.77-.755-1.139-1.172-.2-.236-.212-.588-.425-.823-.451-.486-.735-1.037-1.189-1.508-.168-.168-.35-.318-.518-.5-.269-.284-.7-.134-1.039-.424-.068-.068-.235.117-.286-.034-.1-.233-.049-.52-.3-.619-.383-.151-.369.369-.6.536-.068.066-.212.066-.3.134" style="fill:#fff"/><path d="M70.769,67.957c-.454.083-.454-.335-.554-.636,0-.015-.117-.015-.134,0-.067.286.034.588-.084.848-.053.11-.25.256-.154.386.082.112.284.061.389.151.017-.034.034-.1.051-.1.367.017.753,0,1.122,0a.661.661,0,0,0,.424-.133c.269-.3-.117-.554-.367-.605a1.979,1.979,0,0,0-.687.1" style="fill:#ffe934"/><path d="M65.808,66.816c-.017-.167.117-.318.1-.485,0-.017-.068-.049-.085-.049-.212.167-.3.469-.554.551-.367.119-.787-.424-1.088-.1-.051.051.168.184.285.212a1.619,1.619,0,0,1,.352.1,3.686,3.686,0,0,0,.988.425c.167.031.352-.051.536.031.134.068.3.168.285.287-.134.971.4-.454.15-.3-.335-.212-.9-.116-.971-.67" style="fill:#ffe934"/><path d="M77.01,75.162a.5.5,0,0,0-.653.134.673.673,0,0,0,.136.6c.233.212.568.1.886.068.2-.034.318.233.454.386.049.065.234.015.35.015a2.406,2.406,0,0,0-.551-1.006c-.134-.2-.424-.1-.622-.2" style="fill:#ffe934"/><path d="M61.083,36.155c-.117.085-.335-.034-.367.168,0,.033.082.067.082.1a4.392,4.392,0,0,1-.687,1.239c-.051.085-.2.034-.25.117a.454.454,0,0,0,.066.57c.068.068.212,0,.3-.051.636-.452.939-1.1,1.525-1.59.424-.37.806-.722,1.257-1.061a4.506,4.506,0,0,1,1.485-.872c.25-.065.452.213.636.185a2.121,2.121,0,0,0,1.358-.687,1.63,1.63,0,0,1-.537-.212c-.034.065-.066.184-.117.184a6.43,6.43,0,0,0-.8.083,10.505,10.505,0,0,0-2.982,1.743c-.212.168-.471.017-.738-.017a.6.6,0,0,0-.236.1" style="fill:#ffe934"/><path d="M69.931,32.955a.637.637,0,0,1-.5.167c-.068,0-.119-.117-.212-.133-.519-.083-1.306.57-1.484-.213,0,.008-.2-.024-.154.157.04.166.149.3.137.482,0,.015.065.049.082.049.068-.034.119-.134.168-.134.743-.033,1.487.012,2.231.017.35,0,.7.049,1.046.064.138.006.245.02.33-.1a.328.328,0,0,0,.062-.229c-.151-.335-.585-.085-.887,0-.252.082-.519-.136-.687-.369-.051-.1-.034.167-.133.25" style="fill:#ffe934"/><path d="M73.935,32.7c-.235-.068-.424.034-.335.212.083.236.486.287.636.213.318-.151,0-.37-.3-.435" style="fill:#ffe934"/><path d="M57.632,40.293a1.339,1.339,0,0,0-.284.922c.015.085-.212.1-.185.212a.852.852,0,0,1,.083.486c-.1.376-.46.64-.527,1.028-.019.112-.011.739.226.58.386-.234.284-.9.653-1.256.235-.212-.068-.687.3-.888.18-.1.567.143.682-.05.1-.163-.232-.209-.279-.336a.918.918,0,0,1-.051-.425,1.614,1.614,0,0,1,.486-.786c.286-.236.621-.051.889.2.15.15.3-.25.434-.424-.3-.051-.468-.253-.719-.335a.634.634,0,0,0-.519.116,4.639,4.639,0,0,0-1.19.972" style="fill:#ffe934"/><path d="M56.292,45.1c-.085.017-.213,0-.27.1a.356.356,0,0,0,.192.466.363.363,0,0,0,.211.019.484.484,0,0,0,.267-.585c-.065-.185-.267-.017-.4,0" style="fill:#ffe934"/><path d="M55.855,47.13c-.083-.017-.168-.017-.2.049-.1.259-.05.716.326.668.322-.042.352-.467.226-.7-.049-.118-.212.017-.352-.017" style="fill:#ffe934"/><path d="M61.619,64.337a1.055,1.055,0,0,1-.469.212c-.084.017-.7-.085-.6.151-.068-.168.636.116.685.167a12.164,12.164,0,0,0,1.794,1.273c1.909,1,.083-.051.1-.1a5.913,5.913,0,0,1-1.457-1.122c.212-.119.3-.369.537-.437-.151-.1-.017-.4-.212-.4-.151-.034-.253.168-.369.268" style="fill:#ffe934"/><path d="M77.973,65.308c-.437-.048-.6.425-.721.721a4.6,4.6,0,0,0-.134.688c-.016.1-.3.267-.3.335-.017.15.4.085.4-.284.034-.253.318-.236.452-.336.57-.352.922-.848,1.485-1.223.2-.134.335.1.519-.017.032-.017,0-.1.015-.151.085-.167.352-.167.386-.284.117-.486,1.224-1.258,1.292-1.7.082-.485-.571.637-.656.687a2.647,2.647,0,0,0-.753.586c-.133.167-.116.469-.335.5A1.356,1.356,0,0,1,78.6,64.7c-.034.369-.252.636-.619.6" style="fill:#ffe934"/><path d="M59.619,63.616c-.212-.233-.386-.469-.585-.7-.034-.034-.136.017-.136.049-.032.167-.083.386.051.454a.593.593,0,0,1,.252.2,2.469,2.469,0,0,0,1.038.956c.084.049.1-.067.084-.1a2.584,2.584,0,0,0-.7-.849" style="fill:#ffe934"/><path d="M75.71,66.884c-.1-.051-.167.034-.2.1-.083.212.252.184.252.369.244-.04.443.11.669.164.3.073.091-.168.235-.315-.151-.116-.285,0-.435-.017-.185-.034-.335-.212-.52-.3" style="fill:#ffe934"/><path d="M82.881,51.972a5.243,5.243,0,0,0-.015,1.776,1.133,1.133,0,0,1-.1.386.78.78,0,0,0,.117.636c.034.034.119,0,.136-.049a5.4,5.4,0,0,0,.184-1.442,2.84,2.84,0,0,1,0-.369c.032-.384.212-1.022-.136-1.207-.116-.083-.167.153-.184.269" style="fill:#ffe934"/><path d="M82.6,48.9a7.469,7.469,0,0,1,.284,2.431c-.015.1.085.184.2.2.185.034.051-.182.168-.2.167-.034.369-.136.454-.034.182.233.435.636.619.424.141-.176.416-.178.519-.388.082-.165.121-.476-.05-.6-.117-.083-.369,0-.452-.2a1.329,1.329,0,0,1-.017-.636.326.326,0,0,0,.352-.117,1.405,1.405,0,0,0-.2-1.484c-.117-.117-.469-.1-.688-.27-.133.3.085.622-.05.923a.373.373,0,0,1,.235.168,1.411,1.411,0,0,1,.061.735c-.014.113-.032.227-.044.34a1.523,1.523,0,0,1-.025.318c-.05.137-.447.292-.546.131a2.465,2.465,0,0,1-.167-1.726c.051-.15.424-.369.184-.585-.065-.085-.212-.136-.284-.2-.235-.235-.1-.619-.15-.939-.048-.4-.268-.765-.285-1.169-.009-.217.363-.422.134-.606-.1-.083-.269-.1-.3-.236a6.315,6.315,0,0,0-.552-1.34.18.18,0,0,0-.15-.1c-.068,0-.119.1-.1.151a19.793,19.793,0,0,0,.721,1.944c.068.168-.117.319-.068.469a12.83,12.83,0,0,1,.27,1.557,1.294,1.294,0,0,0,.184.386c.083.184-.034.212-.184.335a.351.351,0,0,0-.068.335" style="fill:#ffe934"/><path d="M77.99,37.915a1.177,1.177,0,0,0-.655-.454c-.015,0-.049.068-.049.085a7.834,7.834,0,0,0,1.574,1.608c.424.424.636-.212,1-.352-.032-.066-.083-.2-.1-.185-.318.068-.636.488-.871.212-.285-.335-.62-.6-.9-.9" style="fill:#ffe934"/><path d="M79.649,39.657c-.053-.027-.029-.091-.1-.1-.011,0-.122.037-.105.054a2.164,2.164,0,0,0,.838,1.02c.034-.049.083-.1.051-.151a2.528,2.528,0,0,0-.687-.82" style="fill:#ffe934"/><path d="M58.067,33.474c.369.369-.719-.838-.352-.721-.066-.032-.032.537,0,.6a1.5,1.5,0,0,0,.454.67c.048.034.033.167-.034.25a.578.578,0,0,0,.1.051c.085-.034.151-.151.236-.185.133-.05.3-.034.424-.133.034-.034-.015-.134-.049-.134a1.286,1.286,0,0,1-.772-.4" style="fill:#ffe934"/><path d="M61.418,31.682c.135.352-.117.424-.284.636-.134.151.335.236.212.5-.085.2-.236.352-.3.554-.05.167.2.116.251.116.424-.051.485-.536.636-.888a3.686,3.686,0,0,0,.034-1.485,2.1,2.1,0,0,0-.168-.486c-.04-.117.063-.225.016-.354a1.372,1.372,0,0,0-.13-.23c-.08-.132-.22-.421-.388-.455-.051.252.424.906.3,1.156-.066.153-.267.212-.3.386a.951.951,0,0,0,.116.553" style="fill:#ffe934"/><path d="M62.96,37.177a.182.182,0,0,0-.1-.051c-.168.085,0,.236.066.3.034.031.1-.017.15-.051.185-.168-.066-.134-.116-.2" style="fill:#ffe934"/><path d="M82.128,56.865c-.068.3-.469.77-.068.921a5.634,5.634,0,0,0,.687-2.094c0-.118-.167-.212-.233-.133-.335.35-.286.838-.386,1.306" style="fill:#ffe934"/><path d="M81.509,58.657c-.185.721-.605,1.29-.823,1.994-.015.085-.151.168-.015.269a.208.208,0,0,0,.167.049.454.454,0,0,0,.3-.384c.233-.772.6-1.442.82-2.212.034-.133-.017-.269-.15-.252-.253.068-.253.352-.3.536" style="fill:#ffe934"/><path d="M78.609,63.147c-.167.185-.212.424-.369.605A19.837,19.837,0,0,1,76.2,65.476c.068.034.051.1.051.167-.068-.014-.151.017-.151.051-.017.1.083.185.2.2.032,0,.1-.034.1-.051a.571.571,0,0,1,.185-.52,8.254,8.254,0,0,0,1.994-1.573c.05-.051.167-.068.184-.119a1.777,1.777,0,0,1,.185-.424c.05-.051.184-.085.184-.1-.068-.335-.352-.151-.52.034" style="fill:#ffe934"/><path d="M75.392,65.694c-.083.068-.184.134-.284.2-.386.25-1.542.553-2.465.988-.014,0,1.326-.335,1.341-.352.7-.133,1.241-.585,1.945-.753a.147.147,0,0,0,.051-.15c-.119-.369-.4-.085-.588.065" style="fill:#ffe934"/><path d="M83.082,42.337c-.167.136-.4.068-.568.185-.039.039.012.116.049.133s.127-.008.165-.01a.536.536,0,0,1,.405.095c.068.068.3-.017.452-.068-.134-.212-.2-.6-.5-.335" style="fill:#ffe934"/><path d="M74.756,35.553c.051.017.167,0,.083-.134a.317.317,0,0,0-.3-.119c-.017,0-.034.068-.051.1a1.553,1.553,0,0,0,.27.151" style="fill:#ffe934"/><path d="M58.347,61.707c-.1-.116-.318-.486-.386-.57-.352-.425-.185-.083.284.621.085.134.212,1.02.369.653a3.617,3.617,0,0,0-.267-.7" style="fill:#ffe934"/><path d="M54.953,52.719a.627.627,0,0,0-.051-.1c-.05-.034-.15-.051-.133.1.017.1,0,.3.184.318.034,0,.066-.032.1-.049a.768.768,0,0,1-.1-.269" style="fill:#ffe934"/><path d="M78.357,37.16c-.151-.082-.212-.15-.284-.184-.017.068-.017.119.034.15a2.839,2.839,0,0,1,.352.168c.122.077.214.19.329.274.021.015.17.113.152.023-.01-.054-.174-.145-.211-.173-.121-.091-.244-.178-.372-.258" style="fill:#ffe934"/><path d="M83.116,51.586c.185.034.185-.369.268-.536a5.055,5.055,0,0,1-.1-2.121c.051-.151.424-.369.184-.585a3.083,3.083,0,0,1-.284-.212c-.235-.236-.1-.622-.15-.94-.047-.4-.268-.765-.285-1.169-.009-.217.363-.422.132-.606-.1-.085-.267-.1-.3-.236a7.411,7.411,0,0,0-.552-1.34.176.176,0,0,0-.1-.083,14.327,14.327,0,0,0-1.575-3.181.052.052,0,0,0,0-.068,2.334,2.334,0,0,0-.637-.77l-.4-.454c.184-.116.335-.35.551-.424-.032-.068-.083-.212-.1-.184-.284.068-.57.386-.787.284l-.212-.212c-.252-.27-.519-.486-.769-.755a1.242,1.242,0,0,0-.671-.452s-.034.034-.034.051a10.628,10.628,0,0,0-2.044-1.061c.034-.05.1-.033.15-.016.2.067.353.284.6.252.017,0,.051-.085.051-.085-.318-.386-.872-.424-1.224-.77-.4-.4-1.061-.3-1.642-.386-.434-.068-.837.068-1.289-.034-.2-.054-.193-.254-.284-.4-.128-.2-.354-.156-.537-.053a.282.282,0,0,1-.318-.034c-.134.167-.318.369-.437.369a8.5,8.5,0,0,1-1.608.065.438.438,0,0,1-.386-.284c-.25.151-.318.554-.653.571A6.343,6.343,0,0,0,64.607,36.9c-.2.116-.434-.068-.585.1-.034.034.017.117-.017.134a5.958,5.958,0,0,0-1.289.922c.15.066-.085.2.048.268a3.5,3.5,0,0,0-.786.6c-.1.117.084.352-.083.452-.087.052-.219-.031-.28.065s.069.264-.089.3A2.286,2.286,0,0,0,60.4,41.124c-.586.015-.787.586-1.2.9-.235.184.134.553.049.82a3.229,3.229,0,0,1-.2.654c-.017.034-.136,0-.185.068a.212.212,0,0,0-.051.167c.017.117.212.134.185.2a1.131,1.131,0,0,1-.571.769c.017.034.051.068.051.1-.017.2-.284.117-.369.267-.212.3.235.319.267.425a2.16,2.16,0,0,1-.335,1.592c-.083.134-.284.083-.424.185a.182.182,0,0,0-.051.2c.034.2.286.285.252.486-.1.486.1.971-.167,1.389-.056.084-.2.035-.212.165-.019.148.2.25.3.306a.364.364,0,0,1-.151.636c.168.117-.133.4.168.486a21.435,21.435,0,0,0,.352,3.084c.017.184.051.468-.184.534A.46.46,0,0,1,58.09,55c0,.034.085.066.085.1-.017.2.017.386-.017.6-.034.151.212.134.212.212a20.73,20.73,0,0,0,.957,2.649c.065.234-.134.134-.336.117-.034,0-.05.1-.067.134-.066.133-.285.167-.336.284-.065.15.119.3.185.471a.607.607,0,0,0,.1-.051c.032-.117-.085-.27.015-.369a.922.922,0,0,1,.721-.2c.15.352.318.687.485,1.022a.21.21,0,0,1-.25.085c-.15-.051-.15-.335-.252-.286-.168.085-.369.034-.552.085-.034,0-.034.066-.068.1.185.068.151.287.285.353.212.116.5.084.636.352.269.519.471,1.06.772,1.558.568-.084.787.62,1.156.938a.846.846,0,0,1,.3.619.413.413,0,0,0,.1.212c.015.017.065,0,.1,0a.548.548,0,0,0,.117.424.972.972,0,0,0,.185.083c.122.058.2.018.327-.023.086-.027.194-.083.271-.006a.144.144,0,0,1,.006.2c-.168.167-.488-.051-.687.184.184.117.335.424.519.335a.517.517,0,0,0,.336-.451,16.791,16.791,0,0,0,4.254,2.11,3.142,3.142,0,0,0,.386.133,4.309,4.309,0,0,1,1.224.2c.041.047-.014.14.066.167.064.023.2-.1.269-.116.848-.236,1.7.133,2.53-.134a.873.873,0,0,0-.386-.167,12.922,12.922,0,0,0,2.4-.52c-.454.168-.991.352-1.46.568-.016,0,1.324-.335,1.341-.35.7-.135,1.241-.57,1.945-.755.048-.017.065-.082.048-.15a.738.738,0,0,0-.048-.117c.233-.136.485-.269.7-.424a4.509,4.509,0,0,0-.435.369c.085.034.051.1.051.168a.14.14,0,0,0-.151.051c-.017.1.083.184.2.2.149,0,.1-.163.114-.261a.443.443,0,0,1,.172-.308,8.39,8.39,0,0,0,1.994-1.575c.05-.051.167-.066.184-.117a1.777,1.777,0,0,1,.185-.424c.077-.1.24-.049.15-.216a13.52,13.52,0,0,0,1.574-2.121c.051.034.1.068.15.051a.46.46,0,0,0,.3-.386c.233-.77.6-1.441.82-2.21a.283.283,0,0,0,0-.168c.066-.2.151-.4.213-.621a4.942,4.942,0,0,0,.587-1.909.141.141,0,0,0-.068-.119c.051-.3.119-.585.151-.886l.051.1c.034.034.118,0,.133-.051a6.174,6.174,0,0,0,.2-1.457,2.525,2.525,0,0,1,0-.369c.034-.386.212-1.022-.134-1.206H83.1v-.151a.016.016,0,0,0,.005.023A.014.014,0,0,0,83.116,51.586ZM75.1,36.407a9.329,9.329,0,0,0-.989-.318A2.826,2.826,0,0,1,75.1,36.407Z" style="fill:#d33d29"/><path d="M61.1,49.459c.014-.45.057-.9.107-1.346a23.638,23.638,0,0,1,.583-3.2,17.019,17.019,0,0,1,1.456-3.858,9.714,9.714,0,0,1,2.71-3.261,7.691,7.691,0,0,1,4.382-1.467,7.773,7.773,0,0,1,4.471,1.2,9.545,9.545,0,0,1,2.911,3.141,17.006,17.006,0,0,1,1.663,3.883,25.188,25.188,0,0,1,.77,3.486c.094.626.172,1.256.21,1.888l0,.089A10.1,10.1,0,0,1,78.827,51.8a12.105,12.105,0,0,1-4.591,2.751,11.037,11.037,0,0,1-6.783.014,11.772,11.772,0,0,1-4.57-2.885,11.59,11.59,0,0,1-1.757-2.18Z" style="fill:#e8452d"/><path d="M38.262,58.869c.1.3-.212.537-.167.787a2.1,2.1,0,0,1,.135.386c0,.051.066.1.049.151-.134.6-.424,1.484.424,1.607.017,0,.034-.15.049-.184.113-.108.081.324.068.3a.748.748,0,0,1,.134.352,1.659,1.659,0,0,1-.151.6,1.749,1.749,0,0,1-.318.369c-.083.065-.267-.051-.284.116a5.931,5.931,0,0,0,.212,2.815c.048.135.335.4.284.621-.051.185-.335.4-.554.284-.212.787.051,1.591-.1,2.414-.017.1-.168.167-.119.318a1.52,1.52,0,0,1,.167.534.213.213,0,0,0,.2.2.474.474,0,0,1,.469.235c.067.151-.083.352-.049.469a.482.482,0,0,1,0,.369c-.068.1-.318.117-.318.168.1.536-.386.82-.687,1.139.2.184.485.167.7.318.116.084.2.284.318.235.184-.068.284-.286.485-.424.049-.034,0-.185.034-.3.049-.212.384-.251.336-.486-.051-.2-.287-.4-.287-.553a16.193,16.193,0,0,0-.519-4.473c-.1-.288.286-.284.41-.44s-.284-.278-.355-.415a.758.758,0,0,1-.058-.54c.025-.152.031-.314.062-.463.046-.223.331-.311.348-.539.051-.537-.117-1.088-.068-1.625.017-.133.167-.235.119-.369a1.512,1.512,0,0,1-.068-.837L39.437,62l.136-.168c.15-.017.049-.25-.068-.3-.217-.107-.511,0-.71-.14-.168-.119-.164-.4-.128-.581.036-.14.21-.193.3-.291.1-.119-.063-.136-.111-.273a1.22,1.22,0,0,0-.168-.3,1.164,1.164,0,0,0,.212-.534c0-.1-.051-.212-.017-.318.049-.136.2-.253.2-.335.049-.3,0-.636.066-.957.067-.284.369-.519.318-.8-.017-.067-.117.085-.185.085a.6.6,0,0,0-.568.251c-.185.267-.068.769-.4.871a5.348,5.348,0,0,1-.736.083v-.1a3.281,3.281,0,0,0-.085.4C37.742,58.524,38.128,58.473,38.262,58.869Z" style="fill:#ffe934"/><path d="M66.406,21.479a7.107,7.107,0,0,1,.25-1.341,4.191,4.191,0,0,1,1.006-1.794.986.986,0,0,1,.619-.25c.318.034.587.233.721-.1a.485.485,0,0,0-.076-.367c-.113-.137-.283-.023-.407.043s-.313.2-.46.122a.5.5,0,0,1-.2-.333,4.793,4.793,0,0,1-.252.736,1.847,1.847,0,0,1-.5.437c-.1.083-.117.212-.185.3a3.637,3.637,0,0,0-.786,1.826c-.051.251-.637.185-.77-.05a.725.725,0,0,1-.085-.251,1.155,1.155,0,0,0-.066.212,3.624,3.624,0,0,0-.1.352C65.575,20.993,65.876,21.578,66.406,21.479Z" style="fill:#ffe934"/><path d="M82.915,52.023A5.289,5.289,0,0,0,82.9,53.8a1.075,1.075,0,0,1-.1.386.836.836,0,0,0,.117.637c.034.034.119,0,.133-.051a6.13,6.13,0,0,0,.2-1.457,2.525,2.525,0,0,1,0-.369c.034-.386.212-1.023-.134-1.207-.133-.066-.167.151-.212.286" style="fill:#df4237"/><path d="M83.4,51.05a5.071,5.071,0,0,1-.1-2.121c.051-.151.424-.369.184-.585a2.953,2.953,0,0,1-.284-.212c-.235-.236-.1-.622-.153-.94-.044-.4-.265-.766-.282-1.169-.009-.217.363-.422.132-.606-.1-.085-.267-.1-.3-.236a7.289,7.289,0,0,0-.554-1.34.182.182,0,0,0-.167-.1c-.066,0-.117.1-.1.151.2.67.452,1.306.721,1.96.066.167-.119.318-.068.47A12.531,12.531,0,0,1,82.7,47.9a1.153,1.153,0,0,0,.183.386c.085.185-.032.212-.183.335a.4.4,0,0,0-.067.352,7.457,7.457,0,0,1,.284,2.429c-.017.1.085.184.212.2.184.017.2-.386.284-.553" style="fill:#df4237"/><path d="M78.005,37.932a1.23,1.23,0,0,0-.67-.454c-.015,0-.049.068-.049.085a7.834,7.834,0,0,0,1.574,1.608c.424.424.636-.212,1-.352-.032-.066-.083-.212-.1-.185-.318.068-.653.486-.871.2a8.721,8.721,0,0,0-.889-.9" style="fill:#df4237"/><path d="M79.68,39.657c-.051-.028-.027-.089-.094-.1-.037-.008-.075.037-.105.037a2.168,2.168,0,0,0,.848,1.037c.032-.049.083-.1.049-.151a2.471,2.471,0,0,0-.687-.82" style="fill:#df4237"/><path d="M82.162,56.931c-.068.3-.469.772-.068.923a5.7,5.7,0,0,0,.687-2.121c0-.117-.167-.212-.235-.134-.318.352-.284.848-.384,1.323" style="fill:#df4237"/><path d="M81.54,58.725c-.182.719-.6,1.29-.82,1.994-.017.083-.151.167-.017.267a.213.213,0,0,0,.167.051.457.457,0,0,0,.3-.386c.233-.77.6-1.44.82-2.212.034-.134-.017-.267-.15-.25-.253.051-.253.352-.3.536" style="fill:#df4237"/><path d="M78.643,63.232c-.167.185-.212.424-.369.6a19.955,19.955,0,0,1-2.044,1.727c.085.034.051.1.051.167a.142.142,0,0,0-.151.051c-.017.1.083.185.2.2.149,0,.1-.163.114-.262a.436.436,0,0,1,.172-.307,8.369,8.369,0,0,0,1.993-1.576c.051-.051.168-.065.185-.116a1.8,1.8,0,0,1,.184-.424c.049-.066.185-.083.185-.117-.085-.335-.352-.134-.52.051" style="fill:#df4237"/><path d="M75.409,65.779a1.816,1.816,0,0,1-.284.2c-.386.252-1.559.553-2.465.99-.017,0,1.324-.335,1.341-.352.7-.136,1.241-.571,1.945-.755.048-.017.065-.083.048-.151-.1-.369-.4-.082-.585.068" style="fill:#df4237"/><path d="M78.843,44.433c.017-.017.119-.034.135-.068a4.091,4.091,0,0,1,.688-1.374A1.545,1.545,0,0,1,80,42.823c.318-.151.7-.452.954-.335a.536.536,0,0,0,.537.068c-.085-.212-.253-.554-.253-.554h-2.6v2.431Z" style="fill:#df4237"/><path d="M80.518,61.414a7.524,7.524,0,0,0-.7.87,12.224,12.224,0,0,0-2.121.068,3.508,3.508,0,0,1-.92.068c-.212-.017-.469-.27-.619-.151a1.42,1.42,0,0,1-.957.35,3.957,3.957,0,0,1-1.977-.15.533.533,0,0,1-.212-.452.354.354,0,0,1,.352-.352Z" style="fill:#df4237"/><path d="M70.86,66.9c-.619-.1-1.241.051-1.877-.085a8.026,8.026,0,0,1-1.574-.335c-.1-.049-.1-.212-.167-.233a9.482,9.482,0,0,1-3.57-2.28c-.212-.2-.57-.267-.755-.486a10.776,10.776,0,0,1-.619-1.06c.138.014.362.005.15-.136a6.612,6.612,0,0,1,1.409-.116c.065,0,.116-.083.167-.083a13.451,13.451,0,0,1,2.715.267c.151.051.2-.212.318-.267.284-.119.267.233.4.3a1.922,1.922,0,0,0,1.877.066.425.425,0,0,0,.02-.6l-.02-.02a3.4,3.4,0,0,0-1.088-.284l-6.534-.212c-.3-.553-.554-1.06-.637-1.207-.15-.434-.787-.25-.753-.77,0-.1-.167-.167-.3-.2-.085-.034-.1.085-.1.085a.643.643,0,0,1,.134.653c-.015.117-.151.134-.25.1-.151-.051-.151-.335-.253-.284-.167.082-.367.033-.551.082-.034,0-.034.068-.068.1.185.066.151.284.284.352.212.117.5.083.637.35.267.52.468,1.061.769,1.559.571-.083.787.619,1.156.939a.847.847,0,0,1,.3.62.433.433,0,0,0,.1.212c.017.015.066,0,.1,0a.538.538,0,0,0,.117.424c.023.023.064.013.092.025.056.025.1.076.156.091.136.032.277-.073.407-.1s.212.168.134.235c-.168.168-.486-.051-.688.183.185.119.335.424.52.335a.515.515,0,0,0,.335-.452,17.17,17.17,0,0,0,4.255,2.121,4.022,4.022,0,0,0,.386.134,4.272,4.272,0,0,1,1.223.2c.044.044-.014.14.066.168.065.022.2-.106.269-.119.849-.233,1.7.136,2.531-.134C71.74,66.785,71.3,66.969,70.86,66.9Z" style="fill:#df4237"/><path d="M76.045,36.6c-.318-.384-.871-.434-1.223-.77-.4-.4-1.061-.3-1.642-.386-.435-.065-.838.068-1.289-.031-.2-.057-.193-.255-.284-.4-.129-.206-.353-.155-.537-.054a.28.28,0,0,1-.318-.034c-.134.167-.318.369-.437.369a8.766,8.766,0,0,1-1.608.068.448.448,0,0,1-.386-.284c-.25.15-.318.551-.653.568A6.363,6.363,0,0,0,64.6,36.819c-.2.116-.435-.066-.585.1-.034.031.017.116-.017.133a6.029,6.029,0,0,0-1.29.921c.151.068-.085.212.049.269a3.574,3.574,0,0,0-.787.6c-.1.117.085.352-.082.452-.087.052-.22-.029-.28.067s.068.262-.089.3A2.3,2.3,0,0,0,60.4,41.041c-.585.017-.786.588-1.2.906-.236.185.133.551.049.821a3.308,3.308,0,0,1-.2.653c-.017.034-.136,0-.184.066a.209.209,0,0,0-.051.167c.017.119.212.136.184.212a1.134,1.134,0,0,1-.57.772c.017.032.051.066.051.1-.017.212-.284.117-.369.267-.212.3.235.321.269.437a2.173,2.173,0,0,1-.337,1.591c-.083.136-.284.085-.424.184a.182.182,0,0,0-.051.212c.034.2.286.285.252.486-.1.486.1.972-.167,1.391-.057.085-.2.036-.213.165-.018.148.2.249.3.3a.364.364,0,0,1-.151.636c.168.119-.134.4.168.486a21.435,21.435,0,0,0,.352,3.084c.017.184.051.469-.185.536a.456.456,0,0,1,.168.425c0,.034.085.067.085.1-.017.2.017.384-.017.6-.034.15.212.133.212.212a20.6,20.6,0,0,0,.954,2.647c.066.235-.134.133-.335.116-.034,0-.051.1-.068.134-.066.136-.259.141-.325.27-.078.15.123.353.175.485a.637.637,0,0,0,.1-.051c.032-.117-.085-.267.015-.369a1.082,1.082,0,0,1,.906-.2c.212.017.068-.2.116-.352.017-.068.136-.085.136-.119.015-.212-.2-.367-.269-.552-.212-.468-.267-.988-.469-1.459a12.018,12.018,0,0,1-.5-2.848c0-.032.083-.1.083-.151a22.516,22.516,0,0,1-.066-3.181c0-.066-.05-.184-.05-.267a10.894,10.894,0,0,1,.05-1.29c.117-1.073.319-2.095.469-3.181a2.97,2.97,0,0,1,.212-.823,6.076,6.076,0,0,1,1.039-1.809.751.751,0,0,0,.117-.233,3.111,3.111,0,0,1,1.156.8,5.264,5.264,0,0,1,.537,3.066c0,.032,0,.168.082.2.151.085.4.051.469.235.051.134.085.369-.083.4h.335v-5.7H61.254c-.048,0-.1-.017-.15-.017a7.022,7.022,0,0,1,.67-1.173,1.585,1.585,0,0,0,.085-.3c.083-.233.452-.2.534-.352a2.8,2.8,0,0,1,.687-1.06c.236-.236.537-.424.772-.687a2.769,2.769,0,0,1,.8-.588c.637-.267,1.224-.67,1.843-.954.352-.151.67-.352,1.023-.5a1.775,1.775,0,0,1,.318-.017c.082-.017.15-.083.212-.083a2.774,2.774,0,0,0,.49-.036.845.845,0,0,1,.212-.015c.062.013.1.069.167.083a11.488,11.488,0,0,0,1.727-.1c.133,0,.286-.184.485-.212.1-.017.168.134.27.151.384.017.77.068,1.139.1a6.585,6.585,0,0,1,2.8.6.141.141,0,0,1,.168-.051c.2.068.352.287.6.253C76.028,36.692,76.062,36.6,76.045,36.6Z" style="fill:#df4237"/><path d="M68.287,41.735c.27.168.051.67-.2.7-.085.017-.212-.051-.32,0-.35.168-.821.168-1.038.452a4.926,4.926,0,0,0-.772.988c0,.017-.116-.017-.133.068v-2.2h2.462Z" style="fill:#df4237"/><path d="M75.225,44.566a3.282,3.282,0,0,1,.424,1.625h.167V41.635H72.465a.3.3,0,0,0-.213.362V42c.066.212.284.253.424.386.034.034.051.134.068.134.753-.049,1.375.4,2.111.5,0,.469.47.789.47,1.241C75.292,44.365,75.157,44.467,75.225,44.566Z" style="fill:#df4237"/><path d="M81.341,41.2c-.3.085-.721-.116-1.022-.051a13.86,13.86,0,0,1-3.669.213c-.068,0-.2.067-.27.05a32.657,32.657,0,0,0-3.351-.269,1.336,1.336,0,0,0-.386.136c-.065.015-.116-.051-.15-.034a.3.3,0,0,0-.214.361l0,.008c.066.212.284.25.424.384.034.034.051.136.068.136.753-.051,1.374.4,2.11.5a1.751,1.751,0,0,0,.334.8.9.9,0,0,1,.132.386c0,.116-.146.271-.08.374A4.974,4.974,0,0,1,75.6,47c-.007.529.015,1.057,0,1.586-.014.568-.04,1.136-.05,1.7,0,.082-.074.067-.125.042-.089-.042-.069-.134-.125-.193-.184-.119-.286.049-.486.034-.084,0-.152-.085-.212-.085-1.257-.051-2.513.051-3.771.017a1.762,1.762,0,0,0-.971.284c-.117.068-.168-.167-.212-.167-.585-.049-1.173.068-1.775,0a4.818,4.818,0,0,0-1.073-.034c-.212.017-.62.335-.7.051a16.07,16.07,0,0,1-.212-4.524,5.178,5.178,0,0,1,.212-1.741c.048-.136-.212-.236-.185-.425.017-.067.134-.05.134-.067a4.378,4.378,0,0,1,.77-.989c.235-.284.687-.284,1.039-.452.085-.05.212.017.318,0,.252-.033.486-.536.2-.7-.15-.082-.3-.25-.468-.212-.134.034-.212-.048-.318-.015a9.851,9.851,0,0,1-2.97.268.538.538,0,0,1-.384-.068c-.05.085-.167.085-.212.085-.92.034-2.044-.134-2.757-.134-2.36-.3-1.389.787-1.457.719a3.5,3.5,0,0,1,2.028,1.06,5.26,5.26,0,0,1,.536,3.067c0,.034,0,.168.083.2.151.082.4.048.471.233.056.155.079.351-.107.407-.131.039-.4.02-.381.229a9.127,9.127,0,0,1,.1,1.19c0,.034.066.1.083.168.084.269-.2.335-.251.536-.068.27.212.452.234.7.017.168-.3.168-.251.369a6.91,6.91,0,0,1,.068,2.111,5.252,5.252,0,0,0-.068,1.022c.051.284.335.636.168.9a.743.743,0,0,0-.134.4,4.054,4.054,0,0,1,.083.989,38.336,38.336,0,0,1-.352,4.574c-.017.151-.2.185-.3.3a2.6,2.6,0,0,1-.267.323,1,1,0,0,1-.373.131c-.292.076-1.014.3-.69.743a.586.586,0,0,0,.482.2,6.8,6.8,0,0,1,.7.078c.087.013.992.205,1.007.072,0-.034-.051-.065-.1-.1a6.585,6.585,0,0,1,1.406-.119c.068,0,.119-.083.168-.083a13.706,13.706,0,0,1,2.714.267c.151.051.2-.212.318-.267.287-.116.27.236.4.3a1.92,1.92,0,0,0,1.877.068.423.423,0,0,0,.022-.6l-.022-.022a3.45,3.45,0,0,0-1.09-.284,2.839,2.839,0,0,0-.77-.034c0-.083.017-.168-.068-.2-.585-.286-1.272-.587-1.357-1.308,0,0-.066.017-.083,0a1.462,1.462,0,0,1-.212-1.023c.037-.612.029-1.227.022-1.84,0-.149,0-.3,0-.446,0-.084.04-.256-.027-.322s-.28.012-.309-.087c-.051-.185.25-.253.284-.437.1-.736-.133-1.457,0-2.2.017-.051.185-.134.151-.212a.954.954,0,0,1-.051-.7c.085-.185.352-.119.554-.168.084-.034.133-.136.167-.136,2.615-.167,5.211-.031,7.826-.082.212.424.719-.068.848.184.622,1.375.085,2.948.3,4.439.049.335.25.622.133.974-.051.15-.269.133-.352.233-.15.185-.034.437.017.636a2.659,2.659,0,0,1-.4,2.28,1.578,1.578,0,0,1-.451.335,2.517,2.517,0,0,1-1.122.212.365.365,0,0,0-.352.35.576.576,0,0,0,.2.454,4.158,4.158,0,0,0,1.977.151,1.413,1.413,0,0,0,.954-.352c.134-.134.4.116.619.15a3.4,3.4,0,0,0,.923-.068,13.506,13.506,0,0,1,3.283.034c1.156.151.872-.786-.151-.7-.167.017-.318-.133-.468-.335-.051-.066-.236,0-.335-.032-.185-.068-.017-.286-.051-.335a9.8,9.8,0,0,1-.8-2.28c-.034-.116-.212-.034-.352-.065-.1-.034-.066-.136-.051-.2.017-.167.269-.212.235-.369-.386-2.178,0-4.242-.212-6.363-.019-.172-.161-.263-.018-.417.079-.085.264-.2.186-.338a1.962,1.962,0,0,1-.151-.92c-.034-.235-.335-.151-.424-.335a.327.327,0,0,1,0-.253c.134-.116.384-.133.4-.335.119-1.071-.083-2.12.051-3.181.034-.35.085-.685.1-1.037,0-.151-.2-.252-.1-.424.017-.017.116-.034.133-.066a4.054,4.054,0,0,1,.688-1.374,1.48,1.48,0,0,1,.335-.168c.318-.15.7-.454.956-.335.435.233.4.032,1.139-.119.284-.167-.133-.82-.821-.787" style="fill:#fbce33"/></svg>