<svg xmlns="http://www.w3.org/2000/svg" viewBox="0 0 280 100"><title>HSBC</title><rect x="53.968" y="18.265" width="63.396" height="63.396" style="fill:#fff"/><polygon points="149.062 50.037 117.364 18.265 117.364 81.735 149.062 50.037" style="fill:#db0011"/><polygon points="85.666 50.037 117.364 18.265 53.968 18.265 85.666 50.037" style="fill:#db0011"/><polygon points="22.195 50.037 53.968 81.735 53.968 18.265 22.195 50.037" style="fill:#db0011"/><polygon points="85.666 50.037 53.968 81.735 117.364 81.735 85.666 50.037" style="fill:#db0011"/><polygon points="176.882 47.576 165.396 47.576 165.396 36.687 159.653 36.687 159.653 63.239 165.396 63.239 165.396 51.902 176.882 51.902 176.882 63.239 182.625 63.239 182.625 36.687 176.882 36.687 176.882 47.576"/><path d="M200.152,48.023l-2.238-.671c-3.729-1.193-5.519-1.79-5.519-3.729,0-2.387,2.088-3.5,4.251-3.5,2.685,0,4.1,1.417,4.326,3.8h5.743c-.074-5.892-4.549-7.682-9.7-7.682-5,0-10.516,2.014-10.516,7.906,0,4.773,4.177,6.414,8.353,7.608l1.94.522c2.983.9,4.773,1.491,4.773,3.58,0,2.61-2.685,3.8-5,3.8-3.133,0-4.774-1.716-4.848-4.55h-5.743c.074,6.339,4.773,8.652,10.516,8.652,5.221,0,11.039-2.313,11.113-8.279C207.61,51.007,204.7,49.441,200.152,48.023Z"/><path d="M225.659,49.441c3.133-.821,5.3-2.536,5.3-5.967,0-3.58-2.461-5.668-5.669-6.414a24.54,24.54,0,0,0-5.22-.3h-9.249l.075,26.478h10.441c4.625,0,10.591-1.343,10.591-7.384C231.924,51.9,229.239,50.112,225.659,49.441Zm-9.248-8.727h4.027c2.387,0,4.774.746,4.774,3.506,0,3.058-2.61,3.58-5.146,3.58h-3.655Zm4.177,18.572h-4.252V51.529h4.55c2.76,0,5,.6,5,3.878S223.273,59.286,220.588,59.286Z"/><path d="M251.838,55.407a4.571,4.571,0,0,1-4.922,4.1c-5,0-6.564-4.922-6.564-9.173s1.567-9.846,6.788-9.846a4.243,4.243,0,0,1,4.624,4.028h5.966c-.149-5.967-5.3-8.353-10.59-8.353-8.429,0-12.68,5.892-12.68,14.022s3.8,13.574,12.381,13.574c5.519,0,10.367-2.238,10.964-8.354Z"/></svg>