<svg xmlns="http://www.w3.org/2000/svg" viewBox="0 0 280 100"><title>ING Direct</title><path d="M52.6,68.254V43.462c0-1.978.328-3.186,1.063-3.919a4.485,4.485,0,0,1,3.289-.989H58.09V37.011H39v1.543h1.255a4.419,4.419,0,0,1,3.232.977c.735.734,1.064,1.947,1.064,3.932v24.79c0,3.43-.72,4.96-4.969,4.96H39v1.522H58.093V73.222l-.576-.008C53.309,73.163,52.6,71.643,52.6,68.254Z" style="fill:#091c5a;fill-rule:evenodd"/><path d="M95.988,38.488c5.78-.025,4.878,3.262,4.952,9.865V59.675a21.387,21.387,0,0,0,.379,2.415L77.479,37.056H64.719v1.485c4.237-.036,5.625,2.142,5.463,5.9l.035,2.9V65.163c0,7.479-.853,8.059-5.222,8.054v1.545H78.854V73.217c-4.362.079-5.2-.739-5.037-7.5V47.174a22.069,22.069,0,0,0-.371-2.413l28.707,30.01,1.892.02V48.353c.034-6.6-.715-9.889,5.237-9.865V37.005H95.988Z" style="fill:#091c5a;fill-rule:evenodd"/><path d="M138.657,55.171V56.64l.559.022c3.824.148,4.547.834,4.547,4.319v9.166c-2.838,1.87-4.9,2.581-7.5,2.581a13.8,13.8,0,0,1-9.9-4.111c-3.082-3.08-4.584-7.563-4.584-12.63,0-5.459,1.455-10.117,4.455-13.109a12.713,12.713,0,0,1,9.171-3.707,16.441,16.441,0,0,1,9.554,3.423,11.215,11.215,0,0,1,4,6.1l.125.415h1.432l-1.067-12.829h-1.465l-.068.5c-.1.747-.394,2-1.248,2a4.407,4.407,0,0,1-1.533-.427,26.972,26.972,0,0,0-10.049-2.076,22.438,22.438,0,0,0-16.1,6.35,20.081,20.081,0,0,0-5.772,14.419A16.936,16.936,0,0,0,119.6,70.392c4.3,3.678,9.123,5.246,16.128,5.246a26.067,26.067,0,0,0,14.3-3.587l.9-.486V61.673c0-4.217.518-4.872,3.951-5.011l.558-.022V55.171Z" style="fill:#091c5a;fill-rule:evenodd"/><path d="M222.926,74.634a4.62,4.62,0,0,0,2.666-.8,12.248,12.248,0,0,0,8.824-2.028,18.447,18.447,0,0,0,3.433-3.605,12.973,12.973,0,0,0,1.925-3.583,16.556,16.556,0,0,0,.761-2.521,23.945,23.945,0,0,0-.905-12.54,22.364,22.364,0,0,0-.824-2.086c-1.662-3.431-3.924-7.132-7.408-9.3a14.881,14.881,0,0,1-4.875-5.069c-.6-.542-1.18-1.26-1.959-1.39a3.025,3.025,0,0,1,.506,1.106l-.045.058a2.867,2.867,0,0,1-2.042-.942l.622-.565a3.313,3.313,0,0,0-.767-.226c-2.383-.27-4.34.829-6.453,1.357l-.033.117c1.295.576,1.568,2,2.324,2.97.186-.224.505-.06.766-.08.377.021.731.293,1.1.2a3.46,3.46,0,0,0-.223-.847,1.582,1.582,0,0,1,.743,0c.684.4,1.779-.07,2.205.847a12.9,12.9,0,0,0-2.241.391c.048.3.343.529.319.825a7.432,7.432,0,0,0-1.983-.505l-.035.1a6.824,6.824,0,0,0,3.339,2.015c1.782.411,3.351-.436,5.072-.141,4.225,1.933,7.835,6.354,9.4,10.551q.115.3.221.613a20.388,20.388,0,0,1,.247,12.539,15.352,15.352,0,0,1-2.705,4.583,9.36,9.36,0,0,1-1.547,1.522,6.948,6.948,0,0,1-6.206,1.369c-.142-.1-.425-.121-.377-.367.078-.328.151-.661.216-1a24.864,24.864,0,0,0,.445-5.946l-.008-.259a22.731,22.731,0,0,0-1.784-8.085,28.121,28.121,0,0,0-2.543-4.455,10.555,10.555,0,0,0-4.726-3.887c-1.2-.319-2.69-.379-3.6.622a2.423,2.423,0,0,0-.826,2.171,7.429,7.429,0,0,1-3.4,1.094,9.194,9.194,0,0,1-.933.135,5.281,5.281,0,0,1-.88-.034,8.726,8.726,0,0,1-4.154-1.909c-.025-.614-.06-1.192-.084-1.839a2.215,2.215,0,0,1-1.249-1.757l.058-.058a4.977,4.977,0,0,1,1.05.505,7.815,7.815,0,0,0-.789-2.628c-.426-.178-.851-.319-1.251-.531a2.012,2.012,0,0,1-.824-1.365c.414.4,1.131.259,1.45.682-.556-1.639-.565-3.512-1.475-5.01-.46-1.106-1.664-1.614-2.49-2.426-.319-.391-.447-.933-1.025-.993-.472-.117-.507-.646-.59-.99.294.036.541.236.789.283-.684-1.813-1.287-3.83-3.137-4.985l-.318.2a20.1,20.1,0,0,1-2.206.177,3.041,3.041,0,0,1,1.333-.888,3.169,3.169,0,0,0-1.6-.586,3.32,3.32,0,0,1-1.543.673l-.061-.048c-.012-.424-.108-.942.531-1.049a3.7,3.7,0,0,0-2.257,0c-.175.46-.681.873-.645,1.417a9.759,9.759,0,0,1-1,1.155,10.857,10.857,0,0,1,.54-2.51c-.531.2-1.07.483-1.59.73a21.786,21.786,0,0,0-2.614-1.334c-.081-.036-.259-.069-.224.083.767.553.469,1.592.552,2.379l-.485-.4c-.235-.6-.916-1.036-1.036-1.7a9.03,9.03,0,0,0-2.06.684l-.1.059a1.659,1.659,0,0,1,1.295.873,15.323,15.323,0,0,1-2.407-.368c-.082-.08-.155-.177-.284-.165a4.485,4.485,0,0,0-1.13.731,7.912,7.912,0,0,0-2.03,2.748,1.761,1.761,0,0,1,.814.2c-.447.27-.837.731-1.273.989a10.784,10.784,0,0,0-.166,1.981,8.7,8.7,0,0,0-1.025,1.558,23.059,23.059,0,0,0-.814,7.682c-.238.225-.545.368-.767.544l.024,2.4h.058c.1-.505.708-.787,1.074-1.129h.119c-.06.541-.13,1.084-.142,1.638l-.679.565c-.686.6-.107,1.509-.165,2.265.048.2.081.493.223.541a3.225,3.225,0,0,1,.508-.767c.294-.069.554-.307.824-.34a12.621,12.621,0,0,1-.59,1.732,1.981,1.981,0,0,0-.358.294.856.856,0,0,0-.244.436,53.718,53.718,0,0,0,2.322,8.178c-.647,1.1-1.015,2.388-1.554,3.522-.078.156-.147.32-.212.484-.541,1.37-.707,2.9-1.381,4.219a4.974,4.974,0,0,0-.872-.46,3.554,3.554,0,0,0-3.682.826,3.151,3.151,0,0,0-2.326.425,3.078,3.078,0,0,0-1.031,1.259,2.548,2.548,0,0,0-.184,1.122,2.713,2.713,0,0,0-.99,1.5,4.654,4.654,0,0,0,.933,3.574h58.806Z" style="fill:#fff;fill-rule:evenodd"/><path d="M215.115,48.133c-.012.306-.236.649-.035.908.284-.319.756-.308,1.133-.447a9.311,9.311,0,0,1,3.031.471c-.246-.39-.415-.823-.683-1.178-.545-.141-1.369.235-1.463-.566-.331-.283-.852-.08-1.191-.06A2.679,2.679,0,0,0,215.115,48.133Z" style="fill:#fff;fill-rule:evenodd"/><path d="M179.058,37.958a.042.042,0,0,0-.018-.011v.011Z" style="fill:#fff;fill-rule:evenodd"/><path d="M183.347,48.434l.709-.683a.155.155,0,0,1,.14.06l-.057,1.306a1.849,1.849,0,0,0,1.215.448c.036-.354.307-.6.461-.908.13-.247.048-.613.306-.791l.081.083a3.9,3.9,0,0,0,.262,1.167c.024.187.058.424.081.589a2.957,2.957,0,0,0,1.392-.306,5.319,5.319,0,0,1,.2-1.227c.108-.142-.13-.4.166-.388.165.353.461.718.626,1.095a4.621,4.621,0,0,0,1.132-2.544c-.2-.273-.507-.273-.744-.448a8.879,8.879,0,0,0-6.514.222A3.032,3.032,0,0,0,183.347,48.434Z" style="fill:#fff;fill-rule:evenodd"/><path d="M164.6,70.55a18.4,18.4,0,0,0,.057,2.656,1.367,1.367,0,0,0,.872.661l.062-.6c.14-.839-.308-1.728.165-2.434a5.794,5.794,0,0,1,.944.424,2.064,2.064,0,0,0-.8-2.156Z" style="fill:#fff;fill-rule:evenodd"/><path d="M167.512,69.279a6.915,6.915,0,0,0-.245,4.53,5.1,5.1,0,0,0,.928-.706,4.908,4.908,0,0,1,.449-3.212,2.085,2.085,0,0,1,1.192,1.274,2.185,2.185,0,0,0,.367-1.841c.023-.518-.57-.4-.851-.612.095-.436.082-.941.543-1.187l-1.416.141A6.74,6.74,0,0,0,167.512,69.279Z" style="fill:#fff;fill-rule:evenodd"/><path d="M170.425,73.348c.06.108,0,.3.118.319.178-.989.98-1.631,1.418-2.5.21-.294.2-.707.54-.932.462,0,.792.331,1.241.367.141.1-.073.2-.083.316a11.621,11.621,0,0,0-.342,2.292h.08a11.9,11.9,0,0,0,1.511-2.128l.081-.669c.1-.8-.767-1.32-1.333-1.65l.507-.649-.707-.248a3.227,3.227,0,0,0-2.149,1.074,9.579,9.579,0,0,0-.88,4.411Z" style="fill:#fff;fill-rule:evenodd"/><path d="M173.6,66.354c.27.083.517-.141.787-.023a7.124,7.124,0,0,1,3.034,1.72l.968,2.462.484-1.519-.319-.826c-.271-.589-1.015-.541-1.523-.565-.211-.236.013-.508.085-.73.245-.837-.781-.791-1.192-1.13.026-.508-.59-.331-.932-.379l-.117-.141a.242.242,0,0,0-.341-.025h0c-.025-.034-.071-.058-.045-.118l-.263.06a1.667,1.667,0,0,0-.621,1.213Z" style="fill:#fff;fill-rule:evenodd"/><path d="M174.283,63.645a.746.746,0,0,0,.247.4c.532-.141,1.036-.5,1.651-.283a9.36,9.36,0,0,0,2.575,1.8l.34-.06c.213.073.447.083.59.318.131.319-.2.508-.306.766.532.389.319,1.086.65,1.554l.85-1.13c-.2-.5.011-1.344-.768-1.391a.747.747,0,0,1-.425-.685c-.505-.459-1.131-.658-1.64-1.13-.414-.331-.659-.838-1.191-.955a4.434,4.434,0,0,0-1.189-.4C174.873,62.336,174.8,63.277,174.283,63.645Z" style="fill:#fff;fill-rule:evenodd"/><path d="M175.415,61.323l.142.224c.589-.037,1.122-.295,1.7-.284.388.237.9.226,1.295.425a4.527,4.527,0,0,0,1.131,1.226c.958.14,1.487,1.167,1.817,1.917v-.363a2.516,2.516,0,0,0-.2-1.554c-.236-.236-.578-.391-.825-.6a.485.485,0,0,1,.035-.362,7.619,7.619,0,0,0-1.356-.907c-.625-.908-1.829-.66-2.785-.908l-.956,1.191Z" style="fill:#fff;fill-rule:evenodd"/><path d="M175.4,52.676c.1.367.233.826.3,1.214.331-.73.985-1.058,1.56-1.658a2.993,2.993,0,0,0-1.108-.4v-.021C175.89,52.065,175.489,52.325,175.4,52.676Z" style="fill:#fff;fill-rule:evenodd"/><path d="M177.539,56.553l.531-.541a3.354,3.354,0,0,0,1.05-1.865,1.515,1.515,0,0,0-1.238.058,14.878,14.878,0,0,0-.343,2.346Z" style="fill:#fff;fill-rule:evenodd"/><path d="M177.927,58.216a3.441,3.441,0,0,0,2.267-.246l.659-2.124a1.605,1.605,0,0,0-.621-.035A5.157,5.157,0,0,1,177.927,58.216Z" style="fill:#fff;fill-rule:evenodd"/><path d="M178.167,50.7a4.725,4.725,0,0,0,2.324,1.9c-.1-.989-.954-1.674-1.392-2.521l-.024-.283a4.388,4.388,0,0,0-1.11-.732A5.533,5.533,0,0,0,178.167,50.7Z" style="fill:#fff;fill-rule:evenodd"/><path d="M181.043,58.31a4.118,4.118,0,0,0,1.876-.179c.839-.2,1.3-1.118,1.581-1.836h-1.049L182.317,57.4a8.964,8.964,0,0,0-1.274.909Z" style="fill:#fff;fill-rule:evenodd"/><path d="M180.917,49.624a6.865,6.865,0,0,0,1.1,2.549l.141-1.757Z" style="fill:#fff;fill-rule:evenodd"/><path d="M184.784,54.209a8.756,8.756,0,0,0-.243-1.873c-.355-.237-.852-.213-1.217-.447A3.459,3.459,0,0,0,184.784,54.209Z" style="fill:#fff;fill-rule:evenodd"/><path d="M183.71,60.2a11.725,11.725,0,0,0,2.146-.874c.436-.621,1.1-1.191,1.191-1.921-.542.153-1.015-.022-1.52.226a3.877,3.877,0,0,1-1.086,1.578C184.347,59.606,183.911,59.879,183.71,60.2Z" style="fill:#fff;fill-rule:evenodd"/><path d="M184.865,61.647l.885,1.154a1.79,1.79,0,0,0,1.475-.165l-.319-1.049A4.1,4.1,0,0,1,184.865,61.647Z" style="fill:#fff;fill-rule:evenodd"/><path d="M186.341,53.3l.342,1.554a3.138,3.138,0,0,0,.972-2.687,3.684,3.684,0,0,1-1.314,1.131Z" style="fill:#fff;fill-rule:evenodd"/><path d="M188.665,56.048a1.135,1.135,0,0,0,.2.614c.92.329,1.014,1.45,1.865,1.872a2.111,2.111,0,0,0,1.674-.283c-.366-.415-.781-.7-1.132-1.132-.248-.1-.5-.259-.484-.566l-2.124-.5Z" style="fill:#fff;fill-rule:evenodd"/><path d="M189.4,61.611a2.753,2.753,0,0,0,1.511.824c-.093-.13.061,0,.083-.082L190.28,60.8c-.354.009-.719.081-1.049.058a3.175,3.175,0,0,0,.164.753Z" style="fill:#fff;fill-rule:evenodd"/><path d="M190.647,54.348a9.06,9.06,0,0,1-.563-2.543c-.354.423-.72.7-1.05,1.129C188.88,53.808,190.127,54.022,190.647,54.348Z" style="fill:#fff;fill-rule:evenodd"/><path d="M192.086,53.55c.425.553,1.356.363,1.879.2-.25-.425-1.049-.673-1.192-1.131a10.071,10.071,0,0,0-.508-2.345C191.853,51.274,191.355,52.466,192.086,53.55Z" style="fill:#fff;fill-rule:evenodd"/><path d="M192.829,56.048c1.181.862,2.336,1.862,3.988,1.5.119-.083.319-.071.343-.223-.485-.308-1-.543-1.5-.824l-.565-.826h-.259a10.287,10.287,0,0,1-2.006.377Z" style="fill:#fff;fill-rule:evenodd"/><path d="M192.854,65.607h.08a6.382,6.382,0,0,1,2.383-.991c.225.082.083.33.283.426.509-.213,1.122-.166,1.641-.343a3.572,3.572,0,0,1,1.64.307c.4.529,1.156.472,1.677.824l-.084-.824c-1.1-1.286-2.808-1.38-4.387-1.355l-.036-.166a2.8,2.8,0,0,0-1.155.249,6.021,6.021,0,0,0-1.476.423A13.23,13.23,0,0,0,192.854,65.607Z" style="fill:#fff;fill-rule:evenodd"/><path d="M193.8,51.122a2,2,0,0,0,1.923.908,2.237,2.237,0,0,1-.885-1.356c.119-1.05-1.036-1.131-1.606-1.675A7.158,7.158,0,0,0,193.8,51.122Z" style="fill:#fff;fill-rule:evenodd"/><path d="M193.681,67.694h.137c.627-.392,1.536-.1,2.15-.509.342-.178.362.294.6.424.578.354.648,1.413,1.463,1.168.978.506.731,1.7.766,2.57l.909-.566c-.083-.459.175-1.016-.12-1.415-.223-.5-.836-.553-1.13-.966.354-.6-.448-.883-.615-1.32l.048-.06,1.248.165a1.86,1.86,0,0,1,.71,1.167c.98.165,1.216,1.272,1.559,1.98.2-.483.282-1,.483-1.472.012-.391-.507-.391-.766-.566a2.111,2.111,0,0,0-.872-1.532,13,13,0,0,0-3.233-.873l-.992.307c-.543.13-1.121-.035-1.533.34C193.879,66.583,193.832,67.257,193.681,67.694Z" style="fill:#fff;fill-rule:evenodd"/><path d="M194.3,62.837l.226.1c.482-.225.967-.484,1.475-.673.789-.224,1.4.673,2.065.107.247-.178.458.082.648.224.284.518.944.484,1.44.625-.247-.673-.554-1.592-1.416-1.7a8.421,8.421,0,0,1-1.074-.34c-.908-1-1.5.823-2.49.376A2.765,2.765,0,0,0,194.3,62.837Z" style="fill:#fff;fill-rule:evenodd"/><path d="M194.529,68.576c.377.316.765.861,1.354.789.735.342.428,1.307.829,1.813l.424-.378-.035-.023.06-.059.025.035a2.249,2.249,0,0,0-.25-1.391c-.271-.186-.59.013-.848-.165a1.191,1.191,0,0,0-.544-.8c-.189-.141-.437.048-.649.035l-.365.144Z" style="fill:#fff;fill-rule:evenodd"/><path d="M196,54.209a6.09,6.09,0,0,0,1.746,1.5,2.807,2.807,0,0,0,1.676.165,10.8,10.8,0,0,1-1.392-1.38c-.165-.236-.2-.529-.425-.742a3.337,3.337,0,0,0-1.606.46Z" style="fill:#fff;fill-rule:evenodd"/><path d="M196.655,49.991c.544.67,1.381.4,2.148.423v-.081l-1.18-.992A3.157,3.157,0,0,0,196.655,49.991Z" style="fill:#fff;fill-rule:evenodd"/><path d="M174.936,38.876,175.619,41c-.013-1.2.542-2.2.425-3.43l.508-.755-1.075.33A3.987,3.987,0,0,0,174.936,38.876Z" style="fill:#fff;fill-rule:evenodd"/><path d="M175.4,35.2l.932-.543V33.277a4.894,4.894,0,0,0-.907.956Z" style="fill:#fff;fill-rule:evenodd"/><path d="M194.532,37.345a1.316,1.316,0,0,1-.849.424,4.024,4.024,0,0,0,.341-3.2,4.636,4.636,0,0,0,.792-.282l-.026-.023.651-.57c.861-.589.53-1.709.849-2.544-.424-.661-.553-1.462-1.168-2.017l.037-.022c-.486-.613-1.359-.544-2.021-.85-.872-.3-1.544.306-2.169.709-.271.046-.1.4-.4.388a11.981,11.981,0,0,0-.484,1.391,4.716,4.716,0,0,0-3.362.624,4.987,4.987,0,0,0-1.677-.6c-.424-.081-.908.072-1.213-.166-.447-.5-.545-1.425-1.312-1.554-.27-.094-.328-.388-.328-.648-.508-.082-.958-.316-1.454-.425-.752-.342-1.354.2-1.921.566a5.806,5.806,0,0,0-.765.284,10.746,10.746,0,0,0-1.1,2.06,4.253,4.253,0,0,0,.651,1.639,3.329,3.329,0,0,0,1.839,1.675,6.93,6.93,0,0,0,0,3.736l-.02.012-.038.032a.639.639,0,0,1-.327-.032h-.015A5.132,5.132,0,0,0,180.6,40.91c.308.109.237.473.368.709a.557.557,0,0,1,.057.424,9.257,9.257,0,0,0-4.954,1.236c-.377.189-.211.709-.246,1.073a9.108,9.108,0,0,1,3.4-1.413,5.128,5.128,0,0,1,1.64-.024l.06,1.014c-1.4.73-2.938,1.155-4.144,2.357a4.7,4.7,0,0,0,.06,1.1l1.074-.875a12.8,12.8,0,0,1,3.315-1.9,4.166,4.166,0,0,0,1.076,1.013,8,8,0,0,1,2.323-1.013c.438-.259,1.131-.024,1.415-.541l.2-1.074c-.036-.024-.058-.069-.118-.056a1.626,1.626,0,0,1-.873-1.521,1.576,1.576,0,0,1-.625.164c-.189-.047-.362-.093-.447-.283-.013-.237-.131-.589.1-.766a4.563,4.563,0,0,1,2.727-.423c.719.093,1.761.057,2,.908-.033.247-.012.518-.259.683-.259.141-.554-.013-.792-.117A1.946,1.946,0,0,1,186.8,43l.084.685c.081.307.1.812.59.706a10.323,10.323,0,0,1,3.09,1.474,7.405,7.405,0,0,0,.825-1.05,15.443,15.443,0,0,1,4.7,3.111l.06-.989a16.147,16.147,0,0,0-4.472-2.746,6.048,6.048,0,0,0,.141-.966,11.569,11.569,0,0,1,5.2,1.592L197,43.969a11.567,11.567,0,0,0-5.356-1.474.593.593,0,0,1-.081-.366,2.63,2.63,0,0,0,1.842-1.981c.482-.553,1.18-1.155,1.015-1.978.022-.067.045-.14.069-.211A.979.979,0,0,0,194.532,37.345Z" style="fill:#fff;fill-rule:evenodd"/><path d="M196.173,40.374l.967-.308.1-.541c.274-.79-.3-1.379-.59-2l-.481,2.854Z" style="fill:#fff;fill-rule:evenodd"/><path d="M198.612,44.11c.461.505.91,1.32,1.725,1.071a5.052,5.052,0,0,0-.367-.933c-.214-.249-.283-.955-.708-.706-.319-.213-.4-.57-.6-.85A8.611,8.611,0,0,0,198.612,44.11Z" style="fill:#fff;fill-rule:evenodd"/><path d="M198.779,47.563c.178.249.226.57.4.791a1.909,1.909,0,0,0,1.18.141c.354-.082.578.306.909.08-.412-.259-.659-.73-1.051-1.07C199.756,47.138,199.265,47.456,198.779,47.563Z" style="fill:#fff;fill-rule:evenodd"/><path d="M199.405,53.043a4.552,4.552,0,0,0,2.934.791c.117-.061.319-.049.342-.191-.674-.237-1.378-.908-2.084-1.049-.391-.6-.9.155-1.393.106C199.215,52.842,199.356,52.95,199.405,53.043Z" style="fill:#fff;fill-rule:evenodd"/><path d="M201.855,63.448l.178.38c.177,1.226.954,2.356.529,3.7.354.247.462.659.684.989h.06a7.877,7.877,0,0,0-.06-3.112C203.357,64.473,202.41,63.931,201.855,63.448Z" style="fill:#fff;fill-rule:evenodd"/><path d="M202.062,51.38a2.643,2.643,0,0,0,2.3.284,7.148,7.148,0,0,1-1.31-.849Z" style="fill:#fff;fill-rule:evenodd"/><path d="M204.97,55a1.279,1.279,0,0,0,.625,1.155,2.628,2.628,0,0,0,.363-.871,2.156,2.156,0,0,0-.848-1.308A2.9,2.9,0,0,0,204.97,55Z" style="fill:#fff;fill-rule:evenodd"/><path d="M205.007,60.372c-.083.553.529.626.789.932.213.259-.142.436-.142.683a3.193,3.193,0,0,1,.708,2,19.607,19.607,0,0,0,.546-2.146c-.048-.518-.873-.415-.744-.989a2.552,2.552,0,0,0-.2-1.7c-.048-.084-.155-.25-.245-.2C205.5,59.442,204.97,59.783,205.007,60.372Z" style="fill:#fff;fill-rule:evenodd"/><path d="M206.623,57.567l.612,1.192c.273-.033.447-.3.66-.482.167-.5-.271-.814-.4-1.215-.108-.283,0-.66-.2-.908-.152-.093-.331-.247-.507-.2l-.163,1.615Z" style="fill:#fff;fill-rule:evenodd"/><path d="M207.412,54.434a3.413,3.413,0,0,1,1.295,1.235c.414,1.2,1.075,2.288,1.558,3.454.178.813.319,1.539.543,2.34.084.208.036.622.368.589.093-.9.271-1.756.282-2.687a3.552,3.552,0,0,0-1.05-.791v-.082c.048-.2.213-.436.461-.4.1-.121.424-.237.284-.448-.614-.612-.579-1.669-1.56-1.859a.888.888,0,0,1-.457-.824A2.821,2.821,0,0,0,207.412,54.434Z" style="fill:#fff;fill-rule:evenodd"/><path d="M207.977,60.823c.6.551.392,1.354.343,2.1-.094.448.472.189.65.424a2.568,2.568,0,0,1,.022,1.922,11.473,11.473,0,0,0,.932-1.438c-.012-.2.246-.3.237-.542.1-.342-.295-.189-.46-.227-.141-.035-.295-.129-.25-.317a2.864,2.864,0,0,0-.093-1.885c-.141-.485.061-1.131-.165-1.554-.377.518-1.5.637-1.216,1.521Z" style="fill:#fff;fill-rule:evenodd"/><path d="M209.075,52.452c1.051,1.061,1.818,2.127,2.952,3.153a12.082,12.082,0,0,0-.059-1.332,3.163,3.163,0,0,0-.733-.789C210.4,53.4,209.96,52.276,209.075,52.452Z" style="fill:#fff;fill-rule:evenodd"/><path d="M211.825,58.07a1.8,1.8,0,0,0,.117.306,15.6,15.6,0,0,1,1.217,2.345c-.095-.871.5-1.957-.284-2.627-.1-.284-.46-.189-.685-.166Z" style="fill:#fff;fill-rule:evenodd"/><path d="M214.656,66.68c.332.15.755-.121,1.074-.308a.965.965,0,0,1,.768.247c.093.188,0,.363.033.542a7.2,7.2,0,0,1,2.031.872l.2-.2a1.387,1.387,0,0,0-.73-1.154c-.247-.145-.616-.061-.79-.286a1.217,1.217,0,0,0,.1-.683,1.707,1.707,0,0,1-.957-.307c-.2-.058-.377-.223-.542,0-.589.4-.622.99-1.192,1.276Z" style="fill:#fff;fill-rule:evenodd"/><path d="M215.483,51.848a2.13,2.13,0,0,0,.85-.377c.788-.72,1.933-.237,2.853-.248a6.373,6.373,0,0,0-.648-.908,2.732,2.732,0,0,0-1.015-.284c-.8-.469-1.344.319-1.959.707A1.321,1.321,0,0,0,215.483,51.848Z" style="fill:#fff;fill-rule:evenodd"/><path d="M215.506,54.273c0-.033,0-.071.035-.081.1.095-.013.317.165.363a6.729,6.729,0,0,0,.873-.563c.791,0,1.263-.766,2.039-.766a11.715,11.715,0,0,1,3.717,1.13,2.553,2.553,0,0,0-1.413-1.8.977.977,0,0,0-.946.284c-.792.5-.377-.718-.932-.743a5.843,5.843,0,0,1-2.264.4c-.473.175-.805.609-1.334.564a2.972,2.972,0,0,0,.059,1.213Z" style="fill:#fff;fill-rule:evenodd"/><path d="M216.047,56.9c.246.259.659.21,1.016.259l1.024-.4c.013-.189-.306-.239-.237-.447.284-.319.674-.1,1.027-.227.5-.07,1-.564,1.5-.2-.011.058.025.142-.021.2-.156.366.1.589.388.73.579.108,1.121.639,1.7.4a10.337,10.337,0,0,0-.307-1.391c-.483-.083-.824-.483-1.274-.649a.969.969,0,0,1-.708.307c-.909-.212-1.994-.777-2.913-.2-.332.4-.922.282-1.369.457A5.16,5.16,0,0,0,216.047,56.9Z" style="fill:#fff;fill-rule:evenodd"/><path d="M216.437,63.908c-.072.2-.27.531.094.624.756.026,1.723-.362,2.315.225.2.155.1.471.093.673l.989.826a8.5,8.5,0,0,0,.284-1.475,1.648,1.648,0,0,0-.6-.99c-.651,0-1.029-.76-1.725-.663-.362-.084-.682.24-1.05.24a6.241,6.241,0,0,0-.4.541Z" style="fill:#fff;fill-rule:evenodd"/><path d="M216.721,58.353c.152.316.331.836.625.872a3.352,3.352,0,0,1,2.49-.163c.259.047.259.341.2.531.4.236.885.423,1.308.683l-.117-.706c-.025-.767-.992-.839-1.051-1.595a4.689,4.689,0,0,0-2.513-.14c-.273.249-.66.213-.992.285C216.652,58.211,216.708,58.268,216.721,58.353Z" style="fill:#fff;fill-rule:evenodd"/><path d="M216.923,62.17c.46-.13.752-.637,1.249-.683a2.3,2.3,0,0,1,1.9.966c.286.188.225.674.59.674a11.756,11.756,0,0,1,.06-1.7c-.5-.824-1.721-.189-2.182-1.155l-.872.058c-.626.156-.459.885-.545,1.38-.071.155-.212.271-.2.46Z" style="fill:#fff;fill-rule:evenodd"/><path d="M221.249,67.326c.367.73,1.172,1.286,1.252,2.124a3.974,3.974,0,0,0,.449-.731c-.012-.236-.285-.236-.392-.424-.1-.306.061-.577.107-.85a2.28,2.28,0,0,0-.932-1.107Z" style="fill:#fff;fill-rule:evenodd"/><path d="M222.7,65.465l.848,1.154a3.042,3.042,0,0,0,.224-2.123c-.081-.13-.236-.342-.448-.247-.32.331-.366.836-.621,1.215Z" style="fill:#fff;fill-rule:evenodd"/><path d="M219.245,33.2a2.458,2.458,0,0,0,.967.317,1.254,1.254,0,0,1,.875-.141c.436.284.967-.059,1.472-.035a5.436,5.436,0,0,0-1.472-.929C220.425,32.556,219.9,33.025,219.245,33.2Z" style="fill:#fff;fill-rule:evenodd"/><path d="M223.86,34.312c.622.058,1.072.611,1.5,1.074a2.1,2.1,0,0,1,1.251.848l-.2-.626a4,4,0,0,0-.932-1.6A4.571,4.571,0,0,0,223.86,34.312Z" style="fill:#fff;fill-rule:evenodd"/><path d="M179.83,29.14l.341.035c.922.46,2.408.7,2.49,2.027a7.275,7.275,0,0,0-2.569,1.614c-.566-.578-1.712-.259-1.9-1.272C178.37,30.589,178.71,29.389,179.83,29.14Z" style="fill:#f60;fill-rule:evenodd"/><path d="M180.717,35.117c1.072-.093,2.11.057,3.221-.035a1.4,1.4,0,0,1,.684.625c-.036,1.271-.426,2.486-.485,3.794a1.742,1.742,0,0,0-1.072,1.132,9.273,9.273,0,0,0-1.252.588,1.237,1.237,0,0,1,.179-1.33c.459-.65,1.651-.5,1.554-1.521.307-.5.012-1.132.025-1.651-.119-.388-.236.13-.425.117a1.543,1.543,0,0,1-1.1-.08c-.249-.263-.555-.473-.626-.827a1.929,1.929,0,0,1-.884-.767Z" style="fill:#f60;fill-rule:evenodd"/><path d="M182.016,42.8c.5.07,1.036-.155,1.474.094a.843.843,0,0,1-.542.283l-.791.366C181.86,43.471,182.026,43,182.016,42.8Z" style="fill:#f60;fill-rule:evenodd"/><path d="M184.079,32.959c.506-.166,1.05-.505,1.593-.341a7.552,7.552,0,0,0-.99,1.366l-1.616-.034A2.274,2.274,0,0,1,184.079,32.959Z" style="fill:#f60;fill-rule:evenodd"/><path d="M188.811,32.571c.67-.117.635.754,1.249.791.107.141.259.269.2.48a10.318,10.318,0,0,1-1.275.166c-.531-.3-.187-1.215-1.026-1.155-.046-.069-.142-.212-.023-.259a2.034,2.034,0,0,1,.875-.023Z" style="fill:#f60;fill-rule:evenodd"/><path d="M188.387,35.73a1.616,1.616,0,0,1,1.167-.531l3.057.059c.13.117-.117.223-.117.363-.19.176-.462.224-.627.39-.4.013-.367.481-.649.682-.438.437-1.073.238-1.581.166a1.346,1.346,0,0,1-.46-.508l-.142.141c.178.661.13,1.393.259,2.063l.732.485c.012,1.084,1.287.789,1.841,1.391a3.317,3.317,0,0,1-.67,1.05,3.931,3.931,0,0,0-1.5-.908c-.047-.638-.743-1.013-1.133-1.333-.1-1.155-.13-2.331-.317-3.453Z" style="fill:#f60;fill-rule:evenodd"/><path d="M189.494,43h1.417l-.178.744-1.417-.6C189.284,43.024,189.411,42.989,189.494,43Z" style="fill:#f60;fill-rule:evenodd"/><path d="M192.042,29.649l1.05-.331a10.631,10.631,0,0,1,1.722,1.036,4.146,4.146,0,0,1,.165,2.78c-.319.356-1.014,0-1.273.566h-.048a5.179,5.179,0,0,0-2.526-2.6,2.184,2.184,0,0,1,.909-1.447Z" style="fill:#f60;fill-rule:evenodd"/><path d="M216.649,74.55h6.295a4.6,4.6,0,0,0,2.665-.8,12.256,12.256,0,0,0,8.825-2.025,18.466,18.466,0,0,0,3.431-3.605,12.973,12.973,0,0,0,1.926-3.585,16.647,16.647,0,0,0,.761-2.522,23.989,23.989,0,0,0-.9-12.541q-.371-1.082-.828-2.083c-1.662-3.431-3.921-7.131-7.408-9.3a14.89,14.89,0,0,1-4.875-5.069c-.6-.544-1.181-1.262-1.959-1.392a3.058,3.058,0,0,1,.508,1.107l-.047.06A2.864,2.864,0,0,1,223,31.844l.627-.564a3.314,3.314,0,0,0-.768-.223c-2.382-.271-4.341.824-6.452,1.355l-.035.117c1.295.577,1.566,2,2.323,2.971.189-.225.508-.06.767-.085.376.025.731.3,1.095.2a3.174,3.174,0,0,0-.223-.846,1.535,1.535,0,0,1,.744,0c.683.4,1.781-.073,2.206.846a12.8,12.8,0,0,0-2.241.389c.046.295.341.531.318.826a7.379,7.379,0,0,0-1.983-.507l-.032.1a6.836,6.836,0,0,0,3.337,2.018c1.781.411,3.35-.436,5.07-.141,4.227,1.933,7.835,6.354,9.406,10.55q.116.3.22.611a20.4,20.4,0,0,1,.248,12.541,15.388,15.388,0,0,1-2.71,4.585,9.56,9.56,0,0,1-1.548,1.521,6.935,6.935,0,0,1-6.2,1.365c-.141-.092-.426-.117-.38-.362.079-.328.156-.663.217-1a24.842,24.842,0,0,0,.45-5.943c0-.087-.006-.174-.01-.259a22.683,22.683,0,0,0-1.784-8.084,27.984,27.984,0,0,0-2.542-4.454,10.532,10.532,0,0,0-4.726-3.89c-1.2-.319-2.693-.377-3.6.625a2.418,2.418,0,0,0-.829,2.168,7.39,7.39,0,0,1-3.4,1.1c-.3.026-.616.136-.932.134a4.99,4.99,0,0,1-.881-.036,8.685,8.685,0,0,1-4.157-1.909c-.024-.61-.06-1.192-.083-1.837a2.223,2.223,0,0,1-1.249-1.756l.061-.06a4.965,4.965,0,0,1,1.047.508,7.718,7.718,0,0,0-.789-2.628c-.425-.178-.853-.318-1.252-.532a2.011,2.011,0,0,1-.823-1.367c.411.4,1.131.259,1.45.685-.553-1.639-.566-3.512-1.475-5.01-.46-1.108-1.664-1.614-2.49-2.429-.319-.388-.447-.929-1.026-.99-.471-.117-.508-.649-.59-.988.295.033.542.235.792.281-.686-1.816-1.288-3.829-3.139-4.984l-.319.2a19.4,19.4,0,0,1-2.207.177,3.044,3.044,0,0,1,1.334-.885,3.192,3.192,0,0,0-1.6-.589,3.267,3.267,0,0,1-1.542.673l-.058-.045c-.013-.423-.111-.945.527-1.049a3.676,3.676,0,0,0-2.254,0c-.178.46-.681.871-.648,1.413a9.58,9.58,0,0,1-1,1.156,10.834,10.834,0,0,1,.541-2.51c-.531.2-1.071.481-1.589.731a21.724,21.724,0,0,0-2.616-1.332c-.083-.036-.259-.072-.226.081.767.554.471,1.59.553,2.383l-.484-.4c-.236-.6-.918-1.035-1.036-1.7a8.952,8.952,0,0,0-2.06.685l-.1.058a1.667,1.667,0,0,1,1.3.871,15.369,15.369,0,0,1-2.405-.363c-.083-.083-.153-.177-.285-.165a4.556,4.556,0,0,0-1.132.732,7.914,7.914,0,0,0-2.028,2.745,1.818,1.818,0,0,1,.814.2c-.447.271-.837.73-1.275.99a10.872,10.872,0,0,0-.165,1.981,8.929,8.929,0,0,0-1.026,1.554,23.147,23.147,0,0,0-.814,7.684c-.236.223-.544.368-.766.543l.024,2.4h.058c.108-.507.71-.79,1.074-1.131h.119c-.058.542-.13,1.083-.141,1.639l-.685.565c-.682.6-.1,1.506-.165,2.26.049.2.082.5.227.545a3.155,3.155,0,0,1,.5-.766c.295-.073.553-.307.825-.343a12.443,12.443,0,0,1-.59,1.732,2.167,2.167,0,0,0-.36.295.852.852,0,0,0-.238.438,52.935,52.935,0,0,0,2.329,8.17c-.65,1.094-1.017,2.386-1.558,3.518-.077.159-.146.319-.212.484-.542,1.372-.707,2.9-1.382,4.22a4.622,4.622,0,0,0-.871-.461,3.56,3.56,0,0,0-3.681.825,3.163,3.163,0,0,0-2.327.423,3.1,3.1,0,0,0-1.03,1.263,2.569,2.569,0,0,0-.183,1.12,2.7,2.7,0,0,0-.989,1.5,4.641,4.641,0,0,0,.932,3.574Z" style="fill:#fff;fill-rule:evenodd"/><path d="M239.65,49.471q-.371-1.083-.828-2.084c-1.662-3.431-3.921-7.13-7.408-9.3a14.89,14.89,0,0,1-4.875-5.069c-.6-.544-1.181-1.262-1.959-1.391a3.05,3.05,0,0,1,.508,1.107l-.047.059A2.863,2.863,0,0,1,223,31.847l.627-.565a3.314,3.314,0,0,0-.768-.223c-2.382-.27-4.341.824-6.452,1.355l-.035.117c1.295.577,1.566,2,2.323,2.972.189-.226.508-.061.767-.085.376.024.731.3,1.095.2a3.184,3.184,0,0,0-.223-.846,1.535,1.535,0,0,1,.744,0c.683.4,1.781-.073,2.206.846a12.8,12.8,0,0,0-2.241.39c.046.294.341.531.318.825a7.417,7.417,0,0,0-1.983-.507l-.032.1a6.822,6.822,0,0,0,3.337,2.017c1.781.415,3.35-.435,5.07-.141,4.227,1.933,7.835,6.355,9.406,10.551q.116.3.22.611a20.4,20.4,0,0,1,.248,12.54,15.412,15.412,0,0,1-2.709,4.586,9.6,9.6,0,0,1-1.548,1.521,6.94,6.94,0,0,1-6.2,1.365c-.14-.092-.426-.117-.38-.362.079-.328.156-.663.217-1a24.863,24.863,0,0,0,.45-5.946c0-.087-.006-.174-.01-.259a22.678,22.678,0,0,0-1.784-8.084,27.95,27.95,0,0,0-2.542-4.455,10.544,10.544,0,0,0-4.726-3.89c-1.2-.319-2.693-.377-3.6.626a2.418,2.418,0,0,0-.829,2.168,7.377,7.377,0,0,1-3.4,1.1c-.3.027-.616.136-.932.135a5.087,5.087,0,0,1-.881-.036,8.687,8.687,0,0,1-4.157-1.91c-.024-.609-.06-1.191-.083-1.836a2.225,2.225,0,0,1-1.249-1.757l.061-.059a4.965,4.965,0,0,1,1.047.508,7.739,7.739,0,0,0-.789-2.629c-.425-.177-.853-.317-1.252-.531a2.013,2.013,0,0,1-.823-1.368c.411.4,1.131.259,1.45.686-.553-1.639-.566-3.513-1.475-5.01-.46-1.108-1.664-1.614-2.49-2.43-.319-.387-.447-.929-1.026-.989-.471-.118-.508-.649-.59-.989.295.034.542.236.792.282-.686-1.816-1.288-3.83-3.139-4.984l-.319.2a19.4,19.4,0,0,1-2.207.177,3.035,3.035,0,0,1,1.334-.885,3.182,3.182,0,0,0-1.6-.589,3.272,3.272,0,0,1-1.542.673l-.058-.045c-.013-.424-.111-.945.527-1.049a3.662,3.662,0,0,0-2.254,0c-.178.459-.681.871-.648,1.413a9.492,9.492,0,0,1-1,1.156,10.834,10.834,0,0,1,.541-2.51c-.531.2-1.071.481-1.589.73a21.718,21.718,0,0,0-2.616-1.331c-.083-.036-.259-.072-.226.081.767.554.471,1.59.553,2.382l-.484-.4c-.236-.6-.918-1.036-1.036-1.7a9.049,9.049,0,0,0-2.06.685l-.1.058a1.668,1.668,0,0,1,1.3.872,15.608,15.608,0,0,1-2.405-.363c-.083-.083-.153-.178-.285-.165a4.528,4.528,0,0,0-1.132.732,7.905,7.905,0,0,0-2.028,2.745,1.83,1.83,0,0,1,.814.2c-.447.271-.837.731-1.275.99a10.883,10.883,0,0,0-.165,1.982,8.836,8.836,0,0,0-1.026,1.554,23.121,23.121,0,0,0-.814,7.684c-.236.223-.544.368-.766.543l.024,2.4h.058c.108-.507.71-.79,1.074-1.131h.119c-.058.541-.13,1.083-.141,1.638l-.675.562c-.682.6-.1,1.506-.166,2.26.05.2.083.5.227.544a3.143,3.143,0,0,1,.5-.765c.3-.073.553-.308.825-.343a12.443,12.443,0,0,1-.59,1.732,2.121,2.121,0,0,0-.36.294.856.856,0,0,0-.238.438,52.829,52.829,0,0,0,2.319,8.176c-.65,1.095-1.017,2.387-1.558,3.519-.077.158-.146.318-.212.483-.542,1.372-.707,2.9-1.382,4.22a4.618,4.618,0,0,0-.871-.46,3.558,3.558,0,0,0-3.681.824,3.167,3.167,0,0,0-2.327.423,3.107,3.107,0,0,0-1.03,1.263,2.569,2.569,0,0,0-.183,1.12,2.711,2.711,0,0,0-.989,1.5,4.64,4.64,0,0,0,.932,3.576h20.848a6.776,6.776,0,0,1-.805-1.307c-.446-.673-.139-1.627-.188-2.405.425-.857.857-1.718,1.342-2.555.1-.169.2-.334.3-.5l.957-.363c.507,0,.933-.362,1.416-.236.649.65.649-.648,1.276-.707,1.462-.188,2.913-.048,3.738,1.192,0,.164.262.164.2.318-.189.057-.367-.061-.565-.061-.9-.222-1.949-.79-2.832-.283-.034.212-.08.427-.123.639a6.6,6.6,0,0,0-.1.657,3.565,3.565,0,0,1,1.5,1.025,2.393,2.393,0,0,1,1.476-1.025,3.426,3.426,0,0,1,1.416.424c.744.686.377,1.852.308,2.723.673.376,1.415.591,2.1.955a3.337,3.337,0,0,1-1.131.544l-1.132-.226c-.13-.093-.356-.093-.4-.259a5.91,5.91,0,0,0-1.073,1.45h16.161a8.5,8.5,0,0,0-.755-1.307,6.714,6.714,0,0,1-.236-2.429l1.511-2.3a14.04,14.04,0,0,1,2.653-.164.9.9,0,0,0,.13-.07c.372-.259.486-.853,1.036-.777a3.054,3.054,0,0,1,2.49.627,1.163,1.163,0,0,1-.075.155c-.311.5-.894-.058-1.319.092-.178.189.083.415.117.626.156.21-.155.186-.259.223a.807.807,0,0,1-.708-.223c-.047-.061-.012-.13-.1-.141a3.621,3.621,0,0,0-.6,1.072,2.922,2.922,0,0,1,.766.85c.271.389-.213.682-.306,1.025a.1.1,0,0,1-.142.035.1.1,0,0,1-.036-.035c-.25-.141-.46-.5-.732-.4-.238,1.05.082,2.1-.06,3.148a8.921,8.921,0,0,0,1.5,0l.2-2.216a7.243,7.243,0,0,1,2.065-3.738c1.082-.739,1.781.721,2.581,1.228.132.024.085.165.142.247-.012.236-.259.33-.424.4-.5.175-.862-.367-1.168-.686-.294.319-.425.742-.767.991l.117.034a2.582,2.582,0,0,1,.853,1.321,1.485,1.485,0,0,1-.711,1.168,11.728,11.728,0,0,1-.787-1.7c.011.025-.014.036-.037.06-.65.175-.823.906-.932,1.5.035.578-.4.814-.285,1.391h8.414a4.594,4.594,0,0,0,2.665-.8,12.253,12.253,0,0,0,8.828-2.036,18.436,18.436,0,0,0,3.431-3.605,12.985,12.985,0,0,0,1.927-3.584,16.806,16.806,0,0,0,.76-2.523A23.988,23.988,0,0,0,239.65,49.471Z" style="fill:#f60;fill-rule:evenodd"/><path d="M185.509,71.346c.46-.3,1.2-.367,1.308-1.049a1.6,1.6,0,0,0-.565-.367l-.485.141a5.881,5.881,0,0,1,.289-.908l1.554-.506a12.507,12.507,0,0,0-.367,2.4,8.637,8.637,0,0,0,.933,3.488H186.5c-.188-1.107-1.347-1.91-.99-3.205Z" style="fill:#f60;fill-rule:evenodd"/><path d="M189.132,69.93h.094l1.13,1.027.166-.036c-.093,1.2-.156,2.383-.166,3.63h-1.225a14.837,14.837,0,0,1-.614-3.652A5.53,5.53,0,0,1,189.132,69.93Z" style="fill:#f60;fill-rule:evenodd"/><path d="M191.655,71.064c.226-.294.319-.791.767-.848a1.209,1.209,0,0,1,.852.282c.414.518.008,1.18-.142,1.7a19.763,19.763,0,0,1-.709,2.356h-1.192Z" style="fill:#f60;fill-rule:evenodd"/><path d="M209.553,70.7c.259.332.341.777.731,1.073a2.219,2.219,0,0,0,.259-1.8l-.342-.343c.438-.1.9-.141,1.334-.222a4.893,4.893,0,0,0-.484,1.92c.011,1.062.187,2.123.282,3.229h-1.295a7.136,7.136,0,0,1-.908-3.229,2.833,2.833,0,0,1,.424-.625Z" style="fill:#f60;fill-rule:evenodd"/><path d="M215.134,48.053c-.013.306-.236.646-.037.908.286-.319.757-.307,1.135-.448a9.293,9.293,0,0,1,3.031.472c-.248-.39-.415-.826-.685-1.179-.543-.142-1.369.235-1.463-.57-.33-.281-.848-.08-1.191-.058a2.643,2.643,0,0,0-.79.873Z" style="fill:#fff;fill-rule:evenodd"/><path d="M179.075,37.876l-.018-.012v.012Z" style="fill:#fff;fill-rule:evenodd"/><path d="M183.363,48.353l.708-.683a.156.156,0,0,1,.141.057l-.057,1.308a1.829,1.829,0,0,0,1.212.448c.036-.352.308-.6.462-.908.129-.246.047-.611.306-.786l.083.08a3.708,3.708,0,0,0,.259,1.166c.024.189.057.424.079.589a2.915,2.915,0,0,0,1.394-.307,5.268,5.268,0,0,1,.2-1.222c.108-.143-.13-.4.165-.391.166.354.46.718.627,1.1a4.58,4.58,0,0,0,1.13-2.546c-.2-.27-.5-.27-.743-.448a8.879,8.879,0,0,0-6.51.225A3,3,0,0,0,183.363,48.353Z" style="fill:#fff;fill-rule:evenodd"/><path d="M164.611,70.469a18.253,18.253,0,0,0,.058,2.656,1.351,1.351,0,0,0,.875.659l.058-.6c.142-.836-.306-1.724.167-2.435a5.789,5.789,0,0,1,.944.423,2.066,2.066,0,0,0-.8-2.158Z" style="fill:#fff;fill-rule:evenodd"/><path d="M167.528,69.195a6.94,6.94,0,0,0-.247,4.532,5.338,5.338,0,0,0,.932-.708,4.884,4.884,0,0,1,.449-3.211,2.088,2.088,0,0,1,1.191,1.272,2.171,2.171,0,0,0,.368-1.836c.024-.518-.566-.4-.85-.614.093-.436.081-.94.542-1.191l-1.414.141A6.715,6.715,0,0,0,167.528,69.195Z" style="fill:#fff;fill-rule:evenodd"/><path d="M170.442,73.267c.06.1,0,.3.121.319.175-.991.976-1.632,1.415-2.506.211-.291.2-.707.542-.929.459,0,.79.33,1.24.362.14.107-.073.2-.085.319a11.748,11.748,0,0,0-.342,2.292h.082A12.025,12.025,0,0,0,174.926,71l.08-.67c.109-.8-.764-1.32-1.333-1.651l.508-.65-.709-.247a3.219,3.219,0,0,0-2.147,1.075,9.548,9.548,0,0,0-.881,4.411Z" style="fill:#fff;fill-rule:evenodd"/><path d="M173.617,66.273c.27.081.518-.141.788-.025a7.158,7.158,0,0,1,3.033,1.72l.968,2.465.484-1.523-.318-.822c-.273-.59-1.016-.542-1.523-.566-.212-.236.011-.507.083-.73.247-.838-.777-.791-1.192-1.132.025-.5-.59-.331-.932-.377l-.117-.141a.242.242,0,0,0-.34-.028l0,0c-.021-.035-.069-.059-.046-.117l-.259.058a1.656,1.656,0,0,0-.626,1.215Z" style="fill:#fff;fill-rule:evenodd"/><path d="M174.3,63.562a.771.771,0,0,0,.247.4c.532-.141,1.042-.508,1.653-.283a9.307,9.307,0,0,0,2.573,1.8l.343-.058c.21.069.446.081.587.318.131.319-.2.5-.3.765.53.391.319,1.084.648,1.554l.849-1.13c-.2-.5.013-1.343-.764-1.392a.74.74,0,0,1-.428-.682c-.5-.46-1.13-.66-1.637-1.132-.414-.329-.662-.835-1.191-.953a4.329,4.329,0,0,0-1.192-.4C174.89,62.252,174.82,63.2,174.3,63.562Z" style="fill:#fff;fill-rule:evenodd"/><path d="M175.434,61.238l.141.226c.59-.036,1.119-.3,1.7-.284.388.235.9.222,1.3.424a4.533,4.533,0,0,0,1.131,1.224c.957.141,1.486,1.17,1.817,1.922v-.363a2.549,2.549,0,0,0-.2-1.558c-.236-.235-.581-.388-.828-.6a.483.483,0,0,1,.035-.367,7.888,7.888,0,0,0-1.358-.909c-.625-.908-1.827-.657-2.783-.908l-.953,1.192Z" style="fill:#fff;fill-rule:evenodd"/><path d="M175.413,52.594c.1.367.233.825.3,1.215.328-.73.98-1.061,1.558-1.661a2.97,2.97,0,0,0-1.109-.4v-.024C175.907,51.981,175.506,52.242,175.413,52.594Z" style="fill:#fff;fill-rule:evenodd"/><path d="M177.556,56.472l.53-.542a3.339,3.339,0,0,0,1.05-1.864,1.517,1.517,0,0,0-1.237.06A14.978,14.978,0,0,0,177.556,56.472Z" style="fill:#fff;fill-rule:evenodd"/><path d="M177.945,58.135a3.437,3.437,0,0,0,2.267-.249l.662-2.121c-.215-.012-.428-.108-.627-.035A5.17,5.17,0,0,1,177.945,58.135Z" style="fill:#fff;fill-rule:evenodd"/><path d="M178.183,50.616a4.751,4.751,0,0,0,2.323,1.9c-.1-.991-.954-1.675-1.392-2.521l-.024-.283a4.335,4.335,0,0,0-1.109-.731A5.529,5.529,0,0,0,178.183,50.616Z" style="fill:#fff;fill-rule:evenodd"/><path d="M181.06,58.229a4.188,4.188,0,0,0,1.876-.178c.837-.2,1.3-1.12,1.581-1.837h-1.051l-1.131,1.107a8.523,8.523,0,0,0-1.275.908Z" style="fill:#fff;fill-rule:evenodd"/><path d="M180.933,49.543a6.891,6.891,0,0,0,1.1,2.546l.14-1.757Z" style="fill:#fff;fill-rule:evenodd"/><path d="M184.8,54.127a8.566,8.566,0,0,0-.246-1.873c-.354-.237-.849-.214-1.215-.447A3.47,3.47,0,0,0,184.8,54.127Z" style="fill:#fff;fill-rule:evenodd"/><path d="M183.725,60.114a11.779,11.779,0,0,0,2.148-.872c.436-.626,1.1-1.191,1.192-1.92-.546.152-1.015-.025-1.523.224a3.88,3.88,0,0,1-1.086,1.579C184.364,59.523,183.928,59.8,183.725,60.114Z" style="fill:#fff;fill-rule:evenodd"/><path d="M184.882,61.563l.886,1.155a1.8,1.8,0,0,0,1.475-.164l-.317-1.048A4.126,4.126,0,0,1,184.882,61.563Z" style="fill:#fff;fill-rule:evenodd"/><path d="M186.357,53.22l.342,1.554a3.115,3.115,0,0,0,.972-2.685A3.648,3.648,0,0,1,186.357,53.22Z" style="fill:#fff;fill-rule:evenodd"/><path d="M188.683,55.964a1.12,1.12,0,0,0,.2.613c.921.332,1.015,1.451,1.865,1.873a2.09,2.09,0,0,0,1.672-.283c-.362-.414-.777-.7-1.13-1.13-.247-.1-.5-.259-.485-.565l-2.123-.508Z" style="fill:#fff;fill-rule:evenodd"/><path d="M189.415,61.529a2.735,2.735,0,0,0,1.507.823c-.093-.129.061,0,.083-.081l-.708-1.554c-.354.012-.721.084-1.05.061A3.227,3.227,0,0,0,189.415,61.529Z" style="fill:#fff;fill-rule:evenodd"/><path d="M190.666,54.269a9.219,9.219,0,0,1-.565-2.545c-.351.424-.718.7-1.049,1.129C188.9,53.727,190.148,53.938,190.666,54.269Z" style="fill:#fff;fill-rule:evenodd"/><path d="M192.1,53.468c.428.556,1.358.368,1.878.2-.249-.424-1.048-.673-1.192-1.129a10,10,0,0,0-.508-2.345C191.87,51.192,191.371,52.384,192.1,53.468Z" style="fill:#fff;fill-rule:evenodd"/><path d="M192.846,55.964c1.18.86,2.337,1.865,3.989,1.5.118-.08.32-.072.343-.223-.485-.306-1-.544-1.5-.826l-.565-.824h-.259a10.15,10.15,0,0,1-2.007.377Z" style="fill:#fff;fill-rule:evenodd"/><path d="M192.87,65.522h.085a6.323,6.323,0,0,1,2.382-.99c.226.084.083.332.285.425.507-.21,1.121-.165,1.639-.341a3.557,3.557,0,0,1,1.64.3c.4.532,1.156.472,1.677.827l-.085-.827c-1.095-1.284-2.806-1.377-4.387-1.353l-.035-.165a2.806,2.806,0,0,0-1.156.247,6.058,6.058,0,0,0-1.475.423A13.46,13.46,0,0,0,192.87,65.522Z" style="fill:#fff;fill-rule:evenodd"/><path d="M193.818,51.039a1.993,1.993,0,0,0,1.923.909c-.4-.392-.863-.8-.885-1.356.118-1.049-1.036-1.133-1.6-1.675A7.127,7.127,0,0,0,193.818,51.039Z" style="fill:#fff;fill-rule:evenodd"/><path d="M193.7,67.609h.141c.624-.388,1.533-.092,2.147-.5.342-.177.366.3.6.425.578.351.65,1.413,1.463,1.165.977.507.731,1.7.767,2.568l.909-.564c-.083-.459.177-1.014-.119-1.414-.224-.506-.838-.553-1.133-.965.356-.6-.448-.886-.614-1.322l.052-.058,1.25.165a1.869,1.869,0,0,1,.709,1.167c.977.166,1.213,1.272,1.554,1.979.2-.482.283-1,.483-1.474.013-.389-.506-.389-.766-.565a2.087,2.087,0,0,0-.872-1.53,12.842,12.842,0,0,0-3.232-.873l-.991.3c-.544.131-1.121-.034-1.535.341C193.9,66.5,193.851,67.174,193.7,67.609Z" style="fill:#fff;fill-rule:evenodd"/><path d="M194.321,62.753l.226.107c.484-.224.967-.483,1.475-.673.788-.223,1.4.673,2.065.1.246-.175.46.083.647.225.287.518.945.482,1.442.622-.248-.671-.556-1.59-1.417-1.7a8.207,8.207,0,0,1-1.073-.341c-.909-1-1.5.826-2.492.379A2.744,2.744,0,0,0,194.321,62.753Z" style="fill:#fff;fill-rule:evenodd"/><path d="M194.547,68.494c.377.318.766.861,1.357.789.73.341.424,1.308.824,1.816l.425-.378-.035-.025.059-.058.025.033a2.248,2.248,0,0,0-.25-1.391c-.269-.187-.587.013-.848-.164a1.175,1.175,0,0,0-.542-.8c-.189-.144-.438.045-.651.032Z" style="fill:#fff;fill-rule:evenodd"/><path d="M196.022,54.127a6.094,6.094,0,0,0,1.746,1.5,2.8,2.8,0,0,0,1.675.163,10.836,10.836,0,0,1-1.391-1.377c-.167-.237-.2-.533-.425-.743a3.3,3.3,0,0,0-1.606.461Z" style="fill:#fff;fill-rule:evenodd"/><path d="M196.675,49.909c.542.674,1.381.4,2.147.424v-.082l-1.18-.99A3.112,3.112,0,0,0,196.675,49.909Z" style="fill:#fff;fill-rule:evenodd"/><path d="M174.954,38.794l.683,2.124c-.013-1.2.544-2.207.426-3.431l.505-.755-1.074.331A3.972,3.972,0,0,0,174.954,38.794Z" style="fill:#fff;fill-rule:evenodd"/><path d="M175.413,35.117l.933-.542V33.2a4.97,4.97,0,0,0-.909.952Z" style="fill:#fff;fill-rule:evenodd"/><path d="M194.551,37.262a1.3,1.3,0,0,1-.85.423,4.015,4.015,0,0,0,.343-3.194,4.781,4.781,0,0,0,.789-.282l-.024-.025.649-.565c.862-.59.53-1.71.849-2.546-.423-.659-.553-1.46-1.167-2.015l.035-.024c-.484-.613-1.356-.541-2.017-.847-.875-.3-1.547.306-2.175.707-.272.047-.1.4-.4.387a12.2,12.2,0,0,0-.486,1.392,4.711,4.711,0,0,0-3.36.625,4.9,4.9,0,0,0-1.676-.6c-.425-.085-.908.069-1.214-.167-.448-.505-.545-1.425-1.312-1.554-.272-.095-.328-.39-.328-.65-.508-.084-.958-.318-1.451-.424-.755-.342-1.356.2-1.922.566a5.517,5.517,0,0,0-.768.282,11.147,11.147,0,0,0-1.1,2.063,4.325,4.325,0,0,0,.651,1.638,3.34,3.34,0,0,0,1.839,1.675,6.923,6.923,0,0,0,0,3.734s-.019.016-.019.012a.324.324,0,0,1-.038.036.625.625,0,0,1-.326-.036h-.015a5.166,5.166,0,0,0,1.554,2.959c.307.1.235.472.362.706a.548.548,0,0,1,.061.424A9.285,9.285,0,0,0,176.08,43.2c-.377.189-.212.707-.247,1.074a9.078,9.078,0,0,1,3.4-1.416,5.186,5.186,0,0,1,1.64-.024l.058,1.016c-1.4.732-2.937,1.155-4.138,2.358a4.607,4.607,0,0,0,.058,1.094l1.075-.872a12.739,12.739,0,0,1,3.315-1.9,4.2,4.2,0,0,0,1.076,1.014,7.909,7.909,0,0,1,2.324-1.014c.436-.259,1.134-.024,1.416-.542l.2-1.073c-.033-.023-.058-.072-.117-.06a1.622,1.622,0,0,1-.873-1.519,1.542,1.542,0,0,1-.625.163c-.187-.046-.365-.093-.447-.284-.012-.234-.131-.588.107-.763a4.57,4.57,0,0,1,2.724-.426c.718.1,1.758.06,2.007.908-.035.248-.013.518-.259.684-.259.141-.553-.013-.79-.119a1.958,1.958,0,0,1-1.155,1.415l.081.683c.08.307.1.813.589.706a10.453,10.453,0,0,1,3.092,1.473,6.847,6.847,0,0,0,.824-1.049,15.506,15.506,0,0,1,4.7,3.115l.057-.991a16.071,16.071,0,0,0-4.472-2.746,6.315,6.315,0,0,0,.144-.968,11.629,11.629,0,0,1,5.2,1.59l-.024-.847a11.532,11.532,0,0,0-5.353-1.472.572.572,0,0,1-.084-.363,2.62,2.62,0,0,0,1.841-1.981c.485-.553,1.181-1.155,1.016-1.978.02-.07.044-.141.069-.213a1,1,0,0,0,.047-.611Z" style="fill:#fff;fill-rule:evenodd"/><path d="M196.188,40.292l.967-.308.109-.54c.271-.791-.308-1.38-.592-2.005Z" style="fill:#fff;fill-rule:evenodd"/><path d="M198.63,44.025c.461.508.909,1.32,1.723,1.074a5.116,5.116,0,0,0-.365-.933c-.212-.247-.285-.954-.708-.706-.319-.212-.4-.566-.6-.849a8.454,8.454,0,0,0-.047,1.414Z" style="fill:#fff;fill-rule:evenodd"/><path d="M198.8,47.479c.178.246.227.567.4.79a1.935,1.935,0,0,0,1.183.142c.352-.084.577.3.906.082-.414-.259-.659-.731-1.048-1.075C199.776,47.056,199.281,47.374,198.8,47.479Z" style="fill:#fff;fill-rule:evenodd"/><path d="M199.42,52.961a4.555,4.555,0,0,0,2.935.789c.117-.058.318-.047.341-.187a18.071,18.071,0,0,0-2.085-1.049c-.389-.6-.9.155-1.393.1C199.231,52.759,199.373,52.865,199.42,52.961Z" style="fill:#fff;fill-rule:evenodd"/><path d="M201.872,63.367l.177.376c.179,1.227.954,2.356.531,3.7.354.249.46.661.686.991h.058a7.914,7.914,0,0,0-.058-3.112c.1-.932-.84-1.472-1.394-1.955Z" style="fill:#fff;fill-rule:evenodd"/><path d="M202.076,51.3a2.645,2.645,0,0,0,2.3.284,7.27,7.27,0,0,1-1.31-.849Z" style="fill:#fff;fill-rule:evenodd"/><path d="M204.988,54.915a1.289,1.289,0,0,0,.625,1.157,2.707,2.707,0,0,0,.363-.872,2.179,2.179,0,0,0-.85-1.31,2.922,2.922,0,0,0-.14,1.025Z" style="fill:#fff;fill-rule:evenodd"/><path d="M205.023,60.291c-.084.553.529.625.788.933.213.259-.141.436-.141.683a3.184,3.184,0,0,1,.71,2,19.78,19.78,0,0,0,.541-2.144c-.047-.52-.872-.414-.743-.989a2.549,2.549,0,0,0-.2-1.7c-.046-.081-.156-.247-.246-.2C205.517,59.359,204.988,59.7,205.023,60.291Z" style="fill:#fff;fill-rule:evenodd"/><path d="M206.639,57.485l.613,1.192c.271-.036.448-.3.659-.484.166-.495-.272-.813-.4-1.215-.106-.284,0-.659-.2-.906-.155-.1-.329-.249-.506-.2l-.165,1.615Z" style="fill:#fff;fill-rule:evenodd"/><path d="M207.427,54.348a3.45,3.45,0,0,1,1.3,1.238c.415,1.2,1.073,2.285,1.554,3.452.178.814.319,1.541.542,2.34.085.213.037.622.368.589.092-.895.27-1.756.283-2.687a3.5,3.5,0,0,0-1.05-.788v-.083c.048-.2.214-.437.46-.4.1-.118.425-.235.283-.448-.613-.612-.578-1.666-1.554-1.856a.894.894,0,0,1-.46-.824,2.817,2.817,0,0,0-1.726-.533Z" style="fill:#fff;fill-rule:evenodd"/><path d="M208,60.738c.6.553.39,1.355.342,2.1-.094.448.471.186.649.424a2.563,2.563,0,0,1,.025,1.92,11.372,11.372,0,0,0,.932-1.439c-.009-.2.249-.295.238-.543.1-.341-.3-.188-.462-.223-.141-.035-.293-.13-.245-.319a2.9,2.9,0,0,0-.1-1.885c-.142-.483.06-1.132-.167-1.556C208.833,59.735,207.711,59.854,208,60.738Z" style="fill:#fff;fill-rule:evenodd"/><path d="M209.092,52.371c1.052,1.062,1.819,2.127,2.953,3.154a12.9,12.9,0,0,0-.058-1.333,3.1,3.1,0,0,0-.734-.79c-.837-.081-1.273-1.208-2.159-1.031Z" style="fill:#fff;fill-rule:evenodd"/><path d="M211.84,57.987a1.607,1.607,0,0,0,.12.306,15.47,15.47,0,0,1,1.216,2.346c-.1-.873.494-1.956-.286-2.628-.1-.285-.457-.19-.684-.167l-.366.143Z" style="fill:#fff;fill-rule:evenodd"/><path d="M214.673,66.6c.33.155.754-.117,1.073-.307a.975.975,0,0,1,.768.249c.094.187,0,.362.036.542a7.159,7.159,0,0,1,2.027.872l.2-.2a1.388,1.388,0,0,0-.731-1.156c-.246-.142-.614-.058-.79-.283a1.217,1.217,0,0,0,.1-.683,1.7,1.7,0,0,1-.954-.307c-.2-.059-.38-.225-.545,0-.589.4-.622.99-1.191,1.273Z" style="fill:#fff;fill-rule:evenodd"/><path d="M215.5,51.766a2.139,2.139,0,0,0,.848-.379c.792-.719,1.935-.236,2.857-.248a6.508,6.508,0,0,0-.651-.908,2.718,2.718,0,0,0-1.014-.281c-.8-.473-1.344.318-1.96.706A1.306,1.306,0,0,0,215.5,51.766Z" style="fill:#fff;fill-rule:evenodd"/><path d="M215.521,54.193c0-.037,0-.073.035-.082.109.093-.011.32.167.363a7.03,7.03,0,0,0,.872-.566c.79,0,1.263-.767,2.04-.767a11.822,11.822,0,0,1,3.716,1.131,2.548,2.548,0,0,0-1.414-1.8.969.969,0,0,0-.945.284c-.789.5-.376-.72-.932-.744a5.855,5.855,0,0,1-2.267.4c-.471.178-.8.613-1.334.565A3.106,3.106,0,0,0,215.521,54.193Z" style="fill:#fff;fill-rule:evenodd"/><path d="M216.065,56.819c.248.262.66.214,1.015.262l1.026-.4c.012-.185-.306-.235-.235-.447.284-.318.673-.093,1.026-.223.494-.071,1-.564,1.5-.2-.016.06.021.141-.026.2-.155.363.1.589.39.731.579.1,1.119.637,1.7.4a10.683,10.683,0,0,0-.305-1.391c-.484-.081-.829-.482-1.274-.648a.968.968,0,0,1-.709.306c-.909-.213-2-.777-2.915-.2-.33.4-.92.283-1.369.46A5.365,5.365,0,0,0,216.065,56.819Z" style="fill:#fff;fill-rule:evenodd"/><path d="M216.455,63.828c-.07.2-.271.529.1.624.754.023,1.722-.366,2.312.223.2.156.1.472.092.674l.991.824a8.686,8.686,0,0,0,.286-1.474,1.649,1.649,0,0,0-.6-.989c-.65,0-1.026-.759-1.724-.666-.363-.08-.683.243-1.05.243a6.055,6.055,0,0,0-.4.542Z" style="fill:#fff;fill-rule:evenodd"/><path d="M216.737,58.268c.156.32.332.838.626.872a3.363,3.363,0,0,1,2.489-.162c.259.045.259.34.2.528.4.236.883.425,1.308.683l-.119-.707c-.024-.766-.989-.835-1.05-1.591a4.656,4.656,0,0,0-2.512-.141c-.271.247-.662.214-.99.283C216.668,58.128,216.725,58.189,216.737,58.268Z" style="fill:#fff;fill-rule:evenodd"/><path d="M216.938,62.088c.46-.13.756-.635,1.252-.684a2.317,2.317,0,0,1,1.9.97c.282.185.222.669.59.669a11.328,11.328,0,0,1,.056-1.7c-.492-.823-1.721-.186-2.181-1.154l-.872.059c-.627.155-.46.885-.542,1.381-.072.152-.213.27-.2.457Z" style="fill:#fff;fill-rule:evenodd"/><path d="M221.27,67.246c.362.731,1.168,1.285,1.249,2.121a3.852,3.852,0,0,0,.448-.731c-.013-.235-.284-.235-.389-.424-.108-.306.057-.577.1-.849a2.318,2.318,0,0,0-.933-1.108l-.481.991Z" style="fill:#fff;fill-rule:evenodd"/><path d="M222.721,65.381l.848,1.157a3.044,3.044,0,0,0,.223-2.124c-.081-.131-.235-.343-.446-.247C223.027,64.5,222.979,65.005,222.721,65.381Z" style="fill:#fff;fill-rule:evenodd"/><path d="M219.262,33.122a2.458,2.458,0,0,0,.97.319,1.214,1.214,0,0,1,.872-.141c.437.283.968-.06,1.475-.036a5.471,5.471,0,0,0-1.475-.932C220.442,32.472,219.913,32.945,219.262,33.122Z" style="fill:#fff;fill-rule:evenodd"/><path d="M223.875,34.228c.626.059,1.076.613,1.5,1.073a2.107,2.107,0,0,1,1.25.847l-.2-.621a4.026,4.026,0,0,0-.933-1.606A4.659,4.659,0,0,0,223.875,34.228Z" style="fill:#fff;fill-rule:evenodd"/><path d="M179.848,29.059l.343.037c.918.46,2.4.7,2.49,2.026a7.247,7.247,0,0,0-2.574,1.615c-.565-.577-1.709-.259-1.9-1.272C178.386,30.508,178.727,29.305,179.848,29.059Z" style="fill:#f60;fill-rule:evenodd"/><path d="M180.735,35.036c1.074-.095,2.112.057,3.221-.036a1.411,1.411,0,0,1,.683.622c-.036,1.273-.425,2.486-.482,3.8a1.744,1.744,0,0,0-1.076,1.131,9.3,9.3,0,0,0-1.252.592,1.254,1.254,0,0,1,.179-1.333c.46-.646,1.653-.5,1.558-1.521.307-.493.013-1.131.022-1.648-.117-.391-.236.129-.424.117a1.538,1.538,0,0,1-1.1-.084c-.249-.259-.553-.473-.626-.824a1.934,1.934,0,0,1-.885-.766l.178-.043Z" style="fill:#f60;fill-rule:evenodd"/><path d="M182.032,42.717c.5.073,1.036-.155,1.474.1-.092.166-.342.236-.542.283l-.792.363C181.878,43.391,182.043,42.919,182.032,42.717Z" style="fill:#f60;fill-rule:evenodd"/><path d="M184.1,32.878c.506-.165,1.05-.505,1.592-.342a7.693,7.693,0,0,0-.99,1.367l-1.616-.035A2.289,2.289,0,0,1,184.1,32.878Z" style="fill:#f60;fill-rule:evenodd"/><path d="M188.827,32.489c.674-.117.635.755,1.25.788.108.141.262.27.2.483a10.113,10.113,0,0,1-1.274.165c-.533-.294-.188-1.214-1.027-1.155-.046-.071-.14-.213-.024-.259A2,2,0,0,1,188.827,32.489Z" style="fill:#f60;fill-rule:evenodd"/><path d="M188.4,35.646a1.611,1.611,0,0,1,1.169-.529l3.056.057c.13.119-.118.225-.118.366-.188.177-.46.226-.626.389-.4.012-.362.484-.648.685-.437.436-1.075.235-1.582.165a1.386,1.386,0,0,1-.461-.507l-.141.141c.178.661.131,1.391.262,2.063l.731.483c.011,1.083,1.286.788,1.839,1.39a3.242,3.242,0,0,1-.673,1.05,3.985,3.985,0,0,0-1.5-.908c-.048-.634-.743-1.013-1.13-1.33-.109-1.157-.131-2.335-.319-3.454Z" style="fill:#f60;fill-rule:evenodd"/><path d="M189.512,42.919h1.417l-.178.741-1.418-.6C189.3,42.942,189.429,42.907,189.512,42.919Z" style="fill:#f60;fill-rule:evenodd"/><path d="M192.059,29.567l1.051-.33a10.631,10.631,0,0,1,1.722,1.036,4.146,4.146,0,0,1,.165,2.78c-.319.353-1.015,0-1.273.566h-.049a5.163,5.163,0,0,0-2.525-2.6,2.184,2.184,0,0,1,.909-1.45Z" style="fill:#f60;fill-rule:evenodd"/></svg>