<svg xmlns="http://www.w3.org/2000/svg" viewBox="0 0 390 99"><title>ING</title><path d="M2.422,27.41c2.93,0,4.972.62,6.24,1.887,1.419,1.417,2.054,3.758,2.054,7.59V84.746c0,6.622-1.39,9.576-9.592,9.576H0v2.937H36.86V94.337l-1.112-.015c-8.124-.1-9.494-3.034-9.494-9.576V36.884c0-3.819.632-6.151,2.051-7.566,1.281-1.286,3.359-1.91,6.35-1.91h2.2V24.429H0v2.979H2.422Z" style="fill:#091c5a;fill-rule:evenodd"/><path d="M120.311,72.845a41.1,41.1,0,0,1-.733-4.661V46.325c-.143-12.747,1.6-19.093-9.56-19.044V24.417h25.665v2.864c-11.49-.046-10.044,6.3-10.11,19.044V97.366l-3.653-.039L66.5,39.391a42.36,42.36,0,0,1,.716,4.658V79.844C66.9,92.9,68.519,94.48,76.94,94.327V97.31H50.185V94.327c8.434.01,10.091-1.111,10.081-15.548V44.365l-.068-5.6c.314-7.247-2.366-11.451-10.546-11.383V24.517H74.285Z" style="fill:#091c5a;fill-rule:evenodd"/><path d="M213.215,23.026h-2.828l-.132.968c-.192,1.444-.761,3.863-2.409,3.863a8.474,8.474,0,0,1-2.96-.824,52.1,52.1,0,0,0-19.4-4.007c-12.162,0-23.194,4.352-31.075,12.259a38.764,38.764,0,0,0-11.142,27.837c.051,10.236,4.079,18.655,12.325,25.752C163.9,95.973,173.205,99,186.73,99c11.266,0,17.716-1.617,27.614-6.924l1.733-.939V72.04c0-8.14,1-9.406,7.628-9.674l1.078-.041V59.488H192.394v2.837l1.078.041c7.384.287,8.778,1.61,8.778,8.339V88.4c-5.478,3.611-9.46,4.982-14.481,4.982a26.637,26.637,0,0,1-19.12-7.936C162.7,79.5,159.8,70.846,159.8,61.063c0-10.539,2.809-19.53,8.6-25.307A24.541,24.541,0,0,1,186.105,28.6a31.735,31.735,0,0,1,18.445,6.608,21.639,21.639,0,0,1,7.718,11.784l.241.8h2.765Z" style="fill:#091c5a;fill-rule:evenodd"/><path d="M355.08,97.062c1.8-.272,3.711-.231,5.147-1.548A23.648,23.648,0,0,0,377.262,91.6a35.594,35.594,0,0,0,6.627-6.961,25.031,25.031,0,0,0,3.716-6.917,32.01,32.01,0,0,0,1.47-4.867,46.236,46.236,0,0,0-1.747-24.208,43.044,43.044,0,0,0-1.592-4.028c-3.208-6.623-7.574-13.768-14.3-17.957a28.715,28.715,0,0,1-9.412-9.786c-1.163-1.045-2.278-2.431-3.782-2.682a5.8,5.8,0,0,1,.976,2.135l-.087.112a5.543,5.543,0,0,1-3.941-1.819l1.2-1.091a6.463,6.463,0,0,0-1.48-.436c-4.6-.522-8.379,1.6-12.459,2.619l-.063.226c2.5,1.113,3.028,3.87,4.486,5.735.36-.433.976-.116,1.479-.155.728.041,1.412.566,2.118.381a6.677,6.677,0,0,0-.431-1.636,3.055,3.055,0,0,1,1.436,0c1.319.771,3.434-.136,4.257,1.636a24.78,24.78,0,0,0-4.328.754c.093.569.662,1.021.616,1.592a14.317,14.317,0,0,0-3.828-.974l-.068.2a13.164,13.164,0,0,0,6.447,3.89c3.441.795,6.469-.841,9.791-.272,8.158,3.732,15.126,12.268,18.156,20.369.149.389.292.783.426,1.184a39.358,39.358,0,0,1,.477,24.208A29.655,29.655,0,0,1,378.2,81.7a18.124,18.124,0,0,1-2.986,2.937,13.414,13.414,0,0,1-11.982,2.643c-.273-.188-.82-.234-.728-.708.151-.634.292-1.276.417-1.935a47.974,47.974,0,0,0,.859-11.478l-.015-.5a43.885,43.885,0,0,0-3.444-15.609,54.318,54.318,0,0,0-4.909-8.6,20.375,20.375,0,0,0-9.124-7.505c-2.324-.615-5.194-.732-6.946,1.2a4.676,4.676,0,0,0-1.594,4.192,14.339,14.339,0,0,1-6.56,2.112,18.051,18.051,0,0,1-1.8.261,10.176,10.176,0,0,1-1.7-.066,16.844,16.844,0,0,1-8.019-3.686c-.047-1.184-.115-2.3-.161-3.549a4.279,4.279,0,0,1-2.412-3.392l.112-.112a9.622,9.622,0,0,1,2.027.975,15.055,15.055,0,0,0-1.523-5.074c-.823-.343-1.643-.615-2.415-1.026a3.878,3.878,0,0,1-1.591-2.635c.8.773,2.183.5,2.8,1.317-1.074-3.163-1.091-6.78-2.848-9.671-.888-2.137-3.213-3.117-4.807-4.685-.616-.754-.864-1.8-1.979-1.916-.912-.226-.98-1.247-1.139-1.911.568.068,1.045.455,1.522.545-1.32-3.5-2.483-7.394-6.056-9.623l-.613.389a38.729,38.729,0,0,1-4.259.343A5.858,5.858,0,0,1,298.9,3.219a6.117,6.117,0,0,0-3.081-1.133,6.383,6.383,0,0,1-2.979,1.3l-.117-.092c-.024-.82-.209-1.819,1.025-2.026a7.162,7.162,0,0,0-4.357,0c-.338.888-1.316,1.685-1.246,2.736a18.677,18.677,0,0,1-1.937,2.229c-.022-1.753.725-3.367,1.044-4.845-1.025.386-2.066.933-3.071,1.41A42.172,42.172,0,0,0,279.135.221c-.156-.068-.5-.133-.433.161,1.482,1.067.907,3.073,1.066,4.593l-.935-.771c-.455-1.16-1.769-2-2-3.275a17.394,17.394,0,0,0-3.977,1.32l-.2.114a3.2,3.2,0,0,1,2.5,1.685c-1.616.088-3.052-.547-4.646-.71-.158-.155-.3-.342-.548-.318a8.644,8.644,0,0,0-2.183,1.41,15.286,15.286,0,0,0-3.918,5.305,3.435,3.435,0,0,1,1.572.384c-.864.523-1.616,1.413-2.458,1.911a20.9,20.9,0,0,0-.321,3.824,16.844,16.844,0,0,0-1.979,3.008,44.542,44.542,0,0,0-1.572,14.83c-.458.435-1.052.71-1.48,1.051l.046,4.638h.112c.2-.975,1.368-1.519,2.074-2.18h.229c-.115,1.045-.251,2.093-.273,3.163L258.5,41.455c-1.324,1.162-.207,2.913-.319,4.372.092.381.156.953.431,1.045a6.184,6.184,0,0,1,.981-1.481c.567-.133,1.068-.593,1.591-.656a24.615,24.615,0,0,1-1.139,3.343,3.815,3.815,0,0,0-.693.569,1.652,1.652,0,0,0-.47.841,103.554,103.554,0,0,0,4.483,15.788c-1.249,2.118-1.959,4.61-3,6.8-.151.3-.285.617-.409.933-1.046,2.645-1.365,5.6-2.667,8.145a9.6,9.6,0,0,0-1.684-.888,6.861,6.861,0,0,0-7.107,1.595,6.091,6.091,0,0,0-4.491.82,5.941,5.941,0,0,0-1.99,2.431,4.927,4.927,0,0,0-.356,2.166,5.233,5.233,0,0,0-1.91,2.888,8.986,8.986,0,0,0,1.8,6.9H355.08Z" style="fill:#fff;fill-rule:evenodd"/><path d="M340,45.9c-.024.591-.455,1.254-.068,1.753.548-.615,1.46-.593,2.188-.863a17.959,17.959,0,0,1,5.851.911c-.475-.753-.8-1.59-1.319-2.275-1.052-.272-2.643.454-2.823-1.092-.64-.547-1.646-.155-2.3-.117A5.171,5.171,0,0,0,340,45.9Z" style="fill:#fff;fill-rule:evenodd"/><path d="M270.39,26.258a.082.082,0,0,0-.034-.022.051.051,0,0,0,0,.022Z" style="fill:#fff;fill-rule:evenodd"/><path d="M278.67,46.481l1.368-1.318a.3.3,0,0,1,.272.117L280.2,47.8a3.562,3.562,0,0,0,2.344.866c.07-.684.594-1.16.891-1.753.25-.477.092-1.184.591-1.527l.156.16a7.5,7.5,0,0,0,.506,2.252c.046.362.112.819.156,1.138a5.7,5.7,0,0,0,2.687-.591,10.332,10.332,0,0,1,.384-2.368c.209-.275-.25-.773.321-.749.319.681.889,1.386,1.208,2.113a8.906,8.906,0,0,0,2.185-4.911c-.384-.528-.978-.528-1.436-.866-3.869-1.252-8.839-1.505-12.575.43A5.846,5.846,0,0,0,278.67,46.481Z" style="fill:#fff;fill-rule:evenodd"/><path d="M242.474,89.178a35.319,35.319,0,0,0,.11,5.127,2.632,2.632,0,0,0,1.684,1.277l.119-1.162c.27-1.62-.594-3.336.319-4.7a11.192,11.192,0,0,1,1.823.819,3.983,3.983,0,0,0-1.55-4.162Z" style="fill:#fff;fill-rule:evenodd"/><path d="M248.1,86.725c-.888,2.659-1.55,5.947-.474,8.745a9.894,9.894,0,0,0,1.793-1.364c-.109-2.142-.406-4.427.867-6.2a4.029,4.029,0,0,1,2.3,2.46,4.21,4.21,0,0,0,.708-3.554c.046-1-1.1-.768-1.643-1.182.185-.841.159-1.816,1.049-2.292l-2.733.272A12.969,12.969,0,0,0,248.1,86.725Z" style="fill:#fff;fill-rule:evenodd"/><path d="M253.723,94.58c.117.209,0,.569.229.615.343-1.908,1.891-3.148,2.736-4.831.406-.569.382-1.366,1.044-1.8.891,0,1.528.64,2.395.708.272.2-.141.384-.161.61-.18,1.551-.774,2.835-.659,4.425h.155a22.99,22.99,0,0,0,2.916-4.107l.156-1.293c.2-1.549-1.48-2.548-2.573-3.185l.979-1.252-1.366-.479a6.223,6.223,0,0,0-4.147,2.074c-1.385,2.545-1.611,5.421-1.7,8.514Z" style="fill:#fff;fill-rule:evenodd"/><path d="M259.852,81.077c.523.16,1-.272,1.521-.044,2.1.771,4.286,1.568,5.856,3.321l1.869,4.753.934-2.932-.615-1.595c-.524-1.137-1.96-1.045-2.94-1.091-.407-.455.024-.98.163-1.41.474-1.615-1.507-1.527-2.3-2.181.049-.98-1.139-.64-1.8-.732l-.226-.272a.466.466,0,0,0-.66-.046c-.048-.066-.136-.112-.087-.229l-.507.117a3.22,3.22,0,0,0-1.2,2.341Z" style="fill:#fff;fill-rule:evenodd"/><path d="M261.171,75.847a1.442,1.442,0,0,0,.477.771c1.027-.272,2-.975,3.188-.547a18.085,18.085,0,0,0,4.97,3.484l.657-.117c.411.141.864.161,1.139.615.253.616-.382.98-.591,1.479,1.027.751.616,2.095,1.256,3l1.64-2.183c-.385-.958.022-2.594-1.482-2.684a1.44,1.44,0,0,1-.82-1.323c-.976-.887-2.184-1.271-3.167-2.181-.8-.639-1.273-1.619-2.3-1.845a8.513,8.513,0,0,0-2.295-.771C262.31,73.321,262.176,75.137,261.171,75.847Z" style="fill:#fff;fill-rule:evenodd"/><path d="M263.356,71.364l.275.433c1.137-.071,2.167-.569,3.284-.547.749.457,1.73.435,2.5.819a8.785,8.785,0,0,0,2.183,2.368c1.849.27,2.872,2.252,3.509,3.7v-.7a4.855,4.855,0,0,0-.389-3c-.455-.457-1.115-.756-1.592-1.164a.937.937,0,0,1,.068-.7,14.921,14.921,0,0,0-2.618-1.751c-1.208-1.753-3.532-1.274-5.377-1.753l-1.845,2.3Z" style="fill:#fff;fill-rule:evenodd"/><path d="M263.32,54.671c.2.708.45,1.595.584,2.344.638-1.41,1.9-2.042,3.011-3.2a5.745,5.745,0,0,0-2.14-.776v-.041C264.274,53.492,263.5,53.993,263.32,54.671Z" style="fill:#fff;fill-rule:evenodd"/><path d="M267.457,62.157l1.025-1.045a6.458,6.458,0,0,0,2.027-3.6,2.917,2.917,0,0,0-2.39.112,28.773,28.773,0,0,0-.662,4.529Z" style="fill:#fff;fill-rule:evenodd"/><path d="M268.207,65.366c1.575.093,3.1.406,4.376-.474l1.273-4.1a3.092,3.092,0,0,0-1.2-.068A9.951,9.951,0,0,1,268.207,65.366Z" style="fill:#fff;fill-rule:evenodd"/><path d="M268.669,50.849a9.114,9.114,0,0,0,4.488,3.662c-.2-1.909-1.842-3.231-2.687-4.867l-.048-.547a8.494,8.494,0,0,0-2.142-1.413,10.723,10.723,0,0,0,.389,3.165Z" style="fill:#fff;fill-rule:evenodd"/><path d="M274.223,65.549a7.958,7.958,0,0,0,3.62-.346c1.62-.381,2.509-2.158,3.054-3.544H278.87L276.682,63.8a17.146,17.146,0,0,0-2.459,1.753Z" style="fill:#fff;fill-rule:evenodd"/><path d="M273.978,48.78A13.248,13.248,0,0,0,276.1,53.7l.273-3.391Z" style="fill:#fff;fill-rule:evenodd"/><path d="M281.445,57.63a16.958,16.958,0,0,0-.47-3.615c-.686-.457-1.645-.411-2.349-.863C278.67,54.949,280.079,56.47,281.445,57.63Z" style="fill:#fff;fill-rule:evenodd"/><path d="M279.371,69.193a22.577,22.577,0,0,0,4.142-1.687c.842-1.2,2.12-2.3,2.3-3.708-1.046.294-1.959-.044-2.935.435-.591,1.068-.959,2.276-2.095,3.047C280.6,68.05,279.758,68.578,279.371,69.193Z" style="fill:#fff;fill-rule:evenodd"/><path d="M281.6,71.991l1.709,2.227a3.459,3.459,0,0,0,2.847-.318l-.615-2.025A7.932,7.932,0,0,1,281.6,71.991Z" style="fill:#fff;fill-rule:evenodd"/><path d="M284.45,55.877l.66,3c1.592-1.3,1.915-3.187,1.876-5.188a7.107,7.107,0,0,1-2.536,2.183Z" style="fill:#fff;fill-rule:evenodd"/><path d="M288.936,61.182a2.183,2.183,0,0,0,.389,1.184c1.775.635,1.957,2.8,3.6,3.615,1.068.477,2.3-.116,3.232-.547-.706-.8-1.507-1.346-2.186-2.185-.479-.2-.958-.5-.934-1.092l-4.1-.975Z" style="fill:#fff;fill-rule:evenodd"/><path d="M290.347,71.921a5.3,5.3,0,0,0,2.916,1.59c-.18-.25.117,0,.161-.158l-1.37-3c-.682.017-1.388.156-2.025.112a6.174,6.174,0,0,0,.318,1.454Z" style="fill:#fff;fill-rule:evenodd"/><path d="M292.764,57.9a17.533,17.533,0,0,1-1.088-4.911c-.684.817-1.389,1.342-2.027,2.181C289.352,56.857,291.759,57.27,292.764,57.9Z" style="fill:#fff;fill-rule:evenodd"/><path d="M295.541,56.359c.82,1.067,2.619.7,3.627.384-.482-.82-2.025-1.3-2.3-2.183a19.517,19.517,0,0,0-.981-4.527C295.091,51.965,294.13,54.265,295.541,56.359Z" style="fill:#fff;fill-rule:evenodd"/><path d="M296.975,61.182c2.28,1.663,4.51,3.594,7.7,2.888.229-.16.616-.138.662-.432-.937-.593-1.935-1.048-2.894-1.59l-1.09-1.595h-.5a19.97,19.97,0,0,1-3.874.729Z" style="fill:#fff;fill-rule:evenodd"/><path d="M297.023,79.635h.156a12.31,12.31,0,0,1,4.6-1.913c.435.158.16.637.547.822.981-.411,2.166-.319,3.167-.662a6.886,6.886,0,0,1,3.166.594c.771,1.021,2.232.911,3.237,1.59l-.161-1.59c-2.117-2.483-5.422-2.665-8.469-2.616l-.071-.321a5.425,5.425,0,0,0-2.229.481,11.547,11.547,0,0,0-2.85.817A25.517,25.517,0,0,0,297.023,79.635Z" style="fill:#fff;fill-rule:evenodd"/><path d="M298.851,51.671a3.853,3.853,0,0,0,3.712,1.753c-.772-.751-1.662-1.551-1.709-2.618.229-2.026-2-2.184-3.1-3.234C298.119,48.941,298.077,50.463,298.851,51.671Z" style="fill:#fff;fill-rule:evenodd"/><path d="M298.62,83.664h.265c1.21-.756,2.965-.185,4.15-.982.66-.343.7.568,1.163.819,1.115.683,1.251,2.728,2.824,2.254,1.888.977,1.411,3.279,1.479,4.962l1.755-1.092c-.161-.887.338-1.962-.231-2.733-.431-.974-1.614-1.067-2.183-1.864.684-1.162-.864-1.705-1.186-2.548l.093-.117,2.409.319a3.6,3.6,0,0,1,1.371,2.253c1.891.319,2.346,2.456,3.008,3.822.387-.933.545-1.935.934-2.842.022-.754-.98-.754-1.479-1.092a4.08,4.08,0,0,0-1.684-2.958c-2.1-.523-3.941-1.685-6.241-1.685l-1.915.593c-1.049.25-2.164-.068-2.96.656-1.19.09-1.28,1.391-1.572,2.235Z" style="fill:#fff;fill-rule:evenodd"/><path d="M299.822,74.287l.436.2c.93-.435,1.867-.934,2.848-1.3,1.523-.432,2.708,1.3,3.986.207.477-.343.884.158,1.251.433.548,1,1.823.933,2.78,1.206-.477-1.3-1.069-3.073-2.734-3.282a15.923,15.923,0,0,1-2.073-.657c-1.753-1.933-2.892,1.59-4.807.727A5.343,5.343,0,0,0,299.822,74.287Z" style="fill:#fff;fill-rule:evenodd"/><path d="M300.258,85.368c.728.61,1.477,1.661,2.614,1.522,1.419.661.825,2.524,1.6,3.5l.818-.729-.068-.044.116-.114.049.068a4.345,4.345,0,0,0-.482-2.686c-.523-.36-1.139.024-1.638-.319a2.3,2.3,0,0,0-1.049-1.546c-.365-.272-.844.092-1.253.068l-.706.277Z" style="fill:#fff;fill-rule:evenodd"/><path d="M303.106,57.63c.752,1.255,2.207,2.028,3.37,2.891a5.421,5.421,0,0,0,3.235.318,20.808,20.808,0,0,1-2.687-2.664c-.319-.455-.389-1.021-.82-1.432-1.076.206-2.278.185-3.1.887Z" style="fill:#fff;fill-rule:evenodd"/><path d="M304.361,49.488c1.052,1.293,2.668.773,4.148.817v-.156l-2.278-1.916a6.125,6.125,0,0,0-1.87,1.255Z" style="fill:#fff;fill-rule:evenodd"/><path d="M262.432,28.03l1.319,4.1c-.025-2.322,1.046-4.255.82-6.621l.981-1.458-2.076.637A7.7,7.7,0,0,0,262.432,28.03Z" style="fill:#fff;fill-rule:evenodd"/><path d="M263.32,20.931l1.8-1.048V17.221a9.459,9.459,0,0,0-1.752,1.845Z" style="fill:#fff;fill-rule:evenodd"/><path d="M300.263,25.074a2.539,2.539,0,0,1-1.638.819,7.772,7.772,0,0,0,.657-6.171,8.789,8.789,0,0,0,1.529-.544l-.049-.044,1.256-1.1c1.662-1.138,1.024-3.3,1.64-4.912-.82-1.276-1.068-2.822-2.256-3.894l.071-.042c-.938-1.184-2.622-1.05-3.9-1.641-1.684-.569-2.981.591-4.188,1.369-.524.088-.2.771-.774.749a23.077,23.077,0,0,0-.935,2.684,9.116,9.116,0,0,0-6.491,1.206,9.579,9.579,0,0,0-3.237-1.16c-.818-.158-1.752.139-2.341-.321-.864-.975-1.052-2.752-2.534-3-.521-.182-.633-.749-.633-1.252-.981-.158-1.849-.61-2.806-.819-1.453-.662-2.614.389-3.709,1.091a11.155,11.155,0,0,0-1.477.55,20.769,20.769,0,0,0-2.12,3.977,8.239,8.239,0,0,0,1.256,3.163,6.432,6.432,0,0,0,3.551,3.234,13.386,13.386,0,0,0,0,7.213s-.039.027-.039.022a.819.819,0,0,1-.073.063,1.234,1.234,0,0,1-.631-.063h-.029a9.916,9.916,0,0,0,3,5.706c.594.209.458.912.711,1.369a1.072,1.072,0,0,1,.11.817,17.883,17.883,0,0,0-9.565,2.387c-.728.365-.407,1.369-.475,2.072a17.54,17.54,0,0,1,6.557-2.728,9.882,9.882,0,0,1,3.166-.046l.115,1.957c-2.709,1.41-5.671,2.229-8,4.551a9.176,9.176,0,0,0,.116,2.118l2.074-1.688a24.681,24.681,0,0,1,6.4-3.661,7.988,7.988,0,0,0,2.077,1.955,15.443,15.443,0,0,1,4.485-1.955c.845-.5,2.183-.046,2.731-1.045l.389-2.072c-.07-.046-.112-.134-.229-.109a3.137,3.137,0,0,1-1.684-2.937,3.057,3.057,0,0,1-1.207.318c-.365-.092-.7-.18-.864-.547-.024-.457-.253-1.137.2-1.478a8.8,8.8,0,0,1,5.264-.817c1.388.18,3.4.11,3.87,1.753-.063.477-.022,1-.5,1.318-.5.272-1.068-.024-1.528-.226a3.758,3.758,0,0,1-2.232,2.728l.163,1.322c.156.593.2,1.568,1.139,1.364a19.972,19.972,0,0,1,5.965,2.845,14.206,14.206,0,0,0,1.592-2.026c3.371,1.136,6.289,3.662,9.066,6.006l.117-1.911a31.166,31.166,0,0,0-8.635-5.3,11.51,11.51,0,0,0,.272-1.865A22.333,22.333,0,0,1,305.072,39.5l-.049-1.638a22.331,22.331,0,0,0-10.341-2.845,1.151,1.151,0,0,1-.156-.707c1.823-.3,3.118-2.183,3.556-3.825.93-1.067,2.278-2.229,1.959-3.819.042-.129.088-.27.134-.406A1.9,1.9,0,0,0,300.263,25.074Z" style="fill:#fff;fill-rule:evenodd"/><path d="M303.432,30.921l1.866-.594.2-1.045c.529-1.524-.586-2.662-1.139-3.871l-.929,5.51Z" style="fill:#fff;fill-rule:evenodd"/><path d="M308.141,38.134c.889.975,1.755,2.548,3.33,2.067a9.92,9.92,0,0,0-.709-1.8c-.413-.481-.547-1.845-1.367-1.364-.616-.41-.772-1.1-1.164-1.641A16.428,16.428,0,0,0,308.141,38.134Z" style="fill:#fff;fill-rule:evenodd"/><path d="M308.462,44.8c.344.481.436,1.1.772,1.527a3.681,3.681,0,0,0,2.278.272c.684-.158,1.117.591,1.755.155-.794-.5-1.271-1.41-2.028-2.066C310.349,43.979,309.4,44.594,308.462,44.8Z" style="fill:#fff;fill-rule:evenodd"/><path d="M309.67,55.379a8.782,8.782,0,0,0,5.666,1.527c.226-.117.615-.093.659-.367-1.3-.458-2.66-1.753-4.023-2.026-.755-1.159-1.733.3-2.689.205C309.305,54.992,309.577,55.2,309.67,55.379Z" style="fill:#fff;fill-rule:evenodd"/><path d="M314.4,75.468l.344.732c.343,2.368,1.842,4.549,1.022,7.143.684.476.891,1.271,1.321,1.908h.115a15.232,15.232,0,0,0-.115-6.007C317.3,77.447,315.472,76.4,314.4,75.468Z" style="fill:#fff;fill-rule:evenodd"/><path d="M314.8,52.17a5.1,5.1,0,0,0,4.44.547,13.819,13.819,0,0,1-2.529-1.639Z" style="fill:#fff;fill-rule:evenodd"/><path d="M320.415,59.157a2.468,2.468,0,0,0,1.207,2.229,5.11,5.11,0,0,0,.7-1.682,4.157,4.157,0,0,0-1.638-2.524A5.594,5.594,0,0,0,320.415,59.157Z" style="fill:#fff;fill-rule:evenodd"/><path d="M320.485,69.529c-.16,1.067,1.023,1.208,1.524,1.8.411.5-.273.841-.273,1.317a6.17,6.17,0,0,1,1.366,3.871,37.737,37.737,0,0,0,1.054-4.143c-.093-1-1.685-.8-1.436-1.908.452-1.138-.093-2.254-.39-3.275-.092-.163-.3-.482-.474-.389C321.437,67.734,320.415,68.391,320.485,69.529Z" style="fill:#fff;fill-rule:evenodd"/><path d="M323.606,64.114l1.182,2.3c.526-.063.862-.569,1.273-.929.322-.958-.523-1.573-.771-2.346-.21-.547,0-1.274-.39-1.753-.294-.18-.64-.477-.98-.389l-.314,3.119Z" style="fill:#fff;fill-rule:evenodd"/><path d="M325.129,58.065a6.607,6.607,0,0,1,2.5,2.385c.8,2.322,2.076,4.416,3.008,6.667.344,1.57.616,2.971,1.049,4.519.161.4.068,1.2.709,1.136.18-1.729.523-3.389.545-5.188a6.9,6.9,0,0,0-2.028-1.527V65.9c.093-.389.412-.843.891-.77.2-.234.818-.458.548-.866-1.185-1.182-1.117-3.221-3.011-3.589a1.713,1.713,0,0,1-.883-1.59A5.445,5.445,0,0,0,325.129,58.065Z" style="fill:#fff;fill-rule:evenodd"/><path d="M326.22,70.4c1.163,1.064.756,2.613.662,4.048-.181.865.912.364,1.255.819.7,1.048.3,2.572.042,3.71a22.15,22.15,0,0,0,1.8-2.777c-.024-.389.474-.568.457-1.045.2-.661-.569-.365-.888-.438-.273-.068-.569-.25-.482-.612.594-1.14.049-2.5-.18-3.64-.273-.936.117-2.183-.319-3-.727,1-2.894,1.23-2.348,2.937Z" style="fill:#fff;fill-rule:evenodd"/><path d="M328.339,54.239c2.03,2.049,3.51,4.106,5.7,6.087a23.368,23.368,0,0,0-.115-2.572,6.105,6.105,0,0,0-1.414-1.522C330.893,56.072,330.048,53.9,328.339,54.239Z" style="fill:#fff;fill-rule:evenodd"/><path d="M333.648,65.084a3.471,3.471,0,0,0,.226.591,29.916,29.916,0,0,1,2.349,4.527c-.183-1.68.958-3.778-.548-5.071-.2-.548-.888-.365-1.322-.321Z" style="fill:#fff;fill-rule:evenodd"/><path d="M339.114,81.707c.64.289,1.458-.234,2.074-.594a1.858,1.858,0,0,1,1.482.477c.18.362,0,.7.063,1.045a13.937,13.937,0,0,1,3.921,1.683l.382-.384a2.672,2.672,0,0,0-1.409-2.227c-.477-.28-1.188-.117-1.524-.552a2.356,2.356,0,0,0,.2-1.318,3.3,3.3,0,0,1-1.847-.593c-.382-.112-.728-.431-1.047,0-1.136.775-1.2,1.911-2.3,2.463Z" style="fill:#fff;fill-rule:evenodd"/><path d="M340.711,53.072a4.1,4.1,0,0,0,1.64-.727c1.521-1.389,3.733-.457,5.508-.479a12.372,12.372,0,0,0-1.251-1.753,5.239,5.239,0,0,0-1.96-.547c-1.55-.907-2.594.615-3.782,1.364A2.547,2.547,0,0,0,340.711,53.072Z" style="fill:#fff;fill-rule:evenodd"/><path d="M340.754,57.754c0-.063,0-.136.068-.155.2.182-.024.612.319.7a13.021,13.021,0,0,0,1.685-1.087c1.528,0,2.438-1.478,3.937-1.478a22.576,22.576,0,0,1,7.175,2.181,4.926,4.926,0,0,0-2.728-3.484,1.886,1.886,0,0,0-1.825.547c-1.529.96-.728-1.386-1.8-1.434a11.277,11.277,0,0,1-4.371.778c-.913.338-1.553,1.176-2.575,1.089a5.707,5.707,0,0,0,.114,2.341Z" style="fill:#fff;fill-rule:evenodd"/><path d="M341.8,62.833c.475.5,1.271.406,1.96.5l1.978-.77c.025-.365-.591-.46-.457-.863.547-.615,1.3-.185,1.981-.438.961-.134,1.94-1.089,2.891-.384-.022.112.049.275-.041.384-.3.707.2,1.138.749,1.41,1.118.209,2.164,1.233,3.281.773a20.011,20.011,0,0,0-.594-2.684c-.932-.16-1.591-.933-2.458-1.254a1.872,1.872,0,0,1-1.368.593c-1.754-.409-3.85-1.5-5.624-.384-.64.77-1.779.544-2.643.882A10.051,10.051,0,0,0,341.8,62.833Z" style="fill:#fff;fill-rule:evenodd"/><path d="M342.553,76.356c-.139.386-.523,1.025.18,1.205,1.46.049,3.327-.7,4.469.433.384.3.2.909.18,1.3l1.91,1.595a16.538,16.538,0,0,0,.548-2.849,3.181,3.181,0,0,0-1.159-1.911c-1.256,0-1.986-1.466-3.329-1.279-.7-.163-1.317.462-2.027.462a11.674,11.674,0,0,0-.772,1.046Z" style="fill:#fff;fill-rule:evenodd"/><path d="M343.1,65.631c.294.611.64,1.615,1.207,1.683A6.479,6.479,0,0,1,349.115,67c.5.09.5.659.389,1.026.771.455,1.708.815,2.526,1.318l-.226-1.364c-.049-1.481-1.916-1.619-2.03-3.078a9.03,9.03,0,0,0-4.851-.27c-.528.479-1.275.411-1.915.55C342.967,65.357,343.076,65.468,343.1,65.631Z" style="fill:#fff;fill-rule:evenodd"/><path d="M343.49,73c.888-.251,1.453-1.23,2.412-1.318a4.438,4.438,0,0,1,3.665,1.865c.553.362.436,1.3,1.139,1.3a22.586,22.586,0,0,1,.117-3.28c-.961-1.59-3.322-.364-4.213-2.229l-1.684.112c-1.207.3-.886,1.709-1.052,2.664-.136.3-.408.523-.384.888Z" style="fill:#fff;fill-rule:evenodd"/><path d="M351.843,82.954c.708,1.41,2.261,2.482,2.417,4.1a7.717,7.717,0,0,0,.866-1.41c-.024-.457-.55-.457-.757-.82-.2-.59.117-1.113.207-1.641a4.408,4.408,0,0,0-1.8-2.137Z" style="fill:#fff;fill-rule:evenodd"/><path d="M354.651,79.361l1.638,2.229a5.87,5.87,0,0,0,.431-4.1c-.156-.251-.455-.659-.864-.477-.618.64-.706,1.615-1.2,2.347Z" style="fill:#fff;fill-rule:evenodd"/><path d="M347.973,17.08a4.736,4.736,0,0,0,1.867.612,2.41,2.41,0,0,1,1.689-.272c.842.547,1.867-.114,2.843-.068a10.5,10.5,0,0,0-2.843-1.794C350.251,15.828,349.229,16.734,347.973,17.08Z" style="fill:#fff;fill-rule:evenodd"/><path d="M356.883,19.219c1.2.112,2.069,1.179,2.889,2.074a4.043,4.043,0,0,1,2.415,1.636l-.387-1.208a7.714,7.714,0,0,0-1.8-3.093A8.808,8.808,0,0,0,356.883,19.219Z" style="fill:#fff;fill-rule:evenodd"/><path d="M271.88,9.234l.659.068c1.779.888,4.649,1.342,4.807,3.912a14.054,14.054,0,0,0-4.96,3.117c-1.093-1.116-3.305-.5-3.668-2.456.343-1.843,1-4.16,3.162-4.641Z" style="fill:#f60;fill-rule:evenodd"/><path d="M273.593,20.773c2.069-.18,4.074.109,6.218-.068a2.717,2.717,0,0,1,1.32,1.206c-.069,2.455-.821,4.8-.935,7.325a3.367,3.367,0,0,0-2.071,2.185,18.047,18.047,0,0,0-2.417,1.136,2.391,2.391,0,0,1,.346-2.568c.886-1.254,3.188-.957,3-2.936.593-.958.024-2.186.048-3.188-.229-.749-.455.251-.82.226a2.972,2.972,0,0,1-2.115-.155c-.482-.506-1.073-.912-1.21-1.595a3.727,3.727,0,0,1-1.706-1.481Z" style="fill:#f60;fill-rule:evenodd"/><path d="M276.1,35.608c.974.134,2-.3,2.846.18a1.63,1.63,0,0,1-1.047.547l-1.526.707C275.8,36.9,276.119,35.992,276.1,35.608Z" style="fill:#f60;fill-rule:evenodd"/><path d="M280.084,16.606c.976-.319,2.027-.975,3.074-.657a14.686,14.686,0,0,0-1.911,2.636l-3.12-.066A4.39,4.39,0,0,1,280.084,16.606Z" style="fill:#f60;fill-rule:evenodd"/><path d="M289.218,15.857c1.295-.226,1.227,1.456,2.412,1.527.207.272.5.52.387.928a19.7,19.7,0,0,1-2.463.319c-1.025-.569-.36-2.344-1.981-2.23-.088-.133-.273-.408-.044-.5a3.92,3.92,0,0,1,1.689-.043Z" style="fill:#f60;fill-rule:evenodd"/><path d="M288.4,21.957a3.118,3.118,0,0,1,2.254-1.026l5.9.114c.251.226-.226.43-.226.7-.365.34-.891.433-1.21.754-.771.024-.708.928-1.253,1.317-.845.842-2.071.458-3.052.319a2.6,2.6,0,0,1-.888-.98l-.273.272c.343,1.277.251,2.689.5,3.983l1.412.936c.024,2.093,2.484,1.524,3.555,2.686a6.375,6.375,0,0,1-1.294,2.026,7.61,7.61,0,0,0-2.894-1.753c-.09-1.231-1.434-1.955-2.188-2.573-.2-2.229-.251-4.5-.611-6.666Z" style="fill:#f60;fill-rule:evenodd"/><path d="M290.537,35.992h2.736l-.343,1.435-2.736-1.163c-.063-.226.183-.294.343-.272Z" style="fill:#f60;fill-rule:evenodd"/><path d="M295.456,10.216l2.027-.639a20.618,20.618,0,0,1,3.325,2,8.02,8.02,0,0,1,.319,5.368c-.616.686-1.959,0-2.458,1.092h-.093A10,10,0,0,0,293.7,13.01a4.219,4.219,0,0,1,1.755-2.794Z" style="fill:#f60;fill-rule:evenodd"/><path d="M342.962,96.9h12.152c1.8-.272,3.711-.229,5.145-1.551a23.661,23.661,0,0,0,17.037-3.91,35.647,35.647,0,0,0,6.625-6.96,25.1,25.1,0,0,0,3.718-6.92,32.292,32.292,0,0,0,1.468-4.869,46.315,46.315,0,0,0-1.74-24.211q-.716-2.09-1.6-4.023c-3.208-6.623-7.569-13.766-14.3-17.957a28.758,28.758,0,0,1-9.412-9.786c-1.163-1.05-2.28-2.436-3.782-2.687a5.921,5.921,0,0,1,.981,2.137l-.092.115a5.526,5.526,0,0,1-3.941-1.824l1.21-1.089a6.406,6.406,0,0,0-1.482-.43c-4.6-.523-8.382,1.59-12.457,2.616l-.068.226c2.5,1.113,3.025,3.866,4.486,5.735.365-.435.981-.116,1.48-.163.727.047,1.411.569,2.115.387a6.222,6.222,0,0,0-.431-1.634,2.992,2.992,0,0,1,1.436,0c1.319.771,3.439-.141,4.259,1.634a24.75,24.75,0,0,0-4.327.751c.09.569.659,1.026.615,1.595a14.278,14.278,0,0,0-3.828-.98l-.063.2a13.193,13.193,0,0,0,6.442,3.895c3.439.795,6.467-.841,9.789-.272,8.16,3.732,15.126,12.268,18.159,20.368q.222.584.425,1.18a39.387,39.387,0,0,1,.477,24.21,29.679,29.679,0,0,1-5.23,8.852,18.506,18.506,0,0,1-2.989,2.937,13.393,13.393,0,0,1-11.976,2.635c-.271-.177-.823-.226-.733-.7.153-.632.3-1.279.419-1.933A47.962,47.962,0,0,0,363.817,73c-.009-.168-.012-.336-.019-.5a43.788,43.788,0,0,0-3.444-15.606,54.019,54.019,0,0,0-4.907-8.6,20.356,20.356,0,0,0-9.124-7.51c-2.324-.615-5.2-.727-6.946,1.208a4.662,4.662,0,0,0-1.6,4.184,14.259,14.259,0,0,1-6.559,2.118c-.586.051-1.19.263-1.8.26a9.781,9.781,0,0,1-1.7-.07,16.765,16.765,0,0,1-8.025-3.686c-.046-1.177-.117-2.3-.16-3.545a4.294,4.294,0,0,1-2.412-3.391l.117-.115a9.53,9.53,0,0,1,2.022.98,14.9,14.9,0,0,0-1.524-5.074c-.82-.343-1.645-.613-2.416-1.026a3.887,3.887,0,0,1-1.59-2.64c.794.778,2.184.5,2.8,1.322-1.068-3.163-1.093-6.78-2.847-9.671-.889-2.14-3.213-3.117-4.807-4.69-.616-.749-.864-1.794-1.981-1.911-.91-.226-.981-1.252-1.139-1.908.569.065,1.046.454,1.528.544-1.324-3.506-2.485-7.393-6.06-9.623l-.616.385a37.429,37.429,0,0,1-4.259.342,5.858,5.858,0,0,1,2.575-1.709,6.161,6.161,0,0,0-3.084-1.138,6.3,6.3,0,0,1-2.976,1.3l-.112-.087c-.025-.817-.214-1.824,1.017-2.026a7.108,7.108,0,0,0-4.352,0c-.343.888-1.314,1.683-1.251,2.728a18.3,18.3,0,0,1-1.934,2.232c-.02-1.753.722-3.37,1.044-4.845-1.025.384-2.067.928-3.067,1.41a41.893,41.893,0,0,0-5.05-2.57c-.161-.07-.5-.139-.436.156,1.48,1.069.908,3.07,1.066,4.6l-.934-.771c-.455-1.162-1.772-2-2-3.279a17.351,17.351,0,0,0-3.977,1.322l-.2.112a3.22,3.22,0,0,1,2.5,1.682c-1.616.093-3.052-.547-4.644-.7-.16-.161-.294-.343-.55-.319a8.767,8.767,0,0,0-2.185,1.413,15.287,15.287,0,0,0-3.916,5.3,3.5,3.5,0,0,1,1.572.389c-.862.523-1.616,1.41-2.461,1.911a21.039,21.039,0,0,0-.319,3.824,17.277,17.277,0,0,0-1.981,3,44.648,44.648,0,0,0-1.57,14.836c-.457.43-1.051.71-1.479,1.048l.046,4.641h.112c.209-.98,1.37-1.525,2.074-2.183h.228c-.112,1.045-.25,2.09-.272,3.163l-1.322,1.091c-1.317,1.16-.2,2.908-.319,4.364.095.389.159.958.438,1.051a6.1,6.1,0,0,1,.974-1.479c.569-.141,1.068-.593,1.592-.661a23.776,23.776,0,0,1-1.139,3.343,4.168,4.168,0,0,0-.694.569,1.641,1.641,0,0,0-.46.846A101.957,101.957,0,0,0,263.4,65.113c-1.256,2.113-1.964,4.608-3.009,6.793-.148.307-.282.615-.408.934-1.047,2.648-1.366,5.6-2.668,8.147a8.98,8.98,0,0,0-1.682-.89,6.87,6.87,0,0,0-7.106,1.593,6.1,6.1,0,0,0-4.493.817,5.983,5.983,0,0,0-1.989,2.438,4.957,4.957,0,0,0-.353,2.161A5.23,5.23,0,0,0,239.782,90a8.964,8.964,0,0,0,1.8,6.9H342.962Z" style="fill:#fff;fill-rule:evenodd"/><path d="M387.367,48.484q-.716-2.09-1.6-4.024c-3.207-6.623-7.569-13.765-14.3-17.957a28.75,28.75,0,0,1-9.412-9.786c-1.163-1.05-2.28-2.436-3.782-2.686a5.913,5.913,0,0,1,.981,2.137l-.092.114a5.529,5.529,0,0,1-3.941-1.823l1.21-1.089a6.408,6.408,0,0,0-1.482-.431c-4.6-.522-8.382,1.59-12.457,2.616l-.068.226c2.5,1.114,3.025,3.866,4.486,5.736.365-.436.981-.117,1.48-.163.727.046,1.411.569,2.115.386a6.215,6.215,0,0,0-.431-1.633,2.967,2.967,0,0,1,1.436,0c1.319.77,3.439-.141,4.259,1.633a24.751,24.751,0,0,0-4.327.752c.09.568.659,1.026.615,1.594a14.314,14.314,0,0,0-3.828-.979l-.063.2a13.178,13.178,0,0,0,6.442,3.895c3.439.8,6.467-.841,9.789-.272,8.16,3.732,15.126,12.268,18.159,20.369.148.389.289.783.425,1.179a39.394,39.394,0,0,1,.478,24.21,29.691,29.691,0,0,1-5.231,8.852,18.5,18.5,0,0,1-2.988,2.937,13.4,13.4,0,0,1-11.977,2.636c-.27-.178-.823-.226-.733-.7.153-.632.3-1.279.419-1.933A47.958,47.958,0,0,0,363.817,73c-.009-.167-.012-.335-.019-.5a43.789,43.789,0,0,0-3.444-15.607,54.019,54.019,0,0,0-4.907-8.6,20.357,20.357,0,0,0-9.124-7.51c-2.324-.615-5.2-.727-6.946,1.209a4.661,4.661,0,0,0-1.6,4.184,14.246,14.246,0,0,1-6.559,2.117c-.586.051-1.19.263-1.8.261a9.78,9.78,0,0,1-1.7-.071,16.765,16.765,0,0,1-8.025-3.686c-.046-1.176-.117-2.3-.16-3.544a4.3,4.3,0,0,1-2.412-3.392l.117-.114a9.526,9.526,0,0,1,2.022.979,14.915,14.915,0,0,0-1.524-5.074c-.82-.342-1.645-.612-2.416-1.025a3.889,3.889,0,0,1-1.59-2.641c.794.778,2.184.5,2.8,1.323-1.068-3.163-1.093-6.781-2.847-9.672-.889-2.139-3.213-3.116-4.807-4.69-.616-.748-.864-1.794-1.981-1.91-.91-.227-.981-1.253-1.139-1.909.569.066,1.046.455,1.528.545-1.324-3.506-2.485-7.394-6.06-9.623l-.616.384a37.431,37.431,0,0,1-4.259.343,5.849,5.849,0,0,1,2.575-1.709,6.152,6.152,0,0,0-3.084-1.138,6.313,6.313,0,0,1-2.976,1.3l-.112-.088c-.025-.817-.214-1.823,1.017-2.025a7.093,7.093,0,0,0-4.352,0c-.343.887-1.314,1.682-1.251,2.728a18.284,18.284,0,0,1-1.934,2.232c-.02-1.753.722-3.37,1.044-4.846-1.025.384-2.067.929-3.067,1.41a42.039,42.039,0,0,0-5.05-2.57c-.161-.07-.5-.138-.436.156,1.48,1.07.908,3.071,1.066,4.6l-.934-.771c-.455-1.162-1.772-2-2-3.28a17.4,17.4,0,0,0-3.977,1.323l-.2.112a3.22,3.22,0,0,1,2.5,1.682c-1.616.092-3.052-.547-4.644-.7-.16-.16-.294-.343-.55-.318a8.734,8.734,0,0,0-2.185,1.412,15.3,15.3,0,0,0-3.916,5.3,3.518,3.518,0,0,1,1.572.389c-.862.523-1.616,1.411-2.461,1.911a21.043,21.043,0,0,0-.319,3.825,17.2,17.2,0,0,0-1.981,3,44.639,44.639,0,0,0-1.57,14.835c-.457.431-1.051.71-1.479,1.048l.046,4.641h.112c.209-.979,1.37-1.524,2.074-2.183h.228c-.112,1.045-.25,2.091-.272,3.163L258.53,41.3c-1.317,1.159-.2,2.907-.319,4.364.095.389.159.958.438,1.05a6.08,6.08,0,0,1,.974-1.478c.569-.141,1.068-.593,1.592-.661a23.82,23.82,0,0,1-1.139,3.343,4.159,4.159,0,0,0-.694.568,1.648,1.648,0,0,0-.46.846A102,102,0,0,0,263.4,65.116c-1.256,2.113-1.964,4.607-3.009,6.793-.148.306-.282.615-.408.933-1.047,2.648-1.366,5.6-2.668,8.147a8.917,8.917,0,0,0-1.682-.889,6.869,6.869,0,0,0-7.106,1.592,6.107,6.107,0,0,0-4.493.817,6,6,0,0,0-1.989,2.438,4.961,4.961,0,0,0-.353,2.162A5.231,5.231,0,0,0,239.782,90a8.966,8.966,0,0,0,1.8,6.905h40.248a13.115,13.115,0,0,1-1.553-2.524c-.862-1.3-.27-3.141-.363-4.643.82-1.654,1.653-3.317,2.59-4.933.19-.326.38-.645.574-.961l1.848-.7c.978,0,1.8-.7,2.733-.457,1.253,1.255,1.253-1.25,2.463-1.364,2.823-.364,5.624-.092,7.216,2.3,0,.318.506.318.389.615-.365.109-.708-.117-1.092-.117-1.731-.43-3.761-1.527-5.467-.547-.065.409-.153.824-.236,1.233a12.4,12.4,0,0,0-.2,1.269,6.892,6.892,0,0,1,2.891,1.979,4.616,4.616,0,0,1,2.848-1.979,6.608,6.608,0,0,1,2.735.819c1.436,1.323.728,3.574.594,5.256,1.3.727,2.731,1.141,4.05,1.843a6.4,6.4,0,0,1-2.183,1.051l-2.186-.436c-.251-.179-.686-.179-.776-.5a11.431,11.431,0,0,0-2.071,2.8h31.2a16.384,16.384,0,0,0-1.458-2.524c-.64-1.366-.384-3.233-.455-4.69l2.916-4.437c1.592-.021,3.395-.615,5.123-.318a1.946,1.946,0,0,0,.251-.134c.718-.5.937-1.648,2-1.5,1.911-.52,3.371.346,4.807,1.209a2.271,2.271,0,0,1-.146.3c-.6.961-1.726-.112-2.546.178-.343.364.161.8.227,1.208.3.406-.3.36-.5.43a1.56,1.56,0,0,1-1.368-.43c-.09-.117-.022-.25-.2-.272a7.012,7.012,0,0,0-1.163,2.069,5.659,5.659,0,0,1,1.479,1.641c.524.751-.411,1.318-.591,1.979a.2.2,0,0,1-.343,0c-.482-.272-.889-.958-1.414-.778-.458,2.028.158,4.053-.115,6.078a17.129,17.129,0,0,0,2.892,0l.389-4.279c.407-2.774,2.052-5.1,3.987-7.216,2.09-1.427,3.439,1.393,4.984,2.371.253.046.163.318.273.476-.022.457-.5.637-.818.776-.959.338-1.665-.708-2.256-1.323-.567.615-.82,1.432-1.48,1.913l.226.066a4.985,4.985,0,0,1,1.646,2.55,2.869,2.869,0,0,1-1.371,2.254,22.552,22.552,0,0,1-1.521-3.28c.022.049-.027.069-.07.117-1.256.338-1.59,1.748-1.8,2.888.068,1.116-.774,1.571-.55,2.685h16.243c1.8-.273,3.712-.229,5.145-1.552A23.658,23.658,0,0,0,377.3,91.434a35.624,35.624,0,0,0,6.625-6.961,25.094,25.094,0,0,0,3.719-6.919,32.536,32.536,0,0,0,1.468-4.87A46.309,46.309,0,0,0,387.367,48.484Z" style="fill:#f60;fill-rule:evenodd"/><path d="M282.844,90.714c.888-.569,2.324-.707,2.526-2.025a3.113,3.113,0,0,0-1.092-.707l-.935.272A11.214,11.214,0,0,1,283.9,86.5l3-.977a24.215,24.215,0,0,0-.708,4.641c.272,2.322.615,4.8,1.8,6.735h-3.237c-.363-2.137-2.6-3.688-1.911-6.188Z" style="fill:#f60;fill-rule:evenodd"/><path d="M289.839,87.982h.18l2.183,1.981.319-.068c-.178,2.322-.3,4.6-.319,7.007h-2.366c-.482-2.251-1.277-4.62-1.185-7.051a10.584,10.584,0,0,1,1.188-1.869Z" style="fill:#f60;fill-rule:evenodd"/><path d="M294.709,90.17c.436-.567.616-1.527,1.48-1.636a2.329,2.329,0,0,1,1.645.544c.8,1,.017,2.278-.273,3.277a38.288,38.288,0,0,1-1.37,4.549h-2.3l.818-6.734Z" style="fill:#f60;fill-rule:evenodd"/><path d="M329.262,89.462c.5.64.659,1.5,1.411,2.072a4.285,4.285,0,0,0,.5-3.482l-.66-.661c.845-.2,1.731-.272,2.575-.43-.365,1.2-1.054,2.3-.934,3.707.022,2.05.362,4.1.545,6.234h-2.5c-.91-2-1.823-3.912-1.754-6.234a5.463,5.463,0,0,1,.82-1.206Z" style="fill:#f60;fill-rule:evenodd"/><path d="M340.036,45.746c-.024.591-.455,1.248-.07,1.753.552-.615,1.46-.593,2.19-.865a17.947,17.947,0,0,1,5.851.911c-.477-.753-.8-1.594-1.321-2.275-1.049-.275-2.644.454-2.824-1.1-.637-.544-1.638-.155-2.3-.112a5.1,5.1,0,0,0-1.526,1.685Z" style="fill:#fff;fill-rule:evenodd"/><path d="M270.422,26.1c-.01-.005-.02-.015-.034-.024,0,.009,0,.014,0,.024Z" style="fill:#fff;fill-rule:evenodd"/><path d="M278.7,46.325l1.368-1.318a.3.3,0,0,1,.272.11l-.111,2.526a3.551,3.551,0,0,0,2.341.865c.07-.681.594-1.162.891-1.753.25-.476.092-1.181.591-1.519l.161.155a7.157,7.157,0,0,0,.5,2.252c.046.364.11.817.153,1.137a5.64,5.64,0,0,0,2.69-.593,10.273,10.273,0,0,1,.384-2.36c.21-.275-.25-.778.319-.754.321.683.888,1.386,1.21,2.117a8.851,8.851,0,0,0,2.183-4.915c-.385-.521-.976-.521-1.436-.864-3.87-1.249-8.832-1.5-12.568.433A5.79,5.79,0,0,0,278.7,46.325Z" style="fill:#fff;fill-rule:evenodd"/><path d="M242.5,89.022a35.066,35.066,0,0,0,.112,5.128,2.6,2.6,0,0,0,1.689,1.271l.112-1.162c.273-1.614-.591-3.328.322-4.7a11.073,11.073,0,0,1,1.823.817,3.989,3.989,0,0,0-1.553-4.167Z" style="fill:#fff;fill-rule:evenodd"/><path d="M248.13,86.562c-.888,2.664-1.547,5.944-.477,8.75a10.331,10.331,0,0,0,1.8-1.367c-.112-2.141-.409-4.422.866-6.2a4.034,4.034,0,0,1,2.3,2.456,4.191,4.191,0,0,0,.71-3.545c.046-1-1.093-.773-1.64-1.184.18-.843.156-1.816,1.046-2.3l-2.73.272A12.981,12.981,0,0,0,248.13,86.562Z" style="fill:#fff;fill-rule:evenodd"/><path d="M253.757,94.424c.115.2,0,.569.232.616.338-1.914,1.886-3.151,2.733-4.839.406-.561.387-1.364,1.046-1.794.886,0,1.526.637,2.393.7.272.207-.141.389-.163.615-.18,1.551-.772,2.83-.66,4.425h.158a23.222,23.222,0,0,0,2.916-4.106l.156-1.294c.209-1.548-1.475-2.548-2.575-3.187l.981-1.255-1.368-.476a6.214,6.214,0,0,0-4.145,2.074c-1.387,2.543-1.614,5.421-1.7,8.516Z" style="fill:#fff;fill-rule:evenodd"/><path d="M259.886,80.921c.521.156,1-.272,1.521-.048,2.1.775,4.283,1.57,5.856,3.321l1.869,4.758.934-2.94-.615-1.587c-.526-1.138-1.96-1.046-2.94-1.092-.409-.457.022-.98.16-1.41.477-1.617-1.5-1.527-2.3-2.186.047-.975-1.139-.639-1.8-.727l-.226-.272a.465.465,0,0,0-.662-.049c-.041-.068-.134-.114-.088-.226l-.5.112a3.2,3.2,0,0,0-1.209,2.346Z" style="fill:#fff;fill-rule:evenodd"/><path d="M261.2,75.687a1.492,1.492,0,0,0,.478.773c1.027-.272,2.01-.982,3.19-.547a17.981,17.981,0,0,0,4.968,3.479l.662-.112c.406.134.861.156,1.134.615.253.615-.385.975-.587,1.476,1.023.754.616,2.093,1.251,3l1.638-2.181c-.382-.958.025-2.594-1.475-2.687a1.426,1.426,0,0,1-.825-1.317c-.976-.888-2.183-1.274-3.161-2.186-.8-.635-1.278-1.612-2.3-1.84a8.356,8.356,0,0,0-2.3-.771C262.344,73.158,262.208,74.979,261.2,75.687Z" style="fill:#fff;fill-rule:evenodd"/><path d="M263.393,71.2l.272.437c1.14-.07,2.162-.569,3.279-.549.749.455,1.73.43,2.5.819a8.723,8.723,0,0,0,2.183,2.363c1.848.273,2.87,2.259,3.508,3.71v-.7a4.934,4.934,0,0,0-.383-3.008c-.457-.454-1.122-.748-1.6-1.154a.938.938,0,0,1,.068-.708,15.17,15.17,0,0,0-2.621-1.755c-1.207-1.753-3.527-1.269-5.374-1.753l-1.84,2.3Z" style="fill:#fff;fill-rule:evenodd"/><path d="M263.354,54.513c.2.708.448,1.593.587,2.346.635-1.41,1.893-2.049,3.008-3.206a5.734,5.734,0,0,0-2.14-.773v-.047C264.306,53.329,263.532,53.833,263.354,54.513Z" style="fill:#fff;fill-rule:evenodd"/><path d="M267.491,62l1.023-1.046a6.456,6.456,0,0,0,2.027-3.6,2.924,2.924,0,0,0-2.388.117A28.672,28.672,0,0,0,267.491,62Z" style="fill:#fff;fill-rule:evenodd"/><path d="M268.241,65.211c1.572.087,3.1.406,4.376-.482l1.278-4.094c-.414-.024-.825-.209-1.21-.068A9.98,9.98,0,0,1,268.241,65.211Z" style="fill:#fff;fill-rule:evenodd"/><path d="M268.7,50.694a9.182,9.182,0,0,0,4.485,3.661c-.2-1.913-1.842-3.233-2.687-4.867l-.046-.547a8.371,8.371,0,0,0-2.142-1.41,10.764,10.764,0,0,0,.39,3.163Z" style="fill:#fff;fill-rule:evenodd"/><path d="M274.255,65.391a8.078,8.078,0,0,0,3.622-.343c1.616-.389,2.506-2.162,3.052-3.547H278.9l-2.183,2.137a16.543,16.543,0,0,0-2.463,1.753Z" style="fill:#fff;fill-rule:evenodd"/><path d="M274.009,48.622a13.287,13.287,0,0,0,2.123,4.916l.27-3.391Z" style="fill:#fff;fill-rule:evenodd"/><path d="M281.476,57.472A16.549,16.549,0,0,0,281,53.857c-.684-.457-1.638-.413-2.346-.863C278.7,54.786,280.111,56.312,281.476,57.472Z" style="fill:#fff;fill-rule:evenodd"/><path d="M279.4,69.03a22.736,22.736,0,0,0,4.147-1.682c.842-1.209,2.115-2.3,2.3-3.708-1.054.294-1.959-.048-2.94.433-.591,1.067-.959,2.278-2.095,3.049C280.634,67.89,279.792,68.415,279.4,69.03Z" style="fill:#fff;fill-rule:evenodd"/><path d="M281.634,71.829l1.709,2.229a3.472,3.472,0,0,0,2.848-.316l-.611-2.023A7.978,7.978,0,0,1,281.634,71.829Z" style="fill:#fff;fill-rule:evenodd"/><path d="M284.482,55.722l.66,3c1.594-1.294,1.922-3.183,1.876-5.184a7.055,7.055,0,0,1-2.536,2.184Z" style="fill:#fff;fill-rule:evenodd"/><path d="M288.972,61.019a2.158,2.158,0,0,0,.382,1.184c1.777.64,1.96,2.8,3.6,3.616,1.066.481,2.3-.112,3.229-.547-.7-.8-1.5-1.343-2.183-2.181-.477-.2-.961-.5-.935-1.092l-4.1-.98Z" style="fill:#fff;fill-rule:evenodd"/><path d="M290.384,71.763a5.281,5.281,0,0,0,2.911,1.588c-.18-.248.117,0,.16-.156l-1.367-3c-.684.024-1.392.163-2.028.117A6.272,6.272,0,0,0,290.384,71.763Z" style="fill:#fff;fill-rule:evenodd"/><path d="M292.8,57.747a17.829,17.829,0,0,1-1.09-4.914c-.679.82-1.387,1.345-2.027,2.181C289.384,56.7,291.8,57.107,292.8,57.747Z" style="fill:#fff;fill-rule:evenodd"/><path d="M295.573,56.2c.825,1.074,2.621.71,3.624.389-.48-.82-2.023-1.3-2.3-2.181a19.366,19.366,0,0,0-.981-4.527C295.125,51.807,294.161,54.107,295.573,56.2Z" style="fill:#fff;fill-rule:evenodd"/><path d="M297.009,61.019c2.278,1.661,4.512,3.6,7.7,2.889.228-.156.618-.139.662-.431-.935-.591-1.935-1.05-2.892-1.595l-1.09-1.59h-.5a19.7,19.7,0,0,1-3.875.727Z" style="fill:#fff;fill-rule:evenodd"/><path d="M297.055,79.472h.163a12.192,12.192,0,0,1,4.6-1.911c.435.161.16.64.55.82.978-.406,2.163-.319,3.164-.659a6.843,6.843,0,0,1,3.166.588c.779,1.026,2.232.91,3.237,1.595l-.163-1.595c-2.115-2.48-5.418-2.66-8.47-2.613l-.068-.319a5.434,5.434,0,0,0-2.232.477,11.7,11.7,0,0,0-2.847.817A26.21,26.21,0,0,0,297.055,79.472Z" style="fill:#fff;fill-rule:evenodd"/><path d="M298.885,51.511a3.846,3.846,0,0,0,3.712,1.755c-.772-.756-1.665-1.551-1.709-2.618.229-2.026-2-2.188-3.095-3.234C298.158,48.78,298.109,50.305,298.885,51.511Z" style="fill:#fff;fill-rule:evenodd"/><path d="M298.652,83.5h.272c1.205-.748,2.96-.177,4.145-.974.66-.343.706.568,1.161.819,1.117.678,1.256,2.728,2.826,2.251,1.886.978,1.411,3.275,1.479,4.957l1.755-1.089c-.16-.887.343-1.957-.229-2.73-.433-.977-1.618-1.067-2.188-1.862.687-1.162-.864-1.712-1.185-2.553l.1-.112,2.414.319a3.6,3.6,0,0,1,1.368,2.253c1.886.319,2.342,2.456,3,3.82.389-.931.547-1.936.934-2.845.024-.751-.978-.751-1.48-1.091a4.029,4.029,0,0,0-1.684-2.954c-2.095-.53-3.938-1.685-6.238-1.685l-1.913.588c-1.051.253-2.166-.065-2.964.659C299.036,81.361,298.949,82.66,298.652,83.5Z" style="fill:#fff;fill-rule:evenodd"/><path d="M299.856,74.126l.436.207c.935-.433,1.867-.934,2.848-1.3,1.521-.43,2.706,1.3,3.986.2.475-.338.889.16,1.249.435.555,1,1.825.931,2.784,1.2-.479-1.294-1.073-3.068-2.736-3.275a16.166,16.166,0,0,1-2.071-.659c-1.754-1.933-2.891,1.595-4.811.732A5.292,5.292,0,0,0,299.856,74.126Z" style="fill:#fff;fill-rule:evenodd"/><path d="M300.292,85.208c.728.615,1.48,1.663,2.621,1.524,1.409.659.818,2.526,1.59,3.506l.82-.73-.068-.048.114-.112.049.063a4.34,4.34,0,0,0-.482-2.684c-.521-.362-1.134.024-1.638-.318a2.27,2.27,0,0,0-1.047-1.544c-.365-.277-.844.087-1.256.063Z" style="fill:#fff;fill-rule:evenodd"/><path d="M303.14,57.472c.749,1.25,2.207,2.025,3.37,2.888a5.4,5.4,0,0,0,3.235.316,20.838,20.838,0,0,1-2.687-2.659c-.321-.457-.389-1.029-.82-1.435-1.071.207-2.281.183-3.1.89Z" style="fill:#fff;fill-rule:evenodd"/><path d="M304.4,49.33c1.047,1.3,2.666.773,4.145.819v-.16l-2.278-1.911A6.037,6.037,0,0,0,304.4,49.33Z" style="fill:#fff;fill-rule:evenodd"/><path d="M262.466,27.872l1.319,4.1c-.025-2.322,1.051-4.26.822-6.623l.976-1.459-2.073.64A7.668,7.668,0,0,0,262.466,27.872Z" style="fill:#fff;fill-rule:evenodd"/><path d="M263.354,20.773l1.8-1.046V17.063A9.561,9.561,0,0,0,263.4,18.9Z" style="fill:#fff;fill-rule:evenodd"/><path d="M300.3,24.913a2.511,2.511,0,0,1-1.64.817,7.754,7.754,0,0,0,.662-6.166,9.321,9.321,0,0,0,1.523-.544l-.046-.049,1.253-1.091c1.663-1.138,1.023-3.3,1.638-4.914-.817-1.272-1.068-2.82-2.253-3.89l.068-.046c-.935-1.184-2.619-1.046-3.894-1.636-1.689-.569-2.987.59-4.2,1.364-.524.092-.2.773-.772.748a23.433,23.433,0,0,0-.937,2.687,9.107,9.107,0,0,0-6.488,1.206,9.486,9.486,0,0,0-3.235-1.16c-.82-.163-1.752.134-2.344-.321-.864-.975-1.051-2.752-2.533-3-.524-.185-.633-.754-.633-1.255-.981-.162-1.85-.615-2.8-.819-1.458-.661-2.619.389-3.712,1.092a11.088,11.088,0,0,0-1.482.544,21.486,21.486,0,0,0-2.12,3.983,8.374,8.374,0,0,0,1.256,3.163,6.447,6.447,0,0,0,3.551,3.233,13.371,13.371,0,0,0,0,7.209s-.037.032-.037.024a.567.567,0,0,1-.073.068,1.2,1.2,0,0,1-.63-.068h-.029a9.977,9.977,0,0,0,3,5.711c.594.2.455.912.7,1.364a1.062,1.062,0,0,1,.117.819,17.916,17.916,0,0,0-9.57,2.39c-.727.365-.409,1.364-.477,2.072a17.565,17.565,0,0,1,6.559-2.733,10.063,10.063,0,0,1,3.167-.046l.112,1.962c-2.707,1.412-5.671,2.229-7.99,4.551a8.925,8.925,0,0,0,.112,2.113l2.076-1.683a24.575,24.575,0,0,1,6.4-3.663,8.091,8.091,0,0,0,2.076,1.957,15.331,15.331,0,0,1,4.488-1.957c.842-.5,2.188-.047,2.733-1.046l.384-2.071c-.063-.046-.112-.139-.226-.117a3.128,3.128,0,0,1-1.684-2.932,2.989,2.989,0,0,1-1.207.314c-.361-.088-.706-.18-.864-.547-.022-.453-.253-1.136.207-1.474a8.825,8.825,0,0,1,5.259-.822c1.387.185,3.393.115,3.875,1.753-.068.479-.025,1-.5,1.321-.5.272-1.069-.025-1.526-.231a3.778,3.778,0,0,1-2.23,2.732l.156,1.318c.156.593.2,1.571,1.139,1.364a20.157,20.157,0,0,1,5.968,2.844,13.481,13.481,0,0,0,1.592-2.025c3.375,1.143,6.286,3.667,9.071,6.013l.109-1.914a31.008,31.008,0,0,0-8.633-5.3,12.19,12.19,0,0,0,.278-1.869A22.423,22.423,0,0,1,305.1,39.33l-.046-1.636a22.277,22.277,0,0,0-10.336-2.842,1.112,1.112,0,0,1-.161-.7c1.823-.294,3.118-2.181,3.553-3.824.937-1.068,2.281-2.23,1.962-3.82.039-.134.085-.272.134-.411a1.927,1.927,0,0,0,.09-1.179Z" style="fill:#fff;fill-rule:evenodd"/><path d="M303.461,30.763l1.867-.594.209-1.043c.523-1.526-.594-2.664-1.142-3.87Z" style="fill:#fff;fill-rule:evenodd"/><path d="M308.175,37.971c.889.98,1.755,2.548,3.327,2.072a9.91,9.91,0,0,0-.706-1.8c-.408-.477-.55-1.843-1.367-1.364-.616-.409-.772-1.092-1.164-1.639a16.41,16.41,0,0,0-.09,2.73Z" style="fill:#fff;fill-rule:evenodd"/><path d="M308.494,44.638c.343.476.438,1.094.774,1.526a3.728,3.728,0,0,0,2.283.273c.679-.161,1.115.588,1.75.158-.8-.5-1.273-1.41-2.023-2.074C310.388,43.821,309.431,44.436,308.494,44.638Z" style="fill:#fff;fill-rule:evenodd"/><path d="M309.7,55.221a8.788,8.788,0,0,0,5.666,1.524c.226-.112.615-.09.659-.362-1.3-.457-2.662-1.753-4.025-2.025-.752-1.16-1.733.3-2.69.2C309.336,54.832,309.609,55.036,309.7,55.221Z" style="fill:#fff;fill-rule:evenodd"/><path d="M314.433,75.31l.343.727c.345,2.368,1.842,4.549,1.024,7.143.684.481.889,1.276,1.324,1.913h.112a15.251,15.251,0,0,0-.112-6.007c.2-1.8-1.621-2.842-2.691-3.776Z" style="fill:#fff;fill-rule:evenodd"/><path d="M314.827,52.012a5.107,5.107,0,0,0,4.439.547,14,14,0,0,1-2.529-1.639Z" style="fill:#fff;fill-rule:evenodd"/><path d="M320.449,58.994a2.492,2.492,0,0,0,1.207,2.234,5.218,5.218,0,0,0,.7-1.684,4.2,4.2,0,0,0-1.641-2.529,5.651,5.651,0,0,0-.27,1.979Z" style="fill:#fff;fill-rule:evenodd"/><path d="M320.517,69.373c-.163,1.067,1.022,1.206,1.521,1.8.412.5-.272.843-.272,1.32a6.14,6.14,0,0,1,1.37,3.866,38.076,38.076,0,0,0,1.046-4.138c-.092-1.005-1.684-.8-1.436-1.911.458-1.138-.09-2.252-.386-3.28-.088-.156-.3-.477-.475-.382C321.471,67.574,320.449,68.235,320.517,69.373Z" style="fill:#fff;fill-rule:evenodd"/><path d="M323.637,63.956l1.183,2.3c.523-.068.864-.569,1.273-.934.319-.955-.526-1.57-.772-2.346-.206-.547,0-1.272-.389-1.748-.3-.185-.635-.481-.976-.389l-.319,3.119Z" style="fill:#fff;fill-rule:evenodd"/><path d="M325.158,57.9a6.64,6.64,0,0,1,2.51,2.39c.8,2.322,2.071,4.411,3,6.664.343,1.571.616,2.974,1.047,4.518.163.41.07,1.2.71,1.137.178-1.728.521-3.391.545-5.188a6.747,6.747,0,0,0-2.027-1.522v-.16c.093-.384.414-.844.888-.771.2-.228.821-.455.548-.865-1.185-1.182-1.117-3.217-3-3.584a1.724,1.724,0,0,1-.889-1.59,5.43,5.43,0,0,0-3.332-1.029Z" style="fill:#fff;fill-rule:evenodd"/><path d="M326.259,70.236c1.158,1.067.752,2.616.659,4.051-.18.865.91.359,1.253.819.709,1.045.3,2.572.049,3.707a22.059,22.059,0,0,0,1.8-2.778c-.019-.385.48-.569.458-1.048.2-.659-.57-.363-.891-.431-.272-.068-.567-.25-.474-.615.586-1.138.043-2.5-.185-3.639-.273-.934.116-2.186-.322-3.005C327.872,68.3,325.706,68.529,326.259,70.236Z" style="fill:#fff;fill-rule:evenodd"/><path d="M328.373,54.083c2.03,2.05,3.51,4.106,5.7,6.088a24.562,24.562,0,0,0-.112-2.572,6.013,6.013,0,0,0-1.417-1.527c-1.616-.156-2.458-2.332-4.167-1.989Z" style="fill:#fff;fill-rule:evenodd"/><path d="M333.677,64.924a3.1,3.1,0,0,0,.233.591,29.928,29.928,0,0,1,2.347,4.529c-.185-1.685.954-3.776-.553-5.074-.2-.549-.881-.365-1.319-.321l-.708.275Z" style="fill:#fff;fill-rule:evenodd"/><path d="M339.146,81.544c.637.3,1.457-.226,2.073-.591a1.879,1.879,0,0,1,1.482.479c.181.362,0,.7.069,1.048a13.826,13.826,0,0,1,3.913,1.682l.385-.386a2.68,2.68,0,0,0-1.412-2.232c-.475-.273-1.185-.112-1.524-.545a2.366,2.366,0,0,0,.2-1.32,3.3,3.3,0,0,1-1.842-.591c-.39-.114-.733-.435-1.052,0-1.137.771-1.2,1.911-2.3,2.456Z" style="fill:#fff;fill-rule:evenodd"/><path d="M340.745,52.914a4.127,4.127,0,0,0,1.638-.732c1.528-1.388,3.735-.455,5.515-.477a12.493,12.493,0,0,0-1.256-1.753,5.265,5.265,0,0,0-1.959-.544c-1.551-.912-2.595.615-3.783,1.364a2.516,2.516,0,0,0-.155,2.142Z" style="fill:#fff;fill-rule:evenodd"/><path d="M340.784,57.6c0-.071,0-.141.068-.158.209.179-.022.617.321.7a13.374,13.374,0,0,0,1.684-1.092c1.526,0,2.439-1.481,3.938-1.481a22.806,22.806,0,0,1,7.175,2.184,4.924,4.924,0,0,0-2.731-3.48,1.871,1.871,0,0,0-1.823.548c-1.523.957-.727-1.389-1.8-1.435a11.276,11.276,0,0,1-4.376.771c-.91.345-1.55,1.184-2.575,1.091A5.947,5.947,0,0,0,340.784,57.6Z" style="fill:#fff;fill-rule:evenodd"/><path d="M341.835,62.67c.477.506,1.273.413,1.959.506l1.981-.778c.022-.358-.591-.455-.455-.863.548-.615,1.3-.18,1.981-.431.954-.138,1.935-1.089,2.892-.389-.03.117.041.273-.049.389-.3.7.2,1.138.752,1.411,1.117.2,2.161,1.23,3.278.77a20.474,20.474,0,0,0-.589-2.684c-.934-.158-1.6-.931-2.46-1.252a1.864,1.864,0,0,1-1.368.591c-1.755-.411-3.853-1.5-5.627-.387-.638.776-1.777.547-2.643.888A10.315,10.315,0,0,0,341.835,62.67Z" style="fill:#fff;fill-rule:evenodd"/><path d="M342.587,76.2c-.136.387-.523,1.022.185,1.206,1.455.044,3.325-.707,4.464.431.387.3.2.911.177,1.3l1.913,1.592a16.788,16.788,0,0,0,.553-2.847,3.19,3.19,0,0,0-1.164-1.908c-1.255,0-1.981-1.466-3.329-1.286-.7-.156-1.319.469-2.027.469a11.92,11.92,0,0,0-.772,1.045Z" style="fill:#fff;fill-rule:evenodd"/><path d="M343.132,65.468c.3.616.64,1.617,1.207,1.683a6.505,6.505,0,0,1,4.807-.314c.5.088.5.657.39,1.021.771.455,1.706.82,2.526,1.318l-.229-1.366c-.046-1.478-1.91-1.612-2.027-3.071a9,9,0,0,0-4.851-.272c-.523.476-1.278.413-1.91.547-.047.182.063.3.087.454Z" style="fill:#fff;fill-rule:evenodd"/><path d="M343.519,72.842c.889-.252,1.46-1.227,2.417-1.32a4.466,4.466,0,0,1,3.668,1.872c.545.358.43,1.291,1.139,1.291a22.026,22.026,0,0,1,.109-3.277c-.951-1.59-3.322-.36-4.21-2.229l-1.684.114c-1.21.3-.889,1.709-1.047,2.667-.139.292-.411.52-.392.882Z" style="fill:#fff;fill-rule:evenodd"/><path d="M351.882,82.8c.7,1.41,2.256,2.48,2.412,4.094a7.5,7.5,0,0,0,.864-1.41c-.025-.455-.548-.455-.75-.819-.209-.591.11-1.114.2-1.639a4.473,4.473,0,0,0-1.8-2.14l-.929,1.914Z" style="fill:#fff;fill-rule:evenodd"/><path d="M354.683,79.2l1.638,2.232a5.878,5.878,0,0,0,.431-4.1c-.156-.253-.455-.661-.862-.476C355.275,77.493,355.182,78.473,354.683,79.2Z" style="fill:#fff;fill-rule:evenodd"/><path d="M348.007,16.922a4.763,4.763,0,0,0,1.872.615,2.354,2.354,0,0,1,1.684-.273c.842.547,1.867-.114,2.847-.068a10.577,10.577,0,0,0-2.847-1.8C350.285,15.667,349.263,16.579,348.007,16.922Z" style="fill:#fff;fill-rule:evenodd"/><path d="M356.912,19.056c1.208.115,2.077,1.184,2.892,2.072a4.055,4.055,0,0,1,2.412,1.636l-.382-1.2a7.776,7.776,0,0,0-1.8-3.1A9,9,0,0,0,356.912,19.056Z" style="fill:#fff;fill-rule:evenodd"/><path d="M271.916,9.078l.662.071c1.772.887,4.641,1.342,4.807,3.912a13.97,13.97,0,0,0-4.97,3.117c-1.09-1.114-3.3-.5-3.668-2.456C269.093,11.874,269.75,9.553,271.916,9.078Z" style="fill:#f60;fill-rule:evenodd"/><path d="M273.627,20.617c2.074-.185,4.077.109,6.219-.07a2.725,2.725,0,0,1,1.319,1.2c-.071,2.458-.821,4.8-.932,7.328a3.362,3.362,0,0,0-2.077,2.183A17.955,17.955,0,0,0,275.74,32.4a2.419,2.419,0,0,1,.345-2.572c.889-1.249,3.191-.958,3.008-2.937.592-.953.025-2.183.042-3.182-.226-.754-.455.25-.818.226a2.959,2.959,0,0,1-2.117-.163c-.48-.5-1.066-.912-1.208-1.59a3.726,3.726,0,0,1-1.708-1.478l.343-.083Z" style="fill:#f60;fill-rule:evenodd"/><path d="M276.132,35.445c.973.141,2-.3,2.845.185-.178.321-.66.455-1.047.547l-1.528.7C275.835,36.746,276.153,35.834,276.132,35.445Z" style="fill:#f60;fill-rule:evenodd"/><path d="M280.116,16.45c.976-.319,2.027-.975,3.074-.661a14.856,14.856,0,0,0-1.911,2.64l-3.12-.068A4.42,4.42,0,0,1,280.116,16.45Z" style="fill:#f60;fill-rule:evenodd"/><path d="M289.25,15.7c1.3-.226,1.226,1.456,2.412,1.52.209.272.506.522.389.933a19.447,19.447,0,0,1-2.46.319c-1.028-.569-.363-2.344-1.982-2.23-.09-.138-.27-.411-.046-.5A3.853,3.853,0,0,1,289.25,15.7Z" style="fill:#f60;fill-rule:evenodd"/><path d="M288.43,21.794a3.106,3.106,0,0,1,2.256-1.021l5.9.109c.251.231-.228.435-.228.708-.363.342-.889.435-1.208.751-.774.022-.7.933-1.251,1.322-.844.842-2.076.453-3.054.319a2.677,2.677,0,0,1-.891-.98l-.272.272c.343,1.277.253,2.687.506,3.983l1.411.933c.022,2.091,2.483,1.522,3.551,2.684a6.248,6.248,0,0,1-1.3,2.026,7.719,7.719,0,0,0-2.891-1.753c-.093-1.223-1.436-1.955-2.183-2.568-.21-2.232-.253-4.507-.616-6.668Z" style="fill:#f60;fill-rule:evenodd"/><path d="M290.571,35.834h2.736l-.343,1.432-2.738-1.16c-.064-.226.185-.294.345-.272Z" style="fill:#f60;fill-rule:evenodd"/><path d="M295.49,10.058l2.028-.637a20.567,20.567,0,0,1,3.324,2,8.007,8.007,0,0,1,.319,5.368c-.616.681-1.959,0-2.458,1.092h-.095a9.955,9.955,0,0,0-4.873-5.025,4.213,4.213,0,0,1,1.755-2.8Z" style="fill:#f60;fill-rule:evenodd"/></svg>