<svg xmlns="http://www.w3.org/2000/svg" viewBox="0 0 195.522 114.925"><title>La Trobe financial</title><rect x="10.312" y="17.404" width="180.641" height="87.756" style="fill:#0054a4"/><rect x="11.398" y="71.449" width="178.469" height="32.631" style="fill:#fff"/><rect x="11.398" y="18.484" width="178.469" height="52.955" style="fill:#0054a4"/><path d="M25.659,84.221v-.637a5.726,5.726,0,0,1,1.1-3.832,3.359,3.359,0,0,1,2.622-1.261,7.1,7.1,0,0,1,1.563.209v2.059a2.855,2.855,0,0,0-.973-.185,1.986,1.986,0,0,0-1.718.661,4.176,4.176,0,0,0-.48,2.349v.637h1.9v1.9h-1.9v8.752H25.659V86.121H24.131v-1.9Z" style="fill:#8093c9"/><path d="M42.3,79.741a1.235,1.235,0,0,1,.89.359,1.178,1.178,0,0,1,.372.88A1.267,1.267,0,0,1,42.3,82.23a1.169,1.169,0,0,1-.859-.377,1.2,1.2,0,0,1,0-1.736A1.176,1.176,0,0,1,42.3,79.741Zm-1.043,4.48h2.107V94.873H41.254Z" style="fill:#8093c9"/><path d="M58.377,84.221v1.355a4.238,4.238,0,0,1,3.207-1.563,3.518,3.518,0,0,1,1.851.516,3.354,3.354,0,0,1,1.3,1.412,6.776,6.776,0,0,1,.445,2.843v6.089H63.078V88.806a4.141,4.141,0,0,0-.5-2.332,1.9,1.9,0,0,0-1.667-.7,3.035,3.035,0,0,0-2.535,1.494v7.606H56.224V84.221Z" style="fill:#8093c9"/><path d="M84.681,88.471V93c0,.364.124.543.369.543a2.537,2.537,0,0,0,1.193-.566v1.285a6.932,6.932,0,0,1-1.15.632,2.528,2.528,0,0,1-.91.168q-1.355,0-1.6-1.065a4.588,4.588,0,0,1-2.859,1.041,2.528,2.528,0,0,1-1.853-.735,2.492,2.492,0,0,1-.741-1.846,2.6,2.6,0,0,1,.724-1.8A4.892,4.892,0,0,1,79.91,89.4l2.7-.926V87.9a1.7,1.7,0,0,0-1.923-1.922,4.625,4.625,0,0,0-3.356,1.783V85.46a4.373,4.373,0,0,1,3.531-1.447,4.078,4.078,0,0,1,2.768.9,2.868,2.868,0,0,1,.624.771,2.766,2.766,0,0,1,.353.96A14.229,14.229,0,0,1,84.681,88.471Zm-2.073,4.294v-3.16l-1.413.545a4.725,4.725,0,0,0-1.52.862,1.556,1.556,0,0,0-.026,2.158,1.491,1.491,0,0,0,1.095.417A2.644,2.644,0,0,0,82.608,92.765Z" style="fill:#8093c9"/><path d="M100.079,84.221v1.355a4.238,4.238,0,0,1,3.206-1.563,3.53,3.53,0,0,1,1.853.516,3.358,3.358,0,0,1,1.3,1.412,6.776,6.776,0,0,1,.445,2.843v6.089h-2.108V88.806a4.161,4.161,0,0,0-.5-2.332,1.9,1.9,0,0,0-1.667-.7,3.034,3.034,0,0,0-2.536,1.494v7.606H97.925V84.221Z" style="fill:#8093c9"/><path d="M127.677,92.382v2.084a8.8,8.8,0,0,1-3.1.593,5.113,5.113,0,0,1-5.474-5.454,5.681,5.681,0,0,1,1.445-4.051,4.987,4.987,0,0,1,3.809-1.541,6.453,6.453,0,0,1,1.478.156,9.681,9.681,0,0,1,1.613.585V87a5.6,5.6,0,0,0-2.963-1.018,3.024,3.024,0,0,0-2.339,1,3.64,3.64,0,0,0-.914,2.553,3.441,3.441,0,0,0,.991,2.591,3.666,3.666,0,0,0,2.669.961A6.926,6.926,0,0,0,127.677,92.382Z" style="fill:#8093c9"/><path d="M141.027,79.741a1.24,1.24,0,0,1,.892.359,1.18,1.18,0,0,1,.37.88,1.205,1.205,0,0,1-.37.88,1.218,1.218,0,0,1-.892.37,1.166,1.166,0,0,1-.858-.377,1.2,1.2,0,0,1,0-1.736A1.172,1.172,0,0,1,141.027,79.741Zm-1.043,4.48h2.108V94.873h-2.108Z" style="fill:#8093c9"/><path d="M161.691,88.471V93c0,.364.124.543.371.543a2.545,2.545,0,0,0,1.193-.566v1.285a6.858,6.858,0,0,1-1.153.632,2.515,2.515,0,0,1-.909.168q-1.352,0-1.6-1.065a4.592,4.592,0,0,1-2.862,1.041,2.526,2.526,0,0,1-1.851-.735,2.492,2.492,0,0,1-.741-1.846,2.608,2.608,0,0,1,.723-1.8,4.909,4.909,0,0,1,2.055-1.255l2.7-.926V87.9a1.7,1.7,0,0,0-1.921-1.922,4.629,4.629,0,0,0-3.358,1.783V85.46a4.373,4.373,0,0,1,3.531-1.447,4.079,4.079,0,0,1,2.767.9,2.875,2.875,0,0,1,.627.771,2.8,2.8,0,0,1,.352.96A14.349,14.349,0,0,1,161.691,88.471Zm-2.072,4.294v-3.16l-1.412.545a4.746,4.746,0,0,0-1.523.862,1.555,1.555,0,0,0-.021,2.158,1.481,1.481,0,0,0,1.092.417A2.64,2.64,0,0,0,159.619,92.765Z" style="fill:#8093c9"/><path d="M175.028,78.7h2.107V94.873h-2.107Z" style="fill:#8093c9"/><path d="M23.746,29.257h4.459V56.349H42.23v4.058H23.746Z" style="fill:#fff"/><path d="M71.1,29.213h26.02v3.969H86.257V60.407H81.774V33.182H71.1Z" style="fill:#fff"/><path d="M99.412,39.893V44.6l.224-.358q2.943-4.748,5.886-4.749a7.261,7.261,0,0,1,4.794,2.319l-2.141,3.567a6.008,6.008,0,0,0-3.924-2.006,4.2,4.2,0,0,0-3.4,1.873,7.072,7.072,0,0,0-1.439,4.437V60.407h-4.08V39.893Z" style="fill:#fff"/><path d="M121.82,39.849a10.693,10.693,0,0,1,7.781,3.022,10.154,10.154,0,0,1,3.1,7.592,9.651,9.651,0,0,1-3.143,7.368,11.152,11.152,0,0,1-7.916,2.933,10.7,10.7,0,0,1-7.715-2.976,10.511,10.511,0,0,1,.033-14.94A10.912,10.912,0,0,1,121.82,39.849Zm-.222,3.656a6.409,6.409,0,0,0-4.794,1.918,6.7,6.7,0,0,0-1.873,4.884,6.4,6.4,0,0,0,1.918,4.805,6.778,6.778,0,0,0,4.927,1.862,6.666,6.666,0,0,0,4.894-1.885,6.975,6.975,0,0,0-.078-9.666A6.9,6.9,0,0,0,121.6,43.505Z" style="fill:#fff"/><path d="M137.027,29.257h4.059V41.365a9.364,9.364,0,0,1,5.618-1.918,7.95,7.95,0,0,1,6.378,2.944,11.347,11.347,0,0,1,2.475,7.559,10.6,10.6,0,0,1-2.955,7.881,10.723,10.723,0,0,1-7.9,2.933,22.115,22.115,0,0,1-4.18-.424,13.818,13.818,0,0,1-3.491-1.07Zm4.059,15.988v11.1a14.7,14.7,0,0,0,4.259.625,5.623,5.623,0,0,0,4.4-1.918,7.134,7.134,0,0,0,1.706-4.928,7.516,7.516,0,0,0-1.595-4.972,5.145,5.145,0,0,0-4.158-1.918A7.161,7.161,0,0,0,141.086,45.245Z" style="fill:#fff"/><path d="M177.519,50.507H163.093a6.692,6.692,0,0,0,1.972,4.682,6.516,6.516,0,0,0,4.7,1.74,12.213,12.213,0,0,0,7.4-2.5V58.4a13.555,13.555,0,0,1-3.714,1.783,15.493,15.493,0,0,1-4.313.536,9.679,9.679,0,0,1-5.486-1.406,10.22,10.22,0,0,1-3.356-3.779,11.565,11.565,0,0,1-1.259-5.5,10.908,10.908,0,0,1,2.654-7.614,8.861,8.861,0,0,1,6.89-2.932,8.115,8.115,0,0,1,6.51,2.854A11.4,11.4,0,0,1,177.519,50Zm-14.336-2.43h10.324a5.682,5.682,0,0,0-1.45-3.747,4.657,4.657,0,0,0-3.478-1.315A5.005,5.005,0,0,0,165,44.33,6.515,6.515,0,0,0,163.183,48.077Z" style="fill:#fff"/><path d="M56.143,49.549V46.642q0-2.7-1.014-3.728a4.9,4.9,0,0,0-3.68-1.407q-3.111,0-3.113,2.619a6.214,6.214,0,0,0,.307,1.778,3.067,3.067,0,0,1,.166.748q.023.421-.469.421a4.251,4.251,0,0,1-2-.472q-.9-.471-.9-1.038a4.835,4.835,0,0,1,1.581-3.146,7.337,7.337,0,0,1,5.636-2.278,7.744,7.744,0,0,1,4.977,1.425A4.865,4.865,0,0,1,59.4,45.58v9.233a6.676,6.676,0,0,0,.531,3.121,1.881,1.881,0,0,0,1.78.931,3.135,3.135,0,0,0,.566-.041,3.161,3.161,0,0,1,.566-.1c.267-.015.392.094.378.33q-.026.425-1.113.861a5.7,5.7,0,0,1-2.129.437q-1.94,0-3.5-2.406a10.741,10.741,0,0,1-6.332,2.594,5.022,5.022,0,0,1-3.519-1.191,4.111,4.111,0,0,1-1.307-3.2,4.683,4.683,0,0,1,2.471-4.209Q50.258,50.446,56.143,49.549Zm0,.944a12.186,12.186,0,0,0-5.649,1.653A3.949,3.949,0,0,0,48.5,55.535a3.275,3.275,0,0,0,3.516,3.518,4.574,4.574,0,0,0,3.3-1.289,3.553,3.553,0,0,0,.821-2.6Z" style="fill:#fff"/></svg>