<svg xmlns="http://www.w3.org/2000/svg" viewBox="0 0 280 100"><title>La Trobe financial</title><rect x="67.954" y="15" width="144.091" height="70" style="fill:#0054a4"/><rect x="68.821" y="58.11" width="142.359" height="26.029" style="fill:#fff"/><path d="M81.074,64.733A4.564,4.564,0,0,0,80.2,67.79V68.3H78.977v1.515H80.2v6.981h1.686V69.813H83.4V68.3H81.882V67.79a3.334,3.334,0,0,1,.383-1.874,1.587,1.587,0,0,1,1.371-.527,2.263,2.263,0,0,1,.776.147V63.894a5.637,5.637,0,0,0-1.247-.167A2.675,2.675,0,0,0,81.074,64.733Z" style="fill:#8093c9"/><path d="M93.47,64.724a.936.936,0,0,0-.685.3c-.01.01-.022.02-.031.031l0,0a.957.957,0,0,0,.034,1.353.933.933,0,0,0,.685.3,1.011,1.011,0,0,0,1.007-1,.939.939,0,0,0-.3-.7A.985.985,0,0,0,93.47,64.724Z" style="fill:#8093c9"/><rect x="92.637" y="68.298" width="1.682" height="8.497" style="fill:#8093c9"/><path d="M110.329,68.543a2.809,2.809,0,0,0-1.477-.411,3.384,3.384,0,0,0-2.558,1.246V68.3h-1.717v8.5H106.3V70.727a2.42,2.42,0,0,1,2.022-1.192,1.518,1.518,0,0,1,1.33.558,3.3,3.3,0,0,1,.4,1.86v4.841h1.675V71.937a5.413,5.413,0,0,0-.355-2.267A2.68,2.68,0,0,0,110.329,68.543Z" style="fill:#8093c9"/><path d="M127.276,75.3V71.688a11.39,11.39,0,0,0-.057-1.454,2.208,2.208,0,0,0-.282-.765,2.279,2.279,0,0,0-.5-.615,3.247,3.247,0,0,0-2.208-.718,3.485,3.485,0,0,0-2.816,1.154v1.835a3.689,3.689,0,0,1,2.677-1.423,1.356,1.356,0,0,1,1.534,1.533v.458l-2.154.739a3.906,3.906,0,0,0-1.642,1,2.074,2.074,0,0,0-.577,1.435,1.987,1.987,0,0,0,.591,1.473,2.021,2.021,0,0,0,1.478.586,3.661,3.661,0,0,0,2.281-.83q.2.849,1.276.849a2,2,0,0,0,.726-.134,5.45,5.45,0,0,0,.917-.5V75.285a2.024,2.024,0,0,1-.952.452C127.375,75.737,127.276,75.594,127.276,75.3Zm-1.65-.191a2.112,2.112,0,0,1-1.487.655,1.188,1.188,0,0,1-.874-.333,1.242,1.242,0,0,1,.021-1.721,3.763,3.763,0,0,1,1.213-.688l1.127-.435Z" style="fill:#8093c9"/><path d="M143.594,68.543a2.812,2.812,0,0,0-1.478-.411,3.382,3.382,0,0,0-2.558,1.246V68.3H137.84v8.5h1.713V70.727a2.421,2.421,0,0,1,2.023-1.192,1.518,1.518,0,0,1,1.33.558,3.32,3.32,0,0,1,.4,1.86v4.841h1.682V71.937a5.413,5.413,0,0,0-.355-2.267A2.68,2.68,0,0,0,143.594,68.543Z" style="fill:#8093c9"/><path d="M157.223,74.606a2.743,2.743,0,0,1-.791-2.066,2.907,2.907,0,0,1,.729-2.037,2.412,2.412,0,0,1,1.866-.8,4.468,4.468,0,0,1,2.364.812v-1.8a7.762,7.762,0,0,0-1.287-.467,5.14,5.14,0,0,0-1.179-.124,3.978,3.978,0,0,0-3.038,1.229,4.531,4.531,0,0,0-1.153,3.231,4.333,4.333,0,0,0,0,.581,4.08,4.08,0,0,0,4.366,3.77,7.022,7.022,0,0,0,2.473-.473V74.807a5.521,5.521,0,0,1-2.221.566A2.918,2.918,0,0,1,157.223,74.606Z" style="fill:#8093c9"/><path d="M172.221,64.724a.935.935,0,0,0-.684.3l-.031.031,0,0a.957.957,0,0,0,.034,1.353.93.93,0,0,0,.684.3,1.008,1.008,0,0,0,1.007-1,.941.941,0,0,0-.3-.7A.992.992,0,0,0,172.221,64.724Z" style="fill:#8093c9"/><rect x="171.389" y="68.298" width="1.682" height="8.497" style="fill:#8093c9"/><path d="M188.7,75.3V71.688a11.387,11.387,0,0,0-.064-1.454,2.226,2.226,0,0,0-.281-.765,2.286,2.286,0,0,0-.5-.615,3.252,3.252,0,0,0-2.207-.718,3.488,3.488,0,0,0-2.817,1.154v1.835a3.694,3.694,0,0,1,2.679-1.423,1.422,1.422,0,0,1,.38,0,1.357,1.357,0,0,1,1.152,1.533v.458l-2.154.739a3.908,3.908,0,0,0-1.635,1,2.085,2.085,0,0,0-.577,1.435,1.987,1.987,0,0,0,.591,1.473,2.017,2.017,0,0,0,1.477.586,3.667,3.667,0,0,0,2.283-.83q.2.849,1.276.849a1.975,1.975,0,0,0,.725-.134,5.478,5.478,0,0,0,.92-.5V75.285a2.024,2.024,0,0,1-.952.452C188.8,75.737,188.7,75.594,188.7,75.3Zm-1.652-.192a2.109,2.109,0,0,1-1.487.656,1.18,1.18,0,0,1-.871-.333,1.24,1.24,0,0,1,.016-1.721,3.783,3.783,0,0,1,1.215-.688l1.127-.435Z" style="fill:#8093c9"/><rect x="199.343" y="63.897" width="1.681" height="12.897" style="fill:#8093c9"/><polygon points="82.227 24.455 78.67 24.455 78.67 49.3 93.414 49.3 93.414 46.065 82.227 46.065 82.227 24.455" style="fill:#fff"/><polygon points="137.198 24.42 116.443 24.42 116.443 27.586 124.957 27.586 124.957 49.3 128.533 49.3 128.533 27.586 137.198 27.586 137.198 24.42" style="fill:#fff"/><path d="M139.205,36.411l-.179.286V32.939h-3.254V49.3h3.254V40.748a5.642,5.642,0,0,1,1.145-3.539,3.349,3.349,0,0,1,2.712-1.494,4.784,4.784,0,0,1,3.13,1.6l1.708-2.846a5.793,5.793,0,0,0-3.821-1.846Q141.553,32.623,139.205,36.411Z" style="fill:#fff"/><path d="M156.9,32.9a8.7,8.7,0,0,0-6.27,2.392l-.061.06h0a8.384,8.384,0,0,0,.035,11.857,8.535,8.535,0,0,0,6.154,2.374,8.9,8.9,0,0,0,6.314-2.34,7.7,7.7,0,0,0,2.507-5.877,8.1,8.1,0,0,0-2.473-6.056A8.527,8.527,0,0,0,156.9,32.9Zm3.868,12.156a5.315,5.315,0,0,1-3.9,1.5,5.412,5.412,0,0,1-3.93-1.486,5.106,5.106,0,0,1-1.53-3.832,5.346,5.346,0,0,1,1.494-3.9,5.111,5.111,0,0,1,3.824-1.53h0a5.5,5.5,0,0,1,3.982,1.53A5.564,5.564,0,0,1,160.769,45.06Z" style="fill:#fff"/><path d="M176.75,32.583a7.467,7.467,0,0,0-4.482,1.53V24.455h-3.237l0,23.94a10.994,10.994,0,0,0,2.785.854,17.685,17.685,0,0,0,3.334.338,8.555,8.555,0,0,0,6.3-2.34,8.45,8.45,0,0,0,2.357-6.286,9.053,9.053,0,0,0-1.974-6.03A6.343,6.343,0,0,0,176.75,32.583Zm2.425,12.448a4.483,4.483,0,0,1-3.509,1.529,11.709,11.709,0,0,1-3.4-.5V37.208a5.712,5.712,0,0,1,3.679-1.6,4.1,4.1,0,0,1,3.317,1.53,5.988,5.988,0,0,1,1.272,3.966A5.688,5.688,0,0,1,179.175,45.031Z" style="fill:#fff"/><path d="M199.393,34.9a6.472,6.472,0,0,0-5.193-2.276,7.067,7.067,0,0,0-5.5,2.339,8.7,8.7,0,0,0-2.117,6.073,9.229,9.229,0,0,0,1.005,4.387,8.154,8.154,0,0,0,2.677,3.015,7.724,7.724,0,0,0,4.376,1.121,12.367,12.367,0,0,0,3.44-.427,10.836,10.836,0,0,0,2.962-1.423V44.531a9.736,9.736,0,0,1-5.9,1.994,5.2,5.2,0,0,1-3.749-1.388,5.335,5.335,0,0,1-1.573-3.734H201.33V41A9.1,9.1,0,0,0,199.393,34.9Zm-9.5,4.569a5.19,5.19,0,0,1,1.453-2.988,3.99,3.99,0,0,1,2.855-1.049,3.712,3.712,0,0,1,2.774,1.049,4.53,4.53,0,0,1,1.157,2.988Z" style="fill:#fff"/><path d="M109.857,47.96a2.561,2.561,0,0,0-.452.079,2.433,2.433,0,0,1-.451.033,1.5,1.5,0,0,1-1.42-.743,5.324,5.324,0,0,1-.424-2.489V37.475a3.88,3.88,0,0,0-1.408-3.2,6.172,6.172,0,0,0-3.97-1.137,5.852,5.852,0,0,0-4.5,1.817,3.855,3.855,0,0,0-1.261,2.509q0,.453.718.828a3.376,3.376,0,0,0,1.595.377c.262,0,.386-.112.374-.336a2.5,2.5,0,0,0-.132-.6,4.954,4.954,0,0,1-.245-1.418q0-2.09,2.483-2.089a3.909,3.909,0,0,1,2.935,1.122,4.22,4.22,0,0,1,.809,2.974v2.319a19.394,19.394,0,0,0-6.661,1.907,3.738,3.738,0,0,0-1.971,3.358,3.279,3.279,0,0,0,1.042,2.552,4.005,4.005,0,0,0,2.807.95,8.561,8.561,0,0,0,5.051-2.069,3.451,3.451,0,0,0,2.792,1.919,4.541,4.541,0,0,0,1.7-.348q.869-.348.888-.687C110.169,48.035,110.07,47.948,109.857,47.96ZM104.5,45.12a2.829,2.829,0,0,1-.655,2.074,3.647,3.647,0,0,1-2.632,1.028,2.67,2.67,0,0,1-.4,0,2.611,2.611,0,0,1-2.4-2.806,3.146,3.146,0,0,1,1.59-2.7,9.715,9.715,0,0,1,4.506-1.319Z" style="fill:#fff"/></svg>