<svg xmlns="http://www.w3.org/2000/svg" viewBox="0 0 280 100"><title>LoanAve Mortgage Management</title><path d="M153.152,54.171V43.65a10.357,10.357,0,0,0-.674-3.532,6.733,6.733,0,0,0-1.84-2.859,8.476,8.476,0,0,0-4.149-1.918,37.734,37.734,0,0,0-6.6-.46,27.847,27.847,0,0,0-4.755.381,11.242,11.242,0,0,0-3.454,1.076A7.861,7.861,0,0,0,129,38.615a9.774,9.774,0,0,0-1.424,3.6l8.726.921a3.941,3.941,0,0,1,1.414-2.111,6.318,6.318,0,0,1,3.365-.718,3.5,3.5,0,0,1,2.444.673,3.208,3.208,0,0,1,.7,2.355,30.884,30.884,0,0,1-3.231,1.088q-1.525.416-6.662,1.447-4.285.851-5.878,2.6a6.384,6.384,0,0,0-1.591,4.464,6.27,6.27,0,0,0,2.209,4.868q2.21,1.974,6.471,1.974a14.833,14.833,0,0,0,5.63-.987,11.824,11.824,0,0,0,3.567-2.467,10.462,10.462,0,0,0,.314,1.514,8.9,8.9,0,0,0,.673,1.4h8.57a11.774,11.774,0,0,1-.932-2.433A12.73,12.73,0,0,1,153.152,54.171Zm-9.477-2.005a4.486,4.486,0,0,1-1.862,1.8,5.679,5.679,0,0,1-2.838.741,3.176,3.176,0,0,1-2.209-.684c-.051-.047-.1-.1-.146-.147a2.334,2.334,0,0,1,.158-3.3,9.016,9.016,0,0,1,3.52-1.46q2.041-.515,3.926-1.189V49.4A6.054,6.054,0,0,1,143.675,52.166Z" style="fill:#c41230"/><polygon points="171.347 35.419 166.551 50.515 161.929 35.419 152.43 35.419 162.338 59.242 170.435 59.242 180.561 35.419 171.347 35.419" style="fill:#c41230"/><path d="M200.373,36.428a17.592,17.592,0,0,0-8.076-1.547q-6.3,0-9.879,3.456a11.992,11.992,0,0,0-3.579,9.039,12.8,12.8,0,0,0,1.785,6.831,10.91,10.91,0,0,0,4.5,4.239,17.115,17.115,0,0,0,7.447,1.336q5.452,0,8.368-1.56a12.883,12.883,0,0,0,4.979-5.148l-9-.83a6,6,0,0,1-1.594,1.5,5.2,5.2,0,0,1-2.557.672,4.328,4.328,0,0,1-3.456-1.547,5.9,5.9,0,0,1-1.189-3.276h18.3l0-1.032a16.43,16.43,0,0,0-1.547-7.65A10.459,10.459,0,0,0,200.373,36.428Zm-12.226,8.793a6.315,6.315,0,0,1,1.055-3.207c.065-.084.134-.166.205-.245h0a4.469,4.469,0,0,1,6.31-.337,6.1,6.1,0,0,1,1.424,3.79Z" style="fill:#c41230"/><polygon points="211.981 25 208.231 28.75 226.891 47.409 208.231 66.067 211.981 69.817 234.389 47.409 211.981 25" style="fill:#c41230"/><rect x="32.017" y="26.357" width="9.153" height="32.885" style="fill:#231f20"/><path d="M47.365,56.864a14.14,14.14,0,0,0,9.286,2.917q6.438,0,10.083-3.512a11.956,11.956,0,0,0,3.645-9.006,12.029,12.029,0,0,0-2.938-8.233q-3.657-4.151-10.813-4.15-6.258,0-9.937,3.533A11.914,11.914,0,0,0,43.012,47.4,11.7,11.7,0,0,0,47.365,56.864Zm6.1-14.166a4.135,4.135,0,0,1,3.3-1.536,3.983,3.983,0,0,1,3.163,1.513,7.024,7.024,0,0,1,1.278,4.61q0,3.32-1.267,4.822a4.224,4.224,0,0,1-6.483-.022,7.183,7.183,0,0,1-1.29-4.711h0A7.109,7.109,0,0,1,53.465,42.7Z" style="fill:#231f20"/><path d="M78.559,45.87q-4.282.851-5.877,2.6a6.381,6.381,0,0,0-1.593,4.464A6.272,6.272,0,0,0,73.3,57.8q2.211,1.974,6.472,1.974a14.861,14.861,0,0,0,5.631-.987,11.842,11.842,0,0,0,3.567-2.467,10.594,10.594,0,0,0,.313,1.514,8.853,8.853,0,0,0,.673,1.4h8.57a11.885,11.885,0,0,1-.931-2.433,12.663,12.663,0,0,1-.213-2.636V43.65a10.326,10.326,0,0,0-.673-3.531,6.721,6.721,0,0,0-1.84-2.86,8.467,8.467,0,0,0-4.149-1.918,37.741,37.741,0,0,0-6.6-.46,27.835,27.835,0,0,0-4.754.381,11.262,11.262,0,0,0-3.456,1.076,7.869,7.869,0,0,0-2.68,2.277,9.825,9.825,0,0,0-1.425,3.6l8.727.921a3.935,3.935,0,0,1,1.413-2.109,6.334,6.334,0,0,1,3.366-.718,3.5,3.5,0,0,1,2.443.671,3.208,3.208,0,0,1,.7,2.355,30.867,30.867,0,0,1-3.23,1.088Q83.7,44.839,78.559,45.87Zm9.892,2.066v1.457a6.053,6.053,0,0,1-.549,2.771,4.488,4.488,0,0,1-1.863,1.8,5.675,5.675,0,0,1-2.837.741,3.178,3.178,0,0,1-2.209-.684c-.049-.046-.1-.093-.141-.143a2.335,2.335,0,0,1,.152-3.3,9.047,9.047,0,0,1,3.524-1.459Q86.567,48.609,88.451,47.936Z" style="fill:#231f20"/><path d="M109.227,47.8q0-3.253,1.031-4.509a3.32,3.32,0,0,1,2.693-1.257,2.963,2.963,0,0,1,2.332.932,4.767,4.767,0,0,1,.83,3.174v13.1h9.175V44.1q0-4.711-2.142-6.965a7.8,7.8,0,0,0-5.933-2.254,10.133,10.133,0,0,0-4.756,1.02,12.667,12.667,0,0,0-3.859,3.4v-3.88h-8.5V59.242h9.131Z" style="fill:#231f20"/><path d="M41.015,63.857a2.871,2.871,0,0,0-2.771,1.787h-.03a2.621,2.621,0,0,0-2.771-1.787,3.033,3.033,0,0,0-3.1,1.7h-.029V64.1h-.3v7.629h.3V67.015c0-1.848,1.177-2.86,3.128-2.86a2.38,2.38,0,0,1,2.637,2.651v4.918h.3V66.807a2.5,2.5,0,0,1,2.637-2.652c2.741,0,3.129,1.49,3.129,2.771v4.8h.3v-4.8C44.441,65.466,43.935,63.857,41.015,63.857Z" style="fill:#231f20"/><path d="M49.819,63.857a4.055,4.055,0,1,0,0,8.1,4.055,4.055,0,1,0,0-8.1Zm0,7.806a3.757,3.757,0,1,1,0-7.508,3.757,3.757,0,1,1,0,7.508Z" style="fill:#231f20"/><path d="M55.823,66.151h-.03V64.1h-.3v7.629h.3V67.956c0-2.5,1.417-3.8,3.16-3.8a5.515,5.515,0,0,1,.655.045v-.3a5.7,5.7,0,0,0-.641-.045A3.15,3.15,0,0,0,55.823,66.151Z" style="fill:#231f20"/><path d="M62.691,70.309V64.393H64.91v-.3H62.691V61.473h-.3V64.1H60.575v.3h1.818v5.9c0,1.028.313,1.519,1.653,1.519a10.4,10.4,0,0,0,1.072-.074v-.3c-.356.029-.759.074-1.072.074C62.989,71.515,62.691,71.231,62.691,70.309Z" style="fill:#231f20"/><path d="M73.832,66.031H73.8c-.477-1.326-1.729-2.175-3.739-2.175-2.474,0-4.067,1.4-4.067,3.859s1.593,3.858,4.067,3.858A3.713,3.713,0,0,0,73.8,69.428h.028v2.041c0,2.325-1.384,3.233-3.663,3.233-2.771,0-3.352-1.072-3.546-2.265h-.3C66.579,74.717,68.574,75,70.214,75c2.413,0,3.918-1.057,3.918-3.516V64.1h-.3Zm-3.767,5.246c-2.309,0-3.77-1.236-3.77-3.561s1.46-3.56,3.77-3.56,3.768,1.206,3.768,3.56C73.833,69.951,72.448,71.277,70.065,71.277Z" style="fill:#231f20"/><path d="M82.773,70.783V65.837c0-1.341-1.043-1.981-3.455-1.981-1.937,0-3.262.506-3.368,2.547h.3c.12-1.624.878-2.249,3.069-2.249,2.071,0,3.158.462,3.158,1.7v.419c0,.922-.253,1.086-1.862,1.146l-2.517.09c-1.609.059-2.488.849-2.488,2.145,0,1.534,1.206,2.309,3.024,2.309,2.22,0,3.322-.894,3.814-1.907h.028v.909c0,.551.3.76.8.76a2.331,2.331,0,0,0,.7-.1l0-.3a2.952,2.952,0,0,1-.7.1C82.864,71.423,82.773,71.23,82.773,70.783Zm-4.127.88c-1.549,0-2.741-.626-2.741-2,0-1.058.641-1.8,2.22-1.862l2.324-.09c1.118-.045,1.833-.179,2-.462h.028l0,1.415C82.475,70.293,81.254,71.663,78.646,71.663Z" style="fill:#231f20"/><path d="M92.217,66.031h-.03c-.476-1.326-1.728-2.175-3.739-2.175-2.473,0-4.067,1.4-4.067,3.859s1.594,3.858,4.067,3.858a3.713,3.713,0,0,0,3.739-2.145h.03v2.041c0,2.325-1.386,3.233-3.665,3.233-2.77,0-3.352-1.072-3.546-2.265h-.3C84.963,74.717,86.958,75,88.6,75c2.412,0,3.917-1.057,3.917-3.516V64.1h-.3Zm-3.769,5.246c-2.309,0-3.77-1.236-3.77-3.561s1.461-3.56,3.77-3.56c2.324,0,3.769,1.206,3.769,3.56C92.217,69.951,90.831,71.277,88.448,71.277Z" style="fill:#231f20"/><path d="M98.191,63.857a4.055,4.055,0,1,0,0,8.1c2.875,0,3.71-1.817,3.947-2.889h-.3a3.359,3.359,0,0,1-3.649,2.591,3.628,3.628,0,0,1-3.9-3.754h7.971A3.881,3.881,0,0,0,98.191,63.857Zm0,.3a3.6,3.6,0,0,1,3.769,3.456H94.288A3.616,3.616,0,0,1,98.191,64.155Z" style="fill:#231f20"/><path d="M117.11,63.857a2.87,2.87,0,0,0-2.77,1.787h-.03a2.622,2.622,0,0,0-2.772-1.787,3.031,3.031,0,0,0-3.1,1.7h-.029V64.1h-.3v7.629h.3V67.015c0-1.848,1.176-2.86,3.128-2.86a2.379,2.379,0,0,1,2.636,2.651v4.918h.3V66.807a2.5,2.5,0,0,1,2.636-2.652c2.741,0,3.129,1.49,3.129,2.771v4.8h.3v-4.8C120.537,65.466,120.03,63.857,117.11,63.857Z" style="fill:#231f20"/><path d="M129.683,71.423c-.417,0-.507-.193-.507-.64V65.837c0-1.341-1.042-1.981-3.457-1.981-1.936,0-3.262.506-3.365,2.547h.3c.12-1.624.879-2.249,3.068-2.249,2.073,0,3.16.462,3.16,1.7v.419c0,.922-.252,1.086-1.861,1.146l-2.519.09c-1.609.059-2.489.849-2.489,2.145,0,1.534,1.207,2.309,3.024,2.309,2.22,0,3.323-.894,3.814-1.907h.03v.909c0,.551.3.76.805.76a2.344,2.344,0,0,0,.7-.1v-.3A2.96,2.96,0,0,1,129.683,71.423Zm-.806-2.755c0,1.625-1.22,2.995-3.828,2.995-1.549,0-2.74-.626-2.74-2,0-1.058.641-1.8,2.22-1.862l2.324-.09c1.117-.045,1.832-.179,2-.462h.03Z" style="fill:#231f20"/><path d="M135.239,63.857a3.369,3.369,0,0,0-3.441,1.951h-.028V64.1h-.3v7.629h.3V67.447c0-.983.3-3.292,3.47-3.292,2.741,0,3.129,1.489,3.129,2.77v4.8h.3v-4.8C138.666,65.466,138.159,63.857,135.239,63.857Z" style="fill:#231f20"/><path d="M147.815,71.423c-.419,0-.508-.193-.508-.64V65.837c0-1.341-1.043-1.981-3.456-1.981-1.937,0-3.263.506-3.367,2.547h.3c.119-1.624.878-2.249,3.068-2.249,2.071,0,3.158.462,3.158,1.7v.419c0,.922-.252,1.086-1.862,1.146l-2.518.09c-1.608.059-2.487.849-2.487,2.145,0,1.534,1.206,2.309,3.024,2.309,2.22,0,3.322-.894,3.814-1.907h.029v.909c0,.551.3.76.806.76a2.335,2.335,0,0,0,.7-.1v-.3A2.952,2.952,0,0,1,147.815,71.423Zm-.807-2.755c0,1.625-1.22,2.995-3.828,2.995-1.549,0-2.741-.626-2.741-2,0-1.058.642-1.8,2.22-1.862l2.324-.09c1.118-.045,1.833-.179,2-.462h.029Z" style="fill:#231f20"/><path d="M157.049,66.031h-.03c-.476-1.326-1.728-2.175-3.739-2.175-2.473,0-4.067,1.4-4.067,3.859s1.595,3.858,4.067,3.858a3.711,3.711,0,0,0,3.739-2.145h.031v2.041c0,2.325-1.385,3.233-3.665,3.233-2.771,0-3.352-1.072-3.546-2.265h-.3c.253,2.28,2.25,2.563,3.888,2.563,2.415,0,3.92-1.057,3.92-3.516V64.1h-.3Zm-3.768,5.246c-2.309,0-3.77-1.236-3.77-3.561s1.461-3.56,3.77-3.56,3.769,1.206,3.769,3.56C157.05,69.951,155.665,71.277,153.281,71.277Z" style="fill:#231f20"/><path d="M163.024,63.857a4.055,4.055,0,1,0,0,8.1c2.875,0,3.709-1.817,3.947-2.889h-.3a3.36,3.36,0,0,1-3.65,2.591,3.628,3.628,0,0,1-3.9-3.754h7.97A3.881,3.881,0,0,0,163.024,63.857Zm-3.9,3.754a3.857,3.857,0,0,1,7.672,0Z" style="fill:#231f20"/><path d="M177.414,63.857a2.871,2.871,0,0,0-2.77,1.787h-.03a2.62,2.62,0,0,0-2.77-1.787,3.031,3.031,0,0,0-3.1,1.7h-.03V64.1h-.3l0,7.629h.3V67.015c0-1.848,1.176-2.86,3.129-2.86a2.381,2.381,0,0,1,2.637,2.651v4.918h.295V66.807a2.5,2.5,0,0,1,2.637-2.652c2.742,0,3.129,1.49,3.129,2.771v4.8h.3v-4.8C180.84,65.466,180.335,63.857,177.414,63.857Z" style="fill:#231f20"/><path d="M186.517,63.857a4.055,4.055,0,1,0,0,8.1c2.874,0,3.709-1.817,3.947-2.889h-.3a3.362,3.362,0,0,1-3.65,2.591,3.628,3.628,0,0,1-3.9-3.754h7.971A3.88,3.88,0,0,0,186.517,63.857Zm0,.3a3.6,3.6,0,0,1,3.769,3.456h-7.673A3.618,3.618,0,0,1,186.517,64.155Z" style="fill:#231f20"/><path d="M195.976,63.857a3.368,3.368,0,0,0-3.441,1.951h-.029V64.1h-.3v7.629h.3V67.447c0-.983.3-3.292,3.471-3.292,2.742,0,3.129,1.489,3.129,2.77v4.8h.3v-4.8C199.4,65.466,198.9,63.857,195.976,63.857Z" style="fill:#231f20"/><path d="M202.353,70.309V64.393h2.218v-.3h-2.218V61.473h-.3V64.1h-1.817v.3h1.817v5.9c0,1.028.312,1.519,1.654,1.519a10.415,10.415,0,0,0,1.073-.074v-.3c-.358.029-.76.074-1.073.074C202.649,71.515,202.353,71.231,202.353,70.309Z" style="fill:#231f20"/><polygon points="225.575 25 221.825 28.75 240.484 47.409 221.825 66.067 225.574 69.817 247.983 47.409 225.575 25" style="fill:#231f20"/></svg>