<svg xmlns="http://www.w3.org/2000/svg" viewBox="0 0 841.89 226.772"><title>loanave</title><path d="M42.451,33.814H75.184V151.423H42.451Z" style="fill:#231f20"/><path d="M81.772,109.065q0-19.5,13.157-32.132T130.469,64.3q25.591,0,38.67,14.84,10.506,11.955,10.506,29.443,0,19.655-13.034,32.21t-36.062,12.556q-20.538,0-33.212-10.43Q81.77,130,81.772,109.065Zm32.732-.083q0,11.4,4.612,16.848a15.116,15.116,0,0,0,23.185.08q4.533-5.373,4.534-17.248,0-11.073-4.572-16.485a14.241,14.241,0,0,0-11.312-5.415,14.786,14.786,0,0,0-11.794,5.494Q114.5,97.752,114.5,108.982Z" style="fill:#231f20"/><path d="M215.96,93.821,184.753,90.53q1.769-8.181,5.094-12.875a28.142,28.142,0,0,1,9.587-8.143,40.16,40.16,0,0,1,12.357-3.851,99.687,99.687,0,0,1,17-1.362,135.186,135.186,0,0,1,23.589,1.644,30.316,30.316,0,0,1,14.84,6.859A24.058,24.058,0,0,1,273.8,83.03a37.021,37.021,0,0,1,2.408,12.635v37.626a45.164,45.164,0,0,0,.76,9.427,42.378,42.378,0,0,0,3.332,8.705H249.655a31.2,31.2,0,0,1-2.407-5.015,37.274,37.274,0,0,1-1.121-5.415,42.241,42.241,0,0,1-12.758,8.823,53.1,53.1,0,0,1-20.136,3.532q-15.242,0-23.145-7.059a22.44,22.44,0,0,1-7.9-17.412q0-9.7,5.7-15.963t21.016-9.306q18.37-3.69,23.826-5.174a110.776,110.776,0,0,0,11.552-3.891q0-6.02-2.489-8.422t-8.741-2.408q-8.026,0-12.036,2.567Q217.884,88.286,215.96,93.821Zm28.319,17.169q-6.736,2.406-14.036,4.249-9.954,2.648-12.6,5.218a8.354,8.354,0,0,0-.04,12.312q2.686,2.448,7.9,2.448a20.289,20.289,0,0,0,10.145-2.65,16.028,16.028,0,0,0,6.661-6.456,21.632,21.632,0,0,0,1.964-9.909Z" style="fill:#231f20"/><path d="M285.923,66.224h30.408V80.1q6.815-8.5,13.8-12.154T347.14,64.3q13.548,0,21.217,8.06t7.662,24.911v54.153H343.206V104.571q0-8.022-2.968-11.351t-8.34-3.331a11.87,11.87,0,0,0-9.631,4.493q-3.689,4.494-3.689,16.126v40.915H285.923Z" style="fill:#231f20"/><path d="M415.419,93.821,384.211,90.53q1.764-8.181,5.093-12.875a28.078,28.078,0,0,1,9.59-8.143,40.144,40.144,0,0,1,12.351-3.851A99.768,99.768,0,0,1,428.254,64.3a135.149,135.149,0,0,1,23.588,1.644,30.349,30.349,0,0,1,14.84,6.859A24.086,24.086,0,0,1,473.26,83.03a36.9,36.9,0,0,1,2.408,12.635v37.626a45.441,45.441,0,0,0,.76,9.427,42.261,42.261,0,0,0,3.332,8.705H449.113a31.406,31.406,0,0,1-2.408-5.015,37.71,37.71,0,0,1-1.125-5.415,42.191,42.191,0,0,1-12.754,8.823,53.07,53.07,0,0,1-20.136,3.532q-15.242,0-23.143-7.059a22.434,22.434,0,0,1-7.9-17.412q0-9.7,5.692-15.963t21.021-9.306q18.366-3.69,23.826-5.174a110.974,110.974,0,0,0,11.555-3.891q0-6.02-2.49-8.422t-8.742-2.408q-8.026,0-12.035,2.567Q417.343,88.286,415.419,93.821ZM443.74,110.99Q437,113.4,429.7,115.239q-9.946,2.648-12.591,5.218a8.344,8.344,0,0,0-.04,12.312q2.682,2.448,7.9,2.448a20.292,20.292,0,0,0,10.148-2.65,16.025,16.025,0,0,0,6.658-6.456,21.6,21.6,0,0,0,1.969-9.909Z" style="fill:#c41230"/><path d="M473.088,66.224H507.06l16.528,53.989L540.74,66.224h32.951l-36.213,85.2H508.521Z" style="fill:#c41230"/><path d="M666.2,116.926H600.74q.879,7.864,4.254,11.714a15.469,15.469,0,0,0,12.352,5.532,18.563,18.563,0,0,0,9.146-2.4,21.492,21.492,0,0,0,5.7-5.375l32.17,2.966q-7.383,12.838-17.808,18.411t-29.924,5.578q-16.931,0-26.633-4.776a39.037,39.037,0,0,1-16.086-15.161q-6.378-10.387-6.381-24.429,0-19.975,12.8-32.328T615.66,64.3q18.3,0,28.883,5.534A37.4,37.4,0,0,1,660.67,85.877q5.53,10.512,5.533,27.358ZM632.988,101.28q-.96-9.463-5.094-13.555a15.979,15.979,0,0,0-23.3,2.086q-2.971,3.85-3.772,11.469Z" style="fill:#c41230"/><path d="M42.451,168.778h1.066V174h.106c1.705-3.834,5.222-6.073,11.083-6.073,4.527,0,8.632,1.867,9.908,6.392h.107a10.27,10.27,0,0,1,9.91-6.392c10.443,0,12.254,5.754,12.254,10.974v17.159H85.821V178.9c0-4.582-1.386-9.908-11.19-9.908-5.061,0-9.429,3.2-9.429,9.483v17.584H64.136V178.475c0-6.926-4.155-9.483-9.43-9.483-6.979,0-11.189,3.621-11.189,10.229v16.838H42.451Z" style="fill:#231f20"/><path d="M106.118,167.926c9.271,0,15.026,6.178,15.026,14.491s-5.755,14.494-15.026,14.494S91.1,190.73,91.1,182.417,96.849,167.926,106.118,167.926Zm0,27.919c9.164,0,13.959-6.236,13.959-13.428s-4.8-13.425-13.959-13.425S92.16,175.227,92.16,182.417,96.955,195.845,106.118,195.845Z" style="fill:#231f20"/><path d="M126.418,168.778h1.066v7.352h.107a11.265,11.265,0,0,1,11.24-8.2,21.148,21.148,0,0,1,2.292.16v1.067a18.769,18.769,0,0,0-2.343-.161c-6.235,0-11.3,4.634-11.3,13.586v13.481h-1.066Z" style="fill:#231f20"/><path d="M151.086,169.845h-6.5v-1.067h6.5V159.4h1.064v9.376h7.936v1.067H152.15V191c0,3.3,1.066,4.315,4.845,4.315,1.121,0,2.561-.161,3.837-.265v1.066a37.149,37.149,0,0,1-3.837.266c-4.792,0-5.909-1.759-5.909-5.435Z" style="fill:#231f20"/><path d="M192,168.778h1.069v26.427c0,8.792-5.384,12.573-14.014,12.573-5.862,0-13-1.011-13.906-9.165h1.065c.694,4.264,2.771,8.1,12.682,8.1,8.15,0,13.1-3.248,13.1-11.563v-7.3h-.1c-2.5,5.595-7.407,7.673-13.372,7.673-8.847,0-14.547-5.009-14.547-13.8s5.7-13.8,14.547-13.8c7.189,0,11.665,3.038,13.372,7.778h.1Zm-13.476,25.681c8.522,0,13.476-4.742,13.476-12.733,0-8.418-5.167-12.734-13.476-12.734-8.261,0-13.483,4.421-13.483,12.734S170.264,194.459,178.525,194.459Z" style="fill:#231f20"/><path d="M228.282,195.686a8.322,8.322,0,0,1-2.5.373c-1.814,0-2.878-.748-2.878-2.717v-3.251H222.8c-1.757,3.622-5.7,6.82-13.64,6.82-6.5,0-10.815-2.772-10.815-8.259,0-4.635,3.145-7.462,8.9-7.673l9-.32c5.754-.214,6.66-.8,6.66-4.1v-1.494c0-4.422-3.887-6.074-11.294-6.074-7.836,0-10.548,2.238-10.974,8.045h-1.069c.376-7.3,5.116-9.111,12.043-9.111,8.628,0,12.358,2.292,12.358,7.086V192.7c0,1.6.323,2.29,1.814,2.29a10.608,10.608,0,0,0,2.5-.371ZM222.9,180.072H222.8c-.585,1.014-3.143,1.491-7.141,1.654l-8.309.319c-5.647.213-7.941,2.878-7.941,6.661,0,4.9,4.264,7.139,9.805,7.139,9.326,0,13.692-4.9,13.692-10.711Z" style="fill:#231f20"/><path d="M257.745,168.778h1.066v26.427c0,8.792-5.381,12.573-14.009,12.573-5.862,0-13-1.011-13.906-9.165h1.063c.692,4.264,2.773,8.1,12.68,8.1,8.152,0,13.106-3.248,13.106-11.563v-7.3h-.105c-2.5,5.595-7.407,7.673-13.373,7.673-8.844,0-14.545-5.009-14.545-13.8s5.7-13.8,14.545-13.8c7.191,0,11.668,3.038,13.373,7.778h.105Zm-13.478,25.681c8.524,0,13.478-4.742,13.478-12.733,0-8.418-5.165-12.734-13.478-12.734-8.257,0-13.482,4.421-13.482,12.734S236.01,194.459,244.267,194.459Z" style="fill:#231f20"/><path d="M265.151,182.417c0,7.192,4.8,13.428,13.96,13.428,9.482,0,12.1-5.808,13.05-9.269h1.067c-.85,3.835-3.836,10.335-14.117,10.335-9.27,0-15.025-6.181-15.025-14.494s5.755-14.491,15.025-14.491c7.94,0,14.547,5.327,14.547,14.491Zm27.438-1.065c-.428-6.446-5.114-12.36-13.478-12.36-8.789,0-13.483,5.647-13.96,12.36Z" style="fill:#231f20"/><path d="M314.591,168.778h1.069V174h.106c1.7-3.834,5.219-6.073,11.08-6.073,4.527,0,8.631,1.867,9.911,6.392h.107a10.264,10.264,0,0,1,9.908-6.392c10.441,0,12.254,5.754,12.254,10.974v17.159h-1.065V178.9c0-4.582-1.387-9.908-11.189-9.908-5.061,0-9.429,3.2-9.429,9.483v17.584h-1.069V178.475c0-6.926-4.152-9.483-9.428-9.483-6.979,0-11.186,3.621-11.186,10.229v16.838h-1.069Z" style="fill:#231f20"/><path d="M394.243,195.686a8.374,8.374,0,0,1-2.506.373c-1.813,0-2.879-.748-2.879-2.717v-3.251h-.107c-1.757,3.622-5.7,6.82-13.64,6.82-6.5,0-10.814-2.772-10.814-8.259,0-4.635,3.144-7.462,8.9-7.673l9.009-.32c5.753-.214,6.655-.8,6.655-4.1v-1.494c0-4.422-3.888-6.074-11.3-6.074-7.83,0-10.546,2.238-10.974,8.045h-1.063c.371-7.3,5.114-9.111,12.037-9.111,8.634,0,12.361,2.292,12.361,7.086V192.7c0,1.6.324,2.29,1.813,2.29a10.654,10.654,0,0,0,2.506-.371Zm-5.385-15.614h-.107c-.584,1.014-3.142,1.491-7.136,1.654l-8.312.319c-5.647.213-7.938,2.878-7.938,6.661,0,4.9,4.261,7.139,9.8,7.139,9.325,0,13.69-4.9,13.69-10.711Z" style="fill:#231f20"/><path d="M398.131,168.778H399.2v6.128h.1c2.131-4.847,6.34-6.98,12.306-6.98,10.444,0,12.256,5.754,12.256,10.974v17.159H422.8V178.9c0-4.582-1.386-9.908-11.191-9.908-11.344,0-12.409,8.259-12.409,11.773v15.294h-1.069Z" style="fill:#231f20"/><path d="M459.081,195.686a8.334,8.334,0,0,1-2.5.373c-1.814,0-2.881-.748-2.881-2.717v-3.251h-.105c-1.759,3.622-5.7,6.82-13.64,6.82-6.5,0-10.815-2.772-10.815-8.259,0-4.635,3.143-7.462,8.895-7.673l9.007-.32c5.755-.214,6.658-.8,6.658-4.1v-1.494c0-4.422-3.887-6.074-11.293-6.074-7.834,0-10.549,2.238-10.974,8.045h-1.07c.373-7.3,5.116-9.111,12.044-9.111,8.629,0,12.36,2.292,12.36,7.086V192.7c0,1.6.319,2.29,1.814,2.29a10.6,10.6,0,0,0,2.5-.371ZM453.7,180.072h-.105c-.585,1.014-3.143,1.491-7.139,1.654l-8.314.319c-5.642.213-7.937,2.878-7.937,6.661,0,4.9,4.263,7.139,9.8,7.139,9.329,0,13.693-4.9,13.693-10.711Z" style="fill:#231f20"/><path d="M489.61,168.778h1.068v26.427c0,8.792-5.382,12.573-14.017,12.573-5.859,0-13-1.011-13.906-9.165h1.067c.694,4.264,2.77,8.1,12.68,8.1,8.156,0,13.108-3.248,13.108-11.563v-7.3H489.5c-2.5,5.595-7.4,7.673-13.374,7.673-8.841,0-14.543-5.009-14.543-13.8s5.7-13.8,14.543-13.8c7.193,0,11.67,3.038,13.374,7.778h.107Zm-13.481,25.681c8.529,0,13.481-4.742,13.481-12.733,0-8.418-5.169-12.734-13.481-12.734-8.256,0-13.48,4.421-13.48,12.734S467.873,194.459,476.129,194.459Z" style="fill:#231f20"/><path d="M497.016,182.417c0,7.192,4.8,13.428,13.959,13.428,9.484,0,12.1-5.808,13.054-9.269h1.063c-.852,3.835-3.836,10.335-14.117,10.335-9.27,0-15.026-6.181-15.026-14.494s5.756-14.491,15.026-14.491c7.936,0,14.543,5.327,14.543,14.491Zm27.437-1.065c-.424-6.446-5.114-12.36-13.478-12.36-8.79,0-13.48,5.647-13.959,12.36Z" style="fill:#231f20"/><path d="M530.259,168.778h1.066V174h.106c1.7-3.834,5.219-6.073,11.085-6.073,4.526,0,8.63,1.867,9.909,6.392h.105a10.268,10.268,0,0,1,9.909-6.392c10.444,0,12.253,5.754,12.253,10.974v17.159h-1.065V178.9c0-4.582-1.384-9.908-11.188-9.908-5.062,0-9.432,3.2-9.432,9.483v17.584h-1.061V178.475c0-6.926-4.16-9.483-9.43-9.483-6.983,0-11.191,3.621-11.191,10.229v16.838h-1.066Z" style="fill:#231f20"/><path d="M581.031,182.417c0,7.192,4.8,13.428,13.961,13.428,9.485,0,12.092-5.808,13.054-9.269h1.063c-.85,3.835-3.836,10.335-14.117,10.335-9.268,0-15.023-6.181-15.023-14.494s5.755-14.491,15.023-14.491c7.94,0,14.545,5.327,14.545,14.491Zm27.44-1.065c-.425-6.446-5.115-12.36-13.479-12.36-8.79,0-13.481,5.647-13.961,12.36Z" style="fill:#231f20"/><path d="M615.343,168.778h1.067v6.128h.106c2.128-4.847,6.339-6.98,12.306-6.98,10.446,0,12.255,5.754,12.255,10.974v17.159h-1.066V178.9c0-4.582-1.383-9.908-11.189-9.908-11.349,0-12.412,8.259-12.412,11.773v15.294h-1.067Z" style="fill:#231f20"/><path d="M650.56,169.845h-6.5v-1.067h6.5V159.4h1.068v9.376h7.933v1.067h-7.933V191c0,3.3,1.06,4.315,4.845,4.315,1.12,0,2.559-.161,3.837-.265v1.066a37.2,37.2,0,0,1-3.837.266c-4.8,0-5.913-1.759-5.913-5.435Z" style="fill:#231f20"/><polygon points="686.062 28.962 672.651 42.373 739.385 109.103 672.651 175.832 686.062 189.241 766.199 109.103 686.062 28.962" style="fill:#c41230"/><polygon points="734.677 28.962 721.267 42.373 787.996 109.103 721.267 175.832 734.675 189.241 814.816 109.103 734.677 28.962" style="fill:#231f20"/></svg>