<svg xmlns="http://www.w3.org/2000/svg" viewBox="0 0 280 100"><title>Macquarie</title><path d="M62.513,31.1c-11.406,0-20.177,8.461-20.177,18.9s8.771,18.9,20.177,18.9,20.18-8.463,20.18-18.9S73.921,31.1,62.513,31.1ZM53.38,65.994V66a15.871,15.871,0,0,1-4.565-3.08,17.737,17.737,0,0,1-.58-25.076h0c.189-.2.384-.393.58-.58A19.377,19.377,0,0,1,53.38,34.09c.321-.16.646-.3.948-.461-.3.208-.627.416-.948.625A23.663,23.663,0,0,0,48.815,38.3a18.169,18.169,0,0,0-4.307,11.579,17.5,17.5,0,0,0,4.307,11.808A22.876,22.876,0,0,0,53.38,65.74c.321.208.646.416.948.6C54.028,66.248,53.7,66.11,53.38,65.994Zm3.24-8.758h0A8.309,8.309,0,0,1,53.4,53.83a8.048,8.048,0,0,1,0-7.5,8.448,8.448,0,0,1,3.217-3.45,10.056,10.056,0,0,1,1.62-.763,11.759,11.759,0,0,0-1.62,1.271,8.6,8.6,0,0,0-2.685,6.624,8.192,8.192,0,0,0,2.685,6.621,9.747,9.747,0,0,0,1.62,1.248A5.309,5.309,0,0,1,56.62,57.236ZM54.9,50c0-4.419,3.542-8.375,7.621-8.546,4.075.171,7.617,4.127,7.617,8.546s-3.542,8.376-7.617,8.546C58.437,58.377,54.9,54.42,54.9,50Zm13.558,7.213h0a5.519,5.519,0,0,1-1.667.668,13.091,13.091,0,0,0,1.667-1.27,8.307,8.307,0,0,0,2.662-6.6,8.715,8.715,0,0,0-2.662-6.576,13.331,13.331,0,0,0-1.667-1.32,10.474,10.474,0,0,1,1.667.785,8.822,8.822,0,0,1,3.2,3.428,8.054,8.054,0,0,1,0,7.5A8.507,8.507,0,0,1,68.453,57.213Zm8.335,5.124h0q-.282.3-.576.577h0A15.915,15.915,0,0,1,71.648,66c-.323.116-.648.254-.95.346.3-.185.627-.393.95-.6a22.955,22.955,0,0,0,4.563-4.053A17.49,17.49,0,0,0,80.516,49.88,18.138,18.138,0,0,0,76.211,38.3a23.779,23.779,0,0,0-4.563-4.052c-.323-.209-.648-.417-.95-.625.3.163.627.3.95.461a19.445,19.445,0,0,1,4.563,3.174A17.739,17.739,0,0,1,76.788,62.337Z" style="fill-rule:evenodd"/><polygon points="237.664 44.058 237.664 42.058 224.182 42.058 224.182 57.058 237.664 57.058 237.664 55.058 226.273 55.058 226.273 50.319 233.958 50.319 233.958 48.33 226.273 48.33 226.273 44.058 237.664 44.058" style="fill-rule:evenodd"/><path d="M164.385,49.656c0-6.654-6.315-7.786-8.828-7.786-4.692,0-8.922,2.543-8.922,7.8,0,1.719,1.271,7.962,8.919,7.962a9.515,9.515,0,0,0,2.941-.475l3.039,2.561,1.138-1.517L160.3,56.112A7.311,7.311,0,0,0,164.385,49.656ZM159,55.062c-3.052-1.9-5.046-.982-5.432-.19a3.676,3.676,0,0,1,3.323.95,4.057,4.057,0,0,1-1.326.191,6.619,6.619,0,0,1-6.552-6.549v-.032a6.3,6.3,0,0,1,6.547-6.044c2.555,0,6.454,1.982,6.454,6.268A5.991,5.991,0,0,1,159,55.062Z" style="fill-rule:evenodd"/><rect x="219.059" y="42.052" width="2.086" height="15"/><path d="M129.645,49.552c0-5.619,8.537-7.858,13.574-4.178l1.041-1.518c-4.357-2.764-10.021-2.454-13.252-.354a7.346,7.346,0,0,0-3.831,6.05c0,5.966,5.706,7.685,9.588,7.685,5.42,0,7.967-2.847,8.159-3.036l-1.236-1.421C137.88,57.918,129.645,54.982,129.645,49.552Z" style="fill-rule:evenodd"/><polygon points="100.412 53.256 94.526 42.056 91.677 42.056 91.677 57.056 93.768 57.056 93.768 45.284 100.32 57.341 107.057 45.284 107.057 57.056 109.143 57.056 109.143 42.056 106.49 42.056 100.412 53.256" style="fill-rule:evenodd"/><path d="M118.354,42.052l-7.119,15h2.185l1.9-3.892h8.167l1.89,3.894h2.277l-7.211-15Zm-2.281,9.306,3.325-7.306,3.227,7.306Z" style="fill-rule:evenodd"/><path d="M188.766,42.052l-7.112,15h2.182l1.9-3.892H193.9l1.885,3.894h2.28l-7.212-15Zm-2.282,9.306,3.325-7.306,3.23,7.306Z" style="fill-rule:evenodd"/><path d="M215.737,46.232c0-.666-.075-4.18-5.316-4.18H200.362v15h2.088V50.5H208.9l4.461,6.553h2.566l-4.746-6.647C215.409,49.781,215.737,47.186,215.737,46.232ZM202.453,48.8V43.76h7.883c3.107,0,3.226,2.188,3.226,2.472,0,.381.058,2.524-3.8,2.562Z" style="fill-rule:evenodd"/><path d="M178.883,52.309a3.426,3.426,0,0,1-.638,2.169c-.489.5-1.718,1.257-4.705,1.306h0c-2.985-.049-4.214-.806-4.7-1.306a3.432,3.432,0,0,1-.638-2.169V42.056h-1.992v10.35c0,1.362.047,2.392,1.138,3.319.611.532,1.852,1.7,6.2,1.7s5.587-1.172,6.2-1.7c1.09-.927,1.14-1.957,1.14-3.319V42.056h-2Z" style="fill-rule:evenodd"/></svg>