<svg xmlns="http://www.w3.org/2000/svg" xmlns:xlink="http://www.w3.org/1999/xlink" viewBox="0 0 196.329 38.799"><defs><clipPath id="a"><rect x="-14.504" y="-8.947" width="226.771" height="56.693" style="fill:none"/></clipPath></defs><title>Macquarie</title><g style="clip-path:url(#a)"><path d="M34.375,32.315a15.917,15.917,0,0,1-4.562,3.08c-.324.116-.649.254-.95.346.3-.185.626-.393.95-.6a22.91,22.91,0,0,0,4.562-4.053,17.491,17.491,0,0,0,4.306-11.808A18.142,18.142,0,0,0,34.375,7.7a23.736,23.736,0,0,0-4.562-4.052c-.324-.209-.649-.417-.95-.625.3.163.626.3.95.461a19.4,19.4,0,0,1,4.562,3.174,17.738,17.738,0,0,1,0,25.656m-7.758-5.7a5.514,5.514,0,0,1-1.666.668,13.167,13.167,0,0,0,1.666-1.27,8.307,8.307,0,0,0,2.663-6.6,8.713,8.713,0,0,0-2.663-6.576,13.209,13.209,0,0,0-1.666-1.32,10.518,10.518,0,0,1,1.666.785,8.817,8.817,0,0,1,3.2,3.428,8.054,8.054,0,0,1,0,7.5,8.51,8.51,0,0,1-3.2,3.384M13.059,19.4c0-4.419,3.542-8.375,7.621-8.546,4.076.171,7.617,4.127,7.617,8.546s-3.541,8.376-7.617,8.546c-4.079-.169-7.621-4.126-7.621-8.546m1.726,7.237a8.312,8.312,0,0,1-3.218-3.407,8.054,8.054,0,0,1,0-7.5,8.446,8.446,0,0,1,3.218-3.45,9.976,9.976,0,0,1,1.62-.763,11.726,11.726,0,0,0-1.62,1.271A8.6,8.6,0,0,0,12.1,19.412a8.19,8.19,0,0,0,2.685,6.621,9.7,9.7,0,0,0,1.62,1.248,5.323,5.323,0,0,1-1.62-.645M11.544,35.4a15.872,15.872,0,0,1-4.564-3.08,17.736,17.736,0,0,1,0-25.656,19.374,19.374,0,0,1,4.564-3.174c.321-.16.647-.3.948-.461-.3.208-.627.416-.948.625A23.688,23.688,0,0,0,6.98,7.7,18.16,18.16,0,0,0,2.672,19.279,17.5,17.5,0,0,0,6.98,31.087a22.866,22.866,0,0,0,4.564,4.053c.321.208.647.416.948.6-.3-.092-.627-.23-.948-.346M20.677.5C9.272.5.5,8.961.5,19.4S9.272,38.3,20.677,38.3s20.18-8.463,20.18-18.9S32.085.5,20.677.5"/><path d="M184.437,19.67v4.788h11.392v2H182.347v-15h13.482v2H184.437v4.272h7.686v1.989h-7.686Zm-70.715-6.882a6.3,6.3,0,0,0-6.547,6.076,6.618,6.618,0,0,0,6.551,6.549,4.056,4.056,0,0,0,1.327-.191,3.676,3.676,0,0,0-3.323-.95c.385-.792,2.38-1.707,5.432.19a5.994,5.994,0,0,0,3.015-5.406c0-4.286-3.9-6.268-6.455-6.268m0-1.518c2.512,0,8.827,1.132,8.827,7.786a7.313,7.313,0,0,1-4.084,6.452l2.372,2.089L119.7,29.114l-3.04-2.561a9.5,9.5,0,0,1-2.941.475c-7.648,0-8.919-6.243-8.919-7.962,0-5.257,4.23-7.8,8.923-7.8m63.5.186h2.086v15h-2.086v-15Zm-89.414,7.5c0,5.43,8.235,8.366,14.043,3.228l1.237,1.421c-.192.189-2.74,3.036-8.16,3.036-3.882,0-9.588-1.719-9.588-7.685a7.348,7.348,0,0,1,3.832-6.05c3.23-2.1,8.894-2.41,13.252.354l-1.042,1.518c-5.036-3.68-13.574-1.441-13.574,4.178M65.222,14.684,58.485,26.741,51.933,14.684V26.456H49.842v-15h2.849l5.886,11.2,6.078-11.2h2.652v15H65.222Zm12.34-1.232,3.228,7.306H74.237Zm-1.043-2h2.088l7.211,15H83.541l-1.89-3.894H73.485l-1.9,3.892H69.4Zm71.454,2,3.23,7.306h-6.554Zm-1.043-2h2.089l7.212,15h-2.28l-1.886-3.894H143.9l-1.9,3.892h-2.182Zm21.655,0c5.242,0,5.316,3.514,5.316,4.18,0,.954-.328,3.549-4.554,4.174l4.746,6.648h-2.566l-4.461-6.553h-6.452v6.553h-2.088v-15Zm-.662,6.742c3.858-.038,3.8-2.181,3.8-2.562,0-.284-.118-2.472-3.226-2.472h-7.879V18.2ZM131.7,25.184c2.99-.048,4.22-.806,4.71-1.306a3.424,3.424,0,0,0,.637-2.169V11.456h2v10.35c0,1.362-.049,2.392-1.139,3.319-.612.528-1.853,1.7-6.2,1.7s-5.589-1.168-6.2-1.7c-1.091-.927-1.137-1.957-1.137-3.319V11.456h1.992V21.709a3.43,3.43,0,0,0,.637,2.169c.491.5,1.721,1.258,4.709,1.306" style="fill-rule:evenodd"/></g></svg>