<svg xmlns="http://www.w3.org/2000/svg" viewBox="0 0 595.28 619.469"><title>Me Bank</title><path d="M297.308,118.692c-103.192,0-187.146,83.954-187.146,187.148s83.954,187.146,187.146,187.146S484.454,409.032,484.454,305.84,400.5,118.692,297.308,118.692m0,429.389c-133.573,0-242.24-108.669-242.24-242.241S163.735,63.6,297.308,63.6,539.549,172.266,539.549,305.84,430.88,548.081,297.308,548.081m0-94.68a108.1,108.1,0,0,1-76.943-31.87,19.206,19.206,0,0,1,27.162-27.16,70.4,70.4,0,0,0,99.563,0,19.205,19.205,0,0,1,27.16,27.16,108.1,108.1,0,0,1-76.942,31.87m73.683-198.984a25.81,25.81,0,0,1,19.014-8.289c6.581,0,13.65,2.439,18.281,7.07,5.363,5.606,6.339,12.674,7.07,18.037H363.434c1.22-5.363,2.439-11.213,7.557-16.818M392.2,326.324c-20.232,0-29.252-15.844-29.008-31.688h90.923c-.489-14.381-1.463-39.245-18.038-57.039-16.333-17.551-38.271-18.281-45.828-18.281-29.641,0-47.043,13.762-56.334,31.353a36.626,36.626,0,0,0-2.9-12.1c-3.9-7.8-14.625-18.281-35.589-18.281-20.231,0-30.469,8.774-37.782,14.868-6.824-7.068-14.381-14.868-35.345-14.868-21.938,0-31.688,11.457-36.075,16.574V223.7H149.173v127h37.052V278.3c0-8.774.243-19.012,8.531-24.618A19.4,19.4,0,0,1,205,250.758c6.094,0,11.7,2.683,14.625,6.583,3.413,4.876,3.656,12.431,3.656,18.038V350.7h37.05V281.473c0-13.894,0-21.208,7.07-26.813a20.059,20.059,0,0,1,12.189-3.9c2.924,0,12.918.733,16.331,11.459,1.461,4.874,1.461,14.379,1.461,21.695V350.7h37.052v-23.51c10.947,18.17,30.574,28.143,54.845,28.143,20.475,0,37.052-7.8,48.02-18.038,6.581-6.093,10.97-12.433,15.357-19.013L424.374,303.9c-4.631,9.019-11.7,22.426-32.175,22.426" style="fill:#231f20"/></svg>
