<svg xmlns="http://www.w3.org/2000/svg" viewBox="0 0 280 100"><title>Me Bank</title><path d="M140,19.1A30.9,30.9,0,1,0,170.9,50,30.938,30.938,0,0,0,140,19.1M140,90a40,40,0,1,1,40-40,40.045,40.045,0,0,1-40,40m0-15.634A17.848,17.848,0,0,1,127.3,69.1a3.171,3.171,0,0,1,4.485-4.484,11.626,11.626,0,0,0,16.44,0h0a3.171,3.171,0,1,1,4.485,4.484h0A17.85,17.85,0,0,1,140,74.366m12.167-32.857a4.259,4.259,0,0,1,3.14-1.369,4.368,4.368,0,0,1,3.018,1.167,5,5,0,0,1,1.168,2.979h-8.574a5.486,5.486,0,0,1,1.248-2.777m3.5,11.873c-3.341,0-4.83-2.616-4.79-5.232h15.014c-.081-2.375-.242-6.481-2.979-9.419a10.2,10.2,0,0,0-7.567-3.019c-4.9,0-7.768,2.273-9.3,5.178a6.062,6.062,0,0,0-.479-2c-.644-1.288-2.415-3.019-5.877-3.019a8.786,8.786,0,0,0-6.239,2.455,6.871,6.871,0,0,0-5.836-2.455,7.174,7.174,0,0,0-5.957,2.737V36.437h-6.118v20.97h6.118V45.452c0-1.448.04-3.139,1.409-4.065a3.212,3.212,0,0,1,1.692-.483,3.057,3.057,0,0,1,2.415,1.088,5.452,5.452,0,0,1,.6,2.978V57.407h6.118V45.976c0-2.294,0-3.5,1.168-4.427a3.306,3.306,0,0,1,2.012-.644,2.715,2.715,0,0,1,2.7,1.892,16.007,16.007,0,0,1,.241,3.582V57.407h6.118V53.525c1.808,3,5.049,4.647,9.057,4.647a11.542,11.542,0,0,0,7.929-2.978,16.378,16.378,0,0,0,2.536-3.14l-4.67-2.374c-.765,1.489-1.932,3.7-5.313,3.7" style="fill:#231f20"/></svg>