<svg xmlns="http://www.w3.org/2000/svg" xmlns:xlink="http://www.w3.org/1999/xlink" viewBox="0 0 841.89 595.276"><defs><clipPath id="a"><rect x="66.297" y="200.227" width="710.711" height="198.211" style="fill:none"/></clipPath></defs><title>mkm capital</title><g style="clip-path:url(#a)"><path d="M66.949,313.2c0-9.793-.312-18.144-.652-25.058H86.848l1.125,10.6h.492c3.363-4.976,10.269-12.363,23.746-12.363,10.129,0,18.141,5.144,21.516,13.32h.324a33.079,33.079,0,0,1,10.1-9.469,28.407,28.407,0,0,1,14.934-3.851c15.1,0,26.5,10.586,26.5,34.027v46.246H161.824V323.949c0-11.383-3.7-17.98-11.562-17.98-5.621,0-9.637,3.863-11.235,8.511a20.231,20.231,0,0,0-.961,6.262v45.914H114.305v-44c0-9.957-3.532-16.687-11.235-16.687-6.277,0-9.957,4.828-11.4,8.824a16.175,16.175,0,0,0-.961,6.1v45.762H66.949Z" style="fill:#06357a"/><path d="M283.992,313.2c0-9.793-.32-18.144-.648-25.058H303.9l1.129,10.6h.473c3.379-4.976,10.277-12.363,23.758-12.363,10.109,0,18.14,5.144,21.515,13.32h.332a32.617,32.617,0,0,1,10.1-9.469,28.327,28.327,0,0,1,14.933-3.851c15.09,0,26.485,10.586,26.485,34.027v46.246H378.867V323.949c0-11.383-3.687-17.98-11.558-17.98-5.622,0-9.625,3.863-11.235,8.511a20.562,20.562,0,0,0-.961,6.262v45.914H331.359v-44c0-9.957-3.543-16.687-11.238-16.687-6.262,0-9.961,4.828-11.406,8.824a16.5,16.5,0,0,0-.961,6.1v45.762H283.992Z" style="fill:#06357a"/><path d="M471.973,363.281a49.314,49.314,0,0,1-22.469,5.125c-22.309,0-37.074-16.2-37.074-39.484,0-24.4,16.691-41.094,39.808-41.094,9.453,0,17.184,2.735,20.227,4.813l-2.731,6.265a37.368,37.368,0,0,0-18.3-4.492c-20.707,0-31.3,15.891-31.3,34.023,0,20.071,12.683,33.231,30.5,33.231a45.485,45.485,0,0,0,19.25-4.316Z" style="fill:#06357a"/><path d="M531.871,348.352a138.57,138.57,0,0,0,1.113,18.292H526.1l-1.141-11.066h-.477c-3.683,5.941-12.211,12.828-24.558,12.828-15.406,0-22.641-10.9-22.641-21.179,0-17.813,15.727-28.59,47.043-28.262v-1.914c0-7.715-1.445-22.957-19.742-22.789-6.75,0-13.813,1.761-19.27,5.765l-2.4-5.613a41.668,41.668,0,0,1,22.461-6.59c22.32,0,26.5,16.695,26.5,30.5Zm-7.547-22.95c-16.863-.492-39.012,2.082-39.012,20.535,0,11.082,7.387,16.059,15.411,16.059,12.843,0,20.074-7.863,22.793-15.4a17.067,17.067,0,0,0,.808-4.66Z" style="fill:#06357a"/><path d="M550.492,314.152c0-9.633-.324-17.324-.652-24.566h7.234l.649,14.621h.312c5.457-10.269,14.926-16.379,28.406-16.379,19.762,0,33.082,16.379,33.082,39.016,0,27.605-16.386,41.574-35.007,41.574-11.071,0-20.864-4.969-26.157-14.293h-.324v44.312h-7.543Zm7.543,22.16a37.11,37.11,0,0,0,.645,6.086A26.043,26.043,0,0,0,584.043,362c17.656,0,27.773-14.277,27.773-34.84,0-17.316-9.644-33.062-27.129-33.062-11.242,0-22.148,7.863-25.527,20.55a31.446,31.446,0,0,0-1.125,6.575Z" style="fill:#06357a"/><path d="M642.641,267.594a6.274,6.274,0,0,1-6.414,6.59c-3.536,0-5.95-3.039-5.95-6.59,0-3.528,2.731-6.727,6.258-6.727,3.7,0,6.106,3.047,6.106,6.727m-9.95,21.992h7.539v77.058h-7.539Z" style="fill:#06357a"/><path d="M670.406,272.578V289.59h22v6.1h-22v50.089c0,9.793,3.051,16.059,11.238,16.059a28.491,28.491,0,0,0,8.84-1.274l.965,5.922a26.735,26.735,0,0,1-10.758,1.93c-5.617,0-10.285-1.93-13.175-5.613-3.524-4.012-4.8-10.434-4.8-18.305V295.688H649.7v-6.1h13.012V275.469Z" style="fill:#06357a"/><path d="M750.832,348.352a138.4,138.4,0,0,0,1.125,18.292h-6.9l-1.114-11.066h-.492c-3.691,5.941-12.195,12.828-24.559,12.828-15.41,0-22.64-10.9-22.64-21.179,0-17.813,15.726-28.59,47.035-28.262v-1.914c0-7.715-1.434-22.957-19.734-22.789-6.743,0-13.813,1.761-19.27,5.765l-2.406-5.613a41.66,41.66,0,0,1,22.465-6.59c22.32,0,26.488,16.695,26.488,30.5Zm-7.543-22.95c-16.852-.492-39,2.082-39,20.535,0,11.082,7.387,16.059,15.4,16.059,12.855,0,20.078-7.863,22.8-15.4a16.2,16.2,0,0,0,.809-4.66Z" style="fill:#06357a"/><rect x="769.465" y="252.688" width="7.543" height="113.965" style="fill:#06357a"/><polygon points="276.312 288.145 248.332 288.145 222.625 313.84 222.625 252.609 198.777 252.609 198.777 366.656 222.625 366.656 222.625 341.828 230.492 333.965 252.152 366.621 275.852 366.582 244.758 319.691 276.312 288.145" style="fill:#06357a"/><polygon points="286.129 200.223 258.156 200.223 296.406 238.481 258.152 276.738 286.129 276.738 324.387 238.481 286.129 200.223" style="fill:#ffd200"/></g></svg>