<svg xmlns="http://www.w3.org/2000/svg" viewBox="0 0 280 100"><title>MKM Capital</title><path d="M64.264,46.263a8.19,8.19,0,0,0-4.308,1.111,9.557,9.557,0,0,0-2.913,2.732H56.95a6.419,6.419,0,0,0-6.206-3.842,7.844,7.844,0,0,0-6.85,3.566h-.142l-.324-3.058H37.5c.1,1.994.188,4.4.188,7.228V69.419h6.854v-13.2a4.65,4.65,0,0,1,.277-1.76,3.582,3.582,0,0,1,3.288-2.545c2.222,0,3.241,1.941,3.241,4.813V69.419H58.2V56.175a5.827,5.827,0,0,1,.278-1.806,3.444,3.444,0,0,1,3.24-2.455c2.268,0,3.335,1.9,3.335,5.186V69.417h6.854V56.078C71.908,49.316,68.62,46.263,64.264,46.263Z" style="fill:#06357a"/><path d="M126.872,46.263a8.166,8.166,0,0,0-4.307,1.111,9.388,9.388,0,0,0-2.914,2.732h-.1a6.424,6.424,0,0,0-6.206-3.842A7.857,7.857,0,0,0,106.5,49.83h-.136l-.326-3.058h-5.927c.095,1.994.187,4.4.187,7.228V69.419h6.853v-13.2a4.771,4.771,0,0,1,.277-1.76,3.591,3.591,0,0,1,3.29-2.545c2.219,0,3.241,1.941,3.241,4.813V69.419h6.852V56.175a5.951,5.951,0,0,1,.277-1.806,3.449,3.449,0,0,1,3.241-2.455c2.27,0,3.334,1.9,3.334,5.186V69.417h6.853V56.078C134.512,49.316,131.225,46.263,126.872,46.263Z" style="fill:#06357a"/><path d="M148.59,48.581a10.777,10.777,0,0,1,5.279,1.3l.788-1.807a11.549,11.549,0,0,0-5.835-1.388c-6.668,0-11.482,4.815-11.482,11.853,0,6.716,4.259,11.389,10.694,11.389a14.226,14.226,0,0,0,6.481-1.479l-.6-1.71a13.094,13.094,0,0,1-5.552,1.245c-5.14,0-8.8-3.8-8.8-9.585C139.562,53.165,142.617,48.581,148.59,48.581Z" style="fill:#06357a"/><path d="M171.792,55.478c0-3.981-1.206-8.8-7.644-8.8a12.027,12.027,0,0,0-6.478,1.9l.692,1.619a9.473,9.473,0,0,1,5.558-1.663c5.278-.048,5.7,4.348,5.7,6.574v.552c-9.033-.095-13.57,3.014-13.57,8.152,0,2.965,2.087,6.109,6.531,6.109a8.337,8.337,0,0,0,7.084-3.7h.137l.329,3.192h1.987a39.957,39.957,0,0,1-.321-5.277Zm-2.177,6.811a4.955,4.955,0,0,1-.233,1.344,6.688,6.688,0,0,1-6.575,4.442,4.251,4.251,0,0,1-4.445-4.632c0-5.323,6.389-6.065,11.253-5.923Z" style="fill:#06357a"/><path d="M187.532,46.681a8.7,8.7,0,0,0-8.192,4.725h-.09l-.187-4.217h-2.087c.095,2.089.188,4.307.188,7.086V78.586h2.175V65.8h.093a8.39,8.39,0,0,0,7.545,4.123c5.371,0,10.1-4.029,10.1-11.992C197.074,51.406,193.232,46.681,187.532,46.681Zm-.69,21.394a7.512,7.512,0,0,1-7.316-5.653,10.775,10.775,0,0,1-.186-1.755V56.315a9.053,9.053,0,0,1,.326-1.9,7.761,7.761,0,0,1,7.363-5.927c5.043,0,7.825,4.541,7.825,9.536C194.853,63.957,191.935,68.075,186.842,68.075Z" style="fill:#06357a"/><path d="M201.981,38.905a1.9,1.9,0,0,0-1.805,1.94,1.785,1.785,0,0,0,1.717,1.9c.044,0,.089,0,.134,0a1.929,1.929,0,0,0-.046-3.839Z" style="fill:#06357a"/><rect x="200.873" y="47.189" width="2.175" height="22.227" style="fill:#06357a"/><path d="M211.751,42.283l-2.22.834v4.072h-3.753v1.76h3.755V63.028c0,2.27.368,4.122,1.385,5.28a4.653,4.653,0,0,0,3.8,1.619,7.717,7.717,0,0,0,3.1-.557l-.278-1.708a8.2,8.2,0,0,1-2.55.367c-2.362,0-3.242-1.807-3.242-4.632V48.949H218.1V47.19h-6.346Z" style="fill:#06357a"/><path d="M234.949,55.478c0-3.981-1.2-8.8-7.64-8.8a12.025,12.025,0,0,0-6.48,1.9l.694,1.619a9.477,9.477,0,0,1,5.558-1.663c5.279-.048,5.692,4.348,5.692,6.574v.552c-9.031-.095-13.567,3.014-13.567,8.152,0,2.965,2.086,6.109,6.531,6.109a8.334,8.334,0,0,0,7.084-3.7h.142l.321,3.192h1.99a39.79,39.79,0,0,1-.324-5.277Zm-2.406,8.155a6.687,6.687,0,0,1-6.576,4.442,4.249,4.249,0,0,1-4.442-4.632c0-5.323,6.388-6.065,11.249-5.923l0,4.769A4.689,4.689,0,0,1,232.543,63.633Z" style="fill:#06357a"/><rect x="240.324" y="36.546" width="2.176" height="32.872" style="fill:#06357a"/><polygon points="90.007 46.773 82.592 54.185 82.592 36.523 75.713 36.523 75.713 69.419 82.592 69.419 82.592 62.258 84.861 59.99 91.109 69.409 97.945 69.398 88.976 55.872 98.077 46.773 90.007 46.773" style="fill:#06357a"/><polygon points="100.909 21.413 92.84 21.413 103.873 32.448 92.839 43.483 100.909 43.483 111.944 32.448 100.909 21.413" style="fill:#ffd200"/><rect x="37.5" y="21.414" width="205" height="57.173" style="fill:none"/></svg>