<svg xmlns="http://www.w3.org/2000/svg" viewBox="0 0 280 100"><title>MyState Bank</title><path d="M229.02,38.665a109.244,109.244,0,0,1-15.508,5.59l11.894,20.606L245.529,30a171.912,171.912,0,0,1-16.509,8.665" style="fill:#00984d"/><path d="M214.5,38.9a125.746,125.746,0,0,0,14.082-3.11C236.349,33.606,245.532,30,245.532,30H205.281Z" style="fill:#72bf44"/><path d="M97.592,59.353l0-.007c-1.543,0-2.5-.319-2.5-3.412V49.286h3.934a9.609,9.609,0,0,0,.132-1.624,6.97,6.97,0,0,0-.132-1.5H95.09V42.388a12.84,12.84,0,0,0-2.109-.162,11,11,0,0,0-2.017.162v3.786H88.787a4.423,4.423,0,0,0-.2,1.672c0,1.271.2,1.442.2,1.442h2.18v7.621c0,2.012.395,3.463,1.4,4.352A6.321,6.321,0,0,0,96.708,62.6a9.845,9.845,0,0,0,2.622-.265,4.377,4.377,0,0,0,.2-1.666,6.153,6.153,0,0,0-.187-1.621A5.3,5.3,0,0,1,97.592,59.353Z" style="fill:#003f45"/><path d="M124.89,59.349v0c-1.543,0-2.5-.319-2.5-3.412V49.286h3.934a9.609,9.609,0,0,0,.132-1.624,6.97,6.97,0,0,0-.132-1.5h-3.934V42.388a12.84,12.84,0,0,0-2.109-.162,11,11,0,0,0-2.017.162v3.786h-2.177a4.444,4.444,0,0,0-.195,1.672c0,1.271.195,1.442.195,1.442h2.177v7.621c0,2.012.394,3.463,1.4,4.352a6.322,6.322,0,0,0,4.342,1.334,9.855,9.855,0,0,0,2.623-.264,4.359,4.359,0,0,0,.2-1.667,6.058,6.058,0,0,0-.187-1.62A5.324,5.324,0,0,1,124.89,59.349Z" style="fill:#003f45"/><path d="M52.841,39.656h-.006a12.859,12.859,0,0,0-2.285.162L45.21,53.033l-5.3-13.215a12.819,12.819,0,0,0-2.282-.162,14.3,14.3,0,0,0-2.283.162l-.874,22.587a10.377,10.377,0,0,0,1.936.161,8.3,8.3,0,0,0,1.813-.161l.454-16.154,4.867,11.443a6.887,6.887,0,0,0,1.706.156,6.625,6.625,0,0,0,1.684-.156L51.8,46.261l.008.015.437,16.129a8.276,8.276,0,0,0,1.811.161,10.249,10.249,0,0,0,1.939-.161l-.87-22.587A14.537,14.537,0,0,0,52.841,39.656Z" style="fill:#003f45"/><path d="M70.457,45.856l0-.01h-.1c-1.7,0-1.849.207-1.849.207L65.142,57.568l-3.6-11.52s-.059-.2-1.952-.2h-.026c-2.02,0-1.91.345-1.91.345l5.529,15.968-2.382,7.293A4.123,4.123,0,0,0,62.532,70a5.425,5.425,0,0,0,2.227-.4l7.658-23.386S72.417,45.856,70.457,45.856Z" style="fill:#003f45"/><path d="M135.346,45.791l-.011,0c-3.746,0-7.312,2.422-7.312,8.608,0,6.159,3.4,8.387,7.978,8.387a13.535,13.535,0,0,0,5.5-1.5s-.169-1.025-.335-1.613a6.168,6.168,0,0,0-.547-1.373,11.455,11.455,0,0,1-4.535,1.318,3.667,3.667,0,0,1-3.926-3.961h9.7c.041-.229.077-.539.11-.926s.045-.779.045-1.178C142.012,48.969,139.363,45.791,135.346,45.791Zm-3.162,6.753c0-1.951,1.036-3.47,2.961-3.47,2.091,0,2.927,1.571,2.927,3.47Z" style="fill:#003f45"/><path d="M82.367,49.158l-.005,0c-1.8-.917-3.669-1.84-3.669-3.45a2.825,2.825,0,0,1,2.818-2.832h.12a7.369,7.369,0,0,1,4.427,1.6,10.331,10.331,0,0,0,1.74-3.157,11.878,11.878,0,0,0-6.223-1.894c-3.946,0-7.158,2.431-7.158,6.666,0,3.724,2.77,5.077,5.421,6.371,1.894.947,3.825,1.867,3.825,3.824,0,1.737-1.495,2.82-3.547,2.82a9.221,9.221,0,0,1-5.229-2,8.109,8.109,0,0,0-1.107,1.6,10.9,10.9,0,0,0-.735,1.571c.352.259.69.488,1.025.7a13.161,13.161,0,0,0,6.335,1.808c5.083,0,7.54-2.841,7.54-6.85C87.945,51.958,85.08,50.547,82.367,49.158Z" style="fill:#003f45"/><path d="M114.142,58.347a1.629,1.629,0,0,1-.03-.394h0V52.384c0-2.3-.37-3.978-1.594-5.027a6.424,6.424,0,0,0-4.662-1.57,15.946,15.946,0,0,0-5.98,1.461,4.885,4.885,0,0,0,.274,1.593,7.374,7.374,0,0,0,.6,1.493,18.743,18.743,0,0,1,4.792-1.21c2.6,0,2.612,1.627,2.612,2.732v.43c-6.356,0-8.735,2.3-8.735,5.464a4.741,4.741,0,0,0,4.463,5h.109a7.2,7.2,0,0,0,4.947-1.69,3.656,3.656,0,0,0,3.116,1.53,5.882,5.882,0,0,0,1.669-.218,4.839,4.839,0,0,0,.4-2.7A1.687,1.687,0,0,1,114.142,58.347Zm-6.6,1.361a2.075,2.075,0,0,1-2.218-1.923,1.864,1.864,0,0,1,0-.317c0-2,2.361-2.919,4.827-2.642V58.78A3.865,3.865,0,0,1,107.545,59.708Z" style="fill:#003f45"/><path d="M158.009,50.89a6.182,6.182,0,0,0-1.76-.466,4.854,4.854,0,0,0,1.339-.609,4.655,4.655,0,0,0,1.153-1.06,5.241,5.241,0,0,0,1.091-3.257,5.8,5.8,0,0,0-.576-2.7,4.833,4.833,0,0,0-1.621-1.806,7.1,7.1,0,0,0-2.513-1.014,15.612,15.612,0,0,0-3.241-.312q-1.439,0-2.842.094a17.416,17.416,0,0,0-2.185.249l.01,22.415q1.246.154,2.649.263t2.587.11a17.821,17.821,0,0,0,3.57-.343,8.629,8.629,0,0,0,2.9-1.123,5.73,5.73,0,0,0,1.948-2.041,6.127,6.127,0,0,0,.718-3.071,6.42,6.42,0,0,0-.451-2.541A5.138,5.138,0,0,0,158.009,50.89ZM150,42.285c.272-.041.6-.073.983-.092s.787-.032,1.2-.032a5.443,5.443,0,0,1,3.258.874,3.063,3.063,0,0,1,1.2,2.649,3.358,3.358,0,0,1-1.122,2.759,5,5,0,0,1-3.243.919l-2.28,0Zm7.456,15.761a3.335,3.335,0,0,1-1.185,1.215,5.207,5.207,0,0,1-1.73.64,11.252,11.252,0,0,1-2.1.186c-.436,0-.874-.011-1.325-.03S150.293,60,150,59.963l0-7.981h2.622a10.186,10.186,0,0,1,2.09.2,4.6,4.6,0,0,1,1.668.685,3.394,3.394,0,0,1,1.105,1.279,4.25,4.25,0,0,1,.406,1.95A3.917,3.917,0,0,1,157.453,58.046Z" style="fill:#003f45"/><path d="M186.26,46.06a5.707,5.707,0,0,0-3.211.951,6.043,6.043,0,0,0-1.106.95,6.337,6.337,0,0,0-.8,1.061,11.3,11.3,0,0,0-.094-1.326c-.062-.53-.123-.951-.187-1.262-.229-.042-.441-.072-.638-.093-.212-.021-.426-.031-.639-.031-.233,0-.452.01-.67.031s-.441.051-.671.093l-.008,16a7.279,7.279,0,0,0,.78.093c.291.021.55.033.779.032s.483-.011.765-.032a7.066,7.066,0,0,0,.765-.093v-8.1a7.727,7.727,0,0,1,.358-2.513,4.839,4.839,0,0,1,.952-1.7,3.675,3.675,0,0,1,1.37-.966,4.413,4.413,0,0,1,1.653-.312,2.418,2.418,0,0,1,2.185,1.044,6.065,6.065,0,0,1,.685,3.258v9.289a7.066,7.066,0,0,0,.765.093c.282.021.533.033.765.032s.488-.011.78-.032a7.328,7.328,0,0,0,.781-.093V52.294a7.134,7.134,0,0,0-1.311-4.659A4.969,4.969,0,0,0,186.26,46.06Z" style="fill:#003f45"/><path d="M200.519,53.915l6.824-7.479c-.291-.042-.576-.074-.857-.094s-.577-.031-.889-.031c-.3,0-.572.009-.842.031s-.54.052-.809.094l-6.461,6.758V39.576a7.291,7.291,0,0,0-.779-.093c-.291-.02-.551-.031-.779-.031s-.485.01-.764.031a7.534,7.534,0,0,0-.765.093v22.85a7.536,7.536,0,0,0,.765.094c.28.021.533.029.764.029s.488-.008.779-.029a7.56,7.56,0,0,0,.779-.094v-7.8l6.846,7.805c.293.042.582.072.875.093s.579.03.874.03.572-.009.841-.03.551-.051.841-.093Z" style="fill:#003f45"/><path d="M174.888,58.413V52.531c0-4.08-1.61-6.427-5.831-6.427a10.762,10.762,0,0,0-5.7,1.839,4.052,4.052,0,0,0,.837,2.354,10.055,10.055,0,0,1,4.9-1.538c2.551,0,3.112,1.738,2.915,4.012-6.654-.487-9.048,1.653-9.048,4.836a4.717,4.717,0,0,0,4.315,5.085c.1.008.2.013.306.015a6.077,6.077,0,0,0,4.692-1.919,2.539,2.539,0,0,0,2.431,1.868,5.834,5.834,0,0,0,1.656-.219s.4-.537.122-2.166C175.317,60.453,174.8,59.693,174.888,58.413Zm-6.763,1.8a2.385,2.385,0,0,1-2.513-2.247,2.123,2.123,0,0,1,0-.319c0-2.541,3.95-2.78,6.4-2.506V58.4A5.163,5.163,0,0,1,168.125,60.214Z" style="fill:#003f45"/></svg>