<svg xmlns="http://www.w3.org/2000/svg" xmlns:xlink="http://www.w3.org/1999/xlink" viewBox="0 0 247.17 84.966"><defs><clipPath id="a"><rect x="4.585" y="2.484" width="238.11" height="83.319" style="fill:none"/></clipPath></defs><title>MyState Bank</title><g style="clip-path:url(#a)"><path d="M205.46,33.8a99.949,99.949,0,0,1-14.191,5.115l10.884,18.851,18.414-31.895A157.272,157.272,0,0,1,205.46,33.8" style="fill:#00984d"/><path d="M192.169,34.017a114.933,114.933,0,0,0,12.886-2.851c7.111-2,15.514-5.292,15.514-5.292H183.737Z" style="fill:#72bf44"/><path d="M85.19,52.725c-1.412,0-2.285-.292-2.285-3.123V43.519h3.6a8.841,8.841,0,0,0,.121-1.486,6.455,6.455,0,0,0-.121-1.371h-3.6V37.207a11.664,11.664,0,0,0-1.93-.148,10.024,10.024,0,0,0-1.846.148v3.462H77.137a4.044,4.044,0,0,0-.179,1.53c0,1.163.179,1.32.179,1.32h1.992v6.974c0,1.841.361,3.168,1.28,3.982A5.784,5.784,0,0,0,84.382,55.7a9.03,9.03,0,0,0,2.4-.242,4.009,4.009,0,0,0,.186-1.525,5.572,5.572,0,0,0-.171-1.483,4.861,4.861,0,0,1-1.606.279" style="fill:#003f45"/><path d="M110.173,52.725c-1.412,0-2.285-.292-2.285-3.123V43.519h3.6a8.841,8.841,0,0,0,.121-1.486,6.455,6.455,0,0,0-.121-1.371h-3.6V37.207a11.679,11.679,0,0,0-1.93-.148,10.024,10.024,0,0,0-1.846.148v3.462H102.12a4.064,4.064,0,0,0-.178,1.53c0,1.163.178,1.32.178,1.32h1.992v6.974c0,1.841.361,3.168,1.28,3.982a5.784,5.784,0,0,0,3.973,1.221,9.03,9.03,0,0,0,2.4-.242,4.009,4.009,0,0,0,.186-1.525,5.572,5.572,0,0,0-.171-1.483,4.861,4.861,0,0,1-1.606.279" style="fill:#003f45"/><path d="M44.239,34.707a11.732,11.732,0,0,0-2.091.148L37.261,46.948,32.41,34.855a11.716,11.716,0,0,0-2.089-.148,13.2,13.2,0,0,0-2.089.148l-.8,20.669a9.472,9.472,0,0,0,1.772.147,7.584,7.584,0,0,0,1.659-.147l.416-14.782,4.454,10.471a6.306,6.306,0,0,0,1.561.143,6.083,6.083,0,0,0,1.541-.143l4.455-10.462.007.014L43.7,55.524a7.566,7.566,0,0,0,1.657.147,9.472,9.472,0,0,0,1.774-.147l-.8-20.669a13.21,13.21,0,0,0-2.088-.148" style="fill:#003f45"/><path d="M60.362,40.373h-.09c-1.554,0-1.692.19-1.692.19L55.5,51.1l-3.29-10.542s-.054-.186-1.786-.186H50.4c-1.849,0-1.748.316-1.748.316L53.711,55.3,51.53,61.969a3.764,3.764,0,0,0,1.58.5,4.973,4.973,0,0,0,2.038-.364l7.007-21.4s0-.327-1.793-.327" style="fill:#003f45"/><path d="M116.848,46.5c0-1.785.948-3.175,2.71-3.175,1.913,0,2.678,1.438,2.678,3.175Zm2.888-6.181c-3.428,0-6.691,2.216-6.691,7.877,0,5.636,3.11,7.675,7.3,7.675a12.386,12.386,0,0,0,5.033-1.374s-.155-.938-.307-1.476a5.624,5.624,0,0,0-.5-1.256,10.5,10.5,0,0,1-4.154,1.205,3.349,3.349,0,0,1-3.592-3.625H125.7c.037-.209.07-.493.1-.847s.042-.713.042-1.078c0-4.192-2.424-7.1-6.1-7.1" style="fill:#003f45"/><path d="M71.258,43.4c-1.646-.839-3.358-1.684-3.358-3.157a2.585,2.585,0,0,1,2.689-2.589,6.745,6.745,0,0,1,4.051,1.464,9.448,9.448,0,0,0,1.591-2.891,10.859,10.859,0,0,0-5.694-1.733c-3.611,0-6.55,2.224-6.55,6.1,0,3.407,2.534,4.645,4.96,5.829,1.733.867,3.5,1.709,3.5,3.5,0,1.589-1.368,2.58-3.245,2.58a8.437,8.437,0,0,1-4.785-1.83,7.4,7.4,0,0,0-1.013,1.46,10,10,0,0,0-.675,1.434c.322.237.632.447.938.645a12.051,12.051,0,0,0,5.8,1.662c4.651,0,6.9-2.6,6.9-6.269,0-3.638-2.622-4.929-5.105-6.2" style="fill:#003f45"/><path d="M96.69,52.207a3.538,3.538,0,0,1-2.388.849,1.9,1.9,0,0,1-2.029-2.05c0-1.832,2.161-2.671,4.417-2.418Zm3.619-.758V46.354c0-2.107-.338-3.64-1.458-4.6a5.88,5.88,0,0,0-4.266-1.437,14.6,14.6,0,0,0-5.472,1.337,4.468,4.468,0,0,0,.25,1.458,6.789,6.789,0,0,0,.552,1.366A17.173,17.173,0,0,1,94.3,43.371c2.378,0,2.39,1.489,2.39,2.5v.393c-5.816,0-7.993,2.1-7.993,5a4.338,4.338,0,0,0,4.182,4.582A6.592,6.592,0,0,0,97.406,54.3a3.343,3.343,0,0,0,2.851,1.4,5.363,5.363,0,0,0,1.527-.2,4.427,4.427,0,0,0,.363-2.468,1.544,1.544,0,0,1-1.838-1.578" style="fill:#003f45"/><path d="M133.153,53.289c.266.038.6.068,1.013.086s.813.028,1.212.028a10.3,10.3,0,0,0,1.926-.171,4.738,4.738,0,0,0,1.583-.585,3.042,3.042,0,0,0,1.084-1.112,3.572,3.572,0,0,0,.4-1.782A3.888,3.888,0,0,0,140,47.969a3.11,3.11,0,0,0-1.012-1.17,4.189,4.189,0,0,0-1.526-.627,9.3,9.3,0,0,0-1.912-.186h-2.4Zm2.082-9.7a4.577,4.577,0,0,0,2.967-.841,3.073,3.073,0,0,0,1.027-2.525,2.8,2.8,0,0,0-1.1-2.424,4.973,4.973,0,0,0-2.981-.8c-.38,0-.746.011-1.1.029s-.651.047-.9.085V43.59Zm-4.963-8.557a16.149,16.149,0,0,1,2-.228q1.284-.086,2.6-.086a14.282,14.282,0,0,1,2.966.285,6.5,6.5,0,0,1,2.3.928,4.43,4.43,0,0,1,1.483,1.653,5.293,5.293,0,0,1,.527,2.469,4.823,4.823,0,0,1-.271,1.64,4.746,4.746,0,0,1-.727,1.34,4.268,4.268,0,0,1-1.055.97,4.457,4.457,0,0,1-1.226.557,5.65,5.65,0,0,1,1.611.427,4.7,4.7,0,0,1,2.539,2.553,5.863,5.863,0,0,1,.414,2.325,5.613,5.613,0,0,1-.657,2.81,5.232,5.232,0,0,1-1.783,1.868,7.887,7.887,0,0,1-2.652,1.027,16.23,16.23,0,0,1-3.267.314q-1.083,0-2.367-.1t-2.425-.241Z" style="fill:#003f45"/><path d="M159,40.909c.21-.038.414-.066.614-.085s.4-.028.613-.028a5.638,5.638,0,0,1,.585.028c.18.019.374.047.584.085.058.285.114.67.171,1.155a10.522,10.522,0,0,1,.086,1.213,5.79,5.79,0,0,1,.728-.97,5.574,5.574,0,0,1,1.012-.87,5.227,5.227,0,0,1,2.938-.87,4.547,4.547,0,0,1,3.708,1.441,6.527,6.527,0,0,1,1.2,4.264v9.271a6.767,6.767,0,0,1-.715.085q-.4.028-.713.029c-.21,0-.442-.01-.7-.029a6.747,6.747,0,0,1-.7-.085v-8.5a5.55,5.55,0,0,0-.627-2.981,2.216,2.216,0,0,0-2-.956,4.038,4.038,0,0,0-1.512.286,3.354,3.354,0,0,0-1.254.884,4.423,4.423,0,0,0-.871,1.555,7.1,7.1,0,0,0-.328,2.3v7.416a6.7,6.7,0,0,1-.7.085q-.387.028-.7.029c-.21,0-.446-.01-.713-.029a6.725,6.725,0,0,1-.713-.085Z" style="fill:#003f45"/><path d="M173.778,34.634a6.692,6.692,0,0,1,.7-.085q.384-.029.7-.029c.208,0,.446.01.712.029a6.662,6.662,0,0,1,.713.085V55.543a6.909,6.909,0,0,1-.713.086c-.266.019-.5.027-.712.027s-.443-.008-.7-.027a6.956,6.956,0,0,1-.7-.086Z" style="fill:#003f45"/><path d="M179.379,47.755l6.628,7.788c-.265.038-.523.066-.769.085s-.5.028-.77.028-.532-.009-.8-.028-.532-.047-.8-.085l-7.233-8.249v.817l6.883-7.2c.247-.038.494-.066.741-.086s.5-.028.77-.028c.286,0,.557.01.814.028s.518.048.784.086Z" style="fill:#003f45"/><path d="M153.289,51.854a4.722,4.722,0,0,1-3.552,1.665,2.183,2.183,0,0,1-2.3-2.348c0-2.325,3.615-2.544,5.852-2.293Zm2.636.02V46.488c0-3.733-1.473-5.881-5.335-5.881a9.851,9.851,0,0,0-5.216,1.683,3.7,3.7,0,0,0,.766,2.154,9.2,9.2,0,0,1,4.482-1.407c2.334,0,2.847,1.59,2.667,3.671-6.089-.446-8.279,1.513-8.279,4.425a4.315,4.315,0,0,0,4.228,4.667,5.559,5.559,0,0,0,4.294-1.756,2.321,2.321,0,0,0,2.224,1.709,5.3,5.3,0,0,0,1.515-.2s.365-.491.112-1.982c-1.065.167-1.537-.529-1.458-1.7" style="fill:#003f45"/></g></svg>