<svg xmlns="http://www.w3.org/2000/svg" viewBox="0 0 176 60"><title>Newcastle Permanent</title><path d="M31.7,0,0,14.6V45.7H12.8V60h9V45.7H50.4V23L31.7,14.1,12.8,23V36.4H9.1V20.6L31.7,9.9,54.1,20.5V45.6h9v-31ZM21.8,29l9.9-4.7,9.7,4.8v7.3H21.8Zm56-14.4H75.1v8.6c-.2-.3-5.3-8.6-5.3-8.6H66.9V27.8h2.8V19.2c.2.3,5.3,8.6,5.3,8.6h2.9l-.1-13.2Zm12.1,0H80.2V27.8h9.9V25.3H83.2V22.2h6.2V19.8H83.2V17.1H90l-.1-2.5Zm17.9,0H105s-2,8.5-2.1,8.8l-2.2-8.8H98s-2.1,8.4-2.2,8.7c-.1-.4-2-8.7-2-8.7h-3l3.4,13.2h3s2-8.4,2.1-8.7c.1.3,2.1,8.7,2.1,8.7h2.9l3.5-13.2Zm.1,6.7c0,4,2.6,6.8,6.4,6.8a5.5,5.5,0,0,0,5.7-5.4v-.1h-2.9v.1a2.9,2.9,0,0,1-2.9,2.9c-2.5,0-3.4-2.2-3.4-4.3,0-1,.2-4.4,3.4-4.4a2.632,2.632,0,0,1,2.7,2.2v.1h2.9v-.1a5.259,5.259,0,0,0-5.6-4.8C110.5,14.3,107.9,17.1,107.9,21.3Zm24.9-3c0,2.5,2,3.3,3.9,3.8l.8.2c1.6.4,2.9.7,2.9,1.9,0,1.4-1.9,1.6-2.4,1.6-.8,0-2.8-.2-2.8-2.3v-.1h-2.9v.1a4.143,4.143,0,0,0,1.2,3.1,6.056,6.056,0,0,0,4.4,1.6c3.3,0,5.4-1.6,5.4-4.2,0-2.9-2.7-3.6-3.8-3.8h-.1l-.3-.1c-3-.8-3.5-.9-3.5-1.8,0-1,1-1.4,1.9-1.4,1.6,0,2.4.6,2.5,1.9v.1h2.9v-.1c0-2.7-1.9-4.3-5.2-4.3C135.2,14.3,132.8,15.7,132.8,18.3Zm21.3-3.7H143.5v2.5h3.8V27.7h3V17.1h3.8V14.6Zm4.4,0h-2.9V27.8h9.2V25.3h-6.3V14.6Zm17.3,0h-9.7V27.8H176V25.3h-6.9V22.2h6.2V19.8h-6.2V17.1h6.8l-.1-2.5ZM72.5,32.6H66.8V45.8h2.9V41.1h2.8a4.029,4.029,0,0,0,4.4-4.2C76.8,34.8,75.7,32.6,72.5,32.6Zm-.8,6.1H69.6V34.9h2.1c1.2,0,2.3.2,2.3,1.9C74.1,38.5,72.9,38.7,71.7,38.7Zm15.8-6.1H78.2V45.8h9.5V43.3H81V40.2h6V37.8H81V35.1h6.5V32.6Zm12.7,13a5.5,5.5,0,0,1-.5-2.6v-.4c-.1-1.7-.7-2.7-1.8-3.1a3.274,3.274,0,0,0,1.9-3.3,3.63,3.63,0,0,0-3.7-3.7H89.4V45.7h2.9V40.6H95c1.3,0,1.8.5,2,1.9l.1,1.1a13.268,13.268,0,0,0,.3,2.1h2.9Zm-5-7.1H92.3V35h2.9c1.2,0,1.8.6,1.8,1.7A1.591,1.591,0,0,1,95.2,38.5Zm20.2-5.9h-3.9s-2.6,8.6-2.7,8.9c-.1-.3-2.9-8.9-2.9-8.9H102V45.8h2.7V36.9c.2.5,3,8.9,3,8.9h2.2s2.8-8.5,3-9v9h2.7l-.2-13.2Zm8.6,0h-2.9l-4.8,13.2h2.9s.9-2.8,1-2.9h4.5c0,.1.9,2.9.9,2.9h3Zm-3,8c.1-.2,1.5-4.3,1.5-4.6.1.2,1.4,4.4,1.5,4.6Zm6.4-25.9h-2.9l-4.8,13.2h2.9s.9-2.8,1-2.9h4.5c0,.1.9,2.9.9,2.9h3Zm-3,8c.1-.2,1.5-4.3,1.5-4.6.1.2,1.4,4.4,1.5,4.6Zm15.7,9.9h-2.6v8.6c-.2-.3-5.1-8.6-5.1-8.6h-2.8V45.8h2.7V37.2c.2.3,5.1,8.6,5.1,8.6h2.8l-.1-13.2Zm11.7,0h-9.3V45.8H152V43.3h-6.7V40.2h6V37.8h-6V35.1h6.5V32.6Zm12.4,0h-2.6v8.6c-.2-.3-5.1-8.6-5.1-8.6h-2.8V45.8h2.7V37.2c.2.3,5.1,8.6,5.1,8.6h2.8l-.1-13.2Zm11.6,0H165.6v2.5h3.7V45.7h2.9V35.1h3.7l-.1-2.5Z"/></svg>
