<svg xmlns="http://www.w3.org/2000/svg" viewBox="0 0 280 100"><title>Newcastle Permanent</title><path d="M83.7,20,52,34.6V65.7H64.8V80h9V65.7h28.6V43L83.7,34.1,64.8,43V56.4H61.1V40.6L83.7,29.9l22.4,10.6V65.6h9v-31ZM73.8,49l9.9-4.7,9.7,4.8v7.3H73.8Zm56-14.4h-2.7v8.6c-.2-.3-5.3-8.6-5.3-8.6h-2.9V47.8h2.8V39.2c.2.3,5.3,8.6,5.3,8.6h2.9Zm12.1,0h-9.7V47.8h9.9V45.3h-6.9V42.2h6.2V39.8h-6.2V37.1H142Zm17.9,0H157s-2,8.5-2.1,8.8l-2.2-8.8H150s-2.1,8.4-2.2,8.7c-.1-.4-2-8.7-2-8.7h-3l3.4,13.2h3s2-8.4,2.1-8.7c.1.3,2.1,8.7,2.1,8.7h2.9Zm.1,6.7c0,4,2.6,6.8,6.4,6.8a5.5,5.5,0,0,0,5.7-5.3l0-.1v-.1h-2.9v.1a2.9,2.9,0,0,1-2.9,2.9h0c-2.5,0-3.4-2.2-3.4-4.3,0-1,.2-4.4,3.4-4.4a2.632,2.632,0,0,1,2.7,2.2v.1h2.9v-.1a5.259,5.259,0,0,0-5.6-4.8C162.5,34.3,159.9,37.1,159.9,41.3Zm24.9-3c0,2.5,2,3.3,3.9,3.8l.8.2c1.6.4,2.9.7,2.9,1.9,0,1.4-1.9,1.6-2.4,1.6-.8,0-2.8-.2-2.8-2.3v-.1h-2.9v.1a4.145,4.145,0,0,0,1.2,3.1,6.055,6.055,0,0,0,4.4,1.6c3.3,0,5.4-1.6,5.4-4.2,0-2.9-2.7-3.6-3.8-3.8h-.1l-.3-.1c-3-.8-3.5-.9-3.5-1.8,0-1,1-1.4,1.9-1.4,1.6,0,2.4.6,2.5,1.9v.1h2.9v-.1c0-2.7-1.9-4.3-5.2-4.3C187.2,34.3,184.8,35.7,184.8,38.3Zm21.3-3.7H195.5v2.5h3.8V47.7h3V37.1h3.8Zm4.4,0h-2.9V47.8h9.2V45.3h-6.3Zm17.3,0h-9.7V47.8H228V45.3h-6.9V42.2h6.2V39.8h-6.2V37.1h6.8Zm-103.3,18h-5.7V65.8h2.9V61.1h2.8a4.03,4.03,0,0,0,4.387-3.636,4.086,4.086,0,0,0,.013-.564C128.8,54.8,127.7,52.6,124.5,52.6Zm-.8,6.1h-2.1V54.9h2.1c1.2,0,2.3.2,2.3,1.9C126.1,58.5,124.9,58.7,123.7,58.7Zm15.8-6.1h-9.3V65.8h9.5V63.3H133V60.2h6V57.8h-6V55.1h6.5Zm12.7,13a5.494,5.494,0,0,1-.5-2.6v-.4c-.1-1.7-.7-2.7-1.8-3.1a3.274,3.274,0,0,0,1.9-3.3,3.63,3.63,0,0,0-3.559-3.7H141.4V65.7h2.9V60.6H147c1.3,0,1.8.5,2,1.9l.1,1.1a13.279,13.279,0,0,0,.3,2.1h2.9Zm-5-7.1h-2.9V55h2.9c1.2,0,1.8.6,1.8,1.7a1.591,1.591,0,0,1-1.35,1.8A1.615,1.615,0,0,1,147.2,58.5Zm20.2-5.9h-3.9s-2.6,8.6-2.7,8.9c-.1-.3-2.9-8.9-2.9-8.9H154V65.8h2.7V56.9c.2.5,3,8.9,3,8.9h2.2s2.8-8.5,3-9v9h2.7Zm8.6,0h-2.9l-4.8,13.2h2.9s.9-2.8,1-2.9h4.5c0,.1.9,2.9.9,2.9h3Zm-3,8c.1-.2,1.5-4.3,1.5-4.6.1.2,1.4,4.4,1.5,4.6Zm6.4-25.9h-2.9l-4.8,13.2h2.9s.9-2.8,1-2.9h4.5c0,.1.9,2.9.9,2.9h3Zm-3,8c.1-.2,1.5-4.3,1.5-4.6.1.2,1.4,4.4,1.5,4.6Zm15.7,9.9h-2.6v8.6c-.2-.3-5.1-8.6-5.1-8.6h-2.8V65.8h2.7V57.2c.2.3,5.1,8.6,5.1,8.6h2.8l-.1-13.2Zm11.7,0h-9.3V65.8H204V63.3h-6.7V60.2h6V57.8h-6V55.1h6.5V52.6Zm12.4,0h-2.6v8.6c-.2-.3-5.1-8.6-5.1-8.6h-2.8V65.8h2.7V57.2c.2.3,5.1,8.6,5.1,8.6h2.8l-.1-13.2Zm11.6,0H217.6v2.5h3.7V65.7h2.9V55.1h3.7Z"/></svg>