<svg xmlns="http://www.w3.org/2000/svg" viewBox="0 0 280 100"><title>Pepper Money</title><path d="M77.942,38.986A11.553,11.553,0,0,1,69.78,35.74c-2.085-2.168-2.355-5.069-5.922-4.493a2.3,2.3,0,0,0-1.616,1.4V48.977s-.465,6.009,6.2,6.009c.467,0,.631-.412.631-.851V41.1a12.163,12.163,0,0,0,5.406.85c9.3-.3,11.743-7.6,11.743-13.088C86.036,33.817,83.457,38.9,77.942,38.986Z" style="fill:#006140"/><path d="M129.469,15.007s-5.57-.3-8.972,3.073a10.89,10.89,0,0,0-3.1,6.365v.439c0,2.14,3.046,3.046,5.022,1.756,2.661-1.784,2.414-4.17,6.311-4.418,4.006-.247,5.844,3.238,5.844,6.613,0,3.348-1.838,6.86-5.844,6.613-3.925-.247-3.622-2.634-6.311-4.418-1.949-1.29-5.022-.329-5.022,1.756V48.977s-.466,6.009,6.2,6.009c.467,0,.631-.412.631-.851V41.1a12.163,12.163,0,0,0,5.406.85c9.328-.3,11.742-7.655,11.742-13.116C141.378,23.541,138.415,15.336,129.469,15.007Zm28.647,0s-5.571-.3-8.973,3.073a10.89,10.89,0,0,0-3.1,6.365v.439c0,2.14,3.046,3.046,5.022,1.756,2.662-1.784,2.414-4.17,6.311-4.418,4.006-.247,5.844,3.238,5.844,6.613,0,3.348-1.838,6.86-5.844,6.613-3.924-.247-3.622-2.634-6.311-4.418-1.948-1.29-5.022-.329-5.022,1.756V48.977s-.466,6.009,6.2,6.009c.466,0,.631-.412.631-.851V41.1a12.16,12.16,0,0,0,5.405.85c9.329-.3,11.743-7.655,11.743-13.116C170.024,23.541,167.061,15.336,158.116,15.007Zm59.021,1.015a25.67,25.67,0,0,0-3.347-.247,11.474,11.474,0,0,0-6.475,1.866l-.3-.768a1.266,1.266,0,0,0-1.153-.824h-2.936a.874.874,0,0,0-.85.851V40.5a.874.874,0,0,0,.85.851h5.1a.874.874,0,0,0,.85-.851V24.145a4.444,4.444,0,0,1,4.144-2.085,16.879,16.879,0,0,1,2.14.192,1.034,1.034,0,0,0,1.125-.658l1.481-4.665a.767.767,0,0,0-.6-.9h0Zm-114.667-.3c-9.658,0-12.65,7.656-12.65,12.952,0,5.46,2.991,13.006,12.65,13.006a13.971,13.971,0,0,0,9-3.348.934.934,0,0,0,.164-1.262L109.3,33.885a.851.851,0,0,0-1.185-.208h0l-.022.016a10.526,10.526,0,0,1-5.625,1.784c-3.293,0-5.158-2.579-5.571-5.57H111.88a.868.868,0,0,0,.905-.829v-.022a18.46,18.46,0,0,0,.165-2.442C112.951,20.028,109.219,15.72,102.47,15.72ZM97.092,25.846a5.391,5.391,0,0,1,5.378-4.007c2.936.055,3.649,1.921,3.7,4.007ZM186.707,15.72c-9.657,0-12.649,7.656-12.649,12.952,0,5.46,2.991,13.006,12.649,13.006a13.971,13.971,0,0,0,9-3.348.935.935,0,0,0,.165-1.262l-2.333-3.183a.851.851,0,0,0-1.185-.208h0l-.022.016a10.521,10.521,0,0,1-5.625,1.784c-3.292,0-5.158-2.579-5.57-5.57h14.982a.867.867,0,0,0,.9-.829v-.022a18.126,18.126,0,0,0,.165-2.442C197.189,20.028,193.43,15.72,186.707,15.72ZM181.33,25.846a5.39,5.39,0,0,1,5.377-4.007c2.936.055,3.65,1.921,3.7,4.007ZM74.288,15.007s-5.569-.3-8.972,3.073a10.894,10.894,0,0,0-3.1,6.365v.439c0,2.14,3.046,3.046,5.021,1.756,2.662-1.784,2.415-4.17,6.311-4.418,4.006-.247,5.845,3.238,5.845,6.613,0,3.348-1.839,6.86-5.845,6.613-3.924-.247-3.621-2.634-6.311-4.418-1.921-1.262-4.884-.357-4.994,1.619.055-.412.878-1.043,1.619-1.18,3.567-.576,3.7,2.3,5.817,4.473a11.824,11.824,0,0,0,8.259,3.292c5.487-.082,8.287-5.377,8.287-10.372v-.027C86.225,23.541,83.234,15.336,74.288,15.007Z" style="fill:#de1f28"/><path d="M111.877,64.365a6.586,6.586,0,0,0-4.825,2.138c-.9-1.3-2.284-2.138-4.682-2.138a6.921,6.921,0,0,0-4.739,2.022L97.2,65a.63.63,0,0,0-.578-.4h-.376a.445.445,0,0,0-.433.433v13.58a.443.443,0,0,0,.433.433h1.532a.443.443,0,0,0,.433-.433V68.641a4.729,4.729,0,0,1,4.045-2.225c3.323.231,3.178,3.179,3.265,4.623v7.572a.445.445,0,0,0,.433.433h1.5a.444.444,0,0,0,.433-.433V71.59a17.1,17.1,0,0,0-.2-3.091,4.519,4.519,0,0,1,4.074-2.139c3.236.231,3.265,3,3.265,4.536v7.713a.442.442,0,0,0,.433.433h1.531a.444.444,0,0,0,.434-.433V71.588C117.425,68.352,117.165,64.365,111.877,64.365Z" style="fill:#231f20"/><path d="M128.043,64.421c-5.5,0-7.167,4.4-7.167,7.426,0,3.11,1.669,7.426,7.167,7.426,5.526,0,7.167-4.316,7.167-7.426C135.21,68.826,133.569,64.421,128.043,64.421Zm0,12.838c-4.174,0-4.778-4-4.778-5.412s.6-5.411,4.778-5.411c4.231,0,4.807,4,4.807,5.411S132.274,77.258,128.043,77.259Z" style="fill:#231f20"/><path d="M145.771,64.42a6.39,6.39,0,0,0-4.719,2.015l-.432-1.382a.625.625,0,0,0-.575-.4h-.375a.44.44,0,0,0-.431.431V78.611a.44.44,0,0,0,.431.431H141.2a.44.44,0,0,0,.431-.431V68.766a5.344,5.344,0,0,1,4-2.158c3.828,0,3.742,3.512,3.742,5.037V78.61a.443.443,0,0,0,.432.432h1.554a.443.443,0,0,0,.432-.432V71.616C151.787,68.248,151.067,64.42,145.771,64.42Z" style="fill:#231f20"/><path d="M161.976,64.363c-5.526,0-7.167,4.4-7.167,7.426,0,3.109,1.641,7.483,7.167,7.483a7.488,7.488,0,0,0,5.268-1.87.482.482,0,0,0,.057-.634l-.662-.836-.016-.02a.416.416,0,0,0-.588-.036,6.586,6.586,0,0,1-4.058,1.381c-3.541,0-4.692-3.223-4.779-5.066h9.959a.474.474,0,0,0,.489-.431,10.476,10.476,0,0,0,.087-1.324C167.733,66.781,165.689,64.363,161.976,64.363Zm3.454,6.131h-8.174c.4-1.871,1.554-4.088,4.692-4.088A3.369,3.369,0,0,1,165.43,70.494Z" style="fill:#231f20"/><path d="M184,64.651h-1.843a.7.7,0,0,0-.6.4l-4.375,10.909-4.519-10.909a.7.7,0,0,0-.6-.4h-1.726a.288.288,0,0,0-.12.026.285.285,0,0,0-.14.377l5.843,13.7L173.431,84.6a.288.288,0,0,0-.026.12.284.284,0,0,0,.285.282h1.67a.651.651,0,0,0,.6-.4l8.289-19.544a.265.265,0,0,0,.026-.12h0A.283.283,0,0,0,184,64.651Z" style="fill:#231f20"/></svg>