<svg xmlns="http://www.w3.org/2000/svg" viewBox="0 0 556.635 306.158"><title>Pepper Money</title><rect width="556.635" height="306.158" style="fill:none"/><path d="M108.55,131.13c-7.951.15-16.762-3.174-22.313-8.875-5.7-5.926-6.436-13.856-16.187-12.281-2.1.375-4.343,2.711-4.418,3.836v44.63s-1.275,16.427,16.952,16.427c1.275,0,1.725-1.125,1.725-2.325V136.913s5.251,2.625,14.777,2.325c25.428-.825,32.1-20.778,32.1-35.779C130.676,117,123.627,130.905,108.55,131.13Z" style="fill:#006140"/><path d="M249.407,65.579s-15.227-.825-24.528,8.4c-5.1,5.026-8.176,12.452-8.476,17.4v1.2c0,5.851,8.326,8.326,13.727,4.8,7.275-4.876,6.6-11.4,17.252-12.076,10.951-.676,15.976,8.851,15.976,18.077,0,9.151-5.025,18.752-15.976,18.077-10.727-.675-9.9-7.2-17.252-12.077-5.326-3.525-13.727-.9-13.727,4.8V158.44s-1.275,16.427,16.952,16.427c1.275,0,1.725-1.125,1.725-2.325V136.913s5.251,2.625,14.777,2.325c25.5-.825,32.1-20.928,32.1-35.854C281.961,88.907,273.86,66.479,249.407,65.579Zm78.309,0s-15.227-.825-24.528,8.4c-5.1,5.026-8.176,12.452-8.476,17.4v1.2c0,5.851,8.326,8.326,13.727,4.8,7.276-4.876,6.6-11.4,17.252-12.076,10.951-.676,15.977,8.851,15.977,18.077,0,9.151-5.026,18.752-15.977,18.077-10.727-.675-9.9-7.2-17.252-12.077-5.326-3.525-13.727-.9-13.727,4.8V158.44s-1.275,16.427,16.952,16.427c1.275,0,1.725-1.125,1.725-2.325V136.913s5.251,2.625,14.777,2.325c25.5-.825,32.1-20.928,32.1-35.854C360.27,88.907,352.169,66.479,327.716,65.579ZM489.06,68.354a70.158,70.158,0,0,0-9.151-.675,31.364,31.364,0,0,0-17.7,5.1l-.825-2.1a3.461,3.461,0,0,0-3.151-2.251h-8.026a2.388,2.388,0,0,0-2.325,2.326v64.507a2.387,2.387,0,0,0,2.325,2.326h13.952a2.387,2.387,0,0,0,2.325-2.326v-44.7c2.626-4.425,6.9-5.7,11.327-5.7a45.819,45.819,0,0,1,5.85.525,2.829,2.829,0,0,0,3.076-1.8l4.05-12.751A2.1,2.1,0,0,0,489.06,68.354ZM175.6,67.529c-26.4,0-34.579,20.928-34.579,35.405,0,14.926,8.176,35.554,34.579,35.554,9.376,0,16.877-3.151,24.6-9.151a2.555,2.555,0,0,0,.45-3.451l-6.376-8.7a2.326,2.326,0,0,0-3.3-.525,28.784,28.784,0,0,1-15.377,4.876c-9,0-14.1-7.051-15.227-15.227h40.955a2.372,2.372,0,0,0,2.475-2.325,49.926,49.926,0,0,0,.45-6.676C204.251,79.306,194.05,67.529,175.6,67.529ZM160.9,95.208c2.1-6.376,6.9-10.952,14.7-10.952,8.026.15,9.976,5.251,10.126,10.952ZM405.875,67.529c-26.4,0-34.579,20.928-34.579,35.405,0,14.926,8.176,35.554,34.579,35.554,9.376,0,16.877-3.151,24.6-9.151a2.555,2.555,0,0,0,.45-3.451l-6.376-8.7a2.326,2.326,0,0,0-3.3-.525,28.784,28.784,0,0,1-15.377,4.876c-9,0-14.1-7.051-15.227-15.227H431.6a2.372,2.372,0,0,0,2.475-2.325,49.762,49.762,0,0,0,.451-6.676C434.529,79.306,424.252,67.529,405.875,67.529Zm-14.7,27.679c2.1-6.376,6.9-10.952,14.7-10.952,8.026.15,9.976,5.251,10.126,10.952ZM98.564,65.579s-15.227-.825-24.528,8.4c-5.1,5.026-8.176,12.452-8.476,17.4v1.2c0,5.851,8.326,8.326,13.727,4.8,7.276-4.876,6.6-11.4,17.252-12.076,10.951-.676,15.977,8.851,15.977,18.077,0,9.151-5.026,18.752-15.977,18.077-10.727-.675-9.9-7.2-17.252-12.077-5.251-3.45-13.352-.975-13.652,4.426.15-1.125,2.4-2.85,4.426-3.226,9.751-1.575,10.126,6.3,15.9,12.227,5.551,5.7,14.627,9.151,22.578,9,15-.225,22.653-14.7,22.653-28.353v-.075C131.193,88.907,123.017,66.479,98.564,65.579Z" style="fill:#de1f28"/><path d="M163.953,239.444a1.215,1.215,0,0,1-1.185,1.185h-4.186a1.215,1.215,0,0,1-1.185-1.185V202.321a1.215,1.215,0,0,1,1.185-1.184h1.027a1.718,1.718,0,0,1,1.58,1.106l1.184,3.791a18.921,18.921,0,0,1,12.954-5.529c6.556,0,10.347,2.291,12.8,5.845,4.5-4.424,8.846-5.845,13.19-5.845,14.454,0,15.165,10.9,15.165,19.746v19.193a1.215,1.215,0,0,1-1.185,1.185h-4.186a1.214,1.214,0,0,1-1.184-1.185V218.356c0-4.186-.08-11.769-8.926-12.4a12.358,12.358,0,0,0-11.137,5.846,46.751,46.751,0,0,1,.553,8.45v19.193a1.215,1.215,0,0,1-1.184,1.185H185.12a1.215,1.215,0,0,1-1.184-1.185V218.751c-.237-3.949.158-12.006-8.925-12.638a12.929,12.929,0,0,0-11.058,6.082Z" style="fill:#231f20"/><path d="M265.1,220.958c0,8.5-4.485,20.3-19.592,20.3-15.029,0-19.593-11.8-19.593-20.3,0-8.262,4.564-20.3,19.593-20.3C260.615,200.658,265.1,212.7,265.1,220.958Zm-6.452,0c0-3.855-1.575-14.792-13.14-14.792-11.41,0-13.062,10.937-13.062,14.792s1.652,14.793,13.062,14.793C257.073,235.751,258.648,224.814,258.648,220.958Z" style="fill:#231f20"/><path d="M282.643,239.449a1.21,1.21,0,0,1-1.18,1.18h-4.17a1.21,1.21,0,0,1-1.18-1.18V202.467a1.21,1.21,0,0,1,1.18-1.18h1.023a1.714,1.714,0,0,1,1.574,1.1l1.18,3.777a17.476,17.476,0,0,1,12.9-5.508c14.478,0,16.445,10.465,16.445,19.671v19.12a1.21,1.21,0,0,1-1.18,1.18h-4.249a1.21,1.21,0,0,1-1.18-1.18V220.408c0-4.17.236-13.77-10.229-13.77-4.878,0-9.521,3.619-10.937,5.9Z" style="fill:#231f20"/><path d="M352.825,234.413a1.312,1.312,0,0,1-.156,1.731,20.476,20.476,0,0,1-14.4,5.114c-15.107,0-19.592-11.959-19.592-20.457,0-8.261,4.485-20.3,19.592-20.3,10.149,0,15.736,6.609,15.736,16.6a28.779,28.779,0,0,1-.236,3.62,1.3,1.3,0,0,1-1.338,1.18H325.208c.236,5.036,3.384,13.848,13.062,13.848a17.993,17.993,0,0,0,11.094-3.777,1.139,1.139,0,0,1,1.652.157ZM325.366,217.26h22.346c.629-4.878-1.338-10.78-9.521-11.173C329.614,206.087,326.467,212.146,325.366,217.26Z" style="fill:#231f20"/><path d="M379.811,232.21l11.96-29.821a1.913,1.913,0,0,1,1.653-1.1h5.036a.775.775,0,0,1,.707,1.1l-22.66,53.426a1.778,1.778,0,0,1-1.652,1.1h-4.564a.776.776,0,0,1-.709-1.1l6.767-15.973-15.972-37.453a.776.776,0,0,1,.708-1.1h4.721a1.915,1.915,0,0,1,1.653,1.1Z" style="fill:#231f20"/></svg>
