<svg xmlns="http://www.w3.org/2000/svg" viewBox="0 0 280 100"><title>P&amp;amp;N Bank</title><path d="M133.726,41.576c-2.666,0-4.549,2.346-4.549,6.291,0,4.692,1.848,6.292,4.656,6.292,2.63,0,4.372-2.133,4.372-5.83,0-4.869-1.635-6.753-4.479-6.753M133.3,60.415c-8.211,0-12.192-4.479-12.192-11.552V27.5h1.99c4.586,0,6.007,1.351,6.007,5.225v5.652c1.351-1.742,2.844-3.27,6.114-3.27,6.54,0,11.232,4.549,11.232,12.334.036,8-5.474,12.974-13.151,12.974m28.4-10.486h-1.67c-3.128,0-4.408.782-4.408,2.381,0,1.529.96,2.311,3.27,2.311,1.493,0,2.773-.747,2.773-2.915V49.929Zm-3.661,10.486c-4.621,0-10.237-2.169-10.237-7.642,0-5.332,3.839-8.034,12.548-8.034h1.173v-.995c0-1.955-1.529-2.453-4.8-2.453-4.479,0-6.149,1.031-7.856,2.631h-.213V41.007c0-2.95,3.093-5.936,9.953-5.936,6.611,0,10.948,3.341,10.948,10.415v3.7c0,8.745-2.808,11.233-11.517,11.233m13.543-.64V46.694c0-7.109,3.448-11.587,11.943-11.587,7.642,0,12.192,4.478,12.192,11.374v8.424c0,3.484-1.955,4.87-5.51,4.87h-2.772V46.339c0-2.915-1.315-4.55-3.7-4.55-2.772,0-3.874,1.422-3.874,4.656V54.87c0,3.661-1.138,4.869-4.8,4.869h-3.483Zm35.012-27.441V45.983a72.44,72.44,0,0,1,6.327-8.6c1.03-1.138,1.884-1.6,4.407-1.6h5.794v.213A130.613,130.613,0,0,0,214.2,46.8a65.5,65.5,0,0,0,4.479,6.327c1.777,2.062,2.488,2.275,4.3,2.7-.32,2.666-2.1,4.159-5.048,4.159a6.189,6.189,0,0,1-4.265-1.67,93.717,93.717,0,0,1-7.073-9.989v11.41h-3.271a4.665,4.665,0,0,1-5.011-4.869V27.5h3.2c3.732,0,5.083,2.453,5.083,4.834" style="fill:#77777a"/><path d="M102.162,27.5c-7.82,0-12.369,2.915-14.36,7.855C84.923,30.379,79.52,27.5,72.873,27.5c-10.734,0-16,5.9-16,15.142V72.5h2.63c5.972,0,7.856-1.777,7.856-6.825V56.4c1.777,2.275,3.7,4.266,8,4.266a14,14,0,0,0,11.162-4.941V59.81h4.549c4.8,0,6.256-1.6,6.256-6.4V42.393c0-4.229,1.422-6.113,5.083-6.113,3.128,0,4.834,2.1,4.834,5.936V59.775h3.661c4.621,0,7.18-1.813,7.18-6.4V42.358C118.122,33.4,112.115,27.5,102.162,27.5ZM73.371,52.133c-3.484,0-5.936-3.093-5.936-8.211,0-6.149,2.381-8.211,6.114-8.211,3.412,0,5.687,2.808,5.687,7.642C79.236,49.68,77.1,52.133,73.371,52.133Z" style="fill:#e2231a"/><path d="M92.636,50.391a4.015,4.015,0,0,0,1.138-2.168,2.021,2.021,0,0,0-1.92-2.559l-.391-.072a4.126,4.126,0,0,1-1.1,2.453l-.035-.036s-1.28-1.421-2.2-2.381A4.458,4.458,0,0,0,90.9,41.54a4.586,4.586,0,1,0-7.82,3.2,5.411,5.411,0,0,0-2.524,4.515c0,3.447,2.275,4.976,5.261,4.976a5.916,5.916,0,0,0,4.194-1.457,7.52,7.52,0,0,0,.853.71,3.949,3.949,0,0,0,2.382.747,2.026,2.026,0,0,0,2.239-2.275v-.427a3.446,3.446,0,0,1-2.844-1.137ZM86.06,51.1a1.847,1.847,0,0,1-1.99-1.991,2.189,2.189,0,0,1,1-1.777L87.8,50.355A2.641,2.641,0,0,1,86.06,51.1Zm.072-7.784a6.614,6.614,0,0,1-.96-1.067,1.234,1.234,0,0,1-.249-.533,1.47,1.47,0,0,1,1.085-1.773l.017,0A1.487,1.487,0,0,1,87.8,41.067a1.47,1.47,0,0,1,.036.3C87.838,42.145,87.376,42.607,86.132,43.318Z" style="fill:#fff"/></svg>