<svg xmlns="http://www.w3.org/2000/svg" viewBox="0 0 468 156"><title>p&amp;amp;n bank</title><path d="M216.2,69c-7.5,0-12.8,6.6-12.8,17.7,0,13.2,5.2,17.7,13.1,17.7,7.4,0,12.3-6,12.3-16.4,0-13.7-4.6-19-12.6-19M215,122c-23.1,0-34.3-12.6-34.3-32.5V29.4h5.6c12.9,0,16.9,3.8,16.9,14.7V60c3.8-4.9,8-9.2,17.2-9.2,18.4,0,31.6,12.8,31.6,34.7.1,22.5-15.4,36.5-37,36.5m79.9-29.5h-4.7c-8.8,0-12.4,2.2-12.4,6.7,0,4.3,2.7,6.5,9.2,6.5,4.2,0,7.8-2.1,7.8-8.2v-5ZM284.6,122c-13,0-28.8-6.1-28.8-21.5,0-15,10.8-22.6,35.3-22.6h3.3V75.1c0-5.5-4.3-6.9-13.5-6.9-12.6,0-17.3,2.9-22.1,7.4h-.6V67.4c0-8.3,8.7-16.7,28-16.7,18.6,0,30.8,9.4,30.8,29.3V90.4c0,24.6-7.9,31.6-32.4,31.6m38.1-1.8V83.4c0-20,9.7-32.6,33.6-32.6,21.5,0,34.3,12.6,34.3,32v23.7c0,9.8-5.5,13.7-15.5,13.7h-7.8V82.4c0-8.2-3.7-12.8-10.4-12.8-7.8,0-10.9,4-10.9,13.1v23.7c0,10.3-3.2,13.7-13.5,13.7h-9.8ZM421.2,43V81.4c5.5-8.2,11.2-17,17.8-24.2,2.9-3.2,5.3-4.5,12.4-4.5h16.3v.6c-4.2,4.3-19,21.6-25.1,30.4,3.9,5.9,8,12.4,12.6,17.8,5,5.8,7,6.4,12.1,7.6-.9,7.5-5.9,11.7-14.2,11.7-3.4,0-9.2-1.4-12-4.7-7.6-8.8-13.5-18.4-19.9-28.1v32.1H412c-8.6,0-14.1-5.6-14.1-13.7v-77h9c10.5,0,14.3,6.9,14.3,13.6" style="fill:#77777a"/><path d="M127.4,29.4c-22,0-34.8,8.2-40.4,22.1-8.1-14-23.3-22.1-42-22.1C14.8,29.4,0,46,0,72v84H7.4c16.8,0,22.1-5,22.1-19.2V110.7c5,6.4,10.4,12,22.5,12,13,0,24-4.9,31.4-13.9v11.5H96.2c13.5,0,17.6-4.5,17.6-18v-31c0-11.9,4-17.2,14.3-17.2,8.8,0,13.6,5.9,13.6,16.7v49.4H152c13,0,20.2-5.1,20.2-18v-31C172.3,46,155.4,29.4,127.4,29.4Zm-81,69.3c-9.8,0-16.7-8.7-16.7-23.1,0-17.3,6.7-23.1,17.2-23.1,9.6,0,16,7.9,16,21.5C62.9,91.8,56.9,98.7,46.4,98.7Z" style="fill:#e2231a"/><path d="M100.6,93.8a11.294,11.294,0,0,0,3.2-6.1c.7-4.8-2-6.7-5.4-7.2l-1.1-.2a11.611,11.611,0,0,1-3.1,6.9l-.1-.1s-3.6-4-6.2-6.7a12.537,12.537,0,0,0,7.8-11.5,12.9,12.9,0,1,0-22,9,15.224,15.224,0,0,0-7.1,12.7c0,9.7,6.4,14,14.8,14,5.2,0,9.2-1.6,11.8-4.1a21.183,21.183,0,0,0,2.4,2,11.126,11.126,0,0,0,6.7,2.1c4.8,0,6.3-3,6.3-6.4V97c-3.5.1-5.5-.8-8-3.2Zm-18.5,2c-3.2,0-5.6-1.9-5.6-5.6a6.161,6.161,0,0,1,2.8-5L87,93.7A7.424,7.424,0,0,1,82.1,95.8Zm.2-21.9a18.776,18.776,0,0,1-2.7-3,3.479,3.479,0,0,1-.7-1.5,4.136,4.136,0,0,1,3.1-5,4.185,4.185,0,0,1,5.1,4C87.1,70.6,85.8,71.9,82.3,73.9Z" style="fill:#fff"/></svg>