<svg xmlns="http://www.w3.org/2000/svg" xmlns:xlink="http://www.w3.org/1999/xlink" viewBox="0 0 280 100"><defs><linearGradient id="a" x1="30.885" y1="-393.932" x2="78.681" y2="-393.932" gradientTransform="matrix(1, 0, 0, -1, 0, -348)" gradientUnits="userSpaceOnUse"><stop offset="0" stop-color="#da2128"/><stop offset="0.522" stop-color="#ed6c30"/><stop offset="1" stop-color="#f05123"/></linearGradient><linearGradient id="b" x1="57.792" y1="-394.753" x2="62.01" y2="-383.249" gradientTransform="matrix(1, 0, 0, -1, 0, -348)" gradientUnits="userSpaceOnUse"><stop offset="0" stop-color="#fff"/><stop offset="1" stop-color="#1d1d1b"/></linearGradient><linearGradient id="c" x1="32.316" y1="-404.479" x2="91.768" y2="-418.778" gradientTransform="matrix(1, 0, 0, -1, 0, -348)" gradientUnits="userSpaceOnUse"><stop offset="0" stop-color="#00a7e0"/><stop offset="0.365" stop-color="#0068aa"/><stop offset="0.473" stop-color="#13549d"/><stop offset="0.583" stop-color="#1f4794"/><stop offset="0.686" stop-color="#234391"/><stop offset="0.739" stop-color="#224794"/><stop offset="0.794" stop-color="#1d549e"/><stop offset="0.849" stop-color="#1668af"/><stop offset="0.905" stop-color="#0c85c5"/><stop offset="0.957" stop-color="#00a7e0"/></linearGradient><linearGradient id="d" x1="58.917" y1="-371.002" x2="47.832" y2="-406.375" gradientTransform="matrix(1, 0, 0, -1, 0, -348)" gradientUnits="userSpaceOnUse"><stop offset="0" stop-color="#e31936"/><stop offset="0.904" stop-color="#870015"/><stop offset="1" stop-color="#870015"/></linearGradient></defs><title>Resimac</title><g style="isolation:isolate"><path d="M54.784,26.017a28.536,28.536,0,0,0-5.3.5c13,1.666,22.575,7.348,22.575,14.105,0,8.065-13.638,14.6-30.461,14.6a62.009,62.009,0,0,1-8.294-.552c3.884,6.618,12.041,11.177,21.477,11.177,13.2,0,23.4-8.483,23.9-19.915C78.681,34.933,67.982,26.017,54.784,26.017Z" style="fill:url(#a)"/><path d="M54.784,26.017a28.536,28.536,0,0,0-5.3.5c13,1.666,22.575,7.348,22.575,14.105,0,8.065-13.638,14.6-30.461,14.6a62.009,62.009,0,0,1-8.294-.552c3.884,6.618,12.041,11.177,21.477,11.177,13.2,0,23.492-8.583,23.9-19.915C78.681,34.933,67.982,26.017,54.784,26.017Z" style="mix-blend-mode:multiply;fill:url(#b)"/><path d="M41.789,66.774c8.963,3.251,35.147,17.739,39.937,2.088.542-1.769,2.359-15.093.805-10-2.9,9.472-26.565-1.622-32-3.489C39.65,51.657,31.166,47,27.563,60.59c0,0-.2.429.155.593Z" style="fill:url(#c)"/><path d="M72.637,28.5c-9.11-6.164-18.823-5.281-27.514-1.638A55.042,55.042,0,0,0,26.784,38.788a9.429,9.429,0,0,0-.844.92l-.01.012h0A5.57,5.57,0,0,0,24.7,42.3c-.214,1.408-.1,10.037.43,8.808A16.2,16.2,0,0,1,28.66,47l.016-.005v-.009c9.882-9.443,24.937-10.276,24.937-10.276,27.109-.461,20.97,20.3,20.97,20.3C87.978,38.974,72.637,28.5,72.637,28.5Z" style="fill:url(#d)"/><path d="M99.839,46.392h-.083a6.279,6.279,0,0,0,.083-1.1V44.14c0-2-1.105-2.807-3.1-2.807H90.23V47.5h1.616a.882.882,0,0,1,.178,0,.852.852,0,0,1,.757.936v14.8h7.357V54.941a9.948,9.948,0,0,1,.382-2.976,5.531,5.531,0,0,1,5.659-3.828,7.9,7.9,0,0,1,1.488.127v-7.23a4.873,4.873,0,0,0-.852-.085A7.6,7.6,0,0,0,99.839,46.392Z" style="fill:#5b6770"/><path d="M130.424,51.412c0-6.082-3.657-10.591-10.123-10.591-7.059,0-11.4,5.02-11.4,11.44,0,5.828,4.211,11.484,12.036,11.484a14.116,14.116,0,0,0,9.357-3.487l-2.936-4.935a10.211,10.211,0,0,1-5.826,2.3,4.88,4.88,0,0,1-5.1-4h13.82S130.424,52.134,130.424,51.412Zm-13.782-2.255A3.521,3.521,0,0,1,120.3,46.35a2.761,2.761,0,0,1,2.594,2.807Z" style="fill:#5b6770"/><path d="M140.3,47.332c0-.68.935-1.02,1.956-1.02,1.064,0,2,.425,2,1.02v1.061h6.379V45.8c0-3.955-4.934-4.975-8.508-4.975-4.634,0-9.013,2.043-9.013,6.762,0,7.1,10.971,7.7,10.971,9.527,0,.764-.6,1.061-1.659,1.061-3.359,0-6.423-3.147-6.423-3.147l-3.273,4.723a13.268,13.268,0,0,0,9.695,4c5.105,0,8.973-2.679,8.973-7.1C151.394,49.288,140.3,49.587,140.3,47.332Z" style="fill:#5b6770"/><rect x="156.758" y="32.827" width="6.167" height="5.953" style="fill:#5b6770"/><path d="M164.321,57.068a.853.853,0,0,1-.759-.937V44.436c0-2.168-.935-3.1-3.1-3.1h-6.805V47.5h1.616a.912.912,0,0,1,.181,0,.85.85,0,0,1,.754.936v11.7c0,2.169.938,3.1,3.106,3.1h6.805V57.068H164.5A.757.757,0,0,1,164.321,57.068Z" style="fill:#5b6770"/><path d="M205.065,57.069a.85.85,0,0,1-.754-.937v-7.1c0-6.04-3.105-8.209-7.1-8.209a8.461,8.461,0,0,0-7.017,3.7h-.086a6.341,6.341,0,0,0-6.124-3.7,7.636,7.636,0,0,0-6.422,3.786h-.083a4.364,4.364,0,0,0,.043-.512v-.3c0-1.49-1.064-2.466-3.064-2.466h-6.591V47.5h1.615a.872.872,0,0,1,.177,0,.853.853,0,0,1,.759.936v14.8h7.356V54.175a12.845,12.845,0,0,1,.3-2.636c.512-2.34,1.745-4.041,3.914-4.041,1.4,0,1.7,1.148,1.7,2.766V63.235h7.358V54.176a11.369,11.369,0,0,1,.256-2.467c.469-2.423,1.745-4.209,3.955-4.209,1.405,0,1.7,1.148,1.7,2.765v9.866c0,2.169.935,3.1,3.1,3.1h6.805V57.069h-1.616A.783.783,0,0,1,205.065,57.069Z" style="fill:#5b6770"/><path d="M229.909,57.069a.851.851,0,0,1-.754-.937V49.753c0-5.017-2.51-8.931-10.165-8.931-2.508,0-8.718.256-8.718,5.147v2.423h6.805v-.977c0-.851.976-1.064,1.913-1.064,1.829,0,2.808.766,2.808,2.849v.256h-.3c-3.4,0-12.716.722-12.716,7.229,0,4.339,3.36,7.061,7.443,7.061,4.592,0,6.124-3.191,6.124-3.191h.084v.384c0,.977.766,2.3,2.892,2.3h6.379V57.069H230.09A.912.912,0,0,1,229.909,57.069Zm-8.028-2.808a4.059,4.059,0,0,1-3.613,3.87c-1.446,0-2.085-.808-2.083-1.829,0-1.745,2.68-2.381,5.017-2.381h.679Z" style="fill:#5b6770"/><path d="M252.464,54.558s-2.89,2.851-6.036,2.851c-2.722,0-5.529-1.491-5.529-5.231,0-2.933,1.869-5.275,4.975-5.275.893,0,1.7.255,1.7.935v1.149h6.378V45.968c0-3.955-5.017-5.147-8.079-5.147-8.293,0-12.375,5.657-12.376,11.441,0,6.041,4.379,11.484,12.206,11.484a13.079,13.079,0,0,0,9.695-4.254Z" style="fill:#5b6770"/></g></svg>