<svg xmlns="http://www.w3.org/2000/svg" xmlns:xlink="http://www.w3.org/1999/xlink" viewBox="0 0 793.701 252.283"><defs><linearGradient id="a" x1="103.574" y1="118.637" x2="234.223" y2="118.637" gradientUnits="userSpaceOnUse"><stop offset="0" stop-color="#da2128"/><stop offset="0.522" stop-color="#ed6c30"/><stop offset="1" stop-color="#f05123"/></linearGradient><linearGradient id="b" x1="177.121" y1="120.881" x2="188.65" y2="89.437" gradientUnits="userSpaceOnUse"><stop offset="0" stop-color="#fff"/><stop offset="1" stop-color="#1d1d1b"/></linearGradient><linearGradient id="c" x1="107.485" y1="147.467" x2="269.994" y2="186.555" gradientUnits="userSpaceOnUse"><stop offset="0" stop-color="#00a7e0"/><stop offset="0.365" stop-color="#0068aa"/><stop offset="0.473" stop-color="#13549d"/><stop offset="0.583" stop-color="#1f4794"/><stop offset="0.686" stop-color="#234391"/><stop offset="0.739" stop-color="#224794"/><stop offset="0.794" stop-color="#1d549e"/><stop offset="0.849" stop-color="#1668af"/><stop offset="0.905" stop-color="#0c85c5"/><stop offset="0.957" stop-color="#00a7e0"/></linearGradient><linearGradient id="d" x1="180.187" y1="55.958" x2="149.887" y2="152.647" gradientUnits="userSpaceOnUse"><stop offset="0" stop-color="#e31936"/><stop offset="0.904" stop-color="#870015"/><stop offset="1" stop-color="#870015"/></linearGradient></defs><title>Resimac</title><g style="isolation:isolate"><path d="M168.9,64.2a78.063,78.063,0,0,0-14.478,1.359c35.534,4.554,61.708,20.087,61.708,38.557,0,22.045-37.279,39.916-83.265,39.916a169.157,169.157,0,0,1-22.672-1.51c10.618,18.09,32.913,30.552,58.707,30.552,36.078,0,63.963-23.187,65.325-54.437C234.223,88.572,204.976,64.2,168.9,64.2Z" style="fill:url(#a)"/><path d="M168.9,64.2a78.063,78.063,0,0,0-14.478,1.359c35.534,4.554,61.708,20.087,61.708,38.557,0,22.045-37.279,39.916-83.265,39.916a169.157,169.157,0,0,1-22.672-1.51c10.618,18.09,32.913,30.552,58.707,30.552,36.078,0,64.214-23.461,65.325-54.437C234.223,88.572,204.976,64.2,168.9,64.2Z" style="mix-blend-mode:multiply;fill:url(#b)"/><path d="M133.379,175.61c24.5,8.886,96.073,48.487,109.167,5.706,1.482-4.836,6.448-41.255,2.2-27.343-7.924,25.891-72.614-4.433-87.483-9.536-29.73-10.149-52.923-22.872-62.772,14.268,0,0-.537,1.172.426,1.622Z" style="fill:url(#c)"/><path d="M217.7,70.993c-24.9-16.848-51.452-14.434-75.209-4.477-27.908,11.5-44.379,26.654-50.127,32.593a26.012,26.012,0,0,0-2.309,2.515l-.027.033h0a15.237,15.237,0,0,0-3.351,7.057c-.586,3.848-.283,27.436,1.176,24.076C90.4,128,94,124.888,97.492,121.55l.042-.014v-.026C124.548,95.7,165.7,93.421,165.7,93.421c74.1-1.259,57.319,55.5,57.319,55.5C259.636,99.62,217.7,70.993,217.7,70.993Z" style="fill:url(#d)"/><path d="M272.763,125.476a2.325,2.325,0,0,0-2.556-2.556h-4.416V106.066h17.783c5.461,0,8.484,2.208,8.484,7.673v3.138a17.249,17.249,0,0,1-.228,3.019h.228c2.557-8.136,10.116-14.88,19.068-14.88a13.543,13.543,0,0,1,2.328.234v19.763a21.5,21.5,0,0,0-4.068-.348c-4.77,0-12.563,1.512-15.468,10.464a27.17,27.17,0,0,0-1.044,8.136v22.668H272.763Z" style="fill:#5b6770"/><path d="M347.988,104.668c17.675,0,27.671,12.324,27.671,28.949,0,1.974-.468,6.042-.468,6.042H337.416c1.506,7.56,7.548,10.932,13.944,10.932,8.6,0,15.924-6.282,15.924-6.282l8.027,13.488a38.585,38.585,0,0,1-25.577,9.533c-21.39,0-32.9-15.461-32.9-31.391C316.836,118.389,328.692,104.668,347.988,104.668Zm7.092,22.787c0-3.72-2.9-7.674-7.092-7.674-5.808,0-8.713,3.258-10,7.674Z" style="fill:#5b6770"/><path d="M390.9,143.5s8.375,8.6,17.555,8.6c2.9,0,4.536-.81,4.536-2.9,0-5-29.988-6.624-29.988-26.04,0-12.9,11.97-18.485,24.636-18.485,9.768,0,23.255,2.79,23.255,13.6v7.091H413.457v-2.9c0-1.626-2.557-2.79-5.466-2.79-2.79,0-5.346.93-5.346,2.79,0,6.162,30.336,5.346,30.336,25.458,0,12.09-10.573,19.415-24.528,19.415-17.2,0-26.5-10.931-26.5-10.931Z" style="fill:#5b6770"/><path d="M446.131,125.476a2.322,2.322,0,0,0-2.556-2.556h-4.416V106.066h18.6c5.928,0,8.484,2.556,8.484,8.484v31.967a2.331,2.331,0,0,0,2.561,2.562h4.416v16.854h-18.6c-5.928,0-8.49-2.557-8.49-8.484Zm1.512-42.66H464.5V99.088H447.643Z" style="fill:#5b6770"/><path d="M484.973,125.476a2.327,2.327,0,0,0-2.556-2.556H478V106.066h18.018c5.466,0,8.375,2.67,8.375,6.743v.811a12,12,0,0,1-.119,1.4h.228c2.795-4.187,8.141-10.349,17.555-10.349,7.56,0,13.6,3.372,16.74,10.116h.234a23.131,23.131,0,0,1,19.182-10.116c10.926,0,19.415,5.928,19.415,22.439v19.41a2.325,2.325,0,0,0,2.556,2.562H584.6v16.854H566c-5.928,0-8.485-2.557-8.485-8.484v-26.97c0-4.421-.815-7.559-4.655-7.559-6.042,0-9.528,4.883-10.812,11.507a31.371,31.371,0,0,0-.7,6.744v24.762H521.237V130.479c0-4.421-.811-7.559-4.645-7.559-5.928,0-9.3,4.649-10.7,11.045a35.187,35.187,0,0,0-.811,7.206v24.762H484.973Z" style="fill:#5b6770"/><path d="M624.612,128.271h.815v-.7c0-5.694-2.675-7.788-7.673-7.788-2.562,0-5.232.582-5.232,2.91v2.67h-18.6v-6.624c0-13.368,16.974-14.069,23.832-14.069,20.922,0,27.785,10.7,27.785,24.413v17.436a2.325,2.325,0,0,0,2.556,2.562h4.416v16.854H635.075c-5.813,0-7.907-3.606-7.907-6.276v-1.05h-.229s-4.187,8.723-16.739,8.723c-11.16,0-20.346-7.44-20.346-19.3C589.854,130.245,615.312,128.271,624.612,128.271Zm-8.832,23.712c5.231,0,9.876-5.694,9.876-10.578v-.93H623.8c-6.39,0-13.716,1.74-13.716,6.51C610.08,149.775,611.826,151.983,615.78,151.983Z" style="fill:#5b6770"/><path d="M691.239,104.668c8.37,0,22.085,3.258,22.085,14.069v8.251H695.889v-3.139c0-1.859-2.208-2.556-4.65-2.556-8.49,0-13.6,6.4-13.6,14.418,0,10.224,7.674,14.3,15.114,14.3,8.6,0,16.5-7.794,16.5-7.794l8.022,13.488a35.75,35.75,0,0,1-26.5,11.627c-21.395,0-33.365-14.879-33.365-31.391C657.411,120.13,668.571,104.668,691.239,104.668Z" style="fill:#5b6770"/></g></svg>
