<svg xmlns="http://www.w3.org/2000/svg" viewBox="0 0 280 100"><title>St. George</title><path d="M105.847,43.764a6.951,6.951,0,0,0-5.424-4.076c-1.076-.134-3.062.579-3,2.158.072,1.9,1.435,1.862,4.99,3.271,2.851,1.142,4.823,2.551,4.777,5.886-.07,4.815-3.244,6.253-6.865,6.253a13.042,13.042,0,0,1-5.956-1.488s-.021-4.6-.017-5.025c0,0,1.823,5.081,6.176,5.213a2.921,2.921,0,0,0,3.152-2.671,2.823,2.823,0,0,0,0-.4c-.037-1.932-2.557-2.5-6.413-4.318a5.211,5.211,0,0,1-3.075-5.03,5.6,5.6,0,0,1,5.938-5.242,5.68,5.68,0,0,1,.917.134,17.057,17.057,0,0,1,4.793,1.705ZM118.9,41.488h-3.829v9.47c0,3.273,1.349,3.821,3.366,3.821a3.957,3.957,0,0,0,2.83-1.448l.8.246A6.727,6.727,0,0,1,116.6,57.4a5.738,5.738,0,0,1-5.541-3.1,6.883,6.883,0,0,1-.434-3.037V41.484l-1.862-.014a73.023,73.023,0,0,0,6.308-6.793v4.8l4.6.012,1.781-.591Zm4.345,12.65,2.963-2.9,2.661,2.9-2.959,2.907Zm40.534-8.276c-.133-3.116-1.581-5.268-3.6-5.268s-3.379,2.02-3.518,5.268Zm-7.153,1.053c0,3.424.526,5.046,2.1,6.672a5.251,5.251,0,0,0,3.77,1.585,6.753,6.753,0,0,0,5.882-3.6h.8a9.385,9.385,0,0,1-8.868,5.752,8.676,8.676,0,0,1-9.038-8.3c-.007-.158-.01-.315-.008-.472a8.924,8.924,0,0,1,8.831-9.015c.131,0,.262,0,.393,0a8.259,8.259,0,0,1,8.69,7.376Zm19.4,1.053a9.881,9.881,0,0,0,1.833,6.848,4.071,4.071,0,0,0,2.795,1.273A4.554,4.554,0,0,0,183.7,54.6a10.606,10.606,0,0,0,1.582-6.236c0-4.914-1.709-7.721-4.628-7.721-2.795,0-4.628,2.9-4.628,7.328m14.468.352c0,5.222-4.171,9-9.881,9-5.628,0-9.8-3.778-9.8-8.913a8.944,8.944,0,0,1,9.005-8.883c.154,0,.307.006.461.015,5.962,0,10.216,3.646,10.216,8.781M204.3,44.451a2.449,2.449,0,0,0-1.586-.5,5.667,5.667,0,0,0-3.41,2.131v6.76c0,1.93.393,2.414,2.325,2.938a2.42,2.42,0,0,1,.53.132v.747H191.915v-.747c2.2-.526,2.766-1.186,2.766-3.07V44.107a2.838,2.838,0,0,0-3.027-3.248l7.655-2v6.108l.782-1.51c1.635-2.853,2.857-4.217,4.966-4.064a2.773,2.773,0,0,1,1.885.84Zm34,1.411c-.132-3.116-1.577-5.268-3.6-5.268s-3.379,2.02-3.517,5.268Zm-7.4,1.053c0,3.424.528,5.046,2.107,6.672a5.253,5.253,0,0,0,3.769,1.585,6.758,6.758,0,0,0,5.882-3.6h.789a9.378,9.378,0,0,1-8.866,5.752,8.69,8.69,0,0,1-9.035-8.33c-.006-.15-.008-.3-.006-.451a8.927,8.927,0,0,1,8.848-9.006c.123,0,.246,0,.369,0a8.254,8.254,0,0,1,8.69,7.376ZM208.411,64.241a4.488,4.488,0,0,0,3.285,2.774,12.194,12.194,0,0,0,7.388,0c2.462-.747,4.229-2.327,3.7-3.993-.7-2.191-5.334-3.757-10.138-2.514-2.938.762-4.581,1.978-4.242,3.724m3.247-18.846c-.122,2.9,1.415,5.228,3.248,5.313,2.288.1,3.476-1.934,3.583-5.443.094-2.93-1.5-5.04-3.417-5.1s-3.274,1.974-3.414,5.23m14.313-4.045-5.421-.426a5.735,5.735,0,0,1,2.568,4.91,6.076,6.076,0,0,1-1.583,4.074,7.1,7.1,0,0,1-5.793,1.986c-4.045.13-5.007.48-5.007,1.752,0,.923,1.128,1.539,3.3,1.846l3.792.525c4.8.621,7.209,2.81,7.209,6.058,0,4.39-4.08,7.206-10.211,7.206-5.379,0-8.793-1.764-8.793-4.793a4.509,4.509,0,0,1,3.039-4.124,10.6,10.6,0,0,1,3.377-.827v-.087c-3.879-.439-5.5-1.622-5.5-3.907,0-1.975,1.448-3.161,5.172-4.036v-.087c-3.629-1.241-5.212-2.988-5.212-5.839a7.111,7.111,0,0,1,7.63-6.551c.14.011.28.025.419.044,10.473.987,13.1.387,13.1.387Zm-91.449,23.1a4.494,4.494,0,0,0,3.284,2.773,12.2,12.2,0,0,0,7.384,0c2.468-.739,4.233-2.319,3.71-3.975-.694-2.2-5.336-3.757-10.138-2.516-2.938.76-4.579,1.976-4.238,3.725M137.766,45.6c-.125,2.9,1.413,5.229,3.246,5.311,2.29.106,3.476-1.932,3.585-5.443.091-2.928-1.5-5.04-3.42-5.1s-3.273,1.976-3.411,5.232m14.069-4.045-5.421-.426a5.6,5.6,0,0,1,2.567,4.912,6.079,6.079,0,0,1-1.582,4.07,7.1,7.1,0,0,1-5.793,1.986c-4.043.13-5,.484-5,1.754,0,.923,1.125,1.538,3.294,1.844l3.8.525c4.794.621,7.206,2.81,7.206,6.06,0,4.389-4.082,7.2-10.21,7.2-5.379,0-8.791-1.763-8.791-4.792a4.514,4.514,0,0,1,3.037-4.126,10.746,10.746,0,0,1,3.379-.827v-.089c-3.877-.441-5.5-1.626-5.5-3.906,0-1.976,1.449-3.16,5.173-4.039v-.087c-3.629-1.231-5.212-2.986-5.212-5.839a7.105,7.105,0,0,1,7.619-6.55c.143.011.285.026.427.045,10.475.985,13.1.385,13.1.385Z" style="fill:#c0142e"/><path d="M81.878,65.2a12.813,12.813,0,0,0,9.528,5.6c6.621.621,13.256-2.9,19.881-.62a13.356,13.356,0,0,1,7.034,6.014c-1.448-.217-2.482-1.241-3.931-1.448a16.068,16.068,0,0,0-8.288.207c-5.586,1.034-11.172,3.1-16.566.62a14.666,14.666,0,0,1-7.655-10.361" style="fill:#fab917"/><path d="M81.02,39.483c-.391,3.143-2.4,5.427-3.277,8.328a2.8,2.8,0,0,0,1.642,3.153c2.773,1.012,6.176.883,7.939,3.536a3.826,3.826,0,0,1,.25,2.9c-.25.5-.5.882-.749,1.389a13.028,13.028,0,0,1-3.157,3.784,10.817,10.817,0,0,1-5.925,2.276c-4.035,0-5.421-4.552-7.943-7.194-1.138-1.138-2.524-2.148-4.037-1.262-2.4,1.262-2.778,4.411-2.276,6.939,1.128,4.672,4.029,8.2,6.3,12.108-5.551-.373-11.1-.755-16.013-4.035a9.661,9.661,0,0,1-3.915-6.682A89.553,89.553,0,0,0,47.1,51.6c-1.386-3.532-2.276-7.57-5.172-10.092,3.281.62,6.434,2.522,9.838,1.514a2.088,2.088,0,0,0,1.26-1.763c.254-3.281-1.889-5.8-3.153-8.58a13.6,13.6,0,0,0,3.66,2.276,9.406,9.406,0,0,0,5.546.621,3.379,3.379,0,0,0,1.883-3.025V29.517c-.132-1.765-1.136-3.281-1.264-4.92.505,0,.621.379,1.012.5,3.149,1.895,4.413,6.184,8.069,6.815a4.249,4.249,0,0,0,3.279-1.521,59.786,59.786,0,0,0,5.932-6.8,23.418,23.418,0,0,0-1.639,7.7c.129,2.526,2.4,3.656,3.909,5.549a3.314,3.314,0,0,1,.757,2.646" style="fill:#7dbc2d"/><path d="M69.045,41a2.393,2.393,0,0,0,.122,4.038,2.515,2.515,0,0,0,3.027-.757,2.9,2.9,0,0,0-.253-3.155,2.013,2.013,0,0,0-2.841-.177L69.045,41" style="fill:#fff"/><path d="M80.515,56.768a1.24,1.24,0,0,0-1.26,1.133,1.2,1.2,0,0,0,1.4.961,1.222,1.222,0,0,0,.246-.073,1.615,1.615,0,0,0,.633-.621,1.369,1.369,0,0,0-.633-1.39h-.381" style="fill:#fff"/><path d="M71.231,40.752a2.462,2.462,0,0,1,1.874,2.935,2.362,2.362,0,0,1-.105.348A3.211,3.211,0,0,1,71.358,45.8c-.5.252-1.047.621-1.43.128a4.976,4.976,0,0,0,1.219-.67c.546-.464.465-.844.465-.844a10.591,10.591,0,0,1-1.725-.129,1.728,1.728,0,0,1-.927-1.891,1.8,1.8,0,0,1,2.276-1.642M48.028,36.045a6.946,6.946,0,0,1,3.741,3.817c.591,1.8,1.512,5.762-1.093,7.448a4.526,4.526,0,0,1-3.658.253,8.861,8.861,0,0,1-4.673-3.276,9.642,9.642,0,0,1,1.849.621c1.655.59,2.231,1.136,3.867.759.509,0,.844-.885.72-1.39a23.953,23.953,0,0,0-3.912-9.724,3.981,3.981,0,0,1-.621-1.637,46.645,46.645,0,0,0,3.782,3.1m4.163,2.212A19.048,19.048,0,0,1,50.8,35.724c1.267,1.254,3.867,3.358,4.966,2.05a3.64,3.64,0,0,0,.331-2.559c-.879-4.041-.5-7.821-1.258-11.6a14.452,14.452,0,0,1,4.37,12.112A4.016,4.016,0,0,1,56.6,39.8a3.691,3.691,0,0,1-4.411-1.568M64.042,31.3c2.638.557,2.859-2.069,3.747-3.831a6.724,6.724,0,0,1,2.472-2.858c2.4-1.5,4.331-3.115,6.772-4.537.5-.3.126.459.126.459-1.893,2.525-4.581,4.151-6.05,6.9-1.307,2.438-1.222,5.843-4.5,6.6a6.62,6.62,0,0,1-6.347-3.492,5.391,5.391,0,0,1-1.138-3.517c1.388,1.638,2.526,3.784,4.918,4.289m10.09,2.64a22.973,22.973,0,0,0,3.277,3.788,6.27,6.27,0,0,1,1.767,3.912c.127,2.146-1.28,3.907-1.638,6.054-.59,3.536,2.435,4.589,5.586,5.26,1.759.374,4.583,3.658,3.449,6.053a5.954,5.954,0,0,1-2.355,2.316,2.2,2.2,0,0,1-2.52-.884c1.387,0,2.016-1.638,2.52-2.774a3.267,3.267,0,0,0-.256-1.893,5.364,5.364,0,0,0-3.652-2.525C78.576,52.9,77.364,53,75.9,50.979A7.392,7.392,0,0,1,74.761,48.2c-.5-2.524,1.262-4.417,1.511-6.689a5.156,5.156,0,0,0-.878-3.279c-1.39-1.639-3.157-2.773-3.536-4.92a9.8,9.8,0,0,1,3.536-8.576c-.757,3.029-2.9,6.054-1.264,9.2M59,39.616a23.9,23.9,0,0,1,4.287-2.9A10.988,10.988,0,0,1,61.271,40a53.9,53.9,0,0,0-10.214,16.02,24.091,24.091,0,0,0-1.264,7.2,17.939,17.939,0,0,0,.887,6.806,1.839,1.839,0,0,1-.887,2.014,32.755,32.755,0,0,1-3.544.635c.01-.4.269-.505.269-.635l-.383-3.025a36.009,36.009,0,0,1,.505-8.2A34.644,34.644,0,0,1,59,39.616m14.88,15.269a41.311,41.311,0,0,0,7.566,7.322,6.191,6.191,0,0,1-2.4,2.4,14.566,14.566,0,0,1-4.285-4.92,16.449,16.449,0,0,1-2.9-7.825,26.4,26.4,0,0,1,2.021,3.031m7.564,1.136a2.288,2.288,0,0,1,.884.62,1.2,1.2,0,0,1-.507,1.389,1.242,1.242,0,0,1-1.639-.5,1.194,1.194,0,0,1,.381-1.51,1.059,1.059,0,0,1,.881,0m-13.868-.377c2.793,1.479,3.656,4.552,5.172,7.068A7.283,7.283,0,0,0,77.8,66.492a3.387,3.387,0,0,1-4.331,2.044l-.077-.029C70.5,67,70.114,63.465,68.6,60.688a3.65,3.65,0,0,0-4.958-1.437,3.839,3.839,0,0,0-.463.3c-2.524,1.765-.846,5.8.544,8.2,1.384,2.276,2.311,3.533,3.615,5.805L69.216,80A48.736,48.736,0,0,1,58.5,66.376a9.935,9.935,0,0,1-.757-6.313,7.447,7.447,0,0,1,3.153-4.413,6.367,6.367,0,0,1,6.685,0M46.011,50.6c.414,1.655,1.218,3.654.337,5.172A2.783,2.783,0,0,1,44.12,56.9a5.342,5.342,0,0,0-.5-3.91,79.469,79.469,0,0,0-6.311-8.7,3.588,3.588,0,0,1-.753-1.895,70.38,70.38,0,0,0,6.811,4.552A6.886,6.886,0,0,1,46.011,50.6" style="fill:#1d1f1d"/></svg>