<svg xmlns="http://www.w3.org/2000/svg" viewBox="0 0 100 28.996"><title>St. George Bank</title><path d="M33.493,11.486a3.359,3.359,0,0,0-2.622-1.97c-.52-.065-1.48.28-1.45,1.043.035.918.694.9,2.412,1.581,1.378.552,2.331,1.233,2.309,2.845-.034,2.327-1.568,3.022-3.318,3.022a6.306,6.306,0,0,1-2.879-.719s-.01-2.222-.008-2.429c0,0,.881,2.456,2.985,2.52a1.412,1.412,0,0,0,1.526-1.485c-.018-.934-1.236-1.207-3.1-2.087a2.519,2.519,0,0,1-1.486-2.431,2.707,2.707,0,0,1,3.313-2.469,8.248,8.248,0,0,1,2.317.824Zm6.307-1.1H37.949v4.577c0,1.582.652,1.847,1.627,1.847a1.914,1.914,0,0,0,1.368-.7l.384.119a3.251,3.251,0,0,1-2.64,1.849,2.773,2.773,0,0,1-2.678-1.5A3.331,3.331,0,0,1,35.8,15.11V10.384l-.9-.007a35.194,35.194,0,0,0,3.049-3.283l0,2.319,2.222.006.861-.286ZM41.9,16.5l1.432-1.4,1.286,1.4-1.43,1.405Zm19.591-4c-.064-1.506-.764-2.546-1.74-2.546s-1.633.976-1.7,2.546Zm-3.457.509c0,1.655.254,2.439,1.016,3.225A2.54,2.54,0,0,0,60.872,17a3.265,3.265,0,0,0,2.843-1.74H64.1a4.536,4.536,0,0,1-4.286,2.78A4.194,4.194,0,0,1,55.442,13.8,4.313,4.313,0,0,1,59.9,9.445a3.991,3.991,0,0,1,4.2,3.565Zm9.376.509a4.775,4.775,0,0,0,.886,3.31,1.969,1.969,0,0,0,1.351.615,2.2,2.2,0,0,0,1.472-.721,5.125,5.125,0,0,0,.765-3.014c0-2.375-.826-3.732-2.237-3.732-1.351,0-2.237,1.4-2.237,3.542m6.993.17c0,2.524-2.016,4.35-4.776,4.35-2.72,0-4.737-1.826-4.737-4.308a4.323,4.323,0,0,1,4.575-4.286c2.882,0,4.938,1.762,4.938,4.244m6.674-1.87a1.186,1.186,0,0,0-.767-.242,2.737,2.737,0,0,0-1.648,1.03v3.267c0,.933.19,1.167,1.124,1.42a1.171,1.171,0,0,1,.256.064v.361h-4.95v-.361c1.061-.254,1.337-.573,1.337-1.484V11.652a1.371,1.371,0,0,0-1.463-1.57l3.7-.967v2.952l.378-.73c.79-1.379,1.381-2.038,2.4-1.964a1.338,1.338,0,0,1,.911.406Zm16.435.682c-.064-1.506-.762-2.546-1.74-2.546s-1.633.976-1.7,2.546Zm-3.576.509c0,1.655.255,2.439,1.018,3.225A2.541,2.541,0,0,0,96.776,17a3.268,3.268,0,0,0,2.843-1.74H100a4.532,4.532,0,0,1-4.285,2.78,4.2,4.2,0,0,1-4.37-4.244A4.315,4.315,0,0,1,95.8,9.445,3.989,3.989,0,0,1,100,13.01ZM83.065,21.383a2.17,2.17,0,0,0,1.588,1.341,5.892,5.892,0,0,0,3.571,0c1.19-.361,2.044-1.125,1.79-1.93-.337-1.059-2.578-1.816-4.9-1.215-1.42.368-2.214.956-2.05,1.8m1.569-9.109c-.059,1.4.684,2.527,1.57,2.568,1.106.049,1.68-.935,1.732-2.631.045-1.416-.724-2.436-1.652-2.465s-1.582.954-1.65,2.528m6.918-1.955-2.62-.206a2.772,2.772,0,0,1,1.241,2.373,2.936,2.936,0,0,1-.765,1.969,3.43,3.43,0,0,1-2.8.96c-1.955.063-2.42.232-2.42.847,0,.446.545.744,1.594.892l1.833.254c2.318.3,3.484,1.358,3.484,2.928,0,2.122-1.972,3.483-4.935,3.483-2.6,0-4.25-.853-4.25-2.317a2.179,2.179,0,0,1,1.469-1.993,5.122,5.122,0,0,1,1.632-.4v-.042c-1.875-.212-2.659-.784-2.659-1.888,0-.955.7-1.528,2.5-1.951v-.042c-1.754-.6-2.519-1.444-2.519-2.822a3.437,3.437,0,0,1,3.89-3.145c5.062.477,6.333.187,6.333.187Zm-44.2,11.166a2.171,2.171,0,0,0,1.587,1.34,5.894,5.894,0,0,0,3.569,0C53.7,22.464,54.553,21.7,54.3,20.9c-.335-1.061-2.579-1.816-4.9-1.216-1.42.367-2.213.955-2.048,1.8m1.568-9.109c-.06,1.4.683,2.527,1.569,2.567,1.107.051,1.68-.934,1.733-2.631.044-1.415-.724-2.436-1.653-2.465s-1.582.955-1.649,2.529m6.8-1.955-2.62-.206a2.709,2.709,0,0,1,1.241,2.374,2.937,2.937,0,0,1-.765,1.967,3.431,3.431,0,0,1-2.8.96c-1.954.063-2.418.234-2.418.848,0,.446.544.743,1.592.891l1.835.254c2.317.3,3.483,1.358,3.483,2.929,0,2.121-1.973,3.482-4.935,3.482-2.6,0-4.249-.852-4.249-2.316a2.181,2.181,0,0,1,1.468-1.994,5.189,5.189,0,0,1,1.633-.4v-.043c-1.874-.213-2.66-.786-2.66-1.888,0-.955.7-1.527,2.5-1.952v-.042c-1.754-.595-2.519-1.443-2.519-2.822a3.434,3.434,0,0,1,3.889-3.144c5.063.476,6.334.186,6.334.186Z" style="fill:#c0142e"/><path d="M21.908,21.846a6.194,6.194,0,0,0,4.605,2.706c3.2.3,6.407-1.4,9.609-.3a6.459,6.459,0,0,1,3.4,2.907c-.7-.105-1.2-.6-1.9-.7a7.769,7.769,0,0,0-4.006.1c-2.7.5-5.4,1.5-8.007.3a7.09,7.09,0,0,1-3.7-5.008" style="fill:#fab917"/><path d="M21.493,9.417c-.189,1.519-1.158,2.623-1.584,4.025a1.353,1.353,0,0,0,.794,1.524c1.34.489,2.985.427,3.837,1.709a1.849,1.849,0,0,1,.121,1.4c-.121.242-.242.426-.362.671a6.3,6.3,0,0,1-1.526,1.829,5.225,5.225,0,0,1-2.864,1.1c-1.95,0-2.62-2.2-3.839-3.477-.55-.55-1.22-1.038-1.951-.61-1.159.61-1.343,2.132-1.1,3.354.545,2.258,1.947,3.965,3.046,5.852-2.683-.18-5.364-.365-7.74-1.95a4.671,4.671,0,0,1-1.892-3.23A43.334,43.334,0,0,0,5.1,15.271c-.67-1.707-1.1-3.659-2.5-4.878,1.586.3,3.11,1.219,4.755.732a1.009,1.009,0,0,0,.609-.852c.123-1.586-.913-2.806-1.524-4.147a6.586,6.586,0,0,0,1.769,1.1,4.549,4.549,0,0,0,2.681.3A1.634,1.634,0,0,0,11.8,6.064V4.6c-.064-.853-.549-1.586-.611-2.378.244,0,.3.183.489.243,1.522.916,2.133,2.989,3.9,3.294a2.056,2.056,0,0,0,1.585-.735A28.955,28.955,0,0,0,20.03,1.735a11.322,11.322,0,0,0-.792,3.721C19.3,6.677,20.4,7.223,21.127,8.138a1.6,1.6,0,0,1,.366,1.279" style="fill:#7dbc2d"/><path d="M15.705,10.149a1.157,1.157,0,0,0,.059,1.952,1.216,1.216,0,0,0,1.463-.366,1.4,1.4,0,0,0-.122-1.525.973.973,0,0,0-1.4-.061" style="fill:#fff"/><path d="M21.249,17.771a.6.6,0,0,0-.609.548.579.579,0,0,0,.793.429.78.78,0,0,0,.306-.3.662.662,0,0,0-.306-.672h-.184" style="fill:#fff"/><path d="M16.762,10.03a1.19,1.19,0,0,1,.855,1.587,1.553,1.553,0,0,1-.794.853c-.243.122-.506.3-.691.062a2.413,2.413,0,0,0,.589-.324c.264-.224.225-.408.225-.408a5.088,5.088,0,0,1-.834-.062.836.836,0,0,1-.448-.914.87.87,0,0,1,1.1-.794M5.547,7.755A3.358,3.358,0,0,1,7.355,9.6c.286.869.731,2.785-.528,3.6a2.187,2.187,0,0,1-1.768.122A4.283,4.283,0,0,1,2.8,11.739a4.631,4.631,0,0,1,.894.3c.8.285,1.078.549,1.869.367.246,0,.408-.428.348-.672a11.576,11.576,0,0,0-1.891-4.7,1.931,1.931,0,0,1-.3-.791,22.533,22.533,0,0,0,1.828,1.5M7.56,8.812A9.218,9.218,0,0,1,6.888,7.6c.612.606,1.869,1.623,2.4.991a1.76,1.76,0,0,0,.16-1.237c-.425-1.953-.242-3.78-.608-5.608A6.984,6.984,0,0,1,10.952,7.6a1.941,1.941,0,0,1-1.26,1.97A1.784,1.784,0,0,1,7.56,8.812M13.287,5.46c1.275.269,1.382-1,1.811-1.852a3.248,3.248,0,0,1,1.195-1.381C17.454,1.5,18.386.721,19.566.034c.244-.145.061.222.061.222-.915,1.22-2.214,2.006-2.924,3.334-.632,1.178-.591,2.824-2.175,3.19A3.2,3.2,0,0,1,11.46,5.092a2.609,2.609,0,0,1-.55-1.7c.671.792,1.221,1.829,2.377,2.073m4.877,1.276a11.1,11.1,0,0,0,1.584,1.831,3.033,3.033,0,0,1,.854,1.891c.061,1.037-.619,1.888-.792,2.926-.285,1.709,1.177,2.218,2.7,2.542.85.181,2.215,1.768,1.667,2.926a2.877,2.877,0,0,1-1.138,1.119,1.065,1.065,0,0,1-1.218-.427c.67,0,.974-.792,1.218-1.341a1.58,1.58,0,0,0-.124-.915,2.592,2.592,0,0,0-1.765-1.22c-.838-.172-1.424-.123-2.134-1.1a3.572,3.572,0,0,1-.548-1.341c-.243-1.22.61-2.135.73-3.233a2.492,2.492,0,0,0-.424-1.585c-.672-.792-1.526-1.34-1.709-2.378a4.738,4.738,0,0,1,1.709-4.145c-.366,1.464-1.4,2.926-.611,4.447M10.851,9.481a11.584,11.584,0,0,1,2.072-1.4,5.306,5.306,0,0,1-.975,1.586A26.053,26.053,0,0,0,7.011,17.41,11.647,11.647,0,0,0,6.4,20.889a8.677,8.677,0,0,0,.429,3.29.888.888,0,0,1-.429.973,15.747,15.747,0,0,1-1.713.307c.005-.191.13-.244.13-.307L4.632,23.69a17.4,17.4,0,0,1,.244-3.964A16.747,16.747,0,0,1,10.851,9.481m7.192,7.38A19.972,19.972,0,0,0,21.7,20.4a2.992,2.992,0,0,1-1.159,1.158,7.04,7.04,0,0,1-2.071-2.378,7.951,7.951,0,0,1-1.4-3.782,12.777,12.777,0,0,1,.977,1.465m3.656.549a1.1,1.1,0,0,1,.427.3.579.579,0,0,1-.245.671.6.6,0,0,1-.792-.244.577.577,0,0,1,.184-.73.514.514,0,0,1,.426,0M15,17.227c1.35.715,1.767,2.2,2.5,3.416a3.518,3.518,0,0,0,2.437,1.828,1.637,1.637,0,0,1-2.131.974c-1.4-.728-1.584-2.437-2.316-3.779a1.764,1.764,0,0,0-2.62-.548c-1.22.853-.409,2.805.263,3.962.669,1.1,1.117,1.708,1.747,2.806L15.788,29a23.554,23.554,0,0,1-5.182-6.585,4.8,4.8,0,0,1-.366-3.051,3.6,3.6,0,0,1,1.524-2.133,3.077,3.077,0,0,1,3.231,0M4.572,14.788c.2.8.589,1.766.163,2.5a1.345,1.345,0,0,1-1.077.548,2.581,2.581,0,0,0-.244-1.89,38.378,38.378,0,0,0-3.05-4.207A1.732,1.732,0,0,1,0,10.823a33.983,33.983,0,0,0,3.292,2.2,3.329,3.329,0,0,1,1.28,1.767" style="fill:#1d1f1d"/></svg>