<svg xmlns="http://www.w3.org/2000/svg" viewBox="0 0 440 98.68"><title>Suncorp Bank</title><path d="M394.077,10a24.306,24.306,0,0,0-3.465.279l3.858,18.029,4.128-17.97A25.379,25.379,0,0,0,394.077,10" style="fill:#fab60a"/><path d="M398.605,10.338l-1.9,18.341,9.485-15.817a25.4,25.4,0,0,0-7.588-2.524" style="fill:#fab60a"/><path d="M417.3,24.124a25.581,25.581,0,0,0-4.659-6.494L400.315,31.343,417.3,24.124" style="fill:#fab60a"/><path d="M382.964,12.683l9.256,15.969-1.627-18.373a25.706,25.706,0,0,0-7.629,2.4" style="fill:#fab60a"/><path d="M419.713,31.764a25.242,25.242,0,0,0-2.417-7.63l-15.964,9.234,18.381-1.6" style="fill:#fab60a"/><path d="M406.2,12.866l-7.474,16.867,13.911-12.109a25.7,25.7,0,0,0-6.437-4.758" style="fill:#fab60a"/><path d="M376.456,17.336l13.728,12.34-7.22-16.988a25.632,25.632,0,0,0-6.508,4.648" style="fill:#fab60a"/><path d="M417.135,47.355a25.2,25.2,0,0,0,2.53-7.6l-18.369-1.9,15.839,9.494" style="fill:#fab60a"/><path d="M419.715,31.764l-18.05,3.849,18,4.14a26.34,26.34,0,0,0,.332-4.49,27.453,27.453,0,0,0-.282-3.5" style="fill:#fab60a"/><path d="M412.381,53.8a25.416,25.416,0,0,0,4.752-6.44l-16.884-7.483L412.381,53.8" style="fill:#fab60a"/><path d="M406.725,58.018a25.341,25.341,0,0,0,5.656-4.223L398.742,41.582a50.184,50.184,0,0,1,7.983,16.436" style="fill:#fab60a"/><path d="M372.127,22.975a50.119,50.119,0,0,1,16.409,8.239L376.458,17.342a25.885,25.885,0,0,0-4.331,5.633" style="fill:#fab60a"/><path d="M364.313,20.539A22.433,22.433,0,0,0,374.47,40.915a22.706,22.706,0,0,0,21.622,1.67,58.359,58.359,0,0,0-31.779-22.046" style="fill:#ed192d"/><path d="M84.153,53.75c2.613,1.5,2.578,3.535,2.578,6.351V80.526c0,2.819.035,4.652-2.632,6.231v.281h9.157v-.281c-2.546-1.5-2.712-3.57-2.712-6.231V60.7c.007.211,21.056,26.707,24.788,27.982V59.848c0-2.794.043-4.6,2.633-6.1v-.288h-9.109v.288c2.569,1.453,2.734,3.453,2.734,6.1V78.314c0-.216-18.482-22.464-18.482-22.464a18.4,18.4,0,0,1-1.488-2.388H84.153" style="fill:#006862"/><path d="M317.358,53.76c2.613,1.5,2.578,3.535,2.578,6.347V80.529c0,2.819.035,4.649-2.632,6.228v.284h9.155v-.284c-2.544-1.494-2.709-3.567-2.709-6.228V60.706c.006.213,21.049,26.7,24.78,27.975V59.857c0-2.8.042-4.6,2.632-6.1v-.308h-9.1v.308c2.564,1.453,2.729,3.453,2.729,6.1V78.315c0-.215-18.476-22.457-18.476-22.457a17.844,17.844,0,0,1-1.486-2.4h-7.467" style="fill:#006862"/><path d="M149.513,80.292a22.224,22.224,0,0,1-10.77,3.2c-7.316,0-12.849-6.033-12.849-14.057,0-7.314,4.858-12.39,11.817-12.39a17.724,17.724,0,0,1,9.464,2.921V54a37.02,37.02,0,0,0-9.313-1.331c-10.53,0-17.888,7.209-17.888,17.548,0,10.865,7.451,17.642,19.465,17.642a17.98,17.98,0,0,0,7.713-1.543l2.653-6.028" style="fill:#006862"/><path d="M168.458,84.056c-7.982,0-12.932-7.46-12.932-14.376,0-7.812,5.269-13.278,12.821-13.278,8.256,0,12.7,7.466,12.7,14.5,0,7.745-5.183,13.156-12.589,13.156m13.477-26.221A18.451,18.451,0,0,0,168.722,52.6a19.175,19.175,0,0,0-13.892,5.337,17.009,17.009,0,0,0-5.24,12.233c0,10.091,8,17.694,18.6,17.694,10.548,0,18.785-7.9,18.785-17.972a16.939,16.939,0,0,0-5.044-12.056" style="fill:#006862"/><path d="M65.118,87.909c4.732,0,8.758-1.353,10.835-3.631,2.614-2.853,2.614-6.358,2.607-9.859V59.908c-.033-2.258-.089-5.315,2.189-6.158v-.288H71.193v.288c2.252.846,2.208,3.969,2.186,6.236V74.419c0,6.486-2.911,9.745-8.261,9.745-5.315,0-8.234-3.259-8.234-9.745l-.01-14.433c-.033-2.267-.083-5.39,2.188-6.236v-.288H49.51v.288c2.279.843,2.209,3.9,2.175,6.158l0,14.511c0,3.5-.016,7.006,2.625,9.859,2.07,2.278,6.1,3.631,10.812,3.631" style="fill:#006862"/><path d="M41.317,77.72c0-4.22-4.4-6.633-9.022-9.155-5.277-2.9-10.686-5.877-10.686-11.718,0-6.487,5.276-10.663,13.415-10.663a26.384,26.384,0,0,1,9.484,1.756v6.94a13.434,13.434,0,0,0-10-4.15c-4.488,0-7.614,2.19-7.614,5.319,0,3.726,3.781,5.68,8.21,7.944,5.4,2.745,11.488,5.9,11.488,13.08,0,6.273-5.2,10.823-12.361,10.823A31.156,31.156,0,0,1,21.541,85.5c-.083-.433-.492-2.376-1.016-5.012,0,0-.39-1.945-.525-2.654a19.54,19.54,0,0,0,13.487,5.516c5.086,0,7.83-2.916,7.83-5.633" style="fill:#006862"/><path d="M230.345,53.462H218v.288c2.246.915,2.2,4.005,2.17,6.283V80.541c0,.559.018,1.185-.022,1.788h.017s.071,3.961-2.123,3.531c-.844-.167-2.592-1.628-3.579-2.5A34.928,34.928,0,0,1,211,79.823l-7.3-9.19c.35-.081.705-.184,1.062-.3,3.617-1.167,7.019-4.362,7.019-8.614,0-5.016-4.155-8.259-10.579-8.259H189.074v.288c2.266.843,2.222,3.936,2.177,6.2v21c.045,2.254.089,5.009-2.177,5.8v.282h9.736v-.282c-2.055-.724-2.239-3.638-2.239-5.8V56.9c1.195-.058,1.4-.06,3.38-.136a6.457,6.457,0,0,1,4.9,1.7,5.161,5.161,0,0,1,1.609,3.863c0,5.124-5.471,6.7-8.724,7.185v.081s2.921,4.623,4.673,7.136c1.66,2.423,4.652,6.015,6.138,7.751,1.484,1.841,3.173,2.561,5.936,2.561h13.74v-.282c-2.6-1.481-2.732-3.477-2.732-6.216V57.5a28.221,28.221,0,0,1,3.482-.242c2.662,0,7.15.8,7.15,6.194,0,4.739-4.5,7.474-8.984,7.749v.082c.185.088.353.14.554.231a8.616,8.616,0,0,0,3.126.533c5.515,0,11.262-3.583,11.262-9.63,0-5.421-4.621-8.954-11.733-8.954" style="fill:#006862"/><path d="M297.588,57.911,292.58,70.66h9.968Zm-6.322,16.494-2.631,7.137c-1.064,2.832-1.416,4.3,1.01,5.209v.282h-9.307v-.282c2.931-1.469,3.793-4.3,4.906-7.185l8.45-21.1c.707-1.819,1.67-3.944-.76-4.7v-.311h7.973l10.546,26.114c1.164,2.884,2.074,5.716,4.956,7.185v.282H306.04v-.282c2.479-1.111,2.072-1.67.707-5.209l-2.729-7.137" style="fill:#006862"/><path d="M369.653,60.8c1.668-2.38,4.7-5.516,1.316-7.032v-.3h9.246L368.436,68.589,378.66,82a15.905,15.905,0,0,0,6.068,4.756v.281h-4.753c-2.482,0-4.806-1.09-5.721-2.3L363.024,69.6Zm-12.446-.1c0-2.278.3-5.97-2.278-6.93v-.311h9.715v.311c-2.583.906-2.276,4.652-2.276,6.93V79.769c0,2.329-.307,6.023,2.276,6.982v.281h-9.715v-.281c2.581-.959,2.278-4.706,2.278-6.982" style="fill:#006862"/><path d="M266.439,83.261c4.387.161,8.349-1.517,8.349-6.325,0-4.909-4.756-7.032-9.207-6.778l-3.541.2v12.5a21.389,21.389,0,0,0,4.4.405M263.71,67.017c3.285,0,7.992-1.11,7.992-5.26,0-3.489-3.555-5.08-6.276-5.01a15.906,15.906,0,0,0-3.386.357v9.913ZM256.88,60.7c0-2.275.351-5.97-2.229-6.93v-.3h11.992c6.677,0,10.575,2.977,10.575,7.481,0,3.4-2.174,5.314-5.058,6.581,4.552.96,8.244,4,8.244,8.954,0,3.894-2.68,7.237-6.071,8.856-3.541,1.72-7.537,1.7-11.334,1.7h-8.348v-.282c2.531-.958,2.229-4.654,2.229-6.984" style="fill:#006862"/></svg>
