<svg xmlns="http://www.w3.org/2000/svg" viewBox="0 0 280 100"><title>Suncorp Bank</title><path d="M250.614,25a15.3,15.3,0,0,0-2.2.177l2.451,11.456,2.624-11.417A16.078,16.078,0,0,0,250.614,25" style="fill:#fab60a"/><path d="M253.492,25.218l-1.208,11.655,6.027-10.051a16.138,16.138,0,0,0-4.823-1.6" style="fill:#fab60a"/><path d="M265.371,33.978a16.219,16.219,0,0,0-2.961-4.126l-7.832,8.714,10.793-4.588" style="fill:#fab60a"/><path d="M243.553,26.708l5.881,10.148L248.4,25.181a16.326,16.326,0,0,0-4.847,1.525" style="fill:#fab60a"/><path d="M266.9,38.833a16.032,16.032,0,0,0-1.536-4.848l-10.144,5.867,11.68-1.016" style="fill:#fab60a"/><path d="M258.318,26.825l-4.75,10.718,8.84-7.695a16.331,16.331,0,0,0-4.09-3.023" style="fill:#fab60a"/><path d="M239.417,29.665l8.724,7.841-4.588-10.794a16.283,16.283,0,0,0-4.136,2.953" style="fill:#fab60a"/><path d="M265.266,48.74a16.014,16.014,0,0,0,1.608-4.829L255.2,42.7l10.064,6.032" style="fill:#fab60a"/><path d="M266.906,38.833l-11.47,2.446,11.438,2.631a16.729,16.729,0,0,0,.211-2.853,17.409,17.409,0,0,0-.179-2.224" style="fill:#fab60a"/><path d="M262.245,52.834a16.137,16.137,0,0,0,3.02-4.093l-10.729-4.753,7.709,8.846" style="fill:#fab60a"/><path d="M258.651,55.516a16.124,16.124,0,0,0,3.594-2.684l-8.666-7.76a31.89,31.89,0,0,1,5.072,10.444" style="fill:#fab60a"/><path d="M236.667,33.248a31.827,31.827,0,0,1,10.426,5.236l-7.674-8.815a16.417,16.417,0,0,0-2.752,3.579" style="fill:#fab60a"/><path d="M231.7,31.7a14.256,14.256,0,0,0,6.454,12.948,14.429,14.429,0,0,0,13.74,1.061A37.088,37.088,0,0,0,231.7,31.7" style="fill:#ed192d"/><path d="M69.376,52.8c1.632.924,1.737,2.2,1.737,3.877V68.412c0-.137-11.744-14.274-11.744-14.274a11.752,11.752,0,0,1-.945-1.517H53.679V52.8c1.66.953,1.638,2.246,1.638,4.035V69.818c0,1.791.022,2.956-1.672,3.959v.179h5.818v-.179c-1.618-.953-1.723-2.268-1.723-3.959v-12.6c0,.134,13.38,16.971,15.751,17.781V56.679c0-1.776.027-2.923,1.673-3.877v-.183H69.376Z" style="fill:#006862"/><path d="M217.562,52.808c1.63.923,1.734,2.194,1.734,3.876V68.413c0-.137-11.74-14.27-11.74-14.27a11.321,11.321,0,0,1-.944-1.525h-4.745l0,.192c1.66.953,1.638,2.246,1.638,4.033V69.82c0,1.791.022,2.954-1.673,3.957v.181h5.818v-.181c-1.617-.949-1.722-2.266-1.722-3.957v-12.6c0,.135,13.376,16.966,15.746,17.776V56.684c0-1.779.027-2.923,1.673-3.876v-.2h-5.783Z" style="fill:#006862"/><path d="M88.367,71.706c-4.649,0-8.165-3.834-8.165-8.932,0-4.648,3.087-7.873,7.509-7.873a11.251,11.251,0,0,1,6.014,1.856v-3.8a23.494,23.494,0,0,0-5.918-.846c-6.691,0-11.366,4.581-11.366,11.151,0,6.9,4.734,11.21,12.368,11.21a11.431,11.431,0,0,0,4.9-.981l1.686-3.83-.185.008A14.138,14.138,0,0,1,88.367,71.706Z" style="fill:#006862"/><path d="M115.813,55.4a11.723,11.723,0,0,0-8.4-3.33,12.185,12.185,0,0,0-8.828,3.393,10.811,10.811,0,0,0-3.329,7.773c0,6.413,5.083,11.244,11.819,11.244,6.7,0,11.936-5.02,11.936-11.42a10.761,10.761,0,0,0-3.2-7.661Zm-8.564,16.661h0c-5.072,0-8.217-4.74-8.217-9.135,0-4.964,3.348-8.437,8.146-8.437,5.246,0,8.07,4.744,8.07,9.214C115.248,68.624,111.955,72.062,107.249,72.062Z" style="fill:#006862"/><path d="M45.444,52.8c1.431.537,1.4,2.522,1.389,3.962v9.171c0,4.122-1.85,6.193-5.25,6.193-3.377,0-5.232-2.071-5.232-6.193l-.006-9.171c-.021-1.44-.053-3.425,1.39-3.962v-.183H31.666V52.8c1.448.535,1.4,2.478,1.382,3.913v9.22c0,2.224-.01,4.452,1.668,6.265,1.315,1.448,3.876,2.307,6.87,2.307s5.563-.86,6.882-2.307c1.661-1.813,1.661-4.04,1.657-6.265v-9.22c-.021-1.435-.057-3.378,1.391-3.913v-.183H45.444Z" style="fill:#006862"/><polygon points="41.586 74.509 41.586 74.509 41.583 74.509 41.586 74.509" style="fill:#006862"/><path d="M22.512,59.312C19.7,57.874,17.3,56.632,17.3,54.265c0-1.989,1.986-3.38,4.838-3.38a8.53,8.53,0,0,1,6.354,2.637v-4.41A16.755,16.755,0,0,0,22.461,48c-5.172,0-8.525,2.654-8.525,6.776,0,3.711,3.438,5.6,6.791,7.446,2.936,1.6,5.73,3.134,5.732,5.814,0,1.726-1.744,3.578-4.975,3.578a12.416,12.416,0,0,1-8.57-3.5c.086.45.334,1.686.334,1.686.333,1.675.593,2.91.645,3.185A19.806,19.806,0,0,0,21.957,74.5c4.55,0,7.854-2.891,7.854-6.877C29.811,63.062,25.943,61.057,22.512,59.312Z" style="fill:#006862"/><path d="M146.576,52.619l0,0h-7.845V52.8c1.428.581,1.4,2.545,1.379,3.992V69.828c0,.355.012.753-.014,1.136h.011s.045,2.517-1.349,2.243a8.13,8.13,0,0,1-2.274-1.588,22.141,22.141,0,0,1-2.2-2.248l-4.638-5.839c.222-.052.448-.117.675-.191,2.3-.741,4.46-2.772,4.46-5.474,0-3.187-2.64-5.248-6.723-5.248h-7.706V52.8c1.44.536,1.412,2.5,1.383,3.94V70.086c.029,1.432.057,3.183-1.383,3.686v.179h6.187v-.179c-1.306-.46-1.423-2.312-1.423-3.686V54.8c.759-.036.889-.038,2.148-.086a4.1,4.1,0,0,1,3.113,1.08,3.281,3.281,0,0,1,1.023,2.455c0,3.256-3.477,4.257-5.544,4.566v.055s1.856,2.938,2.969,4.535c1.055,1.54,2.957,3.822,3.9,4.925A4.281,4.281,0,0,0,136.5,73.96h8.731v-.179c-1.653-.941-1.736-2.209-1.736-3.95V55.185a17.78,17.78,0,0,1,2.212-.154c1.692,0,4.543.508,4.543,3.936,0,3.011-2.859,4.749-5.708,4.924v.052c.117.056.224.089.352.147a5.489,5.489,0,0,0,1.986.338c3.5,0,7.156-2.276,7.156-6.119C154.031,54.864,151.1,52.619,146.576,52.619Z" style="fill:#006862"/><path d="M198.112,69.21l-6.7-16.594h-5.066v.2c1.544.48.932,1.831.483,2.986l-5.37,13.408c-.707,1.833-1.255,3.632-3.117,4.566v.179h5.914v-.179c-1.542-.578-1.318-1.511-.642-3.31l1.672-4.535h8.1l1.734,4.536c.868,2.248,1.126,2.6-.449,3.31v.179h6.589v-.179C199.43,72.842,198.852,71.043,198.112,69.21ZM186.12,63.549l3.182-8.1,3.152,8.1Z" style="fill:#006862"/><path d="M230.465,69.337V57.218c0-1.447-.195-3.828,1.447-4.4v-.2h-6.173v.2c1.638.61,1.447,2.956,1.447,4.4V69.337c0,1.446.192,3.827-1.447,4.437v.178h6.173v-.178C230.27,73.164,230.465,70.817,230.465,69.337Z" style="fill:#006862"/><path d="M240.818,70.753l-6.5-8.52,7.485-9.61h-5.875v.19c2.15.964.224,2.956-.837,4.469l-4.212,5.591,7.136,9.619a4.857,4.857,0,0,0,3.636,1.461h3.02v-.178A10.109,10.109,0,0,1,240.818,70.753Z" style="fill:#006862"/><path d="M173.144,61.559c1.833-.8,3.214-2.021,3.214-4.181,0-2.862-2.476-4.754-6.719-4.754h-7.62v.191c1.639.61,1.416,2.957,1.416,4.4V69.34c0,1.48.192,3.829-1.416,4.437v.18h5.3c2.413,0,4.952.012,7.2-1.081a6.466,6.466,0,0,0,3.858-5.627C178.383,64.1,176.037,62.169,173.144,61.559Zm-6.43-6.624a10.037,10.037,0,0,1,2.151-.227c1.729-.044,3.988.967,3.988,3.184,0,2.637-2.991,3.342-5.078,3.342h-1.061Zm2.795,16.621h0a13.594,13.594,0,0,1-2.8-.257V63.357l2.25-.127c2.828-.162,5.85,1.188,5.85,4.307C174.814,70.592,172.3,71.658,169.509,71.556Z" style="fill:#006862"/></svg>