<svg xmlns="http://www.w3.org/2000/svg" viewBox="0 0 280 100"><title>Teachers Mutual Bank</title><path d="M102.592,29.122a1.2,1.2,0,0,0,.18,0h2.433V39.633a1.675,1.675,0,0,0,3.348,0V29.117h2.433a1.393,1.393,0,0,0,1.518-1.432,1.442,1.442,0,0,0-1.448-1.435l-.07,0h-8.214a1.442,1.442,0,0,0-1.516,1.363c0,.023,0,.047,0,.07A1.389,1.389,0,0,0,102.592,29.122Z" style="fill:#00969f;fill-rule:evenodd"/><path d="M119.71,37.529c-.829,0-1.937,1.173-3.546,1.173a2.681,2.681,0,0,1-2.962-2.1h6.683c.957,0,1.368-.425,1.368-1.3A5.627,5.627,0,1,0,110,35.647a5.5,5.5,0,0,0,5.38,5.616c.165,0,.33,0,.494-.011,2.328,0,5.113-1.213,5.113-2.469A1.341,1.341,0,0,0,119.71,37.529Zm-4.093-5.1a2.409,2.409,0,0,1,2.5,2.226h-4.978A2.443,2.443,0,0,1,115.617,32.43Z" style="fill:#00969f;fill-rule:evenodd"/><path d="M133.753,39.228v-7.2c0-.75,0-1.9-1.515-1.9a1.468,1.468,0,0,0-1.513,1.216,3.718,3.718,0,0,0-3-1.336,5.389,5.389,0,0,0-5.223,5.547c0,.033,0,.066,0,.1a5.264,5.264,0,0,0,4.911,5.594c.1.006.2.01.308.011a3.9,3.9,0,0,0,3-1.356,1.416,1.416,0,0,0,1.512,1.233C133.753,41.127,133.753,39.977,133.753,39.228Zm-5.5-.656-.091.009a2.658,2.658,0,0,1-2.511-2.8c0-.046.006-.091.011-.137a2.51,2.51,0,1,1,4.933,0A2.65,2.65,0,0,1,128.253,38.572Z" style="fill:#00969f;fill-rule:evenodd"/><path d="M145,39.252a1.375,1.375,0,0,0-1.429-1.275,20.269,20.269,0,0,1-2.464.606,2.809,2.809,0,0,1-2.792-2.826q0-.054,0-.108a2.749,2.749,0,0,1,2.516-2.964,2.49,2.49,0,0,1,.273-.009c1.06,0,1.8.566,2.624.566a1.385,1.385,0,0,0,1.269-1.4c0-1.418-2.741-1.841-4.055-1.841A5.768,5.768,0,0,0,135,35.588v.059a5.645,5.645,0,0,0,5.676,5.613c.09,0,.179,0,.268-.008C142.146,41.252,145,40.752,145,39.252Z" style="fill:#00969f;fill-rule:evenodd"/><path d="M147.627,41.245a1.394,1.394,0,0,0,.145.007,1.522,1.522,0,0,0,1.524-1.521,1.394,1.394,0,0,0-.007-.145V34.358a1.965,1.965,0,1,1,3.927-.171q0,.086,0,.171v5.228a1.525,1.525,0,0,0,3.036.289,1.55,1.55,0,0,0,0-.289v-5.75a3.876,3.876,0,0,0-3.7-4.048,3.717,3.717,0,0,0-.46.007,3.646,3.646,0,0,0-2.765,1.042h-.043v-2.92a1.525,1.525,0,0,0-3.037-.276,1.59,1.59,0,0,0,0,.276V39.586A1.524,1.524,0,0,0,147.627,41.245Z" style="fill:#00969f;fill-rule:evenodd"/><path d="M162.886,41.263c.163,0,.327,0,.49-.011,2.328,0,5.113-1.213,5.113-2.469a1.341,1.341,0,0,0-1.283-1.25c-.829,0-1.937,1.173-3.546,1.173a2.682,2.682,0,0,1-2.962-2.1h6.678c.96,0,1.375-.425,1.375-1.295a5.627,5.627,0,1,0-11.249.344A5.5,5.5,0,0,0,162.886,41.263Zm.23-8.833h0a2.406,2.406,0,0,1,2.5,2.226h-4.98A2.445,2.445,0,0,1,163.116,32.43Z" style="fill:#00969f;fill-rule:evenodd"/><path d="M177.5,31.581A1.551,1.551,0,0,0,175.981,30q-.069,0-.138,0a2.776,2.776,0,0,0-2.388,1.23h-.049c0-.942-.756-1.23-1.655-1.23a1.586,1.586,0,0,0-1.744,1.411c0,.022,0,.043-.006.065v8.133a1.7,1.7,0,0,0,3.405,0V34.986c0-1.17,1.044-1.56,2.057-1.97S177.5,32.545,177.5,31.581Z" style="fill:#00969f;fill-rule:evenodd"/><path d="M183.28,37.873c0,.546-.28.829-1.232.829-1.465,0-2-.991-3.214-.991A1.411,1.411,0,0,0,177.5,39c0,1.316,2.585,2.25,4.331,2.25,2.668,0,4.418-1.478,4.418-3.419,0-3.317-5.388-3.117-5.388-4.472,0-.568.5-.809,1.056-.809,1.015,0,2.2.849,2.78.849a1.3,1.3,0,0,0,1.272-1.293c0-1.438-2.35-2.106-3.875-2.106-2.457,0-4.2,1.375-4.2,3.4C177.893,36.738,183.28,36.538,183.28,37.873Z" style="fill:#00969f;fill-rule:evenodd"/><path d="M116.753,47.845a2.126,2.126,0,0,0-2.087-1.594,2.266,2.266,0,0,0-2.125,1.492l-2.512,8.2h-.043l-2.512-8.2a2.266,2.266,0,0,0-2.133-1.492,2.126,2.126,0,0,0-2.087,1.594l-1.98,11.562a2.085,2.085,0,0,0-.021.353,1.6,1.6,0,0,0,3.194.041l1.249-8.432h.044l2.554,8.682a1.81,1.81,0,0,0,3.407,0l2.553-8.682h.043l1.258,8.432a1.6,1.6,0,0,0,3.2-.041,1.988,1.988,0,0,0-.022-.353Z" style="fill:#00969f;fill-rule:evenodd"/><path d="M129.883,50.006a1.474,1.474,0,0,0-.149-.005,1.5,1.5,0,0,0-1.525,1.475c0,.05,0,.1,0,.15v5.3a1.962,1.962,0,0,1-3.922,0v-5.3a1.523,1.523,0,1,0-3.039-.2,1.586,1.586,0,0,0,0,.2v5.36c0,2.6,1.794,4.265,5,4.265s5-1.665,5-4.265v-5.36A1.5,1.5,0,0,0,129.883,50.006Z" style="fill:#00969f;fill-rule:evenodd"/><path d="M138.519,49.835h-.883v-1.91a1.551,1.551,0,0,0-3.092-.249,1.479,1.479,0,0,0,0,.249v1.91h-.688A1.3,1.3,0,0,0,132.5,51.09c0,.022,0,.043,0,.065a1.235,1.235,0,0,0,1.147,1.319,1.18,1.18,0,0,0,.206,0h.688v7.105a1.551,1.551,0,0,0,3.092.249,1.479,1.479,0,0,0,0-.249V52.471h.883c.793,0,1.483-.375,1.483-1.316C140,50.19,139.312,49.835,138.519,49.835Z" style="fill:#00969f;fill-rule:evenodd"/><path d="M149.882,50.006a1.474,1.474,0,0,0-.149-.005,1.5,1.5,0,0,0-1.525,1.475c0,.05,0,.1,0,.15v5.3a1.962,1.962,0,0,1-3.921,0v-5.3a1.524,1.524,0,1,0-3.04,0v5.36c0,2.6,1.793,4.265,5,4.265s5-1.665,5-4.265v-5.36A1.5,1.5,0,0,0,149.882,50.006Z" style="fill:#00969f;fill-rule:evenodd"/><path d="M162.238,50.126a1.467,1.467,0,0,0-1.513,1.215,3.723,3.723,0,0,0-3-1.34,5.386,5.386,0,0,0-5.222,5.545c0,.034,0,.068,0,.1a5.262,5.262,0,0,0,4.907,5.593c.1.006.207.01.311.011a3.9,3.9,0,0,0,3-1.356,1.419,1.419,0,0,0,1.513,1.236c1.518-.005,1.518-1.154,1.518-1.9v-7.2C163.751,51.276,163.751,50.126,162.238,50.126Zm-3.99,8.447-.088.008v0a2.659,2.659,0,0,1-2.511-2.8c0-.045.007-.091.011-.137a2.511,2.511,0,0,1,4.935-.933,2.481,2.481,0,0,1,0,.933A2.65,2.65,0,0,1,158.248,58.573Z" style="fill:#00969f;fill-rule:evenodd"/><path d="M168.283,46.242c-.052,0-.1,0-.157.009a1.7,1.7,0,0,0-1.866,1.511c0,.051-.008.1-.009.154v11.67a1.889,1.889,0,0,0,3.75,0V47.916A1.7,1.7,0,0,0,168.283,46.242Z" style="fill:#00969f;fill-rule:evenodd"/><path d="M184.2,53.1v-.043a3.109,3.109,0,0,0,2.02-3.1,3.789,3.789,0,0,0-3.859-3.719c-.075,0-.149.005-.223.01h-4.171a1.543,1.543,0,0,0-1.706,1.363,1.576,1.576,0,0,0-.009.217V59.652a1.586,1.586,0,0,0,1.566,1.606,1.63,1.63,0,0,0,.171-.007h4.474c3,0,5.038-1.6,5.038-4.57A3.711,3.711,0,0,0,184.2,53.1Zm-4.692-4.067H181.2c.959,0,1.761.5,1.761,1.5a1.586,1.586,0,0,1-1.5,1.671,1.565,1.565,0,0,1-.265-.008h-1.692Zm2.813,9.451a1.9,1.9,0,0,1-.25-.013h-2.563v-3.5h2.3c1.519,0,2.3.673,2.3,1.661A1.822,1.822,0,0,1,182.32,58.484Z" style="fill:#00969f;fill-rule:evenodd"/><path d="M198.486,50.126a1.465,1.465,0,0,0-1.511,1.214,3.73,3.73,0,0,0-3-1.335,5.387,5.387,0,0,0-5.229,5.541c0,.034,0,.068,0,.1a5.264,5.264,0,0,0,4.913,5.593c.1.007.2.01.308.011a3.9,3.9,0,0,0,3-1.355,1.417,1.417,0,0,0,1.511,1.235C200,61.126,200,59.978,200,59.227v-7.2C200,51.277,200,50.126,198.486,50.126ZM194.5,58.573l-.085.008v0a2.66,2.66,0,0,1-2.511-2.8c0-.045.006-.09.011-.135a2.511,2.511,0,1,1,4.935,0A2.651,2.651,0,0,1,194.5,58.573Z" style="fill:#00969f;fill-rule:evenodd"/><path d="M207.562,49.991a3.849,3.849,0,0,0-.468.01,3.327,3.327,0,0,0-2.932,1.206,1.272,1.272,0,0,0-1.393-1.084,1.507,1.507,0,0,0-1.525,1.491,1.414,1.414,0,0,0,.006.146v7.853a1.522,1.522,0,1,0,3.037,0V54.48a1.964,1.964,0,1,1,3.925-.14c0,.046,0,.093,0,.14v5.133a1.522,1.522,0,1,0,3.037,0V53.97A3.835,3.835,0,0,0,207.562,49.991Z" style="fill:#00969f;fill-rule:evenodd"/><path d="M223.356,58.848l-3.681-4.1,2.787-2.36a1.453,1.453,0,0,0,.611-1.18,1.357,1.357,0,0,0-1.328-1.347,2.168,2.168,0,0,0-1.418.642l-3.442,3.169V47.913a1.57,1.57,0,0,0-3.136-.154,1.319,1.319,0,0,0,0,.154v11.56a1.571,1.571,0,0,0,3.136.2,1.635,1.635,0,0,0,0-.2V55.849h.044l3.833,4.5a2.027,2.027,0,0,0,1.5.912,1.434,1.434,0,0,0,1.486-1.381v-.036A1.45,1.45,0,0,0,223.356,58.848Z" style="fill:#00969f;fill-rule:evenodd"/><path d="M65.32,46.485A2.209,2.209,0,0,0,67.195,47.5H82.819A2.106,2.106,0,1,0,83,43.293a1.742,1.742,0,0,0-.177,0h-12L81.868,23.085a2.062,2.062,0,0,0-.832-2.8q-.043-.024-.087-.045a2.232,2.232,0,0,0-2.956.883L65.256,44.419A2.032,2.032,0,0,0,65.32,46.485Z" style="fill:#00969f;fill-rule:evenodd"/><path d="M92.505,50.2a2.071,2.071,0,0,0-2.746,1.019c-.016.035-.031.071-.045.106-2.328,5.5-8.418,9.2-15.152,9.221h-.057a14.821,14.821,0,0,1-14.214-9.231,2.066,2.066,0,0,0-2.683-1.157c-.037.014-.074.03-.111.047a2.28,2.28,0,0,0-1.052,2.95A19.125,19.125,0,0,0,74.505,65h.062c8.374-.023,16.006-4.789,19-11.861A2.28,2.28,0,0,0,92.505,50.2Z" style="fill:#00969f;fill-rule:evenodd"/><path d="M89.38,28.752a3.125,3.125,0,1,0-3.125-3.125A3.125,3.125,0,0,0,89.38,28.752Z" style="fill:#00969f;fill-rule:evenodd"/><path d="M61.881,28.752a3.125,3.125,0,1,0-3.125-3.125A3.125,3.125,0,0,0,61.881,28.752Z" style="fill:#00969f;fill-rule:evenodd"/><path d="M112.015,67.5a.535.535,0,0,0-.577.488V68l-1.421,8.34h-.028l-2.547-8.375a.571.571,0,0,0-1.125,0l-2.547,8.375h-.029L102.319,68a.532.532,0,0,0-.564-.5h-.013c-.265,0-.488.138-.488.414a6.24,6.24,0,0,0,.178,1.023l1.5,8.012a.843.843,0,0,0,1.582,0l2.354-7.89h.031l2.294,7.89a.749.749,0,0,0,.8.551.757.757,0,0,0,.784-.551l1.554-8.012a9.842,9.842,0,0,0,.174-1.023C112.5,67.638,112.281,67.5,112.015,67.5Z" style="fill:#939393;fill-rule:evenodd"/><path d="M115.892,70.018c-.083-.009-.165-.015-.249-.018-2.056,0-3.139,1.9-3.139,3.75s.973,3.75,3.3,3.75c1.7,0,2.838-1.035,2.838-1.476,0-.385-.192-.481-.465-.481-.468,0-.875,1.125-2.443,1.125a2.377,2.377,0,0,1-2.165-2.48h4.51c.589,0,.671-.342.671-.6A3.233,3.233,0,0,0,115.892,70.018Zm-2.32,3.345c.04-1.225.728-2.535,2.055-2.535s2.016,1.31,2.058,2.535Z" style="fill:#939393;fill-rule:evenodd"/><path d="M126.831,70a2.331,2.331,0,0,0-2.038,1.048h-.04V70.61c0-.4-.181-.61-.5-.61s-.5.213-.5.61v8.779c0,.4.181.611.5.611s.5-.214.5-.611V76.168h.041a2.5,2.5,0,0,0,2.065,1.048,3.27,3.27,0,0,0,3.16-3.376c0-.077-.008-.154-.016-.231C130,71.618,128.952,70,126.831,70Zm0,6.42c-1.553,0-2.093-1.526-2.093-2.811s.54-2.811,2.093-2.811,2.092,1.522,2.092,2.811S128.378,76.42,126.831,76.42Z" style="fill:#939393;fill-rule:evenodd"/><path d="M136.321,70c-.356,0-.557.22-.557.634v4.125a2.012,2.012,0,0,1-4.021,0V70.634c0-.414-.2-.634-.558-.634s-.557.22-.557.634v4.375c0,1.581,1.36,2.491,3.125,2.491s3.125-.91,3.125-2.494V70.632C136.878,70.22,136.676,70,136.321,70Z" style="fill:#939393;fill-rule:evenodd"/><path d="M140.741,69.973h-.772V68.152c0-.432-.214-.652-.592-.652s-.593.22-.593.652v1.821h-.77c-.4,0-.511.25-.511.416s.116.416.511.416h.77v6.059a.555.555,0,0,0,.465.632.611.611,0,0,0,.128,0,.556.556,0,0,0,.592-.636V70.805h.772c.395,0,.511-.25.511-.416S141.136,69.973,140.741,69.973Z" style="fill:#939393;fill-rule:evenodd"/><path d="M149.5,70h-.007a.589.589,0,0,0-.591.438l-2,5.118h-.031l-2-5.118a.588.588,0,0,0-.591-.438.475.475,0,0,0-.514.434v0a.694.694,0,0,0,.064.279l2.533,6.232-1.011,2.268a.957.957,0,0,0-.094.385c0,.185.173.4.513.4a.61.61,0,0,0,.607-.478l3.574-8.805a.668.668,0,0,0,.055-.279A.474.474,0,0,0,149.5,70Z" style="fill:#939393;fill-rule:evenodd"/><path d="M153.452,70c-2.125,0-3.125,1.9-3.125,3.75,0,2.068,1.037,3.75,3.125,3.75s3.125-1.682,3.125-3.75C156.575,71.9,155.593,70,153.452,70Zm0,6.673c-1.529,0-2.06-1.587-2.06-2.923s.531-2.921,2.06-2.921,2.058,1.582,2.058,2.921S154.979,76.673,153.452,76.673Z" style="fill:#939393;fill-rule:evenodd"/><path d="M163.2,70c-.357,0-.557.22-.557.634v4.125a2.012,2.012,0,0,1-4.021,0V70.634c0-.414-.2-.634-.559-.634s-.556.22-.556.634v4.375c0,1.581,1.362,2.491,3.124,2.491s3.125-.91,3.125-2.494V70.632C163.751,70.22,163.551,70,163.2,70Z" style="fill:#939393;fill-rule:evenodd"/><path d="M171.792,67.5h-.541a1.28,1.28,0,0,0-1.379,1.173,1.239,1.239,0,0,0,0,.251V69.96H169.2a.416.416,0,0,0-.065.83.353.353,0,0,0,.065,0h.681v6.073c0,.415.187.637.52.637s.522-.222.522-.637V70.79h.927a.416.416,0,1,0,.064-.83h-.991V68.875a.5.5,0,0,1,.534-.464l.021,0h.477c.422,0,.551-.208.551-.455S172.283,67.5,171.792,67.5Z" style="fill:#939393;fill-rule:evenodd"/><path d="M173.992,67.5a.625.625,0,1,0,.625.625A.625.625,0,0,0,173.992,67.5Z" style="fill:#939393;fill-rule:evenodd"/><path d="M173.992,70c-.322,0-.5.22-.5.634v6.232c0,.414.183.634.5.634s.5-.22.5-.634V70.634C174.5,70.22,174.313,70,173.992,70Z" style="fill:#939393;fill-rule:evenodd"/><path d="M179.251,70a2.194,2.194,0,0,0-1.835,1.325h-.04v-.691c0-.414-.2-.634-.564-.634s-.566.22-.566.634v6.231c0,.414.2.635.566.635s.564-.221.564-.635V73.294a2.141,2.141,0,0,1,1.851-2.217c.549-.112.768-.263.768-.539S179.781,70,179.251,70Z" style="fill:#939393;fill-rule:evenodd"/><path d="M183.287,73.336l-1.4-.607a.918.918,0,0,1-.625-.875c0-.7.695-1.032,1.339-1.032.927,0,1.406.785,1.765.785a.424.424,0,0,0,.466-.379.452.452,0,0,0,0-.1C184.853,70.6,183.744,70,182.4,70a2.051,2.051,0,0,0-2.153,1.931,1.684,1.684,0,0,0,1.2,1.654l1.6.7c.5.22.954.484.954,1.132a1.343,1.343,0,0,1-1.425,1.255l-.059,0c-1.21,0-1.635-1.049-2.074-1.049-.231,0-.439.331-.439.484,0,.467.98,1.393,2.474,1.393a2.249,2.249,0,0,0,2.507-1.959c.007-.054.012-.108.014-.162C185,74.218,184.213,73.736,183.287,73.336Z" style="fill:#939393;fill-rule:evenodd"/><path d="M188.24,69.963h-.774V68.152c0-.432-.213-.652-.591-.652s-.591.22-.591.652v1.811h-.773c-.394,0-.511.25-.511.415s.117.414.511.414h.773v6.071c0,.415.214.637.591.637s.591-.222.591-.637V70.792h.774c.394,0,.51-.25.51-.414S188.634,69.963,188.24,69.963Z" style="fill:#939393;fill-rule:evenodd"/></svg>