<svg xmlns="http://www.w3.org/2000/svg" viewBox="0 0 134 48"><title>Teachers Mutual Bank</title><path d="M37.214,7.292h1.947v8.413a1.34,1.34,0,0,0,2.678,0V7.292h1.947A1.11,1.11,0,0,0,45,6.146,1.153,1.153,0,0,0,43.786,5H37.214A1.153,1.153,0,0,0,36,6.146,1.111,1.111,0,0,0,37.214,7.292Z" style="fill:#00969f;fill-rule:evenodd"/><path d="M50.765,14.022c-.663,0-1.549.938-2.837.938a2.144,2.144,0,0,1-2.369-1.683h5.346c.766,0,1.095-.34,1.095-1.036a4.5,4.5,0,0,0-9,.275A4.4,4.4,0,0,0,47.7,17c1.862,0,4.09-.97,4.09-1.975A1.072,1.072,0,0,0,50.765,14.022Zm-3.274-4.08a1.928,1.928,0,0,1,2,1.781H45.508A1.956,1.956,0,0,1,47.491,9.942Z" style="fill:#00969f;fill-rule:evenodd"/><path d="M62,15.381V9.618c0-.6,0-1.522-1.212-1.522a1.174,1.174,0,0,0-1.21.973A2.974,2.974,0,0,0,57.175,8,4.31,4.31,0,0,0,53,12.516,4.211,4.211,0,0,0,57.175,17a3.119,3.119,0,0,0,2.4-1.085,1.133,1.133,0,0,0,1.21.987C62,16.9,62,15.98,62,15.381Zm-4.473-.518a2.126,2.126,0,0,1-2-2.347,2.008,2.008,0,1,1,3.947,0A2.12,2.12,0,0,1,57.527,14.863Z" style="fill:#00969f;fill-rule:evenodd"/><path d="M71,15.4a1.1,1.1,0,0,0-1.143-1.02,16.2,16.2,0,0,1-1.972.485,2.247,2.247,0,0,1-2.231-2.347,2.2,2.2,0,0,1,2.231-2.379c.848,0,1.438.453,2.1.453A1.108,1.108,0,0,0,71,9.473C71,8.338,68.807,8,67.756,8A4.614,4.614,0,0,0,63,12.516,4.516,4.516,0,0,0,67.756,17C68.715,17,71,16.6,71,15.4Z" style="fill:#00969f;fill-rule:evenodd"/><path d="M73.216,17a1.218,1.218,0,0,0,1.214-1.333V11.485a1.572,1.572,0,1,1,3.141,0v4.182a1.22,1.22,0,1,0,2.429,0v-4.6a3.1,3.1,0,0,0-3.324-3.233,2.919,2.919,0,0,0-2.212.834H74.43V6.332a1.22,1.22,0,1,0-2.43,0v9.335A1.219,1.219,0,0,0,73.216,17Z" style="fill:#00969f;fill-rule:evenodd"/><path d="M85.7,17c1.862,0,4.09-.97,4.09-1.975a1.072,1.072,0,0,0-1.026-1c-.663,0-1.55.938-2.837.938a2.145,2.145,0,0,1-2.37-1.683H88.9c.768,0,1.1-.34,1.1-1.036a4.5,4.5,0,0,0-9,.275A4.4,4.4,0,0,0,85.7,17Zm-.209-7.058a1.925,1.925,0,0,1,2,1.781H83.507A1.957,1.957,0,0,1,85.492,9.942Z" style="fill:#00969f;fill-rule:evenodd"/><path d="M97,9.263A1.241,1.241,0,0,0,95.674,8a2.221,2.221,0,0,0-1.911.984h-.039C93.724,8.23,93.119,8,92.4,8A1.269,1.269,0,0,0,91,9.181v6.506a1.363,1.363,0,0,0,2.724,0v-3.7c0-.936.835-1.248,1.646-1.576S97,10.034,97,9.263Z" style="fill:#00969f;fill-rule:evenodd"/><path d="M100.638,14.96c-1.172,0-1.6-.793-2.571-.793A1.13,1.13,0,0,0,97,15.2c0,1.053,2.068,1.8,3.465,1.8C102.6,17,104,15.818,104,14.265c0-2.654-4.311-2.494-4.311-3.578,0-.454.4-.647.845-.647.812,0,1.759.679,2.224.679a1.036,1.036,0,0,0,1.018-1.034c0-1.151-1.88-1.685-3.1-1.685-1.966,0-3.362,1.1-3.362,2.719,0,2.67,4.31,2.51,4.31,3.578C101.62,14.734,101.4,14.96,100.638,14.96Z" style="fill:#00969f;fill-rule:evenodd"/><path d="M48.4,22.275A1.7,1.7,0,0,0,46.73,21a1.812,1.812,0,0,0-1.7,1.193l-2.01,6.564h-.034l-2.01-6.564A1.811,1.811,0,0,0,39.27,21,1.7,1.7,0,0,0,37.6,22.275l-1.584,9.25a1.668,1.668,0,0,0-.017.282,1.282,1.282,0,0,0,2.555.033l1-6.746h.035l2.043,6.946a1.448,1.448,0,0,0,2.726,0l2.042-6.946h.035l1.006,6.746A1.281,1.281,0,0,0,50,31.807a1.576,1.576,0,0,0-.018-.282Z" style="fill:#00969f;fill-rule:evenodd"/><path d="M58.785,24a1.2,1.2,0,0,0-1.216,1.3v4.24a1.57,1.57,0,0,1-3.138,0V25.3A1.218,1.218,0,1,0,52,25.3v4.288C52,31.668,53.435,33,56,33s4-1.332,4-3.412V25.3A1.2,1.2,0,0,0,58.785,24Z" style="fill:#00969f;fill-rule:evenodd"/><path d="M65.813,23.867h-.706V22.339a1.241,1.241,0,1,0-2.474,0v1.528h-.55A1.044,1.044,0,0,0,61,24.923a.989.989,0,0,0,1.083,1.053h.55V31.66a1.241,1.241,0,1,0,2.474,0V25.976h.706c.635,0,1.187-.3,1.187-1.053C67,24.151,66.448,23.867,65.813,23.867Z" style="fill:#00969f;fill-rule:evenodd"/><path d="M74.785,24a1.2,1.2,0,0,0-1.216,1.3v4.24a1.57,1.57,0,0,1-3.137,0V25.3A1.219,1.219,0,1,0,68,25.3v4.288C68,31.668,69.434,33,72,33s4-1.332,4-3.412V25.3A1.2,1.2,0,0,0,74.785,24Z" style="fill:#00969f;fill-rule:evenodd"/><path d="M84.789,24.1a1.173,1.173,0,0,0-1.21.972A2.977,2.977,0,0,0,81.175,24,4.309,4.309,0,0,0,77,28.517,4.209,4.209,0,0,0,81.175,33a3.118,3.118,0,0,0,2.4-1.085,1.135,1.135,0,0,0,1.21.989C86,32.9,86,31.981,86,31.382V25.618C86,25.02,86,24.1,84.789,24.1Zm-3.262,6.767a2.126,2.126,0,0,1-2-2.347,2.009,2.009,0,1,1,3.948,0A2.12,2.12,0,0,1,81.527,30.864Z" style="fill:#00969f;fill-rule:evenodd"/><path d="M89.5,21A1.358,1.358,0,0,0,88,22.332v9.336a1.511,1.511,0,0,0,3,0V22.332A1.357,1.357,0,0,0,89.5,21Z" style="fill:#00969f;fill-rule:evenodd"/><path d="M102.359,26.479v-.034a2.488,2.488,0,0,0,1.616-2.478A3.032,3.032,0,0,0,100.709,21H97.372A1.235,1.235,0,0,0,96,22.264v9.457A1.269,1.269,0,0,0,97.39,33h3.579c2.4,0,4.031-1.279,4.031-3.656A2.969,2.969,0,0,0,102.359,26.479Zm-3.754-3.254h1.354c.767,0,1.409.4,1.409,1.2a1.269,1.269,0,0,1-1.409,1.331H98.605Zm2.051,7.551H98.605v-2.8h1.843c1.215,0,1.842.538,1.842,1.329A1.458,1.458,0,0,1,100.656,30.776Z" style="fill:#00969f;fill-rule:evenodd"/><path d="M113.789,24.1a1.172,1.172,0,0,0-1.209.971,2.984,2.984,0,0,0-2.4-1.068A4.31,4.31,0,0,0,106,28.517,4.211,4.211,0,0,0,110.177,33a3.123,3.123,0,0,0,2.4-1.084,1.134,1.134,0,0,0,1.209.988C115,32.9,115,31.982,115,31.381V25.62C115,25.021,115,24.1,113.789,24.1Zm-3.261,6.767a2.127,2.127,0,0,1-2-2.347,2.009,2.009,0,1,1,3.948,0A2.121,2.121,0,0,1,110.528,30.864Z" style="fill:#00969f;fill-rule:evenodd"/><path d="M120.676,24a2.661,2.661,0,0,0-2.346.965,1.018,1.018,0,0,0-1.114-.868A1.207,1.207,0,0,0,116,25.407V31.69a1.218,1.218,0,1,0,2.43,0V27.583a1.571,1.571,0,1,1,3.14,0V31.69a1.218,1.218,0,1,0,2.43,0V27.175A3.069,3.069,0,0,0,120.676,24Z" style="fill:#00969f;fill-rule:evenodd"/><path d="M133.686,31.078,130.741,27.8l2.23-1.888a1.164,1.164,0,0,0,.489-.944,1.086,1.086,0,0,0-1.063-1.078,1.729,1.729,0,0,0-1.134.514l-2.754,2.535v-4.61a1.256,1.256,0,1,0-2.509,0v9.249a1.257,1.257,0,1,0,2.509,0v-2.9h.035l3.067,3.6a1.618,1.618,0,0,0,1.2.729A1.147,1.147,0,0,0,134,31.874,1.161,1.161,0,0,0,133.686,31.078Z" style="fill:#00969f;fill-rule:evenodd"/><path d="M8.751,22h12.5a1.685,1.685,0,1,0,0-3.367h-9.6L20.49,2.466A1.65,1.65,0,0,0,19.755.194,1.786,1.786,0,0,0,17.39.9L7.2,19.534a1.627,1.627,0,0,0,.051,1.653A1.77,1.77,0,0,0,8.751,22Z" style="fill:#00969f;fill-rule:evenodd"/><path d="M29,24.156a1.657,1.657,0,0,0-2.233.9c-1.862,4.4-6.734,7.363-12.122,7.377H14.6A11.857,11.857,0,0,1,3.228,25.048,1.653,1.653,0,0,0,.993,24.16a1.824,1.824,0,0,0-.842,2.36A15.3,15.3,0,0,0,14.6,36h.049c6.7-.018,12.806-3.831,15.2-9.489A1.823,1.823,0,0,0,29,24.156Z" style="fill:#00969f;fill-rule:evenodd"/><path d="M26.5,7A2.5,2.5,0,1,0,24,4.5,2.5,2.5,0,0,0,26.5,7Z" style="fill:#00969f;fill-rule:evenodd"/><path d="M4.5,7A2.5,2.5,0,1,0,2,4.5,2.5,2.5,0,0,0,4.5,7Z" style="fill:#00969f;fill-rule:evenodd"/><path d="M44.609,38a.427.427,0,0,0-.462.4L43.01,45.072h-.023l-2.037-6.7a.457.457,0,0,0-.9,0l-2.038,6.7h-.023L36.852,38.4a.427.427,0,0,0-.462-.4c-.212,0-.39.11-.39.331a4.942,4.942,0,0,0,.142.818l1.2,6.41a.6.6,0,0,0,.628.441.594.594,0,0,0,.638-.441l1.883-6.312h.025l1.835,6.312a.6.6,0,0,0,.64.441.606.606,0,0,0,.627-.441l1.243-6.41A7.912,7.912,0,0,0,45,38.331C45,38.11,44.822,38,44.609,38Z" style="fill:#939393;fill-rule:evenodd"/><path d="M50,42.868A2.587,2.587,0,0,0,47.512,40C45.867,40,45,41.522,45,43s.779,3,2.643,3c1.36,0,2.27-.828,2.27-1.181,0-.308-.153-.385-.372-.385-.374,0-.7.9-1.954.9a1.9,1.9,0,0,1-1.732-1.984h3.608C49.934,43.353,50,43.077,50,42.868Zm-4.145-.178c.032-.98.582-2.028,1.644-2.028s1.613,1.048,1.646,2.028Z" style="fill:#939393;fill-rule:evenodd"/><path d="M56.462,40a1.863,1.863,0,0,0-1.63.838H54.8v-.35c0-.318-.145-.488-.4-.488s-.4.17-.4.488v7.023c0,.318.145.489.4.489s.4-.171.4-.489V44.934h.033a2,2,0,0,0,1.652.839A2.616,2.616,0,0,0,59,42.887C59,41.294,58.159,40,56.462,40Zm0,5.136c-1.242,0-1.674-1.221-1.674-2.249s.432-2.249,1.674-2.249,1.674,1.218,1.674,2.249S57.7,45.136,56.462,45.136Z" style="fill:#939393;fill-rule:evenodd"/><path d="M64.055,40c-.285,0-.446.176-.446.507v3.3a1.61,1.61,0,0,1-3.217,0v-3.3c0-.331-.16-.507-.446-.507s-.446.176-.446.507v3.5C59.5,45.272,60.588,46,62,46s2.5-.728,2.5-1.995v-3.5C64.5,40.176,64.339,40,64.055,40Z" style="fill:#939393;fill-rule:evenodd"/><path d="M67.591,39.978h-.618V38.521c0-.345-.171-.521-.473-.521s-.475.176-.475.521v1.457h-.616c-.316,0-.409.2-.409.333s.093.333.409.333h.616v4.847A.444.444,0,0,0,66.5,46c.3,0,.473-.177.473-.509V40.644h.618c.316,0,.409-.2.409-.333S67.907,39.978,67.591,39.978Z" style="fill:#939393;fill-rule:evenodd"/><path d="M74.589,40a.471.471,0,0,0-.473.35l-1.6,4.095h-.025l-1.6-4.095a.47.47,0,0,0-.473-.35.38.38,0,0,0-.411.35.557.557,0,0,0,.051.223l2.027,4.986-.809,1.815a.747.747,0,0,0-.075.308c0,.148.138.318.41.318a.489.489,0,0,0,.486-.382l2.859-7.045A.525.525,0,0,0,75,40.35.379.379,0,0,0,74.589,40Z" style="fill:#939393;fill-rule:evenodd"/><path d="M77.76,40c-1.7,0-2.5,1.521-2.5,3,0,1.654.83,3,2.5,3s2.5-1.346,2.5-3C80.259,41.521,79.473,40,77.76,40Zm0,5.338c-1.223,0-1.648-1.269-1.648-2.338s.425-2.337,1.648-2.337S79.407,41.929,79.407,43,78.982,45.338,77.76,45.338Z" style="fill:#939393;fill-rule:evenodd"/><path d="M85.555,40c-.286,0-.446.176-.446.507v3.3a1.61,1.61,0,0,1-3.217,0v-3.3c0-.331-.163-.507-.447-.507s-.445.176-.445.507v3.5C81,45.272,82.09,46,83.5,46s2.5-.728,2.5-1.995v-3.5C86,40.176,85.84,40,85.555,40Z" style="fill:#939393;fill-rule:evenodd"/><path d="M92.178,38.73h.381c.338,0,.441-.166.441-.364S92.826,38,92.433,38H92a1.024,1.024,0,0,0-1.1,1.139v.829h-.545a.333.333,0,1,0,0,.664H90.9V45.49c0,.332.15.51.416.51s.418-.178.418-.51V40.632h.741a.333.333,0,1,0,0-.664h-.741V39.1A.4.4,0,0,1,92.178,38.73Z" style="fill:#939393;fill-rule:evenodd"/><path d="M94.193,39a.5.5,0,1,0-.5-.5A.5.5,0,0,0,94.193,39Z" style="fill:#939393;fill-rule:evenodd"/><path d="M94.193,40c-.258,0-.4.176-.4.507v4.986c0,.331.146.507.4.507s.4-.176.4-.507V40.507C94.6,40.176,94.45,40,94.193,40Z" style="fill:#939393;fill-rule:evenodd"/><path d="M98.4,40a1.754,1.754,0,0,0-1.468,1.06H96.9v-.553c0-.331-.162-.507-.451-.507s-.453.176-.453.507v4.985c0,.331.162.508.453.508s.451-.177.451-.508V42.635a1.714,1.714,0,0,1,1.481-1.774c.439-.089.615-.21.615-.431S98.824,40,98.4,40Z" style="fill:#939393;fill-rule:evenodd"/><path d="M101.629,42.669l-1.123-.486a.734.734,0,0,1-.5-.7c0-.562.556-.826,1.071-.826.742,0,1.125.628,1.412.628a.34.34,0,0,0,.372-.386c.021-.419-.866-.9-1.939-.9A1.64,1.64,0,0,0,99.2,41.544a1.347,1.347,0,0,0,.96,1.323l1.278.562c.4.176.763.387.763.905a1.074,1.074,0,0,1-1.187,1c-.968,0-1.308-.839-1.659-.839-.185,0-.351.265-.351.387,0,.374.784,1.115,1.979,1.115A1.8,1.8,0,0,0,103,44.3C103,43.374,102.37,42.989,101.629,42.669Z" style="fill:#939393;fill-rule:evenodd"/><path d="M105.592,39.97h-.619V38.521c0-.345-.171-.521-.473-.521s-.473.176-.473.521V39.97h-.618c-.316,0-.409.2-.409.332s.093.331.409.331h.618V45.49c0,.332.171.51.473.51s.473-.178.473-.51V40.633h.619c.315,0,.408-.2.408-.331S105.907,39.97,105.592,39.97Z" style="fill:#939393;fill-rule:evenodd"/></svg>
