<svg xmlns="http://www.w3.org/2000/svg" viewBox="0 0 300 56.676"><title>Westpac</title><path d="M39.906,41.043,28.839,6.722C27.274,1.479,24.616,0,20.56,0H0C1.615.662,2.682,4.825,2.682,4.825L12.613,39.29A8.7,8.7,0,0,0,21.39,45.9H43.184c-1.562-.284-3.278-4.855-3.278-4.855" style="fill:#ed1a3a"/><path d="M72.734,41.043,83.805,6.722C85.37,1.479,88.028,0,92.083,0h20.56c-1.615.662-2.685,4.825-2.685,4.825L100.031,39.29a8.7,8.7,0,0,1-8.78,6.608H69.457c1.562-.284,3.277-4.855,3.277-4.855" style="fill:#ed1a3a"/><rect x="44.273" y="0.271" width="24.194" height="45.624" style="fill:#ed1a3a"/><path d="M121.156,22.558a5.893,5.893,0,0,1,4.524-1.911,5.334,5.334,0,0,1,4.119,1.735q1.6,1.74,1.6,5.75H118.943a9.713,9.713,0,0,1,2.213-5.574M140.773,39.4a38.33,38.33,0,0,1-10.7,1.749,14.337,14.337,0,0,1-5.892-1.006,8.833,8.833,0,0,1-3.484-2.732,9.454,9.454,0,0,1-1.612-4.728h21.811q-.115-9.846-4.139-13.46T126,15.606a19.25,19.25,0,0,0-9.245,2.031,13.968,13.968,0,0,0-5.71,5.567,15.54,15.54,0,0,0-1.966,7.662,15.712,15.712,0,0,0,2.314,8.314A13.75,13.75,0,0,0,118,44.794,25.613,25.613,0,0,0,128.007,46.6a52.783,52.783,0,0,0,12.766-1.682Z" style="fill:#405661"/><path d="M144.545,44.99V39.115a37.92,37.92,0,0,0,12.067,2.448,8.306,8.306,0,0,0,4.253-.941,2.751,2.751,0,0,0,1.591-2.384,2.565,2.565,0,0,0-1.19-2.14,14.489,14.489,0,0,0-3.627-1.633l-3.217-1.085a22.211,22.211,0,0,1-7.363-3.708,6.451,6.451,0,0,1-2.374-5.208,7.492,7.492,0,0,1,3.591-6.348q3.591-2.5,10.97-2.509a60.719,60.719,0,0,1,10.278,1.051v5.525A38.249,38.249,0,0,0,160,20.647a9.217,9.217,0,0,0-4.454.846,2.491,2.491,0,0,0-1.488,2.184,2.455,2.455,0,0,0,.966,1.888,10.249,10.249,0,0,0,3.407,1.564l2.762.89q6.846,2.2,8.971,4.25a6.724,6.724,0,0,1,2.09,4.947q0,3.735-3.838,6.561t-11.158,2.829a52.638,52.638,0,0,1-12.711-1.616" style="fill:#405661"/><path d="M195.458,45.781a23.778,23.778,0,0,1-5.36.843,18.636,18.636,0,0,1-7.219-1.12,8.685,8.685,0,0,1-3.845-3.022,10.026,10.026,0,0,1-1.28-5.581V21.3h-3.922V16.256h3.922V11.22l9.513-.931v5.967h7.56V21.3h-7.56V35.81q0,3.19,1.347,4.309a6,6,0,0,0,3.932,1.115,14.732,14.732,0,0,0,2.913-.349v4.9Z" style="fill:#405661"/><path d="M209.521,26.477a14.843,14.843,0,0,1,3.809-3.3,8.013,8.013,0,0,1,4.089-1.206,5.865,5.865,0,0,1,5.029,2.411,10.933,10.933,0,0,1,1.769,6.6,13.991,13.991,0,0,1-1.849,7.214,6.1,6.1,0,0,1-5.637,3.156,9.454,9.454,0,0,1-3.511-.681,12.118,12.118,0,0,1-3.7-2.554V26.477Zm0,30.2V42.847a17.05,17.05,0,0,0,3.394,2.335,14.414,14.414,0,0,0,3.056,1.062,16.056,16.056,0,0,0,3.471.359q7.066,0,10.994-4.671a17.479,17.479,0,0,0,3.929-11.645q0-6.591-3.518-10.634T220.9,15.606a13.577,13.577,0,0,0-6.717,1.591,12.242,12.242,0,0,0-4.661,4.776V16.236h-9.513V56.675h9.512Z" style="fill:#405661"/><path d="M253.43,40.461a9.041,9.041,0,0,1-3.371.684,5.078,5.078,0,0,1-3.227-1.082,3.386,3.386,0,0,1-1.371-2.8,3.971,3.971,0,0,1,2.263-3.431q2.273-1.367,6.9-1.368h2.237v5.975a14.3,14.3,0,0,1-3.432,2.019m3.875,2.294a5.447,5.447,0,0,0,2.942,3.1,12.5,12.5,0,0,0,4.547.748,22.02,22.02,0,0,0,5.363-.774l-.137-4.5a10.758,10.758,0,0,1-1.307.092,3.494,3.494,0,0,1-1.782-.526c-.6-.35-.9-1.336-.9-2.956v-13.1a7.606,7.606,0,0,0-1.849-5.574,11.14,11.14,0,0,0-4.935-2.763,25.042,25.042,0,0,0-7.008-.9,42.21,42.21,0,0,0-12.866,2.061v5.544a26.334,26.334,0,0,1,11.138-2.636,9.781,9.781,0,0,1,4.557.938q1.8.936,1.795,3.669V27.85H254.33q-9.53,0-13.783,2.924t-4.253,7.3a7.751,7.751,0,0,0,2.842,6.054,11.125,11.125,0,0,0,7.57,2.476,15.991,15.991,0,0,0,3.467-.366,14.5,14.5,0,0,0,3.15-1.1,19.472,19.472,0,0,0,3.564-2.382Z" style="fill:#405661"/><path d="M300,45.271A49.4,49.4,0,0,1,289.1,46.6q-8.968,0-13.479-4.5A14.98,14.98,0,0,1,271.1,31.056a14.314,14.314,0,0,1,4.765-11.146q4.774-4.3,14.03-4.3a47.576,47.576,0,0,1,9.82,1.192v5.8a35.949,35.949,0,0,0-9.142-1.6q-4.85,0-7.088,3.129a11.805,11.805,0,0,0-.949,12.287,8.036,8.036,0,0,0,3.608,3.656,11.6,11.6,0,0,0,5.216,1.144A27.442,27.442,0,0,0,300,39.745Z" style="fill:#405661"/></svg>