<svg xmlns="http://www.w3.org/2000/svg" viewBox="0 0 280 100"><title>Westpac</title><path d="M62.3,58.968v0L54.49,34.744c-1.1-3.7-2.98-4.744-5.843-4.744H34.137c1.14.467,1.893,3.405,1.893,3.405l7.009,24.324a6.139,6.139,0,0,0,6.194,4.665H64.614C63.512,62.194,62.3,58.968,62.3,58.968Z" style="fill:#ed1a3a"/><path d="M99.125,30c-2.862,0-4.738,1.044-5.842,4.744L85.469,58.966s-1.21,3.226-2.313,3.427H98.538a6.141,6.141,0,0,0,6.2-4.664l7.006-24.324s.755-2.938,1.9-3.405Z" style="fill:#ed1a3a"/><rect x="65.383" y="30.191" width="17.075" height="32.199" style="fill:#ed1a3a"/><path d="M130.654,43.567a10.94,10.94,0,0,0-7.592-2.553,13.589,13.589,0,0,0-6.525,1.433,9.87,9.87,0,0,0-4.03,3.929,10.968,10.968,0,0,0-1.387,5.408,11.089,11.089,0,0,0,1.633,5.867,9.708,9.708,0,0,0,4.663,3.963,18.075,18.075,0,0,0,7.062,1.274,37.223,37.223,0,0,0,9.01-1.187V57.807a27.075,27.075,0,0,1-7.551,1.234,10.126,10.126,0,0,1-4.159-.71,6.232,6.232,0,0,1-2.459-1.928,6.675,6.675,0,0,1-1.137-3.337h15.393Q133.494,46.118,130.654,43.567Zm-12.573,6.287a6.863,6.863,0,0,1,1.562-3.934,4.16,4.16,0,0,1,3.193-1.348,3.764,3.764,0,0,1,2.907,1.224,5.918,5.918,0,0,1,1.129,4.058Z" style="fill:#405661"/><path d="M147.9,49.774l-1.949-.628a7.24,7.24,0,0,1-2.4-1.1,1.731,1.731,0,0,1-.682-1.333,1.757,1.757,0,0,1,1.05-1.541,6.5,6.5,0,0,1,3.144-.6,26.964,26.964,0,0,1,6.721,1.084v-3.9a42.863,42.863,0,0,0-7.254-.741q-5.207.006-7.742,1.77a5.29,5.29,0,0,0-2.534,4.481,4.554,4.554,0,0,0,1.675,3.675,15.675,15.675,0,0,0,5.2,2.617l2.27.766a10.2,10.2,0,0,1,2.56,1.152,1.81,1.81,0,0,1,.84,1.511,1.941,1.941,0,0,1-1.123,1.682,5.853,5.853,0,0,1-3,.664,26.759,26.759,0,0,1-8.517-1.727v4.146h0a37.137,37.137,0,0,0,8.971,1.14q5.166,0,7.875-2a5.711,5.711,0,0,0,2.709-4.631,4.747,4.747,0,0,0-1.475-3.491Q152.731,51.326,147.9,49.774Z" style="fill:#405661"/><path d="M167.252,58.314q-.951-.789-.951-3.041V45.033h5.336v-3.56H166.3V37.261l-6.714.658v3.554H156.82v3.56h2.767v11.01a7.074,7.074,0,0,0,.9,3.939,6.132,6.132,0,0,0,2.713,2.133,13.158,13.158,0,0,0,5.095.79,16.759,16.759,0,0,0,3.783-.595V58.855a10.388,10.388,0,0,1-2.056.246A4.23,4.23,0,0,1,167.252,58.314Z" style="fill:#405661"/><path d="M190.038,41.014a9.581,9.581,0,0,0-4.741,1.123,8.637,8.637,0,0,0-3.289,3.371V41.459h-6.714V70h6.713v-9.76a11.98,11.98,0,0,0,2.395,1.648,10.174,10.174,0,0,0,2.157.75,11.336,11.336,0,0,0,2.45.253,9.585,9.585,0,0,0,7.759-3.3,12.336,12.336,0,0,0,2.773-8.219,11.025,11.025,0,0,0-2.483-7.505A8.815,8.815,0,0,0,190.038,41.014Zm1.036,15.943a4.3,4.3,0,0,1-3.978,2.227,6.679,6.679,0,0,1-2.478-.48,8.563,8.563,0,0,1-2.612-1.8V48.686h0a10.492,10.492,0,0,1,2.688-2.329,5.659,5.659,0,0,1,2.886-.851,4.138,4.138,0,0,1,3.549,1.7,7.71,7.71,0,0,1,1.249,4.658A9.874,9.874,0,0,1,191.074,56.957Z" style="fill:#405661"/><path d="M223.781,59.231a2.464,2.464,0,0,1-1.257-.371q-.636-.37-.635-2.087V47.528a5.37,5.37,0,0,0-1.305-3.934,7.868,7.868,0,0,0-3.483-1.95,17.7,17.7,0,0,0-4.946-.635,29.786,29.786,0,0,0-9.08,1.455v3.912a18.575,18.575,0,0,1,7.86-1.86,6.906,6.906,0,0,1,3.216.662,2.631,2.631,0,0,1,1.267,2.589v1.888h-1.787q-6.726,0-9.727,2.064a6.093,6.093,0,0,0-3,5.152,5.469,5.469,0,0,0,2.006,4.272,7.85,7.85,0,0,0,5.343,1.748,11.314,11.314,0,0,0,2.447-.258,10.253,10.253,0,0,0,2.223-.777,13.772,13.772,0,0,0,2.515-1.681l.294,0a3.842,3.842,0,0,0,2.077,2.188,8.79,8.79,0,0,0,3.209.528,15.53,15.53,0,0,0,3.785-.546l-.1-3.176A7.7,7.7,0,0,1,223.781,59.231Zm-8.364-2.1A10.035,10.035,0,0,1,213,58.553v0a6.37,6.37,0,0,1-2.379.483,3.581,3.581,0,0,1-2.277-.763,2.391,2.391,0,0,1-.968-1.977,2.8,2.8,0,0,1,1.6-2.421,9.673,9.673,0,0,1,4.87-.965h1.578Z" style="fill:#405661"/><path d="M239.765,59.09a8.182,8.182,0,0,1-3.681-.808,5.664,5.664,0,0,1-2.546-2.58,8.33,8.33,0,0,1,.67-8.671,5.725,5.725,0,0,1,5-2.209,25.4,25.4,0,0,1,6.452,1.129V41.858a33.621,33.621,0,0,0-6.931-.841q-6.532,0-9.9,3.035a10.1,10.1,0,0,0-3.363,7.866,10.571,10.571,0,0,0,3.19,7.794q3.184,3.175,9.513,3.176a34.85,34.85,0,0,0,7.693-.938v-3.9A19.382,19.382,0,0,1,239.765,59.09Z" style="fill:#405661"/></svg>