<svg xmlns="http://www.w3.org/2000/svg" viewBox="0 0 305.985 300.493"><title>bloom-savings</title><circle cx="72.581" cy="54.869" r="34.673" style="fill:#edf7f5;stroke:#5fe1cf;stroke-linecap:round;stroke-linejoin:round;stroke-width:5px"/><path d="M102.536,37.415A34.671,34.671,0,0,1,39.111,63.928a34.673,34.673,0,1,0,63.425-26.513Z" style="fill:#5fe1cf;opacity:0.2"/><circle cx="38.79" cy="17.282" r="5.481" style="fill:#5fe1cf"/><circle cx="60.158" cy="5.77" r="5.481" style="fill:#5fe1cf"/><circle cx="25.317" cy="37.478" r="5.481" style="fill:#5fe1cf"/><circle cx="22.831" cy="61.344" r="5.481" style="fill:#5fe1cf"/><circle cx="31.321" cy="83.192" r="5.481" style="fill:#5fe1cf"/><circle cx="49.207" cy="98.814" r="5.481" style="fill:#5fe1cf"/><circle cx="113.726" cy="83.049" r="5.481" style="fill:#5fe1cf"/><circle cx="95.911" cy="98.658" r="5.481" style="fill:#5fe1cf"/><circle cx="122.334" cy="61.022" r="5.481" style="fill:#5fe1cf"/><circle cx="119.835" cy="37.154" r="5.481" style="fill:#5fe1cf"/><circle cx="106.294" cy="16.955" r="5.481" style="fill:#5fe1cf"/><circle cx="84.96" cy="5.482" r="5.481" style="fill:#5fe1cf"/><line x1="72.675" y1="73.239" x2="72.675" y2="67.285" style="fill:none;stroke:#5fe1cf;stroke-linecap:round;stroke-miterlimit:10;stroke-width:5px"/><line x1="72.675" y1="39.796" x2="72.675" y2="33.842" style="fill:none;stroke:#5fe1cf;stroke-linecap:round;stroke-miterlimit:10;stroke-width:5px"/><path d="M62.634,62.5s3.735,5.412,12.577,4.345c0,0,6.785-.61,6.937-6.708a6.048,6.048,0,0,0-2.915-5.184c-2.378-1.494-5.316-1.51-7.936-2.337-3.473-1.095-8.089-3-7.165-7.523.675-3.3,4.284-4.749,7.268-5.156,0,0,6.784-.839,11.129,3.811" style="fill:none;stroke:#5fe1cf;stroke-linecap:round;stroke-linejoin:round;stroke-width:5px"/><path d="M72.082,190.226C57.044,162.5,14.334,170.775,14.334,170.775,11.551,230.7,57.31,227.123,72.082,224.429Z" style="fill:none;stroke:#5fe1cf;stroke-linecap:round;stroke-linejoin:round;stroke-width:5px"/><path d="M72.082,131.573c-13.23-21.358-47.317-14.754-47.317-14.754-2.27,48.88,34.18,47.111,47.317,44.907Z" style="fill:none;stroke:#5fe1cf;stroke-linecap:round;stroke-linejoin:round;stroke-width:5px"/><path d="M129.829,170.775s-42.71-8.276-57.748,19.451v34.2C86.853,227.123,132.612,230.7,129.829,170.775Z" style="fill:none;stroke:#5fe1cf;stroke-linecap:round;stroke-linejoin:round;stroke-width:5px"/><path d="M119.4,116.819s-34.086-6.6-47.316,14.753v30.154C85.219,163.93,121.668,165.7,119.4,116.819Z" style="fill:none;stroke:#5fe1cf;stroke-linecap:round;stroke-linejoin:round;stroke-width:5px"/><line x1="72.581" y1="89.542" x2="72.581" y2="220.186" style="fill:none;stroke:#5fe1cf;stroke-miterlimit:10;stroke-width:5px"/><rect x="2.5" y="220.186" width="140.163" height="29.852" rx="5" ry="5" style="fill:#edf7f5;stroke:#5fe1cf;stroke-linecap:round;stroke-linejoin:round;stroke-width:5px"/><path d="M12.861,250.038l22.254,42.587a10,10,0,0,0,8.862,5.368h57.208a10,10,0,0,0,8.863-5.368L132.3,250.038Z" style="fill:#edf7f5;stroke:#5fe1cf;stroke-linecap:round;stroke-linejoin:round;stroke-width:5px"/><path d="M122.937,250.038l-18.018,34.481a10,10,0,0,1-8.863,5.369H38.848a9.987,9.987,0,0,1-6.361-2.293l2.628,5.03a10,10,0,0,0,8.863,5.368h57.208a10,10,0,0,0,8.863-5.368L132.3,250.038Z" style="fill:#5fe1cf;opacity:0.2"/><path d="M137.663,220.186h-2.582v19.127a3,3,0,0,1-3,3H2.5v2.725a5,5,0,0,0,5,5H137.663a5,5,0,0,0,5-5V225.186A5,5,0,0,0,137.663,220.186Z" style="fill:#5fe1cf;opacity:0.2"/><circle cx="233.404" cy="54.869" r="34.673" style="fill:#edf7f5;stroke:#5fe1cf;stroke-linecap:round;stroke-linejoin:round;stroke-width:5px"/><path d="M263.359,37.415a34.671,34.671,0,0,1-63.425,26.513,34.672,34.672,0,1,0,63.425-26.513Z" style="fill:#5fe1cf;opacity:0.2"/><circle cx="199.613" cy="17.282" r="5.481" style="fill:#5fe1cf"/><circle cx="220.98" cy="5.77" r="5.481" style="fill:#5fe1cf"/><circle cx="186.139" cy="37.478" r="5.481" style="fill:#5fe1cf"/><circle cx="183.653" cy="61.344" r="5.481" style="fill:#5fe1cf"/><circle cx="192.143" cy="83.192" r="5.481" style="fill:#5fe1cf"/><circle cx="210.029" cy="98.814" r="5.481" style="fill:#5fe1cf"/><circle cx="274.548" cy="83.049" r="5.481" style="fill:#5fe1cf"/><circle cx="256.734" cy="98.658" r="5.481" style="fill:#5fe1cf"/><circle cx="283.156" cy="61.022" r="5.481" style="fill:#5fe1cf"/><circle cx="280.658" cy="37.154" r="5.481" style="fill:#5fe1cf"/><circle cx="267.117" cy="16.955" r="5.481" style="fill:#5fe1cf"/><circle cx="245.783" cy="5.482" r="5.481" style="fill:#5fe1cf"/><line x1="233.498" y1="73.239" x2="233.498" y2="67.285" style="fill:none;stroke:#5fe1cf;stroke-linecap:round;stroke-miterlimit:10;stroke-width:5px"/><line x1="233.498" y1="39.796" x2="233.498" y2="33.842" style="fill:none;stroke:#5fe1cf;stroke-linecap:round;stroke-miterlimit:10;stroke-width:5px"/><path d="M223.456,62.5s3.735,5.412,12.578,4.345c0,0,6.784-.61,6.936-6.708a6.046,6.046,0,0,0-2.915-5.184c-2.378-1.494-5.316-1.51-7.936-2.337-3.473-1.095-8.089-3-7.164-7.523.674-3.3,4.283-4.749,7.267-5.156,0,0,6.785-.839,11.13,3.811" style="fill:none;stroke:#5fe1cf;stroke-linecap:round;stroke-linejoin:round;stroke-width:5px"/><path d="M232.9,190.226c-15.038-27.728-57.748-19.451-57.748-19.451-2.783,59.922,42.977,56.348,57.748,53.654Z" style="fill:none;stroke:#5fe1cf;stroke-linecap:round;stroke-linejoin:round;stroke-width:5px"/><path d="M232.9,131.573c-13.23-21.358-47.316-14.754-47.316-14.754-2.271,48.88,34.179,47.111,47.316,44.907Z" style="fill:none;stroke:#5fe1cf;stroke-linecap:round;stroke-linejoin:round;stroke-width:5px"/><path d="M290.652,170.775s-42.71-8.276-57.748,19.451v34.2C247.675,227.123,293.435,230.7,290.652,170.775Z" style="fill:none;stroke:#5fe1cf;stroke-linecap:round;stroke-linejoin:round;stroke-width:5px"/><path d="M280.22,116.819s-34.086-6.6-47.316,14.753v30.154C246.041,163.93,282.49,165.7,280.22,116.819Z" style="fill:none;stroke:#5fe1cf;stroke-linecap:round;stroke-linejoin:round;stroke-width:5px"/><line x1="233.404" y1="89.542" x2="233.404" y2="220.186" style="fill:none;stroke:#5fe1cf;stroke-miterlimit:10;stroke-width:5px"/><rect x="163.322" y="220.186" width="140.163" height="29.852" rx="5" ry="5" style="fill:#edf7f5;stroke:#5fe1cf;stroke-linecap:round;stroke-linejoin:round;stroke-width:5px"/><path d="M173.684,250.038l22.253,42.587a10,10,0,0,0,8.863,5.368h57.208a10,10,0,0,0,8.863-5.368l22.253-42.587Z" style="fill:#edf7f5;stroke:#5fe1cf;stroke-linecap:round;stroke-linejoin:round;stroke-width:5px"/><path d="M283.759,250.038l-18.018,34.481a10,10,0,0,1-8.863,5.369H199.67a9.989,9.989,0,0,1-6.361-2.293l2.628,5.03a10,10,0,0,0,8.863,5.368h57.208a10,10,0,0,0,8.863-5.368l22.253-42.587Z" style="fill:#5fe1cf;opacity:0.2"/><path d="M298.486,220.186H295.9v19.127a3,3,0,0,1-3,3H163.323v2.725a5,5,0,0,0,5,5H298.486a5,5,0,0,0,5-5V225.186A5,5,0,0,0,298.486,220.186Z" style="fill:#5fe1cf;opacity:0.2"/></svg>