<svg xmlns="http://www.w3.org/2000/svg" viewBox="0 0 305 259.519"><title>briefcase</title><rect x="85.662" y="2.5" width="134.264" height="74.514" rx="10" ry="10" style="fill:none;stroke:#5fe1cf;stroke-miterlimit:10;stroke-width:5px"/><rect x="2.5" y="58.088" width="300" height="198.93" rx="10" ry="10" style="fill:#edf7f5;stroke:#5fe1cf;stroke-linecap:round;stroke-linejoin:round;stroke-width:5px"/><path d="M292.5,58.088h-4.444V238.725a5,5,0,0,1-5,5H2.5v3.294a10,10,0,0,0,10,10h280a10,10,0,0,0,10-10V68.088A10,10,0,0,0,292.5,58.088Z" style="fill:#5fe1cf;opacity:0.2"/><line x1="85.547" y1="162.972" x2="104.385" y2="175.546" style="fill:none;stroke:#5fe1cf;stroke-linecap:round;stroke-linejoin:round;stroke-width:5px"/><line x1="118.986" y1="158.247" x2="104.385" y2="175.563" style="fill:none;stroke:#5fe1cf;stroke-linecap:round;stroke-linejoin:round;stroke-width:5px"/><line x1="152.81" y1="129.759" x2="152.81" y2="168.949" style="fill:none;stroke:#5fe1cf;stroke-linecap:round;stroke-linejoin:round;stroke-width:5px"/><line x1="192" y1="169.209" x2="152.81" y2="169.209" style="fill:none;stroke:#5fe1cf;stroke-linecap:round;stroke-linejoin:round;stroke-width:5px"/><path d="M104.542,175.166a54.471,54.471,0,1,1,8.151,15.67" style="fill:none;stroke:#5fe1cf;stroke-linecap:round;stroke-linejoin:round;stroke-width:5px"/></svg>