<svg xmlns="http://www.w3.org/2000/svg" viewBox="0 0 303.955 277.916"><title>cash-out</title><rect x="2.5" y="2.5" width="298.955" height="154.162" rx="10" ry="10" style="fill:none;stroke:#5fe1cf;stroke-miterlimit:10;stroke-width:5px"/><line x1="36.861" y1="68.826" x2="267.094" y2="66.826" style="fill:none;stroke:#5fe1cf;stroke-miterlimit:10;stroke-width:5px"/><path d="M74.006,68.826v196.59a10,10,0,0,0,10,10H219.949a10,10,0,0,0,10-10V68.826Z" style="fill:#edf7f5;stroke:#5fe1cf;stroke-linecap:round;stroke-linejoin:round;stroke-width:5px"/><path d="M218.9,68.826V253.958a10,10,0,0,1-10,10H74.006v1.458a10,10,0,0,0,10,10H219.949a10,10,0,0,0,10-10V68.826Z" style="fill:#5fe1cf;opacity:0.2"/><circle cx="151.977" cy="143.36" r="48.743" style="fill:#edf7f5;stroke:#5fe1cf;stroke-linecap:round;stroke-linejoin:round;stroke-width:5px"/><line x1="177.802" y1="143.228" x2="169.432" y2="143.228" style="fill:none;stroke:#5fe1cf;stroke-linecap:round;stroke-miterlimit:10;stroke-width:5px"/><line x1="130.788" y1="143.228" x2="122.418" y2="143.228" style="fill:none;stroke:#5fe1cf;stroke-linecap:round;stroke-miterlimit:10;stroke-width:5px"/><path d="M162.705,157.344s7.608-5.25,6.108-17.681c0,0-.857-9.537-9.43-9.752a8.5,8.5,0,0,0-7.288,4.1c-2.1,3.344-2.123,7.474-3.285,11.157-1.539,4.882-4.215,11.371-10.576,10.072-4.64-.949-6.676-6.022-7.248-10.217,0,0-1.179-9.537,5.358-15.645" style="fill:none;stroke:#5fe1cf;stroke-linecap:round;stroke-linejoin:round;stroke-width:5px"/><line x1="93.015" y1="213.958" x2="93.015" y2="253.148" style="fill:none;stroke:#5fe1cf;stroke-linecap:round;stroke-linejoin:round;stroke-width:5px"/><line x1="132.205" y1="253.407" x2="93.015" y2="253.407" style="fill:none;stroke:#5fe1cf;stroke-linecap:round;stroke-linejoin:round;stroke-width:5px"/><line x1="210.94" y1="213.958" x2="210.94" y2="253.148" style="fill:none;stroke:#5fe1cf;stroke-linecap:round;stroke-linejoin:round;stroke-width:5px"/><line x1="171.75" y1="253.407" x2="210.94" y2="253.407" style="fill:none;stroke:#5fe1cf;stroke-linecap:round;stroke-linejoin:round;stroke-width:5px"/></svg>