<svg xmlns="http://www.w3.org/2000/svg" viewBox="0 0 76.347 69.582"><title>chat-smiley-face</title><path d="M15.831,68.244l19.5-11.258H70.715a4.385,4.385,0,0,0,4.38-4.38V5.632a4.385,4.385,0,0,0-4.38-4.38H5.632a4.385,4.385,0,0,0-4.38,4.38V52.606a4.385,4.385,0,0,0,4.38,4.38h9.261V67.7a.625.625,0,0,0,.938.542Z" style="fill:#edf7f5"/><path d="M70.259,54.674H35.476l-17.27,9.971a.752.752,0,0,1-1.127-.651v-9.32H1.772a4.384,4.384,0,0,0,3.86,2.312h9.261V67.7a.625.625,0,0,0,.938.542l19.5-11.258H70.715a4.385,4.385,0,0,0,4.38-4.38V5.632a4.384,4.384,0,0,0-2.333-3.87V52.17A2.5,2.5,0,0,1,70.259,54.674Z" style="fill:#00c0a5;opacity:0.2"/><path d="M53.494,35.23c-6.755,4.579-13.842,5.975-21.061,4.152a25.436,25.436,0,0,1-8.9-4.155.626.626,0,1,0-.789.972,26.182,26.182,0,0,0,9.331,4.383,25.863,25.863,0,0,0,6.374.8A27.717,27.717,0,0,0,54.2,36.266a.626.626,0,0,0-.7-1.036Z" style="fill:#00c0a5"/><circle cx="28.179" cy="19.803" r="2.521" transform="translate(-2.808 4.769) rotate(-9.217)" style="fill:#00c0a5"/><circle cx="48.547" cy="19.856" r="2.521" transform="translate(-3.263 11.685) rotate(-13.283)" style="fill:#00c0a5"/><path d="M70.715,0H5.632A5.639,5.639,0,0,0,0,5.632V52.606a5.639,5.639,0,0,0,5.632,5.632h8.009V67.7a1.884,1.884,0,0,0,1.877,1.88,1.879,1.879,0,0,0,.939-.254l19.208-11.09h35.05a5.639,5.639,0,0,0,5.632-5.632V5.632A5.639,5.639,0,0,0,70.715,0ZM75.1,52.606a4.385,4.385,0,0,1-4.38,4.38H35.33l-19.5,11.258a.625.625,0,0,1-.938-.542V56.986H5.632a4.385,4.385,0,0,1-4.38-4.38V5.632a4.385,4.385,0,0,1,4.38-4.38H70.715a4.385,4.385,0,0,1,4.38,4.38Z" style="fill:#00c0a5"/></svg>