<svg xmlns="http://www.w3.org/2000/svg" viewBox="0 0 226.343 305"><title>choose-loan</title><path d="M82.163,2.5H12.6A10.1,10.1,0,0,0,2.5,12.6V143.854a10.1,10.1,0,0,0,10.1,10.1h103.74a10.1,10.1,0,0,0,10.1-10.1V46.77Z" style="fill:#edf7f5;stroke:#5fe1cf;stroke-miterlimit:10;stroke-width:5px"/><path d="M120.123,40.46v97.083a10.1,10.1,0,0,1-10.1,10.1H6.286a10.071,10.071,0,0,1-3.244-.542,10.1,10.1,0,0,0,9.555,6.853h103.74a10.1,10.1,0,0,0,10.1-10.1V46.77Z" style="fill:#5fe1cf;opacity:0.2"/><path d="M81.846,2.688V42.13A5.048,5.048,0,0,0,86.9,47.178h39.441Z" style="fill:none;stroke:#5fe1cf;stroke-linecap:round;stroke-linejoin:round;stroke-width:5px"/><line x1="60.569" y1="74.042" x2="100.437" y2="74.042" style="fill:none;stroke:#5fe1cf;stroke-linecap:round;stroke-linejoin:round;stroke-width:5px"/><line x1="28.497" y1="97.157" x2="100.437" y2="97.157" style="fill:none;stroke:#5fe1cf;stroke-linecap:round;stroke-linejoin:round;stroke-width:5px"/><line x1="28.497" y1="122.29" x2="100.437" y2="122.29" style="fill:none;stroke:#5fe1cf;stroke-linecap:round;stroke-linejoin:round;stroke-width:5px"/><line x1="40.611" y1="74.64" x2="40.611" y2="66.975" style="fill:none;stroke:#5fe1cf;stroke-linecap:round;stroke-miterlimit:10;stroke-width:5px"/><line x1="40.611" y1="31.588" x2="40.611" y2="23.923" style="fill:none;stroke:#5fe1cf;stroke-linecap:round;stroke-miterlimit:10;stroke-width:5px"/><path d="M27.684,60.815s4.809,6.967,16.191,5.594c0,0,8.734-.785,8.93-8.636A7.786,7.786,0,0,0,49.053,51.1c-3.062-1.922-6.844-1.944-10.217-3.007-4.471-1.41-10.413-3.86-9.222-9.686.868-4.249,5.514-6.113,9.355-6.637,0,0,8.734-1.079,14.327,4.907" style="fill:none;stroke:#5fe1cf;stroke-linecap:round;stroke-linejoin:round;stroke-width:5px"/><path d="M194.753,21.578h-45.71a6.636,6.636,0,0,0-6.635,6.635v86.246a6.635,6.635,0,0,0,6.635,6.634h68.165a6.635,6.635,0,0,0,6.635-6.634V50.668Z" style="fill:none;stroke:#5fe1cf;stroke-miterlimit:10;stroke-width:5px"/><path d="M194.545,21.7V47.618a3.317,3.317,0,0,0,3.317,3.317h25.917Z" style="fill:none;stroke:#5fe1cf;stroke-linecap:round;stroke-linejoin:round;stroke-width:5px"/><line x1="180.564" y1="68.587" x2="206.761" y2="68.587" style="fill:none;stroke:#5fe1cf;stroke-linecap:round;stroke-linejoin:round;stroke-width:5px"/><line x1="159.49" y1="83.775" x2="206.761" y2="83.775" style="fill:none;stroke:#5fe1cf;stroke-linecap:round;stroke-linejoin:round;stroke-width:5px"/><line x1="159.49" y1="100.29" x2="206.761" y2="100.29" style="fill:none;stroke:#5fe1cf;stroke-linecap:round;stroke-linejoin:round;stroke-width:5px"/><line x1="167.45" y1="68.98" x2="167.45" y2="63.944" style="fill:none;stroke:#5fe1cf;stroke-linecap:round;stroke-miterlimit:10;stroke-width:5px"/><line x1="167.45" y1="40.691" x2="167.45" y2="35.655" style="fill:none;stroke:#5fe1cf;stroke-linecap:round;stroke-miterlimit:10;stroke-width:5px"/><path d="M158.956,59.9s3.16,4.578,10.639,3.675c0,0,5.739-.515,5.868-5.674A5.116,5.116,0,0,0,173,53.512c-2.012-1.263-4.5-1.278-6.713-1.976-2.938-.927-6.842-2.537-6.06-6.364.571-2.792,3.623-4.017,6.147-4.361,0,0,5.739-.71,9.414,3.223" style="fill:none;stroke:#5fe1cf;stroke-linecap:round;stroke-linejoin:round;stroke-width:5px"/><path d="M195.891,224.4c-.136-5.62,0-25.341,0-25.341a16.074,16.074,0,0,0-32.112-1.085v-9.114a16.354,16.354,0,0,0-32.142-3.989v-4.656a16.084,16.084,0,0,0-32.167-.007V110.574a16.439,16.439,0,0,0-32.871,0v92.16a15.807,15.807,0,0,0,.344,3.255c-5.411-13.59-9.568-24.034-9.568-24.034a16.084,16.084,0,0,0-29.886,11.9c18.85,47.352,39.107,116.59,104.6,107.9C168.964,296.863,196.789,261.29,195.891,224.4Z" style="fill:#fff;stroke:#5fe1cf;stroke-linecap:round;stroke-linejoin:round;stroke-width:5px"/></svg>