<svg xmlns="http://www.w3.org/2000/svg" viewBox="0 0 80 74.288"><title>computer-bank</title><path d="M55.615,41.8v1.844a.4.4,0,0,1-.393.394H24.778a.394.394,0,0,1-.393-.394V41.8a.394.394,0,0,1,.393-.394H55.222A.4.4,0,0,1,55.615,41.8Zm-24.367-1.7V25.022H28.692V40.093Zm10.03,0V25.022H38.722V40.093Zm10.03,0V25.022H48.752V40.093ZM41.933,23.71H55.058L40,12.1,24.942,23.71H41.933Z" style="fill:#edf7f5"/><path d="M78.688,53.067v2.056a4.6,4.6,0,0,1-4.59,4.59H5.9a4.591,4.591,0,0,1-4.058-2.451c.059,0,.117.009.177.009h68.2a5.239,5.239,0,0,0,5.132-4.2ZM55.058,23.71,40,12.1l-.033.026L47.473,23.71ZM31.248,40.093V25.022H30.4a.848.848,0,0,0-.235.584V39.854a.83.83,0,0,0,.039.239Zm8.917-.239a.865.865,0,0,0,.038.239h1.075V25.022H40.4a.843.843,0,0,0-.235.584Zm10.027,0a.83.83,0,0,0,.039.239h1.077V25.022h-.881a.848.848,0,0,0-.235.584ZM24.778,44.036H55.222a.4.4,0,0,0,.393-.394v-.727a1.008,1.008,0,0,0-.605-.2H25.348a1.013,1.013,0,0,0-.963.7v.226A.394.394,0,0,0,24.778,44.036Z" style="fill:#00c0a5;opacity:0.2"/><rect x="32.559" y="25.022" width="4.851" height="15.071" style="fill:none"/><rect x="42.589" y="25.022" width="4.851" height="15.071" style="fill:none"/><path d="M74.1,0H5.9A5.908,5.908,0,0,0,0,5.9V55.123a5.909,5.909,0,0,0,5.9,5.9H39.386l-.04,11.93h-7.33a.656.656,0,0,0,0,1.311h7.825a.668.668,0,0,0,.157.022h0a.642.642,0,0,0,.159-.022h7.825a.656.656,0,0,0,0-1.311H40.658l.04-11.93H74.1a5.909,5.909,0,0,0,5.9-5.9V5.9A5.908,5.908,0,0,0,74.1,0Zm4.59,55.123a4.6,4.6,0,0,1-4.59,4.59H5.9a4.6,4.6,0,0,1-4.591-4.59V53.067H78.688Zm0-3.368H1.311V5.9A4.6,4.6,0,0,1,5.9,1.311H74.1A4.6,4.6,0,0,1,78.688,5.9Zm-62.163-19.7a.656.656,0,1,1-.927.928l-4.656-4.656a.653.653,0,0,1,0-.927l4.482-4.483a.655.655,0,0,1,.927.927l-4.018,4.019Zm52.533-4.482a.654.654,0,0,1,0,.927l-4.482,4.483a.656.656,0,0,1-.927-.928l4.018-4.018-4.192-4.193a.655.655,0,0,1,.927-.927ZM40.4,10.748a.657.657,0,0,0-.8,0l-16.982,13.1a.656.656,0,0,0,.4,1.175h4.363V40.093h-2.6a1.707,1.707,0,0,0-1.7,1.7v1.844a1.707,1.707,0,0,0,1.7,1.7H55.222a1.706,1.706,0,0,0,1.7-1.7V41.8a1.706,1.706,0,0,0-1.7-1.7h-2.6V25.022h4.363a.656.656,0,0,0,.4-1.175ZM55.222,41.4a.4.4,0,0,1,.393.394v1.844a.4.4,0,0,1-.393.394H24.778a.394.394,0,0,1-.393-.394V41.8a.394.394,0,0,1,.393-.394Zm-26.53-1.311V25.022h2.556V40.093Zm3.867,0V25.022h4.852V40.093Zm6.163,0V25.022h2.556V40.093Zm3.867,0V25.022h4.852V40.093Zm6.163,0V25.022h2.556V40.093ZM51.963,23.71H24.942L40,12.1,55.058,23.71Z" style="fill:#00c0a5"/></svg>