<svg xmlns="http://www.w3.org/2000/svg" viewBox="0 0 80 74.288"><title>computer-tools</title><path d="M22.673,43.984a4.439,4.439,0,0,1,0-6.269l7.343-7.344a4.433,4.433,0,0,1,6.269,6.269l-7.344,7.344a4.432,4.432,0,0,1-6.268,0l-.464.463Zm10.9-23.9A6.451,6.451,0,0,0,27.6,9.233l3.91,3.91a.657.657,0,0,1,0,.928l-3.95,3.95a.655.655,0,0,1-.927,0l-3.91-3.911a6.451,6.451,0,0,0,10.854,5.977Zm18.85,22.879-3.91-3.91a.657.657,0,0,1,0-.928l3.95-3.949a.654.654,0,0,1,.927,0l3.911,3.91a6.45,6.45,0,1,0-4.878,4.877ZM1.311,53.067v2.056A4.6,4.6,0,0,0,5.9,59.713H74.1a4.6,4.6,0,0,0,4.591-4.59V53.067Z" style="fill:#edf7f5"/><polygon points="22.65 44.007 22.209 44.447 22.65 44.007 22.65 44.007" style="fill:#00c0a5"/><path d="M24.454,20.087c-.111-.111-.216-.226-.318-.343A7.157,7.157,0,0,0,33.781,11.2a6.445,6.445,0,0,1-9.327,8.892ZM52.425,42.966l-3.91-3.91a.657.657,0,0,1,0-.928l3.95-3.949a.654.654,0,0,1,.927,0l3.911,3.91a6.442,6.442,0,0,0-1.5-5.73,8.731,8.731,0,0,0-9.843,8.319,6.414,6.414,0,0,0,6.467,2.288ZM28.941,43.984l7.344-7.344a4.432,4.432,0,0,0-1.068-7.056,5.083,5.083,0,0,1-1.062,5.627l-7.344,7.344A5.066,5.066,0,0,1,22.7,44.011a4.429,4.429,0,0,0,6.238-.027ZM75.35,53.067a5.239,5.239,0,0,1-5.132,4.2H2.021c-.06,0-.118-.007-.177-.009A4.591,4.591,0,0,0,5.9,59.713H74.1a4.6,4.6,0,0,0,4.591-4.59V53.067Z" style="fill:#00c0a5;opacity:0.2"/><path d="M74.1,0H5.9A5.908,5.908,0,0,0,0,5.9V55.123a5.909,5.909,0,0,0,5.9,5.9H39.386l-.039,11.93H32.016a.656.656,0,0,0,0,1.311h7.825a.668.668,0,0,0,.157.022h0a.642.642,0,0,0,.159-.022h7.825a.656.656,0,0,0,0-1.311H40.658l.04-11.93H74.1a5.909,5.909,0,0,0,5.9-5.9V5.9A5.908,5.908,0,0,0,74.1,0Zm4.591,55.123a4.6,4.6,0,0,1-4.591,4.59H5.9a4.6,4.6,0,0,1-4.591-4.59V53.067H78.689Zm0-3.368H1.311V5.9A4.6,4.6,0,0,1,5.9,1.311H74.1A4.6,4.6,0,0,1,78.689,5.9Z" style="fill:#00c0a5"/><path d="M45.727,30.99l-4.984-4.984L55.158,11.591a.656.656,0,1,0-.927-.928L39.815,25.079,35.09,20.353A7.761,7.761,0,0,0,26.125,8.322a.655.655,0,0,0-.22,1.072l4.212,4.213L27.1,16.63l-4.213-4.213a.655.655,0,0,0-1.072.22,7.762,7.762,0,0,0,12.38,8.671l4.7,4.7-2.63,2.631a.186.186,0,0,0-.022.027,5.751,5.751,0,0,0-7.147.78l-7.344,7.344a5.744,5.744,0,0,0,8.124,8.123l7.343-7.344a5.748,5.748,0,0,0,.044-8.074l2.559-2.56,5.029,5.029A7.76,7.76,0,0,0,53.9,43.877a.656.656,0,0,0,.22-1.072l-4.213-4.213,3.023-3.022,4.212,4.212a.656.656,0,0,0,1.073-.22A7.761,7.761,0,0,0,45.727,30.99Zm-12.152-10.9A6.451,6.451,0,0,1,22.721,14.11l3.91,3.911a.655.655,0,0,0,.927,0l3.95-3.95a.657.657,0,0,0,0-.928L27.6,9.233a6.451,6.451,0,0,1,5.977,10.854Zm2.71,16.553-7.344,7.344a4.432,4.432,0,0,1-6.268,0l-.464.463.464-.463a4.439,4.439,0,0,1,0-6.269l7.343-7.344a4.433,4.433,0,0,1,6.269,6.269ZM57.3,38.089l-3.911-3.91a.654.654,0,0,0-.927,0l-3.95,3.949a.657.657,0,0,0,0,.928l3.91,3.91A6.449,6.449,0,1,1,57.3,38.089Z" style="fill:#00c0a5"/></svg>