<svg xmlns="http://www.w3.org/2000/svg" viewBox="0 0 351.995 222.827"><title>consolidate-debt</title><rect x="22.033" y="79.513" width="184.063" height="75.48" rx="15" ry="15" transform="translate(-26.938 34.323) rotate(-15.328)" style="fill:none;stroke:#5fe1cf;stroke-miterlimit:10;stroke-width:5px"/><circle cx="173.943" cy="98.028" r="14.493" style="fill:none;stroke:#5fe1cf;stroke-miterlimit:10;stroke-width:5px"/><rect x="79.165" y="96.878" width="69.013" height="23.004" transform="translate(-21.951 29.172) rotate(-13.349)" style="fill:none;stroke:#5fe1cf;stroke-linecap:round;stroke-linejoin:round;stroke-width:5px"/><line x1="39.262" y1="173.121" x2="46.118" y2="216.974" style="fill:none;stroke:#5fe1cf;stroke-linecap:round;stroke-linejoin:round;stroke-width:5px"/><path d="M27.1,75.739,7.055,77.54A5,5,0,0,0,2.7,83.9l2.577,8.962a5,5,0,0,0,5.144,3.607l17.543-1.193Z" style="fill:none;stroke:#5fe1cf;stroke-linecap:round;stroke-linejoin:round;stroke-width:5px"/><path d="M195.387,38.434l-2.553-8.969a5,5,0,0,0-7.063-3.094l-17.664,8.92L178.39,51.957l14.538-7.741A5,5,0,0,0,195.387,38.434Z" style="fill:none;stroke:#5fe1cf;stroke-linecap:round;stroke-linejoin:round;stroke-width:5px"/><path d="M28.247,101.739a15.075,15.075,0,0,1,1.55-.521L178.38,60.493a14.93,14.93,0,0,1,4.976-.487L150.805,7.25a10,10,0,0,0-11.176-4.387L32.956,32.361A10,10,0,0,0,25.63,42.44Z" style="fill:none;stroke:#5fe1cf;stroke-linecap:round;stroke-linejoin:round;stroke-width:5px"/><rect x="188.027" y="41.594" width="151.204" height="96.221" rx="10" ry="10" transform="translate(78.725 -118.52) rotate(29.603)" style="fill:#fff;stroke:#5fe1cf;stroke-miterlimit:10;stroke-width:5px"/><line x1="220.097" y1="96.621" x2="248.183" y2="112.578" style="fill:none;stroke:#5fe1cf;stroke-linecap:round;stroke-linejoin:round;stroke-width:5px"/><rect x="197.673" y="62.876" width="151.204" height="19.701" transform="translate(71.597 -125.501) rotate(29.603)" style="fill:#5fe1cf"/><line x1="199.022" y1="84.086" x2="207.986" y2="89.179" style="fill:none;stroke:#5fe1cf;stroke-linecap:round;stroke-linejoin:round;stroke-width:5px"/><path d="M326.014,98.254H95.061a10,10,0,0,0-9.4,6.588L46.172,213.621a5,5,0,0,0,4.7,6.706H281.825a10,10,0,0,0,9.4-6.588L330.714,104.96A5,5,0,0,0,326.014,98.254Z" style="fill:#edf7f5;stroke:#5fe1cf;stroke-miterlimit:10;stroke-width:5px"/><path d="M326.014,98.254H322.07l-38.8,106.888a10,10,0,0,1-9.4,6.587H46.858l-.686,1.892a5,5,0,0,0,4.7,6.706H281.824a10,10,0,0,0,9.4-6.588L330.713,104.96A5,5,0,0,0,326.014,98.254Z" style="fill:#5fe1cf;opacity:0.2"/></svg>