<svg xmlns="http://www.w3.org/2000/svg" viewBox="0 0 80 60.847"><title>consolidations</title><rect x="70.095" y="6.757" width="2.138" height="2.138" style="fill:none"/><path d="M66.783,18.083V23.13H78.529V13.624H64.736A5.885,5.885,0,0,1,66.783,18.083Z" style="fill:none"/><path d="M74.1,47.354a4.6,4.6,0,0,0,4.591-4.59V24.442H66.783V47.354Z" style="fill:none"/><rect x="63.756" y="6.65" width="2.138" height="2.138" style="fill:none"/><path d="M62.115,12.313H78.689V5.9A4.6,4.6,0,0,0,74.1,1.311H19.119A4.6,4.6,0,0,0,14.529,5.9v6.279H60.881A5.912,5.912,0,0,1,62.115,12.313ZM68.783,6.1a.656.656,0,0,1,.656-.656h3.45a.656.656,0,0,1,.656.656v3.45a.656.656,0,0,1-.656.655h-3.45a.656.656,0,0,1-.656-.655Zm-6.339-.107a.656.656,0,0,1,.656-.655h3.45a.656.656,0,0,1,.656.655v3.45a.656.656,0,0,1-.656.656H63.1a.656.656,0,0,1-.656-.656Z" style="fill:none"/><path d="M5.9,13.493a4.6,4.6,0,0,0-4.591,4.59V54.945A4.6,4.6,0,0,0,5.9,59.535H60.881a4.6,4.6,0,0,0,4.59-4.59V18.083a4.6,4.6,0,0,0-4.59-4.59Z" style="fill:#edf7f5"/><path d="M63.01,14.041a4.536,4.536,0,0,0-2.129-.548H5.9a4.6,4.6,0,0,0-4.59,4.59V25.15h61.7Zm-9.022,7.584a.656.656,0,0,1-.655.656h-3.45a.656.656,0,0,1-.656-.656v-3.45a.656.656,0,0,1,.656-.655h3.45a.655.655,0,0,1,.655.655Zm6.339.107a.655.655,0,0,1-.655.655h-3.45a.656.656,0,0,1-.656-.655v-3.45a.656.656,0,0,1,.656-.656h3.45a.656.656,0,0,1,.655.656Z" style="fill:none"/><rect x="6.821" y="45.975" width="4.626" height="4.626" style="fill:none"/><rect x="50.538" y="18.831" width="2.138" height="2.138" style="fill:none"/><rect x="56.878" y="18.938" width="2.138" height="2.138" style="fill:none"/><path d="M60.359,57.061A2.651,2.651,0,0,0,63.01,54.41V35.967H1.311V54.945a4.532,4.532,0,0,0,.541,2.116ZM37.643,50.6h8.08a.656.656,0,1,1,0,1.311h-8.08a.656.656,0,1,1,0-1.311Zm-20.284,0H34.146a.656.656,0,1,1,0,1.311H17.359a.656.656,0,1,1,0-1.311ZM5.509,45.319a.656.656,0,0,1,.656-.656H12.1a.656.656,0,0,1,.656.656v5.937a.656.656,0,0,1-.656.656H6.165a.656.656,0,0,1-.656-.656Z" style="fill:none"/><path d="M65.471,18.083V25.15H63.01V14.041A4.576,4.576,0,0,1,65.471,18.083ZM63.01,54.41a2.651,2.651,0,0,1-2.651,2.651H1.852A4.578,4.578,0,0,0,5.9,59.535h54.98a4.6,4.6,0,0,0,4.59-4.59V35.967H63.01Z" style="fill:#00c0a5;opacity:0.2"/><path d="M74.1,0H19.119a5.909,5.909,0,0,0-5.9,5.9v6.279H5.9a5.908,5.908,0,0,0-5.9,5.9V54.945a5.909,5.909,0,0,0,5.9,5.9H60.881a5.909,5.909,0,0,0,5.9-5.9V48.666H74.1a5.909,5.909,0,0,0,5.9-5.9V5.9A5.908,5.908,0,0,0,74.1,0ZM65.471,54.945a4.6,4.6,0,0,1-4.59,4.59H5.9a4.578,4.578,0,0,1-4.049-2.474,4.532,4.532,0,0,1-.541-2.116V35.967h64.16Zm0-29.795H1.311V18.083a4.6,4.6,0,0,1,4.59-4.59h54.98a4.653,4.653,0,0,1,4.59,4.59Zm-.735-11.526H78.529V23.13H66.783V18.083A5.885,5.885,0,0,0,64.736,13.624Zm13.953,29.14a4.6,4.6,0,0,1-4.591,4.59H66.783V24.442H78.689Zm0-30.451H62.115a5.912,5.912,0,0,0-1.234-.132H14.529V5.9a4.6,4.6,0,0,1,4.59-4.591H74.1A4.6,4.6,0,0,1,78.689,5.9ZM66.55,5.339H63.1a.656.656,0,0,0-.656.655v3.45a.656.656,0,0,0,.656.656h3.45a.656.656,0,0,0,.656-.656V5.994A.656.656,0,0,0,66.55,5.339Zm-.656,3.449H63.756V6.65h2.138Zm6.995-3.343h-3.45a.656.656,0,0,0-.656.656v3.45a.656.656,0,0,0,.656.655h3.45a.656.656,0,0,0,.656-.655V6.1A.656.656,0,0,0,72.889,5.445ZM72.233,8.9H70.1V6.757h2.138ZM34.8,51.256a.656.656,0,0,1-.656.656H17.359a.656.656,0,1,1,0-1.311H34.146A.656.656,0,0,1,34.8,51.256Zm11.577,0a.656.656,0,0,1-.656.656h-8.08a.656.656,0,1,1,0-1.311h8.08A.656.656,0,0,1,46.379,51.256ZM12.1,44.663H6.165a.656.656,0,0,0-.656.656v5.937a.656.656,0,0,0,.656.656H12.1a.656.656,0,0,0,.656-.656V45.319A.656.656,0,0,0,12.1,44.663ZM11.446,50.6H6.821V45.975h4.625ZM53.333,17.52h-3.45a.656.656,0,0,0-.656.655v3.45a.656.656,0,0,0,.656.656h3.45a.656.656,0,0,0,.655-.656v-3.45A.655.655,0,0,0,53.333,17.52Zm-.656,3.449H50.538V18.831h2.139Zm6.995-3.343h-3.45a.656.656,0,0,0-.656.656v3.45a.656.656,0,0,0,.656.655h3.45a.655.655,0,0,0,.655-.655v-3.45A.656.656,0,0,0,59.672,17.626Zm-.656,3.45H56.878V18.938h2.138Z" style="fill:#00c0a5"/></svg>