<svg xmlns="http://www.w3.org/2000/svg" width="24" height="24" viewBox="0 0 24 24" fill="currentColor">
    <path d="M8.7 14.63c.027.893.303 1.6.83 2.12.527.52 1.19.847 1.99.98v-5.3a13.663 13.663 0 0 1-1.83-.57c-.513-.207-.94-.453-1.28-.74a2.563 2.563 0 0 1-.75-1.05c-.16-.413-.24-.913-.24-1.5 0-.6.107-1.15.32-1.65.213-.5.503-.933.87-1.3s.8-.657 1.3-.87a4.95 4.95 0 0 1 1.61-.38V3.05h1.1v1.34c1.08.133 1.94.533 2.58 1.2.64.667 1.093 1.587 1.36 2.76h-1.7c-.267-1.32-1.013-2.093-2.24-2.32v4.92l1.2.32c.267.067.58.183.94.35.36.167.707.397 1.04.69.333.293.617.66.85 1.1.233.44.35.967.35 1.58 0 .653-.11 1.233-.33 1.74-.22.507-.523.943-.91 1.31a4.304 4.304 0 0 1-1.38.87 6.073 6.073 0 0 1-1.76.4v1.64h-1.1v-1.64c-1.333-.133-2.393-.597-3.18-1.39-.787-.793-1.233-1.89-1.34-3.29h1.7zm3.92 3.1a4.092 4.092 0 0 0 1.03-.2c.313-.107.587-.263.82-.47.233-.207.413-.467.54-.78.127-.313.19-.683.19-1.11 0-.387-.067-.71-.2-.97a2.102 2.102 0 0 0-.54-.67 3.038 3.038 0 0 0-.82-.47c-.32-.127-.66-.243-1.02-.35v5.02zm-1.1-11.76c-.64.067-1.183.297-1.63.69-.447.393-.67.97-.67 1.73 0 .347.057.643.17.89.113.247.273.453.48.62.207.167.45.31.73.43.28.12.587.227.92.32V5.97z"/>
</svg>
