<svg
	xmlns="http://www.w3.org/2000/svg"
	xmlns:xlink="http://www.w3.org/1999/xlink" viewBox="0 0 870 179" fill="currentColor">
	<defs>
		<linearGradient id="a" x1="73.955" y1="1059.678" x2="132.639" y2="927.872" gradientTransform="translate(0 -900.03)" gradientUnits="userSpaceOnUse">
			<stop offset="0" stop-color="#0ea800"/>
			<stop offset="1" stop-color="#106b0c"/>
		</linearGradient>
	</defs>
	<title>DLF-TV-logo-LUI</title>
	<path d="M222.89,4.71l-28.69.01V85.8h28.69c12.14,0,23.14-4.16,30.99-11.7a39.509,39.509,0,0,0,12.01-28.85v-.21A39.174,39.174,0,0,0,253.86,16.3c-7.83-7.48-18.83-11.59-30.97-11.59m0,11.54c8.97,0,16.66,2.91,22.26,8.42a28.645,28.645,0,0,1,8.2,20.58v.23c0,16.95-12.53,28.8-30.46,28.81H206.43l-.01-58.04Zm79.92,7.53a30.477,30.477,0,0,0-22.21,9.38,31.97,31.97,0,0,0-8.85,22.29v.24c0,17.62,13.55,31.43,30.84,31.43,17.48-.01,31.18-13.92,31.18-31.68v-.22a31.784,31.784,0,0,0-8.75-22.14,30.472,30.472,0,0,0-22.21-9.3m13.65,46.27a18.192,18.192,0,0,1-13.64,6c-10.68,0-19.05-9.05-19.06-20.59v-.21c0-11.67,8.1-20.47,18.84-20.47,10.76,0,19.19,9.09,19.19,20.69v.24a21.185,21.185,0,0,1-5.33,14.34M556.7,23.76c-7.22,0-12.97,2.53-17.53,7.71V24.98H527.4V85.77h11.77V51.21c0-9.57,6.23-16.25,15.15-16.25,8.94,0,13.86,5.54,13.86,15.59V85.78h11.77V48.45c0-14.99-9.12-24.69-23.25-24.69m-88.34.33a45.124,45.124,0,0,0-21.18,5.07l-1.38.67,3.65,10.25,1.71-.85a35.645,35.645,0,0,1,16.33-3.94c9.73,0,14.75,4.49,14.93,13.36a57.828,57.828,0,0,0-15.47-1.93c-7.53,0-13.87,1.77-18.36,5.1-4.83,3.6-7.38,8.92-7.37,15.38v.22c0,12.86,11.41,19.58,22.69,19.58a26.409,26.409,0,0,0,18.52-7.07v5.84H494.1V49.01c0-7.69-2.14-13.77-6.37-18.07-4.45-4.54-10.97-6.85-19.37-6.85m9.35,48.71a19.481,19.481,0,0,1-12.18,3.89c-6.17,0-12.43-3.33-12.43-9.7v-.23c0-6.15,5.5-9.82,14.7-9.82a54.458,54.458,0,0,1,14.74,2.02v4.02a12.191,12.191,0,0,1-4.83,9.82M504.8,24.99h11.79V85.78H504.8ZM510.69.06a8.53,8.53,0,1,0,8.54,8.53A8.546,8.546,0,0,0,510.69.06M407.36,20.96,387.15,34.19,366.94,20.96l-14.71,9.63V25.02H340.86V85.83h11.75V44.16l14.33-9.38,14.33,9.38.01,41.67h11.76V44.16l14.32-9.4,14.32,9.38.01,41.69h11.75l-.01-47.75Z" style="fill:#0ea800"/>
	<path d="M222.89,4.71l-28.69.01V85.8h28.69c12.14,0,23.14-4.16,30.99-11.7a39.509,39.509,0,0,0,12.01-28.85v-.21A39.174,39.174,0,0,0,253.86,16.3c-7.83-7.48-18.83-11.59-30.97-11.59m0,11.54c8.97,0,16.66,2.91,22.26,8.42a28.645,28.645,0,0,1,8.2,20.58v.23c0,16.95-12.53,28.8-30.46,28.81H206.43l-.01-58.04Zm79.92,7.53a30.477,30.477,0,0,0-22.21,9.38,31.97,31.97,0,0,0-8.85,22.29v.24c0,17.62,13.55,31.43,30.84,31.43,17.48-.01,31.18-13.92,31.18-31.68v-.22a31.784,31.784,0,0,0-8.75-22.14,30.472,30.472,0,0,0-22.21-9.3m13.65,46.27a18.192,18.192,0,0,1-13.64,6c-10.68,0-19.05-9.05-19.06-20.59v-.21c0-11.67,8.1-20.47,18.84-20.47,10.76,0,19.19,9.09,19.19,20.69v.24a21.185,21.185,0,0,1-5.33,14.34M556.7,23.76c-7.22,0-12.97,2.53-17.53,7.71V24.98H527.4V85.77h11.77V51.21c0-9.57,6.23-16.25,15.15-16.25,8.94,0,13.86,5.54,13.86,15.59V85.78h11.77V48.45c0-14.99-9.12-24.69-23.25-24.69m-88.34.33a45.124,45.124,0,0,0-21.18,5.07l-1.38.67,3.65,10.25,1.71-.85a35.645,35.645,0,0,1,16.33-3.94c9.73,0,14.75,4.49,14.93,13.36a57.828,57.828,0,0,0-15.47-1.93c-7.53,0-13.87,1.77-18.36,5.1-4.83,3.6-7.38,8.92-7.37,15.38v.22c0,12.86,11.41,19.58,22.69,19.58a26.409,26.409,0,0,0,18.52-7.07v5.84H494.1V49.01c0-7.69-2.14-13.77-6.37-18.07-4.45-4.54-10.97-6.85-19.37-6.85m9.35,48.71a19.481,19.481,0,0,1-12.18,3.89c-6.17,0-12.43-3.33-12.43-9.7v-.23c0-6.15,5.5-9.82,14.7-9.82a54.458,54.458,0,0,1,14.74,2.02v4.02a12.191,12.191,0,0,1-4.83,9.82M504.8,24.99h11.79V85.78H504.8ZM510.69.06a8.53,8.53,0,1,0,8.54,8.53A8.546,8.546,0,0,0,510.69.06M407.36,20.96,387.15,34.19,366.94,20.96l-14.71,9.63V25.02H340.86V85.83h11.75V44.16l14.33-9.38,14.33,9.38.01,41.67h11.76V44.16l14.32-9.4,14.32,9.38.01,41.69h11.75l-.01-47.75Z" style="fill:#0ea800"/>
	<path d="M194.21,113.06h10.64v54.59h27.43V178.2H194.21V113.06Zm48.25,32.57a33.3,33.3,0,1,1,33.3,33.3A33,33,0,0,1,242.46,145.63Zm55.78,0c0-13.03-9.63-23.21-22.48-23.21s-22.48,10.18-22.48,23.21,9.63,23.21,22.48,23.21S298.24,158.66,298.24,145.63Zm51.38-33.3,31.83,65.87H369.98l-6.79-14.49H335.94l-6.79,14.49H317.77l31.85-65.87Zm-9.08,41.65h18.07l-8.99-19.26-9.08,19.26Zm68.9-17.34V178.2H398.8V112.33l44.49,42.29V113.06h10.64v65.87l-44.49-42.29Zm98.45-23.58h37.8v10.46H518.53v16.51h21.19v10.28H518.53V178.2H507.89Zm56.33,0h10.64V178.2H564.22Zm44.95,23.58V178.2H598.53V112.33l44.49,42.29V113.06h10.64v65.87l-44.49-42.29Zm68.17-23.58h20.64c19.45,0,34.13,14.13,34.13,32.57s-14.68,32.57-34.13,32.57H677.34V113.06Zm20.64,55.23c14.04,0,23.3-9.82,23.3-22.66s-9.27-22.66-23.3-22.66h-10v45.32Zm54.04-55.23h38.62v10.46H762.66v16.51h22.48v10.28H762.66v17.43h27.98V178.2H752.02Zm75.87,37.43h-6.15V178.2H811.1V113.06h21.1c12.11,0,20.73,7.8,20.73,18.72,0,8.44-5.14,15.14-13.39,17.71l20.73,28.71H847.52l-19.63-27.71Zm3.31-9.26c7.34,0,10.92-3.58,10.92-9.08,0-5.6-3.58-9.27-10.92-9.27h-9.45v18.35Z" fill="currentColor"/>
	<path d="M70.24.06-.01,46.36V178.21H82.24l8.18-12.5-8.18-12.5H24.99V59.81H25L70.24,30Z" style="fill:#0ea800"/>
	<path d="M140.49,47.7V46.35L70.24.06V30l45.24,29.82h.01V178.14h25V47.7Z" style="fill:url(#a)"/>
</svg>