<?xml version="1.0" encoding="UTF-8"?>
<svg width="40px" height="40px" viewBox="0 0 40 40" version="1.1" xmlns="http://www.w3.org/2000/svg" xmlns:xlink="http://www.w3.org/1999/xlink">
    <title>domain-bot</title>
    <g id="bubble/Chat-domain-bot-icon" stroke="none" stroke-width="1" fill="none" fill-rule="evenodd">
        <rect id="Rectangle" fill="#0EA800" x="0" y="0" width="40" height="40"></rect>
        <g id="Group-3" transform="translate(10.000000, 8.000000)" fill="#FFFFFF" fill-rule="nonzero">
            <path d="M9.39404977,23.8223704 L-6.92779167e-14,17.6309456 C-6.92779167e-14,17.5698206 -6.92779167e-14,16.9563456 -6.92779167e-14,16.8958956 L-6.92779167e-14,17.4504956 L-6.92779167e-14,1.0658141e-14 L3.34307492,1.0658141e-14 L3.34307492,1.0658141e-14 L10.9986247,1.0658141e-14 L12.0928747,1.67187596 L10.9986247,3.34297092 L3.34307492,3.34297092 L3.34307492,15.8312456 L3.34432492,15.8312456 L9.39404977,19.8184455 L9.39404977,23.8223704" id="path28" transform="translate(6.046437, 11.911185) scale(-1, 1) rotate(-180.000000) translate(-6.046437, -11.911185) "></path>
            <path d="M18.7879995,17.4407348 C18.7879995,17.5009848 18.7879995,17.5598598 18.7879995,17.6209848 L9.39404977,23.8124097 L9.39404977,19.8084848 L15.4436496,15.8212849 L15.4449246,15.8212849 L15.4449246,1.33226763e-15 L18.7879995,1.33226763e-15 L18.7879995,17.4407348 L18.7879995,17.4407348" id="path30" transform="translate(14.091025, 11.906205) scale(-1, 1) rotate(-180.000000) translate(-14.091025, -11.906205) "></path>
        </g>
    </g>
</svg>