<svg xmlns="http://www.w3.org/2000/svg"  viewBox="0 0 1944 2472">
  <path fill="#29AB54" d="M976 -2l-976 643c0,6 0,70 0,76l0 -58 0 1812 347 0 795 0 114 -174 -114 -174 -795 0 0 -1297 0 0 628 -414 0 -416z"/>
  <polygon fill="#317144" points="1604,2471 1604,829 1604,828 1604,828 976,414 976,-1 977,-1 1951,641 1951,641 1951,642 1951,642 1951,642 1951,642 1951,643 1951,643 1951,643 1951,644 1951,644 1951,644 1951,645 1951,645 1951,645 1951,645 1951,646 1951,646 1951,646 1951,647 1951,647 1951,647 1951,647 1951,648 1951,648 1951,648 1951,649 1951,649 1951,649 1951,650 1951,650 1951,650 1951,650 1951,651 1951,651 1951,651 1951,652 1951,652 1951,652 1951,652 1951,653 1951,653 1951,653 1951,654 1951,654 1951,654 1951,654 1951,655 1951,655 1951,655 1951,656 1951,656 1951,656 1951,657 1951,657 1951,657 1951,657 1951,658 1951,658 1951,658 1951,659 1951,659 1951,659 1951,659 1951,660 1951,2471 "/>
</svg>
