<?xml version="1.0" encoding="UTF-8"?>
<svg width="608px" height="130px" viewBox="0 0 608 130" version="1.1" xmlns="http://www.w3.org/2000/svg" xmlns:xlink="http://www.w3.org/1999/xlink">
    <title>domain_logo_white</title>
    <defs>
        <path d="M50.2030654,93.0266643 C50.2030654,93.3479977 50.2030654,93.6626643 50.2030654,93.9879977 L0.101599997,127.009333 L0.101599997,105.654664 L32.3655992,84.3906646 L32.3729325,84.3906646 L32.3729325,0.0093333331 L50.2030654,0.0093333331 L50.2030654,93.0266643 L50.2030654,93.0266643 Z" id="path-1"></path>
        <linearGradient x1="43.041708%" y1="10.384252%" x2="56.0418101%" y2="84.3987402%" id="linearGradient-3">
            <stop stop-color="#31AD40" offset="0%"></stop>
            <stop stop-color="#246831" offset="100%"></stop>
        </linearGradient>
    </defs>
    <g id="Iteration-2---new-scope-document" stroke="none" stroke-width="1" fill="none" fill-rule="evenodd">
        <g id="domain_logo_white" transform="translate(0.000000, 1.946676)">
            <path d="M158.973329,52.985332 C165.369329,52.985332 170.857329,50.9093321 174.845329,46.9799988 C178.617329,43.2346656 180.694662,38.0226657 180.694662,32.3013325 L180.694662,32.1413325 C180.694662,20.0533328 171.762662,11.6039997 158.973329,11.589333 L147.235996,11.589333 L147.226663,52.985332 L158.973329,52.985332 L158.973329,52.985332 Z M158.973329,61.2106651 L138.51333,61.2013318 L138.51333,3.37866658 L158.973329,3.37866658 C167.627996,3.37866658 175.478662,6.34266651 181.078662,11.7239997 C186.602662,17.0293329 189.646662,24.3346661 189.646662,32.3026659 L189.646662,32.4546659 C189.646662,40.4066657 186.601329,47.6866655 181.067995,52.953332 C175.471996,58.2786652 167.626662,61.2106651 158.973329,61.2106651" id="path14" fill="#31AD40" fill-rule="nonzero" transform="translate(164.079996, 32.294666) scale(-1, 1) rotate(-180.000000) translate(-164.079996, -32.294666) "></path>
            <path d="M225.705328,29.1586659 C223.199994,26.398666 219.743995,24.8799994 215.974661,24.8799994 C208.355995,24.8799994 202.383995,31.3319992 202.378662,39.5653323 L202.378662,39.7186657 C202.378662,48.0426655 208.154661,54.3199986 215.814661,54.3199986 C223.490661,54.3199986 229.502661,47.8399988 229.502661,39.567999 L229.502661,39.3946657 C229.502661,35.4906658 228.154661,31.8559992 225.705328,29.1586659 M215.971995,62.1573318 C209.897328,62.1573318 204.271995,59.7799985 200.133328,55.4653319 C196.066662,51.2359987 193.823995,45.5906655 193.823995,39.5653323 L193.823995,39.3946657 C193.823995,26.8253327 203.486662,16.9773329 215.817328,16.9773329 L215.818661,16.9773329 C228.286661,16.9826662 238.053327,26.9053327 238.053327,39.567999 L238.053327,39.723999 C238.053327,45.7079989 235.837327,51.3186654 231.811994,55.5159986 C227.703994,59.7986652 222.078661,62.1573318 215.971995,62.1573318" id="path16" fill="#31AD40" fill-rule="nonzero" transform="translate(215.938661, 39.567332) scale(-1, 1) rotate(-180.000000) translate(-215.938661, -39.567332) "></path>
            <path d="M397.041323,61.1973318 C391.894657,61.1973318 387.786657,59.3946652 384.53599,55.6959986 L384.53599,60.3239985 L376.138657,60.3239985 L376.138657,16.9653329 L384.53599,16.9653329 L384.53599,41.619999 C384.53599,48.4426655 388.978657,53.2079987 395.338657,53.2079987 C401.71599,53.2079987 405.226657,49.2586654 405.226657,42.0906656 L405.226657,16.9653329 L413.622656,16.9653329 L413.622656,43.5893322 C413.622656,54.285332 407.113323,61.1973318 397.041323,61.1973318" id="path18" fill="#31AD40" fill-rule="nonzero" transform="translate(394.880657, 39.081332) scale(-1, 1) rotate(-180.000000) translate(-394.880657, -39.081332) "></path>
            <path d="M340.705325,27.3333326 C338.467992,25.542666 335.381325,24.5559994 332.017325,24.5559994 C327.614658,24.5559994 323.153325,26.9319993 323.153325,31.4773325 L323.153325,31.6399992 C323.153325,36.0239991 327.073325,38.6426657 333.641325,38.6426657 C338.089325,38.6426657 341.447991,37.9319991 344.157325,37.2026657 L344.157325,34.3373325 C344.157325,31.5599992 342.963991,29.1399993 340.705325,27.3333326 M334.038658,62.0719984 C328.589325,62.0719984 324.214659,61.0239985 318.934659,58.4586652 L317.947992,57.9799986 L320.554659,50.6693321 L321.770659,51.2719987 C325.762659,53.2159987 329.357325,54.0826653 333.419992,54.0826653 C340.361325,54.0826653 343.939991,50.8773321 344.065325,44.5559989 C340.831991,45.3879989 337.627992,45.9319989 333.031992,45.9319989 C327.663992,45.9319989 323.137325,44.6719989 319.935992,42.2946656 C316.491992,39.7253323 314.674659,35.9333324 314.67998,31.3279992 L314.67998,31.1693326 C314.67998,21.9999994 322.821325,17.2013329 330.861325,17.2013329 C337.121325,17.2013329 341.391991,19.7519995 344.067991,22.2453328 L344.067991,18.0786662 L352.394658,18.0786662 L352.394658,44.3013322 C352.394658,49.7826654 350.865325,54.1199986 347.851991,57.1879986 C344.675991,60.4306652 340.030658,62.0719984 334.038658,62.0719984" id="path20" fill="#31AD40" fill-rule="nonzero" transform="translate(333.537313, 39.636666) scale(-1, 1) rotate(-180.000000) translate(-333.537313, -39.636666) "></path>
            <polyline id="path22" fill="#31AD40" fill-rule="nonzero" transform="translate(364.225991, 39.516666) scale(-1, 1) rotate(-180.000000) translate(-364.225991, -39.516666) " points="360.022658 61.1946651 368.429324 61.1946651 368.429324 17.8386662 360.022658 17.8386662 360.022658 61.1946651"></polyline>
            <path d="M364.225324,12.2279997 C360.869324,12.2279997 358.138658,9.49599976 358.138658,6.13999985 C358.138658,2.7866666 360.869324,0.0573333319 364.225324,0.0573333319 C367.583991,0.0573333319 370.315991,2.7866666 370.315991,6.13999985 C370.315991,9.49599976 367.583991,12.2279997 364.225324,12.2279997" id="path24" fill="#31AD40" fill-rule="nonzero" transform="translate(364.227324, 6.142667) scale(-1, 1) rotate(-180.000000) translate(-364.227324, -6.142667) "></path>
            <polyline id="path26" fill="#31AD40" fill-rule="nonzero" transform="translate(276.118660, 38.098666) scale(-1, 1) rotate(-180.000000) translate(-276.118660, -38.098666) " points="290.530659 61.2319985 276.117326 51.7986654 261.705327 61.2319985 251.21466 54.3639986 251.21466 58.3359985 243.105327 58.3359985 243.105327 14.965333 251.485327 14.965333 251.485327 44.6879989 261.705327 51.373332 271.927993 44.6879989 271.93466 14.965333 280.323993 14.965333 280.323993 44.6879989 290.530659 51.3866654 300.746659 44.6973322 300.750659 14.965333 309.131992 14.965333 309.126659 49.0239988 290.530659 61.2319985"></polyline>
            <path d="M50.1015987,127.109863 L5.32907052e-13,94.088531 C5.32907052e-13,93.7631977 5.32907052e-13,90.4911977 5.32907052e-13,90.1698644 L5.32907052e-13,93.1271977 L5.32907052e-13,0.0573333319 L17.8297329,0.0573333319 L17.8297329,0.0573333319 L58.6593319,0.0573333319 L64.4953317,8.97386644 L58.6593319,17.8858662 L17.8297329,17.8858662 L17.8297329,84.4911979 L17.8369329,84.4911979 L50.1015987,105.755197 L50.1015987,127.109863" id="path28" fill="#31AD40" fill-rule="nonzero" transform="translate(32.247666, 63.583598) scale(-1, 1) rotate(-180.000000) translate(-32.247666, -63.583598) "></path>
            <g id="g32-Clipped" transform="translate(75.133331, 63.533332) scale(-1, 1) rotate(-180.000000) translate(-75.133331, -63.533332) translate(49.999999, -0.000000)">
                <mask id="mask-2" fill="white">
                    <use xlink:href="#path-1"></use>
                </mask>
                <g id="path34"></g>
                <g id="g32" mask="url(#mask-2)" fill="url(#linearGradient-3)" fill-rule="nonzero">
                    <path d="M50.2030654,93.0266643 C50.2030654,93.3479977 50.2030654,93.6626643 50.2030654,93.9879977 L0.101599997,127.009333 L0.101599997,105.654664 L32.3655992,84.3906646 L32.3729325,84.3906646 L32.3729325,0.0093333331 L50.2030654,0.0093333331 L50.2030654,93.0266643 L50.2030654,93.0266643" id="path44"></path>
                </g>
            </g>
            <polyline id="path78" fill="#FFFFFF" fill-rule="nonzero" transform="translate(157.618663, 103.781464) scale(-1, 1) rotate(-180.000000) translate(-157.618663, -103.781464) " points="138.51333 127.008263 146.102663 127.008263 146.102663 107.772264 169.134662 107.772264 169.134662 127.008263 176.723996 127.008263 176.723996 80.5546647 169.134662 80.5546647 169.134662 100.444264 146.102663 100.444264 146.102663 80.5546647 138.51333 80.5546647 138.51333 127.008263"></polyline>
            <path d="M230.703994,103.781064 C230.703994,113.071731 223.833328,120.334397 214.673328,120.334397 C205.513328,120.334397 198.643995,113.071731 198.643995,103.781064 C198.643995,94.4903976 205.513328,87.2274645 214.673328,87.2274645 C223.833328,87.2274645 230.703994,94.4903976 230.703994,103.781064 Z M190.922662,103.781064 C190.922662,117.193064 201.522662,127.53173 214.673328,127.53173 C227.889328,127.53173 238.423994,117.193064 238.423994,103.781064 C238.423994,90.3690644 227.889328,80.0306647 214.673328,80.0306647 C201.522662,80.0306647 190.922662,90.3690644 190.922662,103.781064" id="path80" fill="#FFFFFF" fill-rule="nonzero" transform="translate(214.673328, 103.781197) scale(-1, 1) rotate(-180.000000) translate(-214.673328, -103.781197) "></path>
            <polyline id="path82" fill="#FFFFFF" fill-rule="nonzero" transform="translate(275.457326, 103.519464) scale(-1, 1) rotate(-180.000000) translate(-275.457326, -103.519464) " points="252.62266 127.008263 275.457326 102.668264 298.291993 127.008263 298.291993 80.0306647 290.702659 80.0306647 290.702659 108.557597 275.457326 92.0695977 260.213327 108.557597 260.213327 80.0306647 252.62266 80.0306647 252.62266 127.008263"></polyline>
            <polyline id="path84" fill="#FFFFFF" fill-rule="nonzero" transform="translate(328.945992, 103.781464) scale(-1, 1) rotate(-180.000000) translate(-328.945992, -103.781464) " points="315.173325 127.008263 342.718658 127.008263 342.718658 119.549597 322.763992 119.549597 322.763992 107.772264 338.793325 107.772264 338.793325 100.444264 322.763992 100.444264 322.763992 88.0134645 342.718658 88.0134645 342.718658 80.5546647 315.173325 80.5546647 315.173325 127.008263"></polyline>
            <polyline id="path86" fill="#FFFFFF" fill-rule="nonzero" transform="translate(392.478657, 103.781464) scale(-1, 1) rotate(-180.000000) translate(-392.478657, -103.781464) " points="378.902657 127.008263 386.49199 127.008263 386.49199 88.0785311 406.054657 88.0785311 406.054657 80.5546647 378.902657 80.5546647 378.902657 127.008263"></polyline>
            <path d="M453.099989,103.781064 C453.099989,113.071731 446.229322,120.334397 437.069322,120.334397 C427.909323,120.334397 421.039989,113.071731 421.039989,103.781064 C421.039989,94.4903976 427.909323,87.2274645 437.069322,87.2274645 C446.229322,87.2274645 453.099989,94.4903976 453.099989,103.781064 Z M413.31999,103.781064 C413.31999,117.193064 423.918656,127.53173 437.069322,127.53173 C450.285322,127.53173 460.81999,117.193064 460.81999,103.781064 C460.81999,90.3690644 450.285322,80.0306647 437.069322,80.0306647 C423.918656,80.0306647 413.31999,90.3690644 413.31999,103.781064" id="path88" fill="#FFFFFF" fill-rule="nonzero" transform="translate(437.069989, 103.781197) scale(-1, 1) rotate(-180.000000) translate(-437.069989, -103.781197) "></path>
            <path d="M483.263988,97.3029309 L496.153321,97.3029309 L489.741321,111.044264 L483.263988,97.3029309 Z M489.741321,127.008263 L512.443987,80.0306647 L504.266654,80.0306647 L499.425321,90.3682644 L479.991988,90.3682644 L475.150655,80.0306647 L467.037322,80.0306647 L489.741321,127.008263" id="path90" fill="#FFFFFF" fill-rule="nonzero" transform="translate(489.740654, 103.519464) scale(-1, 1) rotate(-180.000000) translate(-489.740654, -103.519464) "></path>
            <polyline id="path92" fill="#FFFFFF" fill-rule="nonzero" transform="translate(544.473320, 103.781197) scale(-1, 1) rotate(-180.000000) translate(-544.473320, -103.781197) " points="532.40132 110.193064 532.40132 80.5541313 524.811987 80.5541313 524.811987 127.53173 556.545319 97.3690642 556.545319 127.00773 564.134653 127.00773 564.134653 80.0306647 532.40132 110.193064"></polyline>
            <path d="M577.155986,87.9473311 L582.913319,92.7890643 C585.071985,89.8450644 588.670652,87.2274645 592.726652,87.2274645 C597.241318,87.2274645 599.858652,89.2557311 599.858652,92.5930644 C599.858652,96.0597309 597.699985,98.0890642 593.119985,100.117064 L589.455985,101.687731 C582.454652,104.762397 578.987986,109.211731 578.987986,115.23173 C578.987986,122.690397 585.726652,127.53173 592.793319,127.53173 C598.157318,127.53173 602.410652,125.69973 605.813318,121.64373 L600.578652,116.213064 C598.157318,119.090397 596.063985,120.334397 592.726652,120.334397 C589.586652,120.334397 586.577319,118.502397 586.577319,115.29573 C586.577319,112.286397 588.670652,110.127731 593.317319,108.165064 L596.914652,106.529064 C603.261318,103.781064 607.579985,99.7237308 607.579985,93.247731 C607.579985,85.3957312 601.757318,80.0306647 592.793319,80.0306647 C585.791985,80.0306647 580.099985,83.1711979 577.155986,87.9473311" id="path94" fill="#FFFFFF" fill-rule="nonzero" transform="translate(592.367985, 103.781197) scale(-1, 1) rotate(-180.000000) translate(-592.367985, -103.781197) "></path>
        </g>
    </g>
</svg>