<?xml version="1.0" encoding="UTF-8" standalone="no"?>
<svg
   xmlns:dc="http://purl.org/dc/elements/1.1/"
   xmlns:cc="http://creativecommons.org/ns#"
   xmlns:rdf="http://www.w3.org/1999/02/22-rdf-syntax-ns#"
   xmlns:svg="http://www.w3.org/2000/svg"
   xmlns="http://www.w3.org/2000/svg"
   viewBox="0 0 902.74664 127.57333"
   height="127.57333"
   width="902.74664"
   xml:space="preserve"
   id="svg2"
   version="1.1"><metadata
     id="metadata8"><rdf:RDF><cc:Work
         rdf:about=""><dc:format>image/svg+xml</dc:format><dc:type
           rdf:resource="http://purl.org/dc/dcmitype/StillImage" /></cc:Work></rdf:RDF></metadata><defs
     id="defs6"><clipPath
       id="clipPath36"
       clipPathUnits="userSpaceOnUse"><path
         id="path34"
         d="m 751.52,701.938 c 0,2.41 0,4.765 0,7.21 L 375.762,956.805 V 796.648 L 617.746,637.16 h 0.051 V 4.30859 H 751.52 V 701.938 Z" /></clipPath><linearGradient
       id="linearGradient42"
       spreadMethod="pad"
       gradientTransform="matrix(313.881,704.988,-704.988,313.881,395.638,103.218)"
       gradientUnits="userSpaceOnUse"
       y2="0"
       x2="1"
       y1="0"
       x1="0"><stop
         id="stop38"
         offset="0"
         style="stop-opacity:1;stop-color:#31ad40" /><stop
         id="stop40"
         offset="1"
         style="stop-opacity:1;stop-color:#246831" /></linearGradient></defs><g
     transform="matrix(1.3333333,0,0,-1.3333333,0,127.57333)"
     id="g10"><g
       transform="scale(0.1)"
       id="g12"><path
         id="path14"
         style="fill:#31ad40;fill-opacity:1;fill-rule:nonzero;stroke:none"
         d="m 1192.3,870.207 c 47.96,0 89.13,-15.57 119.04,-45.047 28.29,-28.086 43.87,-67.18 43.87,-110.086 v -1.203 c 0,-90.656 -67,-154.031 -162.91,-154.133 h -88.03 l -0.07,310.465 h 88.1 z m 0,61.691 -153.45,-0.07 V 498.152 h 153.45 c 64.92,0 123.79,22.235 165.79,62.586 41.43,39.793 64.25,94.59 64.25,154.348 v 1.141 c 0,59.628 -22.84,114.238 -64.33,153.738 -41.97,39.941 -100.81,61.933 -165.71,61.933" /><path
         id="path16"
         style="fill:#31ad40;fill-opacity:1;fill-rule:nonzero;stroke:none"
         d="m 1692.79,582.41 c -18.8,-20.695 -44.71,-32.09 -72.98,-32.09 -57.13,0 -101.92,48.395 -101.97,110.145 v 1.144 c 0,62.442 43.32,109.52 100.76,109.52 57.58,0 102.67,-48.606 102.67,-110.649 v -1.296 c 0,-29.286 -10.12,-56.539 -28.48,-76.774 m -73,247.496 c -45.56,0 -87.75,-17.828 -118.79,-50.191 -30.5,-31.719 -47.31,-74.063 -47.31,-119.25 v -1.277 c 0,-94.274 72.46,-168.129 164.93,-168.129 h 0.01 c 93.52,0.031 166.78,74.457 166.78,169.425 v 1.172 c 0,44.883 -16.63,86.961 -46.82,118.438 -30.81,32.113 -73,49.812 -118.8,49.812" /><path
         id="path18"
         style="fill:#31ad40;fill-opacity:1;fill-rule:nonzero;stroke:none"
         d="m 2977.8,829.996 c -38.59,0 -69.4,-13.523 -93.79,-41.258 v 34.703 h -62.97 V 498.258 h 62.97 V 683.16 c 0,51.172 33.32,86.914 81.03,86.914 47.83,0 74.16,-29.617 74.16,-83.379 V 498.258 h 62.97 v 199.68 c 0,80.214 -48.81,132.058 -124.37,132.058" /><path
         id="path20"
         style="fill:#31ad40;fill-opacity:1;fill-rule:nonzero;stroke:none"
         d="m 2555.29,567.68 c -16.78,-13.418 -39.93,-20.828 -65.15,-20.828 -33.03,0 -66.49,17.824 -66.49,51.91 v 1.215 c 0,32.886 29.4,52.527 78.66,52.527 33.36,0 58.55,-5.328 78.86,-10.801 v -21.484 c 0.01,-20.832 -8.94,-38.992 -25.88,-52.539 m -50.01,260.55 c -40.87,0 -73.67,-7.863 -113.27,-27.109 l -7.39,-3.586 19.54,-54.832 9.13,4.52 c 29.93,14.582 56.89,21.086 87.36,21.086 52.06,0 78.91,-24.043 79.84,-71.457 -24.25,6.246 -48.28,10.32 -82.76,10.32 -40.25,0 -74.2,-9.449 -98.21,-27.277 -25.83,-19.266 -39.45,-47.711 -39.41,-82.247 v -1.191 c 0,-68.773 61.04,-104.762 121.35,-104.762 46.95,0 78.99,19.121 99.05,37.828 V 498.27 h 62.45 v 196.679 c 0,41.11 -11.47,73.633 -34.07,96.645 -23.82,24.316 -58.66,36.636 -103.61,36.636" /><path
         id="path22"
         style="fill:#31ad40;fill-opacity:1;fill-rule:nonzero;stroke:none"
         d="m 2700.17,823.445 h 63.04 V 498.277 h -63.04 v 325.168" /><path
         id="path24"
         style="fill:#31ad40;fill-opacity:1;fill-rule:nonzero;stroke:none"
         d="m 2731.69,956.805 c -25.18,0 -45.65,-20.485 -45.65,-45.657 0,-25.148 20.47,-45.628 45.65,-45.628 25.19,0 45.68,20.48 45.68,45.628 0,25.172 -20.49,45.657 -45.68,45.657" /><path
         id="path26"
         style="fill:#31ad40;fill-opacity:1;fill-rule:nonzero;stroke:none"
         d="m 2178.98,844.992 -108.1,-70.746 -108.1,70.746 -78.66,-51.508 v 29.789 h -60.83 V 498 h 62.85 v 222.914 l 76.64,50.145 76.68,-50.145 L 2039.5,498 h 62.92 v 222.914 l 76.56,50.242 76.62,-50.172 0.03,-222.984 h 62.87 l -0.05,255.434 -139.47,91.558" /><path
         id="path28"
         style="fill:#31ad40;fill-opacity:1;fill-rule:nonzero;stroke:none"
         d="M 375.762,956.805 0,709.148 c 0,-2.445 0,-26.984 0,-29.402 V 701.93 3.91016 h 133.723 v 0 h 306.222 l 43.77,66.87504 -43.77,66.8438 H 133.723 V 637.16 h 0.05 l 241.989,159.488 v 160.157" /><g
         id="g30"><g
           clip-path="url(#clipPath36)"
           id="g32"><path
             id="path44"
             style="fill:url(#linearGradient42);fill-opacity:1;fill-rule:nonzero;stroke:none"
             d="m 751.52,701.938 c 0,2.41 0,4.765 0,7.21 L 375.762,956.805 V 796.648 L 617.746,637.16 h 0.051 V 4.30859 H 751.52 v 697.62941 0" /></g></g><path
         id="path46"
         style="fill:#a8adb9;fill-opacity:1;fill-rule:nonzero;stroke:none"
         d="m 5205.6,600.863 c 10.32,0 16.38,5.703 16.38,14.328 0,8.614 -6.06,14.317 -16.38,14.317 h -11.06 v -28.645 z m -25.14,41.762 h 25.74 c 17.84,0 30.11,-11.168 30.11,-27.434 0,-16.027 -12.27,-27.445 -30.11,-27.445 h -11.66 v -31.324 h -14.08 v 86.203" /><path
         id="path48"
         style="fill:#a8adb9;fill-opacity:1;fill-rule:nonzero;stroke:none"
         d="m 5338.99,599.52 c 0,17.242 -12.74,30.726 -29.74,30.726 -16.99,0 -29.75,-13.484 -29.75,-30.726 0,-17.243 12.76,-30.715 29.75,-30.715 17,0 29.74,13.472 29.74,30.715 z m -73.81,0 c 0,24.89 19.66,44.082 44.07,44.082 24.53,0 44.07,-19.192 44.07,-44.082 0,-24.879 -19.54,-44.067 -44.07,-44.067 -24.41,0 -44.07,19.188 -44.07,44.067" /><path
         id="path50"
         style="fill:#a8adb9;fill-opacity:1;fill-rule:nonzero;stroke:none"
         d="m 5376.36,642.625 h 14.45 l 16.99,-49.652 21.37,50.629 21.38,-50.629 16.99,49.652 h 14.57 l -29.75,-87.172 -23.19,55.852 -23.18,-55.852 -29.63,87.172" /><path
         id="path52"
         style="fill:#a8adb9;fill-opacity:1;fill-rule:nonzero;stroke:none"
         d="m 5514.85,642.625 h 51.13 v -13.844 h -37.04 v -21.843 h 29.74 v -13.61 h -29.74 v -23.062 h 37.04 v -13.844 h -51.13 v 86.203" /><path
         id="path54"
         style="fill:#a8adb9;fill-opacity:1;fill-rule:nonzero;stroke:none"
         d="m 5629.33,605.355 c 9.7,0 14.44,4.727 14.44,12.024 0,7.398 -4.74,12.262 -14.44,12.262 h -12.51 v -24.286 z m -4.38,-12.261 h -8.13 v -36.672 h -14.09 v 86.203 h 27.92 c 16.03,0 27.45,-10.324 27.45,-24.77 0,-11.171 -6.8,-20.035 -17.73,-23.433 l 27.44,-38 h -16.87 l -25.99,36.672" /><path
         id="path56"
         style="fill:#a8adb9;fill-opacity:1;fill-rule:nonzero;stroke:none"
         d="m 5700.08,642.625 h 51.11 v -13.844 h -37.03 v -21.843 h 29.75 v -13.61 h -29.75 v -23.062 h 37.03 v -13.844 h -51.11 v 86.203" /><path
         id="path58"
         style="fill:#a8adb9;fill-opacity:1;fill-rule:nonzero;stroke:none"
         d="m 5815.27,569.527 c 18.58,0 30.84,13 30.84,29.993 0,17 -12.26,29.988 -30.84,29.988 h -13.23 v -59.981 z m -27.32,73.098 h 27.32 c 25.74,0 45.17,-18.703 45.17,-43.105 0,-24.407 -19.43,-43.098 -45.17,-43.098 h -27.32 v 86.203" /><path
         id="path60"
         style="fill:#a8adb9;fill-opacity:1;fill-rule:nonzero;stroke:none"
         d="m 5979.25,569.527 c 9.72,0 14.45,5.231 14.45,12.262 0,7.047 -4.73,12.516 -14.45,12.516 h -18.94 v -24.778 z m -4.37,36.805 c 8.63,0 12.99,5.09 12.99,11.652 0,6.309 -4.36,11.657 -12.99,11.657 h -14.57 v -23.309 z m -28.65,36.293 h 30.47 c 15.66,0 25.38,-10.801 25.38,-23.551 0,-7.769 -2.91,-13.113 -8.02,-16.761 8.02,-3.399 13.85,-10.43 13.85,-21.129 0,-15.055 -12.02,-24.762 -28.66,-24.762 h -33.02 v 86.203" /><path
         id="path62"
         style="fill:#a8adb9;fill-opacity:1;fill-rule:nonzero;stroke:none"
         d="m 6058.75,592.723 -31.69,49.902 h 16.51 l 22.22,-35.57 22.22,35.57 h 16.64 l -31.82,-49.902 v -36.301 h -14.08 v 36.301" /><path
         id="path64"
         style="fill:#54c49c;fill-opacity:1;fill-rule:nonzero;stroke:none"
         d="m 6700.26,350.656 h 36.18 c 9.37,0 17.41,-3.359 24.12,-10.047 6.68,-6.699 10.04,-14.738 10.04,-24.113 v -21.101 h -70.34 v 55.261" /><path
         id="path66"
         style="fill:#100f0d;fill-opacity:1;fill-rule:nonzero;stroke:none"
         d="m 5756.4,350.656 h 36.17 c 9.37,0 17.41,-3.183 24.11,-9.539 6.69,-6.379 10.05,-14.242 10.05,-23.617 V 5.02344 H 5756.4 V 350.656" /><path
         id="path68"
         style="fill:#100f0d;fill-opacity:1;fill-rule:nonzero;stroke:none"
         d="m 5929.82,165.785 h 102.49 c -1.35,18.086 -6.04,31.473 -14.08,40.195 -8.71,9.364 -21.09,14.059 -37.16,14.059 -14.75,0 -26.81,-4.695 -36.18,-14.059 -9.39,-9.398 -14.41,-22.785 -15.07,-40.195 z m 120.57,-78.3709 h 50.24 c -7.38,-28.1328 -21.45,-49.5821 -42.2,-64.3047 -20.77,-15.41018 -46.9,-23.10549375 -78.37,-23.10549375 -38.18,0 -68,12.38279375 -89.42,37.17579375 -21.45,24.1094 -32.16,58.6055 -32.16,103.4843 0,42.856 10.38,76.371 31.15,100.481 21.43,24.765 51.24,37.179 89.42,37.179 40.19,0 71.34,-12.07 93.44,-36.183 21.44,-24.786 32.16,-59.278 32.16,-103.485 0,-2.687 0,-5.019 0,-7.035 0,-2.008 0,-3.355 0,-4.019 0,-3.36 -0.35,-5.696 -1.01,-7.032 h -173.82 c 0.66,-20.7731 5.68,-36.1716 15.07,-46.2223 8.69,-10.7227 21.76,-16.0743 39.18,-16.0743 11.39,0 21.11,2.3438 29.14,7.0313 2.02,0.6641 3.85,1.8476 5.53,3.5156 1.66,1.6719 3.52,3.5274 5.53,5.5274 0.65,2.0117 3.16,4.6796 7.53,8.039 4.35,3.3477 10.55,5.0274 18.59,5.0274" /><path
         id="path70"
         style="fill:#100f0d;fill-opacity:1;fill-rule:nonzero;stroke:none"
         d="m 6374.52,5.02344 h -35.16 c -10.05,0 -18.27,3.17187 -24.62,9.53906 -6.37,6.3672 -9.54,14.582 -9.54,24.6211 V 175.832 c 0,16.074 -4.87,27.793 -14.57,35.164 -9.72,7.367 -20.6,11.059 -32.66,11.059 -12.05,0 -22.77,-3.692 -32.15,-11.059 -9.39,-7.371 -14.06,-19.09 -14.06,-35.164 V 5.02344 h -70.34 V 161.762 c 0,45.547 11.88,76.023 35.67,91.433 23.77,15.403 50.06,23.77 78.88,25.129 29.46,0 56.59,-7.715 81.37,-23.117 24.78,-15.418 37.18,-46.562 37.18,-93.445 V 5.02344" /><path
         id="path72"
         style="fill:#100f0d;fill-opacity:1;fill-rule:nonzero;stroke:none"
         d="m 6473.59,140.664 c 0,-26.805 5.02,-47.2226 15.07,-61.2851 10.05,-14.0742 24.45,-21.1055 43.21,-21.1055 18.08,0 32.15,7.0313 42.2,21.1055 9.37,14.0625 14.07,34.4801 14.07,61.2851 0,24.113 -5.02,43.207 -15.07,57.277 -10.73,13.391 -25.12,20.09 -43.21,20.09 -17.43,0 -31.15,-7.035 -41.2,-21.105 -10.05,-13.406 -15.07,-32.149 -15.07,-56.262 z m 114.55,211 h 34.16 c 9.37,0 17.41,-3.516 24.12,-10.547 6.68,-7.035 10.04,-14.914 10.04,-23.617 V 121.574 c 0,-47.5662 -13.73,-79.7263 -41.2,-96.4529 C 6587.79,8.37109 6558,0.00390625 6525.84,0.00390625 c -17.42,0 -34.5,2.85937375 -51.24,8.53515375 -16.75,5.68364 -30.15,14.90234 -40.2,27.62504 -19.43,24.7773 -29.13,58.6132 -29.13,101.4839 0,42.207 9.7,76.016 29.13,101.485 20.1,26.125 45.88,39.191 77.38,39.191 16.73,0 31.47,-3.371 44.21,-10.051 13.39,-8.035 24.11,-18.437 32.15,-31.152 v 114.543" /><path
         id="path74"
         style="fill:#100f0d;fill-opacity:1;fill-rule:nonzero;stroke:none"
         d="m 6700.26,272.289 h 36.18 c 9.37,0 17.41,-3.359 24.12,-10.051 6.68,-6.707 10.04,-14.746 10.04,-24.109 V 5.02344 h -70.34 V 272.289" /><path
         id="path76"
         style="fill:#54c49c;fill-opacity:1;fill-rule:nonzero;stroke:none"
         d="M 5606.92,88.7539 H 5482.44 V 217.871 h -88.75 V 88.7539 H 5269.21 V 296.867 L 5441.1,408.363 5606.92,297.297 Z M 5676,357.844 5466.2,498.383 c -14.74,9.875 -33.95,10.019 -48.85,0.359 L 5200.68,358.207 c -12.61,-8.176 -20.22,-22.187 -20.22,-37.227 V 44.3789 c 0,-24.5117 19.86,-44.37499375 44.37,-44.37499375 h 426.47 c 24.51,0 44.37,19.86329375 44.37,44.37499375 V 320.98 c 0,14.805 -7.38,28.633 -19.67,36.864" /><path
         id="path78"
         style="fill:#a8adb9;fill-opacity:1;fill-rule:nonzero;stroke:none"
         d="m 4892.86,0.00390625 h -5.35 V 642.625 h 5.35 V 0.00390625" /><path
         id="path80"
         style="fill:#182341;fill-opacity:1;fill-rule:nonzero;stroke:none"
         d="m 1038.85,353.078 h 56.92 V 208.813 h 172.74 v 144.265 h 56.92 V 4.67188 h -56.92 V 153.852 H 1095.77 V 4.67188 h -56.92 V 353.078" /><path
         id="path82"
         style="fill:#182341;fill-opacity:1;fill-rule:nonzero;stroke:none"
         d="m 1730.27,178.871 c 0,69.688 -51.52,124.149 -120.22,124.149 -68.7,0 -120.23,-54.461 -120.23,-124.149 0,-69.68 51.53,-124.1522 120.23,-124.1522 68.7,0 120.22,54.4722 120.22,124.1522 z m -298.35,0 c 0,100.606 79.5,178.133 178.13,178.133 99.13,0 178.13,-77.527 178.13,-178.133 0,-100.5976 -79,-178.124906 -178.13,-178.124906 -98.63,0 -178.13,77.527306 -178.13,178.124906" /><path
         id="path84"
         style="fill:#182341;fill-opacity:1;fill-rule:nonzero;stroke:none"
         d="m 1894.67,357.004 171.26,-182.547 171.26,182.547 V 4.67188 h -56.92 V 218.625 L 2065.93,94.9648 1951.6,218.625 V 4.67188 h -56.93 V 357.004" /><path
         id="path86"
         style="fill:#182341;fill-opacity:1;fill-rule:nonzero;stroke:none"
         d="m 2363.81,353.078 h 206.59 v -55.945 h -149.67 v -88.32 h 120.23 V 153.852 H 2420.73 V 60.6094 H 2570.4 V 4.67188 H 2363.81 V 353.078" /><path
         id="path88"
         style="fill:#182341;fill-opacity:1;fill-rule:nonzero;stroke:none"
         d="m 2841.77,353.078 h 56.92 V 61.1055 h 146.73 V 4.67188 H 2841.77 V 353.078" /><path
         id="path90"
         style="fill:#182341;fill-opacity:1;fill-rule:nonzero;stroke:none"
         d="m 3398.24,178.871 c 0,69.688 -51.52,124.149 -120.22,124.149 -68.7,0 -120.23,-54.461 -120.23,-124.149 0,-69.68 51.53,-124.1522 120.23,-124.1522 68.7,0 120.22,54.4722 120.22,124.1522 z m -298.35,0 c 0,100.606 79.5,178.133 178.13,178.133 99.13,0 178.13,-77.527 178.13,-178.133 0,-100.5976 -79,-178.124906 -178.13,-178.124906 -98.63,0 -178.13,77.527306 -178.13,178.124906" /><path
         id="path92"
         style="fill:#182341;fill-opacity:1;fill-rule:nonzero;stroke:none"
         d="m 3624.47,134.223 h 96.67 l -48.08,103.047 z m 48.59,222.781 170.27,-352.33212 h -61.34 L 3745.68,82.1992 H 3599.94 L 3563.62,4.67188 h -60.84 L 3673.06,357.004" /><path
         id="path94"
         style="fill:#182341;fill-opacity:1;fill-rule:nonzero;stroke:none"
         d="M 3993.01,226.965 V 4.67188 h -56.93 V 357.004 l 238,-226.219 v 222.293 h 56.93 V 0.746094 l -238,226.218906" /><path
         id="path96"
         style="fill:#182341;fill-opacity:1;fill-rule:nonzero;stroke:none"
         d="m 4328.66,60.1211 43.19,36.3164 c 16.19,-22.0898 43.18,-41.7187 73.61,-41.7187 33.86,0 53.49,15.2148 53.49,40.246 0,26.0042 -16.21,41.2192 -50.55,56.4332 l -27.48,11.778 c -52.51,23.058 -78.52,56.426 -78.52,101.57 0,55.942 50.55,92.258 103.55,92.258 40.23,0 72.13,-13.738 97.64,-44.172 l -39.25,-40.719 c -18.16,21.59 -33.86,30.907 -58.88,30.907 -23.56,0 -46.13,-13.731 -46.13,-37.782 0,-22.57 15.7,-38.761 50.54,-53.488 l 26.99,-12.266 c 47.6,-20.613 79.99,-51.035 79.99,-99.6168 0,-58.8867 -43.68,-99.121106 -110.9,-99.121106 -52.51,0 -95.21,23.554706 -117.29,59.375006" /></g></g></svg>