<?xml version="1.0" encoding="UTF-8"?>
<svg width="608px" height="130px" viewBox="0 0 608 130" version="1.1" xmlns="http://www.w3.org/2000/svg" xmlns:xlink="http://www.w3.org/1999/xlink">
    <title>DHL_Lendi_Logo_POS_RGB</title>
    <defs>
        <path d="M50.2026654,93.0583977 C50.2026654,93.379731 50.2026654,93.693731 50.2026654,94.019731 L0.101599997,127.040663 L0.101599997,105.686397 L32.3661325,84.4213312 L32.3729325,84.4213312 L32.3729325,0.0411453323 L50.2026654,0.0411453323 L50.2026654,93.0583977 Z" id="path-1"></path>
        <linearGradient x1="43.0417732%" y1="10.3842292%" x2="56.0418695%" y2="84.3989963%" id="linearGradient-3">
            <stop stop-color="#31AD40" offset="0%"></stop>
            <stop stop-color="#246831" offset="100%"></stop>
        </linearGradient>
    </defs>
    <g id="Option" stroke="none" stroke-width="1" fill="none" fill-rule="evenodd">
        <g id="DHL_Lendi_Logo_POS_RGB" transform="translate(0.000000, 1.000000)">
            <g id="g12" transform="translate(304.000000, 64.573330) scale(-1, 1) rotate(-180.000000) translate(-304.000000, -64.573330) translate(0.000000, 0.573330)">
                <path d="M158.973329,116.027597 C165.367996,116.027597 170.857329,113.951597 174.845329,110.021331 C178.617329,106.276531 180.694662,101.063997 180.694662,95.3431976 L180.694662,95.1827976 C180.694662,83.0953313 171.761329,74.6453315 158.973329,74.6317315 L147.235996,74.6317315 L147.226663,116.027064 L158.973329,116.027064 L158.973329,116.027597 Z M158.973329,124.253064 L138.51333,124.24373 L138.51333,66.420265 L158.973329,66.420265 C167.629329,66.420265 175.478662,69.3849316 181.078662,74.7650648 C186.602662,80.070798 189.645329,87.3770645 189.645329,95.3447976 L189.645329,95.4969309 C189.645329,103.447331 186.599995,110.728664 181.067995,115.99533 C175.471996,121.320797 167.626662,124.253064 158.973329,124.253064" id="path14" fill="#31AD40" fill-rule="nonzero"></path>
                <path d="M225.705328,77.6546647 C223.198661,74.8953315 219.743995,73.3759982 215.974661,73.3759982 C208.357328,73.3759982 202.385328,79.8286647 202.378662,88.0619978 L202.378662,88.2145311 C202.378662,96.5401309 208.154661,102.817197 215.813328,102.817197 C223.490661,102.817197 229.502661,96.3363976 229.502661,88.0639978 L229.502661,87.8911978 C229.502661,83.9863979 228.153328,80.3526647 225.705328,77.6546647 M215.971995,110.654131 C209.897328,110.654131 204.271995,108.277064 200.133328,103.961997 C196.066662,99.7327975 193.825328,94.086931 193.825328,88.0619978 L193.825328,87.8917311 C193.825328,75.3218648 203.486662,65.4745317 215.815995,65.4745317 L215.817328,65.4745317 C228.286661,65.478665 238.054661,75.4021314 238.054661,88.0645311 L238.054661,88.2207978 C238.054661,94.2051976 235.837327,99.8155975 231.811994,104.012531 C227.703994,108.294264 222.078661,110.654131 215.971995,110.654131" id="path16" fill="#31AD40" fill-rule="nonzero"></path>
                <path d="M397.03999,110.666131 C391.894657,110.666131 387.786657,108.863064 384.534657,105.165064 L384.534657,109.792131 L376.138657,109.792131 L376.138657,66.4343983 L384.534657,66.4343983 L384.534657,91.0879977 C384.534657,97.9109309 388.977324,102.676531 395.338657,102.676531 C401.71599,102.676531 405.226657,98.7275975 405.226657,91.559331 L405.226657,66.4343983 L413.622656,66.4343983 L413.622656,93.0583977 C413.622656,103.753597 407.114656,110.666131 397.03999,110.666131" id="path18" fill="#31AD40" fill-rule="nonzero"></path>
                <path d="M340.705325,75.6906648 C338.467992,73.9015982 335.381325,72.9135982 332.018658,72.9135982 C327.614658,72.9135982 323.153325,75.2901315 323.153325,79.8349313 L323.153325,79.9969313 C323.153325,84.3817312 327.073325,87.0005312 333.641325,87.0005312 C338.089325,87.0005312 341.447991,86.2901312 344.155993,85.5603979 L344.155993,82.6958646 C344.157325,79.9182647 342.963991,77.4969314 340.705325,75.6906648 M334.037325,110.430664 C328.587992,110.430664 324.214659,109.382264 318.934659,106.816131 L317.949325,106.337997 L320.554659,99.0270642 L321.771992,99.6297308 C325.762659,101.573997 329.357325,102.441197 333.419992,102.441197 C340.361325,102.441197 343.941325,99.2354642 344.065325,92.9135977 C340.831991,93.7463977 337.627992,94.2895976 333.030658,94.2895976 C327.663992,94.2895976 323.137325,93.029731 319.935992,90.6526644 C316.491992,88.0838645 314.675992,84.2911979 314.681314,79.686398 L314.681314,79.527598 C314.681314,70.3578649 322.819992,65.5593317 330.861325,65.5593317 C337.121325,65.5593317 341.393325,68.1087983 344.067991,70.6030649 L344.067991,66.4359983 L352.394658,66.4359983 L352.394658,92.6598644 C352.394658,98.1411975 350.865325,102.477597 347.851991,105.545864 C344.675991,108.787997 340.030658,110.430664 334.037325,110.430664" id="path20" fill="#31AD40" fill-rule="nonzero"></path>
                <polyline id="path22" fill="#31AD40" fill-rule="nonzero" points="360.022658 109.792664 368.427991 109.792664 368.427991 66.4369317 360.022658 66.4369317 360.022658 109.792664"></polyline>
                <path d="M364.225324,127.573997 C360.867991,127.573997 358.138658,124.842664 358.138658,121.486397 C358.138658,118.13333 360.867991,115.402664 364.225324,115.402664 C367.583991,115.402664 370.315991,118.13333 370.315991,121.486397 C370.315991,124.842664 367.583991,127.573997 364.225324,127.573997" id="path24" fill="#31AD40" fill-rule="nonzero"></path>
                <polyline id="path26" fill="#31AD40" fill-rule="nonzero" points="290.530659 112.665597 276.117326 103.232797 261.703993 112.665597 251.215994 105.797864 251.215994 109.769731 243.105327 109.769731 243.105327 66.3999983 251.485327 66.3999983 251.485327 96.1218643 261.703993 102.807864 271.927993 96.1218643 271.933327 66.3999983 280.32266 66.3999983 280.32266 96.1218643 290.530659 102.820797 300.746659 96.1311976 300.750659 66.3999983 309.133326 66.3999983 309.126659 100.457864 290.530659 112.665597"></polyline>
                <path d="M50.1015987,127.573997 L0,94.5530643 C0,94.2270643 0,90.9551977 0,90.6327977 L0,93.5906643 L0,0.521354654 L17.8297329,0.521354654 L17.8297329,0.521354654 L58.6593319,0.521354654 L64.4953317,9.43802643 L58.6593319,18.3505329 L17.8297329,18.3505329 L17.8297329,84.9546645 L17.8363996,84.9546645 L50.1015987,106.219731 L50.1015987,127.573997" id="path28" fill="#31AD40" fill-rule="nonzero"></path>
                <g id="g32-Clipped" transform="translate(49.999999, 0.533333)">
                    <mask id="mask-2" fill="white">
                        <use xlink:href="#path-1"></use>
                    </mask>
                    <g id="path34"></g>
                    <g id="g32" mask="url(#mask-2)" fill="url(#linearGradient-3)" fill-rule="nonzero">
                        <path d="M50.2026654,93.0583977 C50.2026654,93.379731 50.2026654,93.693731 50.2026654,94.019731 L0.101599997,127.040663 L0.101599997,105.686397 L32.3661325,84.4213312 L32.3729325,84.4213312 L32.3729325,0.0411453323 L50.2026654,0.0411453323 L50.2026654,93.0583977 L50.2026654,93.0583977" id="path44"></path>
                    </g>
                </g>
                <polyline id="path80" fill="#182341" fill-rule="nonzero" points="138.51333 47.0770655 146.102663 47.0770655 146.102663 27.8417326 169.134662 27.8417326 169.134662 47.0770655 176.723996 47.0770655 176.723996 0.622917318 169.134662 0.622917318 169.134662 20.5135995 146.102663 20.5135995 146.102663 0.622917318 138.51333 0.622917318 138.51333 47.0770655"></polyline>
                <path d="M230.702661,23.8494661 C230.702661,33.1411992 223.833328,40.4026657 214.673328,40.4026657 C205.513328,40.4026657 198.642662,33.1411992 198.642662,23.8494661 C198.642662,14.5587996 205.513328,7.29583982 214.673328,7.29583982 C223.833328,7.29583982 230.702661,14.5587996 230.702661,23.8494661 Z M190.922662,23.8494661 C190.922662,37.2635991 201.522662,47.6005321 214.673328,47.6005321 C227.890661,47.6005321 238.423994,37.2635991 238.423994,23.8494661 C238.423994,10.4364531 227.890661,0.0994791975 214.673328,0.0994791975 C201.522662,0.0994791975 190.922662,10.4364531 190.922662,23.8494661" id="path82" fill="#182341" fill-rule="nonzero"></path>
                <polyline id="path84" fill="#182341" fill-rule="nonzero" points="252.62266 47.6005321 275.457326 23.2609328 298.291993 47.6005321 298.291993 0.622917318 290.702659 0.622917318 290.702659 29.1499993 275.457326 12.661973 260.213327 29.1499993 260.213327 0.622917318 252.62266 0.622917318 252.62266 47.6005321"></polyline>
                <polyline id="path86" fill="#182341" fill-rule="nonzero" points="315.174659 47.0770655 342.719991 47.0770655 342.719991 39.6177323 322.763992 39.6177323 322.763992 27.8417326 338.794658 27.8417326 338.794658 20.5135995 322.763992 20.5135995 322.763992 8.08125313 342.719991 8.08125313 342.719991 0.622917318 315.174659 0.622917318 315.174659 47.0770655"></polyline>
                <polyline id="path88" fill="#182341" fill-rule="nonzero" points="378.902657 47.0770655 386.49199 47.0770655 386.49199 8.1473998 406.05599 8.1473998 406.05599 0.622917318 378.902657 0.622917318 378.902657 47.0770655"></polyline>
                <path d="M453.098655,23.8494661 C453.098655,33.1411992 446.229322,40.4026657 437.069322,40.4026657 C427.909323,40.4026657 421.038656,33.1411992 421.038656,23.8494661 C421.038656,14.5587996 427.909323,7.29583982 437.069322,7.29583982 C446.229322,7.29583982 453.098655,14.5587996 453.098655,23.8494661 Z M413.318656,23.8494661 C413.318656,37.2635991 423.918656,47.6005321 437.069322,47.6005321 C450.286655,47.6005321 460.819988,37.2635991 460.819988,23.8494661 C460.819988,10.4364531 450.286655,0.0994791975 437.069322,0.0994791975 C423.918656,0.0994791975 413.318656,10.4364531 413.318656,23.8494661" id="path90" fill="#182341" fill-rule="nonzero"></path>
                <path d="M483.262655,17.8963996 L496.151988,17.8963996 L489.741321,31.6359992 L483.262655,17.8963996 Z M489.741321,47.6005321 L512.443987,0.622917318 L504.265321,0.622917318 L499.423988,10.9598931 L479.991988,10.9598931 L475.149321,0.622917318 L467.037322,0.622917318 L489.741321,47.6005321" id="path92" fill="#182341" fill-rule="nonzero"></path>
                <polyline id="path94" fill="#182341" fill-rule="nonzero" points="532.40132 30.2619992 532.40132 0.622917318 524.810654 0.622917318 524.810654 47.6005321 556.543986 17.4379996 556.543986 47.0770655 564.134653 47.0770655 564.134653 0.0994791975 532.40132 30.2619992"></polyline>
                <path d="M577.154652,8.01614647 L582.913319,12.858333 C585.071985,9.91302642 588.670652,7.29583982 592.727985,7.29583982 C597.242652,7.29583982 599.859985,9.32447977 599.859985,12.661973 C599.859985,16.1291996 597.698652,18.1578662 593.119985,20.1863995 L589.455985,21.7567995 C582.454652,24.8311994 578.986652,29.2802659 578.986652,35.2994658 C578.986652,42.7583989 585.726652,47.6005321 592.793319,47.6005321 C598.157318,47.6005321 602.410652,45.7687989 605.811985,41.7109323 L600.578652,36.2817324 C598.157318,39.160399 596.063985,40.4026657 592.727985,40.4026657 C589.586652,40.4026657 586.577319,38.5718657 586.577319,35.3650658 C586.577319,32.3557325 588.670652,30.1969326 593.315985,28.2333326 L596.914652,26.597866 C603.261318,23.8494661 607.579985,19.7931995 607.579985,13.3156263 C607.579985,5.46406653 601.755985,0.0994791975 592.793319,0.0994791975 C585.791985,0.0994791975 580.098652,3.24010659 577.154652,8.01614647" id="path96" fill="#182341" fill-rule="nonzero"></path>
            </g>
        </g>
    </g>
</svg>