<svg xmlns="http://www.w3.org/2000/svg" xmlns:xlink="http://www.w3.org/1999/xlink" viewBox="0 0 1265.87 179"><defs><linearGradient id="a" x1="73.955" y1="1059.678" x2="132.639" y2="927.872" gradientTransform="translate(0 -900.03)" gradientUnits="userSpaceOnUse"><stop offset="0" stop-color="#0ea800"/><stop offset="1" stop-color="#106b0c"/></linearGradient></defs><title>DLF-logo-LUI</title><path d="M222.89,4.71l-28.69.01V85.8h28.69c12.14,0,23.14-4.16,30.99-11.7a39.509,39.509,0,0,0,12.01-28.85v-.21A39.174,39.174,0,0,0,253.86,16.3c-7.83-7.48-18.83-11.59-30.97-11.59m0,11.54c8.97,0,16.66,2.91,22.26,8.42a28.645,28.645,0,0,1,8.2,20.58v.23c0,16.95-12.53,28.8-30.46,28.81H206.43l-.01-58.04Zm79.92,7.53a30.477,30.477,0,0,0-22.21,9.38,31.97,31.97,0,0,0-8.85,22.29v.24c0,17.62,13.55,31.43,30.84,31.43,17.48-.01,31.18-13.92,31.18-31.68v-.22a31.784,31.784,0,0,0-8.75-22.14,30.472,30.472,0,0,0-22.21-9.3m13.65,46.27a18.192,18.192,0,0,1-13.64,6c-10.68,0-19.05-9.05-19.06-20.59v-.21c0-11.67,8.1-20.47,18.84-20.47,10.76,0,19.19,9.09,19.19,20.69v.24a21.185,21.185,0,0,1-5.33,14.34M556.7,23.76c-7.22,0-12.97,2.53-17.53,7.71V24.98H527.4V85.77h11.77V51.21c0-9.57,6.23-16.25,15.15-16.25,8.94,0,13.86,5.54,13.86,15.59V85.78h11.77V48.45c0-14.99-9.12-24.69-23.25-24.69m-88.34.33a45.124,45.124,0,0,0-21.18,5.07l-1.38.67,3.65,10.25,1.71-.85a35.645,35.645,0,0,1,16.33-3.94c9.73,0,14.75,4.49,14.93,13.36a57.828,57.828,0,0,0-15.47-1.93c-7.53,0-13.87,1.77-18.36,5.1-4.83,3.6-7.38,8.92-7.37,15.38v.22c0,12.86,11.41,19.58,22.69,19.58a26.409,26.409,0,0,0,18.52-7.07v5.84H494.1V49.01c0-7.69-2.14-13.77-6.37-18.07-4.45-4.54-10.97-6.85-19.37-6.85m9.35,48.71a19.481,19.481,0,0,1-12.18,3.89c-6.17,0-12.43-3.33-12.43-9.7v-.23c0-6.15,5.5-9.82,14.7-9.82a54.458,54.458,0,0,1,14.74,2.02v4.02a12.191,12.191,0,0,1-4.83,9.82M504.8,24.99h11.79V85.78H504.8ZM510.69.06a8.53,8.53,0,1,0,8.54,8.53A8.546,8.546,0,0,0,510.69.06M407.36,20.96,387.15,34.19,366.94,20.96l-14.71,9.63V25.02H340.86V85.83h11.75V44.16l14.33-9.38,14.33,9.38.01,41.67h11.76V44.16l14.32-9.4,14.32,9.38.01,41.69h11.75l-.01-47.75Z" style="fill:#0ea800"/><path d="M222.89,4.71l-28.69.01V85.8h28.69c12.14,0,23.14-4.16,30.99-11.7a39.509,39.509,0,0,0,12.01-28.85v-.21A39.174,39.174,0,0,0,253.86,16.3c-7.83-7.48-18.83-11.59-30.97-11.59m0,11.54c8.97,0,16.66,2.91,22.26,8.42a28.645,28.645,0,0,1,8.2,20.58v.23c0,16.95-12.53,28.8-30.46,28.81H206.43l-.01-58.04Zm79.92,7.53a30.477,30.477,0,0,0-22.21,9.38,31.97,31.97,0,0,0-8.85,22.29v.24c0,17.62,13.55,31.43,30.84,31.43,17.48-.01,31.18-13.92,31.18-31.68v-.22a31.784,31.784,0,0,0-8.75-22.14,30.472,30.472,0,0,0-22.21-9.3m13.65,46.27a18.192,18.192,0,0,1-13.64,6c-10.68,0-19.05-9.05-19.06-20.59v-.21c0-11.67,8.1-20.47,18.84-20.47,10.76,0,19.19,9.09,19.19,20.69v.24a21.185,21.185,0,0,1-5.33,14.34M556.7,23.76c-7.22,0-12.97,2.53-17.53,7.71V24.98H527.4V85.77h11.77V51.21c0-9.57,6.23-16.25,15.15-16.25,8.94,0,13.86,5.54,13.86,15.59V85.78h11.77V48.45c0-14.99-9.12-24.69-23.25-24.69m-88.34.33a45.124,45.124,0,0,0-21.18,5.07l-1.38.67,3.65,10.25,1.71-.85a35.645,35.645,0,0,1,16.33-3.94c9.73,0,14.75,4.49,14.93,13.36a57.828,57.828,0,0,0-15.47-1.93c-7.53,0-13.87,1.77-18.36,5.1-4.83,3.6-7.38,8.92-7.37,15.38v.22c0,12.86,11.41,19.58,22.69,19.58a26.409,26.409,0,0,0,18.52-7.07v5.84H494.1V49.01c0-7.69-2.14-13.77-6.37-18.07-4.45-4.54-10.97-6.85-19.37-6.85m9.35,48.71a19.481,19.481,0,0,1-12.18,3.89c-6.17,0-12.43-3.33-12.43-9.7v-.23c0-6.15,5.5-9.82,14.7-9.82a54.458,54.458,0,0,1,14.74,2.02v4.02a12.191,12.191,0,0,1-4.83,9.82M504.8,24.99h11.79V85.78H504.8ZM510.69.06a8.53,8.53,0,1,0,8.54,8.53A8.546,8.546,0,0,0,510.69.06M407.36,20.96,387.15,34.19,366.94,20.96l-14.71,9.63V25.02H340.86V85.83h11.75V44.16l14.33-9.38,14.33,9.38.01,41.67h11.76V44.16l14.32-9.4,14.32,9.38.01,41.69h11.75l-.01-47.75Z" style="fill:#0ea800"/><path d="M194.21,113.06h10.64v54.59h27.43V178.2H194.21V113.06Zm48.25,32.57a33.3,33.3,0,1,1,33.3,33.3A33,33,0,0,1,242.46,145.63Zm55.78,0c0-13.03-9.63-23.21-22.48-23.21s-22.48,10.18-22.48,23.21,9.63,23.21,22.48,23.21S298.24,158.66,298.24,145.63Zm51.38-33.3,31.83,65.87H369.98l-6.79-14.49H335.94l-6.79,14.49H317.77l31.85-65.87Zm-9.08,41.65h18.07l-8.99-19.26-9.08,19.26Zm68.9-17.34V178.2H398.8V112.33l44.49,42.29V113.06h10.64v65.87l-44.49-42.29Zm98.45-23.58h37.8v10.46H518.53v16.51h21.19v10.28H518.53V178.2H507.89Zm56.33,0h10.64V178.2H564.22Zm44.95,23.58V178.2H598.53V112.33l44.49,42.29V113.06h10.64v65.87l-44.49-42.29Zm68.17-23.58h20.64c19.45,0,34.13,14.13,34.13,32.57s-14.68,32.57-34.13,32.57H677.34V113.06Zm20.64,55.23c14.04,0,23.3-9.82,23.3-22.66s-9.27-22.66-23.3-22.66h-10v45.32Zm54.04-55.23h38.62v10.46H762.66v16.51h22.48v10.28H762.66v17.43h27.98V178.2H752.02Zm75.87,37.43h-6.15V178.2H811.1V113.06h21.1c12.11,0,20.73,7.8,20.73,18.72,0,8.44-5.14,15.14-13.39,17.71l20.73,28.71H847.52l-19.63-27.71Zm3.31-9.26c7.34,0,10.92-3.58,10.92-9.08,0-5.6-3.58-9.27-10.92-9.27h-9.45v18.35Z" style="fill:#0b2047"/><path d="M70.24.06-.01,46.36V178.21H82.24l8.18-12.5-8.18-12.5H24.99V59.81H25L70.24,30Z" style="fill:#0ea800"/><path d="M140.49,47.7V46.35L70.24.06V30l45.24,29.82h.01V178.14h25V47.7Z" style="fill:url(#a)"/><path d="M968.5,58.79h4.81c3.34,0,5.63,2.09,5.63,5.13,0,3-2.29,5.13-5.63,5.13h-2.18v5.86H968.5Zm4.7,7.81c1.93,0,3.06-1.07,3.06-2.68s-1.13-2.68-3.06-2.68h-2.07V66.6Zm11.14.25a8.24,8.24,0,1,1,8.24,8.24A8.172,8.172,0,0,1,984.34,66.85Zm13.8,0a5.563,5.563,0,1,0-5.56,5.74A5.553,5.553,0,0,0,998.14,66.85Zm6.98-8.06h2.7l3.18,9.28,3.99-9.46,4,9.46,3.18-9.28h2.72l-5.56,16.3L1015,64.65l-4.34,10.44Zm25.89,0h9.56v2.59h-6.92v4.08h5.56V68h-5.56v4.31h6.92V74.9h-9.56Zm20.59,9.26h-1.52V74.9h-2.63V58.79h5.22c3,0,5.13,1.93,5.13,4.63a4.476,4.476,0,0,1-3.31,4.38l5.13,7.1h-3.15l-4.87-6.85Zm.81-2.29c1.82,0,2.7-.88,2.7-2.25s-.89-2.29-2.7-2.29h-2.34v4.54Zm13.23-6.97h9.56v2.59h-6.92v4.08h5.56V68h-5.56v4.31h6.92V74.9h-9.56Zm16.43,0h5.11a8.069,8.069,0,1,1,0,16.12h-5.11Zm5.11,13.67a5.612,5.612,0,1,0,0-11.22h-2.47V72.45h2.47Zm24.48-13.67h5.7a4.422,4.422,0,0,1,4.74,4.4,3.565,3.565,0,0,1-1.5,3.13,4.086,4.086,0,0,1,2.59,3.95c0,2.81-2.25,4.63-5.36,4.63h-6.17V58.79Zm5.36,6.79a2.149,2.149,0,0,0,2.43-2.18,2.174,2.174,0,0,0-2.43-2.18h-2.72v4.36Zm.82,6.88c1.82,0,2.7-.98,2.7-2.29s-.89-2.34-2.7-2.34h-3.54v4.63Zm14.86-4.34-5.92-9.33h3.09l4.15,6.65,4.15-6.65h3.11l-5.95,9.33v6.79h-2.63Z" style="fill:#a9afba"/><path d="M1252.63,113.38h6.76a6.419,6.419,0,0,1,6.39,6.39v3.95h-13.15Z" style="fill:#0dd1ac"/><path d="M1076.17,113.38h6.76a6.357,6.357,0,0,1,4.51,1.78,5.851,5.851,0,0,1,1.88,4.41V178h-13.15Zm54.96,49.21h9.39a20.5,20.5,0,0,1-7.89,12.02q-5.82,4.32-14.65,4.32-10.71,0-16.72-6.95-6.015-6.765-6.01-19.35,0-12.015,5.82-18.78,6.015-6.945,16.72-6.95,11.265,0,17.47,6.76,6.015,6.945,6.01,19.35v2.07a3.18,3.18,0,0,1-.19,1.32h-32.5q.18,5.82,2.82,8.64c1.63,2,4.07,3.01,7.33,3.01a10.628,10.628,0,0,0,5.45-1.32,2.456,2.456,0,0,0,1.03-.66l1.03-1.03a4,4,0,0,1,1.41-1.5,5.606,5.606,0,0,1,3.48-.95Zm-22.54-14.65h19.16q-.375-5.07-2.63-7.51a9.023,9.023,0,0,0-6.95-2.63,9.148,9.148,0,0,0-6.76,2.63c-1.75,1.75-2.69,4.26-2.82,7.51ZM1191.73,178h-6.57a6.1,6.1,0,0,1-6.38-6.38V146.07q0-4.515-2.72-6.57a9.843,9.843,0,0,0-6.1-2.07,9.452,9.452,0,0,0-6.01,2.07c-1.76,1.38-2.63,3.57-2.63,6.57V178h-13.15V148.7q0-12.765,6.67-17.09a29.208,29.208,0,0,1,14.75-4.7,28.243,28.243,0,0,1,15.21,4.32q6.945,4.32,6.95,17.47V178Zm39.94-64.81h6.39a6.026,6.026,0,0,1,4.51,1.97,6.258,6.258,0,0,1,1.88,4.41V156.2q0,13.335-7.7,18.03a31.56,31.56,0,0,1-16.72,4.7,29.4,29.4,0,0,1-9.58-1.6,15.761,15.761,0,0,1-7.51-5.16q-5.445-6.945-5.45-18.97,0-11.835,5.45-18.97a18.3,18.3,0,0,1,22.73-5.45,17.912,17.912,0,0,1,6.01,5.82V113.19Zm-21.41,39.45q0,7.515,2.82,11.46a9.33,9.33,0,0,0,8.08,3.95,9.149,9.149,0,0,0,7.89-3.95q2.625-3.945,2.63-11.46,0-6.765-2.82-10.71a9.825,9.825,0,0,0-8.08-3.76,8.962,8.962,0,0,0-7.7,3.95c-1.89,2.5-2.82,6.01-2.82,10.52Zm42.37-24.61h6.76a6.419,6.419,0,0,1,6.39,6.39V178h-13.15Z" style="fill:#211e1f"/><path d="M1061.14,112.03l-39.22-26.27a8.3,8.3,0,0,0-9.13-.07l-40.51,26.27a8.292,8.292,0,0,0-3.78,6.96v51.71a8.3,8.3,0,0,0,8.3,8.3h79.73a8.3,8.3,0,0,0,8.3-8.3V118.92a8.333,8.333,0,0,0-3.69-6.89Zm-12.91,50.31h-23.27V138.2h-16.59v24.14H985.1V123.43l32.14-20.84,31,20.77v38.98Z" style="fill:#0dd1ac"/><path d="M913.73,58.79h1V178.93h-1Z" style="fill:#a9afba"/></svg>