<svg xmlns="http://www.w3.org/2000/svg"  width="24" height="24" viewBox="0 0 24 24" fill="currentColor"><path  d="M23.605 12.009c-.008.144-.229.856-.537 1.597-.317.763-.851 1.869-1.592 2.792a10.566 10.566 0 0 1-3.553 2.877c-1.705.856-3.7 1.288-5.927 1.288-2.224 0-4.22-.434-5.924-1.29a10.635 10.635 0 0 1-3.553-2.875c-.74-.926-1.273-2.031-1.59-2.795-.308-.74-.526-1.453-.534-1.597v-.01c.008-.144.229-.856.537-1.6.32-.763.851-1.868 1.59-2.789A10.566 10.566 0 0 1 6.074 4.73c1.715-.859 3.707-1.293 5.924-1.293 2.219 0 4.211.434 5.924 1.293a10.628 10.628 0 0 1 3.553 2.875c.74.923 1.275 2.028 1.592 2.792.308.74.53 1.453.537 1.597v.015zm-1.908-.005c-.146-.448-.715-2.062-1.656-3.235l-.013-.013a8.777 8.777 0 0 0-2.938-2.38c-1.453-.728-3.17-1.098-5.102-1.098-1.933 0-3.648.37-5.1 1.098a8.736 8.736 0 0 0-2.94 2.383c-.946 1.178-1.517 2.797-1.663 3.247.146.448.717 2.065 1.663 3.248a8.788 8.788 0 0 0 2.942 2.38c1.455.728 3.173 1.096 5.106 1.096 1.941 0 3.656-.368 5.099-1.095a8.736 8.736 0 0 0 2.939-2.384c.946-1.182 1.517-2.8 1.663-3.247zm-9.7 4.476c-2.459 0-4.457-2-4.457-4.456 0-2.455 2-4.455 4.456-4.455 2.456 0 4.456 2 4.456 4.455a4.461 4.461 0 0 1-4.456 4.456zm2.622-4.456c0-.699-.273-1.357-.769-1.853a2.604 2.604 0 0 0-1.854-.77c-.7 0-1.357.273-1.854.77a2.604 2.604 0 0 0-.768 1.853c0 .7.272 1.358.768 1.854a2.604 2.604 0 0 0 1.854.769c.7 0 1.358-.273 1.854-.769a2.604 2.604 0 0 0 .769-1.854z"/>
</svg>
