<svg xmlns="http://www.w3.org/2000/svg" viewBox="0 0 354.526 205.345"><title>flow</title><polyline points="25.495 179.85 127.042 82.474 227.5 127.845 329.031 25.495" style="fill:none;stroke:#5fe1cf;stroke-miterlimit:10;stroke-width:5px"/><circle cx="25.495" cy="179.85" r="22.995" style="fill:#edf7f5;stroke:#5fe1cf;stroke-linecap:round;stroke-linejoin:round;stroke-width:5px"/><circle cx="127.042" cy="82.474" r="22.995" style="fill:#edf7f5;stroke:#5fe1cf;stroke-linecap:round;stroke-linejoin:round;stroke-width:5px"/><circle cx="228.979" cy="125.295" r="22.995" style="fill:#edf7f5;stroke:#5fe1cf;stroke-linecap:round;stroke-linejoin:round;stroke-width:5px"/><circle cx="329.031" cy="25.495" r="22.995" style="fill:#edf7f5;stroke:#5fe1cf;stroke-linecap:round;stroke-linejoin:round;stroke-width:5px"/><path d="M40.327,162.282A22.991,22.991,0,0,1,5.117,190.5a22.993,22.993,0,1,0,35.21-28.218Z" style="fill:#5fe1cf;opacity:0.2"/><path d="M141.874,64.906a22.992,22.992,0,0,1-35.21,28.219,22.994,22.994,0,1,0,35.21-28.219Z" style="fill:#5fe1cf;opacity:0.2"/><path d="M243.81,107.728a22.991,22.991,0,0,1-35.21,28.218,22.993,22.993,0,1,0,35.21-28.218Z" style="fill:#5fe1cf;opacity:0.2"/><path d="M343.863,7.928a22.992,22.992,0,0,1-35.211,28.218A22.994,22.994,0,1,0,343.863,7.928Z" style="fill:#5fe1cf;opacity:0.2"/></svg>