<svg xmlns="http://www.w3.org/2000/svg" viewBox="0 0 305 257.259"><title>folder</title><rect x="85.553" y="2.5" width="133.826" height="77.259" rx="10" ry="10" style="fill:none;stroke:#5fe1cf;stroke-miterlimit:10;stroke-width:5px"/><rect x="2.5" y="58.088" width="300" height="196.671" rx="10" ry="10" style="fill:#edf7f5;stroke:#5fe1cf;stroke-linecap:round;stroke-linejoin:round;stroke-width:5px"/><path d="M292.5,58.088h-.687c.009.178.027.355.027.535V235.294a10,10,0,0,1-10,10H2.527a9.992,9.992,0,0,0,9.973,9.465h280a10,10,0,0,0,10-10V68.088A10,10,0,0,0,292.5,58.088Z" style="fill:#5fe1cf;opacity:0.2"/><line x1="56.243" y1="136.393" x2="248.757" y2="136.393" style="fill:none;stroke:#5fe1cf;stroke-linecap:round;stroke-linejoin:round;stroke-width:5px"/><path d="M111.78,136.393V166.5a10,10,0,0,0,10,10h61.44a10,10,0,0,0,10-10V136.393Z" style="fill:none;stroke:#5fe1cf;stroke-miterlimit:10;stroke-width:5px"/></svg>