<svg xmlns="http://www.w3.org/2000/svg" viewBox="0 0 236.272 298.604"><title>grow-savings</title><path d="M116.772,129.7s122.456,13.017,116.81-105.029C233.582,24.671,114.574-9.01,116.772,129.7Z" style="fill:#edf7f5;stroke:#5fe1cf;stroke-miterlimit:10;stroke-width:5px"/><path d="M90.934,77.415S111.8-8.306,3.792,3.642C3.792,3.642,7.459,115.822,90.934,77.415Z" style="fill:#edf7f5;stroke:#5fe1cf;stroke-miterlimit:10;stroke-width:5px"/><path d="M233.582,24.671s-2.187-.618-5.957-1.342c.5,95.259-86.7,99.175-110.84,98.431-.048,2.584-.056,5.225-.013,7.94C116.772,129.7,239.228,142.717,233.582,24.671Z" style="fill:#5fe1cf;opacity:0.2"/><path d="M78.653,21.55c12.514,21.4,6.155,47.567,6.155,47.567-31.821,14.641-52.036,7.39-64.88-7.178,12.2,19.64,33.579,32.7,71.005,15.476C90.933,77.415,99.125,43.745,78.653,21.55Z" style="fill:#5fe1cf;opacity:0.2"/><line x1="113.012" y1="296.104" x2="113.012" y2="273.516" style="fill:none;stroke:#5fe1cf;stroke-linecap:round;stroke-miterlimit:10;stroke-width:5px"/><path d="M74.917,255.364s14.17,20.532,47.715,16.483c0,0,25.737-2.314,26.316-25.448.2-8.045-4.338-15.45-11.059-19.669-9.022-5.664-20.168-5.729-30.107-8.863C94.606,213.712,77.1,206.492,80.6,189.325c2.558-12.522,16.25-18.016,27.57-19.56,0,0,25.737-3.181,42.221,14.459" style="fill:none;stroke:#5fe1cf;stroke-linecap:round;stroke-linejoin:round;stroke-width:5px"/><line x1="33.612" y1="285.903" x2="33.612" y2="267.456" style="fill:none;stroke:#5fe1cf;stroke-linecap:round;stroke-miterlimit:10;stroke-width:5px"/><line x1="33.612" y1="182.286" x2="33.612" y2="163.838" style="fill:none;stroke:#5fe1cf;stroke-linecap:round;stroke-miterlimit:10;stroke-width:5px"/><path d="M2.5,252.63S14.073,269.4,41.469,266.092c0,0,21.02-1.889,21.493-20.783a18.74,18.74,0,0,0-9.032-16.064c-7.369-4.626-16.472-4.678-24.589-7.238-10.761-3.393-25.062-9.291-22.2-23.311,2.089-10.227,13.272-14.714,22.516-15.974,0,0,21.02-2.6,34.482,11.809" style="fill:none;stroke:#5fe1cf;stroke-linecap:round;stroke-linejoin:round;stroke-width:5px"/><line x1="194.575" y1="285.903" x2="194.575" y2="267.456" style="fill:none;stroke:#5fe1cf;stroke-linecap:round;stroke-miterlimit:10;stroke-width:5px"/><line x1="194.575" y1="182.286" x2="194.575" y2="163.838" style="fill:none;stroke:#5fe1cf;stroke-linecap:round;stroke-miterlimit:10;stroke-width:5px"/><path d="M163.462,252.63s11.573,16.769,38.97,13.462c0,0,21.019-1.889,21.492-20.783a18.738,18.738,0,0,0-9.032-16.064c-7.369-4.626-16.472-4.678-24.589-7.238-10.761-3.393-25.062-9.291-22.2-23.311,2.089-10.227,13.272-14.714,22.517-15.974,0,0,21.02-2.6,34.482,11.809" style="fill:none;stroke:#5fe1cf;stroke-linecap:round;stroke-linejoin:round;stroke-width:5px"/><path d="M199.834,58.014s-100.1,37.24-86.822,111.217" style="fill:none;stroke:#5fe1cf;stroke-linecap:round;stroke-miterlimit:10;stroke-width:5px"/><path d="M32.845,32.976s68.013,23.457,68.92,80.647" style="fill:none;stroke:#5fe1cf;stroke-linecap:round;stroke-miterlimit:10;stroke-width:5px"/></svg>