<svg xmlns="http://www.w3.org/2000/svg" viewBox="0 0 304.975 238.605"><title>handshake-settled</title><path d="M44.776,95.281s-7.2,24.416,6.261,35.685" style="fill:none;stroke:#5fe1cf;stroke-linecap:round;stroke-linejoin:round;stroke-width:5px"/><rect x="61.444" y="133.149" width="25.313" height="58.563" rx="12.656" ry="12.656" transform="translate(155.817 3.695) rotate(51.762)" style="fill:none;stroke:#5fe1cf;stroke-linecap:round;stroke-linejoin:round;stroke-width:5px"/><rect x="78.781" y="156.779" width="25.313" height="58.563" rx="12.656" ry="12.656" transform="translate(180.983 -0.918) rotate(51.762)" style="fill:none;stroke:#5fe1cf;stroke-linecap:round;stroke-linejoin:round;stroke-width:5px"/><rect x="47.601" y="118.735" width="25.313" height="45.588" rx="12.656" ry="12.656" transform="translate(134.125 6.603) rotate(51.762)" style="fill:none;stroke:#5fe1cf;stroke-linecap:round;stroke-linejoin:round;stroke-width:5px"/><path d="M143.443,99.7a17.076,17.076,0,0,1-3.28,4.587l-5.6,5.6a17.114,17.114,0,1,1-24.2-24.2l5.6-5.605a17.037,17.037,0,0,1,9.315-4.785" style="fill:none;stroke:#5fe1cf;stroke-linecap:round;stroke-linejoin:round;stroke-width:5px"/><path d="M206.3,143.117q.47.4.913.845l31.229,31.229a16.026,16.026,0,0,1-22.665,22.664l-30.881-30.881" style="fill:none;stroke:#5fe1cf;stroke-linecap:round;stroke-linejoin:round;stroke-width:5px"/><path d="M184.4,166.372a15.04,15.04,0,0,1,1.775,1.518L209.187,190.9a14.82,14.82,0,0,1-20.958,20.958L165.22,188.848q-.368-.368-.7-.753" style="fill:none;stroke:#5fe1cf;stroke-linecap:round;stroke-linejoin:round;stroke-width:5px"/><path d="M161.685,185.765,178,202.081a13.264,13.264,0,0,1-18.758,18.758l-17.6-17.6a13.309,13.309,0,0,1-1.923-2.432" style="fill:none;stroke:#5fe1cf;stroke-linecap:round;stroke-linejoin:round;stroke-width:5px"/><rect x="100.091" y="183.257" width="25.313" height="40.949" rx="12.656" ry="12.656" transform="translate(202.984 -10.922) rotate(51.762)" style="fill:none;stroke:#5fe1cf;stroke-linecap:round;stroke-linejoin:round;stroke-width:5px"/><path d="M121.722,212.774,114.58,218.4l13.4,13.4a14.681,14.681,0,1,0,20.762-20.762L138.68,200.977" style="fill:none;stroke:#5fe1cf;stroke-linecap:round;stroke-linejoin:round;stroke-width:5px"/><line x1="205.44" y1="42.205" x2="121.46" y2="76.851" style="fill:none;stroke:#5fe1cf;stroke-linecap:round;stroke-linejoin:round;stroke-width:5px"/><path d="M258.539,94.928s8.662,12.051-1.129,34.27-26.362,38.789-26.362,38.789" style="fill:none;stroke:#5fe1cf;stroke-linecap:round;stroke-linejoin:round;stroke-width:5px"/><line x1="98.305" y1="44.57" x2="151.833" y2="63.665" style="fill:none;stroke:#5fe1cf;stroke-linecap:round;stroke-linejoin:round;stroke-width:5px"/><rect x="202.251" y="29.914" width="99.731" height="48.563" rx="5" ry="5" transform="translate(112.165 -162.4) rotate(45)" style="fill:#edf7f5;stroke:#5fe1cf;stroke-miterlimit:10;stroke-width:5px"/><rect x="2.993" y="28.577" width="99.731" height="48.563" rx="5" ry="5" transform="translate(127.612 52.859) rotate(135)" style="fill:#edf7f5;stroke:#5fe1cf;stroke-miterlimit:10;stroke-width:5px"/><path d="M299.5,67.241,239.07,6.81a7.125,7.125,0,0,0-7.862-1.5l56.473,56.473a7.134,7.134,0,0,1,0,10.089l-24.25,24.25a7.108,7.108,0,0,1-2.227,1.5l3.959,3.958a7.134,7.134,0,0,0,10.089,0L299.5,77.33A7.134,7.134,0,0,0,299.5,67.241Z" style="fill:#5fe1cf;opacity:0.2"/><path d="M100.244,29.723,75.994,5.473a7.125,7.125,0,0,0-7.862-1.5L88.423,24.267a7.134,7.134,0,0,1,0,10.089L27.991,94.788a7.091,7.091,0,0,1-2.227,1.5l3.959,3.959a7.135,7.135,0,0,0,10.09,0l60.431-60.432A7.134,7.134,0,0,0,100.244,29.723Z" style="fill:#5fe1cf;opacity:0.2"/><polyline points="204.481 141.645 153.697 95.623 143.858 98.162" style="fill:none;stroke:#5fe1cf;stroke-linecap:round;stroke-linejoin:round;stroke-width:5px"/></svg>