<svg xmlns="http://www.w3.org/2000/svg" viewBox="0 0 295.634 297.457"><title>home-time</title><path d="M215.019,120.6a10,10,0,0,1-4.927-1.3L153.543,87.285a10,10,0,0,0-9.873.011L87.458,119.29a10,10,0,0,1-4.947,1.309H17.838V234.31a10,10,0,0,0,10,10H267.526a10,10,0,0,0,10-10V120.6Z" style="fill:#edf7f5;stroke:#5fe1cf;stroke-miterlimit:10;stroke-width:5px"/><path d="M268.606,120.6V226.566a10,10,0,0,1-10,10H18.918c-.279,0-.553-.019-.826-.041a10,10,0,0,0,9.746,7.785H267.526a10,10,0,0,0,10-10V120.6Z" style="fill:#5fe1cf;opacity:0.2"/><line x1="114.529" y1="264.044" x2="181.318" y2="264.044" style="fill:none;stroke:#5fe1cf;stroke-linecap:round;stroke-linejoin:round;stroke-width:5px"/><line x1="95.987" y1="294.957" x2="199.859" y2="294.957" style="fill:none;stroke:#5fe1cf;stroke-linecap:round;stroke-linejoin:round;stroke-width:5px"/><line x1="98.631" y1="175.295" x2="113.438" y2="185.178" style="fill:none;stroke:#5fe1cf;stroke-linecap:round;stroke-linejoin:round;stroke-width:5px"/><line x1="124.914" y1="171.581" x2="113.438" y2="185.191" style="fill:none;stroke:#5fe1cf;stroke-linecap:round;stroke-linejoin:round;stroke-width:5px"/><line x1="151.499" y1="149.19" x2="151.499" y2="179.993" style="fill:none;stroke:#5fe1cf;stroke-linecap:round;stroke-linejoin:round;stroke-width:5px"/><line x1="182.303" y1="180.197" x2="151.499" y2="180.197" style="fill:none;stroke:#5fe1cf;stroke-linecap:round;stroke-linejoin:round;stroke-width:5px"/><path d="M113.561,184.879a42.815,42.815,0,1,1,6.407,12.317" style="fill:none;stroke:#5fe1cf;stroke-linecap:round;stroke-linejoin:round;stroke-width:5px"/><path d="M87.458,119.29,143.67,87.3a10,10,0,0,1,9.873-.011L210.092,119.3a10,10,0,0,0,4.927,1.3h73.11a5,5,0,0,0,4.694-6.722l-26.889-73.29a10,10,0,0,0-9.389-6.556H40.856a10,10,0,0,0-9.313,6.359L2.848,113.778A5,5,0,0,0,7.505,120.6H82.511A10,10,0,0,0,87.458,119.29Z" style="fill:none;stroke:#5fe1cf;stroke-miterlimit:10;stroke-width:5px"/><path d="M97.817,34.031V12.5a10,10,0,0,0-10-10H72.8a10,10,0,0,0-10,10V34.031Z" style="fill:none;stroke:#5fe1cf;stroke-linecap:round;stroke-linejoin:round;stroke-width:5px"/></svg>