<svg xmlns="http://www.w3.org/2000/svg" width="37" height="39" viewBox="0 0 37 39" fill="currentColor">
    <path fill-rule="nonzero" d="M25.148 37.512a.966.966 0 0 1-.964.968h-11.34a.966.966 0 0 1-.964-.968c0-.534.431-.967.963-.967h11.341c.532 0 .964.433.964.967zm-3.332-2.997a.966.966 0 0 0 .963-.968.966.966 0 0 0-.963-.967h-6.604a.966.966 0 0 0-.964.967c0 .535.431.968.964.968h6.604zm14.22-19.367h-.948v13.933a1.931 1.931 0 0 1-1.927 1.935H3.853a1.931 1.931 0 0 1-1.927-1.935V15.148H.963a.962.962 0 0 1-.794-.42.971.971 0 0 1-.104-.896L3.59 4.664a.964.964 0 0 1 .898-.62h3.126V.968c0-.535.431-.968.964-.968h2.647c.533 0 .964.433.964.968v3.076h20.184c.394 0 .748.241.895.608l3.661 9.167a.971.971 0 0 1-.095.903.962.962 0 0 1-.8.426zM8.579 4.044h2.647v-2.69a.386.386 0 0 0-.385-.386H8.964a.385.385 0 0 0-.385.387v2.69zm24.59 11.104h-6.534l-7.16-4.35a1.92 1.92 0 0 0-2.003 0l-7.088 4.35h-6.53v12.966c0 .534.43.967.963.967h27.388a.966.966 0 0 0 .963-.967V15.148zm1.237-2.465a.388.388 0 0 1-.36.53H27.17l-8.203-4.981a.96.96 0 0 0-1 0l-8.125 4.981H2.93a.385.385 0 0 1-.36-.526l2.484-6.46c.057-.15.2-.248.36-.247h26.05c.158 0 .3.095.36.241l2.582 6.462zM16.03 29.6h-1.97V18.752c0-.548.441-.992.985-.992h6.91c.544 0 .985.444.985.992V29.6h-1.97v-9.457a.395.395 0 0 0-.394-.397h-4.152a.395.395 0 0 0-.394.397V29.6z"/>
</svg>