<?xml version="1.0" encoding="UTF-8"?>
<svg width="18px" height="20px" viewBox="0 0 18 20" version="1.1" xmlns="http://www.w3.org/2000/svg" xmlns:xlink="http://www.w3.org/1999/xlink">
    <!-- Generator: Sketch 60 (88103) - https://sketch.com -->
    <title>Action/ic_assignment</title>
    <desc>Created with Sketch.</desc>
    <g id="TeamView_Navigation_Zeplin" stroke="none" stroke-width="1" fill="none" fill-rule="evenodd">
        <g id="Action/ic_assignment" transform="translate(-3.000000, -2.000000)" fill="#474747">
            <path class="fillPath" d="M19,4 L14.82,4 C14.4,2.84 13.3,2 12,2 C10.7,2 9.6,2.84 9.18,4 L5,4 C3.9,4 3,4.9 3,6 L3,20 C3,21.1 3.9,22 5,22 L19,22 C20.1,22 21,21.1 21,20 L21,6 C21,4.9 20.1,4 19,4 Z M12,4 C12.55,4 13,4.45 13,5 C13,5.55 12.55,6 12,6 C11.45,6 11,5.55 11,5 C11,4.45 11.45,4 12,4 Z M14,18 L7,18 L7,16 L14,16 L14,18 Z M17,14 L7,14 L7,12 L17,12 L17,14 Z M17,10 L7,10 L7,8 L17,8 L17,10 Z" id="Shape"></path>
        </g>
    </g>
</svg>