<?xml version="1.0" encoding="UTF-8"?>
<svg width="24" height="24" viewBox="0 0 24 24" version="1.1" xmlns="http://www.w3.org/2000/svg" xmlns:xlink="http://www.w3.org/1999/xlink">
    <title>LUI/Atoms/Icon/Alert/Circle/Info</title>
    <desc>Created with Sketch.</desc>
    <defs>
        <path d="M7.2,10.4 L8.8,10.4 L8.8,12 L7.2,12 L7.2,10.4 Z M7.2,4 L8.8,4 L8.8,8.8 L7.2,8.8 L7.2,4 Z M7.992,0 C3.576,0 0,3.584 0,8 C0,12.416 3.576,16 7.992,16 C12.416,16 16,12.416 16,8 C16,3.584 12.416,0 7.992,0 Z M8,14.4 C4.464,14.4 1.6,11.536 1.6,8 C1.6,4.464 4.464,1.6 8,1.6 C11.536,1.6 14.4,4.464 14.4,8 C14.4,11.536 11.536,14.4 8,14.4 Z" id="path-1"></path>
    </defs>
    <g id="Components" stroke="none" stroke-width="1" fill="none" fill-rule="evenodd">
        <g id="Icons">
            <rect fill="#FAFAFA" x="0" y="0" width="24" height="24"></rect>
            <g id="Group-9">
                <g id="Group-7">
                    <g id="LUI/Atoms/Icon/Alert/Circle/Info">
                        <mask id="mask-2" fill="white">
                            <use xlink:href="#path-1"></use>
                        </mask>
                        <use id="Mask" fill="currentColor" fill-rule="evenodd" transform="translate(8.000000, 8.000000) scale(1, -1) translate(-8.000000, -8.000000) " xlink:href="#path-1"></use>
                    </g>
                </g>
            </g>
        </g>
    </g>
</svg>