<svg xmlns="http://www.w3.org/2000/svg" viewBox="0 0 210.725 305"><title>large-lock</title><rect x="28.786" y="2.5" width="153.153" height="257" rx="76.577" ry="76.577" style="fill:none;stroke:#5fe1cf;stroke-miterlimit:10;stroke-width:5px"/><rect x="2.5" y="125.233" width="205.725" height="177.267" rx="10" ry="10" style="fill:#edf7f5;stroke:#5fe1cf;stroke-miterlimit:10;stroke-width:5px"/><path d="M198.225,125.233H197.7c.008.164.025.326.025.492V282.992a10,10,0,0,1-10,10H2.525A9.991,9.991,0,0,0,12.5,302.5H198.225a10,10,0,0,0,10-10V135.233A10,10,0,0,0,198.225,125.233Z" style="fill:#5fe1cf;opacity:0.2"/><circle cx="105.362" cy="200.043" r="20.575" style="fill:#5fe1cf"/><rect x="94.863" y="190" width="20.999" height="50" rx="10.5" ry="10.5" style="fill:#5fe1cf"/></svg>