<?xml version="1.0" encoding="UTF-8"?>
<svg width="20px" height="20px" viewBox="0 0 20 20" version="1.1" xmlns="http://www.w3.org/2000/svg" xmlns:xlink="http://www.w3.org/1999/xlink">
    <!-- Generator: Sketch 64 (93537) - https://sketch.com -->
    <title>lendi-bot</title>
    <desc>Created with Sketch.</desc>
    <g id="SSI" stroke="none" stroke-width="1" fill="none" fill-rule="evenodd">
        <g id="bubble/Chat-lendi-bot-icon">
            <rect id="Rectangle" fill="#00C0A5" x="0" y="0" width="20" height="20"></rect>
            <g id="Logo/Lendi-Logomark-neg" transform="translate(4.000000, 4.000000)" fill="#FFFFFF">
                <path class="fillPath" d="M6.65521859,0.173076374 L11.5416184,3.41409751 C11.828134,3.60405022 12,3.92300308 12,4.26431596 L12,10.6432656 C12,11.2085013 11.5372756,11.6666668 10.9664157,11.6666668 L1.03358425,11.6666668 C0.462724378,11.6666668 0,11.2085013 0,10.6432656 L0,4.26431596 C0,3.91752057 0.177294441,3.59448271 0.47119282,3.4057125 L5.51751592,0.164798865 C5.86439635,-0.0579413853 6.31170382,-0.0546088815 6.65521859,0.173076374 Z M9.9328315,9.61986447 L9.9328315,4.81052408 L6.07078749,2.2491187 L2.0671685,4.82030659 L2.0671685,9.61986447 L4.96641575,9.61986447 L4.96641575,6.64221863 L7.03358425,6.64221863 L7.03358425,9.61986447 L9.9328315,9.61986447 Z" id="Shape"></path>
            </g>
        </g>
    </g>
</svg>