<svg xmlns="http://www.w3.org/2000/svg" viewBox="0 0 80 75.069"><title>live-chat</title><path d="M46.889,64.29l-.313.046L41.7,72.774a1.967,1.967,0,0,1-3.408,0l-4.872-8.438-.313-.046c-18.426-2.719-31.8-15.856-31.8-31.238,0-17.5,17.355-31.74,38.688-31.74S78.688,15.55,78.688,33.052C78.688,48.434,65.315,61.571,46.889,64.29Z" style="fill:#edf7f5"/><path d="M34.314,62.4l5.005,8.668a.787.787,0,0,0,1.363,0l5.267-9.124c17.755-2.9,31.13-15.667,31.13-30.979a27.207,27.207,0,0,0-5.514-16.235C64.549,6.621,53.02,1.312,40,1.312c-21.333,0-38.688,14.238-38.688,31.74A27.622,27.622,0,0,0,7.056,49.709C13.384,56.689,23.142,61.48,34.314,62.4Z" style="fill:none"/><path d="M45.949,61.947l-5.267,9.124a.787.787,0,0,1-1.363,0L34.314,62.4c-11.172-.923-20.93-5.714-27.258-12.694,5.605,7.468,14.9,12.935,26.055,14.581l.313.046L38.3,72.774a1.967,1.967,0,0,0,3.408,0l4.872-8.438.313-.046c18.426-2.719,31.8-15.856,31.8-31.238a27.9,27.9,0,0,0-7.123-18.319,27.207,27.207,0,0,1,5.514,16.235C77.079,46.28,63.7,59.047,45.949,61.947Z" style="fill:#00c0a5;opacity:0.2"/><path d="M27.687,33.274a2.642,2.642,0,1,1-2.642-2.642A2.642,2.642,0,0,1,27.687,33.274ZM40,30.632a2.642,2.642,0,1,0,2.642,2.642A2.642,2.642,0,0,0,40,30.632Zm14.955.077A2.642,2.642,0,1,0,57.6,33.351,2.642,2.642,0,0,0,54.955,30.709ZM80,33.052C80,49,66.308,62.622,47.4,65.54l-4.556,7.89a3.278,3.278,0,0,1-5.678,0L32.6,65.54C13.692,62.622,0,49,0,33.052,0,14.827,17.944,0,40,0S80,14.827,80,33.052Zm-1.312,0a27.9,27.9,0,0,0-7.123-18.319C64.549,6.621,53.02,1.312,40,1.312c-21.333,0-38.688,14.238-38.688,31.74A27.622,27.622,0,0,0,7.056,49.709c5.605,7.468,14.9,12.935,26.055,14.581l.313.046L38.3,72.774a1.967,1.967,0,0,0,3.408,0l4.872-8.438.313-.046C65.315,61.571,78.688,48.434,78.688,33.052Z" style="fill:#00c0a5"/></svg>