<svg xmlns="http://www.w3.org/2000/svg" viewBox="0 0 65.703 80"><title>Low Doc</title><path d="M5.9,1.311A4.6,4.6,0,0,0,1.311,5.9V74.1A4.6,4.6,0,0,0,5.9,78.689H59.8A4.6,4.6,0,0,0,64.392,74.1V5.9A4.6,4.6,0,0,0,59.8,1.311Z" style="fill:#edf7f5"/><path d="M59.322,76.441a2.623,2.623,0,0,0,2.623-2.623V1.867A4.533,4.533,0,0,0,59.8,1.311H5.9A4.6,4.6,0,0,0,1.311,5.9V74.1a4.545,4.545,0,0,0,.665,2.343Z" style="fill:none"/><path d="M61.945,73.818V1.867A4.577,4.577,0,0,1,64.392,5.9V74.1a4.6,4.6,0,0,1-4.59,4.591H5.9a4.576,4.576,0,0,1-3.926-2.248H59.322A2.623,2.623,0,0,0,61.945,73.818Z" style="fill:#00c0a5;opacity:0.2"/><path d="M53.557,19.372a.655.655,0,0,1-.656.656H12.8a.656.656,0,1,1,0-1.311H52.9A.655.655,0,0,1,53.557,19.372Zm-.656,40.6H12.8a.656.656,0,1,0,0,1.311H52.9a.656.656,0,1,0,0-1.311ZM12.8,47.557H44.839a.656.656,0,0,0,0-1.312H12.8a.656.656,0,0,0,0,1.312Zm0-13.815H38.631a.656.656,0,1,0,0-1.311H12.8a.656.656,0,1,0,0,1.311ZM65.7,5.9V74.1A5.908,5.908,0,0,1,59.8,80H5.9A5.909,5.909,0,0,1,0,74.1V5.9A5.909,5.909,0,0,1,5.9,0H59.8A5.908,5.908,0,0,1,65.7,5.9Zm-1.311,0a4.577,4.577,0,0,0-2.447-4.035A4.533,4.533,0,0,0,59.8,1.311H5.9A4.6,4.6,0,0,0,1.311,5.9V74.1a4.545,4.545,0,0,0,.665,2.343A4.576,4.576,0,0,0,5.9,78.689H59.8a4.6,4.6,0,0,0,4.59-4.591Z" style="fill:#00c0a5"/></svg>