<svg viewBox="0 0 143 35.428" fill="currentColor">
      <path
        d="M105.665 10.871h2.515a2.283 2.283 0 0 1 1.677.7 2.318 2.318 0 0 1 .7 1.689v1.478h-4.891v-3.87"
        fill="#00c0a5"
        fillRule="evenodd"
      />
      <path
        d="M40.043 10.871h2.514a2.343 2.343 0 0 1 1.677.668 2.2 2.2 0 0 1 .7 1.654v21.883h-4.891v-24.2M60.483 29.306h3.492a7.68 7.68 0 0 1-2.934 4.5 8.845 8.845 0 0 1-5.449 1.619 7.755 7.755 0 0 1-6.217-2.6q-2.236-2.532-2.235-7.247a10.5 10.5 0 0 1 2.165-7.037 7.76 7.76 0 0 1 6.218-2.6 8.335 8.335 0 0 1 6.5 2.533 10.779 10.779 0 0 1 2.236 7.248v.774a1.221 1.221 0 0 1-.07.492H52.1a4.867 4.867 0 0 0 1.047 3.237 3.291 3.291 0 0 0 2.725 1.125 3.929 3.929 0 0 0 2.026-.492.973.973 0 0 0 .384-.246l.384-.387a1.525 1.525 0 0 1 .524-.563 2.075 2.075 0 0 1 1.293-.356zM52.1 23.818h7.125A4.584 4.584 0 0 0 58.247 21a3.344 3.344 0 0 0-2.585-.985 3.4 3.4 0 0 0-2.515.985 4.057 4.057 0 0 0-1.047 2.818zM83.018 35.076h-2.445a2.3 2.3 0 0 1-1.711-.668 2.342 2.342 0 0 1-.664-1.724v-9.57a2.9 2.9 0 0 0-1.013-2.463 3.654 3.654 0 0 0-2.27-.774 3.511 3.511 0 0 0-2.236.774 2.952 2.952 0 0 0-.978 2.463v11.962h-4.889V24.1q0-4.783 2.48-6.4a10.771 10.771 0 0 1 5.483-1.759 10.462 10.462 0 0 1 5.658 1.618q2.585 1.62 2.585 6.544v10.973M97.87 10.8h2.375a2.228 2.228 0 0 1 1.676.739 2.357 2.357 0 0 1 .7 1.654v13.72q0 5-2.864 6.756a11.66 11.66 0 0 1-6.217 1.759 10.941 10.941 0 0 1-3.563-.6 5.858 5.858 0 0 1-2.795-1.928 11.281 11.281 0 0 1-2.026-7.107 11.47 11.47 0 0 1 2.026-7.107 6.773 6.773 0 0 1 8.452-2.04 6.659 6.659 0 0 1 2.236 2.181zm-7.964 14.777a7.374 7.374 0 0 0 1.048 4.292 3.458 3.458 0 0 0 3 1.477 3.392 3.392 0 0 0 2.934-1.477 7.8 7.8 0 0 0 .978-4.292 6.813 6.813 0 0 0-1.048-4.011 3.639 3.639 0 0 0-3-1.407 3.325 3.325 0 0 0-2.864 1.477 6.486 6.486 0 0 0-1.048 3.941zM105.665 16.359h2.515a2.28 2.28 0 0 1 1.677.7 2.314 2.314 0 0 1 .7 1.688v16.329h-4.891V16.359"
        fill="currentColor"
        fillRule="evenodd"
      />
      <path
        d="M34.452 10.367L19.866.526A3.067 3.067 0 0 0 16.47.5L1.407 10.342A3.111 3.111 0 0 0 0 12.949V32.32a3.1 3.1 0 0 0 3.085 3.108h29.65a3.1 3.1 0 0 0 3.086-3.108V12.949a3.113 3.113 0 0 0-1.369-2.582zm-4.8 18.845H21V20.17h-6.175v9.042H6.171V14.638L18.122 6.83l11.528 7.778zM140.588 16.076H143V34.7h-2.412zm-11.224 19a6.84 6.84 0 0 1-5.523-2.169A9.164 9.164 0 0 1 122 26.8V16.076h2.412v10.032a9.756 9.756 0 0 0 1.041 4.87q1.041 1.809 3.911 1.81t3.911-1.823a9.77 9.77 0 0 0 1.041-4.857V16.076h2.412V26.8a9.164 9.164 0 0 1-1.841 6.107 6.84 6.84 0 0 1-5.523 2.169z"
        fill="#00c0a5"
        fillRule="evenodd"
      />
  </svg>