<svg xmlns="http://www.w3.org/2000/svg" viewBox="0 0 100 100"><title>Maintenance</title><path d="M65.64,59.543l-3.421-3.42a.573.573,0,0,0-.811,0l-3.455,3.455a.571.571,0,0,0,0,.811l3.42,3.42a5.641,5.641,0,1,1,4.267-4.266Z" style="fill:#edf7f5;fill-rule:evenodd"/><path d="M35.349,64.7a3.884,3.884,0,0,1,0-5.484l6.424-6.425a3.879,3.879,0,0,1,5.484,5.488L40.832,64.7a3.878,3.878,0,0,1-5.483,0" style="fill:#edf7f5;fill-rule:evenodd"/><path d="M44.886,43.8a5.643,5.643,0,0,1-9.5-5.229l3.421,3.422a.572.572,0,0,0,.81,0l3.456-3.456a.573.573,0,0,0,0-.811L39.659,34.3a5.643,5.643,0,0,1,5.229,9.5Z" style="fill:#edf7f5;fill-rule:evenodd"/><path d="M38.091,65.835A3.848,3.848,0,0,0,40.832,64.7l6.425-6.419A3.878,3.878,0,0,0,41.773,52.8l-6.424,6.424a3.884,3.884,0,0,0,0,5.484l-.406.405.406-.405A3.847,3.847,0,0,0,38.091,65.835Z" style="fill:none"/><path d="M39.622,41.988a.572.572,0,0,1-.81,0l-3.421-3.421A5.642,5.642,0,1,0,39.659,34.3l3.419,3.422a.573.573,0,0,1,0,.811Z" style="fill:none"/><path d="M61.411,56.123a.572.572,0,0,1,.81,0l3.422,3.42a5.643,5.643,0,1,0-4.267,4.266l-3.421-3.42a.573.573,0,0,1,0-.811Z" style="fill:none"/><path d="M44.886,43.8a5.642,5.642,0,0,0,.18-7.778A6.262,6.262,0,0,1,36.629,43.5c.087.1.181.2.278.3A5.648,5.648,0,0,0,44.886,43.8Z" style="fill:#00c0a5;opacity:0.2"/><path d="M61.376,63.809l-3.421-3.42a.573.573,0,0,1,0-.811l3.456-3.455a.572.572,0,0,1,.81,0l3.422,3.42a5.634,5.634,0,0,0-1.312-5.012,7.643,7.643,0,0,0-8.611,7.277,5.609,5.609,0,0,0,5.656,2Z" style="fill:#00c0a5;opacity:0.2"/><path d="M35.329,64.72l-.386.385Z" style="fill:none;fill-rule:evenodd"/><path d="M40.832,64.7l6.425-6.421a3.877,3.877,0,0,0-.935-6.172,4.445,4.445,0,0,1-.929,4.922l-6.424,6.424a4.427,4.427,0,0,1-3.6,1.271A3.876,3.876,0,0,0,40.83,64.7Z" style="fill:#00c0a5;opacity:0.2"/><path d="M65.64,59.543l-3.421-3.42a.573.573,0,0,0-.811,0l-3.455,3.455a.571.571,0,0,0,0,.811l3.42,3.42a5.641,5.641,0,1,1,4.267-4.266ZM47.257,58.279,40.832,64.7a3.878,3.878,0,0,1-5.483,0l-.406.405.406-.405a3.884,3.884,0,0,1,0-5.484l6.424-6.425a3.879,3.879,0,0,1,5.484,5.488ZM44.886,43.8a5.643,5.643,0,0,1-9.5-5.229l3.421,3.422a.572.572,0,0,0,.81,0l3.456-3.456a.573.573,0,0,0,0-.811L39.659,34.3a5.643,5.643,0,0,1,5.229,9.5Zm10.63,9.535-4.36-4.36,12.61-12.61a.573.573,0,0,0-.811-.811l-12.61,12.61-4.134-4.134A6.789,6.789,0,0,0,38.369,33.5a.575.575,0,0,0-.193.939l3.685,3.685-2.639,2.644-3.686-3.685a.573.573,0,0,0-.937.192,6.79,6.79,0,0,0,10.829,7.585l4.112,4.112-2.3,2.3-.019.024a5.031,5.031,0,0,0-6.252.682l-6.425,6.425a5.025,5.025,0,0,0,7.107,7.106l6.424-6.425a5.029,5.029,0,0,0,.038-7.063l2.239-2.238,4.4,4.4a6.788,6.788,0,0,0,7.916,10.421.574.574,0,0,0,.192-.938l-3.685-3.685,2.644-2.644L65.5,61.024a.575.575,0,0,0,.939-.192,6.789,6.789,0,0,0-10.924-7.5Z" style="fill:#00c0a5;fill-rule:evenodd"/><path d="M25.429,23.105,24,23.97l.381-1.631-1.265-1.1,1.669-.145.648-1.535L26.08,21.1l1.669.145-1.265,1.1.381,1.63Zm3.809-2.347L26.5,20.522,25.429,18l-1.071,2.526-2.739.232,2.08,1.8-.625,2.678,2.355-1.421,2.354,1.421-.621-2.678Z" style="fill:#00c0a5;fill-rule:evenodd"/><path d="M80.842,81.39l1.432.865-.381-1.63,1.265-1.1-1.668-.145-.648-1.535-.651,1.539-1.669.144,1.265,1.1-.381,1.63Zm-3.809-2.346,2.739-.236,1.07-2.522,1.071,2.525,2.739.233-2.08,1.8.624,2.678L80.842,82.1l-2.354,1.421.621-2.678Z" style="fill:#00c0a5;fill-rule:evenodd"/><polygon points="24.318 79.17 22.569 80.226 23.034 78.236 21.488 76.898 23.523 76.725 24.318 74.849 25.114 76.725 27.148 76.898 25.603 78.236 26.067 80.226 24.318 79.17" style="fill:#00c0a5;fill-rule:evenodd"/><circle cx="49.429" cy="88.857" r="1.143" style="fill:#00c0a5"/><circle cx="12.857" cy="50" r="2.286" style="fill:none;stroke:#00c0a5;stroke-miterlimit:10"/><polygon points="75.682 22.027 77.431 23.083 76.966 21.094 78.512 19.755 76.477 19.582 75.682 17.706 74.886 19.582 72.852 19.755 74.397 21.094 73.933 23.083 75.682 22.027" style="fill:#00c0a5;fill-rule:evenodd"/><circle cx="51.714" cy="11.143" r="1.143" style="fill:#00c0a5"/><circle cx="87.714" cy="47.714" r="1.714" style="fill:none;stroke:#00c0a5;stroke-miterlimit:10"/></svg>