<svg xmlns="http://www.w3.org/2000/svg" viewBox="0 0 66.873 80"><title>Mortgage Protect Insurance</title><path d="M39.635,76.171c-.156.075-1.359.54-2.42.95-2.279.881-3.3,1.28-3.779,1.492-.482-.212-1.5-.611-3.778-1.492-1.061-.41-2.265-.875-2.419-.95A47.35,47.35,0,0,1,2.652,46.007c-1.579-6.03-1.4-12.32-1.232-18.4.04-1.434.081-2.915.1-4.376L1.661,12.02,33.436,1.348,65.212,12.02l.141,11.208c.018,1.461.06,2.942.1,4.375.171,6.084.347,12.374-1.232,18.4A47.353,47.353,0,0,1,39.635,76.171Z" style="fill:#edf7f5"/><path d="M3.188,47.818A47.494,47.494,0,0,0,26.134,72.862c.382.191,6.3,2.418,6.42,2.555v0l0,0,0,0v0c.116-.137,6.038-2.364,6.42-2.555A47.5,47.5,0,0,0,63.644,42.6c1.955-7.466,1.238-15.086,1.142-22.711l-.1-8.046L33.436,1.348,1.661,12.02,1.52,23.228c-.019,1.461-.06,2.942-.1,4.376-.171,6.083-.347,12.373,1.232,18.4C2.811,46.616,3,47.216,3.188,47.818Z" style="fill:none"/><path d="M64.786,19.889l-.1-8.046.528.177.141,11.208c.018,1.461.06,2.942.1,4.375.171,6.084.347,12.374-1.232,18.4A47.353,47.353,0,0,1,39.635,76.171c-.156.075-1.359.54-2.42.95-2.279.881-3.3,1.28-3.779,1.492-.482-.212-1.5-.611-3.778-1.492-1.061-.41-2.265-.875-2.419-.95A47.272,47.272,0,0,1,3.188,47.818,47.494,47.494,0,0,0,26.134,72.862c.382.191,6.3,2.418,6.42,2.555v0l0,0,0,0v0c.116-.137,6.038-2.364,6.42-2.555A47.5,47.5,0,0,0,63.644,42.6C65.6,35.134,64.882,27.514,64.786,19.889Z" style="fill:#00c0a5;opacity:0.2"/><path d="M43.187,30.425a.656.656,0,1,1-.958.895c-3.778-4.043-9.754-3.358-9.813-3.349-1.282.175-5.541,1-6.212,4.286-.726,3.552,2.743,5.156,6.232,6.256a24.3,24.3,0,0,0,2.6.612,14.133,14.133,0,0,1,4.946,1.636,6.291,6.291,0,0,1,3.024,5.4,6.489,6.489,0,0,1-3.633,5.82,9.931,9.931,0,0,1-3.43,1.069c-.616.074-1.2.108-1.766.122v5.185a.656.656,0,0,1-1.312,0v-5.2c-6.323-.341-9.112-4.242-9.243-4.433a.655.655,0,0,1,1.078-.746c.137.2,3.394,4.705,11.106,3.773.253-.024,5.763-.6,5.889-5.618a4.979,4.979,0,0,0-2.41-4.261,12.958,12.958,0,0,0-4.5-1.459,25.547,25.547,0,0,1-2.744-.648c-2.238-.706-8.183-2.581-7.123-7.77.843-4.127,5.822-5.118,7.327-5.324.047-.005.275-.03.622-.047V21.639a.656.656,0,0,1,1.312,0v4.982A12.963,12.963,0,0,1,43.187,30.425Zm22.3,15.914a48.658,48.658,0,0,1-25.27,31c-.168.084-.864.356-2.533,1-1.389.538-3.46,1.339-3.859,1.528a.655.655,0,0,1-.389.128h-.005a.652.652,0,0,1-.389-.128c-.4-.189-2.47-.99-3.86-1.528-1.668-.644-2.365-.916-2.532-1a48.658,48.658,0,0,1-25.27-31C-.243,40.128-.064,33.742.109,27.567c.04-1.428.081-2.905.1-4.356L.356,11.538A.654.654,0,0,1,.8,10.925L33.192.047a.655.655,0,0,1,.364-.036.793.793,0,0,1,.118.033l32.4,10.881a.656.656,0,0,1,.447.613l.147,11.673c.019,1.451.06,2.927.1,4.355C66.937,33.742,67.116,40.128,65.49,46.339ZM65.453,27.6c-.04-1.433-.082-2.914-.1-4.375L65.212,12.02l-.528-.177L33.436,1.348,1.661,12.02,1.52,23.228c-.019,1.461-.06,2.942-.1,4.376-.171,6.083-.347,12.373,1.232,18.4.159.609.351,1.209.536,1.811A47.272,47.272,0,0,0,27.239,76.171c.154.075,1.358.54,2.419.95,2.278.881,3.3,1.28,3.778,1.492.482-.212,1.5-.611,3.779-1.492,1.061-.41,2.264-.875,2.42-.95A47.353,47.353,0,0,0,64.221,46.007C65.8,39.977,65.624,33.687,65.453,27.6Z" style="fill:#00c0a5"/></svg>