<svg xmlns="http://www.w3.org/2000/svg" viewBox="0 0 100 100"><title>404</title><polygon points="19.51 82.316 17.502 83.528 18.034 81.244 16.26 79.707 18.597 79.509 19.51 77.355 20.423 79.509 22.759 79.707 20.985 81.244 21.518 83.528 19.51 82.316" style="fill:#00c0a5;fill-rule:evenodd"/><path d="M8.9,47.794A3.075,3.075,0,1,1,11.97,44.72,3.077,3.077,0,0,1,8.9,47.794Zm0-5.249A2.175,2.175,0,1,0,11.07,44.72,2.178,2.178,0,0,0,8.9,42.545Z" style="fill:#00c0a5"/><path d="M20.743,60.545l1.222.738-.325-1.391,1.078-.935L21.3,58.833l-.552-1.309-.556,1.312-1.423.124,1.079.936-.325,1.39Zm-3.249-2,2.336-.2.913-2.151.913,2.154,2.336.2-1.774,1.537.533,2.284-2.008-1.212-2.008,1.212.529-2.284Z" style="fill:#00c0a5;fill-rule:evenodd"/><polygon points="81.027 15.228 83.035 16.439 82.502 14.155 84.276 12.618 81.94 12.42 81.027 10.266 80.114 12.42 77.778 12.618 79.552 14.155 79.019 16.439 81.027 15.228" style="fill:#00c0a5;fill-rule:evenodd"/><path d="M94.842,62.228a2.419,2.419,0,1,1,2.418-2.419A2.421,2.421,0,0,1,94.842,62.228Zm0-3.937a1.519,1.519,0,1,0,1.519,1.518A1.52,1.52,0,0,0,94.842,58.291Z" style="fill:#00c0a5"/><path d="M50.591,10.381a3.194,3.194,0,0,1,1.036-3.493,3.127,3.127,0,0,1,3.839-.065c.315.31.245.155.1.55a3.96,3.96,0,0,1-.654.932,14.787,14.787,0,0,1-1.639,1.746,6.234,6.234,0,0,1-1.687,1.3c-.429.158-.3.187-.623-.194A2.757,2.757,0,0,1,50.591,10.381Zm4.2.186a16.488,16.488,0,0,0,1.744-2.02,3.235,3.235,0,0,1-3.769,3.765A17.255,17.255,0,0,0,54.79,10.567Z" style="fill:#00c0a5"/><path d="M46.635,85.622a14.651,14.651,0,0,0,4.923,4.58c.414.219,1.357.729,1.8.288.555-.558-.294-1.84-.587-2.306-.319.64.313,1.551-.938,1.06a4.5,4.5,0,0,1-.806-.46,12.416,12.416,0,0,1-2.081-1.8A13.6,13.6,0,0,1,47.5,85.235a5.23,5.23,0,0,1-.434-.731c-.1-.229-.336-.686-.1-.9.28-.252.769.081,1.119-.094-.479-.3-1.9-1.224-2.375-.47C45.27,83.741,46.28,85.109,46.635,85.622Z" style="fill:#00c0a5"/><path d="M17.349,18.706a.176.176,0,0,0-.053.158l.187,1.047-.985-.5a.174.174,0,0,0-.157,0l-.986.5.186-1.047a.173.173,0,0,0-.052-.158l-.784-.737,1.09-.153a.172.172,0,0,0,.131-.093l.493-.962.493.962a.172.172,0,0,0,.131.093l1.09.153Zm1.194-1.032-1.361-.191L16.575,16.3a.183.183,0,0,0-.312,0l-.607,1.186-1.361.191a.175.175,0,0,0-.1.3l.98.921-.231,1.3a.176.176,0,0,0,.252.187l1.218-.617,1.218.617a.176.176,0,0,0,.252-.187l-.232-1.3.981-.921a.173.173,0,0,0,.047-.18.175.175,0,0,0-.142-.121Z" style="fill:#00c0a5"/><path d="M22.671,14.1a.174.174,0,0,0,.17-.048L23.891,13a.175.175,0,0,0-.248-.248L22.594,13.8a.174.174,0,0,0-.048.17A.176.176,0,0,0,22.671,14.1Z" style="fill:#00c0a5"/><path d="M22.316,14.576a.175.175,0,0,0-.247-.247l-2.45,2.449a.175.175,0,1,0,.248.248Z" style="fill:#00c0a5"/><path d="M21.894,12.579l-1.05,1.05a.175.175,0,1,0,.248.247l1.049-1.049a.175.175,0,0,0-.247-.248Z" style="fill:#00c0a5"/><path d="M20.565,14.156a.175.175,0,0,0-.246,0L17.87,16.6a.174.174,0,0,0-.048.17.175.175,0,0,0,.3.078l2.45-2.45A.175.175,0,0,0,20.565,14.156Z" style="fill:#00c0a5"/><path d="M24.588,13.806a.175.175,0,0,0-.245,0l-.525.525-1.049,1.049-.525.525-2.45,2.45a.175.175,0,0,0,.078.295.174.174,0,0,0,.17-.048l2.449-2.449.525-.525,1.05-1.05.525-.525A.174.174,0,0,0,24.588,13.806Z" style="fill:#00c0a5"/><path d="M22.316,10.655a.173.173,0,0,0-.247,0L17.52,15.2a.175.175,0,1,0,.247.247L22.316,10.9A.175.175,0,0,0,22.316,10.655Z" style="fill:#00c0a5"/><path d="M79.345,84.088a.2.2,0,0,0-.191.054l-1.181,1.181a.2.2,0,0,0,.278.278l1.181-1.181a.194.194,0,0,0,.054-.191A.2.2,0,0,0,79.345,84.088Z" style="fill:#00c0a5"/><path d="M79.744,83.552a.2.2,0,0,0,.279.278l2.755-2.756A.2.2,0,1,0,82.5,80.8Z" style="fill:#00c0a5"/><path d="M81.122,84.339,79.941,85.52a.2.2,0,0,0,.279.278L81.4,84.617a.2.2,0,0,0-.087-.332A.2.2,0,0,0,81.122,84.339Z" style="fill:#00c0a5"/><path d="M81.715,84.024a.2.2,0,0,0,.276,0l2.756-2.756a.2.2,0,0,0-.087-.332.2.2,0,0,0-.192.054l-2.755,2.755A.2.2,0,0,0,81.715,84.024Z" style="fill:#00c0a5"/><path d="M79.236,82.649l.59-.591L82.582,79.3a.2.2,0,1,0-.279-.278L79.548,81.78l-.591.591-1.181,1.181-.59.59a.2.2,0,0,0,.278.278l.591-.59Z" style="fill:#00c0a5"/><path d="M85.053,82.514a.2.2,0,0,0-.191.053l-5.118,5.118a.2.2,0,0,0,.279.278l5.117-5.117a.2.2,0,0,0-.087-.332Z" style="fill:#00c0a5"/><path d="M85,34.96a2.992,2.992,0,0,0,5.039,2.182,3.3,3.3,0,0,1-2.177-5.171A2.992,2.992,0,0,0,85,34.96Z" style="fill:#00c0a5"/><circle cx="25.954" cy="31.598" r="1.312" style="fill:#00c0a5"/><circle cx="78.44" cy="49.968" r="1.312" style="fill:#00c0a5"/><circle cx="94.186" cy="26.349" r="1.312" style="fill:#00c0a5"/><circle cx="57.446" cy="25.037" r="1.312" style="fill:#00c0a5"/><circle cx="37.763" cy="70.963" r="1.312" style="fill:#00c0a5"/><circle cx="69.255" cy="73.587" r="1.312" style="fill:#00c0a5"/><path d="M58.269,47.319a.954.954,0,0,1-.47-.124l-5.393-3.054a.953.953,0,0,0-.942,0L46.1,47.194a.959.959,0,0,1-.471.125H39.464V58.163a.954.954,0,0,0,.954.953H63.276a.954.954,0,0,0,.954-.953V47.319Z" style="fill:#edf7f5"/><path d="M63.276,59.355H40.418a1.193,1.193,0,0,1-1.192-1.192V47.08h6.406a.71.71,0,0,0,.354-.094l5.36-3.051a1.2,1.2,0,0,1,1.177,0l5.393,3.053a.713.713,0,0,0,.353.093h6.2V58.163A1.194,1.194,0,0,1,63.276,59.355ZM39.7,47.557V58.163a.716.716,0,0,0,.716.715H63.276a.716.716,0,0,0,.715-.715V47.557H58.269a1.2,1.2,0,0,1-.588-.155l-5.393-3.053a.719.719,0,0,0-.706,0L46.221,47.4a1.193,1.193,0,0,1-.589.156Z" style="fill:#00c0a5"/><g style="opacity:0.2"><path d="M63.379,47.319v10.1a.954.954,0,0,1-.954.954H39.567c-.027,0-.053,0-.079,0a.954.954,0,0,0,.93.742H63.276a.954.954,0,0,0,.954-.953V47.319Z" style="fill:#00c0a5"/></g><path d="M65.241,47.557H58.269a1.2,1.2,0,0,1-.588-.155l-5.393-3.053a.719.719,0,0,0-.706,0L46.221,47.4l-.118-.207.118.207a1.193,1.193,0,0,1-.589.156H38.479a.716.716,0,0,1-.667-.976l2.737-7a1.186,1.186,0,0,1,1.11-.758h20.57a1.2,1.2,0,0,1,1.119.782L65.912,46.6a.716.716,0,0,1-.671.962Zm-13.3-3.777a1.186,1.186,0,0,1,.587.154l5.393,3.053a.713.713,0,0,0,.353.093h6.972a.239.239,0,0,0,.224-.32L62.9,39.77a.718.718,0,0,0-.671-.469H41.659a.712.712,0,0,0-.666.455l-2.736,7a.233.233,0,0,0,.025.221.235.235,0,0,0,.2.1h7.153a.71.71,0,0,0,.354-.094l5.36-3.051A1.2,1.2,0,0,1,51.936,43.78Z" style="fill:#00c0a5"/><path d="M47.091,39.3H43.752a.238.238,0,0,1-.238-.238V37.009a1.194,1.194,0,0,1,1.192-1.192h1.432a1.194,1.194,0,0,1,1.192,1.192v2.054A.238.238,0,0,1,47.091,39.3Zm-3.1-.477h2.862V37.009a.716.716,0,0,0-.715-.715H44.706a.715.715,0,0,0-.715.715Z" style="fill:#00c0a5"/><path d="M55.128,59.355H48.591a.239.239,0,0,1-.238-.239V51.065a1.194,1.194,0,0,1,1.192-1.192h4.629a1.193,1.193,0,0,1,1.192,1.192v8.051A.238.238,0,0,1,55.128,59.355Zm-6.3-.477h6.06V51.065a.716.716,0,0,0-.716-.715H49.545a.715.715,0,0,0-.715.715Z" style="fill:#00c0a5"/><path d="M83.99,80.067l1.53.214.684,1.334a.2.2,0,0,0,.35,0l.683-1.334,1.531-.214a.2.2,0,0,0,.108-.339l-1.1-1.037.26-1.461a.2.2,0,0,0-.282-.21l-1.371.7-1.371-.7a.2.2,0,0,0-.282.21l.26,1.461-1.1,1.037a.2.2,0,0,0,.108.338Z" style="fill:#00c0a5"/><path d="M56.447,8.205a14.651,14.651,0,0,1-4.923,4.58c-.414.218-1.357.729-1.8.288-.555-.559.294-1.84.588-2.306.318.639-.314,1.551.937,1.059a4.458,4.458,0,0,0,.806-.459,12.422,12.422,0,0,0,2.081-1.8,13.533,13.533,0,0,0,1.444-1.753,5.22,5.22,0,0,0,.434-.73c.1-.229.337-.686.1-.9-.28-.251-.769.081-1.118-.094.478-.3,1.9-1.223,2.375-.469C57.812,6.324,56.8,7.692,56.447,8.205Z" style="fill:#00c0a5"/><path d="M52.491,87.8a3.194,3.194,0,0,0-1.036-3.493,3.125,3.125,0,0,0-3.839-.066c-.315.311-.245.155-.1.551a3.963,3.963,0,0,0,.654.931,14.714,14.714,0,0,0,1.639,1.746,6.273,6.273,0,0,0,1.687,1.3c.43.157.3.186.623-.2A2.764,2.764,0,0,0,52.491,87.8Z" style="fill:#00c0a5"/><path d="M48.292,87.984a16.5,16.5,0,0,1-1.744-2.02,3.236,3.236,0,0,0,3.77,3.766A17.1,17.1,0,0,1,48.292,87.984Z" style="fill:#00c0a5"/></svg>