<svg xmlns="http://www.w3.org/2000/svg" viewBox="0 0 302.5 297.12"><title>party-popper</title><path d="M112.245,188.365c-28.819-27.266-43.26-60.638-37.317-81.906l-.007-.005L2.863,287.825a4.953,4.953,0,0,0,6.406,6.442l187.057-73.153-.071-.077C175.363,228.269,141.14,215.7,112.245,188.365Z" style="fill:#edf7f5;stroke:#5fe1cf;stroke-miterlimit:10;stroke-width:5px"/><path d="M74.928,106.459l-.007-.005L73.8,109.286c.051.621.112,1.245.186,1.876A34.609,34.609,0,0,1,74.928,106.459Z" style="fill:#5fe1cf;opacity:0.2"/><path d="M167.424,220.905,9.27,282.756A4.85,4.85,0,0,1,5,282.441l-2.139,5.384a4.953,4.953,0,0,0,6.407,6.442l187.056-73.153-.071-.077C188.252,223.807,178.29,223.663,167.424,220.905Z" style="fill:#5fe1cf;opacity:0.2"/><ellipse cx="144.241" cy="154.547" rx="46.555" ry="86.694" transform="translate(-67.155 153.111) rotate(-46.586)" style="fill:none;stroke:#5fe1cf;stroke-linecap:round;stroke-linejoin:round;stroke-width:5px"/><path d="M54.666,159.059c5.4,15.835,17.7,33.657,43.494,49.669,21.082,13.09,51.026,17.316,82.121,16.976" style="fill:none;stroke:#5fe1cf;stroke-linecap:round;stroke-linejoin:round;stroke-width:5px"/><path d="M64.484,132.963c5.114,14.873,16.229,31.44,38.615,46.59" style="fill:none;stroke:#5fe1cf;stroke-linecap:round;stroke-linejoin:round;stroke-width:5px"/><path d="M39.817,197.9c7.189,10.242,17.9,20.671,33.613,30.428,16.438,10.206,38.264,15.024,61.823,16.49" style="fill:none;stroke:#5fe1cf;stroke-linecap:round;stroke-linejoin:round;stroke-width:5px"/><path d="M27.933,225.409c6.752,8.376,15.947,16.77,28.364,24.719,9.241,5.915,20.237,10.021,32.3,12.712" style="fill:none;stroke:#5fe1cf;stroke-linecap:round;stroke-linejoin:round;stroke-width:5px"/><path d="M17.359,252.9a130.628,130.628,0,0,0,17.482,13.347,89.623,89.623,0,0,0,21.285,9.792" style="fill:none;stroke:#5fe1cf;stroke-linecap:round;stroke-linejoin:round;stroke-width:5px"/><path d="M87.6,29.154S115.86,49.136,105.869,85.1" style="fill:none;stroke:#5fe1cf;stroke-linecap:round;stroke-linejoin:round;stroke-width:5px"/><path d="M178.66,10.314s7.422,55.378-19.411,96.484" style="fill:none;stroke:#5fe1cf;stroke-linecap:round;stroke-linejoin:round;stroke-width:5px"/><path d="M282.28,117.931s-47.385-24.835-98.2,7.422" style="fill:none;stroke:#5fe1cf;stroke-linecap:round;stroke-linejoin:round;stroke-width:5px"/><path d="M281.97,198.529s-18.815-32.927-67.628-16.085" style="fill:none;stroke:#5fe1cf;stroke-linecap:round;stroke-linejoin:round;stroke-width:5px"/><circle cx="181.479" cy="164.085" r="14.091" style="fill:#5fe1cf"/><circle cx="200.245" cy="76.458" r="19.263" style="fill:#ff9a00"/><circle cx="160.268" cy="32.934" r="11.056" style="fill:#d0021b"/><circle cx="289.956" cy="59.916" r="12.544" style="fill:#4a90e2"/><polygon points="231.458 10.805 246.084 8.611 238.928 21.555 245.534 34.787 231.013 31.982 220.47 42.353 218.651 27.676 205.529 20.854 218.925 14.588 221.359 0 231.458 10.805" style="fill:#5fe1cf"/><polygon points="237.91 127.042 245.781 121.622 245.295 131.166 252.882 136.976 243.655 139.464 240.473 148.474 235.257 140.468 225.704 140.226 231.706 132.791 228.984 123.631 237.91 127.042" style="fill:#fa7343"/><polygon points="106.682 103.356 118.102 95.493 117.397 109.34 128.404 117.77 115.017 121.379 110.401 134.452 102.832 122.836 88.972 122.485 97.681 111.697 93.731 98.407 106.682 103.356" style="fill:#9013fe"/></svg>