<svg xmlns="http://www.w3.org/2000/svg" viewBox="0 0 80 74.739"><title>pick-a-time</title><path d="M75.651,26.767h3.038v42.07a4.6,4.6,0,0,1-4.591,4.59H5.9a4.6,4.6,0,0,1-4.591-4.59V26.767Z" style="fill:#edf7f5"/><path d="M74.1,7.5H60.345l-.092-6.116A.655.655,0,0,0,59.6.738h-.01a.655.655,0,0,0-.646.665l.092,6.1H20.9L20.8.646A.656.656,0,0,0,20.14,0h-.01a.657.657,0,0,0-.646.666l.1,6.833H5.9A5.909,5.909,0,0,0,0,13.4V68.837a5.909,5.909,0,0,0,5.9,5.9H74.1a5.909,5.909,0,0,0,5.9-5.9V13.4A5.909,5.909,0,0,0,74.1,7.5ZM1.311,13.4A4.6,4.6,0,0,1,5.9,8.81h13.7l.14,9.289a.655.655,0,0,0,.655.646h.01a.656.656,0,0,0,.646-.666L20.919,8.81H59.053L59.2,18.836a.656.656,0,0,0,.656.646h.01a.656.656,0,0,0,.646-.665L60.365,8.81H74.1A4.6,4.6,0,0,1,78.689,13.4V25.455H1.311ZM78.689,68.837a4.6,4.6,0,0,1-4.591,4.59H5.9a4.6,4.6,0,0,1-4.591-4.59V26.767H78.689Z" style="fill:#00c0a5"/><path d="M78.689,13.4A4.6,4.6,0,0,0,74.1,8.81H60.365l.151,10.007a.656.656,0,0,1-.646.665h-.01a.656.656,0,0,1-.656-.646L59.053,8.81H20.919l.139,9.269a.656.656,0,0,1-.646.666H20.4a.655.655,0,0,1-.655-.646l-.14-9.289H5.9A4.6,4.6,0,0,0,1.311,13.4V25.455H78.689Z" style="fill:none"/><path d="M5.39,70.591H70.633a5.019,5.019,0,0,0,5.018-5.019V26.767H1.311v41.71A5,5,0,0,0,5.39,70.591Z" style="fill:none"/><path d="M75.651,65.572V26.767h3.038v42.07a4.6,4.6,0,0,1-4.591,4.59H5.9a4.6,4.6,0,0,1-4.591-4.59v-.36A5,5,0,0,0,5.39,70.591H70.633A5.019,5.019,0,0,0,75.651,65.572Z" style="fill:#00c0a5;opacity:0.2"/><path d="M78.689,13.4A4.6,4.6,0,0,0,74.1,8.81H60.365l.151,10.007a.656.656,0,0,1-.646.665h-.01a.656.656,0,0,1-.656-.646L59.053,8.81H20.919l.139,9.269a.656.656,0,0,1-.646.666H20.4a.655.655,0,0,1-.655-.646l-.14-9.289H5.9A4.6,4.6,0,0,0,1.311,13.4V25.455H78.689Z" style="fill:none"/></svg>