<svg xmlns="http://www.w3.org/2000/svg" viewBox="0 0 65.703 80"><title>Refinance</title><path d="M5.9,1.311A4.6,4.6,0,0,0,1.311,5.9V74.1A4.6,4.6,0,0,0,5.9,78.689H59.8a4.6,4.6,0,0,0,4.59-4.591V5.9A4.6,4.6,0,0,0,59.8,1.311Z" style="fill:#edf7f5"/><path d="M59.322,76.441a2.623,2.623,0,0,0,2.623-2.623V1.867A4.533,4.533,0,0,0,59.8,1.311H5.9A4.6,4.6,0,0,0,1.311,5.9V74.1a4.536,4.536,0,0,0,.665,2.343Z" style="fill:none"/><path d="M61.945,73.818V1.867A4.577,4.577,0,0,1,64.392,5.9V74.1a4.6,4.6,0,0,1-4.59,4.591H5.9a4.575,4.575,0,0,1-3.925-2.248H59.322A2.623,2.623,0,0,0,61.945,73.818Z" style="fill:#00c0a5;opacity:0.2"/><path d="M53.557,49.376a.655.655,0,0,1-.655.655H12.8a.656.656,0,1,1,0-1.311H52.9A.656.656,0,0,1,53.557,49.376ZM48.87,65.394H16.833a.656.656,0,1,0,0,1.311H48.87a.656.656,0,1,0,0-1.311Zm-3.1-7.026a.656.656,0,1,0,0-1.311H19.937a.656.656,0,1,0,0,1.311ZM32.259,36.817v3.57a.656.656,0,1,0,1.311,0V36.818c.361-.014.717-.021,1.1-.068,1.776-.16,5.159-1.439,5.252-5.138a4.716,4.716,0,0,0-2.263-4.051,10.313,10.313,0,0,0-3.622-1.2,17.379,17.379,0,0,1-1.855-.436c-3.45-1.088-4.755-2.372-4.362-4.292.458-2.244,3.425-2.818,4.314-2.94.042-.006,4.252-.488,6.909,2.354a.656.656,0,1,0,.958-.9,9.445,9.445,0,0,0-6.436-2.786V13.95a.656.656,0,0,0-1.311,0v3.415c-.161.011-.262.022-.289.025-2.974.406-5,1.893-5.43,3.979-.8,3.9,3.6,5.283,5.252,5.805a18.537,18.537,0,0,0,2,.471,9.208,9.208,0,0,1,3.178,1.027,3.4,3.4,0,0,1,1.65,2.907c-.087,3.448-3.9,3.849-4.078,3.866-5.43.657-7.723-2.5-7.823-2.639a.656.656,0,0,0-1.078.747A8.845,8.845,0,0,0,32.259,36.817ZM65.7,5.9V74.1A5.908,5.908,0,0,1,59.8,80H5.9A5.909,5.909,0,0,1,0,74.1V5.9A5.909,5.909,0,0,1,5.9,0H59.8A5.908,5.908,0,0,1,65.7,5.9Zm-1.311,0a4.577,4.577,0,0,0-2.447-4.035A4.533,4.533,0,0,0,59.8,1.311H5.9A4.6,4.6,0,0,0,1.311,5.9V74.1a4.536,4.536,0,0,0,.665,2.343A4.575,4.575,0,0,0,5.9,78.689H59.8a4.6,4.6,0,0,0,4.59-4.591Z" style="fill:#00c0a5"/></svg>