<svg xmlns="http://www.w3.org/2000/svg" width="34" height="40" viewBox="0 0 34 40" fill="currentColor">
    <g fill-rule="nonzero">
        <path d="M15.088 31.454a.998.998 0 1 0-1.411 1.409l1 .996a14.7 14.7 0 0 1-12.66-14.438 14.674 14.674 0 0 1 10.98-14.074.991.991 0 0 0 .613-.471.96.96 0 0 0 .095-.748 1.01 1.01 0 0 0-1.236-.692A16.66 16.66 0 0 0 0 19.421c.064 8.816 6.972 16.062 15.774 16.546l-2.097 2.091a.991.991 0 0 0 0 1.41 1.01 1.01 0 0 0 1.41 0l3.316-3.307a.993.993 0 0 0 0-1.408l-3.315-3.3zM18.566 3.44l1.749-1.74a.983.983 0 0 0 .292-.704.988.988 0 0 0-.292-.707 1.006 1.006 0 0 0-1.411 0l-3.315 3.303a.998.998 0 0 0 .005 1.41l3.315 3.302a1.005 1.005 0 0 0 1.629-.324.994.994 0 0 0-.218-1.087l-1.433-1.426a14.817 14.817 0 0 1 13.09 14.494 14.681 14.681 0 0 1-10.984 14.074.996.996 0 0 0-.613.471.976.976 0 0 0-.096.745c.125.433.522.731.973.73.089-.002.177-.013.263-.033a16.66 16.66 0 0 0 12.47-15.98c-.092-8.67-6.781-15.838-15.424-16.528z"/>
        <path d="M20.102 19.547a8.969 8.969 0 0 0-2.893-1.332 6.665 6.665 0 0 1-2.076-.901 1.18 1.18 0 0 1-.558-1.034c-.009-.391.144-.768.422-1.043a2.52 2.52 0 0 1 1.822-.687 2.28 2.28 0 0 1 2.459 1.81 1.24 1.24 0 0 0 1.288 1.179c.337-.01.655-.153.887-.398.218-.232.335-.542.323-.861a4.478 4.478 0 0 0-3.686-4.009v-.83a1.2 1.2 0 0 0-.418-.937 1.332 1.332 0 0 0-.927-.302h-.038c-.632.06-1.115.59-1.117 1.225v.831a4.242 4.242 0 0 0-3.515 4.104 3.746 3.746 0 0 0 1.515 2.87 8.825 8.825 0 0 0 2.892 1.323c.737.18 1.438.484 2.074.898.356.227.568.623.56 1.046.008.392-.147.77-.428 1.045a2.52 2.52 0 0 1-1.823.686 2.283 2.283 0 0 1-2.466-1.822 1.21 1.21 0 0 0-.677-1.038 1.285 1.285 0 0 0-1.23.047 1.204 1.204 0 0 0-.591 1.083 4.48 4.48 0 0 0 3.686 4.019v.815c-.005.449.237.863.63 1.08a1.284 1.284 0 0 0 1.243 0c.389-.215.63-.624.628-1.068v-.823a4.255 4.255 0 0 0 3.527-4.121 3.749 3.749 0 0 0-1.513-2.855z"/>
    </g>
</svg>