<svg xmlns="http://www.w3.org/2000/svg" viewBox="0 0 305.072 346.294"><title>refinance</title><line x1="153.318" y1="270.497" x2="153.318" y2="242.195" style="fill:none;stroke:#5fe1cf;stroke-linecap:round;stroke-miterlimit:10;stroke-width:5px"/><line x1="153.318" y1="111.532" x2="153.318" y2="83.23" style="fill:none;stroke:#5fe1cf;stroke-linecap:round;stroke-miterlimit:10;stroke-width:5px"/><path d="M105.586,219.451s17.755,25.726,59.785,20.653c0,0,32.248-2.9,32.972-31.885.252-10.081-5.435-19.358-13.855-24.644-11.305-7.1-25.271-7.178-37.724-11.1-16.508-5.206-38.449-14.253-34.054-35.762,3.206-15.689,20.362-22.573,34.545-24.507,0,0,32.247-3.986,52.9,18.116" style="fill:none;stroke:#5fe1cf;stroke-linecap:round;stroke-linejoin:round;stroke-width:5px"/><path d="M177.946,324.724A150.034,150.034,0,0,0,171.18,28" style="fill:none;stroke:#5fe1cf;stroke-linecap:round;stroke-linejoin:round;stroke-width:5px"/><path d="M122.7,29.815A150.029,150.029,0,0,0,127.144,324.7" style="fill:none;stroke:#5fe1cf;stroke-linecap:round;stroke-linejoin:round;stroke-width:5px"/><line x1="191.065" y1="60.907" x2="169.266" y2="27.856" style="fill:none;stroke:#5fe1cf;stroke-linecap:round;stroke-linejoin:round;stroke-width:5px"/><line x1="199.645" y1="2.5" x2="169.237" y2="27.856" style="fill:none;stroke:#5fe1cf;stroke-linecap:round;stroke-linejoin:round;stroke-width:5px"/><line x1="114.506" y1="288.317" x2="129.193" y2="325.085" style="fill:none;stroke:#5fe1cf;stroke-linecap:round;stroke-linejoin:round;stroke-width:5px"/><line x1="94.325" y1="343.794" x2="129.221" y2="325.091" style="fill:none;stroke:#5fe1cf;stroke-linecap:round;stroke-linejoin:round;stroke-width:5px"/></svg>