<svg xmlns="http://www.w3.org/2000/svg" viewBox="0 0 305 269.362"><title>relax</title><circle cx="110.539" cy="62.436" r="30.021" style="fill:#edf7f5;stroke:#5fe1cf;stroke-miterlimit:10;stroke-width:5px"/><line x1="110.539" y1="2.5" x2="110.539" y2="24.41" style="fill:none;stroke:#5fe1cf;stroke-linecap:round;stroke-linejoin:round;stroke-width:5px"/><line x1="110.539" y1="100.463" x2="110.539" y2="122.373" style="fill:none;stroke:#5fe1cf;stroke-linecap:round;stroke-linejoin:round;stroke-width:5px"/><line x1="170.476" y1="62.436" x2="148.566" y2="62.436" style="fill:none;stroke:#5fe1cf;stroke-linecap:round;stroke-linejoin:round;stroke-width:5px"/><line x1="72.513" y1="62.436" x2="50.603" y2="62.436" style="fill:none;stroke:#5fe1cf;stroke-linecap:round;stroke-linejoin:round;stroke-width:5px"/><line x1="152.92" y1="20.055" x2="137.428" y2="35.547" style="fill:none;stroke:#5fe1cf;stroke-linecap:round;stroke-linejoin:round;stroke-width:5px"/><line x1="83.65" y1="89.325" x2="68.158" y2="104.818" style="fill:none;stroke:#5fe1cf;stroke-linecap:round;stroke-linejoin:round;stroke-width:5px"/><line x1="152.921" y1="104.818" x2="137.428" y2="89.325" style="fill:none;stroke:#5fe1cf;stroke-linecap:round;stroke-linejoin:round;stroke-width:5px"/><line x1="83.651" y1="35.548" x2="68.158" y2="20.055" style="fill:none;stroke:#5fe1cf;stroke-linecap:round;stroke-linejoin:round;stroke-width:5px"/><line x1="2.5" y1="266.862" x2="302.5" y2="266.862" style="fill:none;stroke:#5fe1cf;stroke-linecap:round;stroke-linejoin:round;stroke-width:5px"/><line x1="13.08" y1="118.272" x2="24.272" y2="266.056" style="fill:none;stroke:#5fe1cf;stroke-linecap:round;stroke-linejoin:round;stroke-width:5px"/><line x1="293.854" y1="119.526" x2="280.329" y2="265.757" style="fill:none;stroke:#5fe1cf;stroke-linecap:round;stroke-linejoin:round;stroke-width:5px"/><line x1="84.822" y1="252.754" x2="85.248" y2="265.589" style="fill:none;stroke:#5fe1cf;stroke-linecap:round;stroke-linejoin:round;stroke-width:5px"/><line x1="104.129" y1="240.97" x2="103.852" y2="266.153" style="fill:none;stroke:#5fe1cf;stroke-linecap:round;stroke-linejoin:round;stroke-width:5px"/><line x1="258.465" y1="235.505" x2="258.043" y2="266.698" style="fill:none;stroke:#5fe1cf;stroke-linecap:round;stroke-linejoin:round;stroke-width:5px"/><line x1="243.385" y1="252.059" x2="243.385" y2="266.466" style="fill:none;stroke:#5fe1cf;stroke-linecap:round;stroke-linejoin:round;stroke-width:5px"/><line x1="228.727" y1="247.549" x2="229.573" y2="266.349" style="fill:none;stroke:#5fe1cf;stroke-linecap:round;stroke-linejoin:round;stroke-width:5px"/><path d="M16.217,156.361s132.111,82.59,272.91,3.139c-1.484.837-3.1,4.72-4.075,6.092a190.67,190.67,0,0,1-12.277,15.49c-13.543,15.444-29.443,29.056-47.434,39.057-53.886,29.956-121.8,14.31-170.282-19.19C38.922,189.8,22.4,175.683,16.217,156.361Z" style="fill:#edf7f5;stroke:#5fe1cf;stroke-miterlimit:10;stroke-width:5px"/><path d="M265.354,171.46c-13.418,15.177-29.119,28.551-46.857,38.412-53.887,29.955-121.8,14.31-170.283-19.19-9.977-6.894-20.1-14.924-27.836-24.615,7.818,14.479,21.377,25.69,34.681,34.882,48.486,33.5,116.4,49.146,170.282,19.19,17.991-10,33.891-23.613,47.434-39.058a190.265,190.265,0,0,0,12.277-15.489c.972-1.372,2.591-5.255,4.075-6.092Q277.187,166.237,265.354,171.46Z" style="fill:#5fe1cf;opacity:0.2"/><path d="M247.208,178.738a18.414,18.414,0,1,0-34.732,9.8A259.34,259.34,0,0,0,247.208,178.738Z" style="fill:#5fe1cf"/><path d="M114.033,190.365l3.823-4.248a3.017,3.017,0,0,1,4.885.563L125.673,192a268.88,268.88,0,0,0,80.975-2.32c-4.67-13.831-19.46-10.875-19.46-10.875l-35.74,8.588-21.942-23.56a15.086,15.086,0,0,0-22.783.811l-16.774,20.8C97.536,187.322,105.584,189,114.033,190.365Z" style="fill:#5fe1cf"/></svg>