<svg xmlns="http://www.w3.org/2000/svg" viewBox="0 0 299.156 252.098"><title>savings</title><path d="M247.88,134.535s31.816,6.974,44.892-12.639-11.05-39.154-11.05-39.154" style="fill:none;stroke:#5fe1cf;stroke-linecap:round;stroke-linejoin:round;stroke-width:5px"/><path d="M170.954,36.906H130.636a97.311,97.311,0,0,0-20.943,2.275C97.871,23.655,78.62,19.425,66.573,18.375a10.01,10.01,0,0,0-10.9,9.962V72.361a96.711,96.711,0,0,0-18.5,35.588H22.5a20,20,0,0,0-20,20V158.12a20,20,0,0,0,20,20H44.318a97.313,97.313,0,0,0,21.126,27.554V239.6a10,10,0,0,0,10,10h31.683a10,10,0,0,0,10-10v-9.683a97.707,97.707,0,0,0,13.509.942h40.318c.716,0,1.43-.012,2.143-.027V239.6a10,10,0,0,0,10,10H214.78a10,10,0,0,0,10-10V214.554a96.879,96.879,0,0,0,43.149-80.672h0A96.976,96.976,0,0,0,170.954,36.906Z" style="fill:#edf7f5;stroke:#5fe1cf;stroke-miterlimit:10;stroke-width:5px"/><path d="M58.1,194.826a97.473,97.473,0,0,1-11.279-12.175A97.3,97.3,0,0,0,58.1,198.205Z" style="fill:#5fe1cf;opacity:0.25"/><path d="M36.969,167.271H15.151A19.88,19.88,0,0,1,3.2,163.278,19.991,19.991,0,0,0,22.5,178.12H43.479A96.791,96.791,0,0,1,36.969,167.271Z" style="fill:#5fe1cf;opacity:0.25"/><path d="M165.748,228.75v-8.769c-.713.016-1.427.027-2.143.027H123.287a97.708,97.708,0,0,1-13.509-.941v9.683a10,10,0,0,1-10,10H68.1a9.988,9.988,0,0,1-2.651-.367V239.6a10,10,0,0,0,10,10h31.682a10,10,0,0,0,10-10v-9.683a97.733,97.733,0,0,0,13.51.942h35.339A10.023,10.023,0,0,1,165.748,228.75Z" style="fill:#5fe1cf;opacity:0.25"/><path d="M247.426,74.246a96.519,96.519,0,0,1,13.154,48.787h0a96.877,96.877,0,0,1-43.149,80.672V228.75a10,10,0,0,1-10,10H175.748a9.993,9.993,0,0,1-2.651-.367V239.6a10,10,0,0,0,10,10H214.78a10,10,0,0,0,10-10V214.553a96.875,96.875,0,0,0,43.148-80.671h0A96.553,96.553,0,0,0,247.426,74.246Z" style="fill:#5fe1cf;opacity:0.25"/><circle cx="79.35" cy="114.083" r="10.305" style="fill:#5fe1cf"/><circle cx="159.197" cy="41.937" r="39.437" style="fill:#fff;stroke:#5fe1cf;stroke-miterlimit:10;stroke-width:5px"/><line x1="115.735" y1="81.889" x2="204.371" y2="81.889" style="fill:none;stroke:#5fe1cf;stroke-linecap:round;stroke-linejoin:round;stroke-width:5px"/></svg>