<svg xmlns="http://www.w3.org/2000/svg" viewBox="0 0 308.289 332.724"><title>search-filter</title><line x1="2.5" y1="269.123" x2="78.804" y2="190.139" style="fill:none;stroke:#5fe1cf;stroke-linecap:round;stroke-linejoin:round;stroke-width:5px"/><circle cx="151.875" cy="110.328" r="107.828" style="fill:none;stroke:#5fe1cf;stroke-linecap:round;stroke-linejoin:round;stroke-width:5px"/><path d="M286.438,267.3l-9.486-4.012a43.592,43.592,0,0,0-2.5-6.021l3.872-9.548a3.4,3.4,0,0,0-.746-3.682l-9.307-9.307a3.4,3.4,0,0,0-3.682-.746l-9.548,3.872a43.541,43.541,0,0,0-6.021-2.5l-4.012-9.486a3.4,3.4,0,0,0-3.132-2.076H228.718a3.4,3.4,0,0,0-3.132,2.076l-4.011,9.486a43.553,43.553,0,0,0-6.022,2.5l-9.548-3.872a3.4,3.4,0,0,0-3.682.746l-9.307,9.307a3.4,3.4,0,0,0-.746,3.682l3.872,9.548a43.587,43.587,0,0,0-2.5,6.021l-9.487,4.012a3.4,3.4,0,0,0-2.076,3.132v13.161a3.4,3.4,0,0,0,2.076,3.132l9.487,4.012a43.587,43.587,0,0,0,2.5,6.021L192.27,306.3a3.4,3.4,0,0,0,.746,3.682l9.307,9.307a3.4,3.4,0,0,0,3.682.746l9.548-3.872a43.677,43.677,0,0,0,6.022,2.5l4.011,9.486a3.4,3.4,0,0,0,3.132,2.076h13.161a3.4,3.4,0,0,0,3.132-2.076l4.012-9.486a43.664,43.664,0,0,0,6.021-2.5l9.548,3.872a3.4,3.4,0,0,0,3.682-.746l9.307-9.307a3.4,3.4,0,0,0,.746-3.682l-3.872-9.548a43.553,43.553,0,0,0,2.5-6.022l9.486-4.011a3.4,3.4,0,0,0,2.076-3.132V270.428A3.4,3.4,0,0,0,286.438,267.3ZM235.3,304.9a27.887,27.887,0,1,1,27.886-27.887A27.886,27.886,0,0,1,235.3,304.9Z" style="fill:#edf7f5;stroke:#5fe1cf;stroke-miterlimit:10;stroke-width:5px"/><path d="M251.243,152.266A45.369,45.369,0,1,1,253.2,73.355a108.082,108.082,0,0,0-34.484-47.643,5.522,5.522,0,0,0-4.668,3.345l-6.526,15.434a70.862,70.862,0,0,0-9.8,4.062l-15.533-6.3a5.532,5.532,0,0,0-5.991,1.214L161.056,58.608a5.532,5.532,0,0,0-1.215,5.991l6.3,15.534a70.888,70.888,0,0,0-4.062,9.8l-15.434,6.527a5.533,5.533,0,0,0-3.377,5.095v21.412a5.533,5.533,0,0,0,3.377,5.1l15.434,6.526a70.727,70.727,0,0,0,4.062,9.8l-6.3,15.534a5.532,5.532,0,0,0,1.215,5.991l15.141,15.14a5.53,5.53,0,0,0,5.991,1.215l15.533-6.3a70.986,70.986,0,0,0,9.8,4.062l6.526,15.433a5.526,5.526,0,0,0,1.405,1.967A108.2,108.2,0,0,0,251.243,152.266Z" style="fill:#edf7f5;stroke:#5fe1cf;stroke-miterlimit:10;stroke-width:5px"/><path d="M303.517,100.666l-10.383-4.391a47.681,47.681,0,0,0-2.733-6.591l4.238-10.451a3.721,3.721,0,0,0-.817-4.03L283.636,65.016a3.723,3.723,0,0,0-4.031-.817l-10.451,4.239a47.6,47.6,0,0,0-6.59-2.733l-4.391-10.384a3.723,3.723,0,0,0-3.428-2.272h-11.5a107.288,107.288,0,0,1,12.681,28.9,30.525,30.525,0,0,1-.6,58.868,107.307,107.307,0,0,1-13.331,28.729h12.751a3.723,3.723,0,0,0,3.428-2.272l4.391-10.384a47.6,47.6,0,0,0,6.59-2.733l10.451,4.239a3.723,3.723,0,0,0,4.031-.817l10.186-10.187a3.722,3.722,0,0,0,.817-4.03L290.4,132.909a47.681,47.681,0,0,0,2.733-6.591l10.383-4.391a3.721,3.721,0,0,0,2.272-3.428v-14.4A3.721,3.721,0,0,0,303.517,100.666Z" style="fill:#edf7f5;stroke:#5fe1cf;stroke-miterlimit:10;stroke-width:5px"/><g style="opacity:0.2"><path d="M272,241.384l-3.872,9.548a43.664,43.664,0,0,1,2.5,6.021l4.582,1.938c-.248-.544-.48-1.1-.748-1.628l3.872-9.548a3.4,3.4,0,0,0-.746-3.682l-6.332-6.331A3.4,3.4,0,0,1,272,241.384Z" style="fill:#5fe1cf"/><path d="M212.674,293.3a27.879,27.879,0,0,1,38.918-38.918A27.882,27.882,0,1,0,212.674,293.3Z" style="fill:#5fe1cf"/><path d="M242.691,229.024a43.163,43.163,0,0,1,4.394,1.749l-2.074-4.9a3.4,3.4,0,0,0-3.132-2.076h-1.4Z" style="fill:#5fe1cf"/><path d="M215.243,312.331a43.545,43.545,0,0,1-6.021-2.5l-9.548,3.873a3.4,3.4,0,0,1-3.683-.747l-2.976-2.976h0l9.306,9.307a3.4,3.4,0,0,0,3.683.746l9.548-3.872c.532.268,1.084.5,1.628.748Z" style="fill:#5fe1cf"/><path d="M187.314,284.4l-5.231-2.213v1.4a3.4,3.4,0,0,0,2.076,3.132l4.9,2.074A43.472,43.472,0,0,1,187.314,284.4Z" style="fill:#5fe1cf"/><path d="M286.438,267.3l-4.255-1.8v11.761a3.4,3.4,0,0,1-2.076,3.132l-9.486,4.011a43.677,43.677,0,0,1-2.5,6.022L272,299.971a3.4,3.4,0,0,1-.747,3.682l-9.306,9.306a3.4,3.4,0,0,1-3.683.747l-9.547-3.873a43.431,43.431,0,0,1-6.022,2.5l-4.011,9.487a3.4,3.4,0,0,1-3.132,2.076H223.786l1.8,4.255a3.4,3.4,0,0,0,3.132,2.076h13.161a3.4,3.4,0,0,0,3.132-2.076l4.012-9.486a43.716,43.716,0,0,0,6.021-2.5l9.548,3.872a3.4,3.4,0,0,0,3.682-.746l9.307-9.307a3.4,3.4,0,0,0,.746-3.682l-3.872-9.548a43.677,43.677,0,0,0,2.5-6.022l9.486-4.011a3.4,3.4,0,0,0,2.076-3.132V270.428A3.4,3.4,0,0,0,286.438,267.3Z" style="fill:#5fe1cf"/></g><g style="opacity:0.2"><path d="M159.841,64.6l3.355,8.273c.273-.577.544-1.155.831-1.724L159.765,60.64A5.531,5.531,0,0,0,159.841,64.6Z" style="fill:#5fe1cf"/><path d="M248.843,63.122a45.365,45.365,0,0,0-63.974,55.022,45.3,45.3,0,0,1,44.976-51.256,45.157,45.157,0,0,1,23.35,6.467A107.194,107.194,0,0,0,248.843,63.122Z" style="fill:#5fe1cf"/><path d="M213.334,188.437a5.541,5.541,0,0,1-1.4-1.966L205.4,171.037a70.727,70.727,0,0,1-9.8-4.062l-15.534,6.3a5.533,5.533,0,0,1-5.991-1.215l-13.637-13.637-.6,1.49a5.532,5.532,0,0,0,1.215,5.991l15.14,15.14a5.531,5.531,0,0,0,5.991,1.215l15.534-6.3a70.973,70.973,0,0,0,9.8,4.062l6.527,15.433a5.536,5.536,0,0,0,1.4,1.967,108.2,108.2,0,0,0,35.795-45.156,45.188,45.188,0,0,1-8.35,3.433A108.412,108.412,0,0,1,213.334,188.437Z" style="fill:#5fe1cf"/><path d="M163.146,137.57l.881-2.175a70.833,70.833,0,0,1-4.061-9.8l-15.434-6.527a5.5,5.5,0,0,1-1.264-.757v4.646a5.534,5.534,0,0,0,3.378,5.1l15.434,6.526C162.411,135.591,162.771,136.584,163.146,137.57Z" style="fill:#5fe1cf"/></g><g style="opacity:0.2"><path d="M255.92,81.947A30.441,30.441,0,0,1,266.5,87.391a30.613,30.613,0,0,0-11.6-8.935C255.257,79.612,255.6,80.774,255.92,81.947Z" style="fill:#5fe1cf"/><path d="M289.718,74.312,285.48,84.763a47.732,47.732,0,0,1,2.733,6.591l3.668,1.551q-.683-1.642-1.481-3.221l4.239-10.451a3.721,3.721,0,0,0-.817-4.03L288.9,70.282A3.722,3.722,0,0,1,289.718,74.312Z" style="fill:#5fe1cf"/><path d="M303.517,100.666l-2.649-1.12v14.033a3.723,3.723,0,0,1-2.272,3.428l-10.383,4.39a47.681,47.681,0,0,1-2.733,6.591l4.238,10.451a3.723,3.723,0,0,1-.817,4.031l-10.186,10.186a3.723,3.723,0,0,1-4.031.817l-10.451-4.238a47.715,47.715,0,0,1-6.59,2.732l-4.391,10.384a3.723,3.723,0,0,1-3.428,2.272h-4.8c-.973,1.666-1.974,3.313-3.033,4.921h12.751a3.723,3.723,0,0,0,3.429-2.272l4.391-10.384a47.6,47.6,0,0,0,6.59-2.733l10.451,4.239a3.722,3.722,0,0,0,4.03-.817l10.187-10.187a3.722,3.722,0,0,0,.817-4.03L290.4,132.909a47.558,47.558,0,0,0,2.733-6.591l10.384-4.391a3.721,3.721,0,0,0,2.272-3.428v-14.4A3.721,3.721,0,0,0,303.517,100.666Z" style="fill:#5fe1cf"/><path d="M257.643,60.784q1.715.564,3.369,1.253l-2.839-6.716a3.723,3.723,0,0,0-3.429-2.272h-.372Z" style="fill:#5fe1cf"/></g></svg>