<svg xmlns="http://www.w3.org/2000/svg" viewBox="0 0 254.961 305"><title>secured</title><path d="M251.663,88.526l-.562-44.5L127.491,2.507V2.5l-.01,0-.011,0v.007L3.86,44.022,3.3,88.526c-.371,29.38-3.135,58.741,4.4,87.509a183.02,183.02,0,0,0,95.039,116.6c1.47.734,24.29,9.315,24.735,9.842v.018l.011-.009.01.009v-.018c.446-.527,23.265-9.108,24.735-9.842a183.012,183.012,0,0,0,95.039-116.6C254.8,147.267,252.034,117.906,251.663,88.526Z" style="fill:#edf7f5;stroke:#5fe1cf;stroke-linecap:round;stroke-linejoin:round;stroke-width:5px"/><path d="M251.663,88.526l-.562-44.5L246.578,42.5q.211,16.662.421,33.323c.367,29.071,3.1,58.122-4.351,86.587a181.079,181.079,0,0,1-94.037,115.375c-1.454.726-24.033,9.217-24.474,9.738v.018l-.011-.009-.01.009v-.018c-.441-.521-23.02-9.012-24.474-9.738A181.087,181.087,0,0,1,5.605,162.413Q4.58,158.5,3.8,154.569A149.405,149.405,0,0,0,7.7,176.035a183.009,183.009,0,0,0,95.038,116.6c1.47.735,24.29,9.316,24.735,9.843v.018l.011-.009.01.009v-.018c.446-.527,23.266-9.108,24.735-9.843a183.006,183.006,0,0,0,95.039-116.6C254.8,147.267,252.033,117.906,251.663,88.526Z" style="fill:#5fe1cf;opacity:0.2"/><rect x="78.193" y="128.321" width="98.575" height="70.179" rx="5" ry="5" style="fill:#5fe1cf"/><rect x="98.186" y="76.5" width="58.589" height="88.828" rx="29.294" ry="29.294" style="fill:none;stroke:#5fe1cf;stroke-miterlimit:10;stroke-width:5px"/><circle cx="127.481" cy="155.513" r="11.579" style="fill:#fff"/><rect x="121.322" y="155.76" width="12.317" height="24.634" rx="6.159" ry="6.159" style="fill:#fff"/></svg>