<svg xmlns="http://www.w3.org/2000/svg" viewBox="0 0 305 257.553"><title>settings</title><line x1="2.5" y1="38.069" x2="302.5" y2="38.069" style="fill:none;stroke:#5fe1cf;stroke-linecap:round;stroke-linejoin:round;stroke-width:5px"/><line x1="2.5" y1="129.228" x2="302.5" y2="129.228" style="fill:none;stroke:#5fe1cf;stroke-linecap:round;stroke-linejoin:round;stroke-width:5px"/><line x1="2.5" y1="219.58" x2="302.5" y2="219.58" style="fill:none;stroke:#5fe1cf;stroke-linecap:round;stroke-linejoin:round;stroke-width:5px"/><rect x="45.086" y="2.5" width="100.839" height="67.764" rx="10" ry="10" style="fill:#fff;stroke:#5fe1cf;stroke-miterlimit:10;stroke-width:5px"/><rect x="45.086" y="187.29" width="100.839" height="67.764" rx="10" ry="10" style="fill:#fff;stroke:#5fe1cf;stroke-miterlimit:10;stroke-width:5px"/><rect x="158.152" y="95.969" width="100.839" height="67.764" rx="10" ry="10" style="fill:#edf7f5;stroke:#5fe1cf;stroke-miterlimit:10;stroke-width:5px"/><path d="M249.383,95.989c.01.189.028.377.028.568v47.764a10,10,0,0,1-10,10H158.572c-.132,0-.26-.015-.391-.02a9.992,9.992,0,0,0,9.972,9.432h80.838a10,10,0,0,0,10-10V105.969A9.992,9.992,0,0,0,249.383,95.989Z" style="fill:#5fe1cf;opacity:0.2"/></svg>