<svg xmlns="http://www.w3.org/2000/svg" viewBox="0 0 305.473 310.352"><title>shapes</title><path d="M40.8,203.273A124.2,124.2,0,0,1,118.26,30.406" style="fill:none;stroke:#5fe1cf;stroke-miterlimit:10;stroke-width:5px"/><path d="M184.832,29.741a124.205,124.205,0,0,1,80.8,171.534" style="fill:none;stroke:#5fe1cf;stroke-miterlimit:10;stroke-width:5px"/><path d="M198.889,264.886a124.565,124.565,0,0,1-92.016.11" style="fill:none;stroke:#5fe1cf;stroke-miterlimit:10;stroke-width:5px"/><circle cx="47.402" cy="261.707" r="44.902" style="fill:#edf7f5;stroke:#5fe1cf;stroke-miterlimit:10;stroke-width:5px"/><rect x="212.463" y="217.341" width="90.511" height="90.511" rx="10" ry="10" style="fill:#edf7f5;stroke:#5fe1cf;stroke-miterlimit:10;stroke-width:5px"/><path d="M148.413,5l-41.7,72.226a5,5,0,0,0,4.33,7.5h83.4a5,5,0,0,0,4.33-7.5L157.073,5A5,5,0,0,0,148.413,5Z" style="fill:#edf7f5;stroke:#5fe1cf;stroke-miterlimit:10;stroke-width:5px"/><path d="M71.4,223.763a44.9,44.9,0,0,1-58.668,66.475A44.9,44.9,0,1,0,71.4,223.763Z" style="fill:#5fe1cf;opacity:0.2"/><path d="M292.979,217.341h-.707c.011.195.029.388.029.586v70.51a10,10,0,0,1-10,10H212.5a9.992,9.992,0,0,0,9.971,9.415h70.51a10,10,0,0,0,10-10V227.341A10,10,0,0,0,292.979,217.341Z" style="fill:#5fe1cf;opacity:0.2"/><path d="M157.079,5a4.994,4.994,0,0,0-6.42-2.038L188.1,67.812a5,5,0,0,1-4.331,7.5H107.824l-1.105,1.914a5,5,0,0,0,4.33,7.5h83.4a5,5,0,0,0,4.331-7.5Z" style="fill:#5fe1cf;opacity:0.2"/></svg>