<svg xmlns="http://www.w3.org/2000/svg" viewBox="0 0 24 24">
  <title>smart-tech-platform-home</title>
  <path d="M6.556,10A.143.143,0,0,1,6.62,9.89l1.546-.916a.723.723,0,0,1,.668,0l1.546.916a.146.146,0,0,1,.064.114v.2a.077.077,0,0,1-.081.076H6.637a.078.078,0,0,1-.081-.076Zm0,2.418a.355.355,0,0,1,.358-.356h3.172a.356.356,0,1,1,0,.712H6.914A.356.356,0,0,1,6.556,12.422Zm.388-1.394a.389.389,0,0,1,.778,0v.3a.385.385,0,0,1-.389.385.39.39,0,0,1-.389-.385Zm1.167,0a.389.389,0,0,1,.778,0v.3a.389.389,0,0,1-.778,0Zm1.167,0a.389.389,0,0,1,.778,0v.3a.389.389,0,0,1-.778,0ZM8.5,10.056a.389.389,0,1,0-.389-.389A.389.389,0,0,0,8.5,10.056Z" style="fill:#0dd1ac"/>
  <path d="M14.916,17.833a.493.493,0,0,1-.52.457H9.6a.493.493,0,0,1-.52-.457H1.5V19a1.3,1.3,0,0,0,1.172,1.167H21.328A1.3,1.3,0,0,0,22.5,19V17.833Z" style="fill:#ccc"/>
  <path d="M20.944,5.389a1.556,1.556,0,0,0-1.556-1.556H4.612A1.555,1.555,0,0,0,3.056,5.389V17.056H20.944Zm-.777,10.889H3.833V5.386a.777.777,0,0,1,.777-.775H19.39a.777.777,0,0,1,.777.775Z" style="fill:#ccc"/>
  <path d="M11.222,12.389a.388.388,0,0,0,.387.389h2.36a3.02,3.02,0,0,1,.2-.778H11.609A.388.388,0,0,0,11.222,12.389Z" style="fill:#ccc"/>
  <path d="M14.724,10.444H11.609a.389.389,0,0,0,0,.778h3.018a3.137,3.137,0,0,1,.474-.476A.386.386,0,0,0,14.724,10.444Z" style="fill:#ccc"/>
  <path d="M17.055,8.889H11.611a.389.389,0,0,0,0,.778h5.444a.389.389,0,0,0,0-.778Z" style="fill:#ccc"/>
  <path d="M6.164,13.944a.388.388,0,0,1-.386-.386V7.722H18.222v2.56a3.093,3.093,0,0,1,.778.456v-3.8a.765.765,0,0,0-.413-.672.754.754,0,0,0-.365-.1H5.778A.774.774,0,0,0,5,6.941v7.007a.775.775,0,0,0,.778.774h8.583a3.092,3.092,0,0,1-.319-.778ZM8.5,6.556a.389.389,0,1,1-.389.388A.387.387,0,0,1,8.5,6.556Zm-1.167,0a.389.389,0,1,1-.389.388A.387.387,0,0,1,7.333,6.556ZM5.8,6.836c0-.014,0-.03.008-.043a.422.422,0,0,1,.042-.062.375.375,0,0,1,.042-.062.389.389,0,1,1-.114.275A.358.358,0,0,1,5.8,6.836Z" style="fill:#0dd1ac"/>
  <path d="M17.056,10.833a2.334,2.334,0,1,0,2.333,2.334A2.334,2.334,0,0,0,17.056,10.833Zm1.116,2.151-1.105,1.105a.387.387,0,0,1-.548,0h0v0l-.545-.544a.389.389,0,1,1,.55-.55l.272.272.828-.827a.385.385,0,0,1,.547,0A.39.39,0,0,1,18.172,12.984Z" style="fill:#0dd1ac"/>
</svg>