<svg xmlns="http://www.w3.org/2000/svg" viewBox="0 0 80 64.769"><title>Split</title><path d="M71.206,29.678,8.78,29.844a31.323,31.323,0,0,1,62.426-.166ZM18.8,55.442A31.323,31.323,0,0,0,71.2,35.12l-62.4.113A31.228,31.228,0,0,0,18.8,55.442Z" style="fill:#edf7f5"/><path d="M69.275,29.411A31.7,31.7,0,0,0,65.1,13.647,31.16,31.16,0,0,1,71.2,29.66H69.272C69.273,29.577,69.275,29.494,69.275,29.411ZM37.422,61.265a31.711,31.711,0,0,1-19.533-6.7c.3.3.6.591.91.877a31.323,31.323,0,0,0,52.4-20.3h-2.44A31.863,31.863,0,0,1,37.422,61.265Z" style="fill:#00c0a5;opacity:0.2"/><path d="M39.56,51.411V45.875c-6.58-.3-9.47-4.339-9.606-4.535a.531.531,0,0,1,.874-.6c.144.207,3.556,4.949,11.649,3.972a9.224,9.224,0,0,0,3.137-.987,5.5,5.5,0,0,0,3.1-4.978,5.072,5.072,0,0,0-1.1-3.219.531.531,0,1,1,.838-.652,6.131,6.131,0,0,1,1.322,3.9c-.157,6.291-7.113,6.989-7.183,7a19.092,19.092,0,0,1-1.966.131v5.516a.531.531,0,1,1-1.062,0ZM50,22.563a13.353,13.353,0,0,0-9.375-3.9v-5.3a.531.531,0,1,0-1.062,0v5.306c-.443.016-.719.048-.773.055-1.536.209-6.614,1.218-7.468,5.4a5.282,5.282,0,0,0,2.41,5.666.531.531,0,0,0,.62-.863,4.246,4.246,0,0,1-1.99-4.59c.715-3.5,5.211-4.375,6.565-4.56.063-.008,6.331-.728,10.3,3.517A.531.531,0,0,0,50,22.563ZM2.124,31.853H.531a.531.531,0,0,0,0,1.062H2.124a.531.531,0,1,0,0-1.062Zm23.055,0a.531.531,0,0,0,0,1.062h3.293a.531.531,0,0,0,0-1.062Zm-6.587,0a.531.531,0,0,0,0,1.062h3.293a.531.531,0,0,0,0-1.062Zm-6.588,0a.531.531,0,0,0,0,1.062H15.3a.531.531,0,1,0,0-1.062Zm29.643,1.062a.531.531,0,0,0,0-1.062H38.353a.531.531,0,0,0,0,1.062Zm-32.4-.531a.531.531,0,0,0-.531-.531H5.417a.531.531,0,0,0,0,1.062H8.711A.531.531,0,0,0,9.242,32.384Zm25.818.531a.531.531,0,0,0,0-1.062H31.766a.531.531,0,0,0,0,1.062ZM64.7,31.853a.531.531,0,0,0,0,1.062H68a.531.531,0,0,0,0-1.062Zm9.881,0H71.289a.531.531,0,1,0,0,1.062h3.294a.531.531,0,0,0,0-1.062ZM48.234,32.915a.531.531,0,0,0,0-1.062H44.94a.531.531,0,0,0,0,1.062Zm9.881-1.062a.531.531,0,0,0,0,1.062h3.293a.531.531,0,0,0,0-1.062Zm-6.587,0a.531.531,0,0,0,0,1.062h3.293a.531.531,0,0,0,0-1.062Zm27.941,0H77.876a.531.531,0,0,0,0,1.062h1.593a.531.531,0,0,0,0-1.062ZM8.247,29.845l.529.042,0-.043A31.324,31.324,0,0,1,61.25,9.372,31.543,31.543,0,0,1,65.1,13.647,31.16,31.16,0,0,1,71.2,29.66l0,.018,0,.043.528-.044h0l.529-.045A32.386,32.386,0,0,0,7.717,29.8l.529.042ZM71.2,35.12l0,.019a31.323,31.323,0,0,1-52.4,20.3c-.31-.286-.612-.58-.91-.877A31.2,31.2,0,0,1,8.806,35.233l0-.045-.528.046h0l-.528.047a32.386,32.386,0,0,0,64.523-.117l-1.059-.09C71.207,35.09,71.205,35.1,71.2,35.12Z" style="fill:#00c0a5"/></svg>