<svg viewBox="0 0 39.72 39.72" fill="currentColor">
    <path d="M19.86 0a19.86 19.86 0 1 0 19.86 19.86A19.88 19.88 0 0 0 19.86 0zm8.86 15.32v.59a13 13 0 0 1-20 11 9.81 9.81 0 0 0 1.09.07 9.17 9.17 0 0 0 5.68-2 4.58 4.58 0 0 1-4.27-3.18 4.82 4.82 0 0 0 .86.09 4.35 4.35 0 0 0 1.2-.17 4.56 4.56 0 0 1-3.67-4.47.11.11 0 0 1 0-.06 4.63 4.63 0 0 0 2.07.57 4.57 4.57 0 0 1-2-3.81 4.63 4.63 0 0 1 .62-2.3 13 13 0 0 0 9.42 4.78 4.42 4.42 0 0 1-.12-1 4.58 4.58 0 0 1 7.91-3.13 9 9 0 0 0 2.91-1.11 4.59 4.59 0 0 1-2 2.53A8.91 8.91 0 0 0 31 13a9.34 9.34 0 0 1-2.28 2.37zm0 0"></path>
</svg>