<?xml version="1.0" encoding="utf-8"?><svg xmlns="http://www.w3.org/2000/svg" xmlns:xlink="http://www.w3.org/1999/xlink"><symbol viewBox="0 0 24 24" id="check" xmlns="http://www.w3.org/2000/svg"><path d="M0 0h24v24H0z" fill="none"/><path d="M9 16.17L4.83 12l-1.42 1.41L9 19 21 7l-1.41-1.41z"/></symbol><symbol viewBox="0 0 24 24" id="email" xmlns="http://www.w3.org/2000/svg"><path d="M20 4H4c-1.1 0-1.99.9-1.99 2L2 18c0 1.1.9 2 2 2h16c1.1 0 2-.9 2-2V6c0-1.1-.9-2-2-2zm0 4l-8 5-8-5V6l8 5 8-5v2z"/><path d="M0 0h24v24H0z" fill="none"/></symbol><symbol viewBox="0 0 24 24" id="helpful-hassle-free-home" xmlns="http://www.w3.org/2000/svg"><path d="M17.3 3.275h-12a.959.959 0 0 0-.957.959V19.06a.959.959 0 0 0 .957.958h8.726l-.32-.405a3.474 3.474 0 0 1-.409-.658l-.068-.143H5.61a.1.1 0 0 1-.105-.1V4.583a.105.105 0 0 1 .105-.1h11.367a.1.1 0 0 1 .105.1v9.492l.188.047a3.571 3.571 0 0 1 .626.226l.357.169V4.234a.959.959 0 0 0-.953-.959z" fill="#ccc"/><path d="M15.531 12.353H7.763a.353.353 0 0 0 0 .706h7.768a.353.353 0 0 0 0-.706zM14.218 14.485a.385.385 0 0 0-.1-.013H8.467a.353.353 0 0 0 0 .706H13.5a3.7 3.7 0 0 1 .718-.693zM7.41 16.944a.352.352 0 0 0 .353.353h4.947a3.742 3.742 0 0 1 .1-.707H7.763a.354.354 0 0 0-.353.354z" fill="#ccc"/><path d="M16.414 14.472a3 3 0 1 0 3 3 3 3 0 0 0-3-3zM17.653 18h-1.419a.351.351 0 0 1-.35-.353v-1.762a.354.354 0 1 1 .707 0V17.3h1.062a.353.353 0 0 1 0 .706zM13.7 6.508a.719.719 0 0 0-1.019 0l-1.538 1.535-.507-.507a.723.723 0 1 0-1.023 1.023l1.014 1.014a.719.719 0 0 0 1.019 0l2.055-2.055a.725.725 0 0 0-.001-1.01z" fill="#0dd1ac"/></symbol><symbol viewBox="0 0 24 24" id="house-home" xmlns="http://www.w3.org/2000/svg"><path d="M21.566 11.129l-1.9-4.737a.5.5 0 0 0-.464-.314H8.723v-1.59a.5.5 0 0 0-.5-.5H6.85a.5.5 0 0 0-.5.5v1.59H4.728a.5.5 0 0 0-.466.32l-1.83 4.737a.5.5 0 0 0 .466.681h.5v7.2a1 1 0 0 0 1 1H19.61a1 1 0 0 0 1-1v-7.2h.49a.5.5 0 0 0 .466-.687zM7.09 4.788a.2.2 0 0 1 .2-.2h.524a.2.2 0 0 1 .2.2v1.29H7.09zm3.581 14.224v-4.726h2.658v4.726zm8.939-.5a.5.5 0 0 1-.5.5H14.4v-4.794h-.013c0-.011.013-.02.013-.032v-.868a.1.1 0 0 0-.1-.1H9.7a.1.1 0 0 0-.1.1v.868c0 .012.009.021.013.032H9.6v4.794H4.9a.5.5 0 0 1-.5-.5v-6.7h3.387l3.678-2.242a1 1 0 0 1 1.039 0l3.716 2.248h3.39zm.456-7.7H16.5l-4.259-2.571a.5.5 0 0 0-.52 0l-4.215 2.575H3.919a.2.2 0 0 1-.187-.272l1.289-3.338a.2.2 0 0 1 .187-.128h13.518a.2.2 0 0 1 .186.125l1.34 3.338a.2.2 0 0 1-.186.275z"/></symbol><symbol viewBox="0 0 24 24" id="lock" xmlns="http://www.w3.org/2000/svg"><path d="M0 0h24v24H0z" fill="none"/><path d="M18 8h-1V6c0-2.76-2.24-5-5-5S7 3.24 7 6v2H6c-1.1 0-2 .9-2 2v10c0 1.1.9 2 2 2h12c1.1 0 2-.9 2-2V10c0-1.1-.9-2-2-2zm-6 9c-1.1 0-2-.9-2-2s.9-2 2-2 2 .9 2 2-.9 2-2 2zm3.1-9H8.9V6c0-1.71 1.39-3.1 3.1-3.1 1.71 0 3.1 1.39 3.1 3.1v2z"/></symbol><symbol viewBox="0 0 24 24" id="message" xmlns="http://www.w3.org/2000/svg"><path d="M20 2H4c-1.1 0-1.99.9-1.99 2L2 22l4-4h14c1.1 0 2-.9 2-2V4c0-1.1-.9-2-2-2zm-2 12H6v-2h12v2zm0-3H6V9h12v2zm0-3H6V6h12v2z"/><path d="M0 0h24v24H0z" fill="none"/></symbol><symbol viewBox="0 0 24 24" id="phone" xmlns="http://www.w3.org/2000/svg"><path d="M0 0h24v24H0z" fill="none"/><path d="M6.62 10.79c1.44 2.83 3.76 5.14 6.59 6.59l2.2-2.2c.27-.27.67-.36 1.02-.24 1.12.37 2.33.57 3.57.57.55 0 1 .45 1 1V20c0 .55-.45 1-1 1-9.39 0-17-7.61-17-17 0-.55.45-1 1-1h3.5c.55 0 1 .45 1 1 0 1.25.2 2.45.57 3.57.11.35.03.74-.25 1.02l-2.2 2.2z"/></symbol><symbol viewBox="0 0 24 24" id="refinance-home" xmlns="http://www.w3.org/2000/svg"><path d="M12.3 13.966a1.47 1.47 0 0 1-.774.1 3.447 3.447 0 0 1-1.179-.355c-.218-.116-.281-.085-.356.151-.067.2-.121.409-.178.614-.076.276-.049.342.227.476a3.639 3.639 0 0 0 1.063.307c.285.044.294.058.3.356v.4a.24.24 0 0 0 .258.271h.6a.229.229 0 0 0 .249-.258c0-.187.009-.369 0-.556a.293.293 0 0 1 .254-.334 2.032 2.032 0 0 0 1.045-.672 1.885 1.885 0 0 0-.609-2.865 10.108 10.108 0 0 0-1.05-.476 2.355 2.355 0 0 1-.574-.325.5.5 0 0 1 .124-.895 1.031 1.031 0 0 1 .356-.071 2.643 2.643 0 0 1 1.326.263c.209.1.276.071.347-.147s.138-.467.205-.7a.245.245 0 0 0-.16-.324 3.23 3.23 0 0 0-.837-.25c-.382-.057-.382-.057-.382-.44-.005-.539-.005-.539-.543-.539h-.236c-.254.009-.3.054-.3.307v.343c0 .338 0 .334-.324.45a1.8 1.8 0 0 0-1.318 1.668 1.706 1.706 0 0 0 .966 1.633 9.677 9.677 0 0 0 1.2.551 1.758 1.758 0 0 1 .44.258.6.6 0 0 1-.14 1.059z"/><path d="M5.079 13.563A7.081 7.081 0 0 1 12 4.9a7.026 7.026 0 0 1 4.755 1.856h-.239a.612.612 0 0 0 0 1.224h1.827a.613.613 0 0 0 .612-.612V5.541a.612.612 0 0 0-1.224 0v.753A8 8 0 0 0 12 3.9a8.071 8.071 0 0 0-7.854 10.049l.029.117.922-.424zM19.834 9.971l-.03-.116-.922.424.019.079A7.076 7.076 0 0 1 12 19.1a7.024 7.024 0 0 1-4.755-1.857h.239a.612.612 0 1 0 0-1.223H5.657a.613.613 0 0 0-.612.612v1.827a.612.612 0 0 0 1.224 0V17.7A8 8 0 0 0 12 20.1a8.074 8.074 0 0 0 7.834-10.129z"/></symbol><symbol viewBox="0 0 24 24" id="smart-tech-platform-home" xmlns="http://www.w3.org/2000/svg"><path d="M6.556 10a.143.143 0 0 1 .064-.11l1.546-.916a.723.723 0 0 1 .668 0l1.546.916a.146.146 0 0 1 .064.114v.2a.077.077 0 0 1-.081.076H6.637a.078.078 0 0 1-.081-.076zm0 2.418a.355.355 0 0 1 .358-.356h3.172a.356.356 0 1 1 0 .712H6.914a.356.356 0 0 1-.358-.352zm.388-1.394a.389.389 0 0 1 .778 0v.3a.385.385 0 0 1-.389.385.39.39 0 0 1-.389-.385zm1.167 0a.389.389 0 0 1 .778 0v.3a.389.389 0 0 1-.778 0zm1.167 0a.389.389 0 0 1 .778 0v.3a.389.389 0 0 1-.778 0zm-.778-.968a.389.389 0 1 0-.389-.389.389.389 0 0 0 .389.389z" fill="#0dd1ac"/><path d="M14.916 17.833a.493.493 0 0 1-.52.457H9.6a.493.493 0 0 1-.52-.457H1.5V19a1.3 1.3 0 0 0 1.172 1.167h18.656A1.3 1.3 0 0 0 22.5 19v-1.167zM20.944 5.389a1.556 1.556 0 0 0-1.556-1.556H4.612a1.555 1.555 0 0 0-1.556 1.556v11.667h17.888zm-.777 10.889H3.833V5.386a.777.777 0 0 1 .777-.775h14.78a.777.777 0 0 1 .777.775z" fill="#ccc"/><path d="M11.222 12.389a.388.388 0 0 0 .387.389h2.36a3.02 3.02 0 0 1 .2-.778h-2.56a.388.388 0 0 0-.387.389zM14.724 10.444h-3.115a.389.389 0 0 0 0 .778h3.018a3.137 3.137 0 0 1 .474-.476.386.386 0 0 0-.377-.302zM17.055 8.889h-5.444a.389.389 0 0 0 0 .778h5.444a.389.389 0 0 0 0-.778z" fill="#ccc"/><path d="M6.164 13.944a.388.388 0 0 1-.386-.386V7.722h12.444v2.56a3.093 3.093 0 0 1 .778.456v-3.8a.765.765 0 0 0-.413-.672.754.754 0 0 0-.365-.1H5.778A.774.774 0 0 0 5 6.941v7.007a.775.775 0 0 0 .778.774h8.583a3.092 3.092 0 0 1-.319-.778zM8.5 6.556a.389.389 0 1 1-.389.388.387.387 0 0 1 .389-.388zm-1.167 0a.389.389 0 1 1-.389.388.387.387 0 0 1 .389-.388zm-1.533.28c0-.014 0-.03.008-.043a.422.422 0 0 1 .042-.062.375.375 0 0 1 .042-.062.389.389 0 1 1-.114.275.358.358 0 0 1 .022-.108z" fill="#0dd1ac"/><path d="M17.056 10.833a2.334 2.334 0 1 0 2.333 2.334 2.334 2.334 0 0 0-2.333-2.334zm1.116 2.151l-1.105 1.105a.387.387 0 0 1-.548 0l-.545-.544a.389.389 0 1 1 .55-.55l.272.272.828-.827a.385.385 0 0 1 .547 0 .39.39 0 0 1 .001.544z" fill="#0dd1ac"/></symbol><symbol viewBox="0 0 24 24" id="star" xmlns="http://www.w3.org/2000/svg"><path d="M0 0h24v24H0z" fill="none"/><path d="M12 17.27L18.18 21l-1.64-7.03L22 9.24l-7.19-.61L12 2 9.19 8.63 2 9.24l5.46 4.73L5.82 21z"/><path d="M0 0h24v24H0z" fill="none"/></symbol><symbol viewBox="0 0 24 24" id="step-by-step-home" xmlns="http://www.w3.org/2000/svg"><path d="M16.149 5.085h1.381a1.106 1.106 0 0 1 1.108 1.108V20.3a1.108 1.108 0 0 1-1.107 1.1H6.469a1.105 1.105 0 0 1-1.107-1.1V6.193A1.106 1.106 0 0 1 6.47 5.085h1.381v-.276A1.1 1.1 0 0 1 8.957 3.7h1.285a2.5 2.5 0 0 1 .209-.332 1.937 1.937 0 0 1 3.1 0 2.5 2.5 0 0 1 .209.332h1.285a1.105 1.105 0 0 1 1.106 1.107zm-8.3 1.107H6.468V20.3h11.063V6.2h-1.382v.278a1.106 1.106 0 0 1-1.106 1.1H8.957a1.106 1.106 0 0 1-1.106-1.1v-.286zm7.192.276V4.809h-1.66a.554.554 0 0 1-.537-.419 1.126 1.126 0 0 0-.182-.356.83.83 0 0 0-1.328 0 1.126 1.126 0 0 0-.182.356.554.554 0 0 1-.537.419H8.957v1.659zm.55 3.319a.554.554 0 0 1 0 1.107H12a.554.554 0 0 1 0-1.107zm0 3.319a.554.554 0 1 1 0 1.107H12a.554.554 0 0 1 0-1.107zm0 3.32a.553.553 0 1 1 0 1.106H12a.553.553 0 0 1 0-1.106z" fill="#ccc"/><path d="M8.6 11.266a.441.441 0 0 0 .624 0l1.259-1.259a.443.443 0 0 0-.627-.627l-.942.943-.311-.311a.443.443 0 1 0-.627.627zM9.863 12.686l-.942.943-.311-.311a.443.443 0 1 0-.627.627l.621.621a.441.441 0 0 0 .624 0l1.259-1.259a.443.443 0 0 0-.627-.627zM9.863 16.086l-.942.943-.311-.311a.443.443 0 1 0-.627.627l.621.621a.441.441 0 0 0 .624 0l1.259-1.259a.443.443 0 0 0-.627-.627z" fill="#0dd1ac"/></symbol><symbol viewBox="0 0 24 24" id="transparent-convenient-home" xmlns="http://www.w3.org/2000/svg"><path d="M20.256 11.894a1.308 1.308 0 0 0-1.31-1.075s-2.177-.022-2.9-.008a3.682 3.682 0 0 1-1.212-.074.3.3 0 0 1-.125-.371 9.934 9.934 0 0 1 .775-1.945c.353-.725.452-3.141-.128-3.54a1.287 1.287 0 0 0-1.778.32l-.461 1.651a5.824 5.824 0 0 1-.841 1.777l-.87 1.241c-.185.264-.915 1.111-1.326 1.583a1.162 1.162 0 0 0-.285.758l-.015 5.882a.785.785 0 0 0 .569.755l5.672.493h.86a1.347 1.347 0 0 0 1.306-.91 1.21 1.21 0 0 0-.036-.812 1.264 1.264 0 0 0 .98-1.222 1.251 1.251 0 0 0-.413-.929 1.269 1.269 0 0 0 1.033-1.237 1.248 1.248 0 0 0-.421-.935 1.26 1.26 0 0 0 .926-1.4" fill="none" stroke="#ccc" stroke-linejoin="round" stroke-width=".909"/><path d="M8.134 10.961l-3.889-.01a.486.486 0 0 0-.5.478l-.02 7.423a.486.486 0 0 0 .492.481l3.889.01a.487.487 0 0 0 .495-.478l.02-7.423a.487.487 0 0 0-.487-.481zm-1.257 7.333a.7.7 0 1 1 .7-.7.7.7 0 0 1-.7.7z" fill="#0dd1ac"/></symbol></svg>